<svg width="1280" height="975" viewBox="0 0 1280 975" fill="none" xmlns="http://www.w3.org/2000/svg">
<path fillRule="evenodd" clipRule="evenodd" d="M1284 897.667L1230.29 904.111C1176.58 910.556 1069.17 923.444 961.75 904.111C854.333 884.778 746.917 833.222 639.5 807.445C532.083 781.667 424.667 781.667 317.25 813.889C209.833 846.111 102.417 910.556 48.7084 942.778L-4.99997 975L-5 627H48.7083C102.417 627 209.833 627 317.25 627C424.667 627 532.083 627 639.5 627C746.917 627 854.333 627 961.75 627C1069.17 627 1176.58 627 1230.29 627H1284L1284 897.667Z" fill="url(#paint0_linear_245_13700)"/>
<path d="M-0.99991 340H1281V687H-0.99991V340Z" fill="url(#paint1_linear_245_13700)"/>
<path fillRule="evenodd" clipRule="evenodd" d="M-3.99991 77.3333L49.7084 70.8889C103.417 64.4444 210.833 51.5556 318.25 70.8889C425.667 90.2222 533.083 141.778 640.5 167.556C747.917 193.333 855.333 193.333 962.75 161.111C1070.17 128.889 1177.58 64.4444 1231.29 32.2222L1285 0V348H1231.29C1177.58 348 1070.17 348 962.75 348C855.333 348 747.917 348 640.5 348C533.083 348 425.667 348 318.25 348C210.833 348 103.417 348 49.7084 348H-3.99991V77.3333Z" fill="url(#paint2_linear_245_13700)"/>
<path fillRule="evenodd" clipRule="evenodd" d="M1284 897.667L1230.29 904.111C1176.58 910.556 1069.17 923.444 961.75 904.111C854.333 884.778 746.917 833.222 639.5 807.445C532.083 781.667 424.667 781.667 317.25 813.889C209.833 846.111 102.417 910.556 48.7084 942.778L-4.99997 975L-5 627H48.7083C102.417 627 209.833 627 317.25 627C424.667 627 532.083 627 639.5 627C746.917 627 854.333 627 961.75 627C1069.17 627 1176.58 627 1230.29 627H1284L1284 897.667Z" />
<path d="M-0.99991 340H1281V687H-0.99991V340Z" />
<path fillRule="evenodd" clipRule="evenodd" d="M-3.99991 77.3333L49.7084 70.8889C103.417 64.4444 210.833 51.5556 318.25 70.8889C425.667 90.2222 533.083 141.778 640.5 167.556C747.917 193.333 855.333 193.333 962.75 161.111C1070.17 128.889 1177.58 64.4444 1231.29 32.2222L1285 0V348H1231.29C1177.58 348 1070.17 348 962.75 348C855.333 348 747.917 348 640.5 348C533.083 348 425.667 348 318.25 348C210.833 348 103.417 348 49.7084 348H-3.99991V77.3333Z" />
<defs>
<linearGradient id="paint0_linear_245_13700" x1="-5" y1="117" x2="1297.5" y2="940" gradientUnits="userSpaceOnUse">
<stop offset="1" stop-color="#A5DBD3"/>
</linearGradient>
<linearGradient id="paint1_linear_245_13700" x1="-5" y1="117" x2="1297.5" y2="940" gradientUnits="userSpaceOnUse">
<stop offset="1" stop-color="#A5DBD3"/>
</linearGradient>
<linearGradient id="paint2_linear_245_13700" x1="-5" y1="117" x2="1297.5" y2="940" gradientUnits="userSpaceOnUse">
<stop offset="1" stop-color="#A5DBD3"/>
</linearGradient>
</defs>
</svg>
