<svg width="375" height="616" viewBox="0 0 375 616" fill="none" xmlns="http://www.w3.org/2000/svg">
<path fillRule="evenodd" clipRule="evenodd" d="M0 75.7885L15.625 68.2597C31.25 60.7308 62.5 45.6731 93.75 43.7909C125 41.9087 156.25 53.2019 187.5 43.7909C218.75 34.3798 250 4.26442 281.25 0.5C312.5 -3.26442 343.75 19.3221 359.375 30.6154L375 41.9087V87.0818H359.375C343.75 87.0818 312.5 87.0818 281.25 87.0818C250 87.0818 218.75 87.0818 187.5 87.0818C156.25 87.0818 125 87.0818 93.75 87.0818C62.5 87.0818 31.25 87.0818 15.625 87.0818H0V75.7885Z" fill="#A5DBD3"/>
<path fillRule="evenodd" clipRule="evenodd" d="M375 540.211L359.375 547.74C343.75 555.269 312.5 570.327 281.25 572.209C250 574.091 218.75 562.798 187.5 572.209C156.25 581.62 125 611.736 93.75 615.5C62.5 619.264 31.25 596.678 15.625 585.385L-3.65662e-06 574.091L-7.60578e-06 528.918L15.625 528.918C31.25 528.918 62.5 528.918 93.75 528.918C125 528.918 156.25 528.918 187.5 528.918C218.75 528.918 250 528.918 281.25 528.918C312.5 528.918 343.75 528.918 359.375 528.918L375 528.918L375 540.211Z" fill="#A5DBD3"/>
<rect y="79" width="375" height="457" fill="#A5DBD3"/>
</svg>
