<svg width="375" height="87" viewBox="0 0 375 87" fill="none" xmlns="http://www.w3.org/2000/svg">
<path fill-rule="evenodd" clip-rule="evenodd" d="M0 75.7067L15.625 68.1779C31.25 60.649 62.5 45.5913 93.75 43.7091C125 41.8269 156.25 53.1202 187.5 43.7091C218.75 34.298 250 4.18265 281.25 0.418222C312.5 -3.3462 343.75 19.2403 359.375 30.5336L375 41.8269V87H359.375C343.75 87 312.5 87 281.25 87C250 87 218.75 87 187.5 87C156.25 87 125 87 93.75 87C62.5 87 31.25 87 15.625 87H0V75.7067Z" fill="#A5DBD3"/>
</svg>
