<svg xmlns="http://www.w3.org/2000/svg" xmlns:xlink="http://www.w3.org/1999/xlink" width="100" zoomAndPan="magnify" viewBox="0 0 75 74.999997" height="100" preserveAspectRatio="xMidYMid meet" version="1.0"><defs><clipPath id="1faa86cc7e"><path d="M 42 35 L 71.144531 35 L 71.144531 59 L 42 59 Z M 42 35 " clip-rule="nonzero"/></clipPath><clipPath id="2ef01ae218"><path d="M 16 14.265625 L 55 14.265625 L 55 60 L 16 60 Z M 16 14.265625 " clip-rule="nonzero"/></clipPath><clipPath id="d278fcaa17"><path d="M 24 14.265625 L 55 14.265625 L 55 39 L 24 39 Z M 24 14.265625 " clip-rule="nonzero"/></clipPath><clipPath id="41afe7ddad"><path d="M 4 40 L 32 40 L 32 60.765625 L 4 60.765625 Z M 4 40 " clip-rule="nonzero"/></clipPath><clipPath id="2273f4cbf9"><path d="M 4 45 L 32 45 L 32 60.765625 L 4 60.765625 Z M 4 45 " clip-rule="nonzero"/></clipPath><clipPath id="0a187a79e3"><path d="M 28 34 L 54 34 L 54 60.765625 L 28 60.765625 Z M 28 34 " clip-rule="nonzero"/></clipPath></defs><path fill="#4db748" d="M 56.53125 58.550781 C 57.523438 58.550781 58.472656 58.097656 59.203125 57.414062 C 59.457031 57.179688 59.824219 57.128906 60.136719 57.28125 C 60.960938 57.683594 61.972656 57.910156 62.917969 57.734375 C 63.863281 57.554688 64.722656 56.976562 65.265625 56.179688 C 65.472656 55.878906 65.832031 55.722656 66.183594 55.816406 C 67.203125 56.09375 68.257812 56.0625 69.179688 55.6875 C 70.785156 55.027344 71.09375 52.875 69.730469 51.800781 C 64.902344 47.992188 61.792969 41.480469 58.773438 35.917969 C 58.53125 35.472656 54.332031 36.027344 54.09375 36.472656 C 51.074219 42.039062 48.164062 47.992188 43.332031 51.800781 C 41.96875 52.875 42.28125 55.027344 43.882812 55.6875 L 43.886719 55.6875 C 44.808594 56.0625 45.859375 56.09375 46.882812 55.816406 C 47.234375 55.722656 47.59375 55.878906 47.796875 56.179688 C 48.339844 56.976562 49.199219 57.554688 50.148438 57.734375 C 51.09375 57.910156 52.101562 57.683594 52.929688 57.28125 C 53.238281 57.128906 53.605469 57.179688 53.859375 57.414062 C 54.59375 58.097656 55.539062 58.550781 56.53125 58.550781 " fill-opacity="1" fill-rule="nonzero"/><g clip-path="url(#1faa86cc7e)"><path fill="#703627" d="M 56.542969 58.996094 C 56.535156 58.996094 56.527344 58.996094 56.519531 58.996094 C 55.480469 58.996094 54.429688 58.550781 53.558594 57.742188 C 53.441406 57.632812 53.269531 57.609375 53.121094 57.679688 C 52.105469 58.175781 51.019531 58.351562 50.066406 58.171875 C 49.011719 57.972656 48.050781 57.339844 47.433594 56.433594 C 47.324219 56.277344 47.15625 56.207031 46.996094 56.25 C 45.851562 56.554688 44.714844 56.503906 43.71875 56.101562 C 42.8125 55.726562 42.191406 54.925781 42.054688 53.953125 C 41.921875 52.988281 42.296875 52.050781 43.058594 51.449219 C 47.363281 48.054688 50.15625 42.859375 52.855469 37.832031 C 53.136719 37.304688 53.421875 36.78125 53.703125 36.261719 C 54.109375 35.507812 57.484375 35.308594 57.925781 35.308594 C 58.660156 35.308594 59.007812 35.417969 59.164062 35.703125 C 59.515625 36.347656 59.867188 37.007812 60.222656 37.675781 C 62.96875 42.820312 65.808594 48.140625 70.003906 51.449219 C 70.765625 52.050781 71.144531 52.988281 71.007812 53.953125 C 70.871094 54.925781 70.253906 55.726562 69.347656 56.097656 C 68.347656 56.503906 67.214844 56.554688 66.066406 56.25 C 65.90625 56.203125 65.738281 56.277344 65.632812 56.433594 C 65.011719 57.339844 64.054688 57.972656 62.996094 58.171875 C 62.042969 58.351562 60.957031 58.175781 59.941406 57.679688 C 59.792969 57.609375 59.621094 57.632812 59.503906 57.742188 C 58.632812 58.550781 57.582031 58.996094 56.542969 58.996094 Z M 53.300781 56.75 C 53.613281 56.75 53.921875 56.863281 54.164062 57.089844 C 54.867188 57.742188 55.703125 58.105469 56.519531 58.105469 C 56.523438 58.105469 56.527344 58.105469 56.53125 58.105469 C 56.535156 58.105469 56.539062 58.105469 56.542969 58.105469 C 57.359375 58.105469 58.195312 57.742188 58.902344 57.089844 C 59.289062 56.726562 59.851562 56.644531 60.328125 56.878906 C 61.164062 57.285156 62.074219 57.4375 62.835938 57.296875 C 63.648438 57.144531 64.421875 56.632812 64.898438 55.929688 C 65.214844 55.464844 65.777344 55.25 66.296875 55.386719 C 67.253906 55.644531 68.195312 55.605469 69.011719 55.273438 C 69.621094 55.023438 70.039062 54.484375 70.128906 53.832031 C 70.21875 53.183594 69.96875 52.554688 69.457031 52.152344 C 65.113281 48.726562 62.097656 43.078125 59.4375 38.09375 C 59.101562 37.464844 58.769531 36.84375 58.4375 36.230469 C 57.800781 36.070312 54.984375 36.429688 54.449219 36.746094 C 54.179688 37.246094 53.90625 37.75 53.636719 38.253906 C 50.894531 43.359375 48.058594 48.640625 43.609375 52.152344 C 43.09375 52.554688 42.84375 53.183594 42.933594 53.832031 C 43.023438 54.484375 43.445312 55.023438 44.054688 55.273438 C 44.867188 55.605469 45.808594 55.644531 46.765625 55.386719 C 47.285156 55.246094 47.847656 55.464844 48.164062 55.929688 C 48.644531 56.632812 49.414062 57.144531 50.230469 57.296875 C 50.984375 57.4375 51.898438 57.285156 52.734375 56.878906 C 52.914062 56.792969 53.109375 56.75 53.300781 56.75 Z M 54.417969 36.765625 Z M 54.417969 36.765625 " fill-opacity="1" fill-rule="nonzero"/></g><path fill="#4db748" d="M 56.53125 47.496094 C 57.34375 47.5 58.117188 47.125 58.714844 46.570312 C 58.921875 46.378906 59.222656 46.335938 59.476562 46.460938 C 60.152344 46.789062 60.976562 46.976562 61.75 46.832031 C 62.523438 46.683594 63.226562 46.210938 63.671875 45.5625 C 63.839844 45.316406 64.132812 45.1875 64.417969 45.265625 C 65.253906 45.488281 66.113281 45.464844 66.867188 45.15625 C 68.179688 44.621094 68.433594 42.859375 67.320312 41.980469 C 63.371094 38.867188 59.453125 33.820312 56.984375 29.273438 C 56.789062 28.910156 56.277344 28.910156 56.078125 29.273438 C 53.609375 33.820312 49.691406 38.867188 45.746094 41.980469 C 44.628906 42.859375 44.882812 44.621094 46.195312 45.15625 C 46.949219 45.464844 47.808594 45.488281 48.644531 45.265625 C 48.933594 45.1875 49.226562 45.316406 49.394531 45.5625 C 49.835938 46.210938 50.539062 46.683594 51.3125 46.832031 C 52.085938 46.976562 52.910156 46.789062 53.585938 46.460938 C 53.839844 46.335938 54.140625 46.378906 54.347656 46.570312 C 54.949219 47.125 55.722656 47.5 56.53125 47.496094 " fill-opacity="1" fill-rule="nonzero"/><path fill="#703627" d="M 56.542969 47.941406 C 56.535156 47.941406 56.53125 47.941406 56.523438 47.941406 C 55.652344 47.941406 54.773438 47.570312 54.046875 46.898438 C 53.976562 46.828125 53.871094 46.816406 53.78125 46.859375 C 52.933594 47.273438 52.03125 47.417969 51.234375 47.269531 C 50.347656 47.101562 49.542969 46.570312 49.027344 45.8125 C 48.960938 45.714844 48.855469 45.667969 48.757812 45.695312 C 47.804688 45.949219 46.859375 45.90625 46.03125 45.570312 C 45.261719 45.253906 44.734375 44.578125 44.621094 43.753906 C 44.507812 42.933594 44.824219 42.140625 45.46875 41.632812 C 49.132812 38.742188 53.050781 33.921875 55.691406 29.058594 C 55.859375 28.746094 56.179688 28.554688 56.53125 28.554688 C 56.882812 28.554688 57.207031 28.746094 57.375 29.058594 C 60.011719 33.921875 63.929688 38.742188 67.59375 41.632812 C 68.238281 42.140625 68.558594 42.933594 68.445312 43.753906 C 68.328125 44.578125 67.804688 45.253906 67.035156 45.570312 C 66.203125 45.90625 65.257812 45.949219 64.304688 45.695312 C 64.207031 45.667969 64.101562 45.714844 64.035156 45.8125 C 63.519531 46.570312 62.714844 47.101562 61.832031 47.269531 C 61.035156 47.417969 60.128906 47.273438 59.285156 46.859375 C 59.191406 46.816406 59.089844 46.828125 59.015625 46.898438 C 58.292969 47.570312 57.414062 47.941406 56.542969 47.941406 Z M 56.53125 47.050781 C 56.535156 47.050781 56.539062 47.050781 56.542969 47.050781 C 57.1875 47.050781 57.851562 46.765625 58.414062 46.242188 C 58.753906 45.925781 59.25 45.855469 59.671875 46.058594 C 60.335938 46.382812 61.066406 46.507812 61.667969 46.390625 C 62.3125 46.273438 62.925781 45.867188 63.304688 45.308594 C 63.582031 44.902344 64.078125 44.710938 64.535156 44.835938 C 65.300781 45.039062 66.050781 45.007812 66.703125 44.746094 C 67.171875 44.550781 67.496094 44.136719 67.566406 43.628906 C 67.636719 43.128906 67.441406 42.644531 67.042969 42.332031 C 63.292969 39.371094 59.289062 34.449219 56.597656 29.484375 C 56.589844 29.476562 56.574219 29.445312 56.53125 29.445312 C 56.492188 29.445312 56.472656 29.476562 56.46875 29.484375 C 53.773438 34.449219 49.769531 39.371094 46.019531 42.332031 C 45.625 42.644531 45.429688 43.128906 45.5 43.628906 C 45.570312 44.136719 45.894531 44.550781 46.363281 44.746094 C 47.011719 45.007812 47.761719 45.039062 48.53125 44.835938 C 48.988281 44.710938 49.484375 44.902344 49.761719 45.3125 C 50.140625 45.867188 50.75 46.273438 51.394531 46.390625 C 52 46.503906 52.726562 46.382812 53.394531 46.058594 C 53.8125 45.855469 54.308594 45.925781 54.648438 46.242188 C 55.210938 46.765625 55.875 47.050781 56.523438 47.050781 C 56.527344 47.050781 56.527344 47.050781 56.53125 47.050781 Z M 56.53125 47.050781 " fill-opacity="1" fill-rule="nonzero"/><path fill="#4db748" d="M 56.53125 36.757812 C 57.164062 36.761719 57.769531 36.46875 58.238281 36.035156 C 58.398438 35.882812 58.632812 35.851562 58.832031 35.949219 C 59.359375 36.207031 60.003906 36.351562 60.605469 36.238281 C 61.210938 36.125 61.757812 35.753906 62.105469 35.246094 C 62.238281 35.054688 62.464844 34.957031 62.691406 35.015625 C 63.34375 35.191406 64.015625 35.171875 64.601562 34.933594 C 65.628906 34.511719 65.824219 33.136719 64.953125 32.453125 C 61.875 30.019531 58.8125 26.078125 56.886719 22.527344 C 56.730469 22.246094 56.332031 22.246094 56.179688 22.527344 C 54.25 26.078125 51.191406 30.019531 48.109375 32.453125 C 47.238281 33.136719 47.4375 34.511719 48.460938 34.933594 C 49.050781 35.171875 49.722656 35.191406 50.375 35.015625 C 50.597656 34.957031 50.828125 35.054688 50.957031 35.246094 C 51.304688 35.753906 51.855469 36.125 52.457031 36.238281 C 53.0625 36.351562 53.707031 36.207031 54.230469 35.949219 C 54.429688 35.851562 54.664062 35.882812 54.828125 36.035156 C 55.292969 36.46875 55.898438 36.761719 56.53125 36.757812 " fill-opacity="1" fill-rule="nonzero"/><path fill="#703627" d="M 56.539062 37.203125 C 56.535156 37.203125 56.53125 37.203125 56.523438 37.203125 C 55.820312 37.203125 55.109375 36.90625 54.527344 36.363281 C 54.5 36.335938 54.460938 36.332031 54.425781 36.347656 C 53.746094 36.679688 53.019531 36.796875 52.375 36.675781 C 51.660156 36.542969 51.011719 36.113281 50.59375 35.5 C 50.570312 35.46875 50.53125 35.433594 50.488281 35.445312 C 49.722656 35.652344 48.964844 35.617188 48.296875 35.34375 C 47.664062 35.085938 47.230469 34.527344 47.132812 33.847656 C 47.039062 33.175781 47.300781 32.523438 47.835938 32.101562 C 50.6875 29.851562 53.734375 26.101562 55.789062 22.316406 C 55.9375 22.039062 56.222656 21.871094 56.53125 21.871094 C 56.839844 21.871094 57.125 22.039062 57.273438 22.316406 C 59.332031 26.101562 62.378906 29.851562 65.230469 32.101562 C 65.761719 32.523438 66.023438 33.175781 65.929688 33.847656 C 65.835938 34.527344 65.402344 35.085938 64.769531 35.34375 C 64.101562 35.617188 63.34375 35.652344 62.574219 35.445312 C 62.535156 35.433594 62.492188 35.46875 62.472656 35.5 C 62.054688 36.113281 61.402344 36.542969 60.6875 36.675781 C 60.046875 36.796875 59.316406 36.679688 58.636719 36.351562 C 58.601562 36.332031 58.566406 36.335938 58.539062 36.363281 C 57.953125 36.90625 57.246094 37.203125 56.539062 37.203125 Z M 56.53125 36.3125 C 56.535156 36.3125 56.535156 36.3125 56.539062 36.3125 C 57.019531 36.3125 57.515625 36.097656 57.9375 35.707031 C 58.230469 35.433594 58.660156 35.371094 59.027344 35.546875 C 59.527344 35.792969 60.074219 35.886719 60.523438 35.800781 C 61.003906 35.710938 61.457031 35.410156 61.738281 34.996094 C 61.980469 34.644531 62.40625 34.480469 62.804688 34.585938 C 63.382812 34.742188 63.949219 34.71875 64.4375 34.519531 C 64.769531 34.382812 65 34.085938 65.050781 33.726562 C 65.101562 33.371094 64.960938 33.023438 64.679688 32.800781 C 61.757812 30.496094 58.640625 26.671875 56.53125 22.804688 C 54.421875 26.671875 51.304688 30.496094 48.382812 32.800781 C 48.101562 33.023438 47.964844 33.371094 48.011719 33.726562 C 48.0625 34.085938 48.292969 34.382812 48.628906 34.519531 C 49.117188 34.71875 49.683594 34.742188 50.257812 34.585938 C 50.65625 34.476562 51.082031 34.644531 51.324219 34.996094 C 51.605469 35.410156 52.058594 35.710938 52.539062 35.800781 C 52.988281 35.886719 53.535156 35.792969 54.039062 35.546875 C 54.402344 35.371094 54.832031 35.433594 55.128906 35.707031 C 55.546875 36.097656 56.042969 36.3125 56.523438 36.3125 C 56.527344 36.3125 56.527344 36.3125 56.53125 36.3125 Z M 56.53125 36.3125 " fill-opacity="1" fill-rule="nonzero"/><path fill="#f9b234" d="M 57.105469 19.824219 L 57.375 20.699219 C 57.453125 20.953125 57.6875 21.125 57.949219 21.125 L 58.882812 21.125 C 59.460938 21.125 59.707031 21.859375 59.25 22.210938 L 58.445312 22.828125 C 58.242188 22.980469 58.160156 23.246094 58.234375 23.484375 L 58.527344 24.445312 C 58.703125 25.007812 58.054688 25.460938 57.589844 25.105469 L 56.898438 24.574219 C 56.679688 24.410156 56.382812 24.410156 56.167969 24.574219 L 55.476562 25.105469 C 55.007812 25.460938 54.363281 25.007812 54.535156 24.445312 L 54.832031 23.484375 C 54.90625 23.246094 54.820312 22.980469 54.621094 22.828125 L 53.816406 22.210938 C 53.359375 21.859375 53.605469 21.125 54.179688 21.125 L 55.113281 21.125 C 55.375 21.125 55.609375 20.953125 55.6875 20.699219 L 55.957031 19.824219 C 56.132812 19.257812 56.933594 19.257812 57.105469 19.824219 Z M 57.105469 19.824219 " fill-opacity="1" fill-rule="nonzero"/><path fill="#703627" d="M 55.109375 25.675781 C 54.902344 25.675781 54.695312 25.613281 54.511719 25.484375 C 54.132812 25.21875 53.972656 24.757812 54.113281 24.3125 L 54.40625 23.355469 C 54.425781 23.292969 54.402344 23.222656 54.351562 23.179688 L 53.546875 22.5625 C 53.183594 22.285156 53.042969 21.828125 53.191406 21.394531 C 53.335938 20.960938 53.722656 20.679688 54.179688 20.679688 L 55.113281 20.679688 C 55.183594 20.679688 55.242188 20.636719 55.265625 20.566406 L 55.53125 19.695312 C 55.671875 19.246094 56.0625 18.953125 56.53125 18.953125 C 57 18.953125 57.394531 19.246094 57.53125 19.695312 L 57.800781 20.566406 C 57.820312 20.636719 57.882812 20.679688 57.949219 20.679688 L 58.882812 20.679688 C 59.339844 20.679688 59.726562 20.960938 59.875 21.394531 C 60.019531 21.828125 59.878906 22.285156 59.519531 22.5625 L 58.710938 23.179688 C 58.660156 23.222656 58.636719 23.292969 58.65625 23.355469 L 58.953125 24.3125 C 59.089844 24.757812 58.933594 25.21875 58.550781 25.484375 C 58.171875 25.75 57.6875 25.742188 57.320312 25.457031 L 56.628906 24.925781 C 56.570312 24.882812 56.492188 24.882812 56.4375 24.925781 L 55.746094 25.457031 C 55.554688 25.605469 55.332031 25.675781 55.109375 25.675781 Z M 54.179688 21.570312 C 54.085938 21.570312 54.046875 21.628906 54.03125 21.679688 C 54.015625 21.71875 54.003906 21.796875 54.085938 21.855469 L 54.890625 22.472656 C 55.238281 22.738281 55.382812 23.199219 55.253906 23.617188 L 54.957031 24.578125 C 54.929688 24.667969 54.976562 24.722656 55.019531 24.753906 C 55.0625 24.785156 55.128906 24.808594 55.207031 24.75 L 55.898438 24.21875 C 56.269531 23.933594 56.792969 23.933594 57.167969 24.21875 L 57.859375 24.75 C 57.933594 24.808594 58 24.785156 58.042969 24.753906 C 58.085938 24.722656 58.132812 24.667969 58.105469 24.578125 L 57.808594 23.617188 C 57.679688 23.199219 57.828125 22.738281 58.171875 22.472656 L 58.980469 21.855469 C 59.054688 21.800781 59.050781 21.726562 59.035156 21.679688 C 59.019531 21.636719 58.980469 21.570312 58.882812 21.570312 L 57.949219 21.570312 C 57.488281 21.570312 57.089844 21.273438 56.953125 20.832031 L 56.683594 19.957031 C 56.65625 19.863281 56.585938 19.84375 56.53125 19.84375 C 56.480469 19.84375 56.410156 19.863281 56.378906 19.957031 L 56.113281 20.832031 C 55.976562 21.273438 55.574219 21.570312 55.113281 21.570312 Z M 54.179688 21.570312 " fill-opacity="1" fill-rule="nonzero"/><g clip-path="url(#2ef01ae218)"><path fill="#dda783" d="M 30.699219 17.28125 C 30.484375 16.882812 29.625 16.457031 29.320312 16.125 C 29.011719 15.796875 28.070312 16.042969 27.621094 16.027344 C 27.15625 16.011719 26.722656 15.914062 26.332031 16.164062 C 25.757812 16.535156 25.214844 17.300781 24.816406 17.859375 C 24.417969 18.414062 24.609375 18.550781 24.695312 19.230469 C 24.78125 19.910156 25.578125 21.449219 26.222656 21.664062 C 25.378906 22.503906 25.601562 22.429688 25.484375 22.800781 C 24.148438 22.328125 22.582031 21.589844 21.351562 22.28125 C 19.363281 23.398438 19.4375 25.078125 20.070312 26.347656 C 20.703125 27.613281 21.5625 28.363281 22.972656 28.246094 C 21.941406 30.972656 21.554688 34.484375 21.671875 37.59375 C 20.726562 37.488281 19.75 37.382812 18.84375 37.664062 C 17.933594 37.945312 17.105469 38.714844 17.0625 39.667969 C 17.027344 40.550781 17.644531 41.316406 18.300781 41.90625 C 19.324219 42.835938 20.53125 43.5625 21.898438 43.902344 C 21.886719 44.757812 22 45.613281 22.191406 46.671875 C 21.152344 47.097656 20.109375 47.53125 19.175781 48.15625 C 18.242188 48.78125 17.417969 49.617188 16.988281 50.660156 C 16.480469 51.90625 16.601562 53.390625 17.304688 54.535156 C 17.921875 55.53125 18.925781 56.238281 20.007812 56.671875 C 21.09375 57.105469 22.707031 56.984375 23.867188 57.109375 C 25.839844 57.328125 26.953125 57.289062 29.015625 57.074219 C 30.242188 57.996094 31.503906 58.941406 32.972656 59.382812 C 34.429688 59.824219 35.980469 59.742188 37.5 59.65625 C 39.410156 59.546875 41.34375 59.433594 43.160156 58.828125 C 44.742188 58.296875 46.1875 57.410156 47.488281 56.359375 C 48.976562 55.160156 50.296875 53.730469 51.25 52.070312 C 52.199219 50.410156 52.769531 48.507812 52.65625 46.597656 C 52.996094 42.550781 52.332031 38.421875 50.570312 34.59375 C 52.957031 32.792969 54.386719 29.816406 54.429688 26.816406 C 54.472656 23.820312 53.167969 20.851562 50.914062 18.921875 C 49.65625 17.742188 48.179688 16.796875 46.585938 16.152344 C 45.496094 15.710938 44.355469 15.410156 43.195312 15.222656 C 38.683594 14.5 35.214844 15.074219 30.699219 17.28125 Z M 30.699219 17.28125 " fill-opacity="1" fill-rule="nonzero"/></g><path fill="#ffdcc4" d="M 31.335938 50.308594 C 30.984375 47.921875 30.40625 45.566406 29.601562 43.289062 C 28.964844 41.484375 28.152344 39.675781 26.761719 38.363281 C 25.367188 37.054688 23.273438 36.34375 21.488281 37.148438 C 21.535156 40.589844 21.589844 44.078125 22.546875 47.382812 C 23.503906 50.683594 25.492188 53.835938 28.527344 55.429688 C 28.28125 53.28125 29.464844 51.042969 31.335938 50.308594 Z M 31.335938 50.308594 " fill-opacity="1" fill-rule="nonzero"/><path fill="#703627" d="M 24.34375 28.8125 C 23.132812 28.8125 22.09375 28.574219 21.253906 28.101562 C 20.007812 27.402344 19.207031 26.136719 19.21875 24.875 C 19.230469 23.648438 20.019531 22.4375 21.183594 21.867188 C 22.238281 21.351562 23.5625 21.34375 24.734375 21.851562 C 25.753906 22.292969 26.675781 23.128906 27.328125 24.203125 C 27.457031 24.414062 27.390625 24.6875 27.179688 24.8125 C 26.972656 24.941406 26.699219 24.875 26.570312 24.664062 C 26.011719 23.746094 25.234375 23.039062 24.382812 22.667969 C 23.449219 22.261719 22.398438 22.261719 21.574219 22.667969 C 20.703125 23.09375 20.113281 23.984375 20.105469 24.882812 C 20.097656 25.824219 20.71875 26.78125 21.6875 27.324219 C 22.507812 27.785156 23.574219 27.980469 24.859375 27.90625 C 25.105469 27.890625 25.3125 28.078125 25.328125 28.324219 C 25.339844 28.570312 25.152344 28.78125 24.910156 28.796875 C 24.714844 28.808594 24.527344 28.8125 24.34375 28.8125 Z M 24.34375 28.8125 " fill-opacity="1" fill-rule="nonzero"/><path fill="#703627" d="M 25.679688 25.964844 C 25.53125 25.964844 25.386719 25.894531 25.300781 25.757812 C 24.613281 24.667969 23.207031 24.082031 21.953125 24.371094 C 21.710938 24.425781 21.472656 24.277344 21.421875 24.035156 C 21.367188 23.796875 21.515625 23.558594 21.753906 23.503906 C 23.363281 23.132812 25.171875 23.882812 26.050781 25.28125 C 26.183594 25.492188 26.121094 25.765625 25.914062 25.898438 C 25.839844 25.945312 25.757812 25.964844 25.679688 25.964844 Z M 25.679688 25.964844 " fill-opacity="1" fill-rule="nonzero"/><path fill="#703627" d="M 26.234375 21.917969 C 26.136719 21.917969 26.042969 21.890625 25.960938 21.824219 L 25.886719 21.765625 C 25.675781 21.605469 25.476562 21.449219 25.277344 21.21875 C 24.335938 20.140625 24.007812 18.679688 24.441406 17.492188 C 24.859375 16.339844 26.007812 15.46875 27.296875 15.324219 C 28.464844 15.191406 29.714844 15.632812 30.644531 16.5 C 30.890625 16.730469 31.042969 16.949219 31.164062 17.230469 C 31.261719 17.457031 31.15625 17.71875 30.933594 17.816406 C 30.707031 17.910156 30.445312 17.808594 30.351562 17.582031 C 30.277344 17.410156 30.195312 17.300781 30.039062 17.152344 C 29.296875 16.457031 28.308594 16.105469 27.394531 16.207031 C 26.433594 16.316406 25.582031 16.957031 25.273438 17.800781 C 24.953125 18.683594 25.214844 19.796875 25.945312 20.632812 C 26.089844 20.796875 26.238281 20.914062 26.429688 21.0625 L 26.507812 21.125 C 26.699219 21.273438 26.734375 21.554688 26.582031 21.75 C 26.496094 21.859375 26.367188 21.917969 26.234375 21.917969 Z M 26.234375 21.917969 " fill-opacity="1" fill-rule="nonzero"/><path fill="#b27966" d="M 23.398438 56.84375 C 23.570312 55.128906 23.257812 53.875 22.921875 52.183594 C 22.585938 50.492188 21.886719 49.6875 20.75 47.457031 C 18.949219 48.007812 17.429688 49.519531 17.023438 51.367188 C 16.621094 53.214844 17.4375 55.308594 19.070312 56.257812 C 20.265625 56.949219 21.714844 57 23.398438 56.84375 Z M 23.398438 56.84375 " fill-opacity="1" fill-rule="nonzero"/><path fill="#703627" d="M 25.53125 57.585938 C 24.722656 57.585938 23.984375 57.574219 23.484375 57.535156 C 22.183594 57.429688 20.808594 57.285156 19.523438 56.757812 C 18.070312 56.160156 16.972656 55.109375 16.515625 53.875 C 15.699219 51.664062 16.996094 49.210938 18.703125 47.933594 C 19.628906 47.238281 21.285156 46.546875 22.175781 46.25 C 22.40625 46.171875 22.660156 46.296875 22.734375 46.53125 C 22.8125 46.765625 22.6875 47.015625 22.457031 47.09375 C 21.449219 47.429688 19.976562 48.089844 19.234375 48.644531 C 17.792969 49.726562 16.683594 51.765625 17.347656 53.5625 C 17.71875 54.566406 18.636719 55.429688 19.863281 55.933594 C 21.023438 56.414062 22.324219 56.546875 23.554688 56.644531 C 24.851562 56.746094 27.996094 56.675781 29.320312 56.609375 C 29.550781 56.597656 29.773438 56.785156 29.785156 57.03125 C 29.796875 57.277344 29.609375 57.488281 29.367188 57.5 C 28.492188 57.542969 26.914062 57.585938 25.53125 57.585938 Z M 25.53125 57.585938 " fill-opacity="1" fill-rule="nonzero"/><path fill="#b27966" d="M 19.003906 42.355469 C 19.742188 41.902344 20.191406 41.074219 20.359375 40.222656 C 20.523438 39.367188 20.4375 38.488281 20.292969 37.628906 C 19.527344 37.574219 18.675781 37.539062 18.078125 38.023438 C 17.78125 38.261719 17.582031 38.601562 17.464844 38.960938 C 17.253906 39.613281 17.296875 40.347656 17.582031 40.96875 C 17.871094 41.589844 18.402344 42.09375 19.003906 42.355469 Z M 19.003906 42.355469 " fill-opacity="1" fill-rule="nonzero"/><path fill="#703627" d="M 21.59375 44.265625 C 21.535156 44.265625 21.472656 44.253906 21.414062 44.226562 C 20.464844 43.804688 18.289062 42.628906 17.566406 41.824219 C 16.851562 41.035156 16.371094 39.675781 16.996094 38.558594 C 17.355469 37.921875 18.046875 37.445312 18.898438 37.253906 C 19.433594 37.132812 20.328125 37.191406 21.628906 37.433594 C 21.871094 37.476562 22.03125 37.710938 21.984375 37.949219 C 21.941406 38.191406 21.714844 38.351562 21.46875 38.308594 C 19.941406 38.027344 19.324219 38.070312 19.089844 38.125 C 18.484375 38.257812 18.003906 38.578125 17.773438 38.996094 C 17.378906 39.699219 17.699219 40.648438 18.222656 41.226562 C 18.820312 41.890625 20.851562 43.003906 21.773438 43.414062 C 21.996094 43.515625 22.097656 43.777344 22 44 C 21.925781 44.167969 21.761719 44.265625 21.59375 44.265625 Z M 21.59375 44.265625 " fill-opacity="1" fill-rule="nonzero"/><path fill="#dd917a" d="M 36.113281 27.753906 C 36.113281 27.910156 36.082031 28.0625 36.023438 28.210938 C 35.960938 28.355469 35.875 28.484375 35.765625 28.597656 C 35.652344 28.710938 35.523438 28.796875 35.375 28.859375 C 35.230469 28.917969 35.078125 28.949219 34.921875 28.949219 C 34.761719 28.949219 34.609375 28.917969 34.464844 28.859375 C 34.320312 28.796875 34.191406 28.710938 34.078125 28.597656 C 33.964844 28.484375 33.878906 28.355469 33.820312 28.210938 C 33.757812 28.0625 33.730469 27.910156 33.730469 27.753906 C 33.730469 27.59375 33.757812 27.441406 33.820312 27.292969 C 33.878906 27.148438 33.964844 27.019531 34.078125 26.90625 C 34.191406 26.792969 34.320312 26.707031 34.464844 26.644531 C 34.609375 26.585938 34.761719 26.554688 34.921875 26.554688 C 35.078125 26.554688 35.230469 26.585938 35.375 26.644531 C 35.523438 26.707031 35.652344 26.792969 35.765625 26.90625 C 35.875 27.019531 35.960938 27.148438 36.023438 27.292969 C 36.082031 27.441406 36.113281 27.59375 36.113281 27.753906 Z M 36.113281 27.753906 " fill-opacity="1" fill-rule="nonzero"/><path fill="#703627" d="M 36.746094 24.101562 C 36.308594 24.449219 35.847656 24.832031 35.683594 25.367188 C 35.625 25.554688 35.613281 25.769531 35.722656 25.933594 C 35.835938 26.101562 36.0625 26.164062 36.265625 26.136719 C 36.46875 26.113281 36.652344 26.011719 36.832031 25.914062 C 37.21875 25.691406 37.601562 25.457031 37.953125 25.183594 C 38.152344 25.023438 38.351562 24.847656 38.46875 24.617188 C 38.582031 24.386719 38.601562 24.09375 38.457031 23.878906 C 38.300781 23.644531 37.984375 23.5625 37.707031 23.605469 C 37.425781 23.652344 37.15625 23.773438 36.746094 24.101562 Z M 36.746094 24.101562 " fill-opacity="1" fill-rule="nonzero"/><path fill="#b27966" d="M 46.78125 18.917969 C 45.855469 19.296875 44.941406 19.75 44.171875 20.398438 C 43.40625 21.042969 42.785156 21.90625 42.566406 22.886719 C 42.3125 24.023438 42.609375 25.210938 42.996094 26.308594 C 43.414062 27.496094 43.933594 28.648438 44.625 29.695312 C 45.023438 30.304688 45.5 30.894531 46.152344 31.210938 C 47.234375 31.738281 48.519531 31.398438 49.671875 31.054688 C 50.773438 30.722656 51.886719 30.386719 52.871094 29.789062 C 53.855469 29.191406 54.140625 28.867188 54.4375 27.753906 C 54.640625 26.984375 54.605469 25.226562 54.429688 24.449219 C 54.058594 22.796875 53.695312 22.113281 52.722656 20.726562 C 52.230469 20.03125 51.734375 18.859375 50.957031 18.515625 C 49.8125 18.011719 48.441406 18.234375 46.78125 18.917969 Z M 46.78125 18.917969 " fill-opacity="1" fill-rule="nonzero"/><path fill="#703627" d="M 49.316406 20.71875 C 49.238281 21.035156 49.265625 21.375 49.394531 21.675781 C 49.449219 21.796875 49.546875 21.925781 49.679688 21.925781 C 49.808594 21.925781 49.898438 21.800781 49.96875 21.691406 C 50.117188 21.457031 50.265625 21.214844 50.339844 20.945312 C 50.414062 20.695312 50.398438 20.386719 50.195312 20.226562 C 50.039062 20.101562 49.808594 20.105469 49.636719 20.203125 C 49.46875 20.304688 49.375 20.492188 49.316406 20.71875 Z M 49.316406 20.71875 " fill-opacity="1" fill-rule="nonzero"/><path fill="#703627" d="M 45.660156 22.371094 C 45.949219 22.519531 46.183594 22.769531 46.320312 23.0625 C 46.375 23.1875 46.410156 23.34375 46.320312 23.445312 C 46.230469 23.539062 46.082031 23.527344 45.953125 23.503906 C 45.679688 23.460938 45.398438 23.414062 45.148438 23.292969 C 44.914062 23.179688 44.695312 22.960938 44.710938 22.703125 C 44.722656 22.503906 44.875 22.332031 45.0625 22.269531 C 45.25 22.210938 45.453125 22.261719 45.660156 22.371094 Z M 45.660156 22.371094 " fill-opacity="1" fill-rule="nonzero"/><path fill="#703627" d="M 51.085938 27.8125 C 50.65625 27.8125 50.199219 27.65625 49.804688 27.351562 C 49.761719 27.320312 49.726562 27.277344 49.703125 27.226562 L 49.503906 26.789062 C 49.085938 25.867188 48.667969 24.945312 48.289062 24.136719 C 48.210938 23.96875 48.28125 23.769531 48.449219 23.691406 C 48.613281 23.613281 48.8125 23.683594 48.890625 23.851562 C 49.269531 24.664062 49.691406 25.585938 50.109375 26.511719 L 50.273438 26.871094 C 50.691406 27.160156 51.191406 27.226562 51.535156 27.035156 C 51.902344 26.832031 52.117188 26.332031 52.074219 25.785156 C 52.058594 25.601562 52.195312 25.4375 52.378906 25.425781 C 52.5625 25.410156 52.722656 25.546875 52.738281 25.730469 C 52.800781 26.546875 52.457031 27.289062 51.859375 27.621094 C 51.625 27.75 51.359375 27.8125 51.085938 27.8125 Z M 51.085938 27.8125 " fill-opacity="1" fill-rule="nonzero"/><path fill="#703627" d="M 48.636719 28.796875 C 48.078125 28.796875 47.480469 28.519531 47.023438 28.039062 C 46.898438 27.902344 46.902344 27.691406 47.039062 27.566406 C 47.171875 27.4375 47.382812 27.445312 47.507812 27.578125 C 47.902344 28 48.453125 28.207031 48.871094 28.097656 C 49.277344 27.992188 49.570312 27.59375 49.617188 27.078125 C 49.632812 26.894531 49.800781 26.761719 49.980469 26.777344 C 50.164062 26.796875 50.296875 26.957031 50.28125 27.140625 C 50.207031 27.9375 49.71875 28.570312 49.039062 28.746094 C 48.910156 28.78125 48.773438 28.796875 48.636719 28.796875 Z M 48.636719 28.796875 " fill-opacity="1" fill-rule="nonzero"/><path fill="#703627" d="M 28.679688 56.050781 C 28.609375 56.050781 28.535156 56.03125 28.46875 55.996094 C 25.441406 54.320312 23.253906 51.613281 22.316406 48.367188 C 20.933594 43.597656 20.398438 35.273438 22.492188 28.261719 C 22.5625 28.027344 22.808594 27.894531 23.042969 27.964844 C 23.277344 28.035156 23.410156 28.28125 23.34375 28.519531 C 21.300781 35.355469 21.820312 43.472656 23.167969 48.121094 C 24.042969 51.136719 26.074219 53.65625 28.894531 55.214844 C 29.109375 55.332031 29.1875 55.605469 29.070312 55.820312 C 28.988281 55.964844 28.835938 56.050781 28.679688 56.050781 Z M 28.679688 56.050781 " fill-opacity="1" fill-rule="nonzero"/><g clip-path="url(#d278fcaa17)"><path fill="#703627" d="M 42.632812 38.691406 C 42.410156 38.691406 42.21875 38.523438 42.191406 38.296875 C 42.164062 38.054688 42.339844 37.832031 42.582031 37.804688 C 45.742188 37.4375 48.621094 36.136719 50.691406 34.144531 C 52.929688 31.988281 54.191406 28.980469 54.066406 26.101562 C 53.941406 23.261719 52.449219 20.394531 50.078125 18.433594 C 47.898438 16.628906 44.964844 15.53125 41.816406 15.339844 C 38.984375 15.167969 35.996094 15.679688 32.953125 16.851562 C 29.386719 18.226562 27.082031 20.941406 25.773438 22.980469 C 25.640625 23.1875 25.367188 23.246094 25.160156 23.113281 C 24.957031 22.980469 24.898438 22.707031 25.027344 22.5 C 26.40625 20.347656 28.84375 17.480469 32.632812 16.019531 C 35.800781 14.800781 38.902344 14.273438 41.867188 14.453125 C 45.203125 14.652344 48.320312 15.824219 50.644531 17.746094 C 53.207031 19.867188 54.816406 22.976562 54.953125 26.0625 C 55.089844 29.195312 53.726562 32.457031 51.304688 34.785156 C 49.097656 36.914062 46.035156 38.300781 42.683594 38.6875 C 42.667969 38.691406 42.648438 38.691406 42.632812 38.691406 Z M 42.632812 38.691406 " fill-opacity="1" fill-rule="nonzero"/></g><path fill="#c48c71" d="M 46.980469 43.613281 C 46.765625 43.613281 46.574219 43.453125 46.542969 43.234375 L 46.050781 39.851562 C 46.015625 39.609375 46.179688 39.382812 46.421875 39.347656 C 46.667969 39.3125 46.890625 39.480469 46.925781 39.722656 L 47.421875 43.105469 C 47.457031 43.347656 47.289062 43.574219 47.046875 43.609375 C 47.023438 43.613281 47.003906 43.613281 46.980469 43.613281 Z M 46.980469 43.613281 " fill-opacity="1" fill-rule="nonzero"/><path fill="#c48c71" d="M 49.792969 42.21875 C 49.5625 42.21875 49.371094 42.042969 49.351562 41.808594 L 49.128906 38.878906 C 49.109375 38.632812 49.289062 38.417969 49.535156 38.398438 C 49.785156 38.382812 49.992188 38.566406 50.011719 38.808594 L 50.234375 41.738281 C 50.253906 41.984375 50.074219 42.199219 49.828125 42.21875 C 49.816406 42.21875 49.804688 42.21875 49.792969 42.21875 Z M 49.792969 42.21875 " fill-opacity="1" fill-rule="nonzero"/><path fill="#c48c71" d="M 48.761719 48.710938 C 48.746094 48.710938 48.730469 48.710938 48.714844 48.707031 C 48.46875 48.679688 48.292969 48.460938 48.320312 48.21875 L 48.632812 45.285156 C 48.660156 45.042969 48.867188 44.863281 49.125 44.890625 C 49.367188 44.917969 49.542969 45.136719 49.515625 45.382812 L 49.203125 48.3125 C 49.179688 48.539062 48.984375 48.710938 48.761719 48.710938 Z M 48.761719 48.710938 " fill-opacity="1" fill-rule="nonzero"/><path fill="#c48c71" d="M 42.117188 18.285156 C 42.011719 18.285156 41.90625 18.246094 41.820312 18.171875 L 40.25 16.773438 C 40.066406 16.613281 40.050781 16.332031 40.210938 16.144531 C 40.375 15.960938 40.65625 15.945312 40.839844 16.109375 L 42.410156 17.503906 C 42.59375 17.667969 42.609375 17.949219 42.449219 18.132812 C 42.359375 18.234375 42.238281 18.285156 42.117188 18.285156 Z M 42.117188 18.285156 " fill-opacity="1" fill-rule="nonzero"/><path fill="#c48c71" d="M 38.386719 19.410156 C 38.308594 19.410156 38.226562 19.390625 38.152344 19.34375 L 35.59375 17.71875 C 35.386719 17.589844 35.324219 17.3125 35.453125 17.105469 C 35.585938 16.898438 35.859375 16.835938 36.066406 16.964844 L 38.625 18.589844 C 38.832031 18.71875 38.894531 18.996094 38.765625 19.203125 C 38.679688 19.335938 38.535156 19.410156 38.386719 19.410156 Z M 38.386719 19.410156 " fill-opacity="1" fill-rule="nonzero"/><g clip-path="url(#41afe7ddad)"><path fill="#d4904f" d="M 29.570312 45.96875 L 31.304688 55.78125 C 31.429688 56.5 31.175781 57.246094 30.609375 57.707031 C 28.726562 59.226562 23.738281 60.316406 17.878906 60.316406 C 12.675781 60.316406 8.285156 59.488281 6.007812 58.230469 C 4.933594 57.636719 4.339844 56.4375 4.476562 55.214844 C 4.476562 55.214844 5.425781 47.234375 5.253906 47.171875 C 7.421875 43.015625 12.171875 40.566406 16.847656 40.539062 C 21.519531 40.511719 26.03125 42.667969 29.570312 45.96875 Z M 29.570312 45.96875 " fill-opacity="1" fill-rule="nonzero"/></g><path fill="#fefefe" d="M 6.511719 38.40625 C 4.425781 44.105469 4.984375 46.921875 5.847656 47.972656 C 6.710938 49.023438 8.363281 49.441406 9.492188 48.683594 C 10.664062 47.894531 11.089844 46.09375 12.464844 45.761719 C 13.617188 45.480469 14.671875 46.429688 15.492188 47.292969 C 16.3125 48.152344 17.40625 49.078125 18.546875 48.734375 C 19.941406 48.316406 20.277344 46.296875 21.621094 45.726562 C 22.582031 45.316406 23.675781 45.800781 24.5625 46.347656 C 25.453125 46.894531 26.398438 47.535156 27.4375 47.4375 C 28.351562 47.351562 29.136719 46.675781 29.550781 45.855469 C 29.960938 45.035156 29.703125 42.8125 28.113281 38.40625 C 21.535156 35.59375 13.832031 35.5625 6.511719 38.40625 Z M 6.511719 38.40625 " fill-opacity="1" fill-rule="nonzero"/><path fill="#fefefe" d="M 28.089844 38.71875 C 28.089844 38.945312 28.019531 39.171875 27.882812 39.394531 C 27.742188 39.613281 27.539062 39.832031 27.265625 40.039062 C 26.996094 40.25 26.660156 40.449219 26.265625 40.636719 C 25.871094 40.824219 25.425781 41 24.921875 41.160156 C 24.421875 41.320312 23.875 41.464844 23.285156 41.589844 C 22.695312 41.714844 22.070312 41.820312 21.414062 41.90625 C 20.757812 41.996094 20.082031 42.058594 19.386719 42.105469 C 18.691406 42.148438 17.988281 42.171875 17.277344 42.171875 C 16.566406 42.171875 15.863281 42.148438 15.167969 42.105469 C 14.472656 42.058594 13.796875 41.996094 13.140625 41.90625 C 12.484375 41.820312 11.859375 41.714844 11.269531 41.589844 C 10.679688 41.464844 10.132812 41.320312 9.632812 41.160156 C 9.128906 41 8.679688 40.824219 8.289062 40.636719 C 7.894531 40.449219 7.558594 40.25 7.289062 40.039062 C 7.015625 39.832031 6.8125 39.613281 6.671875 39.394531 C 6.535156 39.171875 6.464844 38.945312 6.464844 38.71875 C 6.464844 38.492188 6.535156 38.269531 6.671875 38.046875 C 6.8125 37.824219 7.015625 37.609375 7.289062 37.398438 C 7.558594 37.1875 7.894531 36.992188 8.289062 36.800781 C 8.679688 36.613281 9.128906 36.4375 9.632812 36.277344 C 10.132812 36.117188 10.679688 35.976562 11.269531 35.851562 C 11.859375 35.722656 12.484375 35.617188 13.140625 35.53125 C 13.796875 35.445312 14.472656 35.378906 15.167969 35.335938 C 15.863281 35.289062 16.566406 35.269531 17.277344 35.269531 C 17.988281 35.269531 18.691406 35.289062 19.386719 35.335938 C 20.082031 35.378906 20.757812 35.445312 21.414062 35.53125 C 22.070312 35.617188 22.695312 35.722656 23.285156 35.851562 C 23.875 35.976562 24.421875 36.117188 24.921875 36.277344 C 25.425781 36.4375 25.871094 36.613281 26.265625 36.800781 C 26.660156 36.992188 26.996094 37.1875 27.265625 37.398438 C 27.539062 37.609375 27.742188 37.824219 27.882812 38.046875 C 28.019531 38.269531 28.089844 38.492188 28.089844 38.71875 Z M 28.089844 38.71875 " fill-opacity="1" fill-rule="nonzero"/><path fill="#703627" d="M 17.277344 42.617188 C 11.820312 42.617188 6.019531 41.25 6.019531 38.71875 C 6.019531 36.1875 11.820312 34.824219 17.277344 34.824219 C 22.734375 34.824219 28.53125 36.1875 28.53125 38.71875 C 28.53125 41.25 22.734375 42.617188 17.277344 42.617188 Z M 17.277344 35.714844 C 11.167969 35.714844 6.910156 37.296875 6.910156 38.71875 C 6.910156 40.140625 11.167969 41.726562 17.277344 41.726562 C 23.386719 41.726562 27.644531 40.140625 27.644531 38.71875 C 27.644531 37.296875 23.386719 35.714844 17.277344 35.714844 Z M 17.277344 35.714844 " fill-opacity="1" fill-rule="nonzero"/><g clip-path="url(#2273f4cbf9)"><path fill="#703627" d="M 17.878906 60.761719 C 12.734375 60.761719 8.214844 59.960938 5.792969 58.621094 C 4.566406 57.941406 3.875 56.585938 4.035156 55.164062 L 4.984375 47.179688 C 5.015625 46.9375 5.234375 46.761719 5.480469 46.789062 C 5.722656 46.820312 5.894531 47.042969 5.867188 47.285156 L 4.917969 55.265625 C 4.796875 56.324219 5.3125 57.335938 6.222656 57.839844 C 8.484375 59.09375 12.949219 59.871094 17.878906 59.871094 C 23.46875 59.871094 28.472656 58.863281 30.328125 57.359375 C 30.761719 57.007812 30.96875 56.433594 30.867188 55.859375 L 29.132812 46.046875 C 29.089844 45.804688 29.253906 45.570312 29.492188 45.527344 C 29.742188 45.484375 29.964844 45.648438 30.007812 45.890625 L 31.738281 55.703125 C 31.898438 56.597656 31.570312 57.496094 30.886719 58.050781 C 28.855469 59.699219 23.746094 60.761719 17.878906 60.761719 Z M 17.878906 60.761719 " fill-opacity="1" fill-rule="nonzero"/></g><path fill="#4db748" d="M 14.507812 37.441406 C 14.175781 37.316406 13.636719 37.355469 13.148438 37.582031 C 13.101562 37.605469 13.042969 37.570312 13.042969 37.515625 C 13.027344 36.695312 12.851562 36.339844 12.40625 36.039062 C 11.972656 35.746094 11.4375 35.597656 10.914062 35.625 C 10.863281 35.628906 10.824219 35.582031 10.835938 35.535156 C 11.136719 34.414062 11.082031 33.269531 10.695312 32.253906 C 10.671875 32.195312 10.726562 32.136719 10.789062 32.15625 C 12.03125 32.609375 13.421875 32.65625 14.660156 32.230469 C 14.703125 32.214844 14.746094 32.238281 14.753906 32.28125 C 14.855469 32.769531 15.019531 33.210938 15.257812 33.714844 C 15.78125 34.402344 16.207031 35.167969 16.515625 35.976562 C 16.640625 36.304688 16.730469 36.710938 16.5 36.972656 C 16.375 37.109375 16.191406 37.167969 16.011719 37.210938 C 15.621094 37.300781 15.21875 37.332031 14.507812 37.441406 Z M 14.507812 37.441406 " fill-opacity="1" fill-rule="nonzero"/><path fill="#4db748" d="M 20.519531 35.335938 C 20.851562 34.515625 21.421875 33.964844 22.191406 33.53125 C 22.257812 33.492188 22.269531 33.40625 22.21875 33.347656 C 21.824219 32.90625 21.648438 32.382812 21.613281 31.859375 C 21.582031 31.402344 21.648438 30.945312 21.753906 30.496094 C 21.777344 30.390625 21.664062 30.3125 21.574219 30.375 C 20.488281 31.144531 19.464844 31.574219 18.1875 31.324219 C 18.101562 31.308594 18.027344 31.394531 18.058594 31.476562 C 18.324219 32.21875 18.304688 33.078125 17.925781 33.988281 C 17.980469 34.503906 18.035156 35.019531 18.089844 35.535156 C 18.101562 35.648438 18.117188 35.765625 18.183594 35.851562 C 18.296875 35.996094 18.503906 36.011719 18.683594 36.007812 C 19.316406 35.988281 20.230469 36.054688 20.519531 35.335938 Z M 20.519531 35.335938 " fill-opacity="1" fill-rule="nonzero"/><path fill="#703627" d="M 20.519531 35.78125 C 20.464844 35.78125 20.410156 35.769531 20.355469 35.746094 C 20.128906 35.65625 20.019531 35.394531 20.109375 35.167969 C 20.414062 34.414062 20.90625 33.828125 21.648438 33.339844 C 21.371094 32.921875 21.207031 32.4375 21.171875 31.890625 C 21.15625 31.65625 21.160156 31.414062 21.1875 31.160156 C 20.464844 31.582031 19.628906 31.902344 18.613281 31.832031 C 18.761719 32.597656 18.644531 33.378906 18.269531 34.046875 C 18.148438 34.257812 17.878906 34.335938 17.667969 34.214844 C 17.453125 34.09375 17.378906 33.820312 17.496094 33.609375 C 17.828125 33.019531 17.878906 32.300781 17.640625 31.628906 C 17.574219 31.4375 17.613281 31.226562 17.742188 31.074219 C 17.875 30.921875 18.074219 30.851562 18.273438 30.890625 C 19.28125 31.085938 20.164062 30.832031 21.320312 30.011719 C 21.511719 29.875 21.761719 29.871094 21.957031 30.003906 C 22.152344 30.136719 22.242188 30.371094 22.183594 30.601562 C 22.070312 31.078125 22.03125 31.46875 22.054688 31.828125 C 22.089844 32.3125 22.253906 32.722656 22.546875 33.050781 C 22.664062 33.179688 22.714844 33.351562 22.6875 33.519531 C 22.660156 33.6875 22.558594 33.832031 22.410156 33.917969 C 21.65625 34.34375 21.199219 34.832031 20.933594 35.5 C 20.863281 35.675781 20.695312 35.78125 20.519531 35.78125 Z M 18.476562 31.328125 Z M 21.832031 30.738281 Z M 21.324219 30.394531 Z M 21.324219 30.394531 " fill-opacity="1" fill-rule="nonzero"/><path fill="#4db748" d="M 20.527344 39.078125 C 20.921875 39.453125 21.269531 40 21.5 40.578125 C 21.527344 40.640625 21.609375 40.664062 21.664062 40.621094 C 22.636719 39.882812 23.84375 39.773438 24.8125 40.214844 C 24.890625 40.25 24.976562 40.183594 24.960938 40.097656 C 24.78125 39.105469 25.09375 38.113281 25.742188 37.433594 C 25.800781 37.375 25.765625 37.269531 25.679688 37.257812 C 24.828125 37.125 24.050781 36.695312 23.554688 36.039062 C 23.515625 35.988281 23.441406 35.984375 23.394531 36.03125 C 22.929688 36.484375 22.292969 36.6875 21.644531 36.839844 C 20.847656 37.132812 20.273438 37.960938 20.527344 39.078125 Z M 20.527344 39.078125 " fill-opacity="1" fill-rule="nonzero"/><path fill="#703627" d="M 21.601562 41.089844 C 21.550781 41.089844 21.503906 41.082031 21.453125 41.070312 C 21.289062 41.023438 21.15625 40.90625 21.089844 40.746094 C 20.871094 40.207031 20.554688 39.71875 20.222656 39.402344 C 20.046875 39.234375 20.039062 38.953125 20.207031 38.773438 C 20.375 38.59375 20.65625 38.585938 20.835938 38.757812 C 21.175781 39.082031 21.492188 39.527344 21.742188 40.03125 C 22.582031 39.527344 23.5625 39.378906 24.46875 39.617188 C 24.449219 38.886719 24.660156 38.167969 25.0625 37.574219 C 24.429688 37.378906 23.863281 37.035156 23.433594 36.582031 C 22.980469 36.914062 22.394531 37.121094 21.6875 37.199219 C 21.441406 37.226562 21.226562 37.050781 21.199219 36.804688 C 21.171875 36.5625 21.347656 36.339844 21.59375 36.316406 C 22.246094 36.242188 22.75 36.039062 23.085938 35.710938 C 23.199219 35.601562 23.355469 35.542969 23.511719 35.554688 C 23.667969 35.566406 23.8125 35.644531 23.910156 35.769531 C 24.324219 36.320312 24.996094 36.703125 25.746094 36.816406 C 25.949219 36.847656 26.117188 36.988281 26.183594 37.183594 C 26.25 37.378906 26.203125 37.59375 26.058594 37.742188 C 25.492188 38.335938 25.246094 39.1875 25.394531 40.019531 C 25.433594 40.222656 25.355469 40.425781 25.195312 40.550781 C 25.03125 40.679688 24.816406 40.703125 24.628906 40.617188 C 23.769531 40.226562 22.738281 40.363281 21.933594 40.976562 C 21.835938 41.050781 21.71875 41.089844 21.601562 41.089844 Z M 25.421875 37.125 C 25.421875 37.125 25.417969 37.125 25.417969 37.125 C 25.417969 37.125 25.421875 37.125 25.421875 37.125 Z M 25.421875 37.125 " fill-opacity="1" fill-rule="nonzero"/><path fill="#703627" d="M 13.117188 38.035156 C 13.023438 38.035156 12.925781 38.007812 12.84375 37.957031 C 12.695312 37.863281 12.601562 37.703125 12.597656 37.527344 C 12.585938 36.753906 12.414062 36.582031 12.160156 36.410156 C 11.800781 36.167969 11.375 36.046875 10.9375 36.070312 C 10.761719 36.082031 10.609375 36.007812 10.503906 35.878906 C 10.402344 35.75 10.367188 35.578125 10.410156 35.417969 C 10.683594 34.394531 10.636719 33.355469 10.28125 32.414062 C 10.207031 32.222656 10.253906 32.007812 10.394531 31.863281 C 10.535156 31.71875 10.75 31.671875 10.9375 31.738281 C 12.125 32.171875 13.394531 32.195312 14.515625 31.808594 C 14.65625 31.757812 14.808594 31.773438 14.9375 31.847656 C 15.066406 31.921875 15.160156 32.046875 15.1875 32.191406 C 15.285156 32.65625 15.441406 33.035156 15.660156 33.347656 C 15.804688 33.546875 15.757812 33.828125 15.558594 33.96875 C 15.355469 34.113281 15.082031 34.0625 14.9375 33.863281 C 14.710938 33.546875 14.542969 33.183594 14.417969 32.769531 C 13.425781 33.035156 12.355469 33.039062 11.320312 32.785156 C 11.507812 33.5625 11.523438 34.382812 11.367188 35.195312 C 11.828125 35.25 12.273438 35.410156 12.65625 35.671875 C 13.128906 35.992188 13.367188 36.378906 13.449219 37.007812 C 13.886719 36.898438 14.328125 36.902344 14.664062 37.023438 C 14.890625 37.109375 15.007812 37.367188 14.921875 37.597656 C 14.839844 37.828125 14.582031 37.945312 14.351562 37.859375 C 14.148438 37.78125 13.734375 37.800781 13.335938 37.988281 C 13.265625 38.019531 13.191406 38.035156 13.117188 38.035156 Z M 11.265625 35.644531 C 11.265625 35.648438 11.265625 35.648438 11.265625 35.648438 C 11.265625 35.648438 11.265625 35.648438 11.265625 35.644531 Z M 11.265625 35.644531 " fill-opacity="1" fill-rule="nonzero"/><path fill="#ed2027" d="M 18.542969 35.347656 C 18.542969 35.625 18.492188 35.890625 18.386719 36.144531 C 18.28125 36.398438 18.132812 36.625 17.9375 36.820312 C 17.742188 37.015625 17.519531 37.164062 17.265625 37.269531 C 17.011719 37.375 16.746094 37.429688 16.472656 37.429688 C 16.195312 37.429688 15.933594 37.375 15.679688 37.269531 C 15.425781 37.164062 15.199219 37.015625 15.007812 36.820312 C 14.8125 36.625 14.664062 36.398438 14.558594 36.144531 C 14.453125 35.890625 14.398438 35.625 14.398438 35.347656 C 14.398438 35.074219 14.453125 34.808594 14.558594 34.550781 C 14.664062 34.296875 14.8125 34.074219 15.007812 33.878906 C 15.199219 33.683594 15.425781 33.53125 15.679688 33.425781 C 15.933594 33.320312 16.195312 33.269531 16.472656 33.269531 C 16.746094 33.269531 17.011719 33.320312 17.265625 33.425781 C 17.519531 33.53125 17.742188 33.683594 17.9375 33.878906 C 18.132812 34.074219 18.28125 34.296875 18.386719 34.550781 C 18.492188 34.808594 18.542969 35.074219 18.542969 35.347656 Z M 18.542969 35.347656 " fill-opacity="1" fill-rule="nonzero"/><path fill="#703627" d="M 16.472656 37.875 C 15.085938 37.875 13.957031 36.742188 13.957031 35.347656 C 13.957031 33.957031 15.085938 32.824219 16.472656 32.824219 C 17.859375 32.824219 18.988281 33.957031 18.988281 35.347656 C 18.988281 36.742188 17.859375 37.875 16.472656 37.875 Z M 16.472656 33.714844 C 15.574219 33.714844 14.84375 34.445312 14.84375 35.347656 C 14.84375 36.25 15.574219 36.984375 16.472656 36.984375 C 17.371094 36.984375 18.101562 36.25 18.101562 35.347656 C 18.101562 34.445312 17.371094 33.714844 16.472656 33.714844 Z M 16.472656 33.714844 " fill-opacity="1" fill-rule="nonzero"/><path fill="#ed2027" d="M 21.652344 37.214844 C 21.652344 37.492188 21.597656 37.757812 21.496094 38.011719 C 21.390625 38.265625 21.238281 38.492188 21.046875 38.6875 C 20.851562 38.882812 20.625 39.03125 20.371094 39.136719 C 20.117188 39.242188 19.855469 39.296875 19.578125 39.296875 C 19.304688 39.296875 19.039062 39.242188 18.785156 39.136719 C 18.53125 39.03125 18.308594 38.882812 18.113281 38.6875 C 17.921875 38.492188 17.769531 38.265625 17.664062 38.011719 C 17.558594 37.757812 17.507812 37.492188 17.507812 37.214844 C 17.507812 36.941406 17.558594 36.675781 17.664062 36.417969 C 17.769531 36.164062 17.921875 35.941406 18.113281 35.746094 C 18.308594 35.550781 18.53125 35.398438 18.785156 35.292969 C 19.039062 35.1875 19.304688 35.136719 19.578125 35.136719 C 19.855469 35.136719 20.117188 35.1875 20.371094 35.292969 C 20.625 35.398438 20.851562 35.550781 21.046875 35.746094 C 21.238281 35.941406 21.390625 36.164062 21.496094 36.417969 C 21.597656 36.675781 21.652344 36.941406 21.652344 37.214844 Z M 21.652344 37.214844 " fill-opacity="1" fill-rule="nonzero"/><path fill="#703627" d="M 19.582031 39.742188 C 18.191406 39.742188 17.0625 38.609375 17.0625 37.214844 C 17.0625 35.824219 18.191406 34.691406 19.582031 34.691406 C 20.96875 34.691406 22.09375 35.824219 22.09375 37.214844 C 22.09375 38.609375 20.96875 39.742188 19.582031 39.742188 Z M 19.582031 35.582031 C 18.683594 35.582031 17.953125 36.3125 17.953125 37.214844 C 17.953125 38.117188 18.683594 38.851562 19.582031 38.851562 C 20.476562 38.851562 21.207031 38.117188 21.207031 37.214844 C 21.207031 36.3125 20.476562 35.582031 19.582031 35.582031 Z M 19.582031 35.582031 " fill-opacity="1" fill-rule="nonzero"/><path fill="#ed2027" d="M 18.335938 38.546875 C 18.335938 38.824219 18.285156 39.085938 18.179688 39.34375 C 18.074219 39.597656 17.925781 39.824219 17.730469 40.015625 C 17.535156 40.210938 17.3125 40.363281 17.058594 40.46875 C 16.804688 40.574219 16.539062 40.625 16.265625 40.625 C 15.988281 40.625 15.726562 40.574219 15.472656 40.46875 C 15.21875 40.363281 14.992188 40.210938 14.800781 40.015625 C 14.605469 39.824219 14.457031 39.597656 14.351562 39.34375 C 14.246094 39.085938 14.191406 38.824219 14.191406 38.546875 C 14.191406 38.269531 14.246094 38.003906 14.351562 37.75 C 14.457031 37.496094 14.605469 37.269531 14.800781 37.074219 C 14.992188 36.878906 15.21875 36.730469 15.472656 36.625 C 15.726562 36.519531 15.988281 36.464844 16.265625 36.464844 C 16.539062 36.464844 16.804688 36.519531 17.058594 36.625 C 17.3125 36.730469 17.535156 36.878906 17.730469 37.074219 C 17.925781 37.269531 18.074219 37.496094 18.179688 37.75 C 18.285156 38.003906 18.335938 38.269531 18.335938 38.546875 Z M 18.335938 38.546875 " fill-opacity="1" fill-rule="nonzero"/><path fill="#703627" d="M 16.265625 41.070312 C 14.878906 41.070312 13.75 39.9375 13.75 38.546875 C 13.75 37.152344 14.878906 36.019531 16.265625 36.019531 C 17.652344 36.019531 18.78125 37.152344 18.78125 38.546875 C 18.78125 39.9375 17.652344 41.070312 16.265625 41.070312 Z M 16.265625 36.910156 C 15.367188 36.910156 14.636719 37.644531 14.636719 38.546875 C 14.636719 39.449219 15.367188 40.179688 16.265625 40.179688 C 17.164062 40.179688 17.894531 39.449219 17.894531 38.546875 C 17.894531 37.644531 17.164062 36.910156 16.265625 36.910156 Z M 16.265625 36.910156 " fill-opacity="1" fill-rule="nonzero"/><path fill="#703627" d="M 8.152344 49.519531 C 7.183594 49.519531 6.175781 49.074219 5.503906 48.257812 C 4.867188 47.480469 3.644531 44.949219 6.09375 38.25 C 6.179688 38.019531 6.433594 37.902344 6.664062 37.988281 C 6.894531 38.070312 7.011719 38.328125 6.925781 38.558594 C 5.054688 43.675781 5.320312 46.628906 6.191406 47.691406 C 6.957031 48.625 8.355469 48.910156 9.246094 48.3125 C 9.675781 48.023438 10.003906 47.558594 10.347656 47.066406 C 10.867188 46.324219 11.40625 45.558594 12.359375 45.328125 C 13.699219 45.003906 14.855469 45.984375 15.8125 46.984375 C 16.484375 47.6875 17.480469 48.589844 18.417969 48.308594 C 18.992188 48.136719 19.378906 47.566406 19.785156 46.964844 C 20.226562 46.316406 20.683594 45.640625 21.445312 45.316406 C 22.65625 44.800781 23.9375 45.441406 24.796875 45.96875 L 24.992188 46.085938 C 25.773438 46.570312 26.574219 47.070312 27.394531 46.992188 C 28.085938 46.929688 28.777344 46.402344 29.152344 45.65625 C 29.308594 45.347656 29.652344 43.933594 27.636719 38.585938 C 27.546875 38.355469 27.664062 38.097656 27.894531 38.011719 C 28.121094 37.925781 28.378906 38.039062 28.464844 38.269531 C 30 42.339844 30.496094 44.960938 29.945312 46.058594 C 29.425781 47.085938 28.480469 47.785156 27.476562 47.878906 C 26.367188 47.984375 25.390625 47.378906 24.527344 46.847656 L 24.332031 46.726562 C 23.234375 46.054688 22.425781 45.863281 21.792969 46.132812 C 21.269531 46.359375 20.90625 46.898438 20.519531 47.464844 C 20.042969 48.171875 19.550781 48.898438 18.671875 49.164062 C 17.273438 49.585938 16.003906 48.472656 15.171875 47.601562 C 14.390625 46.78125 13.46875 45.972656 12.566406 46.195312 C 11.941406 46.347656 11.539062 46.917969 11.074219 47.578125 C 10.695312 48.117188 10.304688 48.671875 9.738281 49.054688 C 9.269531 49.367188 8.71875 49.519531 8.152344 49.519531 Z M 8.152344 49.519531 " fill-opacity="1" fill-rule="nonzero"/><path fill="#b27966" d="M 35.285156 59.226562 C 35.457031 57.511719 35.554688 55.765625 35.214844 54.074219 C 34.878906 52.386719 34.070312 50.738281 32.640625 49.839844 C 30.835938 50.390625 29.316406 51.902344 28.914062 53.75 C 28.507812 55.59375 29.324219 57.691406 30.957031 58.640625 C 32.152344 59.332031 33.601562 59.382812 35.285156 59.226562 Z M 35.285156 59.226562 " fill-opacity="1" fill-rule="nonzero"/><g clip-path="url(#0a187a79e3)"><path fill="#703627" d="M 38.160156 60.035156 C 37.160156 60.035156 36.210938 59.980469 35.375 59.914062 C 34.074219 59.8125 32.695312 59.667969 31.414062 59.140625 C 29.957031 58.542969 28.863281 57.488281 28.40625 56.257812 C 27.585938 54.046875 28.886719 51.59375 30.589844 50.3125 C 32.355469 48.992188 34.570312 48.511719 36.527344 48.085938 C 36.769531 48.035156 37.003906 48.1875 37.054688 48.425781 C 37.109375 48.667969 36.957031 48.902344 36.714844 48.957031 C 34.847656 49.363281 32.730469 49.820312 31.121094 51.027344 C 29.679688 52.109375 28.570312 54.144531 29.238281 55.945312 C 29.609375 56.949219 30.523438 57.8125 31.75 58.316406 C 32.914062 58.796875 34.210938 58.929688 35.441406 59.027344 C 38.136719 59.238281 42.046875 59.339844 44.878906 57.765625 C 54.972656 52.164062 52.902344 42.0625 50.46875 34.953125 C 50.390625 34.71875 50.511719 34.464844 50.746094 34.386719 C 50.976562 34.304688 51.230469 34.429688 51.308594 34.660156 C 53.847656 42.074219 55.984375 52.617188 45.308594 58.546875 C 43.171875 59.730469 40.523438 60.035156 38.160156 60.035156 Z M 38.160156 60.035156 " fill-opacity="1" fill-rule="nonzero"/></g><path fill="#dda783" d="M 30.894531 37.992188 C 29.878906 38.121094 28.855469 38.257812 27.898438 38.628906 C 26.945312 38.996094 26.054688 39.628906 25.578125 40.539062 C 25.097656 41.445312 25.113281 42.652344 25.78125 43.429688 C 26.242188 43.972656 26.9375 44.246094 27.613281 44.472656 C 28.589844 44.796875 29.625 45.0625 30.636719 44.871094 C 31.648438 44.679688 32.617188 43.914062 32.738281 42.890625 C 32.808594 42.292969 32.59375 41.703125 32.367188 41.144531 C 31.914062 40.039062 31.402344 38.957031 30.894531 37.992188 Z M 30.894531 37.992188 " fill-opacity="1" fill-rule="nonzero"/><path fill="#b27966" d="M 27.707031 38.828125 C 29.144531 40.351562 29.660156 42.6875 28.996094 44.675781 C 28.078125 44.792969 27.097656 44.546875 26.398438 43.933594 C 25.699219 43.324219 25.308594 42.34375 25.488281 41.429688 C 25.605469 40.824219 25.953125 40.277344 26.378906 39.832031 C 26.808594 39.386719 27.316406 39.027344 27.707031 38.828125 Z M 27.707031 38.828125 " fill-opacity="1" fill-rule="nonzero"/><path fill="#703627" d="M 30.171875 45.335938 C 29.078125 45.335938 27.871094 45.160156 27.25 44.929688 C 26.246094 44.554688 25.484375 43.863281 25.152344 43.035156 C 24.539062 41.503906 25.4375 39.832031 26.640625 38.976562 C 27.847656 38.113281 29.332031 37.855469 30.644531 37.628906 C 30.882812 37.585938 31.113281 37.746094 31.15625 37.988281 C 31.199219 38.230469 31.035156 38.460938 30.792969 38.503906 C 29.578125 38.71875 28.199219 38.957031 27.15625 39.699219 C 26.257812 40.339844 25.539062 41.609375 25.976562 42.703125 C 26.214844 43.300781 26.789062 43.808594 27.558594 44.09375 C 28.296875 44.371094 30.085938 44.554688 31.195312 44.375 C 31.4375 44.332031 31.664062 44.5 31.703125 44.742188 C 31.742188 44.984375 31.578125 45.210938 31.339844 45.253906 C 30.992188 45.308594 30.589844 45.335938 30.171875 45.335938 Z M 30.171875 45.335938 " fill-opacity="1" fill-rule="nonzero"/></svg>