<svg width="120" height="98" viewBox="0 0 120 98" fill="none" xmlns="http://www.w3.org/2000/svg">
<path d="M28.6352 70.3511C28.0245 73.045 28.355 75.9402 29.5475 78.4258C27.6869 79.6255 25.7903 80.8539 24.3607 82.5565C22.9383 84.2519 22.026 86.5364 22.4857 88.7059C22.9383 90.8827 25.0432 92.7505 27.2415 92.4344C27.0619 93.67 27.8593 94.9847 29.0446 95.3942C34.3535 97.2117 41.4512 96.9962 46.2716 92.6355C49.5619 95.0062 53.5489 96.2634 57.5719 96.7735C61.5877 97.2835 65.6682 97.0824 69.7055 96.7663C76.7673 96.2059 83.8003 95.272 90.7615 93.9717C93.434 94.5465 96.6308 95.9545 100.036 96.2921C103.815 96.6657 107.586 95.6887 111.257 94.7189C113.276 94.1873 115.417 93.5838 116.796 92.0177C118.491 90.0924 118.563 87.1327 117.629 84.7404C116.703 82.3482 114.928 80.3942 113.168 78.5264C111.408 76.6585 109.583 74.7692 108.513 72.4416C105.632 70.1427 103.714 67.6284 102.234 64.8769C100.891 62.3698 99.9066 59.6543 98.3406 57.2836C95.625 53.1816 91.3075 50.3583 86.7242 48.591C82.1337 46.831 77.2486 46.0336 72.7228 45.502C54.9211 44.9775 32.6438 52.5494 28.6352 70.3511Z" fill="#DDA783"/>
<path d="M29.9211 84.6553C34.4397 87.2918 38.1394 91.3219 40.388 96.0561C37.4642 96.8823 34.3535 97.0403 31.365 96.5087C29.9785 96.2645 28.513 95.8047 27.6797 94.6696C26.8751 93.5777 26.832 92.1122 27.0331 90.776C27.4139 88.2903 28.5489 85.9268 29.9211 84.6553Z" fill="#B27966"/>
<path d="M80.3735 88.3248C74.4684 88.1308 68.5488 87.9441 62.6724 88.49C56.7888 89.036 50.9195 90.3435 45.6537 93.0087C52.5072 95.7889 60.0216 96.6438 67.421 96.457C74.8132 96.2702 82.148 95.0777 89.4468 93.8851C85.7902 91.8377 82.1336 89.7903 80.3735 88.3248Z" fill="#FFDCC4"/>
<path d="M24.727 82.084C26.4439 82.5725 27.9885 83.6573 29.023 85.1156C27.7155 87.1271 26.9684 89.4906 26.875 91.89C26.8534 92.3641 26.8175 92.9317 26.408 93.1903C26.0416 93.4202 25.546 93.2693 25.158 93.061C23.1824 92.0337 21.8391 89.8857 21.7888 87.6515C21.7385 85.4245 22.9741 83.2119 24.727 82.084Z" fill="#B27966"/>
<path d="M32.2486 83.3266C31.9612 83.3266 31.6739 83.1973 31.4799 82.953C28.2687 78.9659 26.8535 74.9501 27.0187 70.3093C27.0403 69.7634 27.5072 69.3251 28.0388 69.3539C28.5848 69.3754 29.0087 69.8352 28.9943 70.3812C28.8434 74.5191 30.1222 78.1182 33.0173 81.7102C33.3621 82.1412 33.2903 82.759 32.8664 83.1039C32.6868 83.2547 32.4641 83.3266 32.2486 83.3266Z" fill="#703627"/>
<mask id="mask0_904_861" style="mask-type:luminance" maskUnits="userSpaceOnUse" x="25" y="77" width="26" height="21">
<path d="M25.1652 77.1279H50.9123V97.9325H25.1652V77.1279Z" fill="white"/>
</mask>
<g mask="url(#mask0_904_861)">
<path d="M34.3176 97.9459C33.9369 97.9459 33.5561 97.9316 33.1682 97.91C30.6467 97.7592 28.8363 97.048 27.6438 95.7405C25.8119 93.7362 25.9268 90.7261 26.6452 88.5781C28.1969 83.9661 32.2918 80.8483 35.582 78.3483C36.0202 78.0178 36.638 78.104 36.9685 78.5422C37.299 78.9733 37.2127 79.5983 36.7745 79.9287C33.6998 82.2635 29.8708 85.173 28.5202 89.2103C27.9814 90.8195 27.8449 93.0322 29.1021 94.4043C29.9355 95.3166 31.3004 95.8123 33.2903 95.9344C38.5202 96.2505 43.786 94.1457 47.3708 90.3095C47.7443 89.9143 48.3693 89.8928 48.7645 90.2663C49.1668 90.6399 49.1811 91.2649 48.8147 91.66C45.0935 95.6399 39.7415 97.9459 34.3176 97.9459Z" fill="#703627"/>
</g>
<path d="M27.1408 93.7865C27.1264 93.7865 27.112 93.7865 27.0905 93.7865C23.8362 93.6356 21.4152 90.6974 21.2787 88.1615C21.1566 85.9919 22.0833 83.7434 23.8793 81.8325C25.4023 80.2161 27.2701 79.081 29.0804 77.9819C29.5474 77.6945 30.1508 77.8454 30.4382 78.3123C30.7184 78.7793 30.5675 79.3899 30.1077 79.6701C28.4123 80.7046 26.6594 81.7678 25.3161 83.1902C23.9152 84.6773 23.1609 86.4517 23.2471 88.0537C23.3405 89.7132 25.079 91.7103 27.1839 91.8109C27.7298 91.8325 28.1537 92.2994 28.125 92.8454C28.1034 93.3698 27.6652 93.7865 27.1408 93.7865Z" fill="#703627"/>
<path d="M112.708 78.1104C108.477 78.6204 104.447 80.6966 101.58 83.8575C98.7069 87.0256 97.0258 91.2425 96.9324 95.5098C100.496 95.6894 104.095 95.8618 107.622 95.323C111.157 94.777 114.655 93.4695 117.263 91.0198C117.996 90.3302 118.678 89.504 118.858 88.5126C119.138 86.9394 118.118 85.4595 117.155 84.1879C115.654 82.2195 114.159 80.244 112.708 78.1104Z" fill="#B27966"/>
<mask id="mask1_904_861" style="mask-type:luminance" maskUnits="userSpaceOnUse" x="43" y="90" width="49" height="8">
<path d="M43.556 90.001H91.3721V97.932H43.556V90.001Z" fill="white"/>
</mask>
<g mask="url(#mask1_904_861)">
<path d="M64.8779 97.5151C58.0029 97.5151 51.8463 96.6099 45.704 93.6933C45.2083 93.4562 45 92.8671 45.2371 92.3714C45.467 91.8758 46.056 91.6674 46.5517 91.9045C54.1236 95.5036 61.8103 95.8772 71.0273 95.3384C75.1939 95.087 79.375 94.5266 83.4195 93.9878C85.6034 93.6933 87.8663 93.3916 90.1149 93.1401C90.6609 93.0755 91.1422 93.4706 91.2069 94.0094C91.2643 94.5553 90.8764 95.0439 90.3304 95.1085C88.1034 95.3599 85.8548 95.6545 83.6781 95.949C79.5977 96.495 75.3807 97.0625 71.1422 97.314C68.9799 97.4361 66.8965 97.5151 64.8779 97.5151Z" fill="#703627"/>
</g>
<mask id="mask2_904_861" style="mask-type:luminance" maskUnits="userSpaceOnUse" x="1" y="0" width="74" height="72">
<path d="M1.2572 0H74.8203V71.6091H1.2572V0Z" fill="white"/>
</mask>
<g mask="url(#mask2_904_861)">
<path d="M59.5905 57.271C65.6107 54.8932 71.1854 51.373 69.6408 48.9664C72.8951 44.5268 74.8204 36.9765 73.2328 31.4377C71.6451 25.8917 67.5862 19.4765 63.4268 15.4966C65.1653 13.0613 66.3721 10.8127 64.8276 8.25526C63.2831 5.6978 60.1509 4.25383 57.1768 4.56274C54.2098 4.87165 51.5087 6.83285 50.115 9.48371C47.5072 8.27682 44.8779 7.94635 42.2917 8.14751C42.0618 5.40325 40.3521 2.95355 37.9383 1.92625C35.5173 0.898949 32.4857 1.42338 30.661 3.31274C28.8291 5.19492 28.4196 8.36302 29.8348 10.5757C23.4843 12.7237 16.638 16.8688 11.3147 22.5728C5.99146 28.2696 2.24865 35.5756 1.40813 43.3414C0.574803 51.0498 4.26733 69.4046 23.8363 70.4607C31.0992 70.5756 37.0834 69.7997 46.6811 61.4233C50.7041 60.4894 54.648 59.2179 59.5905 57.271Z" fill="#DDA783"/>
</g>
<path d="M58.7284 20.8475C58.4051 20.8475 58.0818 20.6894 57.895 20.3877C57.6077 19.9207 57.7442 19.3101 58.204 19.0227C60.6321 17.4998 62.3203 15.7613 63.2183 13.8719C64.2744 11.6377 64.1666 9.09459 62.9453 7.3992C61.7815 5.79 59.5689 4.93512 57.4425 5.28713C55.4238 5.61759 53.5201 6.97535 52.3419 8.915C51.2643 10.6894 50.7686 12.9811 50.9338 15.3661C50.977 15.9121 50.5603 16.3791 50.0215 16.4222C49.4683 16.4581 49.0014 16.0486 48.9655 15.5026C48.7715 12.7153 49.3678 10.007 50.6537 7.8877C52.1264 5.46673 54.5402 3.76414 57.1192 3.33311C59.964 2.86615 62.9525 4.03713 64.5473 6.24259C66.1853 8.5127 66.3649 11.8388 64.9999 14.7196C63.9367 16.961 62.0042 18.9725 59.2528 20.6966C59.0948 20.8044 58.908 20.8475 58.7284 20.8475Z" fill="#703627"/>
<path d="M53.6567 16.7451C53.1323 16.7451 52.694 16.3428 52.6653 15.8112C52.4713 12.1331 54.7917 8.44772 58.1825 7.03249C58.6926 6.82416 59.2673 7.06841 59.4756 7.57128C59.684 8.07416 59.4469 8.65605 58.944 8.86439C56.2932 9.96352 54.49 12.8371 54.6409 15.7035C54.6696 16.2494 54.2529 16.7164 53.707 16.7451C53.6926 16.7451 53.671 16.7451 53.6567 16.7451Z" fill="#703627"/>
<path d="M39.5618 38.2756C40.7615 38.6132 42.0331 38.9939 42.8377 39.9494C43.1106 40.2799 43.3262 40.7181 43.24 41.1419C43.1466 41.5873 42.7371 41.9106 42.2989 42.0327C41.8678 42.1549 41.4009 42.1118 40.9483 42.0615C39.9641 41.9465 38.9799 41.7957 38.0244 41.537C37.4713 41.3862 36.9109 41.1922 36.4799 40.8187C36.0417 40.4523 35.7471 39.8632 35.8621 39.3028C35.9842 38.685 36.5661 38.2468 37.1696 38.096C37.7802 37.9451 38.4339 37.9595 39.5618 38.2756Z" fill="#703627"/>
<path d="M12.5432 35.8334C14.7631 35.5819 17.026 35.4957 19.2171 35.9339C21.4082 36.3793 23.5274 37.3923 25.0001 39.0805C26.7027 41.0273 27.3852 43.6566 27.7946 46.2141C28.24 48.9727 28.4412 51.7816 28.2113 54.5618C28.0748 56.171 27.7659 57.8377 26.832 59.1523C25.2731 61.329 22.4067 62.0402 19.7846 62.6006C17.2846 63.1322 14.7415 63.6638 12.184 63.5489C9.62656 63.4267 7.00444 62.579 5.24438 60.7184C4.02312 59.4397 3.29755 57.7658 2.81622 56.0632C1.78893 52.4354 1.78893 48.592 2.22715 44.8492C2.44266 42.967 2.80186 41.013 3.95847 39.5115C5.66105 37.3061 8.57771 36.2788 12.5432 35.8334Z" fill="#B27966"/>
<path d="M9.50435 42.0618C9.99286 42.5862 10.3018 43.2831 10.3592 44.0086C10.388 44.3032 10.3377 44.6552 10.0791 44.7989C9.82044 44.9354 9.51153 44.7917 9.26728 44.648C8.72131 44.3463 8.17533 44.0374 7.73711 43.592C7.33481 43.1825 7.04027 42.5647 7.26297 42.0331C7.43539 41.6308 7.88797 41.3865 8.32619 41.3937C8.76441 41.4081 9.14515 41.6739 9.50435 42.0618Z" fill="#703627"/>
<path d="M18.4053 41.379C18.003 41.9753 17.8018 42.708 17.8521 43.4336C17.8737 43.7282 17.9743 44.073 18.2544 44.1736C18.5274 44.267 18.8076 44.0802 19.0375 43.9006C19.526 43.5198 20.0217 43.1319 20.3809 42.6218C20.7185 42.1549 20.9197 41.5012 20.6179 41.0055C20.3881 40.6319 19.8995 40.4667 19.4685 40.5457C19.0375 40.6247 18.6998 40.9408 18.4053 41.379Z" fill="#703627"/>
<path d="M11.8821 58.2323C11.8749 58.2323 11.8677 58.2323 11.8605 58.2323C10.3375 58.2252 8.87921 57.1476 8.13927 55.4881C7.97404 55.1145 8.13927 54.6763 8.51283 54.5039C8.8864 54.3387 9.32462 54.5111 9.48984 54.8847C9.98554 55.991 10.941 56.7453 11.8749 56.7525C12.7513 56.7237 13.6565 56.0915 14.1666 55.0786L14.0947 54.116C13.9367 51.889 13.7786 49.6763 13.6637 47.7151C13.635 47.3056 13.9439 46.9536 14.3533 46.9249C14.77 46.9033 15.1148 47.2122 15.1364 47.6217C15.2585 49.5829 15.4166 51.7884 15.5746 54.0082L15.6536 55.1648C15.6608 55.287 15.6393 55.4091 15.589 55.5168C14.8562 57.1691 13.4051 58.2323 11.8821 58.2323Z" fill="#703627"/>
<path d="M17.7442 57.5213C16.4942 57.5213 15.2514 56.8245 14.4396 55.6176C14.2097 55.2727 14.3031 54.813 14.6407 54.5831C14.9784 54.3604 15.4381 54.4466 15.668 54.7842C16.3074 55.7397 17.306 56.2066 18.2111 55.9768C19.145 55.7469 19.9999 54.7483 20.3232 53.5127C20.431 53.1104 20.8333 52.8733 21.2284 52.9811C21.6235 53.0816 21.8606 53.4911 21.76 53.8862C21.293 55.6607 20.0358 57.0472 18.5703 57.4207C18.2973 57.4854 18.0243 57.5213 17.7442 57.5213Z" fill="#703627"/>
<mask id="mask3_904_861" style="mask-type:luminance" maskUnits="userSpaceOnUse" x="27" y="0" width="17" height="13">
<path d="M27.0043 0H43.556V12.7586H27.0043V0Z" fill="white"/>
</mask>
<g mask="url(#mask3_904_861)">
<path d="M30.1149 11.4217C29.7485 11.4217 29.4036 11.2278 29.2312 10.8829C27.7729 8.0022 28.1608 5.18611 30.316 2.94473C32.4927 0.688989 36.1421 0.00651777 38.987 1.32836C41.4798 2.48496 43.0028 4.76944 43.3835 7.93754C43.4482 8.48352 43.0602 8.97203 42.5214 9.03668C41.9755 9.10134 41.487 8.71341 41.4223 8.17461C41.1206 5.68898 40.0215 3.99358 38.1536 3.12433C36.0488 2.14013 33.3476 2.65019 31.7312 4.32404C30.1651 5.95479 29.9137 7.85852 30.9913 9.98496C31.2355 10.4735 31.0416 11.0697 30.5603 11.314C30.4166 11.3858 30.2585 11.4217 30.1149 11.4217Z" fill="#703627"/>
</g>
<mask id="mask4_904_861" style="mask-type:luminance" maskUnits="userSpaceOnUse" x="0" y="5" width="53" height="67">
<path d="M0 5.40332H52.7514V71.6101H0V5.40332Z" fill="white"/>
</mask>
<g mask="url(#mask4_904_861)">
<path d="M25.2083 71.4878C18.7716 71.4878 12.5216 69.1889 8.06755 65.0941C3.01726 60.4533 0.0431287 53.2622 0.107783 45.8484C0.172438 39.1387 2.6437 32.1416 7.07617 26.1574C10.9555 20.9203 16.3003 16.3657 22.9598 12.6229C30.3879 8.44905 41.6164 5.13009 50.8692 8.35566C51.3865 8.53526 51.6595 9.0956 51.4799 9.61284C51.3003 10.1301 50.7399 10.4031 50.2227 10.2235C41.5876 7.2206 30.977 10.3815 23.9224 14.347C17.5072 17.9534 12.3779 22.3212 8.66381 27.3355C4.47559 32.9893 2.14083 39.5697 2.08336 45.87C2.02588 52.7234 4.76295 59.3685 9.40375 63.6358C14.1164 67.9677 21.0273 70.1085 27.9023 69.3613C34.2457 68.6717 40.5819 65.6113 45.7256 60.7407C46.1207 60.3599 46.7457 60.3815 47.1192 60.7766C47.5 61.1717 47.4784 61.8039 47.0833 62.1774C41.6235 67.3427 34.885 70.597 28.1106 71.3297C27.1408 71.4375 26.171 71.4878 25.2083 71.4878Z" fill="#703627"/>
</g>
<path d="M47.0546 45.8114C47.0546 46.1706 46.99 46.5082 46.8535 46.8315C46.717 47.1548 46.5302 47.4421 46.2788 47.6935C46.0273 47.945 45.74 48.1389 45.4167 48.2683C45.0934 48.4048 44.7558 48.4766 44.4038 48.4766C44.0518 48.4766 43.7141 48.4048 43.3837 48.2683C43.0604 48.1389 42.773 47.945 42.5216 47.6935C42.2773 47.4421 42.0834 47.1548 41.9469 46.8315C41.8176 46.5082 41.7457 46.1706 41.7457 45.8114C41.7457 45.4594 41.8176 45.1217 41.9469 44.7984C42.0834 44.468 42.2773 44.1806 42.5216 43.9364C42.773 43.6849 43.0604 43.491 43.3837 43.3545C43.7141 43.2252 44.0518 43.1533 44.4038 43.1533C44.7558 43.1533 45.0934 43.2252 45.4167 43.3545C45.74 43.491 46.0273 43.6849 46.2788 43.9364C46.5302 44.1806 46.717 44.468 46.8535 44.7984C46.99 45.1217 47.0546 45.4594 47.0546 45.8114Z" fill="#FAC4AF"/>
<path d="M69.928 49.9566C69.7484 49.9566 69.5688 49.9063 69.4108 49.8057C68.9438 49.5112 68.8073 48.9005 69.0947 48.4408C74.0229 40.5385 75.2729 27.4422 62.5789 16.5442C62.1694 16.1922 62.1191 15.5672 62.4711 15.1506C62.8303 14.7339 63.4553 14.6908 63.8648 15.0428C77.5142 26.7526 76.1134 40.9192 70.7685 49.4896C70.5818 49.7913 70.2585 49.9566 69.928 49.9566Z" fill="#703627"/>
<path d="M40.0001 17.2047C39.7846 17.2047 39.5691 17.1328 39.3895 16.982C38.9585 16.6443 38.8938 16.0193 39.2314 15.5955C40.6754 13.7923 42.3133 12.14 44.1165 10.7032C44.5475 10.3584 45.1653 10.4302 45.5102 10.8541C45.8478 11.2779 45.776 11.9029 45.3521 12.2478C43.6639 13.5983 42.1266 15.1429 40.776 16.8311C40.582 17.0753 40.2947 17.2047 40.0001 17.2047Z" fill="#C58D72"/>
<path d="M30.0575 16.9606C29.7773 16.9606 29.5043 16.8456 29.3104 16.6229C28.9512 16.2134 28.9943 15.5884 29.4037 15.2293L32.852 12.1833C33.2615 11.8241 33.8865 11.8672 34.2457 12.2767C34.6121 12.6862 34.569 13.3112 34.1595 13.6703L30.704 16.7163C30.5173 16.8816 30.2874 16.9606 30.0575 16.9606Z" fill="#C58D72"/>
<path d="M31.1925 24.6551C30.9842 24.6551 30.7687 24.5832 30.5891 24.4467C30.158 24.1163 30.0718 23.4984 30.4023 23.0602L32.7802 19.9496C33.1106 19.5186 33.7284 19.4324 34.1595 19.7628C34.5977 20.0933 34.6767 20.7183 34.3462 21.1493L31.9756 24.2599C31.7816 24.5186 31.487 24.6551 31.1925 24.6551Z" fill="#C58D72"/>
<path d="M20.0935 23.7714C19.9139 23.7714 19.7415 23.7283 19.5762 23.6277C19.1093 23.3475 18.9656 22.7369 19.2458 22.2699C20.1366 20.7972 21.2573 19.4969 22.5719 18.3906C22.9886 18.0458 23.6136 18.0961 23.9656 18.5199C24.3176 18.9366 24.2602 19.5616 23.8363 19.9136C22.6869 20.8762 21.7099 22.0113 20.934 23.2972C20.7472 23.5989 20.4239 23.7714 20.0935 23.7714Z" fill="#C58D72"/>
<path d="M23.3478 28.8435C23.2616 28.8435 23.1682 28.8363 23.082 28.8076C22.5504 28.6639 22.2487 28.1107 22.3995 27.5863C22.8809 25.8693 23.6639 24.2745 24.7199 22.8306C25.036 22.3923 25.6538 22.2989 26.0992 22.6222C26.5375 22.9455 26.6309 23.5633 26.3076 24.0087C25.3952 25.2515 24.7199 26.638 24.2961 28.1251C24.174 28.5633 23.7788 28.8435 23.3478 28.8435Z" fill="#C58D72"/>
<path d="M82.7946 53.2545C82.6581 53.2545 82.5144 53.2258 82.3779 53.1612C80.2874 52.1841 78.0747 51.552 75.7831 51.2646C75.2443 51.1928 74.8563 50.6971 74.9282 50.1583C74.9928 49.6123 75.4885 49.2316 76.0273 49.2962C78.5201 49.6123 80.9339 50.3091 83.2112 51.3652C83.7069 51.5951 83.9224 52.1841 83.6925 52.6798C83.5273 53.039 83.1681 53.2545 82.7946 53.2545Z" fill="#C58D72"/>
<path d="M95.4741 62.1334C95.194 62.1334 94.9138 62.0113 94.7198 61.7814C93.2471 60.0214 91.5589 58.4481 89.6911 57.1047C89.2529 56.7814 89.1523 56.1636 89.4684 55.7254C89.7917 55.28 90.4023 55.1794 90.8477 55.4955C92.8448 56.9323 94.6552 58.6205 96.2285 60.5099C96.5805 60.9265 96.523 61.5515 96.1063 61.9035C95.9267 62.0616 95.6968 62.1334 95.4741 62.1334Z" fill="#C58D72"/>
<path d="M84.9927 61.7679C84.7844 61.7679 84.5761 61.7032 84.3965 61.5668C82.464 60.0941 80.3447 58.88 78.0962 57.9532C77.5933 57.7449 77.3491 57.163 77.5574 56.6601C77.7657 56.1501 78.3404 55.913 78.8505 56.1214C81.2499 57.1127 83.52 58.413 85.589 59.9935C86.0272 60.3168 86.1134 60.9418 85.783 61.38C85.589 61.6314 85.2945 61.7679 84.9927 61.7679Z" fill="#C58D72"/>
<path d="M96.5731 72.7087C96.2642 72.7087 95.9625 72.565 95.7685 72.292C94.5688 70.5894 93.132 69.0808 91.4941 67.8021C91.063 67.4644 90.9912 66.8394 91.3217 66.4084C91.6593 65.9774 92.2843 65.9055 92.7082 66.236C94.497 67.6368 96.0702 69.2891 97.3777 71.1498C97.6938 71.5952 97.586 72.213 97.1406 72.5291C96.9682 72.6512 96.7742 72.7087 96.5731 72.7087Z" fill="#C58D72"/>
<path d="M106.645 90.3079C106.595 90.3079 106.544 90.3007 106.494 90.272C106.322 90.1858 106.25 89.9774 106.336 89.8122L110.036 82.4272C110.122 82.2547 110.33 82.1901 110.503 82.2763C110.668 82.3625 110.74 82.5708 110.654 82.7361L106.954 90.1211C106.896 90.2432 106.774 90.3079 106.645 90.3079Z" fill="#703627"/>
<path d="M104.195 89.3523C104.116 89.3523 104.03 89.3236 103.965 89.2661C103.822 89.144 103.807 88.9285 103.93 88.7776C105.726 86.6583 107.184 84.2733 108.254 81.7014C108.326 81.529 108.527 81.4428 108.707 81.5147C108.879 81.5937 108.965 81.7948 108.894 81.9673C107.794 84.6109 106.3 87.0463 104.454 89.2302C104.389 89.3092 104.289 89.3523 104.195 89.3523Z" fill="#703627"/>
<path d="M102.464 88.8428C102.385 88.8428 102.313 88.814 102.248 88.7637C102.098 88.6488 102.069 88.4333 102.191 88.2824C103.944 86.041 105.266 83.5267 106.113 80.8112C106.171 80.6316 106.365 80.531 106.544 80.5885C106.724 80.6459 106.832 80.8399 106.774 81.0195C105.898 83.814 104.54 86.4002 102.737 88.7063C102.665 88.7925 102.565 88.8428 102.464 88.8428Z" fill="#703627"/>
<path d="M101.221 87.5858C101.185 87.5858 101.142 87.5786 101.106 87.5642C100.927 87.4996 100.833 87.2984 100.898 87.1188C101.904 84.3099 103.254 81.6303 104.914 79.1519C105.022 78.9938 105.237 78.9507 105.395 79.0585C105.553 79.1663 105.596 79.3746 105.488 79.5398C103.865 81.968 102.536 84.5973 101.552 87.3559C101.494 87.4924 101.365 87.5858 101.221 87.5858Z" fill="#703627"/>
<path d="M99.5473 87.3067C99.5329 87.3067 99.5114 87.3067 99.497 87.3067C99.3031 87.278 99.1737 87.0984 99.2097 86.9116C99.6335 84.1386 100.682 81.4447 102.227 79.1099C102.335 78.9519 102.55 78.9088 102.708 79.0165C102.866 79.1171 102.909 79.3326 102.809 79.4906C101.315 81.7464 100.302 84.347 99.8921 87.0194C99.8634 87.1846 99.7125 87.3067 99.5473 87.3067Z" fill="#703627"/>
<path d="M97.7945 86.429C97.7802 86.429 97.773 86.4218 97.7586 86.4218C97.5718 86.4003 97.4282 86.2351 97.4497 86.0411C97.7802 83.031 98.8649 80.1287 100.582 77.6431C100.69 77.4851 100.905 77.442 101.063 77.5497C101.221 77.6647 101.257 77.8802 101.149 78.0382C99.4971 80.4305 98.4555 83.225 98.1394 86.1201C98.1178 86.2925 97.967 86.429 97.7945 86.429Z" fill="#703627"/>
<path d="M95.7326 85.1789C95.5387 85.1789 95.3878 85.0208 95.3878 84.8341C95.4022 82.0323 96.1493 79.2737 97.5502 76.8528C97.6436 76.6875 97.8591 76.6301 98.0243 76.7234C98.1895 76.824 98.247 77.0324 98.1464 77.1976C96.8102 79.518 96.0918 82.1545 96.0775 84.8341C96.0775 85.028 95.9266 85.1789 95.7326 85.1789Z" fill="#703627"/>
<path d="M93.5273 83.6063C93.5201 83.6063 93.5129 83.6063 93.5129 83.6063C93.3189 83.592 93.1753 83.4339 93.1824 83.24C93.2974 80.7615 94.0445 78.3405 95.3376 76.2213C95.4382 76.0632 95.6537 76.013 95.8118 76.1135C95.977 76.2069 96.0273 76.4224 95.9267 76.5877C94.6911 78.5992 93.9799 80.9124 93.8721 83.2759C93.8649 83.4627 93.7141 83.6063 93.5273 83.6063Z" fill="#703627"/>
<path d="M91.1135 83.2037C91.0632 83.2037 91.0129 83.1893 90.9626 83.1678C90.7902 83.0816 90.7184 82.8732 90.8046 82.7008C91.2931 81.7238 91.5661 80.6175 91.8247 79.5471C91.9181 79.1807 92.0115 78.8143 92.1049 78.4551C92.4641 77.1333 93.0388 75.481 94.3175 74.3531C94.4612 74.231 94.6767 74.2454 94.7988 74.389C94.9282 74.5327 94.9138 74.7482 94.7701 74.8775C93.6351 75.8761 93.1106 77.4135 92.773 78.6347C92.6796 78.9939 92.5862 79.3531 92.5 79.7195C92.227 80.8186 91.9468 81.9609 91.4224 83.0097C91.3649 83.1318 91.2428 83.2037 91.1135 83.2037Z" fill="#703627"/>
<path d="M88.6566 82.4343C88.6063 82.4343 88.5632 82.4199 88.513 82.3983C88.3405 82.3193 88.2615 82.1182 88.3405 81.9458L91.6882 74.5176C91.7673 74.3452 91.9684 74.2662 92.148 74.3452C92.3204 74.4242 92.3994 74.6325 92.3204 74.805L88.9727 82.2259C88.9153 82.3552 88.7859 82.4343 88.6566 82.4343Z" fill="#703627"/>
<path d="M86.8319 80.9483C86.7673 80.9483 86.6954 80.9339 86.638 80.8908C86.4799 80.7831 86.4368 80.5676 86.5518 80.4095C87.9814 78.3405 89.138 76.0992 89.9928 73.7357C90.0575 73.5561 90.2515 73.4627 90.4311 73.5273C90.6107 73.592 90.7041 73.7931 90.6394 73.9727C89.7701 76.3865 88.5776 78.6854 87.1193 80.8046C87.0474 80.898 86.9397 80.9483 86.8319 80.9483Z" fill="#703627"/>
<path d="M84.7628 80.2731C84.7054 80.2731 84.6479 80.2587 84.5976 80.23C84.4252 80.1366 84.3677 79.9282 84.4611 79.763L88.089 73.1395C88.1824 72.9742 88.3907 72.9096 88.5559 73.003C88.7284 73.0964 88.7858 73.3047 88.6924 73.4771L85.0646 80.0935C84.9999 80.2084 84.885 80.2731 84.7628 80.2731Z" fill="#703627"/>
<path d="M83.4625 79.5555C83.4482 79.5555 83.4338 79.5555 83.4194 79.5555C83.2327 79.5339 83.0962 79.3615 83.1177 79.1747C83.4051 76.7035 84.2743 74.2968 85.6321 72.2135C85.7398 72.0555 85.9482 72.0052 86.1134 72.1129C86.2714 72.2207 86.3146 72.429 86.214 72.5943C84.9065 74.5842 84.0732 76.8831 83.8074 79.2537C83.7858 79.4262 83.635 79.5555 83.4625 79.5555Z" fill="#703627"/>
<path d="M81.8102 78.7146C81.7886 78.7146 81.7599 78.7146 81.7383 78.7074C81.5516 78.6643 81.4294 78.4775 81.4725 78.2907C82.0688 75.6543 82.9668 73.0824 84.1378 70.6399C84.224 70.4675 84.4323 70.3956 84.5975 70.4818C84.7699 70.5609 84.8418 70.7692 84.7628 70.9416C83.6133 73.3338 82.7369 75.8554 82.1478 78.4488C82.1119 78.6068 81.9682 78.7146 81.8102 78.7146Z" fill="#703627"/>
<path d="M79.7773 77.9741C79.7629 77.9741 79.7486 77.9741 79.727 77.9669C79.5402 77.9382 79.4109 77.7657 79.4397 77.579C79.8204 74.964 80.7112 72.3778 82.0187 70.0862C82.1121 69.9209 82.3276 69.8635 82.4928 69.9568C82.6581 70.0502 82.7155 70.2657 82.6221 70.431C81.3506 72.6436 80.4885 75.1508 80.1221 77.6795C80.0934 77.8519 79.9497 77.9741 79.7773 77.9741Z" fill="#703627"/>
<path d="M77.8017 76.4875C77.7801 76.4875 77.7658 76.4875 77.7514 76.4875C77.5574 76.4588 77.4281 76.2792 77.4569 76.0924C77.852 73.4846 78.635 70.9559 79.7916 68.5852C79.8707 68.4128 80.079 68.3409 80.2514 68.4272C80.4238 68.5062 80.4957 68.7145 80.4095 68.8869C79.2888 71.193 78.5201 73.657 78.1393 76.193C78.1178 76.3654 77.9669 76.4875 77.8017 76.4875Z" fill="#703627"/>
<path d="M75.3161 75.5466C75.2946 75.5466 75.2802 75.5394 75.2586 75.5394C75.0719 75.5106 74.9425 75.3311 74.9713 75.1443C75.3808 72.5796 76.4512 70.1586 78.0819 68.1328C78.204 67.9891 78.4196 67.9676 78.5704 68.0825C78.7213 68.2046 78.7428 68.4201 78.6207 68.571C77.069 70.4963 76.0417 72.8095 75.6538 75.252C75.625 75.4244 75.4813 75.5466 75.3161 75.5466Z" fill="#703627"/>
<path d="M73.5273 74.7708C73.513 74.7708 73.4986 74.7708 73.4842 74.7708C73.2903 74.7421 73.161 74.5697 73.1825 74.3829C73.4914 71.926 74.2888 69.4835 75.4885 67.3211C75.5819 67.1559 75.7903 67.0912 75.9555 67.1846C76.1207 67.278 76.1854 67.4863 76.092 67.6587C74.9354 69.7421 74.1667 72.0984 73.865 74.4691C73.8434 74.6415 73.6998 74.7708 73.5273 74.7708Z" fill="#703627"/>
<path d="M71.3435 73.8221C71.3219 73.8221 71.3004 73.8221 71.2788 73.815C71.092 73.779 70.9699 73.5994 71.0058 73.4127C71.4441 70.9917 72.2774 68.6785 73.4843 66.5305C73.5777 66.3653 73.786 66.3078 73.9512 66.4012C74.1165 66.4946 74.1811 66.7029 74.0877 66.8681C72.9168 68.9515 72.1122 71.1928 71.6811 73.5348C71.6524 73.7072 71.5087 73.8221 71.3435 73.8221Z" fill="#703627"/>
<path d="M69.4469 72.4504C69.4181 72.4504 69.3966 72.4432 69.3678 72.4432C69.181 72.4001 69.0661 72.2133 69.1092 72.0265C69.5331 70.0438 70.3017 68.1688 71.3793 66.4518C71.4799 66.2866 71.6882 66.2363 71.8535 66.3441C72.0187 66.4446 72.0618 66.6601 71.9612 66.8182C70.9267 68.4705 70.194 70.2736 69.7845 72.1774C69.7486 72.3354 69.6049 72.4504 69.4469 72.4504Z" fill="#703627"/>
<path d="M67.3994 71.5302C67.385 71.5302 67.3635 71.5302 67.3491 71.523C67.1552 71.4943 67.0259 71.3219 67.0546 71.1351C67.3922 68.8865 68.2615 66.7242 69.5761 64.8707C69.6911 64.7199 69.9066 64.684 70.0575 64.7917C70.2155 64.8995 70.2514 65.1222 70.1437 65.273C68.8865 67.0331 68.0603 69.0949 67.7371 71.2357C67.7155 71.4081 67.5646 71.5302 67.3994 71.5302Z" fill="#703627"/>
<path d="M65.4669 70.1287C65.4382 70.1287 65.4023 70.1215 65.3663 70.1071C65.1867 70.0568 65.0862 69.8629 65.1365 69.6761C65.7902 67.5856 66.7528 65.61 68.01 63.814C68.125 63.656 68.3405 63.6201 68.4913 63.7278C68.6494 63.8428 68.6853 64.0583 68.5776 64.2091C67.3635 65.9476 66.4296 67.8586 65.7974 69.8844C65.7543 70.0281 65.6178 70.1287 65.4669 70.1287Z" fill="#703627"/>
<path d="M63.7572 69.7413C63.7284 69.7413 63.6997 69.7341 63.671 69.727C63.4842 69.6767 63.3764 69.4899 63.4267 69.3031C63.9871 67.1839 64.921 65.2083 66.1853 63.4195C66.2931 63.2614 66.5086 63.2255 66.6666 63.3333C66.8247 63.4482 66.8606 63.6637 66.7457 63.8218C65.5316 65.5387 64.6336 67.4425 64.0948 69.4827C64.0517 69.6408 63.908 69.7413 63.7572 69.7413Z" fill="#703627"/>
<path d="M62.2486 69.1028C62.1984 69.1028 62.1481 69.0956 62.105 69.074C61.9325 68.9878 61.8535 68.7867 61.9397 68.6143L64.6337 62.9318C64.7199 62.7594 64.9211 62.6804 65.0935 62.7666C65.2659 62.8456 65.3449 63.0539 65.2587 63.2263L62.5647 68.9088C62.5001 69.0309 62.378 69.1028 62.2486 69.1028Z" fill="#703627"/>
<path d="M112.55 77.2849C111.753 76.861 111.063 76.2504 110.625 75.4674C110.568 75.3668 110.532 75.3021 110.51 75.2447C110.496 75.2303 110.489 75.2303 110.467 75.2088C110.23 74.9861 110.007 74.7418 109.785 74.5047C109.332 74.0378 108.894 73.5565 108.463 73.0608C107.349 71.7605 106.286 70.3955 105.546 68.8438C105.46 68.6499 105.395 68.4631 105.33 68.2691C105.287 68.2044 105.237 68.1398 105.201 68.068C103.628 65.3596 102.198 62.5651 100.668 59.8208C98.7213 57.5507 96.6667 55.453 93.9512 53.5062C89.0015 49.9645 83.5489 47.716 77.8449 45.5895C77.6868 45.5321 77.536 45.4674 77.3923 45.4027C77.3277 45.4027 77.263 45.4171 77.1983 45.4171C76.1136 45.4171 75.2156 45.1298 74.5044 44.6484C71.8248 50.6542 68.6926 56.4229 64.7343 61.6384C64.1739 62.3711 64.3535 63.4272 65.1438 63.9157C73.6998 69.2389 81.911 73.9731 90.6179 77.6513C96.5733 80.1728 102.73 82.1915 109.016 83.6858C109.691 83.8438 110.395 83.5349 110.733 82.9314C111.645 81.3151 112.522 79.6843 113.405 78.0536C113.312 77.9674 113.204 77.9027 113.111 77.8021C112.924 77.6297 112.73 77.4645 112.55 77.2849Z" fill="#B3D342"/>
<path d="M112.55 77.2848C111.782 76.8753 111.121 76.2862 110.675 75.5391C94.4755 70.3451 76.1709 59.6699 68.8721 55.5176C68.1106 56.7748 67.3132 58.0176 66.4727 59.2245C80.6896 68.2259 96.0631 75.3883 112.098 80.4888C112.543 79.6842 112.981 78.8724 113.419 78.0607C113.319 77.9745 113.204 77.9026 113.111 77.802C112.924 77.6296 112.73 77.4644 112.55 77.2848Z" fill="#FFC450"/>
<path d="M109.368 84.7125C109.181 84.7125 108.987 84.6909 108.793 84.6478C102.464 83.1464 96.2213 81.099 90.2371 78.5631C80.8262 74.5832 72.0044 69.3533 64.6193 64.7556C64.0159 64.3821 63.592 63.7642 63.4627 63.0602C63.3334 62.3562 63.513 61.6163 63.9512 61.0344C67.4354 56.4438 70.5532 51.0416 73.4699 44.5401C73.6926 44.0444 74.2817 43.8217 74.7773 44.0444C75.273 44.2671 75.4957 44.849 75.273 45.3519C72.2917 51.997 69.1021 57.5142 65.5245 62.2341C65.3808 62.4208 65.388 62.6076 65.4095 62.701C65.4239 62.7944 65.4814 62.9596 65.661 63.0746C72.9814 67.6292 81.717 72.816 91.0058 76.7455C96.8894 79.2312 103.024 81.2427 109.246 82.7226C109.49 82.78 109.749 82.6651 109.878 82.4424C110.697 80.984 111.509 79.5257 112.313 78.0602C112.572 77.5789 113.175 77.4065 113.649 77.6651C114.131 77.9309 114.303 78.5272 114.045 79.0085C113.24 80.4812 112.421 81.9539 111.595 83.4194C111.135 84.224 110.273 84.7125 109.368 84.7125Z" fill="#703627"/>
<mask id="mask5_904_861" style="mask-type:luminance" maskUnits="userSpaceOnUse" x="69" y="42" width="51" height="56">
<path d="M69.3032 42.1836H120V97.3559H69.3032V42.1836Z" fill="white"/>
</mask>
<g mask="url(#mask5_904_861)">
<path d="M101.616 97.2546C93.0963 97.2546 84.5906 93.8997 78.5777 87.6928C78.1969 87.3049 78.2113 86.6727 78.5992 86.292C78.9943 85.9112 79.6193 85.9256 80.0001 86.3135C88.2688 94.8552 102.191 97.6497 113.103 92.9443C115.575 91.8811 116.997 90.6454 117.443 89.1655C117.888 87.6785 117.378 85.8394 115.876 83.5477C114.16 80.9256 112.019 78.5118 109.943 76.1771C108.01 74.0003 106.013 71.7446 104.318 69.2877C103.168 67.621 102.148 65.8466 101.157 64.1297C99.7343 61.6584 98.2687 59.1009 96.4225 56.9314C92.809 52.6713 87.342 49.4242 80.6107 47.542L79.9642 47.3552C77.2199 46.5938 74.8564 45.9256 71.9757 45.5665C71.4297 45.5018 71.0489 45.0061 71.1136 44.4673C71.1782 43.9213 71.6739 43.5334 72.2127 43.6052C75.2443 43.9788 77.6797 44.6613 80.4958 45.4515L81.1423 45.6383C88.2544 47.621 94.059 51.0837 97.9311 55.6526C99.8851 57.9587 101.401 60.5952 102.874 63.1455C103.836 64.8265 104.835 66.565 105.941 68.167C107.572 70.5233 109.526 72.7288 111.422 74.8624C113.542 77.2475 115.733 79.7187 117.529 82.463C119.375 85.2719 119.964 87.6569 119.332 89.7403C118.707 91.8092 116.925 93.4543 113.887 94.769C109.986 96.4428 105.797 97.2546 101.616 97.2546Z" fill="#703627"/>
</g>
<path d="M61.681 26.8526C61.6739 26.0911 61.4655 25.3224 61.0273 24.6974C59.9856 23.1888 58.4627 23.2175 57.0187 23.1888C55.9124 23.1672 54.7486 23.0882 53.9009 22.2764C53.4986 21.8885 53.2543 21.3354 53.319 20.7822C53.4411 19.7405 54.4325 19.3239 55.3161 19.0078C56.2356 18.6773 57.1552 18.354 58.0747 18.0236C58.7428 17.7865 59.4612 17.5063 59.806 16.8885C60.1652 16.2635 60.0144 15.4805 59.8563 14.7764C59.6408 13.7851 59.4181 12.7937 59.1954 11.8023C59.0805 11.2923 58.9655 10.7678 59.0158 10.2506C59.0589 9.72617 59.2816 9.19456 59.7198 8.9072C60.2012 8.59829 60.8333 8.63421 61.3578 8.8641C61.8822 9.0868 62.306 9.48191 62.7299 9.86266C63.5201 10.5954 64.3175 11.321 65.1078 12.0466C65.6178 12.5063 66.1566 12.9877 66.8247 13.1385C67.6078 13.3109 68.4267 12.9805 69.102 12.5351C69.7701 12.0825 70.3592 11.515 71.056 11.1055C71.5589 10.8038 72.1193 10.6026 72.6796 10.502C74.0374 10.2578 75.2371 11.5078 74.8563 12.8368C74.7988 13.0451 74.7198 13.2535 74.6264 13.4474C74.2026 14.3526 73.5345 15.1141 73.0101 15.969C72.4928 16.8239 72.1264 17.8583 72.3994 18.8138C72.5934 19.4819 73.0747 20.0279 73.5417 20.5451C74.3606 21.4503 75.1796 22.3626 75.9986 23.275C76.5086 23.8354 77.0546 24.5322 76.8822 25.2721C76.7816 25.7391 76.4009 26.0983 75.9626 26.2922C75.5316 26.479 75.0503 26.5149 74.5761 26.5078C73.3908 26.4934 72.2055 26.2348 71.1279 25.7463C70.3664 25.4014 69.5187 24.9417 68.75 25.2649C68.3118 25.4517 68.0172 25.854 67.7514 26.2491C66.6595 27.8727 66.4655 30.3296 65.2658 31.6299C65.1221 31.7951 64.9425 31.9172 64.7342 31.9963C64.2026 32.1759 63.5632 32.1759 62.8017 31.5221C61.9468 30.775 61.717 29.3167 61.681 26.8526Z" fill="#FFCF00"/>
<path d="M64.1524 33.0884C63.4627 33.0884 62.7874 32.8083 62.1552 32.2695C60.9843 31.2494 60.7328 29.518 60.6969 26.8672C60.6897 26.2637 60.5173 25.6962 60.2156 25.258C59.5331 24.2738 58.6136 24.2091 57.1553 24.1804H56.9972C55.7472 24.1517 54.3176 24.0367 53.2185 22.9951C52.5719 22.3701 52.2415 21.5008 52.3349 20.6675C52.5432 18.9505 54.1883 18.3614 54.9857 18.0741L57.7443 17.0899C58.2616 16.9103 58.7788 16.702 58.944 16.4074C59.1236 16.0985 59.0159 15.5382 58.8938 14.9922L58.2328 12.0181C58.1107 11.4649 57.9742 10.8399 58.0245 10.1646C58.1035 9.26662 58.5274 8.50513 59.1811 8.07409C59.8995 7.60714 60.8621 7.56403 61.7529 7.95196C62.4282 8.25369 62.9455 8.72064 63.3981 9.13731L65.7759 11.314C66.1639 11.6732 66.6093 12.0755 67.0331 12.1689C67.5791 12.291 68.2185 11.9318 68.5561 11.7091C68.8219 11.5295 69.0733 11.3284 69.332 11.1272C69.7127 10.8255 70.1006 10.5166 70.5532 10.2508C71.1495 9.8988 71.8248 9.65455 72.5072 9.53242C73.4986 9.35283 74.4972 9.69765 75.1797 10.4448C75.8406 11.1775 76.0705 12.1689 75.8047 13.11C75.7328 13.3686 75.6322 13.6272 75.5245 13.8643C75.2228 14.5037 74.8348 15.0497 74.4613 15.5813C74.2529 15.8758 74.0446 16.1775 73.8578 16.4864C73.513 17.0468 73.1538 17.8514 73.3478 18.541C73.4843 19.008 73.8866 19.4534 74.2745 19.8844L76.7314 22.6143C77.1912 23.1244 78.1466 24.1804 77.8449 25.495C77.6797 26.2278 77.1265 26.8672 76.3578 27.1976C75.7185 27.4778 75.0647 27.5065 74.5618 27.4994C73.2472 27.4778 71.9182 27.1904 70.7185 26.6517L70.4958 26.5439C69.9929 26.314 69.4325 26.0554 69.138 26.1775C68.9297 26.2637 68.6998 26.6157 68.5705 26.8025C68.1466 27.4347 67.8664 28.2609 67.5719 29.1301C67.184 30.2723 66.7889 31.4433 65.9915 32.3054C65.7256 32.5927 65.4096 32.8083 65.0647 32.9304C64.7558 33.031 64.4541 33.0884 64.1524 33.0884ZM62.6725 26.8384C62.7012 29.1804 62.9311 30.3226 63.4483 30.7752C63.9584 31.2134 64.2458 31.12 64.411 31.0626C64.4613 31.041 64.5116 30.9979 64.5403 30.962C65.0504 30.4088 65.3665 29.4821 65.6969 28.4979C66.0274 27.5353 66.3578 26.5511 66.9325 25.6962C67.1768 25.337 67.6222 24.6689 68.3693 24.36C69.4613 23.893 70.5317 24.3887 71.3147 24.7479L71.5302 24.8413C72.4857 25.2724 73.5417 25.5094 74.5834 25.5166C74.8851 25.5238 75.2802 25.5094 75.5748 25.3801C75.7759 25.2939 75.8981 25.1502 75.9196 25.0568C75.9914 24.7407 75.4455 24.1373 75.2659 23.9361L72.809 21.2063C72.3205 20.6675 71.717 19.9922 71.4512 19.0942C71.1351 18.0022 71.3866 16.7451 72.1696 15.452C72.3779 15.1071 72.615 14.7695 72.8521 14.439C73.1897 13.9577 73.513 13.5051 73.7357 13.031C73.8004 12.8801 73.8578 12.7221 73.9081 12.564C74.0159 12.1833 73.8363 11.9031 73.7141 11.7738C73.4914 11.5295 73.1754 11.4218 72.8521 11.4793C72.3995 11.5583 71.9469 11.7235 71.5518 11.9606C71.2213 12.1545 70.8981 12.4132 70.5532 12.679C70.2587 12.916 69.9641 13.1459 69.6481 13.3543C68.6064 14.0511 67.5575 14.3097 66.6093 14.1014C65.6682 13.8931 64.957 13.2465 64.4469 12.7795L62.0619 10.5956C61.7098 10.2724 61.3363 9.93472 60.9627 9.76949C60.6969 9.65455 60.4096 9.64018 60.2587 9.73357C60.1222 9.82696 60.0216 10.064 60.0001 10.3298C59.9642 10.7106 60.0575 11.1344 60.1581 11.587L60.819 14.5612C60.9771 15.2436 61.2285 16.3859 60.6682 17.3772C60.1222 18.3471 59.0518 18.7278 58.4053 18.9577L55.6466 19.9419C54.6984 20.2795 54.3463 20.531 54.3032 20.8974C54.2745 21.1129 54.3823 21.3715 54.5834 21.5655C55.1653 22.1186 56.0777 22.1833 57.0403 22.2048H57.1912C58.6926 22.2336 60.5461 22.2695 61.8392 24.1373C62.3708 24.8988 62.6581 25.8327 62.6725 26.8384Z" fill="#703627"/>
</svg>
