<svg width="98" height="81" viewBox="0 0 98 81" fill="none" xmlns="http://www.w3.org/2000/svg">
<path d="M54.198 5.34885C53.823 4.64052 52.3074 3.89052 51.7605 3.30718C51.2188 2.72385 49.5521 3.15614 48.7605 3.1301C47.9376 3.10406 47.1719 2.92698 46.4844 3.37489C45.4688 4.03114 44.5053 5.38531 43.8021 6.36968C43.0938 7.35406 43.4376 7.59364 43.5886 8.79677C43.7396 9.99989 45.1459 12.7186 46.2917 13.0989C44.8021 14.5884 45.1928 14.453 44.9844 15.1145C42.6199 14.2759 39.8542 12.9686 37.6771 14.1978C34.1667 16.1718 34.2969 19.1405 35.4167 21.3853C36.5313 23.6249 38.0521 24.9478 40.5417 24.7447C38.7188 29.5676 38.0365 35.7811 38.2449 41.2811C36.573 41.0936 34.849 40.9061 33.2449 41.4009C31.6407 41.9009 30.1719 43.2603 30.099 44.9478C30.0365 46.5051 31.1303 47.8645 32.2865 48.9114C34.099 50.5468 36.2292 51.8332 38.6459 52.4374C38.6251 53.953 38.823 55.4634 39.1615 57.3332C37.3282 58.0936 35.4792 58.8593 33.8334 59.9634C32.1824 61.0676 30.724 62.5468 29.9688 64.3905C29.0678 66.5936 29.2813 69.2239 30.5261 71.2447C31.6146 73.0103 33.3907 74.2603 35.3074 75.0259C37.224 75.7916 40.073 75.578 42.1251 75.802C45.6146 76.1822 47.5782 76.1145 51.224 75.7343C53.3907 77.3697 55.6199 79.0364 58.2188 79.8228C60.7917 80.5989 63.5365 80.453 66.2188 80.302C69.5938 80.1093 73.0157 79.9061 76.224 78.8384C79.0209 77.9009 81.5782 76.328 83.8751 74.4739C86.5053 72.3489 88.8386 69.8228 90.5209 66.8853C92.2032 63.9478 93.2084 60.5832 93.0105 57.203C93.6094 50.0468 92.4324 42.7447 89.3178 35.9739C93.5417 32.7916 96.0678 27.5207 96.1407 22.2186C96.2188 16.9114 93.9167 11.6614 89.9271 8.24989C87.7084 6.16135 85.099 4.48948 82.2761 3.34885C80.3542 2.57281 78.3386 2.03635 76.2865 1.70823C68.3178 0.432185 62.1771 1.44781 54.198 5.34885Z" fill="#DDA783"/>
<path d="M55.323 63.7709C54.7084 59.547 53.6772 55.3803 52.2605 51.3542C51.1355 48.1615 49.7032 44.9584 47.2397 42.6407C44.7761 40.323 41.0782 39.0678 37.9167 40.4897C38.0053 46.5782 38.099 52.7501 39.7917 58.5938C41.4845 64.4324 44.9949 70.0105 50.3647 72.8282C49.922 69.0313 52.0209 65.0678 55.323 63.7709Z" fill="#FFDCC4"/>
<path d="M42.9636 25.7447C40.8229 25.7447 38.9948 25.3228 37.5052 24.4895C35.3021 23.2551 33.8906 21.0103 33.9115 18.7812C33.9271 16.6093 35.3229 14.4739 37.3802 13.4635C39.2448 12.5468 41.5886 12.5364 43.6563 13.4322C45.4584 14.2135 47.0886 15.6926 48.2396 17.5937C48.4688 17.9635 48.349 18.4478 47.9792 18.6718C47.6094 18.901 47.1302 18.7812 46.9011 18.4114C45.9167 16.7864 44.5417 15.5312 43.0313 14.8801C41.3854 14.1614 39.5261 14.1614 38.0677 14.8801C36.5313 15.6301 35.4896 17.2031 35.4792 18.7916C35.4636 20.4583 36.5625 22.1562 38.2709 23.1145C39.7188 23.927 41.6042 24.276 43.875 24.1458C44.3073 24.1197 44.6823 24.4531 44.7031 24.8853C44.7292 25.3176 44.4011 25.6926 43.9688 25.7187C43.625 25.7343 43.2917 25.7447 42.9636 25.7447Z" fill="#703627"/>
<path d="M45.323 20.7135C45.0678 20.7135 44.8126 20.5833 44.6616 20.3437C43.448 18.4166 40.9584 17.3802 38.7397 17.8906C38.3178 17.9895 37.8959 17.7239 37.8022 17.2968C37.7032 16.875 37.9689 16.4531 38.3907 16.3541C41.2345 15.7031 44.4272 17.026 45.9845 19.5052C46.2189 19.8697 46.1095 20.3593 45.7449 20.5885C45.6147 20.6718 45.4689 20.7135 45.323 20.7135Z" fill="#703627"/>
<path d="M46.3074 13.5521C46.1407 13.5521 45.9689 13.5 45.8282 13.3855L45.698 13.2865C45.323 13 44.9741 12.724 44.6199 12.3177C42.9584 10.4115 42.3751 7.82296 43.1407 5.724C43.8803 3.68754 45.9064 2.14587 48.1824 1.88546C50.2449 1.65108 52.4584 2.43233 54.1043 3.96879C54.5366 4.37504 54.8126 4.76046 55.0261 5.26046C55.1928 5.65629 55.0105 6.11983 54.6095 6.29171C54.2136 6.46358 53.7553 6.28129 53.5834 5.88025C53.4532 5.57817 53.3126 5.38025 53.0366 5.12504C51.7189 3.89587 49.9689 3.27087 48.3595 3.45316C46.6616 3.64587 45.1511 4.77608 44.6095 6.26567C44.0418 7.82817 44.5053 9.79691 45.797 11.2813C46.0522 11.573 46.3178 11.7813 46.6564 12.0417L46.7918 12.1459C47.1303 12.4115 47.1928 12.9063 46.9272 13.25C46.7709 13.448 46.5418 13.5521 46.3074 13.5521Z" fill="#703627"/>
<path d="M62.3074 79.5417C62.6095 76.5104 62.7814 73.4219 62.1876 70.4323C61.5887 67.4427 60.1616 64.5313 57.6303 62.9375C54.4428 63.9167 51.7605 66.5885 51.0418 69.8542C50.3283 73.1198 51.771 76.8281 54.6564 78.5052C56.771 79.7344 59.3283 79.8229 62.3074 79.5417Z" fill="#B27966"/>
<mask id="mask0_52_3913" style="mask-type:luminance" maskUnits="userSpaceOnUse" x="48" y="35" width="48" height="46">
<path d="M48.6199 35.3333H95.2865V80.9999H48.6199V35.3333Z" fill="white"/>
</mask>
<g mask="url(#mask0_52_3913)">
<path d="M67.3908 80.9739C65.6199 80.9739 63.9428 80.8802 62.4637 80.7656C60.1616 80.5833 57.7293 80.3281 55.4637 79.3906C52.8908 78.3333 50.9533 76.4739 50.146 74.2916C48.698 70.3802 50.9949 66.0416 54.0105 63.7812C57.1251 61.4427 61.047 60.5885 64.5053 59.8385C64.9272 59.7448 65.3439 60.0156 65.4376 60.4375C65.5262 60.8646 65.2606 61.2864 64.8335 61.375C61.5314 62.0937 57.7918 62.9062 54.948 65.0416C52.4012 66.9531 50.4376 70.5573 51.6147 73.7396C52.271 75.5104 53.8908 77.0416 56.0574 77.9375C58.1147 78.7812 60.4116 79.0208 62.5835 79.1927C67.3491 79.5677 74.2553 79.7448 79.2605 76.9635C97.1043 67.0468 93.4481 49.1823 89.146 36.6041C89.0053 36.1927 89.2241 35.7448 89.6303 35.6041C90.0418 35.4635 90.4845 35.6823 90.6251 36.0937C95.1147 49.2083 98.896 67.8541 80.021 78.3385C76.2501 80.4375 71.5626 80.9739 67.3908 80.9739Z" fill="#703627"/>
</g>
<path d="M41.2917 75.328C41.599 72.2968 41.0469 70.0728 40.4532 67.0833C39.8594 64.0937 38.625 62.6666 36.6198 58.7239C33.4323 59.6978 30.75 62.3749 30.0313 65.6405C29.3178 68.9062 30.7605 72.6145 33.6459 74.2916C35.7605 75.5155 38.3178 75.6041 41.2917 75.328Z" fill="#B27966"/>
<path d="M45.0626 76.6459C43.6407 76.6459 42.3282 76.6198 41.448 76.5469C39.1511 76.3698 36.7188 76.1146 34.448 75.1771C31.8803 74.1198 29.9428 72.2605 29.1355 70.0782C27.6876 66.1667 29.9844 61.8282 33.0001 59.5677C34.6303 58.3386 37.5626 57.1146 39.1355 56.5886C39.5469 56.4532 39.9896 56.6771 40.1251 57.0886C40.2605 57.5 40.0417 57.948 39.6303 58.0834C37.849 58.6771 35.2501 59.8438 33.9376 60.8282C31.3907 62.7396 29.4271 66.3438 30.6042 69.5261C31.2605 71.2969 32.8803 72.8282 35.0469 73.7188C37.1042 74.5677 39.3959 74.8073 41.573 74.9792C43.8646 75.1563 49.4271 75.0313 51.7657 74.9167C52.1928 74.8959 52.5678 75.2292 52.5886 75.6615C52.6094 76.099 52.2761 76.4688 51.8438 76.4896C50.3021 76.5677 47.5105 76.6459 45.0626 76.6459Z" fill="#703627"/>
<path d="M33.5313 49.7032C34.8334 48.9011 35.6302 47.4323 35.9219 45.9271C36.2188 44.4167 36.0625 42.8594 35.8073 41.3438C34.4532 41.2448 32.9532 41.1823 31.8907 42.0365C31.3698 42.4584 31.0209 43.0625 30.8125 43.698C30.4323 44.849 30.5105 46.1459 31.0209 47.25C31.5313 48.349 32.4688 49.2396 33.5313 49.7032Z" fill="#B27966"/>
<path d="M38.1042 53.0833C38 53.0833 37.8907 53.0572 37.7865 53.0156C36.1094 52.2656 32.2657 50.1822 30.9844 48.7656C29.724 47.3697 28.875 44.9635 29.9844 42.9843C30.6146 41.8593 31.8386 41.0156 33.3386 40.677C34.2917 40.4635 35.8698 40.5677 38.1719 40.9947C38.5938 41.0729 38.875 41.4843 38.7969 41.9114C38.7188 42.3385 38.3125 42.6197 37.8855 42.5416C35.1875 42.0416 34.0938 42.1249 33.6823 42.2187C32.6146 42.4583 31.7657 43.0156 31.349 43.7552C30.6563 44.9999 31.224 46.6822 32.1459 47.7031C33.2032 48.8802 36.7969 50.8489 38.4219 51.5729C38.8177 51.7499 39 52.2135 38.823 52.6145C38.6927 52.9062 38.4063 53.0833 38.1042 53.0833Z" fill="#703627"/>
<path d="M63.7709 23.8697C63.7709 24.151 63.7136 24.4218 63.6095 24.6822C63.5001 24.9426 63.349 25.1666 63.1511 25.3697C62.9532 25.5676 62.724 25.7187 62.4688 25.828C62.2084 25.9322 61.9428 25.9895 61.6615 25.9895C61.3803 25.9895 61.1147 25.9322 60.8542 25.828C60.599 25.7187 60.3699 25.5676 60.172 25.3697C59.974 25.1666 59.823 24.9426 59.7136 24.6822C59.6095 24.4218 59.5574 24.151 59.5574 23.8697C59.5574 23.5885 59.6095 23.3176 59.7136 23.0624C59.823 22.802 59.974 22.5728 60.172 22.3749C60.3699 22.177 60.599 22.0208 60.8542 21.9166C61.1147 21.8072 61.3803 21.7551 61.6615 21.7551C61.9428 21.7551 62.2084 21.8072 62.4688 21.9166C62.724 22.0208 62.9532 22.177 63.1511 22.3749C63.349 22.5728 63.5001 22.802 63.6095 23.0624C63.7136 23.3176 63.7709 23.5885 63.7709 23.8697Z" fill="#DD917A"/>
<path d="M64.8906 17.4115C64.1146 18.0313 63.3021 18.7032 63.0104 19.6511C62.9063 19.9844 62.8854 20.3646 63.0781 20.6511C63.2813 20.9532 63.6823 21.0625 64.0417 21.0157C64.3958 20.9688 64.724 20.7969 65.0365 20.6146C65.724 20.2292 66.3958 19.8125 67.0156 19.3282C67.375 19.0469 67.724 18.7344 67.9271 18.3282C68.1354 17.9167 68.1719 17.3959 67.9167 17.0209C67.6354 16.6094 67.0729 16.4636 66.5833 16.5417C66.0938 16.6146 65.6146 16.8334 64.8906 17.4115Z" fill="#703627"/>
<path d="M82.625 8.23949C80.9844 8.91658 79.375 9.71345 78.0156 10.8593C76.6563 12.0051 75.5625 13.526 75.1771 15.2655C74.7292 17.276 75.2552 19.3749 75.9375 21.3228C76.6719 23.4166 77.5938 25.4582 78.8125 27.3124C79.5209 28.3853 80.3594 29.4322 81.5156 29.9895C83.4271 30.9218 85.6927 30.3228 87.7292 29.7135C89.6771 29.1301 91.6511 28.5312 93.3906 27.4739C95.125 26.4166 95.6354 25.8437 96.1563 23.8697C96.5209 22.5103 96.4531 19.401 96.1459 18.026C95.4844 15.1041 94.8438 13.8957 93.125 11.4478C92.2604 10.2135 91.3802 8.14053 90.0052 7.53116C87.9844 6.64053 85.5573 7.03637 82.625 8.23949Z" fill="#B27966"/>
<path d="M87.1043 11.4324C86.9688 11.9897 87.0157 12.5938 87.2449 13.1199C87.3438 13.3386 87.5105 13.5678 87.7449 13.5678C87.974 13.5626 88.1355 13.3438 88.2553 13.1511C88.5209 12.7345 88.7813 12.3074 88.9168 11.8334C89.0418 11.3907 89.0157 10.8438 88.6563 10.5574C88.3855 10.3438 87.974 10.3438 87.672 10.5209C87.3751 10.698 87.2084 11.0261 87.1043 11.4324Z" fill="#703627"/>
<path d="M80.6459 14.3541C81.1511 14.6198 81.5678 15.0573 81.8074 15.5781C81.9063 15.7969 81.9688 16.0729 81.8074 16.25C81.6563 16.4219 81.3855 16.3958 81.1616 16.3594C80.6772 16.276 80.1824 16.1927 79.7397 15.9791C79.3282 15.7812 78.9376 15.401 78.9636 14.9375C78.9845 14.5885 79.2553 14.2864 79.5886 14.1771C79.922 14.0677 80.2761 14.1614 80.6459 14.3541Z" fill="#703627"/>
<path d="M90.2344 23.9791C89.474 23.9791 88.6667 23.7031 87.9688 23.1666L87.8542 23.0729L87.4323 22.1458C86.6928 20.5208 85.9584 18.901 85.2917 17.4739C85.1511 17.177 85.2761 16.8229 85.573 16.6875C85.8698 16.5468 86.2188 16.677 86.3542 16.9687C87.0209 18.4062 87.7605 20.026 88.5001 21.6562L88.7969 22.3073C89.5365 22.8229 90.4167 22.9427 91.0313 22.6041C91.6771 22.2448 92.0573 21.3541 91.9792 20.3906C91.9532 20.0625 92.198 19.7812 92.5209 19.7552C92.8386 19.7239 93.1251 19.9687 93.1511 20.2968C93.2657 21.7395 92.6563 23.052 91.599 23.6406C91.1876 23.8698 90.7188 23.9791 90.2344 23.9791Z" fill="#703627"/>
<path d="M85.9064 25.7189C84.9168 25.7189 83.8595 25.2293 83.0522 24.3751C82.8334 24.1408 82.8439 23.7658 83.0782 23.5418C83.3126 23.3178 83.6876 23.3283 83.9116 23.5678C84.6095 24.3074 85.5782 24.6772 86.3178 24.4845C87.0366 24.297 87.5522 23.5887 87.6355 22.6824C87.6668 22.3595 87.948 22.1199 88.2762 22.1512C88.5991 22.1772 88.8387 22.4689 88.8074 22.7918C88.6772 24.2033 87.8178 25.3178 86.6147 25.6303C86.3855 25.6876 86.1512 25.7189 85.9064 25.7189Z" fill="#703627"/>
<path d="M50.6355 73.9271C50.5053 73.9271 50.3751 73.8959 50.2553 73.8282C44.9063 70.8698 41.0417 66.0782 39.3803 60.3386C36.9376 51.9011 35.9949 37.1771 39.6928 24.7761C39.8178 24.3594 40.2605 24.1198 40.6719 24.2448C41.0834 24.3698 41.323 24.8073 41.198 25.224C37.5886 37.323 38.5053 51.6771 40.8855 59.8959C42.4324 65.2344 46.0261 69.6927 51.0105 72.448C51.3907 72.6563 51.5313 73.1355 51.323 73.5157C51.1772 73.7761 50.9115 73.9271 50.6355 73.9271Z" fill="#703627"/>
<mask id="mask1_52_3913" style="mask-type:luminance" maskUnits="userSpaceOnUse" x="43" y="0" width="55" height="44">
<path d="M43.2865 0H97.9532V43.3333H43.2865V0Z" fill="white"/>
</mask>
<g mask="url(#mask1_52_3913)">
<path d="M75.2917 43.224C74.9011 43.224 74.5626 42.9271 74.5157 42.5261C74.4636 42.0938 74.7761 41.7032 75.2032 41.6511C80.7865 41 85.8751 38.7032 89.5365 35.1771C93.4949 31.3646 95.724 26.0469 95.5001 20.9532C95.2813 15.9323 92.6459 10.8594 88.4532 7.38546C84.599 4.19796 79.4115 2.25525 73.849 1.91671C68.8334 1.61463 63.5626 2.51567 58.1824 4.58858C51.8803 7.02088 47.8074 11.8282 45.4949 15.4323C45.2605 15.7969 44.7761 15.9011 44.4115 15.6667C44.0469 15.4323 43.9428 14.9427 44.1771 14.5782C46.6146 10.7761 50.9219 5.70317 57.6199 3.11983C63.2136 0.963583 68.7032 0.0312932 73.9428 0.343792C79.8386 0.703168 85.3438 2.77088 89.4532 6.17192C93.9792 9.92192 96.8282 15.4219 97.0678 20.8855C97.3074 26.4219 94.9011 32.1875 90.6199 36.3125C86.7188 40.0782 81.3074 42.5261 75.3855 43.2188C75.3542 43.2188 75.323 43.224 75.2917 43.224Z" fill="#703627"/>
</g>
<path d="M82.9792 51.927C82.5938 51.927 82.2605 51.6458 82.2032 51.2551L81.3334 45.276C81.2709 44.8437 81.5625 44.4426 81.9948 44.3801C82.4219 44.3176 82.8178 44.6145 82.8803 45.0468L83.7553 51.026C83.8178 51.4583 83.5209 51.8541 83.0938 51.9218C83.0573 51.927 83.0157 51.927 82.9792 51.927Z" fill="#C48C71"/>
<path d="M87.948 49.4585C87.5417 49.4585 87.198 49.146 87.1667 48.7345L86.7709 43.5522C86.7396 43.1147 87.0626 42.7397 87.4948 42.7033C87.9167 42.672 88.3021 42.9949 88.3334 43.4324L88.7344 48.6147C88.7657 49.047 88.4428 49.4272 88.0105 49.4585C87.9896 49.4585 87.9688 49.4585 87.948 49.4585Z" fill="#C48C71"/>
<path d="M86.125 60.9427C86.099 60.9427 86.0677 60.9427 86.0417 60.9375C85.6094 60.8906 85.2969 60.5 85.3438 60.0677L85.9011 54.8854C85.9479 54.4531 86.3386 54.1406 86.7656 54.1875C87.1927 54.2344 87.5052 54.625 87.4583 55.0573L86.9063 60.2396C86.8594 60.6406 86.5208 60.9427 86.125 60.9427Z" fill="#C48C71"/>
<path d="M74.3802 7.12493C74.1927 7.12493 74.0104 7.05723 73.8593 6.92702L71.0833 4.45306C70.7552 4.1666 70.7291 3.6666 71.0156 3.34368C71.302 3.01556 71.7968 2.98431 72.1197 3.27597L74.901 5.74472C75.2239 6.03639 75.2552 6.53118 74.9635 6.85931C74.8125 7.03118 74.5937 7.12493 74.3802 7.12493Z" fill="#C48C71"/>
<path d="M67.7917 9.11459C67.6458 9.11459 67.5052 9.07813 67.375 8.9948L62.849 6.12501C62.4844 5.89063 62.375 5.40626 62.6042 5.03646C62.8385 4.67188 63.3229 4.56251 63.6875 4.79167L68.2135 7.66146C68.5781 7.89584 68.6875 8.38021 68.4531 8.75001C68.3073 8.98438 68.0521 9.11459 67.7917 9.11459Z" fill="#C48C71"/>
<path d="M15.6458 77.677C16.4948 78.651 17.8021 79.0155 19.0937 79.2655C21.8541 79.802 24.776 80.0676 27.9218 80.0676C29.7083 80.0676 31.5677 79.9791 33.5156 79.8072C34.6041 79.7135 35.6562 79.5885 36.6406 79.151C37.7708 78.6405 38.5989 77.7395 38.8385 76.7291C39.2291 75.1249 38.4687 74.0624 37.5937 73.151C35.9062 71.4114 33.5781 70.302 31.1718 70.0937C31.2239 70.2968 31.276 70.5051 31.3385 70.703C31.5885 71.4999 31.9375 72.2447 32.3437 72.828C32.375 72.8801 32.3958 72.9374 32.3958 72.9895C32.1146 72.8749 31.8281 72.7708 31.5416 72.6718C28.9687 71.8124 26.1614 71.578 23.4791 71.9999C23.2031 72.0416 22.9323 72.0885 22.6614 72.1458C23.0833 71.578 23.3958 70.9374 23.5885 70.2603C23.651 70.0572 23.6979 69.8541 23.7343 69.6458C23.6146 69.6614 23.4896 69.6718 23.3593 69.6874C21.901 69.8437 19.901 70.0572 18.7031 70.5155C17.1458 71.1041 15.9375 72.0989 15.3073 73.3124C14.5416 74.7655 14.6823 76.5624 15.6458 77.677Z" fill="#F57E82"/>
<mask id="mask2_52_3913" style="mask-type:luminance" maskUnits="userSpaceOnUse" x="13" y="68" width="28" height="14">
<path d="M13.9531 68.6667H40.6198V81.0001H13.9531V68.6667Z" fill="white"/>
</mask>
<g mask="url(#mask2_52_3913)">
<path d="M27.9218 80.8542C24.7083 80.8542 21.7708 80.5886 18.9427 80.0365C17.5208 79.7657 16.0625 79.349 15.0573 78.1928C13.8854 76.8386 13.7031 74.6771 14.6093 72.9428C15.3333 71.5626 16.6875 70.4376 18.4218 69.7761C19.7135 69.2865 21.7656 69.0678 23.2604 68.9063L23.6562 68.8646C23.901 68.8386 24.1406 68.9324 24.3073 69.1094C24.4739 69.2917 24.5468 69.5417 24.5052 69.7813C24.4635 70.0157 24.4114 70.2553 24.3437 70.4844C24.2812 70.698 24.2083 70.9115 24.1302 71.1146C26.3698 70.8646 28.6614 71.0417 30.8333 71.6355C30.7448 71.4115 30.6666 71.1771 30.5885 70.9428C30.5208 70.7188 30.4635 70.5001 30.4114 70.2813C30.3489 70.0313 30.4114 69.7709 30.5729 69.5782C30.7396 69.3855 30.9843 69.2865 31.2396 69.3074C33.8229 69.5313 36.3437 70.7344 38.1562 72.6042C39.1406 73.6251 40.0833 74.9376 39.6041 76.9167C39.3021 78.1563 38.3125 79.2605 36.9583 79.8699C35.8646 80.3594 34.7396 80.4896 33.5833 80.5938C31.625 80.7657 29.7187 80.8542 27.9218 80.8542ZM16.2396 77.1563C16.9323 77.9532 18.0937 78.2709 19.2396 78.4896C23.5052 79.323 28.1198 79.4949 33.4479 79.0261C34.4635 78.9324 35.4479 78.823 36.3229 78.4324C37.2343 78.0209 37.8906 77.3178 38.0781 76.5417C38.3593 75.3751 37.8854 74.5886 37.026 73.698C35.7604 72.3855 34.0781 71.4584 32.2968 71.0626C32.4896 71.5521 32.7291 72.0105 32.9843 72.3803C33.1093 72.5678 33.1718 72.7553 33.1771 72.9532C33.1927 73.2188 33.0677 73.474 32.8489 73.6303C32.6354 73.7865 32.3541 73.823 32.1041 73.724C31.8333 73.6146 31.5625 73.5105 31.2864 73.4167C28.8541 72.6042 26.2187 72.3751 23.6614 72.7657C23.6406 72.7709 23.6146 72.7761 23.5885 72.7813C23.3333 72.8178 23.0729 72.8646 22.8177 72.9167C22.5 72.9844 22.1718 72.849 22 72.5678C21.8229 72.2917 21.8385 71.9376 22.0312 71.6719C22.2916 71.3334 22.5 70.9584 22.6614 70.5574C21.375 70.7032 19.8906 70.9063 18.9791 71.2501C17.6041 71.7761 16.5468 72.6355 16 73.6771C15.3854 74.849 15.4843 76.2813 16.2396 77.1563Z" fill="#703627"/>
</g>
<path d="M5.45837 48.8074C6.74483 54.9636 10.6407 60.198 15.9688 63.3699C16.073 63.2084 16.1875 63.047 16.3177 62.8855C17.625 61.2709 20.1459 59.8438 22.1563 59.6772C22.9167 59.6147 23.6927 59.6095 24.448 59.6042C25.7969 59.5886 27.1928 59.5834 28.4948 59.2397C30.3907 58.7397 32.3542 57.1355 32.2709 55.1303C32.2605 54.8542 32.2136 54.5678 32.1615 54.2657C32.0469 53.5938 31.9323 52.8959 32.2396 52.2397C32.6771 51.3074 33.7865 50.9532 34.6719 50.9376C37.2552 50.8907 39.4011 52.8751 40.3855 54.8751C41.3073 56.7397 41.5625 59.1042 41.6407 61.3022C41.6511 61.547 41.6563 61.7917 41.6615 62.0313C47.1146 57.9636 50.6355 51.5522 50.6355 44.3542C50.6355 43.047 50.6355 42.1251 50.2917 40.5157C50.2188 41.0626 50.0938 41.5834 49.9167 42.0782C49.3282 43.724 48.1771 45.047 46.6198 45.7865C45.8177 46.1667 44.974 46.3542 44.1563 46.3542C43.099 46.3542 42.0886 46.0365 41.2605 45.4167C40.4688 44.8178 40.5052 43.7292 40.599 43.1355C40.7084 42.4063 40.9167 41.6824 41.1146 40.974C41.5521 39.4324 41.9636 37.974 41.448 36.599C41.0052 35.4272 39.948 34.5834 38.9323 33.7709C38.7917 33.6615 38.6511 33.5522 38.5157 33.4376C37.4584 32.5782 36.2657 31.6095 36.2761 29.8803C36.2917 27.9063 38.2917 26.5938 39.5417 25.9636C39.7969 25.8386 40.0261 25.7397 40.1927 25.6667C36.625 23.4115 32.375 22.1042 27.8177 22.1042C17.9636 22.1042 8.92191 28.0574 6.36462 36.7813C6.724 36.3074 7.15629 35.8126 7.57296 35.4272C7.68754 35.323 7.80212 35.224 7.9115 35.1407C8.77087 34.4532 9.83858 34.2188 10.6927 34.5313C11.1771 34.7032 11.5573 35.0209 11.9271 35.3334C12.224 35.5782 12.5 35.8074 12.8125 35.9584C13.6667 36.3699 14.8438 36.1876 15.9636 35.4688C16.4532 35.1563 16.9167 34.7709 17.3594 34.4011C17.8334 34.0053 18.3282 33.599 18.8646 33.2553C21.724 31.4636 25.7552 32.0053 28.0417 34.4949C28.9011 35.4272 29.6146 36.8959 29.0365 38.2084C28.9428 38.4324 28.8125 38.6303 28.6875 38.8282C28.5365 39.0678 28.3907 39.2917 28.3177 39.5365C28.073 40.3907 28.7761 41.2449 29.0886 41.573C29.2813 41.7761 29.5052 41.974 29.7136 42.1667C30.1459 42.5574 30.5886 42.9584 30.9167 43.474C31.9688 45.1355 31.3542 47.323 30.3334 48.6511C29.224 50.1042 27.474 51.0834 25.6615 51.2657C25.4428 51.2865 25.224 51.3022 25.0052 51.3022C23.3959 51.3022 21.7709 50.7032 20.5521 49.6563C20.3438 49.474 20.1459 49.2761 19.9532 49.0886C19.4584 48.6042 18.9896 48.1459 18.3959 47.9272C17.724 47.6772 16.875 47.7553 16 48.1407C15.4323 48.3907 14.9115 48.7345 14.3594 49.099C14.1511 49.2345 13.9427 49.3699 13.7292 49.5001C12.0834 50.5313 10.573 51.0365 9.11983 51.0365C8.01567 51.0313 7.08337 50.6928 6.38025 50.0522C6.00525 49.7188 5.63025 49.3907 5.45837 48.8074Z" fill="#A5DBD3"/>
<path d="M15.9689 64.1562C15.8334 64.1562 15.6928 64.1198 15.5678 64.0469C9.95845 60.7083 5.9949 55.2135 4.69282 48.9688C4.60428 48.5521 4.85949 48.1458 5.27095 48.0417C5.6772 47.9375 6.09386 48.1771 6.21365 48.5885C6.30741 48.9219 6.51574 49.1198 6.8647 49.4375C7.47407 49.9844 8.21886 50.2448 9.1199 50.2448C10.422 50.2448 11.797 49.7865 13.3126 48.8333C13.5209 48.7031 13.7241 48.5729 13.9272 48.4375C14.4741 48.0781 15.0418 47.7031 15.6824 47.4167C16.7449 46.9479 17.8074 46.8698 18.6668 47.1875C19.4168 47.4635 19.9637 48 20.4949 48.5156C20.6876 48.7083 20.8751 48.8906 21.0678 49.0625C22.2814 50.1094 23.9793 50.6354 25.5887 50.4844C27.1824 50.3177 28.7293 49.4531 29.7137 48.1719C30.5991 47.0156 31.0678 45.1823 30.2553 43.8958C29.9845 43.4688 29.5834 43.1042 29.1928 42.7552C28.9637 42.5469 28.7293 42.3385 28.5262 42.1198C28.1147 41.6927 27.2032 40.5677 27.5678 39.3177C27.6668 38.9635 27.8543 38.6719 28.0209 38.4115C28.1355 38.2344 28.2449 38.0625 28.323 37.8906C28.7397 36.9271 28.1564 35.7813 27.4637 35.026C25.422 32.8073 21.8282 32.3229 19.2814 33.9271C18.7866 34.2396 18.3126 34.6302 17.8543 35.0104C17.448 35.3542 16.9376 35.7813 16.3907 36.1302C15.0314 37 13.5678 37.1979 12.4741 36.6667C12.073 36.474 11.7449 36.2031 11.4272 35.9375C11.0522 35.625 10.7657 35.3906 10.4272 35.2708C9.83345 35.0573 9.03657 35.2448 8.39595 35.7552C8.29699 35.8333 8.20324 35.9219 8.10428 36.0104C7.75011 36.3385 7.34907 36.7865 6.98449 37.2604C6.75532 37.5625 6.34386 37.6563 6.00532 37.4844C5.67199 37.3125 5.50532 36.9219 5.60949 36.5625C8.2449 27.5833 17.3751 21.3125 27.8178 21.3125C32.3751 21.3125 36.797 22.5885 40.6095 25C40.8595 25.1563 41.0001 25.4375 40.9741 25.7292C40.9532 26.0208 40.7657 26.276 40.5001 26.3906C40.3387 26.4583 40.1251 26.5573 39.8803 26.6719C38.8387 27.1979 37.073 28.3177 37.0626 29.8854C37.0522 31.2344 38.0001 32.0052 39.0105 32.8229L39.422 33.1562C40.4689 33.9948 41.6616 34.9427 42.1772 36.3177C42.7918 37.9427 42.323 39.5938 41.8699 41.1927C41.6668 41.901 41.4741 42.5938 41.3751 43.2552C41.3178 43.5938 41.2501 44.4219 41.7345 44.7865C42.9376 45.6979 44.7345 45.8073 46.2866 45.0729C47.6251 44.4375 48.6512 43.276 49.1772 41.8125C49.3387 41.3646 49.4532 40.8958 49.5157 40.4167C49.5678 40.0365 49.8803 39.7448 50.2605 39.7292C50.6355 39.7135 50.9793 39.9792 51.0574 40.3542C51.4168 42.0417 51.4168 43.0156 51.4168 44.3542C51.4168 51.5885 48.0314 58.2604 42.1303 62.6615C41.8959 62.8385 41.5834 62.8698 41.3178 62.7396C41.0574 62.6094 40.8855 62.3438 40.8803 62.0521L40.8595 61.3281C40.797 59.6042 40.6095 57.099 39.6824 55.224C38.8126 53.4531 36.948 51.6875 34.6876 51.724C34.0678 51.7344 33.2345 51.9688 32.948 52.5781C32.7449 53.0104 32.8387 53.5573 32.9324 54.1354C32.9845 54.4479 33.0418 54.7708 33.0522 55.099C33.1564 57.5156 30.8803 59.4271 28.6928 60C27.3074 60.3646 25.8803 60.375 24.4949 60.3906C23.7084 60.3958 22.948 60.401 22.2189 60.4635C20.4584 60.6042 18.1355 61.8906 16.9272 63.3854C16.8178 63.5208 16.7189 63.6615 16.6251 63.7969C16.4793 64.0313 16.2241 64.1562 15.9689 64.1562ZM7.00011 51.3854C8.58865 55.8333 11.6772 59.7031 15.7657 62.3229C17.2501 60.5365 19.948 59.0677 22.0887 58.8906C22.8803 58.8281 23.6668 58.8229 24.4324 58.8125C25.7657 58.8021 27.0991 58.7917 28.297 58.474C29.9168 58.0521 31.5522 56.6979 31.4897 55.1615C31.4793 54.9323 31.4324 54.6719 31.3907 54.3958C31.2657 53.6823 31.1199 52.7865 31.5262 51.9062C32.1251 50.6406 33.5366 50.1719 34.6564 50.1458C37.5574 50.0938 39.9949 52.3073 41.0887 54.526C42.0001 56.3698 42.2814 58.5677 42.3907 60.4427C47.1512 56.3646 49.8491 50.5833 49.8491 44.3542C49.8491 44.2188 49.8491 44.0885 49.8491 43.9635C49.1303 45.0625 48.1407 45.9375 46.9532 46.5C44.8803 47.4792 42.4637 47.3021 40.7918 46.0469C39.9584 45.4167 39.6199 44.3385 39.823 43.0156C39.9376 42.2552 40.1459 41.5156 40.3491 40.8021C40.7605 39.349 41.1407 38.0156 40.7137 36.875C40.3491 35.9063 39.3803 35.1354 38.4428 34.3906L38.0157 34.0469C36.948 33.1771 35.4793 31.9844 35.4949 29.875C35.5053 28.2604 36.5834 26.7604 38.547 25.6094C35.2762 23.8281 31.5939 22.8906 27.8178 22.8906C19.3074 22.8906 11.7397 27.3125 8.33345 33.9635C9.19803 33.5677 10.1459 33.4948 10.9584 33.7917C11.5834 34.0156 12.0522 34.4115 12.4324 34.7292C12.6928 34.9479 12.9272 35.1354 13.1512 35.25C13.7501 35.5365 14.6668 35.3698 15.547 34.8021C16.0053 34.5052 16.4793 34.1146 16.8543 33.7969C17.3543 33.3854 17.8647 32.9583 18.448 32.5885C21.6147 30.599 26.0834 31.2031 28.6147 33.9583C29.6407 35.0781 30.4845 36.8646 29.7553 38.526C29.6303 38.8125 29.4741 39.0573 29.3491 39.2552C29.2241 39.4479 29.1095 39.625 29.073 39.7604C28.9637 40.1354 29.3178 40.6771 29.6512 41.026C29.8334 41.2135 30.0418 41.401 30.2397 41.5833C30.6824 41.9844 31.1928 42.4427 31.5782 43.0521C32.8387 45.0365 32.1355 47.5938 30.9584 49.1302C29.7137 50.75 27.7657 51.8438 25.7397 52.0521C23.6772 52.25 21.5782 51.5781 20.0418 50.25C19.823 50.0573 19.6199 49.8594 19.4168 49.6667C18.948 49.2083 18.5626 48.8281 18.1251 48.6667C17.6512 48.4896 16.9949 48.5625 16.3178 48.8594C15.797 49.0938 15.2814 49.4323 14.7866 49.7552C14.573 49.8958 14.3595 50.0365 14.1407 50.1719C12.3699 51.2813 10.7241 51.8229 9.1199 51.8229C8.34907 51.8177 7.63032 51.6719 7.00011 51.3854Z" fill="#703627"/>
<path d="M5 44.3541C5 45.4895 5.08854 46.6093 5.26042 47.6979C5.31771 48.0729 5.38021 48.4427 5.45833 48.8073C5.69271 49.2968 6.00521 49.7187 6.38021 50.052C7.08333 50.6927 8.01562 51.0312 9.11979 51.0364C10.5729 51.0364 12.0833 50.5312 13.7292 49.5C13.9427 49.3698 14.151 49.2343 14.3594 49.0989C14.9115 48.7343 15.4323 48.3906 16 48.1406C16.875 47.7552 17.724 47.677 18.3958 47.927C18.9896 48.1458 19.4583 48.6041 19.9531 49.0885C20.1458 49.276 20.3438 49.4739 20.5521 49.6562C21.7708 50.7031 23.3958 51.302 25.0052 51.302C25.224 51.302 25.4427 51.2864 25.6615 51.2656C27.474 51.0833 29.224 50.1041 30.3333 48.651C31.3542 47.3229 31.9688 45.1354 30.9167 43.4739C30.5885 42.9583 30.1458 42.5573 29.7135 42.1666C29.5052 41.9739 29.2813 41.776 29.0885 41.5729C28.776 41.2448 28.0729 40.3906 28.3177 39.5364C28.3906 39.2916 28.5365 39.0677 28.6875 38.8281C28.8125 38.6302 28.9427 38.4323 29.0365 38.2083C29.6146 36.8958 28.901 35.427 28.0417 34.4948C25.7552 32.0052 21.724 31.4635 18.8646 33.2552C18.3281 33.5989 17.8333 34.0052 17.3594 34.401C16.9167 34.7708 16.4531 35.1562 15.9635 35.4687C14.8438 36.1875 13.6667 36.3698 12.8125 35.9583C12.5 35.8073 12.224 35.5781 11.9271 35.3333C11.5573 35.0208 11.1771 34.7031 10.6927 34.5312C9.83854 34.2187 8.77083 34.4531 7.91146 35.1406C7.80208 35.2239 7.6875 35.3229 7.57292 35.427C7.15625 35.8125 6.57292 36.177 6.36458 36.7812C6.36458 36.7812 6.36458 36.7812 6.36458 36.7864C6.21354 37.1875 6.07292 37.5885 5.95312 38C5.33333 40.0156 5 42.151 5 44.3541Z" fill="#C6E281"/>
<path d="M25.0052 52.0886C23.2031 52.0886 21.3958 51.4167 20.0417 50.2501C19.8229 50.0574 19.6198 49.8595 19.4167 49.6667C18.9479 49.2084 18.5625 48.8282 18.125 48.6667C17.651 48.4897 16.9948 48.5626 16.3177 48.8595C15.7969 49.0938 15.2813 49.4324 14.7865 49.7553C14.5729 49.8959 14.3594 50.0365 14.1406 50.172C12.3698 51.2813 10.724 51.823 9.11979 51.823C7.83333 51.8178 6.70833 51.4115 5.85417 50.6407C5.40104 50.2292 5.03125 49.7292 4.75 49.1459C4.72396 49.0886 4.70312 49.0313 4.69271 48.9688C4.61458 48.5886 4.54167 48.2084 4.48438 47.8178C4.30729 46.6772 4.21875 45.5105 4.21875 44.3542C4.21875 42.1042 4.54687 39.8907 5.20312 37.7709C5.32292 37.3595 5.46354 36.948 5.61458 36.5417C5.61979 36.5365 5.61979 36.5313 5.625 36.5261C5.85417 35.849 6.36458 35.4272 6.77083 35.0886C6.86458 35.0053 6.95833 34.9272 7.04167 34.849C7.17187 34.7292 7.30208 34.6199 7.42708 34.5209C8.49479 33.6667 9.84896 33.3855 10.9583 33.7917C11.5833 34.0157 12.0521 34.4115 12.4323 34.7292C12.6927 34.948 12.9219 35.1355 13.151 35.2501C13.75 35.5365 14.6667 35.3647 15.5469 34.8022C16.0052 34.5053 16.4792 34.1147 16.8542 33.797C17.3542 33.3855 17.8646 32.9584 18.4479 32.5886C21.6146 30.599 26.0833 31.2032 28.6146 33.9584C29.6406 35.0782 30.4844 36.8647 29.7552 38.5261C29.6302 38.8126 29.474 39.0574 29.349 39.2553C29.224 39.448 29.1094 39.6251 29.0729 39.7605C28.9635 40.1355 29.3177 40.6772 29.651 41.0261C29.8333 41.2136 30.0417 41.4011 30.2396 41.5834C30.6823 41.9845 31.1927 42.4428 31.5781 43.0522C32.8385 45.0365 32.1354 47.5938 30.9583 49.1303C29.7135 50.7501 27.7656 51.8438 25.7396 52.0522C25.4948 52.073 25.25 52.0886 25.0052 52.0886ZM17.5469 46.9949C17.9427 46.9949 18.3229 47.0626 18.6667 47.1876C19.4167 47.4636 19.9635 48.0001 20.4948 48.5157C20.6875 48.7084 20.875 48.8907 21.0677 49.0626C22.2812 50.1095 23.9792 50.6355 25.5885 50.4845C27.1823 50.3178 28.7292 49.4532 29.7135 48.172C30.599 47.0157 31.0677 45.1824 30.2552 43.8959C29.9844 43.4688 29.5833 43.1042 29.1927 42.7553C28.9635 42.547 28.7292 42.3386 28.526 42.1199C28.1146 41.6928 27.2031 40.5678 27.5677 39.3178C27.6667 38.9636 27.8542 38.672 28.0208 38.4115C28.1354 38.2345 28.2448 38.0626 28.3229 37.8907C28.7396 36.9272 28.1563 35.7813 27.4635 35.0261C25.4219 32.8074 21.8281 32.323 19.2812 33.9272C18.7865 34.2397 18.3125 34.6303 17.8542 35.0105C17.4479 35.3542 16.9375 35.7813 16.3906 36.1303C15.0313 37.0001 13.5677 37.198 12.474 36.6667C12.0729 36.474 11.7448 36.2032 11.4271 35.9376C11.0521 35.6251 10.7656 35.3907 10.4271 35.2709C9.83333 35.0574 9.03646 35.2449 8.39583 35.7553C8.29688 35.8334 8.20313 35.9167 8.10417 36.0105C8 36.1042 7.89063 36.198 7.77083 36.297C7.48438 36.5365 7.20833 36.7657 7.11458 37.0209C7.10938 37.0365 7.10417 37.0522 7.09375 37.0678C6.95312 37.448 6.82292 37.8334 6.70312 38.224C6.09375 40.2032 5.78646 42.2657 5.78646 44.3542C5.78646 45.4272 5.86979 46.5157 6.03646 47.5782C6.08333 47.9063 6.14063 48.2292 6.20833 48.547C6.39063 48.9063 6.625 49.2188 6.90104 49.4688C7.47396 49.9845 8.21875 50.2449 9.11979 50.2449C10.4219 50.2449 11.7969 49.7813 13.3125 48.8334C13.5208 48.7032 13.724 48.573 13.9271 48.4376C14.474 48.0782 15.0417 47.7032 15.6823 47.4167C16.3229 47.1407 16.9583 46.9949 17.5469 46.9949Z" fill="#703627"/>
<path d="M36.2761 29.8803C36.2657 31.6095 37.4584 32.5782 38.5157 33.4376C38.6511 33.5522 38.7917 33.6615 38.9323 33.7709C39.9479 34.5834 41.0052 35.4272 41.4479 36.599C41.9636 37.974 41.5521 39.4324 41.1146 40.974C40.9167 41.6824 40.7084 42.4063 40.599 43.1355C40.5052 43.7292 40.4688 44.8178 41.2604 45.4167C42.0886 46.0365 43.099 46.3542 44.1563 46.3542C44.974 46.3542 45.8177 46.1667 46.6198 45.7865C48.1771 45.047 49.3282 43.724 49.9167 42.0782C50.0938 41.5834 50.2188 41.0626 50.2917 40.5157C50.2344 40.1667 50.1615 39.8178 50.0782 39.4688C48.7917 33.8959 45.3542 29.1042 40.6615 25.9688C40.5052 25.8647 40.349 25.7657 40.1927 25.6667C40.0261 25.7397 39.7969 25.8386 39.5417 25.9636C38.2917 26.5938 36.2917 27.9063 36.2761 29.8803Z" fill="#C6E281"/>
<path d="M44.1562 47.1407C42.9062 47.1407 41.7448 46.7657 40.7916 46.0469C39.9583 45.4167 39.6198 44.3386 39.8229 43.0157C39.9375 42.2552 40.1458 41.5157 40.3489 40.8021C40.7604 39.349 41.1406 38.0157 40.7135 36.875C40.3489 35.9063 39.3802 35.1354 38.4427 34.3907L38.0156 34.0469C36.9479 33.1771 35.4791 31.9844 35.4948 29.875C35.5052 28.0886 36.8177 26.4532 39.1875 25.2604C39.4687 25.125 39.7083 25.0157 39.8906 24.9375C40.125 24.8386 40.3906 24.8594 40.6093 25C40.776 25.099 40.9375 25.2084 41.0989 25.3177C46.0677 28.6354 49.5312 33.599 50.8437 39.2917C50.927 39.6511 51.0052 40.0157 51.0677 40.3854C51.0781 40.4636 51.0781 40.5417 51.0677 40.6198C50.9895 41.2136 50.8489 41.7969 50.651 42.3438C49.9895 44.2032 48.677 45.6823 46.9531 46.5C46.0625 46.9219 45.0989 47.1407 44.1562 47.1407ZM37.0625 29.8854C37.052 31.2344 38 32.0052 39.0104 32.8229L39.4218 33.1563C40.4687 33.9948 41.6614 34.9427 42.177 36.3177C42.7916 37.9427 42.3229 39.5938 41.8698 41.1927C41.6666 41.9011 41.4739 42.5938 41.375 43.2552C41.3177 43.5938 41.25 44.4219 41.7343 44.7865C42.9375 45.6979 44.7343 45.8073 46.2864 45.0729C47.625 44.4375 48.651 43.2761 49.177 41.8125C49.3281 41.4011 49.4323 40.9688 49.5 40.5313C49.4479 40.2344 49.3854 39.9427 49.3177 39.6511C48.0937 34.3438 44.8645 29.724 40.2291 26.625C40.1927 26.6042 40.1562 26.5782 40.125 26.5573C40.0468 26.5938 39.9635 26.6302 39.8802 26.6719C38.8385 27.1979 37.0729 28.3177 37.0625 29.8854Z" fill="#703627"/>
<path d="M15.9688 63.3699C16.1406 63.474 16.3125 63.5678 16.4844 63.6667C18.599 64.8542 20.9219 65.7136 23.3906 66.1876C23.6042 66.2345 23.8177 66.2709 24.0365 66.3022C25.2656 66.5053 26.5312 66.6095 27.8177 66.6095C28.7552 66.6095 29.6823 66.5574 30.599 66.4428C30.8229 66.422 31.0417 66.3907 31.2656 66.3595C34.9115 65.8178 38.2708 64.4324 41.1354 62.4115C41.3125 62.2917 41.4896 62.1667 41.6615 62.0313C41.6563 61.7917 41.651 61.547 41.6406 61.3022C41.5625 59.1042 41.3073 56.7397 40.3854 54.8751C39.401 52.8751 37.2552 50.8907 34.6719 50.9376C33.7865 50.9532 32.6771 51.3074 32.2396 52.2397C31.9323 52.8959 32.0469 53.5938 32.1615 54.2657C32.2135 54.5678 32.2604 54.8542 32.2708 55.1303C32.3542 57.1355 30.3906 58.7397 28.4948 59.2397C27.1927 59.5834 25.7969 59.5886 24.4479 59.6042C23.6927 59.6095 22.9167 59.6147 22.1562 59.6772C20.1458 59.8438 17.625 61.2709 16.3177 62.8855C16.1875 63.047 16.0729 63.2084 15.9688 63.3699Z" fill="#C6E281"/>
<path d="M27.8177 67.4011C26.5 67.4011 25.1875 67.2918 23.9062 67.0834C23.6823 67.047 23.4531 67.0053 23.2292 66.9584C20.7344 66.4793 18.3333 65.6043 16.1042 64.3543C15.9167 64.2501 15.7396 64.1511 15.5677 64.047C15.3854 63.9376 15.2552 63.7553 15.2031 63.547C15.1563 63.3386 15.1927 63.1199 15.3125 62.9428C15.4271 62.7605 15.5625 62.573 15.7135 62.3907C17.1823 60.573 19.9219 59.0678 22.0885 58.8907C22.8802 58.8282 23.6667 58.823 24.4323 58.8126C25.7656 58.8022 27.099 58.7918 28.2969 58.474C29.9167 58.0522 31.5521 56.698 31.4896 55.1615C31.4792 54.9324 31.4323 54.672 31.3906 54.3959C31.2656 53.6824 31.1198 52.7865 31.526 51.9063C32.125 50.6407 33.5365 50.172 34.6562 50.1459C37.5573 50.0938 39.9948 52.3074 41.0885 54.5261C42.1354 56.6459 42.3542 59.2449 42.4271 61.2709L42.4479 62.0105C42.4531 62.2605 42.3385 62.5001 42.1406 62.6563C41.9583 62.797 41.7708 62.9324 41.5781 63.0626C38.5729 65.1824 35.0469 66.5938 31.3802 67.1355C31.1458 67.172 30.9167 67.2032 30.6823 67.2293C30.6771 67.2293 30.6719 67.2293 30.6719 67.2293C29.7292 67.3438 28.7708 67.4011 27.8177 67.4011ZM17.1406 63.1355C19.1458 64.2188 21.2969 64.9845 23.5365 65.4115C23.75 65.4584 23.9479 65.4949 24.151 65.5261C26.2344 65.8699 28.401 65.9168 30.5052 65.6615C30.5156 65.6615 30.526 65.6615 30.5365 65.6615C30.7396 65.6355 30.9479 65.6095 31.151 65.5782C34.5781 65.0678 37.875 63.7553 40.6875 61.7709C40.75 61.7293 40.8073 61.6824 40.8698 61.6407L40.8594 61.3282C40.7969 59.6043 40.6094 57.099 39.6823 55.224C38.8125 53.4532 36.9479 51.6876 34.6875 51.724C34.0677 51.7345 33.2344 51.9688 32.9479 52.5782C32.7448 53.0105 32.8385 53.5574 32.9323 54.1355C32.9844 54.448 33.0417 54.7709 33.0521 55.099C33.1562 57.5157 30.8802 59.4272 28.6927 60.0001C27.3073 60.3647 25.8802 60.3751 24.4948 60.3907C23.7083 60.3959 22.9479 60.4011 22.2188 60.4636C20.5573 60.599 18.3958 61.7501 17.1406 63.1355Z" fill="#703627"/>
<path d="M23.4792 72C26.1615 71.5781 28.9688 71.8125 31.5417 72.6719C31.8282 72.7708 32.1146 72.875 32.3959 72.9896C32.3959 72.9375 32.375 72.8802 32.3438 72.8281C31.9375 72.2448 31.5886 71.5 31.3386 70.7031C31.2761 70.5052 31.224 70.2969 31.1719 70.0938C30.8594 68.7813 30.8282 67.3906 31.2657 66.3594C31.0417 66.3906 30.823 66.4219 30.599 66.4427C29.6823 66.5573 28.7552 66.6094 27.8177 66.6094C26.5313 66.6094 25.2657 66.5052 24.0365 66.3021C23.8177 66.2708 23.6042 66.2344 23.3907 66.1875C23.3855 66.2344 23.3907 66.2865 23.4115 66.3385C23.8334 67.3854 23.9375 68.5469 23.7344 69.6458C23.698 69.8542 23.6511 70.0573 23.5886 70.2604C23.3959 70.9375 23.0834 71.5781 22.6615 72.1458C22.9323 72.0885 23.2032 72.0417 23.4792 72Z" fill="#F57E82"/>
<path d="M32.3959 73.776C32.2969 73.776 32.198 73.7604 32.1042 73.724C31.8334 73.6146 31.5626 73.5104 31.2865 73.4167C28.8542 72.6042 26.2188 72.375 23.6615 72.7656C23.6407 72.7708 23.6147 72.776 23.5886 72.7813C23.3334 72.8177 23.073 72.8646 22.8178 72.9167C22.5001 72.9844 22.1719 72.849 22.0001 72.5677C21.823 72.2917 21.8386 71.9375 22.0313 71.6719C22.3959 71.1927 22.6667 70.6406 22.8386 70.0469C22.8907 69.8646 22.9324 69.6875 22.9584 69.5104C23.1407 68.5208 23.0469 67.5313 22.6824 66.6354C22.6147 66.4427 22.5938 66.2604 22.6147 66.0885C22.6407 65.8698 22.7605 65.6719 22.9376 65.5469C23.1147 65.4167 23.3386 65.3698 23.5522 65.4167C23.7501 65.4583 23.948 65.4948 24.1511 65.526C26.2344 65.8698 28.4011 65.9167 30.5053 65.6615C30.5157 65.6615 30.5261 65.6615 30.5365 65.6615C30.7397 65.6354 30.948 65.6094 31.1511 65.5781C31.4324 65.5365 31.7136 65.651 31.8855 65.875C32.0626 66.1042 32.099 66.401 31.9897 66.6667C31.6511 67.4583 31.6303 68.6406 31.9324 69.9063C31.9792 70.099 32.0313 70.2917 32.0886 70.4792C32.3126 71.1875 32.6303 71.8698 32.9844 72.3802C33.1094 72.5677 33.1719 72.7552 33.1772 72.9531C33.1928 73.2188 33.0678 73.474 32.849 73.6302C32.7188 73.7292 32.5574 73.776 32.3959 73.776ZM26.1199 71.0052C27.7136 71.0052 29.3022 71.2188 30.8334 71.6354C30.7449 71.4115 30.6667 71.1771 30.5886 70.9427C30.5209 70.7188 30.4636 70.5 30.4115 70.2813C30.1511 69.2031 30.0886 68.1719 30.2136 67.2813C28.3074 67.4688 26.3594 67.4323 24.4792 67.1667C24.6563 68.0156 24.6667 68.9063 24.5053 69.7917C24.4636 70.0156 24.4115 70.2552 24.3438 70.4844C24.2813 70.6979 24.2084 70.9115 24.1303 71.1146C24.7865 71.0417 25.4532 71.0052 26.1199 71.0052Z" fill="#703627"/>
<path d="M33.7136 74.7031C33.5938 74.7031 33.4688 74.6771 33.3542 74.6146C29.6406 72.6823 25.0625 72.3438 21.1042 73.6979C20.6927 73.8385 20.25 73.6198 20.1094 73.2083C19.9688 72.7969 20.1875 72.349 20.599 72.2083C24.9531 70.7135 29.9896 71.0938 34.0729 73.2188C34.4583 73.4167 34.6094 73.8958 34.4115 74.2813C34.2708 74.5521 33.9948 74.7031 33.7136 74.7031Z" fill="#703627"/>
<path d="M28.3802 22.7655C28.349 22.7655 28.3177 22.7655 28.2917 22.7603C27.8594 22.7135 27.5521 22.3228 27.599 21.8905C27.6719 21.2343 27.7448 20.3958 27.8229 19.5572C27.8958 18.703 27.974 17.8541 28.0469 17.1874C28.0938 16.7551 28.4844 16.4478 28.9167 16.4947C29.3438 16.5468 29.6563 16.9322 29.6042 17.3645C29.5313 18.0208 29.4583 18.8593 29.3854 19.6978C29.3073 20.552 29.2344 21.401 29.1563 22.0676C29.1094 22.4687 28.7708 22.7655 28.3802 22.7655Z" fill="#703627"/>
<path d="M20.6615 68.526C14.6146 68.526 8.43753 65.4166 4.5469 60.1978C0.255235 54.4322 -1.10414 46.5364 0.921901 39.0833C2.76565 32.2812 7.27086 26.0989 13.6094 21.677C19.6875 17.4374 26.3021 15.7135 32.2396 16.8124C32.6667 16.8906 32.9479 17.302 32.8698 17.7291C32.7917 18.1562 32.3854 18.4374 31.9532 18.3593C26.4323 17.3385 20.2344 18.9739 14.5052 22.9739C8.46878 27.1822 4.18232 33.052 2.43232 39.4947C0.562526 46.3801 1.8594 53.9531 5.80211 59.2551C10.0365 64.9322 17.1823 67.9166 23.5834 66.677C24.0104 66.5937 24.4219 66.8749 24.5052 67.302C24.5834 67.7291 24.3073 68.1406 23.8802 68.2239C22.8229 68.427 21.7448 68.526 20.6615 68.526Z" fill="#703627"/>
<path d="M54.5468 41.9792C52.7552 42.2136 50.9427 42.4532 49.2552 43.1095C47.5677 43.7605 45.9895 44.8803 45.1458 46.4897C44.302 48.0938 44.3333 50.224 45.5052 51.6042C46.3229 52.5626 47.552 53.047 48.7448 53.448C50.4687 54.0209 52.3073 54.4897 54.0937 54.1511C55.875 53.8126 57.5885 52.4584 57.802 50.6459C57.927 49.5886 57.5468 48.547 57.1458 47.5626C56.3489 45.6042 55.4427 43.6876 54.5468 41.9792Z" fill="#DDA783"/>
<path d="M48.9063 43.4636C51.4531 46.1563 52.3646 50.2917 51.1927 53.8074C49.5625 54.0157 47.8386 53.573 46.599 52.4949C45.3594 51.4167 44.6771 49.6824 44.9896 48.0678C45.1979 46.9897 45.8125 46.0261 46.5677 45.2397C47.3229 44.448 48.224 43.8126 48.9063 43.4636Z" fill="#B27966"/>
<path d="M53.2709 54.9688C51.3334 54.9688 49.2032 54.6615 48.1042 54.2553C46.3334 53.5938 44.9792 52.3698 44.3959 50.9063C43.3126 48.1928 44.9011 45.2396 47.0313 43.724C49.1615 42.2032 51.7865 41.7448 54.099 41.3386C54.5313 41.2605 54.9324 41.5521 55.0105 41.9792C55.0834 42.4063 54.7969 42.8178 54.3699 42.8907C52.2188 43.2657 49.7813 43.6928 47.9376 45.0053C46.349 46.1407 45.0782 48.3855 45.849 50.3178C46.2709 51.3751 47.2917 52.2709 48.6511 52.7761C49.9584 53.2657 53.1147 53.5938 55.0782 53.2709C55.5001 53.198 55.9063 53.4896 55.9792 53.9219C56.047 54.349 55.7553 54.7553 55.3282 54.8282C54.7188 54.9271 54.0053 54.9688 53.2709 54.9688Z" fill="#703627"/>
</svg>
