<svg width="181" height="31" viewBox="0 0 181 31" fill="none" xmlns="http://www.w3.org/2000/svg">
<path d="M20.144 1.98805C20.0046 1.72672 19.4394 1.44796 19.238 1.23115C19.0367 1.01434 18.4172 1.17501 18.123 1.16534C17.8171 1.15566 17.5326 1.08984 17.2771 1.25438C16.8996 1.49829 16.5415 2.00354 16.2801 2.36747C16.0168 2.73334 16.1446 2.82432 16.2007 3.26956C16.2569 3.71673 16.7796 4.72916 17.2054 4.87047C16.6518 5.42411 16.797 5.37378 16.7195 5.61769C15.8407 5.30796 14.8128 4.82207 14.0036 5.27699C12.6989 6.01066 12.7473 7.11601 13.1635 7.95034C13.5777 8.78274 14.143 9.27443 15.0683 9.197C14.3908 10.9896 14.1372 13.299 14.2146 15.3451C13.5932 15.2735 12.9525 15.2057 12.3562 15.3896C11.76 15.5735 11.2141 16.0807 11.187 16.706C11.1638 17.2867 11.5703 17.792 12 18.1791C12.6737 18.7889 13.4655 19.2671 14.3637 19.4916C14.3559 20.053 14.4295 20.6163 14.5553 21.3113C13.8739 21.592 13.1867 21.8765 12.575 22.2889C11.9613 22.6993 11.4193 23.249 11.1386 23.9343C10.8037 24.7512 10.8831 25.7288 11.3457 26.4818C11.7503 27.1361 12.4104 27.6007 13.1228 27.8872C13.8352 28.1718 14.8941 28.0905 15.6568 28.1737C16.9538 28.317 17.6836 28.2918 19.0386 28.1485C19.8439 28.7583 20.6725 29.3778 21.6384 29.6682C22.5947 29.9585 23.6149 29.9043 24.6118 29.8463C25.8662 29.7746 27.1381 29.7011 28.3305 29.3023C29.37 28.9558 30.3205 28.3712 31.1742 27.6801C32.1518 26.8922 33.019 25.9533 33.6443 24.8615C34.2696 23.7698 34.6432 22.5192 34.5696 21.2629C34.7922 18.6011 34.3547 15.8871 33.1971 13.3725C34.7671 12.1878 35.7059 10.2307 35.733 8.25813C35.7621 6.28748 34.9065 4.33619 33.4236 3.06823C32.599 2.29198 31.6291 1.67058 30.5799 1.24664C29.8656 0.956268 29.1145 0.758816 28.3537 0.63686C25.392 0.160652 23.1096 0.538134 20.144 1.98805Z" fill="#DDA783"/>
<path d="M20.5621 23.702C20.3337 22.1321 19.9504 20.5854 19.4239 19.089C19.0057 17.9004 18.4734 16.7118 17.5577 15.8504C16.6421 14.9889 15.2677 14.5224 14.0927 15.0509C14.1256 17.3119 14.1604 19.6058 14.7895 21.7778C15.4187 23.9498 16.7234 26.023 18.7192 27.0684C18.5547 25.6572 19.3348 24.184 20.5621 23.702Z" fill="#FFDCC4"/>
<path d="M15.9685 9.57065C15.1728 9.57065 14.4934 9.41385 13.9397 9.10412C13.1209 8.6434 12.5963 7.811 12.604 6.98054C12.6098 6.17525 13.1286 5.37963 13.8933 5.00408C14.5863 4.66532 15.4574 4.66144 16.2259 4.99247C16.8957 5.28477 17.5016 5.83261 17.9294 6.53918C18.0146 6.67856 17.9701 6.85859 17.8326 6.94182C17.6952 7.027 17.5171 6.98248 17.4319 6.84503C17.0661 6.24106 16.555 5.77453 15.9936 5.53062C15.3819 5.26542 14.6908 5.26542 14.1488 5.53062C13.5777 5.81131 13.1906 6.39593 13.1867 6.98635C13.1809 7.60387 13.5894 8.23494 14.2243 8.59307C14.7625 8.89505 15.4632 9.02282 16.3072 8.97442C16.4679 8.96668 16.6073 9.08863 16.615 9.24931C16.6247 9.41191 16.5027 9.54936 16.3421 9.55904C16.2143 9.56678 16.0904 9.57065 15.9685 9.57065Z" fill="#703627"/>
<path d="M16.8454 7.69868C16.7486 7.69868 16.6557 7.65029 16.5995 7.56317C16.1485 6.84499 15.2232 6.4617 14.3985 6.65141C14.2417 6.68625 14.0849 6.58753 14.0501 6.43073C14.0133 6.27393 14.112 6.11519 14.2688 6.08035C15.3258 5.83837 16.5124 6.33007 17.0912 7.24957C17.1783 7.38702 17.1377 7.56705 17.0022 7.65416C16.9538 7.68513 16.8996 7.69868 16.8454 7.69868Z" fill="#703627"/>
<path d="M17.2113 5.03894C17.1493 5.03894 17.0854 5.01958 17.0332 4.97699L16.9848 4.94021C16.8454 4.83181 16.7157 4.73114 16.5841 4.57821C15.9646 3.86971 15.7497 2.90761 16.0343 2.12942C16.3092 1.37058 17.0622 0.797584 17.9082 0.702729C18.6747 0.615618 19.4974 0.905989 20.1092 1.47705C20.2698 1.62805 20.3724 1.76936 20.4518 1.9552C20.5137 2.10425 20.446 2.27654 20.2969 2.34042C20.1498 2.4043 19.9795 2.33461 19.9156 2.18556C19.8672 2.07522 19.8149 2.00166 19.7123 1.90487C19.2226 1.44801 18.5721 1.21572 17.974 1.28347C17.3429 1.3551 16.7815 1.77517 16.5802 2.33074C16.3692 2.91148 16.5415 3.64322 17.0216 4.19299C17.1164 4.30139 17.2151 4.37883 17.341 4.47755L17.3913 4.51433C17.5171 4.615 17.5403 4.7989 17.4416 4.92666C17.3835 5.00022 17.2984 5.03894 17.2113 5.03894Z" fill="#703627"/>
<path d="M23.1581 29.5656C23.2704 28.439 23.3343 27.2911 23.1136 26.1799C22.891 25.0688 22.3605 23.9847 21.4197 23.3943C20.235 23.7563 19.2381 24.7513 18.9709 25.965C18.7057 27.1788 19.242 28.5571 20.3144 29.1785C21.1003 29.6353 22.0508 29.6682 23.1581 29.5656Z" fill="#B27966"/>
<mask id="mask0_245_13712" style="mask-type:luminance" maskUnits="userSpaceOnUse" x="18" y="13" width="18" height="18">
<path d="M18.1753 13.1964H35.5201V30.1057H18.1753V13.1964Z" fill="white"/>
</mask>
<g mask="url(#mask0_245_13712)">
<path d="M25.0474 30.0979C24.3892 30.0979 23.7659 30.0611 23.2161 30.0185C22.3605 29.9508 21.4565 29.8559 20.6144 29.5094C19.6581 29.1145 18.938 28.4234 18.6379 27.6123C18.0998 26.1605 18.9535 24.5479 20.0743 23.7059C21.2319 22.8367 22.6896 22.5212 23.975 22.2405C24.1318 22.2076 24.2866 22.3063 24.3215 22.465C24.3544 22.6238 24.2557 22.7786 24.0969 22.8135C22.8696 23.0806 21.4797 23.3826 20.4228 24.1763C19.4761 24.8867 18.7463 26.2263 19.1838 27.4091C19.4278 28.0672 20.0298 28.6344 20.8351 28.9674C21.5997 29.2829 22.4534 29.372 23.2607 29.4359C25.0319 29.5752 27.5988 29.6391 29.4591 28.6054C36.0912 24.9216 34.7322 18.2798 33.1333 13.6068C33.081 13.4538 33.1623 13.2874 33.3133 13.2351C33.4662 13.1828 33.6308 13.2641 33.683 13.4151C35.3517 18.2895 36.7571 25.2197 29.7417 29.1184C28.3402 29.8985 26.598 30.0979 25.0474 30.0979Z" fill="#703627"/>
</g>
<path d="M15.3471 27.9995C15.4613 26.8709 15.2561 26.0462 15.0354 24.9351C14.8147 23.8239 14.3559 23.2935 13.6107 21.8262C12.4259 22.1901 11.429 23.1832 11.1619 24.3989C10.8967 25.6126 11.4329 26.9909 12.5053 27.6123C13.2912 28.0691 14.2417 28.1021 15.3471 27.9995Z" fill="#B27966"/>
<path d="M16.7487 28.4874C16.2202 28.4874 15.7324 28.4777 15.4052 28.4525C14.5515 28.3848 13.6475 28.2899 12.8035 27.9434C11.8491 27.5485 11.129 26.8574 10.829 26.0463C10.2908 24.5945 11.1445 22.9819 12.2653 22.1399C12.8712 21.685 13.9611 21.23 14.5457 21.0345C14.6986 20.9842 14.8632 21.0655 14.9135 21.2204C14.9638 21.3733 14.8825 21.5398 14.7296 21.5901C14.0676 21.8108 13.1016 22.2425 12.6138 22.6083C11.6672 23.3207 10.9374 24.6584 11.3749 25.8431C11.6188 26.5012 12.2208 27.0684 13.0261 27.4014C13.7907 27.7169 14.6425 27.806 15.4517 27.8679C16.3034 27.9357 18.3709 27.8892 19.24 27.8447C19.3988 27.8389 19.5381 27.9608 19.5459 28.1234C19.5536 28.2841 19.4297 28.4216 19.2691 28.4293C18.6961 28.4583 17.6585 28.4874 16.7487 28.4874Z" fill="#703627"/>
<path d="M12.4628 18.4754C12.9467 18.1753 13.2429 17.6313 13.3513 17.07C13.4616 16.5105 13.4036 15.9317 13.3087 15.3684C12.8054 15.3297 12.2479 15.3084 11.853 15.6259C11.6594 15.7827 11.5297 16.0053 11.4523 16.2434C11.311 16.6712 11.34 17.1532 11.5297 17.5617C11.7194 17.9701 12.0679 18.3031 12.4628 18.4754Z" fill="#B27966"/>
<path d="M14.1623 19.7297C14.1236 19.7297 14.083 19.722 14.0443 19.7046C13.4209 19.4258 11.9923 18.6534 11.5161 18.1249C11.0476 17.6062 10.7321 16.7137 11.1444 15.9781C11.3787 15.5581 11.8336 15.2464 12.3911 15.1206C12.7453 15.0412 13.3319 15.0799 14.1875 15.2367C14.3443 15.2677 14.4488 15.4187 14.4198 15.5774C14.3908 15.7381 14.2398 15.8426 14.081 15.8136C13.0783 15.6278 12.6718 15.6568 12.5188 15.6916C12.122 15.7807 11.8065 15.9898 11.6516 16.2646C11.3941 16.7273 11.6051 17.3526 11.9478 17.732C12.3407 18.1675 13.6765 18.8993 14.2804 19.1703C14.4275 19.2361 14.4953 19.4084 14.4295 19.5555C14.3811 19.6659 14.2746 19.7297 14.1623 19.7297Z" fill="#703627"/>
<path d="M23.702 8.87381C23.702 8.97834 23.6807 9.07901 23.642 9.17386C23.6013 9.27065 23.5452 9.35583 23.4716 9.42939C23.3981 9.50295 23.3129 9.56102 23.218 9.59974C23.1213 9.64039 23.0225 9.65975 22.918 9.65975C22.8135 9.65975 22.7147 9.64039 22.6179 9.59974C22.5231 9.56102 22.4379 9.50295 22.3644 9.42939C22.2908 9.35583 22.2347 9.27065 22.194 9.17386C22.1553 9.07901 22.1359 8.97834 22.1359 8.87381C22.1359 8.76928 22.1553 8.66862 22.194 8.57183C22.2347 8.47503 22.2908 8.38986 22.3644 8.3163C22.4379 8.24274 22.5231 8.1866 22.6179 8.14595C22.7147 8.10723 22.8135 8.08594 22.918 8.08594C23.0225 8.08594 23.1213 8.10723 23.218 8.14595C23.3129 8.1866 23.3981 8.24274 23.4716 8.3163C23.5452 8.38986 23.6013 8.47503 23.642 8.57183C23.6807 8.66862 23.702 8.76928 23.702 8.87381Z" fill="#DD917A"/>
<path d="M24.1182 6.47335C23.8298 6.70177 23.5278 6.95343 23.4194 7.30574C23.3807 7.4277 23.3729 7.57095 23.4446 7.67742C23.5201 7.78776 23.6691 7.83035 23.8027 7.81293C23.9343 7.7955 24.0563 7.72969 24.1724 7.66387C24.428 7.51868 24.6777 7.36575 24.908 7.18572C25.0416 7.08119 25.1713 6.96311 25.2468 6.81211C25.3242 6.66112 25.3378 6.46754 25.2429 6.32816C25.1384 6.1733 24.9293 6.11909 24.7474 6.14813C24.5654 6.17717 24.3873 6.25654 24.1182 6.47335Z" fill="#703627"/>
<path d="M30.7097 3.06445C30.0999 3.31417 29.5017 3.61228 28.9965 4.03816C28.4913 4.46404 28.0847 5.02929 27.9415 5.67585C27.775 6.42308 27.9705 7.20321 28.2241 7.92526C28.4971 8.70539 28.8397 9.46229 29.2927 10.1514C29.5559 10.5522 29.8676 10.9393 30.2974 11.1484C31.0078 11.493 31.8499 11.2723 32.6068 11.0438C33.3308 10.827 34.0644 10.6064 34.711 10.2134C35.3556 9.81848 35.5453 9.60748 35.7389 8.87381C35.8725 8.36663 35.8493 7.21289 35.735 6.70183C35.4892 5.61584 35.2511 5.16674 34.6123 4.25497C34.2909 3.79812 33.9638 3.02767 33.4527 2.80118C32.7016 2.47016 31.7996 2.61728 30.7097 3.06445Z" fill="#B27966"/>
<path d="M32.3744 4.25102C32.3221 4.45815 32.3415 4.6827 32.4267 4.87822C32.4635 4.95759 32.5254 5.0447 32.6125 5.04276C32.6977 5.04276 32.7577 4.96146 32.8022 4.88983C32.901 4.73303 32.9977 4.57623 33.0481 4.39814C33.0945 4.23359 33.0849 4.03033 32.9513 3.9258C32.8506 3.8445 32.6977 3.84643 32.5854 3.91225C32.4751 3.97613 32.4131 4.10002 32.3744 4.25102Z" fill="#703627"/>
<path d="M29.9741 5.33516C30.1618 5.43388 30.3167 5.59649 30.4057 5.79201C30.4425 5.87137 30.4657 5.97591 30.4057 6.04173C30.3496 6.10367 30.2489 6.09593 30.1657 6.08044C29.9857 6.0514 29.8018 6.02043 29.6372 5.94106C29.4843 5.86557 29.3391 5.72425 29.3488 5.5539C29.3565 5.4242 29.4572 5.30999 29.5811 5.26934C29.705 5.22869 29.8366 5.26353 29.9741 5.33516Z" fill="#703627"/>
<path d="M33.5379 8.91444C33.2552 8.91444 32.9552 8.80991 32.6958 8.61052L32.6532 8.57761L32.4964 8.23304C32.2215 7.62713 31.9486 7.02703 31.7008 6.49469C31.6485 6.38628 31.695 6.25465 31.8053 6.20238C31.9156 6.15205 32.0453 6.19851 32.0957 6.30885C32.3435 6.8412 32.6183 7.44323 32.8932 8.04914L33.0036 8.29305C33.2785 8.4847 33.6056 8.52922 33.834 8.40339C34.0741 8.26982 34.2154 7.9388 34.1863 7.57874C34.1767 7.45872 34.2677 7.35225 34.3877 7.34257C34.5058 7.33289 34.6122 7.42387 34.6219 7.54389C34.6645 8.08011 34.438 8.56793 34.045 8.78668C33.8921 8.87186 33.7179 8.91444 33.5379 8.91444Z" fill="#703627"/>
<path d="M31.9292 9.55898C31.5614 9.55898 31.1685 9.37895 30.8684 9.06148C30.7871 8.97243 30.791 8.83499 30.8781 8.75175C30.9652 8.66851 31.1046 8.67238 31.1878 8.75949C31.4472 9.03631 31.8073 9.17375 32.0822 9.10213C32.3493 9.03244 32.541 8.76917 32.5719 8.43234C32.5835 8.31038 32.6881 8.22134 32.81 8.23295C32.9301 8.24457 33.0191 8.35104 33.0075 8.47299C32.9591 8.99566 32.6397 9.40992 32.1925 9.52607C32.1073 9.5493 32.0202 9.55898 31.9292 9.55898Z" fill="#703627"/>
<path d="M18.8199 27.4768C18.7715 27.4768 18.7231 27.4652 18.6786 27.44C16.6905 26.3405 15.2542 24.5615 14.6366 22.4263C13.7287 19.2922 13.3784 13.8178 14.7528 9.20862C14.7992 9.05375 14.9638 8.96664 15.1167 9.0131C15.2696 9.05956 15.3587 9.22217 15.3122 9.37703C13.9707 13.872 14.3114 19.2071 15.1961 22.2637C15.771 24.2479 17.1067 25.903 18.9593 26.929C19.1006 27.0064 19.1529 27.1845 19.0754 27.3258C19.0212 27.4226 18.9225 27.4768 18.8199 27.4768Z" fill="#703627"/>
<mask id="mask1_245_13712" style="mask-type:luminance" maskUnits="userSpaceOnUse" x="16" y="0" width="21" height="17">
<path d="M16.193 0H36.5113V16.1698H16.193V0Z" fill="white"/>
</mask>
<g mask="url(#mask1_245_13712)">
<path d="M27.984 16.0653C27.8388 16.0653 27.713 15.9549 27.6956 15.8059C27.6762 15.6452 27.7924 15.5 27.9511 15.4826C30.0263 15.2406 31.9176 14.3869 33.2784 13.0764C34.7497 11.6574 35.5782 9.68098 35.4949 7.7897C35.4136 5.92164 34.4341 4.0381 32.8758 2.74692C31.4433 1.56027 29.5152 0.838213 27.4478 0.714321C25.5836 0.600108 23.6246 0.935003 21.6249 1.70739C19.2826 2.60948 17.7688 4.39623 16.9093 5.7358C16.8221 5.87325 16.6421 5.91196 16.5066 5.82485C16.3711 5.7358 16.3324 5.55577 16.4195 5.42027C17.3255 4.00713 18.9264 2.11972 21.4158 1.15956C23.4949 0.358132 25.5352 0.0116233 27.4826 0.129707C29.674 0.261343 31.7201 1.03179 33.2475 2.29588C34.9297 3.68966 35.9886 5.73387 36.0776 7.76259C36.1667 9.82036 35.2723 11.9652 33.6811 13.4984C32.2312 14.896 30.2199 15.8078 28.0189 16.0633C28.0072 16.0653 27.9956 16.0653 27.984 16.0653Z" fill="#703627"/>
</g>
<path d="M30.8413 19.302C30.698 19.302 30.5741 19.1974 30.5529 19.0503L30.2296 16.828C30.2063 16.6693 30.3147 16.5202 30.4754 16.497C30.6342 16.4738 30.7813 16.5841 30.8045 16.7428L31.1297 18.9671C31.153 19.1258 31.0426 19.2749 30.8839 19.2981C30.8703 19.3 30.8548 19.302 30.8413 19.302Z" fill="#C48C71"/>
<path d="M32.688 18.3843C32.537 18.3843 32.4093 18.2682 32.3977 18.1133L32.2505 16.1872C32.2389 16.0265 32.3589 15.8852 32.5196 15.8736C32.6764 15.862 32.8197 15.982 32.8313 16.1427L32.9803 18.0688C32.9919 18.2295 32.8719 18.3708 32.7113 18.3843C32.7035 18.3843 32.6958 18.3843 32.688 18.3843Z" fill="#C48C71"/>
<path d="M32.0105 22.6509C32.0008 22.6509 31.9892 22.6509 31.9795 22.6509C31.8188 22.6335 31.7027 22.4883 31.7201 22.3276L31.9272 20.4015C31.9447 20.2408 32.0899 20.1227 32.2486 20.1421C32.4073 20.1595 32.5235 20.3028 32.5061 20.4634L32.3009 22.3896C32.2834 22.5406 32.1576 22.6509 32.0105 22.6509Z" fill="#C48C71"/>
<path d="M27.6453 2.64825C27.5756 2.64825 27.5078 2.62502 27.4517 2.57469L26.4199 1.65711C26.298 1.54871 26.2883 1.36481 26.3947 1.24285C26.5012 1.12283 26.6851 1.11122 26.8051 1.21769L27.8389 2.13719C27.9589 2.24366 27.9705 2.4295 27.8621 2.54952C27.8059 2.61534 27.7246 2.64825 27.6453 2.64825Z" fill="#C48C71"/>
<path d="M25.1965 3.38964C25.1423 3.38964 25.09 3.37415 25.0416 3.34511L23.3594 2.27655C23.2239 2.19137 23.1832 2.01134 23.2684 1.8739C23.3555 1.73646 23.5355 1.69581 23.6711 1.78292L25.3513 2.84955C25.4888 2.93472 25.5294 3.11669 25.4423 3.25219C25.3881 3.34124 25.2933 3.38964 25.1965 3.38964Z" fill="#C48C71"/>
<path d="M5.81516 28.8707C6.1307 29.2326 6.61658 29.3701 7.09666 29.4611C8.12264 29.6624 9.20863 29.7611 10.3779 29.7611C11.0418 29.7611 11.7329 29.7282 12.4569 29.6643C12.8615 29.6276 13.2525 29.583 13.6184 29.4204C14.0385 29.2307 14.3463 28.8939 14.4353 28.5183C14.5805 27.9221 14.2979 27.5291 13.9727 27.1904C13.3454 26.5438 12.4801 26.1295 11.5858 26.0521C11.6052 26.1295 11.6245 26.205 11.6477 26.2805C11.7407 26.5767 11.8704 26.8535 12.0214 27.0704C12.033 27.0878 12.0388 27.1091 12.0407 27.1304C11.9362 27.0878 11.8297 27.0491 11.7232 27.0123C10.767 26.6909 9.72355 26.6038 8.72661 26.7606V26.7626C8.62402 26.7761 8.52336 26.7955 8.42269 26.8168C8.57949 26.6058 8.69564 26.3677 8.76727 26.116C8.7905 26.0405 8.80792 25.9631 8.82147 25.8876C8.77695 25.8914 8.73049 25.8973 8.68209 25.9011C8.14006 25.9611 7.39672 26.0405 6.95148 26.2089C6.37267 26.4296 5.92357 26.7993 5.68933 27.2484C5.40477 27.7905 5.45704 28.4564 5.81516 28.8707Z" fill="#F57E82"/>
<mask id="mask2_245_13712" style="mask-type:luminance" maskUnits="userSpaceOnUse" x="4" y="25" width="12" height="6">
<path d="M4.79501 25.5856H15.2019V30.1057H4.79501V25.5856Z" fill="white"/>
</mask>
<g mask="url(#mask2_245_13712)">
<path d="M10.3779 30.0534C9.1835 30.0534 8.0917 29.9527 7.04056 29.7495C6.51208 29.6469 5.97006 29.4939 5.59645 29.0642V29.0623C5.16089 28.5589 5.09314 27.7575 5.42997 27.1129C5.69905 26.598 6.20236 26.1798 6.84698 25.9359C7.32706 25.754 8.08977 25.6707 8.64534 25.6107L8.79247 25.5952C8.88345 25.5875 8.9725 25.6204 9.03444 25.6881C9.09639 25.754 9.12349 25.8469 9.108 25.9379C9.09252 26.025 9.07316 26.1121 9.04799 26.1992C9.02476 26.2786 8.99766 26.356 8.96862 26.4334C9.80102 26.3405 10.6528 26.4063 11.46 26.627C11.4271 26.5438 11.3961 26.4567 11.369 26.3676C11.3439 26.2844 11.3226 26.2031 11.3032 26.1218C11.28 26.0308 11.3032 25.934 11.3632 25.8624C11.4252 25.7907 11.5161 25.754 11.611 25.7617C12.5712 25.8449 13.5081 26.2902 14.1798 26.9851C14.5476 27.3665 14.898 27.8543 14.7199 28.588C14.6076 29.0506 14.2398 29.461 13.7365 29.6875C13.33 29.8695 12.9119 29.9179 12.4821 29.9547C11.7543 30.0205 11.0457 30.0534 10.3779 30.0534ZM6.03588 28.679C6.29334 28.9751 6.72502 29.0913 7.1509 29.1745C8.73633 29.4823 10.4515 29.5481 12.4318 29.372C12.8093 29.3391 13.1751 29.2965 13.5003 29.1513C13.8391 29.0003 14.083 28.737 14.1527 28.4505C14.2572 28.0169 14.0811 27.7246 13.7617 27.3936C13.2913 26.9058 12.666 26.5612 12.004 26.4121C12.0756 26.596 12.1646 26.7645 12.2595 26.9019C12.306 26.9735 12.3272 27.0432 12.3311 27.1148C12.3369 27.2155 12.2905 27.3104 12.2092 27.3684C12.1298 27.4265 12.0253 27.4381 11.9323 27.4013C11.8317 27.3607 11.731 27.3239 11.6284 27.2891C10.7244 26.9851 9.74488 26.9019 8.7944 27.0471C8.78666 27.049 8.77698 27.051 8.7673 27.0529C8.67245 27.0664 8.57565 27.0839 8.4808 27.1032C8.36272 27.1284 8.24076 27.0761 8.17688 26.9735C8.11106 26.8709 8.11687 26.7374 8.18849 26.6406C8.28528 26.5128 8.36272 26.3734 8.42273 26.2244C7.94458 26.2786 7.39288 26.3541 7.05411 26.4838C6.54306 26.6773 6.15009 26.9987 5.94683 27.3858C5.7184 27.8214 5.75518 28.3538 6.03588 28.679Z" fill="#703627"/>
</g>
<path d="M2.02875 18.1405C2.50689 20.4286 3.95488 22.376 5.93521 23.5549C5.97392 23.4949 6.01651 23.4349 6.06491 23.3749C6.55079 22.7748 7.48772 22.2424 8.23495 22.1824C8.51757 22.1592 8.80601 22.1553 9.0867 22.1534C9.58807 22.1495 10.1069 22.1456 10.5908 22.0179C11.2955 21.834 12.0253 21.2358 11.9943 20.4925C11.9904 20.3879 11.973 20.2834 11.9536 20.1711C11.911 19.9214 11.8685 19.6601 11.9827 19.4162C12.1453 19.0696 12.5576 18.9399 12.8867 18.9322C13.8469 18.9167 14.6444 19.6543 15.0103 20.3957C15.3529 21.0906 15.4478 21.9675 15.4768 22.7845C15.4807 22.8754 15.4826 22.9664 15.4845 23.0574C17.5113 21.5455 18.8199 19.1626 18.8199 16.4873C18.8199 16.0014 18.8199 15.6588 18.6922 15.0606C18.6651 15.2638 18.6186 15.4574 18.5528 15.6394C18.3341 16.253 17.9062 16.7447 17.3274 17.0196C17.0293 17.1609 16.7157 17.2306 16.4118 17.2306C16.0188 17.2306 15.6433 17.1125 15.3355 16.8822C15.0412 16.6576 15.0548 16.255 15.0896 16.0324C15.1303 15.7633 15.2077 15.4923 15.2813 15.2309C15.4439 14.6579 15.5968 14.114 15.4052 13.6029C15.2406 13.1674 14.8477 12.8557 14.4682 12.5537C14.4179 12.5111 14.3656 12.4705 14.3153 12.4279C13.9223 12.1104 13.479 11.7484 13.4829 11.1077C13.4887 10.3721 14.2321 9.88424 14.6967 9.65194C14.7915 9.60549 14.8767 9.56677 14.9386 9.53967C13.6126 8.70146 12.033 8.21558 10.3392 8.21558C6.67662 8.21558 3.31606 10.4301 2.36558 13.6726C2.49915 13.4965 2.65982 13.3126 2.81469 13.1693C2.85727 13.1306 2.89986 13.0938 2.94051 13.0609C3.25992 12.8054 3.65676 12.7202 3.97423 12.8344C4.15426 12.9002 4.29558 13.0164 4.43302 13.1325C4.54336 13.2235 4.64596 13.3087 4.76211 13.3668C5.07958 13.5197 5.51707 13.4519 5.93327 13.1848C6.11524 13.0667 6.28752 12.9254 6.45207 12.788C6.62823 12.6408 6.81213 12.4879 7.01152 12.3621C8.07427 11.6942 9.57259 11.8975 10.4224 12.8209C10.7418 13.1693 11.007 13.7133 10.7921 14.203C10.7573 14.2863 10.7089 14.3598 10.6624 14.4315C10.6063 14.5205 10.5521 14.6057 10.525 14.6967C10.434 15.0141 10.6954 15.3316 10.8115 15.4516C10.8831 15.5271 10.9664 15.6026 11.0438 15.6742C11.2045 15.8175 11.369 15.9685 11.491 16.1601C11.882 16.7776 11.6536 17.5907 11.2742 18.0824C10.8618 18.6225 10.2114 18.9864 9.53774 19.0561C9.45644 19.0638 9.37514 19.0677 9.29383 19.0677C8.69567 19.0677 8.0917 18.847 7.63872 18.456C7.56128 18.3882 7.48772 18.3166 7.4161 18.2469C7.2322 18.0669 7.05797 17.8965 6.83729 17.8152C6.58757 17.7223 6.27204 17.7494 5.94682 17.8927C5.73582 17.9875 5.54224 18.1134 5.33704 18.2489C5.25961 18.3011 5.18218 18.3515 5.10281 18.3999C4.49109 18.7831 3.92971 18.969 3.38962 18.969C2.97923 18.969 2.63272 18.8412 2.37139 18.6051C2.23201 18.4792 2.09263 18.3592 2.02875 18.1405Z" fill="#A5DBD3"/>
<path d="M5.93515 23.8472C5.88482 23.8472 5.83255 23.8336 5.78609 23.8065C3.70123 22.5657 2.22808 20.5214 1.74412 18.2004C1.71122 18.0475 1.80607 17.8946 1.959 17.8558C2.10999 17.8191 2.26486 17.9081 2.30938 18.0591C2.34422 18.1849 2.42166 18.2566 2.55136 18.3746C2.77785 18.5779 3.05467 18.6747 3.38956 18.6766C3.87351 18.6766 4.38457 18.5043 4.94789 18.1501C5.02532 18.1036 5.10081 18.0552 5.17631 18.0049C5.37957 17.8713 5.59057 17.732 5.82868 17.6255C6.22358 17.4513 6.61849 17.4203 6.93789 17.5403C7.21665 17.6429 7.41991 17.8423 7.61736 18.0339C7.68899 18.1056 7.75868 18.1714 7.8303 18.2353C8.28134 18.6244 8.91242 18.8218 9.51058 18.7637C10.1029 18.7037 10.6779 18.3824 11.0437 17.9042C11.3728 17.4764 11.5471 16.7931 11.2451 16.3169C11.1444 16.1581 10.9953 16.0226 10.8502 15.891C10.765 15.8155 10.6779 15.7361 10.6024 15.6568C10.4494 15.498 10.1107 15.0799 10.2462 14.6153C10.283 14.4837 10.3527 14.3733 10.4146 14.2785C10.4572 14.2107 10.4978 14.1468 10.5269 14.0849C10.6817 13.7268 10.4649 13.299 10.2075 13.0202C9.44864 12.1955 8.11293 12.0155 7.16632 12.6098C6.98242 12.726 6.80626 12.8731 6.63591 13.0125C6.48492 13.1402 6.29327 13.299 6.09195 13.4306C5.5867 13.7519 5.04274 13.8274 4.63622 13.63C4.48716 13.5584 4.36521 13.4558 4.24712 13.359C4.10774 13.2409 4.00128 13.1557 3.87545 13.1112C3.65477 13.0299 3.35859 13.1015 3.12048 13.2912C3.0837 13.3202 3.04886 13.3512 3.01208 13.3841C2.88044 13.508 2.73139 13.6726 2.59588 13.8507C2.5107 13.9629 2.35778 13.9978 2.23195 13.9339C2.10806 13.87 2.04611 13.7248 2.08483 13.5893C3.06434 10.2539 6.45781 7.92322 10.3391 7.92322C12.0329 7.92322 13.6764 8.39749 15.0934 9.29183C15.1864 9.34991 15.2386 9.45638 15.229 9.56478C15.2212 9.67319 15.1515 9.76804 15.0528 9.81063C14.9928 9.83579 14.9134 9.87064 14.8224 9.91516C14.4353 10.1107 13.779 10.5269 13.7752 11.1096C13.7713 11.6109 14.1236 11.8974 14.4992 12.2014L14.6521 12.3252C15.0412 12.635 15.4845 12.9892 15.6761 13.5003C15.9046 14.1042 15.7303 14.7179 15.5619 15.3103C15.4864 15.5755 15.4148 15.831 15.378 16.0768C15.3567 16.2046 15.3316 16.5124 15.5116 16.6479C15.9588 16.9847 16.6266 17.0273 17.2035 16.7544C17.701 16.5163 18.0823 16.0865 18.2779 15.5406C18.3379 15.3741 18.3804 15.1999 18.4037 15.0218C18.423 14.8805 18.5392 14.774 18.6805 14.7682C18.8199 14.7624 18.9476 14.8592 18.9767 14.9986C19.1102 15.6277 19.1102 15.9878 19.1102 16.4872C19.1102 19.1741 17.852 21.6558 15.6587 23.2916C15.5716 23.3574 15.4554 23.3671 15.3567 23.3206C15.2599 23.2722 15.196 23.1735 15.1941 23.0632L15.1864 22.796C15.1631 22.1553 15.0934 21.2222 14.7489 20.5253C14.4256 19.8691 13.7326 19.2109 12.8924 19.2245C12.6621 19.2303 12.3523 19.3154 12.2459 19.5419C12.1704 19.7026 12.2052 19.9059 12.2401 20.1227C12.2594 20.2369 12.2807 20.3569 12.2846 20.4789C12.3233 21.3771 11.4774 22.0895 10.6643 22.3024C10.1494 22.4379 9.61899 22.4418 9.10406 22.4456C8.81176 22.4495 8.52913 22.4514 8.25811 22.4727C7.60381 22.5269 6.74044 23.0032 6.29133 23.5587C6.25068 23.611 6.2139 23.6613 6.17906 23.7136C6.12486 23.7988 6.03 23.8472 5.93515 23.8472ZM2.60169 19.1006C3.19211 20.7537 4.34004 22.192 5.85965 23.1638C6.41135 22.5018 7.4141 21.9559 8.20972 21.8901C8.50396 21.8649 8.79627 21.863 9.08083 21.861C9.5764 21.8572 10.072 21.8533 10.5172 21.7352C11.1192 21.5784 11.7271 21.0732 11.7039 20.504C11.7 20.4189 11.6826 20.3221 11.6651 20.2195C11.6206 19.9523 11.5664 19.6213 11.7174 19.2922C11.94 18.8237 12.4646 18.6476 12.8808 18.6398C13.9591 18.6186 14.865 19.4432 15.2715 20.2659C15.6103 20.9512 15.7148 21.77 15.7536 22.4669C17.5248 20.9512 18.5276 18.8005 18.5276 16.4872C18.5276 16.4369 18.5276 16.3885 18.5276 16.3401C18.2604 16.7486 17.8926 17.0738 17.4513 17.2828C16.6808 17.6487 15.7826 17.5829 15.1612 17.1164C14.8515 16.8821 14.7256 16.4814 14.8011 15.9878C14.8437 15.7071 14.9212 15.4322 14.9967 15.167C15.1496 14.625 15.2909 14.1294 15.1322 13.7074C14.9967 13.3473 14.6366 13.0608 14.2882 12.7821L14.1294 12.6543C13.7326 12.331 13.1867 11.8878 13.1925 11.1057C13.1964 10.5036 13.5971 9.94807 14.3269 9.52026C13.1112 8.85628 11.7426 8.50783 10.3391 8.50783C7.176 8.50783 4.36327 10.1513 3.09725 12.6234C3.4186 12.4762 3.77091 12.4491 4.0729 12.5595C4.3052 12.6427 4.47942 12.7898 4.62073 12.9079C4.71752 12.9892 4.8027 13.0608 4.88788 13.1015C5.11049 13.2099 5.45119 13.146 5.77835 12.937C5.9487 12.8266 6.12486 12.6795 6.26423 12.5614C6.45007 12.4085 6.63978 12.2517 6.85659 12.1142C8.03356 11.3748 9.69448 11.5974 10.6353 12.6234C11.0166 13.0396 11.3302 13.7016 11.0592 14.3191C11.0128 14.4256 10.9547 14.5166 10.9082 14.5901C10.8618 14.6637 10.8192 14.7295 10.8056 14.7779C10.765 14.9173 10.8966 15.1186 11.0205 15.2483C11.0883 15.3199 11.1657 15.3896 11.2393 15.4554C11.4038 15.6045 11.5935 15.7749 11.7368 16.0033C12.2052 16.7408 11.9439 17.6913 11.5064 18.2624C11.0437 18.8644 10.3197 19.2709 9.56672 19.3464C8.80014 19.42 8.02001 19.1703 7.44895 18.6786C7.36764 18.6069 7.29215 18.5334 7.21665 18.4598C7.04243 18.2895 6.89918 18.1501 6.73657 18.0881C6.56041 18.0243 6.3165 18.0514 6.06485 18.1617C5.87126 18.2469 5.67962 18.3727 5.49572 18.4947C5.41635 18.5469 5.33698 18.5973 5.25568 18.6476C4.5975 19.0619 3.98579 19.2612 3.38956 19.2612C3.10306 19.2612 2.83592 19.2051 2.60169 19.1006Z" fill="#703627"/>
<path d="M1.85837 16.4873C1.85837 16.9093 1.89128 17.3255 1.95516 17.7301C1.97645 17.8695 1.99968 18.005 2.02872 18.1405C2.11583 18.3244 2.23198 18.4792 2.37136 18.6051C2.63269 18.8412 2.9792 18.969 3.38959 18.969C3.92968 18.969 4.49107 18.7832 5.10278 18.3999C5.18215 18.3515 5.25958 18.3011 5.33701 18.2489C5.54221 18.1134 5.73579 17.9875 5.94679 17.8927C6.27201 17.7494 6.58754 17.7223 6.83726 17.8153C7.05794 17.8966 7.23217 18.0669 7.41607 18.2469C7.48769 18.3166 7.56125 18.3883 7.63869 18.456C8.09167 18.847 8.69564 19.0677 9.2938 19.0677C9.37511 19.0677 9.45641 19.0639 9.53771 19.0561C10.2114 18.9864 10.8618 18.6225 11.2741 18.0824C11.6536 17.5907 11.882 16.7777 11.4909 16.1601C11.369 15.9685 11.2044 15.8175 11.0438 15.6743C10.9644 15.6026 10.8831 15.5271 10.8115 15.4516C10.6953 15.3316 10.434 15.0141 10.525 14.6967C10.5521 14.6057 10.6063 14.5205 10.6624 14.4315C10.7089 14.3598 10.7573 14.2863 10.7921 14.203C11.007 13.7133 10.7418 13.1693 10.4224 12.8209C9.57256 11.8975 8.07424 11.6942 7.01149 12.3621C6.8121 12.4879 6.6282 12.6408 6.45204 12.788C6.28749 12.9254 6.11521 13.0667 5.93324 13.1848C5.51704 13.452 5.07955 13.5197 4.76208 13.3668C4.64593 13.3087 4.54333 13.2235 4.43299 13.1325C4.29555 13.0164 4.15423 12.9002 3.9742 12.8344C3.65673 12.7202 3.25989 12.8054 2.94048 13.0609C2.89983 13.0938 2.85724 13.1306 2.81466 13.1693C2.65979 13.3126 2.44298 13.4481 2.36555 13.6726C2.30941 13.8217 2.25714 13.9727 2.21262 14.1256C1.98226 14.8748 1.85837 15.6665 1.85837 16.4873Z" fill="#C6E281"/>
<path d="M9.29383 19.3601C8.62404 19.3601 7.95038 19.1123 7.449 18.6787C7.3677 18.607 7.2922 18.5335 7.21671 18.4599C7.04249 18.2896 6.89924 18.1502 6.73663 18.0882C6.56047 18.0244 6.31656 18.0515 6.0649 18.1618C5.87132 18.247 5.67968 18.3728 5.49578 18.4948C5.41641 18.547 5.33704 18.5974 5.25574 18.6477C4.59756 19.0619 3.98585 19.2613 3.38962 19.2613C2.91147 19.2613 2.49334 19.1084 2.17587 18.8219C2.00745 18.6709 1.87001 18.4831 1.76548 18.2663C1.7558 18.247 1.74805 18.2237 1.74418 18.2024C1.71514 18.0611 1.68804 17.9179 1.66675 17.7746C1.60093 17.3488 1.56802 16.9171 1.56802 16.4873C1.56802 15.6511 1.68998 14.8264 1.93389 14.0385C1.97841 13.8856 2.03068 13.7346 2.08682 13.5836C2.08876 13.5797 2.08876 13.5778 2.09069 13.5759C2.17587 13.3262 2.36558 13.1674 2.51657 13.0416C2.55141 13.0125 2.58626 12.9835 2.61723 12.9545C2.66563 12.91 2.71402 12.8674 2.76048 12.8306C3.15732 12.515 3.66063 12.4105 4.07296 12.5596C4.30525 12.6428 4.47948 12.7899 4.62079 12.908C4.71758 12.9893 4.80276 13.0609 4.88793 13.1016C5.11055 13.21 5.45125 13.1461 5.7784 12.9371C5.94875 12.8267 6.12491 12.6796 6.26429 12.5615C6.45013 12.4086 6.63984 12.2518 6.85665 12.1143C8.03362 11.3749 9.69454 11.5975 10.6353 12.6235C11.0167 13.0397 11.3303 13.7017 11.0593 14.3192C11.0128 14.4257 10.9548 14.5167 10.9083 14.5902C10.8618 14.6619 10.8192 14.7296 10.8057 14.778C10.765 14.9174 10.8967 15.1187 11.0206 15.2484C11.0883 15.32 11.1658 15.3897 11.2393 15.4555C11.4039 15.6046 11.5936 15.7749 11.7368 16.0034C12.2053 16.7409 11.9439 17.6914 11.5065 18.2625C11.0438 18.8645 10.3198 19.271 9.56678 19.3465C9.47579 19.3562 9.38481 19.3601 9.29383 19.3601ZM6.52175 17.4688C6.66887 17.4688 6.81019 17.492 6.93795 17.5404C7.21671 17.643 7.41997 17.8424 7.61742 18.034C7.68905 18.1057 7.75873 18.1715 7.83036 18.2354C8.2814 18.6245 8.91248 18.8219 9.51064 18.7638C10.103 18.7038 10.6779 18.3825 11.0438 17.9043C11.3729 17.4765 11.5471 16.7932 11.2451 16.317C11.1445 16.1582 10.9954 16.0227 10.8502 15.8911C10.765 15.8156 10.6779 15.7362 10.6024 15.6569C10.4495 15.4981 10.1107 15.08 10.2462 14.6154C10.283 14.4838 10.3527 14.3734 10.4147 14.2786C10.4572 14.2108 10.4979 14.1469 10.5269 14.085C10.6818 13.7269 10.465 13.299 10.2075 13.0203C9.44869 12.1956 8.11299 12.0156 7.16638 12.6099C6.98248 12.726 6.80632 12.8732 6.63597 13.0125C6.48497 13.1403 6.29333 13.299 6.092 13.4307C5.58676 13.752 5.0428 13.8275 4.63628 13.6301C4.48722 13.5584 4.36526 13.4558 4.24718 13.3591C4.1078 13.241 4.00133 13.1558 3.87551 13.1113C3.65482 13.03 3.35864 13.1016 3.12054 13.2913C3.08376 13.3203 3.04892 13.3513 3.01214 13.3842C2.97342 13.421 2.93083 13.4558 2.88824 13.4926C2.78177 13.5817 2.67918 13.6669 2.64433 13.7598C2.6424 13.7656 2.64046 13.7714 2.63659 13.7772C2.58432 13.9204 2.53593 14.0618 2.4914 14.2089C2.26491 14.9445 2.1507 15.7091 2.1507 16.4873C2.1507 16.8861 2.18167 17.2887 2.24362 17.6856C2.26104 17.8075 2.28234 17.9256 2.3075 18.0437C2.37526 18.1792 2.46237 18.2934 2.56496 18.3863C2.7779 18.578 3.05472 18.6748 3.38962 18.6767C3.87357 18.6767 4.38462 18.5044 4.94794 18.1502C5.02537 18.1037 5.10087 18.0553 5.17637 18.005C5.37963 17.8714 5.59063 17.732 5.82873 17.6256C6.06684 17.521 6.30301 17.4688 6.52175 17.4688Z" fill="#703627"/>
<path d="M13.4829 11.1077C13.479 11.7484 13.9223 12.1104 14.3153 12.4279C14.3656 12.4705 14.4179 12.5111 14.4682 12.5537C14.8476 12.8557 15.2406 13.1674 15.4052 13.6029C15.5968 14.114 15.4439 14.6579 15.2813 15.2309C15.2077 15.4923 15.1303 15.7633 15.0896 16.0324C15.0548 16.255 15.0412 16.6576 15.3355 16.8822C15.6433 17.1126 16.0188 17.2306 16.4118 17.2306C16.7157 17.2306 17.0293 17.1609 17.3274 17.0196C17.9062 16.7447 18.334 16.2531 18.5528 15.6394C18.6186 15.4574 18.6651 15.2639 18.6922 15.0606C18.6709 14.929 18.6438 14.7993 18.6128 14.6715C18.1346 12.5982 16.857 10.8173 15.1129 9.65389C15.0548 9.61517 14.9967 9.57645 14.9386 9.53967C14.8767 9.56677 14.7915 9.60549 14.6967 9.65195C14.2321 9.88425 13.4887 10.3721 13.4829 11.1077Z" fill="#C6E281"/>
<path d="M16.4118 17.523C15.9472 17.523 15.5155 17.3816 15.1612 17.1164C14.8515 16.8822 14.7257 16.4815 14.8012 15.9879C14.8438 15.7072 14.9212 15.4323 14.9967 15.1671C15.1496 14.625 15.2909 14.1295 15.1322 13.7075C14.9967 13.3474 14.6366 13.0609 14.2882 12.7822L14.1295 12.6544C13.7326 12.3311 13.1867 11.8878 13.1925 11.1058C13.1964 10.4418 13.6842 9.83199 14.565 9.39063C14.6695 9.33836 14.7586 9.29964 14.8263 9.27061C14.9135 9.23383 15.0122 9.24157 15.0935 9.2919C15.1554 9.33062 15.2154 9.36933 15.2754 9.40998C17.1222 10.6431 18.4095 12.4879 18.8973 14.6038C18.9283 14.7373 18.9574 14.8748 18.9806 15.0122C18.9845 15.0412 18.9845 15.0703 18.9806 15.0993C18.9515 15.32 18.8993 15.5349 18.8257 15.7401C18.5799 16.4312 18.092 16.979 17.4513 17.2829C17.1203 17.4397 16.7621 17.523 16.4118 17.523ZM13.7752 11.1096C13.7713 11.611 14.1236 11.8975 14.4992 12.2014L14.6521 12.3253C15.0412 12.635 15.4845 12.9893 15.6762 13.5003C15.9046 14.1043 15.7304 14.718 15.5619 15.3103C15.4865 15.5755 15.4148 15.8311 15.378 16.0769C15.3568 16.2047 15.3316 16.5125 15.5116 16.648C15.9588 16.9848 16.6266 17.0274 17.2035 16.7544C17.701 16.5163 18.0824 16.0866 18.2779 15.5407C18.334 15.3878 18.3727 15.229 18.3979 15.0645C18.3785 14.9561 18.3553 14.8477 18.3302 14.7393C17.8752 12.7667 16.675 11.0477 14.9522 9.89781C14.9386 9.88813 14.9251 9.88039 14.9135 9.87264C14.8844 9.88619 14.8534 9.89974 14.8225 9.91523C14.4353 10.1107 13.7791 10.5269 13.7752 11.1096Z" fill="#703627"/>
<path d="M5.93518 23.555C5.99906 23.5917 6.06294 23.6285 6.12683 23.6653C6.91276 24.1047 7.77613 24.4261 8.69371 24.6022C8.77307 24.6177 8.85244 24.6332 8.93375 24.6448C9.3906 24.7203 9.861 24.759 10.3391 24.759C10.6876 24.759 11.0322 24.7377 11.3729 24.6971C11.4561 24.6874 11.5374 24.6777 11.6206 24.6642C12.9757 24.4628 14.2243 23.9499 15.289 23.1988C15.3548 23.1542 15.4206 23.1058 15.4845 23.0575C15.4826 22.9665 15.4806 22.8755 15.4768 22.7845C15.4477 21.9676 15.3529 21.0907 15.0102 20.3957C14.6444 19.6543 13.8468 18.9168 12.8867 18.9322C12.5576 18.94 12.1452 19.0697 11.9826 19.4162C11.8684 19.6601 11.911 19.9214 11.9536 20.1712C11.973 20.2834 11.9904 20.388 11.9943 20.4925C12.0252 21.2359 11.2954 21.834 10.5908 22.0179C10.1068 22.1457 9.58805 22.1496 9.08667 22.1534C8.80598 22.1554 8.51755 22.1592 8.23492 22.1825C7.4877 22.2425 6.55077 22.7748 6.06488 23.3749C6.01648 23.4349 5.9739 23.4949 5.93518 23.555Z" fill="#C6E281"/>
<path d="M10.3392 25.0513C9.8494 25.0513 9.36157 25.0126 8.88536 24.9332C8.80212 24.9216 8.71695 24.9061 8.63371 24.8868C7.70646 24.7106 6.81405 24.3854 5.98552 23.9208C5.91584 23.8821 5.85002 23.8453 5.78614 23.8047C5.71838 23.764 5.66999 23.6982 5.65063 23.6208C5.63321 23.5433 5.64676 23.462 5.69128 23.3962C5.73387 23.3265 5.7842 23.2588 5.84034 23.1891C6.38624 22.5154 7.40447 21.956 8.20977 21.8902C8.50401 21.865 8.79632 21.863 9.08088 21.8611C9.57645 21.8572 10.072 21.8534 10.5172 21.7353C11.1193 21.5785 11.7271 21.0732 11.7039 20.5041C11.7 20.4189 11.6826 20.3221 11.6652 20.2195C11.6207 19.9524 11.5665 19.6214 11.7174 19.2923C11.9401 18.8238 12.4647 18.6477 12.8809 18.6399C13.9591 18.6186 14.8651 19.4433 15.2716 20.266C15.6607 21.0558 15.742 22.0218 15.7691 22.7748L15.7768 23.0497C15.7788 23.1426 15.7362 23.2317 15.6626 23.2878C15.5949 23.342 15.5252 23.3923 15.4536 23.4407C14.3366 24.2286 13.0261 24.7513 11.6632 24.9545C11.5761 24.9661 11.491 24.9778 11.4038 24.9874C11.4019 24.9874 11.4 24.9874 11.4 24.9894C11.0496 25.03 10.6934 25.0513 10.3392 25.0513ZM6.37075 23.4659C7.11604 23.8685 7.91552 24.155 8.74792 24.3138C8.82729 24.3312 8.90085 24.3428 8.97635 24.3544C9.75067 24.4822 10.556 24.5016 11.338 24.4067C11.3419 24.4048 11.3458 24.4048 11.3496 24.4048C11.4251 24.397 11.5026 24.3854 11.5781 24.3757C12.8518 24.186 14.0772 23.6963 15.1225 22.9587C15.1458 22.9432 15.1671 22.9277 15.1903 22.9123L15.1864 22.7961C15.1632 22.1554 15.0935 21.2223 14.7489 20.5254C14.4256 19.8692 13.7326 19.211 12.8925 19.2245C12.6621 19.2304 12.3524 19.3155 12.2459 19.542C12.1704 19.7027 12.2053 19.9059 12.2401 20.1228C12.2595 20.237 12.2808 20.357 12.2846 20.4789C12.3234 21.3772 11.4774 22.0895 10.6644 22.3025C10.1494 22.438 9.61903 22.4419 9.10411 22.4457C8.8118 22.4496 8.52918 22.4515 8.25816 22.4728C7.64064 22.5232 6.83728 22.951 6.37075 23.4659Z" fill="#703627"/>
<path d="M8.72662 26.7625V26.7606C9.72356 26.6038 10.767 26.6909 11.7232 27.0123C11.8297 27.049 11.9362 27.0877 12.0407 27.1303C12.0388 27.109 12.033 27.0877 12.0214 27.0703C11.8704 26.8535 11.7407 26.5767 11.6478 26.2805C11.6245 26.205 11.6052 26.1295 11.5858 26.0521C11.4697 25.5643 11.458 25.0493 11.6207 24.6641C11.5374 24.6777 11.4561 24.6873 11.3729 24.697C11.0322 24.7377 10.6876 24.759 10.3391 24.759C9.861 24.759 9.3906 24.7203 8.93375 24.6448C8.85245 24.6331 8.77308 24.6177 8.69371 24.6022C8.69178 24.6196 8.69371 24.639 8.70146 24.6564C8.85826 25.0474 8.89697 25.4772 8.82148 25.8875C8.80792 25.963 8.7905 26.0405 8.76727 26.116C8.69565 26.3676 8.5795 26.6057 8.4227 26.8167C8.52336 26.7954 8.62402 26.7761 8.72662 26.7625Z" fill="#F57E82"/>
<path d="M12.0407 27.4227C12.004 27.4227 11.9672 27.4149 11.9323 27.4014C11.8317 27.3607 11.731 27.324 11.6284 27.2891C10.7244 26.9852 9.74486 26.9019 8.79438 27.0471C8.78664 27.0491 8.77696 27.051 8.76728 27.0529C8.67243 27.0665 8.57564 27.0839 8.48078 27.1033C8.3627 27.1284 8.24074 27.0762 8.17686 26.9736C8.11104 26.871 8.11685 26.7374 8.18848 26.6406C8.32398 26.4606 8.42464 26.2573 8.48853 26.0347C8.50788 25.9689 8.52337 25.9031 8.53305 25.8373C8.6008 25.4695 8.56596 25.0997 8.43045 24.7668C8.40529 24.6971 8.39754 24.6293 8.40529 24.5635C8.41497 24.4822 8.45949 24.4106 8.52531 24.3622C8.59112 24.3157 8.67436 24.2983 8.75373 24.3157C8.82729 24.3312 8.90085 24.3428 8.97635 24.3544C9.75067 24.4822 10.556 24.5015 11.338 24.4067C11.3419 24.4048 11.3458 24.4048 11.3496 24.4048C11.4251 24.397 11.5026 24.3854 11.5781 24.3757C11.6826 24.3602 11.7871 24.4028 11.851 24.4861C11.9168 24.5693 11.9304 24.6816 11.8897 24.7784C11.7639 25.0745 11.7562 25.514 11.8684 25.9844C11.8859 26.0541 11.9052 26.1276 11.9265 26.1973C12.0098 26.4606 12.1278 26.7122 12.2595 26.9019C12.3059 26.9736 12.3272 27.0433 12.3311 27.1149C12.3369 27.2155 12.2905 27.3104 12.2091 27.3685C12.1608 27.4033 12.1007 27.4227 12.0407 27.4227ZM9.70808 26.3928C10.3004 26.3928 10.8909 26.4703 11.46 26.6271C11.4271 26.5438 11.3961 26.4567 11.369 26.3677C11.3438 26.2844 11.3225 26.2031 11.3032 26.1218C11.2064 25.7211 11.1832 25.3398 11.2296 25.0068C10.5211 25.0784 9.79713 25.0629 9.0983 24.9661C9.16412 25.2797 9.16799 25.6127 9.10798 25.9399C9.0925 26.025 9.07314 26.1121 9.04797 26.1992C9.02474 26.2786 8.99764 26.356 8.96861 26.4335C9.21252 26.4064 9.4603 26.3928 9.70808 26.3928Z" fill="#703627"/>
<path d="M12.5304 27.7672C12.4859 27.7672 12.4395 27.7575 12.3969 27.7343C11.0166 27.0161 9.31507 26.8884 7.84386 27.3936C7.69093 27.4459 7.52639 27.3626 7.47412 27.2097C7.42185 27.0568 7.50316 26.8903 7.65609 26.838C9.27442 26.2844 11.1463 26.4238 12.664 27.2136C12.8073 27.2891 12.8634 27.4652 12.7898 27.6085C12.7376 27.7091 12.635 27.7672 12.5304 27.7672Z" fill="#703627"/>
<path d="M10.5482 8.46331C10.5366 8.46331 10.525 8.46138 10.5153 8.46138C10.3546 8.44202 10.2404 8.29683 10.2578 8.13616C10.2849 7.89419 10.312 7.58252 10.3411 7.27086C10.3682 6.95338 10.3972 6.63591 10.4243 6.39006C10.4417 6.22939 10.5869 6.11324 10.7476 6.1326C10.9063 6.15002 11.0225 6.29521 11.0031 6.45588C10.976 6.69786 10.9489 7.00952 10.9218 7.32119C10.8928 7.63866 10.8657 7.95613 10.8366 8.20198C10.8192 8.35297 10.6934 8.46331 10.5482 8.46331Z" fill="#703627"/>
<path d="M7.67936 25.4714C5.43188 25.4714 3.13602 24.3138 1.68997 22.3741C0.0948644 20.2312 -0.410381 17.2984 0.342648 14.5263C1.02792 11.9982 2.7024 9.70037 5.05827 8.0588C7.31736 6.48306 9.77584 5.84037 11.9827 6.24883C12.1414 6.2798 12.2459 6.43079 12.2169 6.59146C12.1879 6.7502 12.0369 6.85473 11.8762 6.8257C9.82423 6.44434 7.52062 7.05412 5.39123 8.53889C3.14763 10.103 1.55446 12.2847 0.904032 14.6812C0.209077 17.2403 0.691093 20.0531 2.1565 22.0237C3.73031 24.1357 6.38624 25.243 8.76534 24.7822C8.92408 24.7532 9.07701 24.8558 9.10798 25.0145C9.13702 25.1733 9.03442 25.3281 8.87568 25.3572C8.48272 25.4346 8.082 25.4714 7.67936 25.4714Z" fill="#703627"/>
<path d="M20.2737 15.6045C19.6078 15.6916 18.9322 15.7807 18.3069 16.0226C17.6797 16.2665 17.0932 16.6827 16.7796 17.279C16.466 17.8771 16.4757 18.6689 16.9132 19.1819C17.2171 19.5381 17.6739 19.7181 18.1172 19.8652C18.758 20.0801 19.4413 20.2543 20.1034 20.1285C20.7673 20.0026 21.4042 19.4993 21.4836 18.8257C21.5301 18.4327 21.3887 18.0436 21.2397 17.6777C20.9435 16.9499 20.6067 16.2394 20.2737 15.6045Z" fill="#DDA783"/>
<path d="M18.1772 16.1562C19.1238 17.1551 19.4626 18.6922 19.0271 20.0008C18.4212 20.0763 17.7804 19.9137 17.3197 19.5129C16.859 19.1122 16.6054 18.4676 16.7215 17.8656C16.7989 17.4668 17.0274 17.1087 17.3081 16.8144C17.5888 16.5221 17.9236 16.2859 18.1772 16.1562Z" fill="#B27966"/>
<path d="M19.7994 20.4325C19.0793 20.4325 18.2876 20.3183 17.8791 20.1653C17.2209 19.9195 16.7176 19.4665 16.5008 18.9206C16.0982 17.914 16.6886 16.8144 17.4803 16.2511C18.2721 15.6859 19.2477 15.5155 20.1072 15.3665C20.2679 15.3374 20.417 15.4439 20.446 15.6046C20.4731 15.7633 20.3666 15.9143 20.2079 15.9433C19.4084 16.0827 18.5024 16.2395 17.8172 16.7293C17.2267 17.1493 16.7544 17.9837 17.0409 18.7038C17.1977 19.0948 17.5771 19.4278 18.0824 19.6175C18.5683 19.7975 19.7414 19.9195 20.4712 19.8014C20.628 19.7743 20.779 19.8827 20.8061 20.0414C20.8312 20.2021 20.7228 20.3531 20.5641 20.3783C20.3376 20.4151 20.0724 20.4325 19.7994 20.4325Z" fill="#703627"/>
<path d="M56.0859 17.3596C56.2555 17.1677 56.4252 17.0704 56.5976 17.0704C56.7088 17.0704 56.8979 17.1566 57.1648 17.3262C57.4095 17.4986 57.6764 17.6877 57.9656 17.8935C58.2465 18.1242 58.5218 18.3439 58.7887 18.5497C59.0334 18.7582 59.1919 18.9028 59.267 18.9835C59.3782 19.0947 59.4561 19.2059 59.5005 19.3171C59.5144 19.4367 59.5144 19.5396 59.5005 19.6286C59.4783 19.7481 59.4477 19.8343 59.4116 19.8844L59.3226 19.9734C59.1001 20.3154 58.7386 20.6685 58.2437 21.03C57.7321 21.4082 57.1453 21.7502 56.4863 22.0533C55.8023 22.3731 55.0626 22.6289 54.2618 22.8207C53.4443 23.0265 52.6101 23.1322 51.7592 23.1322C51.1948 23.1322 50.5803 23.0654 49.9129 22.932C49.2511 22.7985 48.5893 22.5733 47.922 22.2535C47.2379 21.9504 46.5873 21.525 45.9644 20.9744C45.3415 20.4405 44.791 19.7565 44.3182 18.9167C43.8428 18.1103 43.4618 17.1343 43.1726 15.9915C42.8751 14.857 42.7277 13.5418 42.7277 12.043C42.7277 10.5248 42.953 9.25123 43.4062 8.22795C43.8567 7.20467 44.435 6.36492 45.1413 5.70313C45.8226 5.05802 46.5594 4.55472 47.3547 4.19046C48.1555 3.85122 48.8952 3.5954 49.5792 3.423C50.2605 3.27563 50.8277 3.18387 51.281 3.14494L51.9594 3.11157L52.3042 3.14494C52.5323 3.18387 52.7881 3.22002 53.0717 3.25617C53.3386 3.29509 53.5833 3.3229 53.8058 3.34515L54.1506 3.40076C54.8318 3.53423 55.4658 3.76224 56.0526 4.07924C56.6226 4.40735 57.1342 4.74659 57.5875 5.10251C58.024 5.46677 58.3938 5.80045 58.6997 6.10354C59.0028 6.42331 59.2114 6.64298 59.3226 6.75977C59.5144 6.94607 59.5728 7.13516 59.5005 7.32702C59.4561 7.4021 59.3893 7.47718 59.3003 7.54947C58.9222 7.8331 58.569 8.10004 58.2437 8.3503C57.9601 8.55885 57.6876 8.74793 57.4206 8.91755C57.1537 9.10385 56.9646 9.21508 56.8534 9.25123C56.8144 9.27347 56.7672 9.28459 56.7088 9.28459C56.5364 9.28459 56.4029 9.2123 56.3084 9.06214C56.2194 8.90643 56.1749 8.81188 56.1749 8.77296C56.1749 8.73681 56.047 8.57831 55.7967 8.29469C55.5354 8.02774 55.0432 7.72465 54.3174 7.38264C53.9003 7.19077 53.5222 7.06842 53.1829 7.01559C52.8409 6.9572 52.5489 6.92661 52.3042 6.92661H51.8482C51.787 6.94329 51.7398 6.94886 51.7036 6.94886C50.8861 7.01003 50.1687 7.20189 49.5459 7.52723C48.9007 7.847 48.3585 8.27244 47.922 8.80632C47.4687 9.35689 47.1267 9.97141 46.8987 10.6527C46.6762 11.3506 46.565 12.0986 46.565 12.8994C46.565 13.7308 46.6679 14.5344 46.8764 15.313C47.06 16.0916 47.3658 16.7756 47.7885 17.3596C48.2028 17.9685 48.7395 18.4496 49.4013 18.8055C50.0686 19.1698 50.8639 19.3505 51.7926 19.3505C52.4155 19.3505 52.9744 19.2671 53.4721 19.0947C53.9448 18.9251 54.3619 18.7249 54.7178 18.4941C55.0793 18.2661 55.3741 18.038 55.5965 17.8156C55.8245 17.6098 55.9886 17.4569 56.0859 17.3596Z" fill="#4C7031"/>
<path d="M73.5698 8.60615L73.592 8.57278H73.7143C73.8256 8.57278 73.9646 8.61171 74.137 8.68401C74.2844 8.76743 74.3595 8.93705 74.3595 9.19565C74.3595 9.27907 74.3595 9.46815 74.3595 9.7629C74.3428 10.091 74.3372 10.472 74.3372 10.9085C74.315 11.3618 74.3038 11.8623 74.3038 12.4101C74.2872 12.9606 74.2816 13.5084 74.2816 14.0562C74.2427 15.3687 74.2065 16.8202 74.1704 18.4051C74.1481 18.5998 74.1537 18.7694 74.1926 18.9168C74.2149 19.0502 74.251 19.167 74.3038 19.2616C74.3622 19.3811 74.4484 19.4395 74.5597 19.4395C74.6931 19.4395 74.8377 19.4284 74.9934 19.4062L75.4495 19.3505C75.6191 19.3283 75.7887 19.3005 75.9611 19.2616C75.975 19.2477 76 19.2393 76.039 19.2393C76.0751 19.2171 76.153 19.206 76.2725 19.206C76.3615 19.206 76.4533 19.2365 76.5506 19.2949C76.6229 19.3478 76.6618 19.4506 76.6618 19.6064C76.6618 19.7565 76.6841 19.9567 76.7286 20.207C76.7647 20.4684 76.8009 20.7297 76.8398 20.9967C76.8759 21.3026 76.9232 21.614 76.9844 21.931C76.9983 22.0505 76.9983 22.159 76.9844 22.2535C76.9455 22.3425 76.8871 22.4287 76.8064 22.5094C76.7313 22.5983 76.609 22.6623 76.4394 22.6984C76.3059 22.7207 76.1224 22.7513 75.8944 22.7874C75.6497 22.8486 75.3855 22.8959 75.1047 22.932C74.7988 22.9709 74.4874 22.9987 74.1704 23.021C73.8284 23.0571 73.4947 23.0766 73.1693 23.0766C72.9385 23.0766 72.7189 23.0655 72.5131 23.0432C72.3046 23.0266 72.1266 22.9987 71.9792 22.9543C71.7345 22.9042 71.5454 22.754 71.412 22.5094C71.2563 22.2591 71.1506 21.9727 71.1005 21.6529C71.0171 21.3276 70.9699 20.9939 70.956 20.6519C70.917 20.3126 70.9003 20.0179 70.9003 19.7732H70.778C70.2664 20.7965 69.4989 21.5945 68.4756 22.1646C67.4523 22.7513 66.3735 23.0432 65.239 23.0432C64.4826 23.0432 63.7319 22.8931 62.9922 22.5872C62.2498 22.3064 61.5963 21.8531 61.0346 21.2303C60.4396 20.6241 59.9724 19.8344 59.6332 18.8612C59.2773 17.899 59.0993 16.734 59.0993 15.3687C59.0993 14.54 59.1827 13.8004 59.3551 13.1553C59.5247 12.5269 59.75 11.9652 60.0336 11.4758C60.3228 11.0031 60.6565 10.5943 61.0346 10.2523C61.4128 9.91305 61.8076 9.62665 62.2247 9.39585C63.2842 8.83416 64.3936 8.55054 65.5504 8.55054C66.6098 8.55054 67.6136 8.78411 68.5646 9.25126C69.4906 9.74899 70.258 10.4608 70.867 11.3868L70.956 11.3645L70.8114 9.42922C70.8114 9.2735 70.828 9.12891 70.867 8.99544C70.9031 8.88421 70.9587 8.78133 71.0338 8.68401C71.0922 8.61171 71.2006 8.57278 71.3564 8.57278H71.8013C71.9931 8.57278 72.1933 8.57278 72.4019 8.57278C72.5938 8.59503 72.7828 8.60615 72.9691 8.60615H73.5698ZM62.6252 15.5133C62.6252 16.442 62.7642 17.1594 63.0478 17.671C63.3148 18.2049 63.6484 18.5942 64.0488 18.8389C64.4409 19.1058 64.8664 19.2671 65.3279 19.3172C65.7562 19.3784 66.1427 19.4062 66.4847 19.4062C66.8239 19.4062 67.1965 19.37 67.5969 19.2949C67.9751 19.2143 68.3449 19.0614 68.7092 18.8389C69.0651 18.6109 69.3932 18.2772 69.6991 17.8379C69.9883 17.4097 70.1996 16.8229 70.3331 16.0805C70.4443 15.4354 70.4026 14.857 70.2107 14.3454C70.0022 13.8338 69.6991 13.3972 69.2987 13.0329C68.8816 12.677 68.4005 12.4045 67.8528 12.2099C67.3022 12.0263 66.7544 11.9318 66.2066 11.9318C65.7534 11.9318 65.3085 11.9985 64.8719 12.132C64.4326 12.2822 64.0544 12.4963 63.7374 12.7771C63.3954 13.0663 63.1285 13.4389 62.9366 13.8894C62.728 14.3426 62.6252 14.8848 62.6252 15.5133Z" fill="#4C7031"/>
<path d="M87.4166 23.1876C87.1635 23.1876 86.866 23.1682 86.5268 23.132C86.1848 23.0931 85.8177 23.0097 85.4256 22.8762C85.0252 22.7594 84.6165 22.5759 84.2022 22.3312C83.7851 22.0865 83.3902 21.764 83.0121 21.3635C82.9898 21.6694 82.9676 21.992 82.9453 22.3312C82.9286 22.6732 82.9119 22.9874 82.8897 23.2766C82.873 23.5714 82.8675 23.8272 82.8675 24.0441C82.8452 24.2499 82.8341 24.3722 82.8341 24.4111C82.8341 24.4834 82.8925 24.5585 83.0121 24.6336C83.0482 24.6558 83.0927 24.6669 83.1455 24.6669C83.3012 24.6447 83.4514 24.6336 83.6015 24.6336C83.735 24.6169 83.8796 24.6002 84.0353 24.578C84.1605 24.578 84.2717 24.578 84.369 24.578C84.5386 24.578 84.661 24.6809 84.736 24.8894C84.7805 24.9617 84.8028 25.059 84.8028 25.1786L84.825 27.0249C84.825 27.1945 84.7583 27.3086 84.6248 27.3697C84.4914 27.4198 84.3495 27.4476 84.2022 27.4476H83.8907C83.5849 27.4476 83.1233 27.4476 82.5004 27.4476C81.8692 27.4698 81.2324 27.481 80.5873 27.481C79.9255 27.481 79.3221 27.481 78.7744 27.481C78.2238 27.4949 77.8734 27.5032 77.7177 27.5032C77.5453 27.5032 77.4118 27.4643 77.3173 27.392C77.2283 27.3169 77.1727 27.2307 77.1505 27.1362C77.1115 27.0388 77.0948 26.9526 77.0948 26.8803V26.7357C77.0948 26.7191 77.1004 26.6356 77.1171 26.4799C77.1171 26.3298 77.1282 26.1518 77.1505 25.946C77.1505 25.7514 77.1616 25.5512 77.1838 25.3454C77.1838 25.1369 77.1838 24.9784 77.1838 24.8672C77.1838 24.7476 77.2089 24.6614 77.2617 24.6113C77.2978 24.5724 77.3562 24.5335 77.4396 24.489C77.4897 24.4723 77.5648 24.4667 77.6621 24.4667H78.9968C79.108 24.4667 79.1859 24.3889 79.2304 24.2332C79.2443 24.1581 79.2526 24.083 79.2526 24.0107L79.108 12.243C79.108 12.0373 79.0413 11.9149 78.9078 11.876C78.7577 11.8315 78.6103 11.8093 78.4629 11.8093C78.3656 11.8315 78.2683 11.8426 78.1737 11.8426C78.0764 11.8426 77.9735 11.8426 77.8623 11.8426C77.7511 11.8649 77.6343 11.876 77.5175 11.876C77.4063 11.876 77.3312 11.8287 77.2951 11.7314C77.2339 11.6591 77.1977 11.5729 77.1838 11.4756C77.1616 11.3588 77.1616 11.2253 77.1838 11.0752C77.1977 10.8305 77.2228 10.5941 77.2617 10.3633C77.2839 10.1576 77.3006 9.94902 77.3173 9.74047C77.3173 9.54861 77.3173 9.37899 77.3173 9.22883C77.3173 9.05921 77.3952 8.94521 77.5509 8.88403C77.6843 8.84788 77.8234 8.82842 77.9735 8.82842H78.3183C78.3183 8.81452 78.4963 8.80617 78.8522 8.80617H82.5783C82.784 8.80617 82.9175 8.88125 82.9787 9.02863C83.0371 9.20102 83.0677 9.40123 83.0677 9.62924C83.0454 9.85169 83.0148 10.0797 82.9787 10.3077C82.9398 10.5524 82.9231 10.7526 82.9231 10.9083C82.9231 11.0418 82.9286 11.1475 82.9453 11.2198C82.9453 11.3171 82.9564 11.4033 82.9787 11.4756C83.5265 10.4523 84.1966 9.68486 84.9919 9.17322C85.7704 8.66158 86.6324 8.40576 87.5834 8.40576C88.2285 8.40576 88.9014 8.52811 89.6077 8.77281C90.289 9.03975 90.9786 9.42904 91.6765 9.94068C92.3939 10.4912 92.9918 11.2476 93.4673 12.2097C93.9177 13.1829 94.168 14.4537 94.2125 16.0247C94.2486 17.1592 94.1402 18.1241 93.8899 18.9166C93.6452 19.7341 93.3254 20.407 92.9334 20.9409C92.5107 21.4748 92.0436 21.8919 91.5319 22.1866C91.0036 22.4925 90.4864 22.7094 89.9748 22.8428C89.4631 22.9986 88.9765 23.0931 88.5177 23.132C88.0645 23.1682 87.6974 23.1876 87.4166 23.1876ZM83.2901 15.7911C83.2901 16.4974 83.4236 17.0925 83.6905 17.5819C83.9575 18.0935 84.2967 18.5023 84.7138 18.8054C85.1142 19.1335 85.5591 19.3615 86.0485 19.495C86.5379 19.6451 87.0106 19.7174 87.4722 19.7174C88.5094 19.7174 89.2852 19.406 89.7968 18.7831C90.3085 18.1769 90.6421 17.39 90.7978 16.4251C90.9091 15.7439 90.8701 15.1182 90.6866 14.5454C90.4781 13.9976 90.175 13.5221 89.7746 13.1217C89.3742 12.7436 88.9181 12.4516 88.4065 12.243C87.8782 12.0373 87.3387 11.9316 86.7826 11.9316C86.3294 11.9316 85.8956 12.0067 85.4813 12.1541C85.0642 12.3098 84.6943 12.5406 84.369 12.8437C84.0492 13.1634 83.7934 13.5611 83.6015 14.0338C83.393 14.5232 83.2901 15.1099 83.2901 15.7911Z" fill="#4C7031"/>
<path d="M97.5646 13.2108C97.5785 13.0411 97.5674 12.8771 97.5312 12.7214C97.5145 12.6101 97.4784 12.5073 97.42 12.4099C97.3449 12.3154 97.2309 12.2653 97.0752 12.2653H95.8295C95.6209 12.2653 95.4569 12.2209 95.3401 12.1319C95.2122 12.0512 95.151 11.8983 95.151 11.6759L95.1176 9.48471C95.1176 9.25669 95.1844 9.09264 95.3178 8.99531C95.4291 8.92302 95.5876 8.88409 95.7961 8.88409H100.145C100.337 8.88409 100.501 8.90355 100.634 8.9397C100.768 8.97863 100.89 9.04536 101.001 9.13991C101.096 9.23723 101.146 9.39017 101.146 9.59593V10.2188C101.146 10.5608 101.135 10.9696 101.113 11.4423C101.096 11.9178 101.079 12.4405 101.057 13.0106C101.04 13.5834 101.024 14.1617 101.001 14.7457C100.94 16.0887 100.885 17.5931 100.835 19.2614C100.812 19.3365 100.812 19.4144 100.835 19.495C100.871 19.6452 100.974 19.7175 101.146 19.7175H102.392C102.525 19.7175 102.639 19.7286 102.737 19.7508C102.831 19.7898 102.917 19.8342 102.992 19.8843C103.051 19.9455 103.081 20.0289 103.081 20.1401V22.3313C103.081 22.4508 103.062 22.5537 103.026 22.6427C102.981 22.74 102.915 22.8179 102.826 22.8763C102.728 22.9513 102.584 22.9875 102.392 22.9875H95.7739C95.5792 22.9875 95.4346 22.9513 95.3401 22.8763C95.2511 22.8179 95.1871 22.74 95.151 22.6427C95.1065 22.5537 95.0843 22.4508 95.0843 22.3313V20.1401C95.0843 20.0289 95.1232 19.9455 95.2066 19.8843C95.2567 19.8342 95.3317 19.7898 95.4291 19.7508C95.5236 19.7286 95.6404 19.7175 95.7739 19.7175H97.0196C97.2476 19.7175 97.3699 19.6618 97.3866 19.5506C97.4089 19.4338 97.42 19.2809 97.42 19.0946L97.5646 13.2108ZM101.168 5.92549C101.152 6.21467 101.06 6.47049 100.89 6.69294C100.718 6.94598 100.512 7.15731 100.267 7.32693C100 7.49933 99.714 7.62724 99.4109 7.71622C99.0912 7.81354 98.7686 7.86081 98.4433 7.86081C98.0039 7.86081 97.6341 7.73846 97.331 7.49377C97.0251 7.26576 96.7999 6.97101 96.6525 6.61509C96.5024 6.27585 96.4301 5.89768 96.4301 5.48058C96.4301 5.05793 96.5218 4.66864 96.7082 4.31272C96.8778 3.97348 97.1447 3.67595 97.509 3.42291C97.8649 3.20046 98.3265 3.08923 98.8993 3.08923C99.2163 3.08923 99.5277 3.12816 99.8336 3.20046C100.003 3.23939 100.173 3.34227 100.345 3.51189C100.501 3.70654 100.646 3.93177 100.779 4.19037C100.912 4.45731 101.015 4.74371 101.09 5.0468C101.163 5.35267 101.191 5.64464 101.168 5.92549Z" fill="#4C7031"/>
<path d="M109.384 22.9875C109.368 22.9875 109.351 22.9987 109.329 23.0209H109.162C109.012 23.0209 108.873 22.9736 108.739 22.8763C108.584 22.804 108.506 22.6205 108.506 22.3313C108.506 22.2201 108.517 21.9281 108.539 21.4526C108.539 20.9799 108.545 20.3932 108.561 19.6953C108.584 19.0057 108.6 18.2354 108.617 17.3818C108.617 16.5531 108.628 15.6995 108.65 14.8236C108.687 12.777 108.734 10.4941 108.795 7.97208C108.809 7.76631 108.809 7.56889 108.795 7.38258C108.773 7.22687 108.723 7.0934 108.65 6.98217C108.575 6.87095 108.453 6.81533 108.283 6.81533C108.111 6.81533 107.838 6.81533 107.46 6.81533C107.06 6.83202 106.659 6.85704 106.259 6.89319C105.784 6.91544 105.272 6.94602 104.724 6.98217C104.685 7.00442 104.638 7.01554 104.58 7.01554C104.541 7.01554 104.504 7.01554 104.468 7.01554C104.415 7.03222 104.349 7.03779 104.268 7.03779C104.118 7.03779 103.979 6.99051 103.845 6.89319C103.695 6.82089 103.623 6.6485 103.623 6.38155V4.84664C103.623 4.62419 103.623 4.43511 103.623 4.27939L103.59 4.05694V3.87898C103.59 3.79 103.606 3.67877 103.645 3.5453C103.681 3.42851 103.748 3.31173 103.845 3.2005C103.94 3.10596 104.073 3.05591 104.246 3.05591L116.492 3.11152C116.536 3.11152 116.564 3.10596 116.581 3.08928H116.837C117.006 3.08928 117.187 3.1282 117.382 3.2005C117.565 3.29782 117.66 3.48691 117.66 3.76775C117.66 3.99855 117.671 4.2349 117.693 4.4796C117.693 4.72429 117.699 4.9523 117.715 5.15807L117.771 5.90328C117.793 6.05344 117.785 6.17579 117.749 6.27033C117.71 6.36765 117.654 6.45385 117.582 6.52615C117.498 6.62347 117.365 6.67074 117.181 6.67074L113.4 6.69299C113.302 6.69299 113.216 6.71523 113.144 6.75972C113.069 6.79865 113.002 6.84314 112.944 6.89319C112.883 6.95437 112.855 7.05725 112.855 7.20462C112.855 7.2658 112.866 7.52162 112.888 7.97208C112.888 8.43367 112.894 9.01204 112.91 9.7072C112.91 10.4135 112.921 11.1976 112.944 12.0652C112.958 12.9411 112.977 13.8225 112.999 14.7124C113.022 16.8201 113.058 19.1892 113.111 21.8197C113.133 22.0282 113.124 22.2173 113.088 22.3869C113.049 22.5426 112.983 22.6761 112.888 22.7873C112.791 22.9208 112.638 22.9875 112.432 22.9875H109.384Z" fill="#4C7031"/>
<path d="M124.291 11.5313C124.572 10.6053 125.036 9.80726 125.681 9.1399C126.327 8.4948 127.161 8.17224 128.184 8.17224C128.598 8.17224 129.013 8.23342 129.43 8.3502C129.83 8.46143 130.189 8.60324 130.509 8.77286C130.714 8.88409 130.859 9.01756 130.942 9.17327C131.015 9.32343 131.054 9.47358 131.054 9.6293C131.054 9.8017 131.015 9.97132 130.942 10.1409C130.748 10.558 130.578 10.9418 130.431 11.2977C130.275 11.6036 130.13 11.8983 129.997 12.1875C129.864 12.4934 129.758 12.7102 129.686 12.8437C129.588 13.03 129.446 13.1218 129.263 13.1218C129.152 13.1218 129.054 13.1051 128.974 13.0662C128.899 13.03 128.863 12.9994 128.863 12.9772L128.774 12.8437C128.721 12.7492 128.618 12.6519 128.462 12.5545C128.29 12.46 128.064 12.3627 127.784 12.2653C127.478 12.193 127.088 12.1541 126.616 12.1541C126.14 12.1541 125.743 12.2765 125.426 12.5212C125.098 12.7881 124.831 13.0856 124.625 13.411C124.38 13.7891 124.191 14.2174 124.058 14.6901C124.08 15.5799 124.096 16.3863 124.113 17.1037C124.135 17.7126 124.152 18.291 124.169 18.8388C124.169 19.3893 124.169 19.7119 124.169 19.8064C124.169 19.9177 124.18 19.9927 124.202 20.0289C124.216 20.0678 124.272 20.0845 124.369 20.0845C124.391 20.0845 124.494 20.0789 124.68 20.0623C124.85 20.0623 125.039 20.0623 125.248 20.0623C125.44 20.0623 125.573 20.1179 125.648 20.2291L125.704 20.3959L125.648 22.6204C125.648 22.6955 125.609 22.7511 125.537 22.7873C125.44 22.8262 125.342 22.8624 125.248 22.8985C125.136 22.9208 125.006 22.9319 124.858 22.9319L119.62 22.9875C119.433 22.9875 119.311 22.9041 119.253 22.7317C119.191 22.5621 119.175 22.4592 119.197 22.4202V21.5416C119.197 21.3358 119.197 21.1161 119.197 20.8853C119.175 20.6796 119.164 20.5266 119.164 20.4293C119.164 20.2958 119.203 20.2124 119.286 20.1735C119.336 20.1373 119.392 20.1179 119.453 20.1179H119.564C119.564 20.1346 119.575 20.1401 119.597 20.1401H119.875C119.956 20.1624 120.042 20.1735 120.131 20.1735H120.365C120.437 20.1735 120.493 20.1457 120.532 20.0845C120.554 20.0345 120.571 19.9677 120.587 19.8843C120.587 19.8342 120.587 19.7786 120.587 19.7175V19.1502C120.571 18.8249 120.554 18.4161 120.532 17.9267C120.515 17.454 120.498 16.9313 120.476 16.3584C120.454 15.7968 120.434 15.2573 120.42 14.7457C120.398 14.234 120.387 13.7891 120.387 13.411C120.37 13.0328 120.365 12.7964 120.365 12.6991C120.365 12.5434 120.345 12.4405 120.309 12.3877C120.27 12.3293 120.231 12.282 120.187 12.2431C120.134 12.2209 120.078 12.2097 120.02 12.2097C119.923 12.232 119.82 12.2431 119.709 12.2431C119.611 12.2431 119.497 12.2431 119.364 12.2431C119.23 12.2598 119.077 12.2653 118.908 12.2653C118.758 12.2653 118.635 12.2403 118.541 12.1875C118.443 12.1291 118.377 12.0624 118.341 11.9873C118.288 11.915 118.263 11.8177 118.263 11.6981C118.224 11.4534 118.196 11.2087 118.174 10.964C118.135 10.7582 118.107 10.5274 118.085 10.2744C118.068 10.052 118.062 9.83785 118.062 9.6293C118.062 9.42353 118.129 9.27059 118.263 9.17327C118.374 9.07873 118.502 9.012 118.652 8.97307C118.785 8.93692 118.919 8.91745 119.052 8.91745H119.23L119.62 8.88409C119.87 8.87018 120.187 8.85072 120.565 8.82847C120.921 8.82847 121.299 8.82291 121.7 8.80623C122.1 8.80623 122.439 8.80623 122.723 8.80623C123.026 8.80623 123.251 8.87018 123.401 8.99531C123.557 9.15103 123.66 9.31508 123.713 9.4847C123.807 9.69325 123.857 9.92961 123.857 10.1965C123.88 10.5386 123.896 10.85 123.913 11.1308C123.935 11.3616 123.952 11.5702 123.969 11.7537C123.969 11.9484 123.96 12.0429 123.946 12.0429C123.96 12.0596 123.98 12.0651 124.002 12.0651C124.113 12.0651 124.208 11.8872 124.291 11.5313Z" fill="#4C7031"/>
<path d="M145.382 8.60615L145.404 8.57278H145.526C145.638 8.57278 145.777 8.61171 145.949 8.68401C146.096 8.76743 146.171 8.93705 146.171 9.19565C146.171 9.27907 146.171 9.46815 146.171 9.7629C146.155 10.091 146.149 10.472 146.149 10.9085C146.127 11.3618 146.116 11.8623 146.116 12.4101C146.099 12.9606 146.094 13.5084 146.094 14.0562C146.055 15.3687 146.019 16.8202 145.982 18.4051C145.96 18.5998 145.966 18.7694 146.005 18.9168C146.027 19.0502 146.063 19.167 146.116 19.2616C146.174 19.3811 146.26 19.4395 146.372 19.4395C146.505 19.4395 146.65 19.4284 146.805 19.4062L147.261 19.3505C147.431 19.3283 147.601 19.3005 147.773 19.2616C147.787 19.2477 147.812 19.2393 147.851 19.2393C147.887 19.2171 147.965 19.206 148.085 19.206C148.174 19.206 148.265 19.2365 148.363 19.2949C148.435 19.3478 148.474 19.4506 148.474 19.6064C148.474 19.7565 148.496 19.9567 148.541 20.207C148.577 20.4684 148.613 20.7297 148.652 20.9967C148.688 21.3026 148.735 21.614 148.796 21.931C148.81 22.0505 148.81 22.159 148.796 22.2535C148.757 22.3425 148.699 22.4287 148.618 22.5094C148.543 22.5983 148.421 22.6623 148.251 22.6984C148.118 22.7207 147.934 22.7513 147.706 22.7874C147.462 22.8486 147.198 22.8959 146.917 22.932C146.611 22.9709 146.299 22.9987 145.982 23.021C145.64 23.0571 145.307 23.0766 144.981 23.0766C144.751 23.0766 144.531 23.0655 144.325 23.0432C144.117 23.0266 143.939 22.9987 143.791 22.9543C143.547 22.9042 143.357 22.754 143.224 22.5094C143.068 22.2591 142.963 21.9727 142.913 21.6529C142.829 21.3276 142.782 20.9939 142.768 20.6519C142.729 20.3126 142.712 20.0179 142.712 19.7732H142.59C142.078 20.7965 141.311 21.5945 140.288 22.1646C139.264 22.7513 138.185 23.0432 137.051 23.0432C136.295 23.0432 135.544 22.8931 134.804 22.5872C134.062 22.3064 133.408 21.8531 132.847 21.2303C132.252 20.6241 131.784 19.8344 131.445 18.8612C131.089 17.899 130.911 16.734 130.911 15.3687C130.911 14.54 130.995 13.8004 131.167 13.1553C131.337 12.5269 131.562 11.9652 131.846 11.4758C132.135 11.0031 132.468 10.5943 132.847 10.2523C133.225 9.91305 133.62 9.62665 134.037 9.39585C135.096 8.83416 136.206 8.55054 137.362 8.55054C138.422 8.55054 139.426 8.78411 140.377 9.25126C141.303 9.74899 142.07 10.4608 142.679 11.3868L142.768 11.3645L142.623 9.42922C142.623 9.2735 142.64 9.12891 142.679 8.99544C142.715 8.88421 142.771 8.78133 142.846 8.68401C142.904 8.61171 143.013 8.57278 143.168 8.57278H143.613C143.805 8.57278 144.005 8.57278 144.214 8.57278C144.406 8.59503 144.595 8.60615 144.781 8.60615H145.382ZM134.437 15.5133C134.437 16.442 134.576 17.1594 134.86 17.671C135.127 18.2049 135.46 18.5942 135.861 18.8389C136.253 19.1058 136.678 19.2671 137.14 19.3172C137.568 19.3784 137.955 19.4062 138.297 19.4062C138.636 19.4062 139.009 19.37 139.409 19.2949C139.787 19.2143 140.157 19.0614 140.521 18.8389C140.877 18.6109 141.205 18.2772 141.511 17.8379C141.8 17.4097 142.012 16.8229 142.145 16.0805C142.256 15.4354 142.215 14.857 142.023 14.3454C141.814 13.8338 141.511 13.3972 141.111 13.0329C140.694 12.677 140.213 12.4045 139.665 12.2099C139.114 12.0263 138.566 11.9318 138.019 11.9318C137.565 11.9318 137.12 11.9985 136.684 12.132C136.245 12.2822 135.866 12.4963 135.549 12.7771C135.207 13.0663 134.94 13.4389 134.749 13.8894C134.54 14.3426 134.437 14.8848 134.437 15.5133Z" fill="#4C7031"/>
<path d="M155.302 22.9875C154.507 22.9875 153.806 22.7873 153.2 22.3869C152.591 22.0088 152.06 21.5082 151.61 20.8854C151.148 20.2625 150.767 19.5451 150.464 18.7276C150.166 17.9268 149.922 17.1009 149.73 16.2473C149.521 15.4186 149.368 14.5956 149.274 13.7781C149.163 12.9856 149.088 12.2654 149.051 11.6203C148.99 10.9919 148.962 10.4802 148.962 10.0854L148.929 9.507C148.929 9.47085 148.929 9.4069 148.929 9.31792C148.912 9.22337 148.935 9.11493 148.996 8.99536C149.032 8.90638 149.118 8.82296 149.252 8.73954C149.363 8.66725 149.541 8.62832 149.786 8.62832H150.586C150.845 8.62832 151.081 8.62276 151.298 8.60607H152.032C152.188 8.60607 152.321 8.645 152.433 8.7173C152.527 8.79238 152.622 8.89526 152.711 9.02873C152.791 9.17888 152.833 9.40412 152.833 9.70721V10.8195C152.833 11.37 152.85 11.9957 152.889 12.6992C152.903 13.3971 152.958 14.1284 153.056 14.8903C153.15 15.6633 153.292 16.3696 153.478 17.0147C153.67 17.6821 153.918 18.2326 154.223 18.6609C154.527 19.1002 154.916 19.3282 155.391 19.3505C155.864 19.3143 156.251 19.0474 156.548 18.5496C156.851 18.0769 157.099 17.4708 157.293 16.7367C157.477 15.997 157.619 15.1878 157.716 14.3119C157.81 13.4611 157.877 12.638 157.916 11.8427C157.938 11.0642 157.949 10.3718 157.949 9.76282V8.57271C157.949 8.26962 157.994 8.04438 158.083 7.89423C158.164 7.76076 158.25 7.65787 158.339 7.5828C158.456 7.50216 158.589 7.46045 158.739 7.46045H159.484C159.69 7.48269 159.929 7.49382 160.196 7.49382H160.986C161.253 7.49382 161.442 7.53275 161.553 7.60504C161.67 7.68012 161.756 7.76632 161.809 7.86086C161.845 7.98043 161.865 8.08331 161.865 8.17229C161.848 8.26962 161.842 8.33635 161.842 8.3725V9.02873C161.82 9.46807 161.79 10.027 161.753 10.7082C161.701 11.4062 161.614 12.1931 161.498 13.0662C161.386 13.956 161.233 14.857 161.042 15.769C160.833 16.6977 160.577 17.5987 160.274 18.4718C159.954 19.3393 159.565 20.1151 159.106 20.7964C158.639 21.4804 158.089 22.0199 157.46 22.4203C156.837 22.8207 156.117 23.0098 155.302 22.9875Z" fill="#4C7031"/>
<path d="M166.59 17.5264C166.568 17.5125 166.585 17.6154 166.646 17.8378C166.682 18.0686 166.804 18.3161 167.013 18.583C167.219 18.8667 167.536 19.1225 167.958 19.3505C168.373 19.5952 168.94 19.7175 169.66 19.7175C170.305 19.7175 170.822 19.6703 171.217 19.5729C171.601 19.5006 171.965 19.3783 172.307 19.2059C172.646 19.0363 172.997 18.8667 173.353 18.6943C173.714 18.5246 174.02 18.4384 174.265 18.4384C174.493 18.4384 174.646 18.5246 174.721 18.6943C174.779 18.8277 174.854 18.9807 174.943 19.1503C175.024 19.3227 175.102 19.4812 175.177 19.6285C175.249 19.8009 175.316 19.9344 175.377 20.029L175.455 20.2069L175.544 20.3738C175.58 20.485 175.6 20.6185 175.6 20.7742C175.583 20.9243 175.527 21.0828 175.433 21.2524C175.313 21.4471 175.105 21.6084 174.81 21.7418C174.504 21.8697 174.209 22.0088 173.92 22.1645C173.636 22.3146 173.297 22.4537 172.897 22.5871C172.502 22.7206 172.029 22.8263 171.473 22.8986C170.909 22.9931 170.208 23.0432 169.371 23.0432C168.309 23.0432 167.372 22.8374 166.557 22.4203C165.725 22.0199 165.025 21.4916 164.455 20.8298C163.868 20.1624 163.412 19.4033 163.087 18.5497C162.745 17.721 162.547 16.859 162.497 15.9692C162.436 15.0794 162.522 14.2091 162.753 13.3554C162.959 12.5185 163.326 11.7705 163.854 11.1087C164.366 10.4413 165.028 9.90187 165.845 9.48477C166.646 9.08436 167.614 8.88416 168.748 8.88416C169.844 8.88416 170.795 9.01763 171.595 9.28457C172.374 9.56819 173.025 9.9269 173.553 10.3635C174.087 10.8167 174.504 11.32 174.81 11.8761C175.105 12.4267 175.321 12.9745 175.455 13.5223C175.588 14.0951 175.655 14.6234 175.655 15.1128C175.638 15.6022 175.583 16.0109 175.488 16.3363V16.4809C175.466 16.5921 175.41 16.7033 175.321 16.8145C175.224 16.9341 175.071 17.037 174.865 17.126C174.635 17.2233 174.312 17.2706 173.898 17.2706C173.52 17.2706 172.966 17.2817 172.241 17.3039C171.52 17.3429 170.795 17.3679 170.06 17.3818C169.296 17.4263 168.603 17.4569 167.981 17.4708C167.335 17.5097 166.907 17.5264 166.701 17.5264H166.59ZM172.074 14.4566L172.107 14.0339C172.107 13.767 172.029 13.475 171.873 13.1552C171.723 12.8521 171.468 12.5657 171.106 12.2988C170.728 12.0318 170.166 11.8984 169.427 11.8984H169.115C169.004 11.8984 168.893 11.9095 168.781 11.9317C168.003 12.0068 167.43 12.2042 167.069 12.5212C166.69 12.8493 166.446 13.183 166.334 13.5223C166.201 13.8782 166.151 14.2007 166.19 14.4899L166.245 14.9126C166.268 14.9348 166.473 14.946 166.868 14.946C167.252 14.9626 167.672 14.9682 168.125 14.9682H168.726C168.909 14.9682 169.082 14.9626 169.237 14.946C169.482 14.9237 169.763 14.8848 170.083 14.8236C170.408 14.7875 170.722 14.743 171.028 14.6901C171.309 14.6317 171.554 14.5733 171.762 14.5122L172.074 14.4566Z" fill="#4C7031"/>
<path d="M180.689 22.2757V22.3869C180.672 22.4842 180.644 22.5704 180.6 22.6427C180.561 22.74 180.505 22.8262 180.433 22.8985C180.358 22.9819 180.244 23.0209 180.088 23.0209C179.938 23.0209 179.724 23.0097 179.443 22.9875C179.154 22.9875 178.867 22.9764 178.586 22.9541C178.222 22.9541 177.852 22.9486 177.474 22.9319C177.377 22.9319 177.302 22.9041 177.252 22.8429C177.177 22.7929 177.118 22.7066 177.074 22.5871C177.021 22.4759 176.996 22.3062 176.996 22.0754C176.996 21.9642 176.996 21.6166 176.996 21.0299C176.974 20.4599 176.962 19.748 176.962 18.8944C176.946 18.0435 176.94 17.0759 176.94 15.9914C176.918 14.932 176.899 13.8531 176.885 12.7547C176.862 11.6731 176.851 10.6136 176.851 9.57369C176.829 8.52817 176.818 7.59943 176.818 6.78192C176.801 5.9672 176.796 5.31375 176.796 4.82435C176.773 4.3294 176.762 4.07358 176.762 4.0569V3.85669C176.762 3.76215 176.779 3.66483 176.818 3.5675C176.862 3.47296 176.929 3.37842 177.018 3.28944C177.113 3.2088 177.246 3.16709 177.418 3.16709C177.61 3.16709 177.858 3.16153 178.164 3.14485C178.445 3.14485 178.72 3.13372 178.987 3.11148C179.326 3.11148 179.676 3.10592 180.032 3.08923C180.224 3.08923 180.388 3.11704 180.522 3.16709C180.655 3.21158 180.766 3.28944 180.855 3.40067C180.95 3.53414 181 3.73434 181 4.00128C181 4.12919 181 4.4879 181 5.08017C180.983 5.66689 180.978 6.3982 180.978 7.27132C180.955 8.13888 180.936 9.11488 180.922 10.1965C180.9 11.2949 180.878 12.3933 180.855 13.4888C180.816 14.6094 180.791 15.6911 180.778 16.7366C180.755 17.7988 180.744 18.7359 180.744 19.5506C180.727 20.3681 180.722 21.0188 180.722 21.5082L180.689 22.2757Z" fill="#4C7031"/>
</svg>
