<svg width="127" height="101" viewBox="0 0 127 101" fill="none" xmlns="http://www.w3.org/2000/svg">
<path d="M67.6887 63.929C69.3241 70.3665 70.0377 77.0384 69.8033 83.679C69.7356 85.679 69.5741 87.6947 68.9752 89.6009C68.371 91.5072 67.2929 93.3145 65.6731 94.4863C64.0533 95.653 61.8502 96.1009 60.0012 95.3457C57.7043 94.4134 56.4491 91.9863 55.3918 89.7467C54.6887 91.5332 54.2148 93.3145 53.2408 94.8405C52.2616 96.3665 50.6835 97.6165 48.8762 97.7259C47.496 97.8092 46.147 97.2259 45.0533 96.3822C43.9595 95.5332 43.0845 94.4447 42.2252 93.3665C40.2408 94.0749 37.8762 94.3353 35.6523 93.877C34.4075 96.6478 31.3345 98.9447 28.0168 99.8092C24.6991 100.669 21.1679 100.262 17.8606 99.3561C13.0533 98.2259 8.32934 95.1165 5.4335 90.7467C2.11579 85.7363 1.28246 79.3301 2.41788 73.429C3.55329 67.528 6.52725 62.1009 10.246 57.3874C13.97 52.6738 18.4387 48.6061 23.4648 44.7988C37.9856 46.4395 51.9023 53.028 67.6887 63.929Z" fill="#DDA783"/>
<path d="M69.0844 87.7623C65.2824 86.3092 61.0011 86.1581 57.1053 87.3352C56.5115 87.5175 55.8709 87.7727 55.5792 88.3196C55.3969 88.6634 55.3865 89.0748 55.4126 89.4654C55.5688 91.8613 57.1313 94.1061 59.3188 95.0852C61.5063 96.0592 64.2199 95.7206 66.1053 94.2415C67.9855 92.7571 68.9542 90.1946 69.0844 87.7623Z" fill="#B27966"/>
<path d="M40.5636 90.7729C44.9438 88.752 50.173 88.6739 54.6105 90.5645C54.5011 92.627 53.5428 94.627 52.0115 96.002C51.2042 96.726 50.2251 97.2885 49.1573 97.4812C47.3813 97.8041 45.548 97.0698 44.1417 95.9343C42.7407 94.7989 41.6938 93.2937 40.5636 90.7729Z" fill="#B27966"/>
<path d="M38.5219 81.7832C36.8344 81.9082 35.1417 82.0332 33.4542 82.1582C34.4855 83.9551 35.5271 85.7832 35.9959 87.804C36.4698 89.8197 36.3032 92.0853 35.0688 93.752C37.2928 94.1634 39.6261 93.9499 41.7303 93.1322C40.1001 89.8717 39.1417 86.278 38.5219 81.7832Z" fill="#FFDCC4"/>
<path d="M32.996 82.3821C25.923 84.2987 19.9855 89.9758 17.746 96.9654C17.4907 97.7571 17.3085 98.705 17.8345 99.3456C18.3241 99.9446 19.1991 100.002 19.9699 100.007C23.1105 100.017 26.3189 99.9394 29.2616 98.8508C32.2043 97.7623 34.8814 95.4862 35.647 92.4394C36.5324 88.9342 34.7876 85.356 32.996 82.3821Z" fill="#B27966"/>
<path d="M22.4856 49.8821C19.9856 45.6217 19.7981 40.0905 21.996 35.6686C19.3502 35.0748 17.3137 32.455 17.3814 29.7415C17.4543 27.0228 19.6314 24.5175 22.3033 24.0644C24.4543 23.6998 26.6158 24.5384 28.5949 25.455C29.8554 23.6425 31.8189 22.33 33.9752 21.8665C33.3762 19.4238 33.9752 16.8873 35.5845 15.304C37.1991 13.7207 39.7356 13.1634 41.8606 13.929C43.9856 14.6946 45.5897 16.7467 46.0533 18.9863C51.9387 18.9394 57.871 19.7519 63.3658 21.8613C68.8606 23.9759 73.9022 27.429 77.4752 32.1061C81.0533 36.7832 83.0897 42.7207 82.5324 48.8925C81.6939 55.8509 77.0793 62.2259 70.7408 65.1946C64.496 68.1165 57.1106 67.7311 50.5481 65.6165C43.9856 63.5019 38.0689 59.7936 32.2304 56.1217C29.4335 54.3613 24.996 54.1634 22.4856 49.8821Z" fill="#DDA783"/>
<path d="M48.1626 41.1062C47.3397 41.8093 46.4751 42.5801 46.1939 43.627C46.0949 43.9916 46.0845 44.4083 46.3084 44.7156C46.5428 45.0333 46.9855 45.1374 47.3762 45.0697C47.7668 45.0072 48.1157 44.8041 48.4543 44.5958C49.1887 44.1426 49.9074 43.6635 50.5689 43.1114C50.9491 42.7885 51.3189 42.4291 51.5272 41.976C51.7303 41.5229 51.7512 40.9551 51.4543 40.5541C51.1314 40.1166 50.5168 39.9812 49.9803 40.0854C49.4439 40.1895 48.9334 40.4395 48.1626 41.1062Z" fill="#703627"/>
<path d="M26.2408 37.4396C24.0012 37.4396 22.0741 37.0073 20.4908 36.1531C18.0585 34.8354 16.4751 32.4083 16.4647 29.9708C16.4491 27.6062 17.9491 25.2521 20.1835 24.1166C22.2147 23.0906 24.7772 23.0437 27.0533 23.9864C29.0428 24.8146 30.8501 26.4031 32.1418 28.4552C32.397 28.8614 32.2772 29.3927 31.871 29.6427C31.4751 29.8979 30.9439 29.7729 30.6887 29.3719C29.5845 27.6166 28.0585 26.2677 26.397 25.575C24.5793 24.8198 22.5481 24.8458 20.9595 25.6531C19.2876 26.4969 18.1731 28.2312 18.1835 29.9656C18.1939 31.7833 19.4178 33.6166 21.3085 34.6375C22.9074 35.5021 24.9751 35.851 27.4647 35.6739C27.9387 35.6427 28.3449 35.9969 28.3814 36.4708C28.4126 36.9448 28.0585 37.3562 27.5845 37.3927C27.1262 37.4239 26.6783 37.4396 26.2408 37.4396Z" fill="#703627"/>
<path d="M28.9856 31.9083C28.7043 31.9083 28.4283 31.7729 28.2668 31.5177C26.9022 29.4291 24.1627 28.3406 21.7408 28.9291C21.2824 29.0437 20.8137 28.7573 20.6991 28.2989C20.5897 27.8354 20.871 27.3719 21.3345 27.2573C24.4387 26.5021 27.9595 27.8979 29.7043 30.5802C29.9647 30.976 29.8502 31.5073 29.4543 31.7677C29.3085 31.8614 29.147 31.9083 28.9856 31.9083Z" fill="#703627"/>
<path d="M34.5689 22.1062C34.1991 22.1062 33.8553 21.8614 33.746 21.4864C32.9803 18.8198 33.423 16.476 35.0272 14.7C36.8605 12.6791 40.0168 11.9864 42.522 13.0541C45.0064 14.1114 46.2668 16.2364 46.0741 19.0333C46.0428 19.5073 45.6314 19.8614 45.1574 19.8302C44.6835 19.7989 44.3293 19.3875 44.3605 18.9135C44.5012 16.8458 43.6574 15.4083 41.8501 14.6375C39.9907 13.8458 37.6574 14.3562 36.3032 15.8562C35.1001 17.1843 34.7928 18.9187 35.397 21.0073C35.5272 21.4656 35.2668 21.9395 34.8085 22.075C34.7303 22.0958 34.647 22.1062 34.5689 22.1062Z" fill="#703627"/>
<path d="M22.7043 50.5905C22.4283 50.5905 22.1574 50.4551 21.9908 50.2103C18.7095 45.3822 18.3241 39.3978 21.0376 35.3197C21.298 34.9239 21.8345 34.8145 22.2251 35.0801C22.621 35.3405 22.7303 35.877 22.4647 36.2728C20.1366 39.778 20.5168 44.9916 23.4126 49.2468C23.6783 49.6374 23.5793 50.1739 23.1835 50.4395C23.0376 50.5385 22.871 50.5905 22.7043 50.5905Z" fill="#703627"/>
<path d="M48.4856 49.7937C48.4856 50.0958 48.4283 50.3927 48.3085 50.6739C48.1939 50.9604 48.0272 51.2104 47.8085 51.4239C47.5949 51.6427 47.3449 51.8093 47.0585 51.9239C46.7772 52.0437 46.4803 52.101 46.1783 52.101C45.871 52.101 45.5741 52.0437 45.2928 51.9239C45.0116 51.8093 44.7616 51.6427 44.5428 51.4239C44.3293 51.2104 44.1626 50.9604 44.0428 50.6739C43.9283 50.3927 43.871 50.0958 43.871 49.7937C43.871 49.4864 43.9283 49.1895 44.0428 48.9083C44.1626 48.6218 44.3293 48.377 44.5428 48.1583C44.7616 47.9395 45.0116 47.7729 45.2928 47.6583C45.5741 47.5385 45.871 47.4812 46.1783 47.4812C46.4803 47.4812 46.7772 47.5385 47.0585 47.6583C47.3449 47.7729 47.5949 47.9395 47.8085 48.1583C48.0272 48.377 48.1939 48.6218 48.3085 48.9083C48.4283 49.1895 48.4856 49.4864 48.4856 49.7937Z" fill="#FAC4AF"/>
<path d="M67.2876 34.8144C69.1365 34.2154 71.048 33.7467 72.9907 33.7415C74.9334 33.7415 76.9178 34.2362 78.4646 35.4133C80.2511 36.7779 80.6209 38.0644 81.4126 40.1737C82.2719 42.4394 82.0532 43.7831 82.3344 46.1894C82.4959 47.5852 81.8449 51.9029 81.2719 53.1842C80.3188 55.3144 80.2251 55.4185 78.0896 56.3456C76.048 57.2362 73.9751 58.1321 71.7771 58.4706C69.574 58.8144 67.1938 58.5487 65.3709 57.2727C64.1157 56.3873 63.2042 55.0904 62.4959 53.7258C60.9959 50.8196 60.3344 47.5435 60.0532 44.2831C59.9126 42.6425 59.8813 40.9133 60.6053 39.4342C61.673 37.2623 63.9855 35.8769 67.2876 34.8144Z" fill="#B27966"/>
<path d="M65.7772 40.6427C66.2824 41.0073 66.6679 41.549 66.8397 42.1479C66.9126 42.3979 66.9335 42.7104 66.7356 42.8771C66.5429 43.0333 66.2564 42.9656 66.0168 42.8875C65.5064 42.726 64.9856 42.5542 64.5376 42.2521C64.121 41.9708 63.7616 41.4969 63.8606 41.0073C63.9387 40.6323 64.2824 40.3458 64.6574 40.2833C65.0324 40.2156 65.4022 40.3719 65.7772 40.6427Z" fill="#703627"/>
<path d="M73.2408 38.5175C73.0012 39.0956 72.9595 39.7571 73.1262 40.3612C73.1939 40.6112 73.3397 40.8873 73.5949 40.9185C73.8449 40.955 74.0533 40.7467 74.2147 40.554C74.5637 40.1425 74.9179 39.7258 75.1418 39.2362C75.3449 38.7779 75.4074 38.1842 75.0585 37.8196C74.7981 37.5383 74.3554 37.481 74.0012 37.6217C73.647 37.7623 73.4179 38.0956 73.2408 38.5175Z" fill="#703627"/>
<path d="M70.0219 54.0591C68.8865 54.0591 67.7198 53.4133 66.9334 52.3143C66.7251 52.0227 66.7928 51.6216 67.0844 51.4133C67.3761 51.205 67.7771 51.2727 67.9803 51.5643C68.5948 52.4237 69.5375 52.8977 70.3344 52.7414C71.0844 52.5904 71.7407 51.8664 71.9959 50.9185L71.7407 50.007C71.2355 48.1737 70.7303 46.356 70.2928 44.7362C70.2042 44.3925 70.4073 44.0383 70.7511 43.9445C71.1053 43.856 71.449 44.0591 71.5376 44.4029C71.9698 46.0175 72.4751 47.83 72.9855 49.6581L73.2823 50.7362C73.3136 50.8352 73.3136 50.9445 73.2928 51.0487C72.949 52.5852 71.8865 53.7466 70.5844 54.007C70.3969 54.0435 70.2094 54.0591 70.0219 54.0591Z" fill="#703627"/>
<path d="M74.8709 52.4396C73.9751 52.4396 73.0636 52.0542 72.324 51.3302C72.074 51.0802 72.0688 50.6688 72.3188 50.4188C72.5688 50.1636 72.9751 50.1584 73.2303 50.4084C73.9386 51.1063 74.8709 51.3354 75.6001 50.9813C76.3605 50.6219 76.9126 49.6271 76.9751 48.5125C76.9959 48.1584 77.3032 47.8875 77.6522 47.9084C78.0063 47.924 78.2824 48.2313 78.2615 48.5854C78.173 50.1792 77.3449 51.5802 76.1574 52.1479C75.7511 52.3406 75.3136 52.4396 74.8709 52.4396Z" fill="#703627"/>
<path d="M59.8449 68.1061C56.3085 68.1061 52.6678 67.4446 49.147 66.1321C48.7043 65.9654 48.4803 65.4706 48.6418 65.0279C48.8085 64.5852 49.3085 64.3561 49.746 64.5227C55.5168 66.6738 61.6262 66.9758 66.9387 65.3665C72.6939 63.6321 77.5012 59.5696 79.8085 54.5071C82.0793 49.5175 82.022 43.2727 79.6522 37.8092C77.4751 32.7831 73.3762 28.3144 68.1105 25.2102C63.4439 22.4602 57.8501 20.7102 51.496 20.0019C44.4595 19.2206 34.246 20.7675 28.4595 26.0071C28.1053 26.3248 27.5637 26.2988 27.246 25.9446C26.9283 25.5956 26.9543 25.0488 27.3085 24.7311C33.522 19.1061 44.0376 17.4394 51.6835 18.2936C58.2824 19.0279 64.1001 20.8561 68.9803 23.7311C74.5585 27.0123 78.9074 31.7675 81.2303 37.1217C83.7876 43.0279 83.8449 49.7936 81.371 55.2206C78.8658 60.7311 73.6574 65.1373 67.4387 67.0123C65.022 67.7415 62.4595 68.1061 59.8449 68.1061Z" fill="#703627"/>
<path d="M66.2772 32.4083C66.1105 32.4083 65.9439 32.3614 65.798 32.2624L61.7928 29.5645C61.397 29.2989 61.2928 28.7624 61.5584 28.3718C61.8241 27.976 62.3605 27.8718 62.7512 28.1374L66.7564 30.8353C67.1522 31.101 67.2564 31.6322 66.9907 32.028C66.8241 32.2728 66.5532 32.4083 66.2772 32.4083Z" fill="#C48C71"/>
<path d="M58.2668 30.0124C58.1678 30.0124 58.0637 29.9967 57.9595 29.9551L53.0949 28.1009C52.6522 27.929 52.4335 27.4342 52.6001 26.9915C52.772 26.5436 53.272 26.3249 53.7095 26.4915L58.5741 28.3509C59.0168 28.5228 59.2407 29.0176 59.0689 29.4603C58.9387 29.804 58.6157 30.0124 58.2668 30.0124Z" fill="#C48C71"/>
<path d="M63.1418 25.5279C63.0585 25.5279 62.9751 25.5123 62.8866 25.4863L58.3033 24.08C57.8501 23.9394 57.5949 23.4602 57.7356 23.0071C57.8762 22.5488 58.3554 22.2988 58.8085 22.4342L63.3918 23.8456C63.8449 23.981 64.1001 24.4654 63.9647 24.9185C63.8501 25.2883 63.5064 25.5279 63.1418 25.5279Z" fill="#C48C71"/>
<path d="M52.4126 24.0072C52.3501 24.0072 52.2824 24.002 52.2147 23.9863L47.3189 22.8353C46.8605 22.7259 46.5741 22.2676 46.6782 21.804C46.7876 21.3405 47.2407 21.054 47.7147 21.1634L52.6105 22.3092C53.0689 22.4186 53.3553 22.8822 53.2512 23.3457C53.1574 23.7415 52.8032 24.0072 52.4126 24.0072Z" fill="#C48C71"/>
<path d="M41.9803 28.0854C41.5376 28.0854 41.1574 27.7417 41.1261 27.2886C41.0897 26.8146 41.4438 26.4031 41.9178 26.3667L47.3449 25.9552C47.8345 25.9188 48.2303 26.2729 48.2667 26.7469C48.3032 27.2156 47.949 27.6323 47.4751 27.6688L42.048 28.0802C42.0219 28.0854 42.0011 28.0854 41.9803 28.0854Z" fill="#C48C71"/>
<path d="M48.5636 98.5228C47.2199 98.5228 45.824 98.0488 44.5897 97.1478C43.0115 95.9968 41.949 94.3457 41.2824 93.2103C37.8397 87.278 36.8032 80.054 38.4438 73.3926C38.5584 72.929 39.0272 72.6478 39.4803 72.7624C39.9438 72.877 40.2251 73.3405 40.1105 73.804C38.574 80.0384 39.5428 86.7936 42.7719 92.3457C43.699 93.9395 44.6001 95.0228 45.6001 95.7572C46.8084 96.6374 48.2407 96.9916 49.4334 96.7051C51.3084 96.2468 52.7563 94.3249 53.7459 90.9863C55.1938 86.1165 55.798 81.0697 55.548 75.9915C55.5272 75.5176 55.8917 75.1113 56.3657 75.0905C56.824 75.0749 57.2407 75.4343 57.2667 75.9082C57.5219 81.179 56.8917 86.4186 55.3917 91.4759C54.2199 95.4447 52.3501 97.7676 49.8397 98.377C49.423 98.4759 48.9959 98.5228 48.5636 98.5228Z" fill="#703627"/>
<path d="M61.7094 96.4811C60.7355 96.4811 59.7615 96.2936 58.8605 95.9082C56.6417 94.9499 54.9126 92.3249 54.3448 89.054C54.2667 88.5853 54.5792 88.1426 55.048 88.0644C55.5115 87.9811 55.9594 88.2936 56.0376 88.7624C56.4959 91.4238 57.8709 93.6061 59.5428 94.3249C61.1365 95.0124 63.0584 94.8926 64.5532 94.0019C66.5844 92.7988 67.9178 90.2467 68.5115 86.4186C69.5636 79.679 68.7146 73.7051 67.7303 66.7936L67.6001 65.8873C67.5376 65.4186 67.8605 64.9811 68.3344 64.9134C68.8032 64.8457 69.2355 65.1738 69.3032 65.6478L69.4334 66.5488C70.3917 73.304 71.3032 79.6894 70.2094 86.6842C69.5323 91.0436 67.923 94.0019 65.4282 95.4811C64.3136 96.1426 63.0115 96.4811 61.7094 96.4811Z" fill="#703627"/>
<path d="M23.8189 100.966C21.0897 100.966 18.1366 100.341 15.0011 99.0958C10.3761 97.2572 6.74594 94.4552 4.50635 90.9864C-0.410314 83.377 -4.88948 67.3562 20.3397 45.5489C20.6939 45.2364 21.2407 45.2781 21.548 45.6375C21.8605 45.9968 21.8189 46.5385 21.4595 46.851C-2.78011 67.8041 1.33448 82.9135 5.94906 90.0541C8.53239 94.0489 12.6418 96.3093 15.6366 97.4968C19.7824 99.1427 23.5376 99.6322 26.8136 98.95C30.7147 98.1322 33.8657 95.4812 34.8449 92.2C36.0064 88.2885 34.0532 84.226 31.8345 81.726C29.1886 78.7416 25.6053 76.7572 22.1366 74.8354C21.7199 74.601 21.5689 74.0802 21.798 73.6635C22.0272 73.2468 22.5532 73.101 22.9647 73.3302C26.3918 75.2312 30.2772 77.3822 33.1209 80.5802C36.3397 84.2156 37.6314 88.851 36.4907 92.6895C35.3345 96.5697 31.673 99.6843 27.1626 100.632C26.0897 100.856 24.9751 100.966 23.8189 100.966Z" fill="#703627"/>
<path d="M37.9074 94.8508C36.9283 94.8508 35.9491 94.7727 35.0116 94.6164C34.5428 94.5383 34.2303 94.0956 34.3085 93.6269C34.3866 93.1581 34.8293 92.8404 35.2928 92.9185C37.5376 93.2935 40.1574 93.1529 42.1418 92.5487C42.5949 92.4133 43.0741 92.6685 43.2095 93.1217C43.3501 93.58 43.0949 94.0591 42.6366 94.1946C41.2199 94.6269 39.5689 94.8508 37.9074 94.8508Z" fill="#703627"/>
<path d="M14.5949 58.6739C14.4335 58.6739 14.2772 58.6322 14.1314 58.5385C13.7303 58.2833 13.6158 57.752 13.871 57.351C15.1001 55.4135 16.7408 53.6791 18.6106 52.3406C18.9908 52.0645 19.5324 52.1531 19.8085 52.5385C20.0845 52.9239 19.996 53.4604 19.6106 53.7364C17.9178 54.9499 16.4335 56.5176 15.3189 58.2781C15.1522 58.5333 14.8762 58.6739 14.5949 58.6739Z" fill="#C58D72"/>
<path d="M16.0689 66.8979C15.9595 66.8979 15.8501 66.8771 15.7407 66.8302C15.3032 66.6479 15.0949 66.1479 15.2772 65.7104C16.4022 63.0021 17.8137 60.4031 19.4699 57.9864C19.7355 57.5958 20.272 57.4917 20.6626 57.7625C21.0532 58.0281 21.1522 58.5646 20.8866 58.9552C19.298 61.2781 17.9439 63.7729 16.8605 66.3667C16.7251 66.7 16.4074 66.8979 16.0689 66.8979Z" fill="#C58D72"/>
<path d="M7.86047 75.6165C7.85005 75.6165 7.83443 75.6165 7.8188 75.6165C7.34484 75.5956 6.98026 75.1894 7.00109 74.7154C7.1938 70.8456 8.21464 66.9706 9.95422 63.5123C10.1678 63.0852 10.6782 62.9133 11.1053 63.1269C11.5271 63.3404 11.699 63.856 11.4855 64.2831C9.85526 67.5331 8.90214 71.1685 8.71984 74.7987C8.6938 75.2623 8.3188 75.6165 7.86047 75.6165Z" fill="#C58D72"/>
<path d="M104.663 76.9602L117.142 75.4602C117.142 75.4602 120.017 77.4915 119.262 82.5644L110.736 81.5748L105.652 80.4394L104.663 76.9602Z" fill="#80452F"/>
<path d="M104.22 77.5487L122.553 82.3092L119.564 91.5904L110.736 88.6112L102.282 81.4654L100.527 77.3977L104.22 77.5487Z" fill="#80452F"/>
<path d="M93.4282 77.4395L82.9959 75.4238C82.9959 75.4238 78.8501 78.252 79.1574 82.8613L87.5376 83.5905L95.147 80.9551L93.4282 77.4395Z" fill="#80452F"/>
<path d="M112.564 87.9812L103.345 78.2781L98.3658 78.6843L97.746 79.6375L104.694 93.5958L112.564 87.9812Z" fill="#80452F"/>
<path d="M76.3761 82.6426L94.3396 77.3613L96.9386 78.4238L93.1365 86.2311L90.3188 87.9134L79.3605 91.9447L76.3761 82.6426Z" fill="#80452F"/>
<path d="M101.074 78.3145L95.6418 93.5072L87.4491 88.3561L95.621 77.5488L101.074 78.3145Z" fill="#80452F"/>
<path d="M81.1053 86.1479C81.3188 86.7572 81.4386 87.377 81.4699 88.002C81.4959 88.627 81.4282 89.2156 81.2616 89.7572C81.1001 90.2989 80.8501 90.7624 80.522 91.1426C80.1886 91.5229 79.798 91.7937 79.3553 91.9499C78.9074 92.1062 78.4334 92.1426 77.9386 92.0541C77.4438 91.9656 76.9595 91.7572 76.4907 91.4395C76.022 91.1166 75.6053 90.7051 75.2355 90.1999C74.8657 89.6947 74.5741 89.1374 74.3553 88.5229C74.1418 87.9135 74.022 87.2937 73.9959 86.6687C73.9647 86.0437 74.0324 85.4604 74.1991 84.9135C74.3657 84.3718 74.6105 83.9083 74.9438 83.5281C75.272 83.1479 75.6626 82.8822 76.1105 82.7208C76.5584 82.5645 77.0272 82.5281 77.522 82.6166C78.022 82.7051 78.5011 82.9135 78.9699 83.2312C79.4386 83.5541 79.8553 83.9656 80.2251 84.4708C80.5949 84.976 80.8918 85.5333 81.1053 86.1479Z" fill="#6F3A27"/>
<path d="M122.553 82.3094C122.996 82.476 123.381 82.7521 123.704 83.1375C124.027 83.5229 124.267 83.9916 124.423 84.5385C124.574 85.0854 124.631 85.6739 124.59 86.2989C124.553 86.9239 124.418 87.5385 124.194 88.1479C123.965 88.7521 123.663 89.3041 123.282 89.8041C122.902 90.2989 122.475 90.7052 122.001 91.0177C121.527 91.3302 121.043 91.5229 120.543 91.6062C120.048 91.6844 119.574 91.6375 119.131 91.4708C118.689 91.3094 118.303 91.0333 117.98 90.6427C117.657 90.2573 117.418 89.7937 117.267 89.2469C117.111 88.7 117.053 88.1114 117.095 87.4864C117.131 86.8614 117.267 86.2469 117.491 85.6375C117.72 85.0333 118.022 84.4812 118.402 83.9812C118.782 83.4812 119.21 83.0802 119.683 82.7677C120.157 82.4552 120.642 82.2573 121.142 82.1791C121.637 82.101 122.111 82.1427 122.553 82.3094Z" fill="#6F3A27"/>
<path d="M93.272 88.3666C93.8137 88.726 94.2824 89.1479 94.6783 89.6322C95.0793 90.1166 95.3762 90.6218 95.5689 91.1583C95.7668 91.6895 95.8449 92.2104 95.8085 92.7104C95.772 93.2156 95.621 93.6635 95.3606 94.0593C95.1002 94.4552 94.7408 94.7625 94.2929 94.9916C93.8449 95.2208 93.3345 95.3458 92.7668 95.3718C92.1991 95.3979 91.621 95.3197 91.022 95.1375C90.4231 94.9604 89.8502 94.6895 89.3137 94.3302C88.772 93.9708 88.3033 93.5489 87.9074 93.0645C87.5064 92.5854 87.2147 92.075 87.0168 91.5437C86.8189 91.0072 86.7408 90.4916 86.7772 89.9864C86.8137 89.4864 86.9647 89.0333 87.2252 88.6427C87.4908 88.2468 87.8449 87.9343 88.2929 87.7052C88.7408 87.476 89.2512 87.351 89.8189 87.325C90.3866 87.2989 90.9699 87.377 91.5689 87.5593C92.1679 87.7416 92.7356 88.0072 93.272 88.3666Z" fill="#6F3A27"/>
<path d="M112.814 88.1635C113.079 88.5542 113.236 89.0021 113.282 89.5021C113.324 90.0021 113.256 90.5229 113.069 91.0594C112.881 91.5958 112.59 92.1115 112.199 92.601C111.814 93.0906 111.35 93.5177 110.814 93.8823C110.282 94.2521 109.72 94.5333 109.121 94.7208C108.527 94.9135 107.944 94.9969 107.376 94.9813C106.808 94.9656 106.298 94.8458 105.845 94.6271C105.392 94.4083 105.032 94.101 104.762 93.7104C104.496 93.3198 104.34 92.8719 104.293 92.3719C104.251 91.8667 104.319 91.3458 104.506 90.8094C104.694 90.2729 104.986 89.7625 105.376 89.2729C105.767 88.7833 106.225 88.3563 106.762 87.9865C107.293 87.6167 107.861 87.3406 108.454 87.1479C109.048 86.9604 109.631 86.8719 110.199 86.8875C110.767 86.9083 111.277 87.0229 111.73 87.2469C112.183 87.4656 112.543 87.7729 112.814 88.1635Z" fill="#6F3A27"/>
<path d="M119.376 82.3248C119.361 82.3248 119.34 82.3248 119.324 82.3196C118.85 82.2935 118.491 81.8873 118.517 81.4133C118.683 78.4237 117.413 76.8508 116.855 76.3144L105.736 77.6581C105.751 78.0435 105.501 78.4029 105.111 78.5123C104.657 78.6425 104.183 78.3769 104.053 77.9237L103.835 77.1581C103.767 76.9185 103.808 76.6581 103.944 76.4498C104.085 76.2362 104.308 76.1008 104.558 76.0696L116.683 74.6112C117.189 74.5487 117.689 74.7206 118.053 75.08C118.777 75.7779 120.439 77.8144 120.23 81.5123C120.204 81.9706 119.824 82.3248 119.376 82.3248Z" fill="#703627"/>
<path d="M122.329 83.0593C122.256 83.0593 122.183 83.0541 122.111 83.0333L104.095 78.3666L101.85 78.278C101.965 78.6843 101.762 79.127 101.361 79.2989C100.923 79.4864 100.418 79.2833 100.23 78.851L99.7355 77.7051C99.6209 77.4343 99.6522 77.1218 99.8189 76.877C99.9855 76.6322 100.241 76.4916 100.558 76.502L104.256 76.653C104.319 76.653 104.376 76.6635 104.439 76.6791L122.543 81.3666C123.001 81.4864 123.277 81.9551 123.157 82.4187C123.058 82.8041 122.709 83.0593 122.329 83.0593Z" fill="#703627"/>
<path d="M119.131 92.2937C119.043 92.2937 118.949 92.278 118.855 92.2468L113.064 90.2728C112.616 90.1218 112.371 89.6322 112.527 89.1843C112.678 88.7364 113.163 88.4916 113.616 88.6478L119.413 90.6166C119.861 90.7728 120.1 91.2624 119.944 91.7103C119.824 92.0697 119.491 92.2937 119.131 92.2937Z" fill="#703627"/>
<path d="M79.1834 82.6999C79.1626 82.6999 79.147 82.6999 79.1261 82.6999C78.6522 82.6686 78.2928 82.2572 78.324 81.7832C78.5428 78.3457 81.0428 75.903 81.8032 75.2363C82.3761 74.7363 83.1365 74.5384 83.8917 74.6843L94.048 76.6165C94.5115 76.7051 94.8188 77.153 94.7303 77.6218C94.6417 78.0853 94.1886 78.3978 93.7251 78.304L83.5688 76.3718C83.3345 76.3249 83.1053 76.3874 82.9334 76.5332C82.298 77.0905 80.2147 79.1166 80.0376 81.8926C80.0063 82.3509 79.6313 82.6999 79.1834 82.6999Z" fill="#703627"/>
<path d="M104.522 94.0905C104.204 94.0905 103.902 93.9187 103.751 93.6166L98.647 83.3457C98.4386 82.9239 98.6105 82.4082 99.0376 82.1947C99.4595 81.9864 99.9751 82.1582 100.189 82.5801L105.288 92.851C105.501 93.2728 105.324 93.7885 104.902 94.002C104.777 94.0645 104.647 94.0905 104.522 94.0905Z" fill="#703627"/>
<path d="M112.532 88.6478C112.303 88.6478 112.079 88.5593 111.913 88.3874L103.006 79.1322L101.022 79.2937C100.543 79.3353 100.137 78.9812 100.1 78.5072C100.058 78.0332 100.413 77.6166 100.887 77.5801L103.272 77.3874C103.538 77.3614 103.788 77.4603 103.965 77.6478L113.147 87.1895C113.48 87.5332 113.47 88.0801 113.126 88.4082C112.96 88.5697 112.746 88.6478 112.532 88.6478Z" fill="#703627"/>
<path d="M79.1417 92.83C78.7876 92.83 78.4594 92.6113 78.3344 92.2623C78.1678 91.8196 78.3969 91.3248 78.8449 91.1633L86.574 88.33C87.0167 88.1685 87.5115 88.3977 87.673 88.8456C87.8397 89.2883 87.6105 89.7831 87.1626 89.9446L79.4334 92.7779C79.3396 92.8144 79.2355 92.83 79.1417 92.83Z" fill="#703627"/>
<path d="M76.1157 83.5384C75.7459 83.5384 75.4022 83.2988 75.2928 82.9238C75.1574 82.4655 75.4178 81.9915 75.8709 81.8561L94.1001 76.5019C94.2876 76.4499 94.4855 76.4551 94.6678 76.5332L95.7511 76.9759C96.1938 77.153 96.4022 77.6582 96.2251 78.0957C96.0428 78.5384 95.5428 78.7467 95.1053 78.5644L94.2928 78.2363L76.3553 83.5071C76.2772 83.528 76.1938 83.5384 76.1157 83.5384Z" fill="#703627"/>
<path d="M95.7147 94.0906C95.6157 94.0906 95.5168 94.075 95.423 94.0385C94.9751 93.8822 94.7459 93.3875 94.9022 92.9395L99.9126 78.9812L96.0064 78.4343L88.2303 88.7416C87.9439 89.1218 87.4074 89.1947 87.0272 88.9135C86.6522 88.627 86.5741 88.0854 86.8605 87.7052L94.9387 76.9916C95.1262 76.7416 95.4282 76.6166 95.7407 76.6583L101.194 77.4291C101.449 77.4656 101.678 77.6114 101.808 77.8354C101.944 78.0541 101.97 78.325 101.881 78.5697L96.522 93.5229C96.397 93.8718 96.0637 94.0906 95.7147 94.0906Z" fill="#703627"/>
<path d="M78.4543 92.9237C77.6366 92.9237 76.7981 92.6477 76.0116 92.106C74.9179 91.356 74.0481 90.1685 73.5533 88.7675C72.5012 85.7779 73.522 82.6841 75.8293 81.8716C78.1366 81.0591 80.871 82.83 81.9231 85.8196C82.4127 87.2258 82.4752 88.6946 82.0897 89.9654C81.6783 91.33 80.8085 92.3091 79.6418 92.7206C79.2564 92.856 78.8606 92.9237 78.4543 92.9237ZM77.0064 83.3925C76.7981 83.3925 76.5949 83.4237 76.4022 83.4914C75.0116 83.981 74.4491 86.1373 75.1731 88.1946C75.5481 89.2571 76.1887 90.1425 76.9856 90.6894C77.6939 91.1737 78.4387 91.3196 79.0741 91.0956C79.7095 90.8716 80.1991 90.2935 80.4491 89.4654C80.7252 88.5435 80.6731 87.455 80.2981 86.3925C79.6783 84.6216 78.272 83.3925 77.0064 83.3925Z" fill="#703627"/>
<mask id="mask0_53_4937" style="mask-type:luminance" maskUnits="userSpaceOnUse" x="115" y="80" width="12" height="13">
<path d="M115.694 80.9707H126.116V92.9707H115.694V80.9707Z" fill="white"/>
</mask>
<g mask="url(#mask0_53_4937)">
<path d="M120.085 92.4655C119.657 92.4655 119.236 92.3874 118.835 92.2364C117.673 91.8041 116.824 90.8093 116.439 89.4395C116.079 88.1634 116.168 86.6895 116.689 85.2989C117.21 83.903 118.105 82.7364 119.215 82.0072C120.402 81.2259 121.699 81.0332 122.855 81.4655C125.147 82.3197 126.105 85.4343 124.996 88.4082C124.475 89.7989 123.579 90.9655 122.475 91.6947C121.699 92.2051 120.881 92.4655 120.085 92.4655ZM121.605 82.9603C121.142 82.9603 120.642 83.127 120.157 83.4447C119.35 83.9759 118.694 84.8457 118.298 85.8978C117.902 86.9551 117.829 88.0437 118.09 88.9707C118.324 89.8041 118.803 90.3926 119.433 90.627C120.064 90.8614 120.809 90.7312 121.532 90.2572C122.335 89.7312 122.996 88.8562 123.387 87.8041C124.152 85.7572 123.631 83.5905 122.251 83.0749C122.048 82.9968 121.829 82.9603 121.605 82.9603Z" fill="#703627"/>
</g>
<path d="M92.5481 96.1998C91.3397 96.1998 90.0272 95.8091 88.8345 95.0175C87.6001 94.1946 86.6678 93.0539 86.2095 91.8091C85.7199 90.4706 85.8241 89.1685 86.5116 88.1373C87.1939 87.106 88.3553 86.5019 89.7772 86.4394C91.0949 86.3769 92.5116 86.8039 93.7512 87.6269C96.3866 89.3821 97.4283 92.4706 96.0741 94.5071C95.3293 95.6269 94.0168 96.1998 92.5481 96.1998ZM90.0272 88.1529C89.9699 88.1529 89.9126 88.1529 89.8553 88.1581C88.996 88.1946 88.3137 88.5279 87.9387 89.0904C87.5689 89.6529 87.5272 90.4081 87.8241 91.2154C88.1522 92.1216 88.8501 92.9654 89.7876 93.5852C91.6053 94.7935 93.8293 94.7831 94.647 93.5539C95.4595 92.3248 94.6158 90.2675 92.7981 89.0591C91.9178 88.4706 90.9439 88.1529 90.0272 88.1529Z" fill="#703627"/>
<path d="M107.512 95.8092C107.454 95.8092 107.402 95.8092 107.35 95.804C105.923 95.7623 104.756 95.179 104.053 94.1582C103.355 93.1425 103.225 91.8404 103.694 90.4915C104.131 89.2415 105.048 88.0852 106.272 87.2415C107.496 86.3977 108.918 85.9654 110.22 85.9967C111.647 86.0332 112.819 86.6217 113.517 87.6373C114.902 89.6529 113.907 92.7571 111.303 94.5592C110.126 95.3665 108.788 95.8092 107.512 95.8092ZM107.246 88.6582C106.319 89.2988 105.637 90.1477 105.319 91.0592C105.032 91.8769 105.085 92.6321 105.47 93.1842C105.85 93.7415 106.538 94.0644 107.402 94.0852C108.361 94.1165 109.402 93.7779 110.329 93.1425C112.126 91.9029 112.939 89.83 112.1 88.6165C111.72 88.0592 111.032 87.7363 110.173 87.7154C109.199 87.6738 108.168 88.0227 107.246 88.6582Z" fill="#703627"/>
<path d="M99.5376 79.3301C102.157 79.127 111.855 77.8509 115.397 65.4342C117.1 59.4499 116.173 52.7415 112.72 47.5645C113.371 52.2728 111.345 57.2572 107.6 60.1686C109.73 55.5436 110.121 50.1426 108.689 45.252C107.256 40.3665 104.006 36.0332 99.6522 33.2051C100.433 36.3145 99.6366 39.6478 98.1262 42.4759C96.621 45.304 94.4543 47.7103 92.1262 49.9238C91.8085 48.1426 91.7928 46.304 91.8241 44.2936C88.0949 48.4499 84.9543 53.5384 84.5324 59.1061C83.1314 77.7155 97.8189 79.4603 99.5376 79.3301Z" fill="#F75E34"/>
<path d="M90.772 57.4447C91.9231 59.6218 93.0793 61.7937 94.1887 64.0125C94.0428 59.5958 95.6366 55.1479 98.4231 51.6218C102.725 55.9291 105.199 62.0125 105.126 68.1062C106.616 66.9604 107.881 65.5281 108.835 63.9083C109.21 67.2156 108.506 70.6375 106.861 73.5333C105.491 75.9447 103.746 77.7104 101.178 78.9916C100.204 79.4812 99.0376 79.4395 98.1262 78.8458C94.9283 76.7677 92.1783 73.9395 90.8397 70.3875C89.3137 66.3197 89.2616 61.7156 90.772 57.4447Z" fill="#FFAD50"/>
<path d="M98.9542 61.679C101.35 64.9342 102.512 69.08 102.142 73.106L104.246 71.2519C104.59 74.1998 103.126 77.2623 100.704 78.9498C99.9803 79.4498 98.9907 79.3821 98.3605 78.7675C96.1261 76.5644 94.7876 73.455 94.7823 70.3092L97.2042 72.356C96.7094 68.7623 97.2094 65.0383 98.9542 61.679Z" fill="#F9FFF9"/>
<path d="M99.5376 79.33C102.157 79.1269 111.855 77.8509 115.397 65.4342C117.09 59.4967 116.183 52.8352 112.788 47.6738C112.772 47.6477 112.73 47.6633 112.736 47.6946C113.324 52.2779 111.387 57.1061 107.798 60.0123C107.751 60.054 107.678 59.9967 107.704 59.9394C109.741 55.3613 110.1 50.0592 108.689 45.2519C107.319 40.5904 104.298 36.429 100.241 33.6008C100.038 33.4602 99.7512 33.6373 99.798 33.8821C100.314 36.7936 99.5272 39.8561 98.1262 42.4759C96.6991 45.1581 94.6782 47.4602 92.4855 49.5748C92.3345 49.7206 92.0741 49.6373 92.0428 49.429C91.8241 47.9186 91.798 46.3665 91.8189 44.6946C91.8241 44.5592 91.6522 44.4863 91.5637 44.5904C87.9491 48.6894 84.9439 53.6686 84.5324 59.1061C83.1314 77.7154 97.8189 79.4602 99.5376 79.33Z" fill="#F75E34"/>
<path d="M99.3553 80.1947C97.8032 80.1947 92.6262 79.4499 88.5949 75.4186C84.798 71.6218 83.147 66.1166 83.6782 59.0436C84.048 54.1061 86.4855 49.0541 90.9178 44.0228C91.1991 43.7051 91.6314 43.5957 92.0324 43.752C92.423 43.903 92.6834 44.2832 92.6782 44.7051C92.6626 45.804 92.6678 46.9603 92.7564 48.0957C94.8397 45.9759 96.3189 44.0436 97.3709 42.0697C98.8241 39.3405 99.3866 36.4863 98.9543 34.0332C98.8709 33.5801 99.0689 33.127 99.4595 32.877C99.8553 32.6218 100.355 32.6322 100.736 32.8978C104.97 35.8509 108.09 40.153 109.512 45.0124C110.605 48.7416 110.668 52.8145 109.741 56.6166C111.459 54.0541 112.277 50.8666 111.881 47.804C111.834 47.4082 112.079 46.9968 112.454 46.8561C112.829 46.7155 113.288 46.8665 113.506 47.2051C116.996 52.502 118.006 59.4082 116.22 65.6686C112.736 77.8926 103.439 79.8926 99.6053 80.1843C99.5376 80.1895 99.4543 80.1947 99.3553 80.1947ZM90.9647 46.6322C87.5741 50.877 85.6991 55.0905 85.3918 59.1738C84.897 65.7207 86.3866 70.778 89.8084 74.2051C93.6522 78.0436 98.647 78.5384 99.4751 78.4707C102.949 78.2051 111.381 76.3822 114.569 65.1999C115.918 60.4655 115.543 55.3405 113.6 50.9603C113.168 54.7051 111.277 58.2988 108.34 60.6791C108.032 60.9343 107.512 60.9395 107.194 60.6895C106.861 60.4291 106.746 59.9707 106.923 59.5801C108.866 55.2155 109.209 50.0801 107.866 45.4968C106.668 41.4186 104.178 37.7676 100.798 35.0853C100.923 37.5749 100.267 40.2936 98.8866 42.8822C97.6105 45.278 95.7616 47.6009 93.0793 50.1947C92.7772 50.4863 92.3397 50.5853 91.9387 50.4499C91.5428 50.3093 91.2564 49.9655 91.1939 49.5541C91.0532 48.5801 90.9907 47.6009 90.9647 46.6322Z" fill="#5F2D1B"/>
<path d="M90.923 57.7312C91.949 59.6687 92.9751 61.6009 93.9646 63.5645C94.0219 63.6791 94.1782 63.6374 94.1782 63.5124C94.1678 59.3926 95.6469 55.2728 98.1834 51.9291C98.3032 51.7676 98.5532 51.752 98.6938 51.903C102.699 56.0541 105.048 61.7676 105.126 67.5332C105.131 67.7676 105.397 67.8978 105.574 67.752C106.777 66.7468 107.824 65.5437 108.652 64.2103C108.709 64.1114 108.855 64.1478 108.866 64.2572C109.157 67.4551 108.449 70.7416 106.86 73.5332C105.491 75.9447 103.746 77.7103 101.178 78.9916C100.204 79.4811 99.0376 79.4395 98.1261 78.8457C94.9282 76.7676 92.1782 73.9447 90.8396 70.3874C89.3501 66.4187 89.2667 61.9343 90.6626 57.752C90.7042 57.6374 90.8657 57.6218 90.923 57.7312Z" fill="#FFAD50"/>
<path d="M99.7667 80.1843C99.0219 80.1843 98.2875 79.976 97.6573 79.5697C93.9438 77.1478 91.3084 74.0801 90.0375 70.6895C88.4698 66.5124 88.4021 61.8197 89.85 57.4812C89.9803 57.101 90.3188 56.8353 90.7198 56.8041C91.1105 56.7624 91.4959 56.976 91.6834 57.3301C92.3448 58.5801 92.9438 59.7103 93.5115 60.8041C93.9959 57.4812 95.3657 54.2207 97.4959 51.4135C97.7094 51.1322 98.0323 50.9603 98.3813 50.9395C98.7355 50.9239 99.0688 51.0541 99.3136 51.3041C103.178 55.3145 105.553 60.7051 105.933 66.2624C106.689 65.5072 107.355 64.6687 107.918 63.7572C108.142 63.3978 108.569 63.2207 108.975 63.3197C109.387 63.4187 109.683 63.7624 109.725 64.1843C110.027 67.5541 109.277 71.0228 107.61 73.9603C106.105 76.6062 104.183 78.4499 101.564 79.7624C100.996 80.0437 100.376 80.1843 99.7667 80.1843ZM91.0011 59.7155C90.199 63.1843 90.4125 66.8093 91.6469 70.0853C92.7875 73.1322 95.1886 75.9082 98.5896 78.127C99.2355 78.5437 100.079 78.5801 100.793 78.2207C103.126 77.0593 104.767 75.4812 106.116 73.1062C107.256 71.101 107.918 68.8145 108.048 66.4968C107.465 67.1895 106.819 67.8301 106.121 68.4082C105.788 68.6895 105.329 68.752 104.933 68.5697C104.527 68.3822 104.277 67.9916 104.267 67.5489C104.194 62.1895 102.1 56.903 98.5011 52.9499C96.2511 56.1166 95.0271 59.8457 95.0375 63.5124C95.0375 63.9707 94.7303 64.3614 94.2928 64.4655C93.8553 64.5697 93.4021 64.3614 93.199 63.9551C92.4907 62.5541 91.7875 61.2051 91.0011 59.7155Z" fill="#5F2D1B"/>
<path d="M99.1938 62.0125C101.381 65.1479 102.454 69.049 102.163 72.8667C102.157 72.9552 102.256 73.0021 102.324 72.9448L104.137 71.3459C104.183 71.3094 104.256 71.3354 104.262 71.3979C104.543 74.3042 103.084 77.2886 100.704 78.95C99.9803 79.45 98.9907 79.3823 98.3605 78.7677C96.1886 76.6219 94.8605 73.6219 94.7823 70.5646C94.7823 70.4656 94.8969 70.4136 94.9751 70.4761L97.0636 72.2417C97.1157 72.2834 97.1886 72.2417 97.1782 72.1792C96.7407 68.7729 97.199 65.2521 98.7667 62.049C98.8501 61.8823 99.0844 61.8615 99.1938 62.0125Z" fill="#F9FFF9"/>
<path d="M99.6366 80.1426C98.9543 80.1426 98.272 79.8822 97.7616 79.377C95.4074 77.0593 94.0064 73.8562 93.9231 70.5853C93.9179 70.2051 94.1314 69.851 94.4752 69.6843C94.8189 69.5176 95.2356 69.5697 95.5272 69.8145L96.1731 70.3614C96.0793 67.2989 96.6991 64.3249 97.996 61.6687C98.1679 61.3197 98.5168 61.0853 98.9074 61.0541C99.2772 61.0281 99.6731 61.1999 99.897 61.5176C101.876 64.351 102.975 67.7156 103.064 71.1478L103.569 70.6999C103.808 70.4916 104.23 70.4135 104.527 70.5333C104.855 70.6635 105.085 70.9656 105.116 71.3145C105.423 74.5072 103.887 77.7781 101.194 79.6531C100.72 79.9812 100.178 80.1426 99.6366 80.1426ZM95.8397 72.3301C96.2668 74.5176 97.3606 76.5697 98.9647 78.1531C99.2929 78.4708 99.8241 78.5124 100.215 78.2416C101.892 77.0749 103.038 75.1687 103.35 73.1843L102.892 73.5906C102.6 73.851 102.183 73.9031 101.835 73.7312C101.486 73.5593 101.277 73.1895 101.308 72.7989C101.553 69.5749 100.751 66.226 99.0897 63.4343C98.0116 66.0958 97.647 69.0541 98.0324 72.0697C98.0741 72.4239 97.8658 72.8353 97.5533 73.0072C97.2147 73.1895 96.8033 73.1478 96.5116 72.8978L95.8397 72.3301ZM104.704 71.9916L104.699 71.9968C104.704 71.9916 104.704 71.9916 104.704 71.9916Z" fill="#5F2D1B"/>
<path d="M91.371 75.9395C91.371 75.9395 82.647 81.278 80.9283 82.3249C79.2043 83.3717 76.0585 81.3353 73.9074 77.7832C71.7564 74.2311 71.4074 70.502 73.1314 69.4603C74.8553 68.4134 83.8189 62.9603 83.5793 62.9082C87.1262 67.0176 90.0845 71.6374 91.371 75.9395Z" fill="#FFFCF7"/>
<path d="M90.6001 67.6166C90.8553 68.0437 91.0897 68.4708 91.298 68.9083C91.5116 69.351 91.6939 69.7885 91.8553 70.226C92.0116 70.6635 92.1418 71.0906 92.2407 71.5125C92.3397 71.9343 92.4074 72.3354 92.4387 72.7208C92.4751 73.1114 92.4803 73.4708 92.4543 73.8093C92.423 74.1479 92.3657 74.4552 92.272 74.7312C92.1834 75.0073 92.0584 75.2468 91.9074 75.4552C91.7564 75.6583 91.5793 75.8198 91.3762 75.9448C91.1678 76.0698 90.9439 76.1531 90.6887 76.1948C90.4387 76.2312 90.173 76.226 89.8814 76.1791C89.5949 76.1375 89.298 76.0437 88.9855 75.9135C88.673 75.7833 88.3501 75.6114 88.0272 75.4031C87.6991 75.1895 87.3762 74.9448 87.048 74.6635C86.7199 74.3823 86.4022 74.0698 86.0845 73.726C85.772 73.3823 85.4699 73.0177 85.1782 72.627C84.8866 72.2364 84.6157 71.8302 84.3553 71.4083C84.1001 70.9864 83.8709 70.5541 83.6574 70.1166C83.4491 69.6791 83.2616 69.2416 83.1053 68.8041C82.9491 68.3666 82.8189 67.9343 82.7199 67.5125C82.6209 67.0958 82.5532 66.6895 82.5168 66.3041C82.4803 65.9187 82.4751 65.5541 82.5064 65.2156C82.5324 64.877 82.5949 64.5698 82.6834 64.2937C82.7772 64.0177 82.897 63.7781 83.048 63.575C83.1991 63.3718 83.3762 63.2052 83.5845 63.0802C83.7876 62.9552 84.0168 62.8718 84.2668 62.8354C84.5168 62.7937 84.7876 62.7989 85.0741 62.8458C85.3605 62.8927 85.6626 62.9812 85.9751 63.1114C86.2876 63.2416 86.6053 63.4135 86.9334 63.627C87.2564 63.8354 87.5845 64.0802 87.9074 64.3666C88.2355 64.6479 88.5584 64.9604 88.8709 65.2989C89.1887 65.6427 89.4907 66.0125 89.7824 66.3979C90.0689 66.7885 90.3449 67.1948 90.6001 67.6166Z" fill="#F3ECDF"/>
<path d="M90.3241 77.0801C88.2251 77.0801 85.5897 75.1009 83.6209 71.8509C81.147 67.7624 80.9387 63.6738 83.1366 62.3405C84.2668 61.653 85.7772 61.8509 87.397 62.8978C88.8241 63.8249 90.2251 65.3405 91.3345 67.1686C92.4387 68.9968 93.1366 70.9395 93.2928 72.6374C93.4751 74.5541 92.9491 75.9916 91.8189 76.6791C91.3709 76.9499 90.8657 77.0801 90.3241 77.0801ZM84.6209 63.6634C84.3918 63.6634 84.1887 63.7103 84.0272 63.8093C82.897 64.4968 83.1157 67.6947 85.0897 70.9603C87.0637 74.2207 89.8032 75.8874 90.9282 75.2051C91.4491 74.8874 91.6939 73.9916 91.5845 72.7988C91.4491 71.3509 90.8397 69.6686 89.8605 68.0593C88.8866 66.4499 87.6782 65.1322 86.4595 64.3405C85.772 63.8978 85.1262 63.6634 84.6209 63.6634Z" fill="#703627"/>
<path d="M79.8865 83.4602C79.0427 83.4602 78.0948 83.1373 77.1105 82.5019C75.6782 81.5748 74.2823 80.0592 73.173 78.231C70.699 74.1425 70.4907 70.0592 72.6886 68.7206C74.4125 67.6737 83.3709 62.2258 83.3709 62.2258L84.2667 63.6946C84.2667 63.6946 75.3032 69.1477 73.5792 70.1946C72.449 70.8769 72.6677 74.08 74.6417 77.3404C75.6157 78.9498 76.824 80.2675 78.0427 81.054C79.048 81.705 79.9594 81.9029 80.4802 81.5852C82.2042 80.5435 90.923 75.205 90.923 75.205L91.8188 76.6737C91.8188 76.6737 83.0948 82.0123 81.3709 83.0592C80.9282 83.3248 80.4282 83.4602 79.8865 83.4602Z" fill="#703627"/>
<path d="M55.5167 89.705C55.2303 89.705 54.9438 89.5592 54.7823 89.2936C54.5376 88.8873 54.6678 88.3561 55.074 88.1113L73.2459 77.08C73.6521 76.8352 74.1834 76.9602 74.4282 77.3665C74.673 77.7727 74.5428 78.304 74.1365 78.5488L55.9646 89.58C55.824 89.6686 55.6678 89.705 55.5167 89.705Z" fill="#703627"/>
<path d="M14.5219 44.5176C14.074 44.7311 13.6157 44.2467 13.85 43.8092L16.9802 38.0072C17.2927 37.4186 17.2979 36.7155 17.0167 36.1113C11.1677 23.5957 16.0636 12.8978 24.5896 6.70508C27.9959 4.23112 31.0792 3.04883 32.6469 2.49154C43.3709 -1.34701 56.0688 1.04362 62.5375 14.4447C62.8292 15.0436 63.3761 15.4863 64.0323 15.6113L70.5011 16.8457C70.9855 16.9395 71.0688 17.6009 70.6261 17.8092L14.5219 44.5176Z" fill="#8AA166"/>
<path d="M17.7251 37.2207C23.1521 34.6322 51.449 21.5176 62.949 15.7415C62.0792 13.5332 60.9959 11.4186 59.7146 9.42383L15.0167 30.6999C15.6678 32.9655 16.574 35.1582 17.7251 37.2207Z" fill="#B25D3E"/>
<path d="M17.4855 37.9289C17.1626 37.9289 16.8553 37.7466 16.7095 37.4393C16.5012 37.0123 16.6835 36.4966 17.1158 36.2935C18.1783 35.7831 20.147 34.856 22.7095 33.6477C33.4855 28.5591 53.548 19.0904 62.7772 14.4498C63.2043 14.2362 63.7199 14.4081 63.9283 14.83C64.1418 15.257 63.9699 15.7727 63.548 15.9862C54.298 20.632 34.2251 30.1112 23.4387 35.205C20.8814 36.4133 18.9178 37.3404 17.8501 37.8456C17.7303 37.9029 17.6053 37.9289 17.4855 37.9289Z" fill="#703627"/>
<path d="M15.0168 31.5593C14.6991 31.5593 14.3866 31.377 14.2408 31.0697C14.0377 30.6374 14.2199 30.127 14.647 29.9239L59.1575 8.73639C59.5845 8.53326 60.1002 8.71556 60.3033 9.14264C60.5064 9.56972 60.3241 10.0853 59.897 10.2885L15.3866 31.476C15.2668 31.5333 15.1418 31.5593 15.0168 31.5593Z" fill="#703627"/>
<path d="M14.3033 45.4239C13.9335 45.4239 13.5741 45.2781 13.3085 44.9968C12.897 44.5646 12.8137 43.9239 13.0949 43.4031L16.5168 37.0541C9.6991 23.1791 15.9231 11.9396 24.0845 6.01247C27.8033 3.30934 31.2303 2.08539 32.3553 1.67914C42.4126 -1.91982 56.5637 -0.648989 63.5845 14.6479L70.6626 16.0021C71.246 16.1114 71.6887 16.5854 71.7616 17.1739C71.8397 17.7625 71.5324 18.3354 70.996 18.5906L14.8918 45.2937C14.6991 45.3823 14.5012 45.4239 14.3033 45.4239ZM41.8085 1.73122C38.6991 1.73122 35.6574 2.32497 32.9335 3.29893C31.0793 3.96559 28.2512 5.11143 25.0949 7.40309C17.4283 12.9708 11.6001 23.5854 18.246 36.6791C18.3762 36.9291 18.371 37.2312 18.2408 37.476L15.1106 43.2833L69.2981 17.4916L62.8241 16.2573C62.5481 16.2052 62.3137 16.0177 62.1991 15.7573C57.5897 5.35622 49.496 1.73122 41.8085 1.73122Z" fill="#703627"/>
</svg>
