<svg width="184" height="211" viewBox="0 0 184 211" fill="none" xmlns="http://www.w3.org/2000/svg">
<path d="M34.5634 10.8813V1.60617C34.5634 1.33434 34.7858 1.11194 35.0493 1.11194H41.1696C41.4414 1.11194 41.6638 1.33434 41.6638 1.60617V10.8813C41.6638 11.1531 41.4414 11.3755 41.1696 11.3755H35.0493C34.7858 11.3755 34.5634 11.1531 34.5634 10.8813Z" fill="#FFB639"/>
<path d="M34.5634 74.8269V65.5436C34.5634 65.28 34.7858 65.0576 35.0493 65.0576H41.1696C41.4414 65.0576 41.6638 65.28 41.6638 65.5436V74.8269C41.6638 75.0988 41.4414 75.3212 41.1696 75.3212H35.0493C34.7858 75.3212 34.5634 75.0988 34.5634 74.8269Z" fill="#FFB639"/>
<mask id="mask0_245_13816" style="mask-type:luminance" maskUnits="userSpaceOnUse" x="64" y="33" width="13" height="10">
<path d="M64.448 33.9618H76.2272V42.3967H64.448V33.9618Z" fill="white"/>
</mask>
<g mask="url(#mask0_245_13816)">
<path d="M65.4112 34.6621H74.6863C74.9581 34.6621 75.1722 34.8845 75.1722 35.1563V41.2766C75.1722 41.5484 74.9581 41.7708 74.6863 41.7708H65.4112C65.1393 41.7708 64.9252 41.5484 64.9252 41.2766V35.1563C64.9252 34.8845 65.1393 34.6621 65.4112 34.6621Z" fill="#FFB639"/>
</g>
<path d="M1.54025 34.6624H10.8153C11.0789 34.6624 11.3013 34.8848 11.3013 35.1566V41.2768C11.3013 41.5487 11.0789 41.7711 10.8153 41.7711H1.54025C1.26842 41.7711 1.04602 41.5487 1.04602 41.2768V35.1566C1.04602 34.8848 1.26842 34.6624 1.54025 34.6624Z" fill="#FFB639"/>
<path d="M54.9094 16.3755L61.4662 9.81868C61.6557 9.62099 61.9687 9.62099 62.1582 9.81868L66.4827 14.1432C66.6722 14.3327 66.6722 14.6457 66.4827 14.8351L59.9259 21.4002C59.7364 21.5896 59.4234 21.5896 59.234 21.4002L54.9094 17.0674C54.72 16.878 54.72 16.5732 54.9094 16.3755Z" fill="#FFB639"/>
<path d="M9.745 61.5896L16.3018 55.0328C16.4913 54.8351 16.8043 54.8351 16.9937 55.0328L21.3183 59.3573C21.5077 59.555 21.5077 59.8598 21.3183 60.0575L14.7615 66.6143C14.572 66.812 14.259 66.812 14.0695 66.6143L9.745 62.2898C9.55554 62.0921 9.55554 61.7873 9.745 61.5896Z" fill="#FFB639"/>
<path d="M59.9259 55.0328L66.4827 61.5896C66.6722 61.7873 66.6722 62.0921 66.4827 62.2898L62.1582 66.6143C61.9687 66.812 61.6557 66.812 61.4662 66.6143L54.9094 60.0575C54.72 59.8598 54.72 59.555 54.9094 59.3573L59.234 55.0328C59.4234 54.8351 59.7364 54.8351 59.9259 55.0328Z" fill="#FFB639"/>
<path d="M14.7615 9.81868L21.3183 16.3755C21.5077 16.5732 21.5077 16.878 21.3183 17.0674L16.9937 21.4002C16.8043 21.5896 16.4913 21.5896 16.3018 21.4002L9.745 14.8351C9.55554 14.6457 9.55554 14.3327 9.745 14.1432L14.0695 9.81868C14.259 9.62099 14.572 9.62099 14.7615 9.81868Z" fill="#FFB639"/>
<path d="M59.4062 38.2124C59.4062 39.6127 59.2661 41.0048 58.9943 42.3721C58.7225 43.7478 58.3188 45.0822 57.7834 46.3754C57.248 47.6687 56.589 48.896 55.8147 50.0574C55.0404 51.2189 54.1508 52.298 53.1624 53.2864C52.1739 54.2749 51.1031 55.1645 49.9416 55.9388C48.7802 56.7131 47.5528 57.3721 46.2596 57.9075C44.9663 58.4429 43.6401 58.8465 42.2645 59.1184C40.8972 59.3902 39.5133 59.5302 38.113 59.5302C36.7127 59.5302 35.3288 59.3902 33.9614 59.1184C32.5858 58.8465 31.2514 58.4429 29.9664 57.9075C28.6732 57.3721 27.4458 56.7131 26.2844 55.9388C25.1229 55.1645 24.0438 54.2749 23.0554 53.2864C22.0669 52.298 21.1855 51.2189 20.4112 50.0574C19.6287 48.896 18.978 47.6687 18.4426 46.3754C17.9071 45.0822 17.5035 43.7478 17.2317 42.3721C16.9599 41.0048 16.8198 39.6127 16.8198 38.2124C16.8198 36.8203 16.9599 35.4282 17.2317 34.0608C17.5035 32.6852 17.9071 31.3508 18.4426 30.0575C18.978 28.7643 19.6287 27.5369 20.4112 26.3755C21.1855 25.214 22.0669 24.135 23.0554 23.1465C24.0438 22.158 25.1229 21.2684 26.2844 20.4941C27.4458 19.7198 28.6732 19.0609 29.9664 18.5254C31.2514 17.99 32.5858 17.5864 33.9614 17.3146C35.3288 17.0345 36.7127 16.9027 38.113 16.9027C39.5133 16.9027 40.8972 17.0345 42.2645 17.3146C43.6401 17.5864 44.9663 17.99 46.2596 18.5254C47.5528 19.0609 48.7802 19.7198 49.9416 20.4941C51.1031 21.2684 52.1739 22.158 53.1624 23.1465C54.1508 24.135 55.0404 25.214 55.8147 26.3755C56.589 27.5369 57.248 28.7643 57.7834 30.0575C58.3188 31.3508 58.7225 32.6852 58.9943 34.0608C59.2661 35.4282 59.4062 36.8203 59.4062 38.2124Z" fill="#FFB639"/>
<path d="M16.8198 38.2124C16.8198 42.5451 18.1213 46.5649 20.3289 49.9257C32.0834 49.9174 41.6138 40.3787 41.6138 28.6078C41.6138 24.2832 40.3206 20.2635 38.1048 16.9027C26.3503 16.9027 16.8198 26.4496 16.8198 38.2124Z" fill="#FDCD57"/>
<mask id="mask1_245_13816" style="mask-type:luminance" maskUnits="userSpaceOnUse" x="32" y="0" width="12" height="13">
<path d="M32.8171 0H43.3608V12.8747H32.8171V0Z" fill="white"/>
</mask>
<g mask="url(#mask1_245_13816)">
<path d="M38.1134 12.4216C35.5764 12.4216 33.5171 10.3623 33.5171 7.82524V4.66215C33.5171 2.1251 35.5764 0.0657959 38.1134 0.0657959C40.6423 0.0657959 42.7098 2.1251 42.7098 4.66215V7.82524C42.7098 10.3623 40.6423 12.4216 38.1134 12.4216ZM38.1134 2.15805C36.7296 2.15805 35.6093 3.28654 35.6093 4.66215V7.82524C35.6093 9.20085 36.7296 10.3293 38.1134 10.3293C39.4891 10.3293 40.6093 9.20085 40.6093 7.82524V4.66215C40.6093 3.28654 39.4891 2.15805 38.1134 2.15805Z" fill="#703627"/>
</g>
<path d="M38.1132 76.367C35.5761 76.367 33.5168 74.2995 33.5168 71.7624V68.6076C33.5168 66.0705 35.5761 64.0112 38.1132 64.0112C40.642 64.0112 42.7096 66.0705 42.7096 68.6076V71.7624C42.7096 74.2995 40.642 76.367 38.1132 76.367ZM38.1132 66.1035C36.7294 66.1035 35.6091 67.232 35.6091 68.6076V71.7624C35.6091 73.1463 36.7294 74.2665 38.1132 74.2665C39.4888 74.2665 40.6091 73.1463 40.6091 71.7624V68.6076C40.6091 67.232 39.4888 66.1035 38.1132 66.1035Z" fill="#703627"/>
<mask id="mask2_245_13816" style="mask-type:luminance" maskUnits="userSpaceOnUse" x="62" y="31" width="15" height="14">
<path d="M62.3387 31.8533H76.2267V44.5056H62.3387V31.8533Z" fill="white"/>
</mask>
<g mask="url(#mask2_245_13816)">
<path d="M71.6223 42.817H68.4675C65.9386 42.817 63.8711 40.7495 63.8711 38.2124C63.8711 35.6754 65.9386 33.6161 68.4675 33.6161H71.6223C74.1594 33.6161 76.2187 35.6754 76.2187 38.2124C76.2187 40.7495 74.1594 42.817 71.6223 42.817ZM68.4675 35.7083C67.0918 35.7083 65.9716 36.8368 65.9716 38.2124C65.9716 39.5963 67.0918 40.7166 68.4675 40.7166H71.6223C73.0062 40.7166 74.1264 39.5963 74.1264 38.2124C74.1264 36.8368 73.0062 35.7083 71.6223 35.7083H68.4675Z" fill="#703627"/>
</g>
<path d="M7.75121 42.8168H4.59636C2.06754 42.8168 0 40.7493 0 38.2122C0 35.6751 2.06754 33.6158 4.59636 33.6158H7.75121C10.2883 33.6158 12.3476 35.6751 12.3476 38.2122C12.3476 40.7493 10.2883 42.8168 7.75121 42.8168ZM4.59636 35.7081C3.22075 35.7081 2.10049 36.8366 2.10049 38.2122C2.10049 39.5961 3.22075 40.7163 4.59636 40.7163H7.75121C9.13506 40.7163 10.2553 39.5961 10.2553 38.2122C10.2553 36.8366 9.13506 35.7081 7.75121 35.7081H4.59636Z" fill="#703627"/>
<path d="M59.5792 21.3261C58.4012 21.3261 57.2233 20.873 56.3255 19.9752C54.538 18.1877 54.538 15.2635 56.3255 13.4678L58.5578 11.2355C59.4309 10.3706 60.5841 9.89282 61.8114 9.89282C63.0388 9.89282 64.192 10.3706 65.0569 11.2355C65.93 12.1086 66.4078 13.2618 66.4078 14.4892C66.4078 15.7248 65.93 16.878 65.0569 17.7429L62.8246 19.9752C61.935 20.873 60.7571 21.3261 59.5792 21.3261ZM57.8082 14.9505C56.8362 15.9307 56.8362 17.5205 57.8082 18.4925C58.7884 19.4727 60.3699 19.4727 61.3502 18.4925L63.5742 16.2602C64.5544 15.2882 64.5544 13.6984 63.5742 12.7182C62.6022 11.7462 61.0124 11.7462 60.0404 12.7182L57.8082 14.9505Z" fill="#703627"/>
<path d="M14.4151 66.5402C13.1877 66.5402 12.0345 66.0624 11.1614 65.1893C10.2965 64.3244 9.81873 63.1712 9.81873 61.9356C9.81873 60.7082 10.2965 59.555 11.1614 58.6901L13.3937 56.4496C14.2668 55.5847 15.42 55.1069 16.6474 55.1069C17.8747 55.1069 19.0279 55.5847 19.8928 56.4496C20.766 57.3227 21.2437 58.476 21.2437 59.7033C21.2437 60.9389 20.766 62.0921 19.8928 62.957L17.6605 65.1893C16.7956 66.0624 15.6424 66.5402 14.4151 66.5402ZM16.6474 57.2074C16.0049 57.2074 15.3624 57.4463 14.8764 57.9323L12.6441 60.1728C11.6721 61.1448 11.6721 62.7346 12.6441 63.7066C13.6243 64.6868 15.2059 64.6868 16.1861 63.7066L18.4101 61.4743C19.3904 60.5023 19.3904 58.9125 18.4101 57.9323C17.9241 57.4463 17.2816 57.2074 16.6474 57.2074Z" fill="#703627"/>
<path d="M61.8114 66.5402C60.5841 66.5402 59.4309 66.0624 58.5578 65.1893L56.3255 62.957C54.538 61.1695 54.538 58.2453 56.3255 56.4496C57.1986 55.5847 58.3518 55.1069 59.5792 55.1069C60.8065 55.1069 61.9597 55.5847 62.8246 56.4496L65.0569 58.6901C65.93 59.555 66.4078 60.7082 66.4078 61.9356C66.4078 63.1712 65.93 64.3244 65.0569 65.1893C64.192 66.0624 63.0388 66.5402 61.8114 66.5402ZM59.5792 57.2074C58.9367 57.2074 58.2942 57.4463 57.8082 57.9323C56.8362 58.9125 56.8362 60.5023 57.8082 61.4743L60.0404 63.7066C61.0124 64.6868 62.6022 64.6868 63.5742 63.7066C64.5544 62.7346 64.5544 61.1448 63.5742 60.1728L61.3502 57.9323C60.8559 57.4463 60.2217 57.2074 59.5792 57.2074Z" fill="#703627"/>
<path d="M16.6474 21.3261C15.42 21.3261 14.2668 20.8483 13.3937 19.9752L11.1614 17.7429C10.2965 16.878 9.81873 15.7248 9.81873 14.4892C9.81873 13.2618 10.2965 12.1086 11.1614 11.2355C12.0345 10.3706 13.1877 9.89282 14.4151 9.89282C15.6424 9.89282 16.7956 10.3706 17.6605 11.2355L19.8928 13.4678C20.766 14.3409 21.2437 15.4941 21.2437 16.7215C21.2437 17.957 20.766 19.1103 19.8928 19.9752C19.0279 20.8483 17.8747 21.3261 16.6474 21.3261ZM14.4151 11.9933C13.7726 11.9933 13.1301 12.2322 12.6441 12.7182C11.6721 13.6984 11.6721 15.2882 12.6441 16.2602L14.8764 18.4925C15.8484 19.4727 17.4381 19.4727 18.4101 18.4925C18.8879 18.0229 19.1432 17.3969 19.1432 16.7215C19.1432 16.0542 18.8879 15.4282 18.4101 14.9505L16.1861 12.7182C15.6919 12.2322 15.0576 11.9933 14.4151 11.9933Z" fill="#703627"/>
<path d="M38.1132 60.5766C25.7904 60.5766 15.7739 50.5437 15.7739 38.2126C15.7739 25.8815 25.7904 15.8568 38.1132 15.8568C50.4278 15.8568 60.4525 25.8815 60.4525 38.2126C60.4525 50.5437 50.4278 60.5766 38.1132 60.5766ZM38.1132 17.9491C26.9518 17.9491 17.8662 27.0429 17.8662 38.2126C17.8662 49.3905 26.9518 58.4843 38.1132 58.4843C49.2746 58.4843 58.352 49.3905 58.352 38.2126C58.352 27.0429 49.2746 17.9491 38.1132 17.9491Z" fill="#703627"/>
<path d="M93.3748 143.326C90.152 145.592 86.8209 147.751 84.0515 150.56C81.2919 153.368 79.104 156.946 78.7985 160.878C78.4929 164.811 80.4246 169.059 84.012 170.685C78.5915 176.756 73.1611 182.827 67.7307 188.908C66.479 190.297 65.2175 191.716 64.3699 193.382C63.5125 195.048 63.0986 197.019 63.6406 198.812C64.4488 201.464 67.1196 203.119 69.7708 203.908C74.807 205.386 80.4838 204.519 84.8399 201.592C87.6487 199.699 89.8662 197.058 92.0345 194.446C97.1593 196.585 102.343 197.768 107.577 198.162C107.074 201.651 108.779 205.219 111.499 207.259C114.209 209.299 117.757 209.979 121.148 209.811C124.538 209.644 127.84 208.707 131.102 207.761C141.756 204.962 151.592 199.207 158.806 190.977C166.03 182.748 170.504 172.005 170.632 161.056C170.751 150.106 166.365 139.048 157.791 131.184C139.449 128.385 120.576 129.144 102.521 133.401C98.5983 134.328 94.6166 135.461 93.3748 143.326Z" fill="#DDA783"/>
<path d="M127.15 163.973C128.816 167.314 129.299 171.237 128.51 174.883C127.712 178.54 125.643 181.901 122.745 184.246C120.271 186.257 117.255 187.508 114.762 189.499C112.712 191.135 111.046 193.244 109.943 195.629C109.539 196.497 109.134 197.482 108.277 197.896C107.646 198.192 106.917 198.123 106.237 198.044C103.743 197.768 101.26 197.492 98.7664 197.206C96.815 196.989 94.7749 196.743 93.1389 195.659C91.3748 194.496 90.3301 192.525 89.4825 190.593C86.9398 184.798 85.5501 178.51 85.4023 172.193C85.3038 167.965 85.8852 163.392 88.7335 160.268C90.1823 158.671 92.0942 157.587 94.0456 156.69C99.4366 154.197 105.488 152.906 111.372 153.714C117.255 154.532 123.74 157.114 127.15 163.973Z" fill="#FFDCC4"/>
<path d="M67.4063 189.341C74.4333 191.095 80.6324 195.905 84.1016 202.281C80.3959 203.888 76.2664 204.509 72.2552 204.055C70.4024 203.838 68.5396 203.385 66.9529 202.399C65.3662 201.414 64.0751 199.837 63.7499 197.994C63.2078 194.87 65.4154 192.002 67.4063 189.341Z" fill="#B27966"/>
<path d="M116.25 189.193C122.588 193.332 126.954 200.379 127.821 207.909C124.125 208.894 120.281 209.762 116.516 209.131C112.752 208.5 109.046 206.026 108.06 202.331C107.302 199.443 108.317 196.289 110.16 193.943C112.013 191.598 114.605 189.962 116.25 189.193Z" fill="#B27966"/>
<path d="M78.3852 161.351C77.922 159.824 78.9371 158.148 80.3464 157.399C81.7459 156.64 83.4312 156.631 85.0081 156.788C87.472 157.025 89.8866 157.656 92.1534 158.641C94.1048 159.499 95.997 160.652 97.2487 162.386C98.4905 164.121 98.9833 166.506 98.0667 168.438C97.1797 170.31 95.1495 171.414 93.1192 171.877C89.6402 172.656 85.836 171.848 82.9877 169.699C80.1296 167.56 79.1835 164.012 78.3852 161.351Z" fill="#DDA783"/>
<path d="M93.9479 159.055C90.1634 162.288 87.4137 166.742 86.231 171.581C88.8329 172.104 91.553 172.055 94.1351 171.453C95.8697 171.039 97.7127 170.241 98.442 168.605C98.9545 167.452 98.7968 166.112 98.5209 164.88C98.2055 163.52 97.7423 162.16 96.8848 161.056C96.0274 159.952 94.7265 159.124 93.9479 159.055Z" fill="#B27966"/>
<path d="M162.088 139.679C167.252 134.594 169.618 126.827 168.189 119.712C172.16 119.879 176.053 116.942 176.98 113.069C177.906 109.186 175.777 104.8 172.16 103.145C169.253 101.804 165.873 102.169 162.719 102.721C161.635 99.6655 159.348 97.0538 156.47 95.5755C158.244 92.333 158.353 88.5189 156.677 85.651C155.002 82.7929 151.612 81.0287 148.31 81.3047C145.008 81.5806 141.953 83.877 140.445 86.8829C132.127 84.5668 123.415 83.463 114.831 84.3599C106.237 85.2567 97.7806 88.2331 90.9409 93.5058C84.0913 98.7687 78.9467 106.407 77.3895 115.375C75.9309 125.556 80.0505 136.368 87.9054 142.991C95.642 149.515 106.247 151.792 116.348 151.289C126.45 150.796 136.247 147.8 145.905 144.814C150.547 143.385 156.904 144.794 162.088 139.679Z" fill="#DDA783"/>
<path d="M129.053 117.445C129.95 118.756 130.876 120.175 130.876 121.771C130.876 122.323 130.738 122.924 130.304 123.269C129.851 123.624 129.181 123.604 128.649 123.368C128.126 123.131 127.712 122.708 127.308 122.284C126.441 121.357 125.603 120.411 124.874 119.367C124.46 118.765 124.076 118.115 123.948 117.395C123.829 116.676 124.026 115.868 124.588 115.405C125.219 114.902 126.145 114.951 126.865 115.306C127.584 115.651 128.215 116.213 129.053 117.445Z" fill="#703627"/>
<path d="M155.86 95.7331C156.283 95.7331 156.697 95.5162 156.934 95.122C159.033 91.643 159.299 88.1443 157.693 85.0102C155.869 81.4425 151.661 79.2546 147.709 79.8164C143.787 80.3683 141.195 82.9011 140.396 86.9419C140.268 87.6219 140.712 88.2921 141.392 88.4202C142.072 88.5582 142.742 88.1147 142.87 87.4248C143.461 84.4386 145.206 82.7237 148.064 82.3197C150.991 81.9057 154.105 83.522 155.456 86.1633C156.648 88.5089 156.421 91.0812 154.775 93.8112C154.421 94.4124 154.608 95.191 155.209 95.5458C155.406 95.6739 155.633 95.7331 155.86 95.7331Z" fill="#703627"/>
<path d="M161.842 140.645C162.137 140.645 162.423 140.546 162.66 140.339C169.155 134.741 171.973 126.404 169.687 119.583C169.46 118.923 168.741 118.568 168.09 118.795C167.43 119.012 167.075 119.731 167.292 120.392C169.263 126.246 166.74 133.5 161.024 138.427C160.492 138.881 160.432 139.679 160.886 140.211C161.132 140.497 161.487 140.645 161.842 140.645Z" fill="#703627"/>
<path d="M125.17 130.513C125.17 130.967 125.258 131.4 125.426 131.814C125.603 132.228 125.85 132.603 126.165 132.918C126.48 133.233 126.845 133.48 127.259 133.657C127.683 133.825 128.107 133.914 128.56 133.914C129.003 133.914 129.437 133.825 129.851 133.657C130.265 133.48 130.639 133.233 130.955 132.918C131.27 132.603 131.517 132.228 131.684 131.814C131.862 131.4 131.94 130.967 131.94 130.513C131.94 130.07 131.862 129.636 131.684 129.222C131.517 128.808 131.27 128.434 130.955 128.118C130.639 127.803 130.265 127.557 129.851 127.379C129.437 127.212 129.003 127.123 128.56 127.123C128.107 127.123 127.683 127.212 127.259 127.379C126.845 127.557 126.48 127.803 126.165 128.118C125.85 128.434 125.603 128.808 125.426 129.222C125.258 129.636 125.17 130.07 125.17 130.513Z" fill="#FAC4AF"/>
<path d="M104.345 101.223C101.95 99.6753 99.4268 98.2759 96.6672 97.5367C93.9175 96.7877 90.9214 96.7384 88.2801 97.8126C85.2249 99.0643 84.2197 100.75 82.288 103.44C80.2183 106.328 80.0113 108.309 78.7005 111.62C77.9318 113.542 77.2222 119.909 77.5474 121.949C78.0796 125.329 78.1782 125.507 80.8491 127.636C83.4115 129.676 86.0035 131.735 88.9897 133.066C91.976 134.387 95.4451 134.919 98.5201 133.805C100.639 133.036 102.423 131.538 103.941 129.873C107.173 126.325 109.351 121.929 110.997 117.415C111.815 115.139 112.515 112.704 112.052 110.329C111.362 106.84 108.622 104.002 104.345 101.223Z" fill="#B27966"/>
<path d="M104.266 110.073C103.409 110.398 102.66 111.009 102.187 111.798C101.99 112.123 101.842 112.557 102.059 112.872C102.276 113.168 102.709 113.178 103.074 113.168C103.862 113.128 104.661 113.089 105.41 112.823C106.109 112.586 106.799 112.054 106.848 111.315C106.878 110.753 106.494 110.221 105.991 109.984C105.479 109.748 104.897 109.827 104.266 110.073Z" fill="#703627"/>
<path d="M94.4987 104.209C94.617 105.126 94.4297 106.072 93.9567 106.87C93.7694 107.195 93.454 107.53 93.0795 107.481C92.7149 107.432 92.498 107.057 92.3404 106.722C92.0053 106.013 91.6603 105.283 91.5322 104.505C91.4139 103.775 91.5618 102.908 92.1925 102.524C92.6656 102.228 93.3161 102.317 93.7596 102.652C94.2129 102.987 94.41 103.539 94.4987 104.209Z" fill="#703627"/>
<path d="M94.3709 127.636C95.662 127.636 97.0319 127.133 98.1948 126.177C98.5989 125.842 98.6581 125.25 98.323 124.846C97.9879 124.442 97.3965 124.383 96.9925 124.708C95.7901 125.704 94.2723 126.009 93.2079 125.487C92.2027 124.984 91.5522 123.713 91.5522 122.264L92.0943 121.338C93.5627 118.844 95.0312 116.361 96.3124 114.153C96.5687 113.7 96.4208 113.118 95.9675 112.852C95.5141 112.596 94.9327 112.754 94.6764 113.197C93.3952 115.415 91.9366 117.888 90.4681 120.382L89.7979 121.515C89.7191 121.653 89.6698 121.801 89.6599 121.959C89.5614 124.265 90.6258 126.325 92.3801 127.182C92.9911 127.488 93.6711 127.636 94.3709 127.636Z" fill="#703627"/>
<path d="M88.1429 123.486C89.0693 123.486 90.0253 123.23 90.9221 122.728C91.3853 122.461 91.543 121.89 91.2868 121.436C91.0207 120.973 90.4491 120.816 89.9957 121.072C88.7243 121.791 87.315 121.762 86.4181 120.983C85.4819 120.185 85.0778 118.559 85.4129 116.962C85.5213 116.45 85.1862 115.947 84.6737 115.839C84.1612 115.73 83.6684 116.065 83.56 116.568C83.0771 118.864 83.7177 121.161 85.1862 122.422C86.0042 123.132 87.0489 123.486 88.1429 123.486Z" fill="#703627"/>
<path d="M113.717 152.767C115.176 152.767 116.654 152.698 118.133 152.56C118.822 152.491 119.335 151.88 119.266 151.181C119.207 150.491 118.596 149.978 117.896 150.047C108.888 150.895 100.136 148.993 93.2177 144.686C85.7275 140.034 80.4548 132.435 79.1144 124.383C77.7938 116.43 80.2478 107.599 85.6881 100.76C90.6848 94.4619 98.1947 89.682 106.828 87.297C114.486 85.178 123.08 84.8232 132.354 86.2523C142.624 87.8292 156.5 93.91 162.709 103.549C163.084 104.14 163.862 104.308 164.444 103.923C165.035 103.549 165.203 102.77 164.828 102.179C158.156 91.8305 143.905 85.4638 132.729 83.7588C123.1 82.2805 114.161 82.655 106.158 84.8626C97.0121 87.3955 89.0389 92.481 83.717 99.1828C77.843 106.584 75.1919 116.154 76.6308 124.797C78.0894 133.559 83.7859 141.798 91.8872 146.834C98.1258 150.717 105.754 152.767 113.717 152.767Z" fill="#703627"/>
<path d="M101.26 94.915C101.398 94.915 101.536 94.8953 101.674 94.846L108.376 92.5497C109.026 92.323 109.381 91.6035 109.154 90.9432C108.927 90.2829 108.218 89.9281 107.557 90.1548L100.856 92.4511C100.195 92.6778 99.8406 93.3973 100.067 94.0576C100.245 94.5799 100.737 94.915 101.26 94.915Z" fill="#C48C71"/>
<path d="M116.644 90.4109C116.654 90.4109 116.654 90.4109 116.664 90.4109L124.302 90.273C125.002 90.2631 125.554 89.6816 125.544 88.9917C125.524 88.292 124.972 87.7105 124.263 87.7499L116.625 87.8879C115.925 87.8978 115.373 88.4694 115.383 89.1691C115.393 89.859 115.954 90.4109 116.644 90.4109Z" fill="#C48C71"/>
<path d="M110.593 99.9314C110.702 99.9314 110.8 99.9216 110.909 99.892L117.729 98.1574C118.399 97.98 118.803 97.3 118.635 96.62C118.458 95.9399 117.778 95.5359 117.098 95.7133L110.288 97.4478C109.608 97.6252 109.204 98.3053 109.371 98.9853C109.519 99.5569 110.032 99.9314 110.593 99.9314Z" fill="#C48C71"/>
<path d="M133.911 97.4479C134.552 97.4479 135.104 96.9551 135.163 96.2948C135.222 95.6049 134.709 94.9939 134.01 94.9348L126.658 94.304C125.968 94.2449 125.357 94.7672 125.297 95.4571C125.238 96.1568 125.751 96.7679 126.451 96.827L133.803 97.4479C133.832 97.4479 133.872 97.4479 133.911 97.4479Z" fill="#C48C71"/>
<path d="M142.535 94.5506C143.057 94.5506 143.55 94.2254 143.727 93.7031C143.964 93.0526 143.619 92.3233 142.958 92.0966L135.419 89.4356C134.768 89.2089 134.049 89.5539 133.813 90.2043C133.586 90.8647 133.931 91.5841 134.581 91.8207L142.121 94.4817C142.259 94.5211 142.397 94.5506 142.535 94.5506Z" fill="#C48C71"/>
<path d="M91.1383 173.345C95.0805 173.345 97.978 172.054 99.3184 169.689C101.043 166.654 99.6633 162.928 97.4064 160.799C95.1988 158.72 92.2914 157.784 89.7191 156.966C89.0587 156.749 88.3491 157.113 88.1323 157.774C87.9254 158.444 88.29 159.153 88.9503 159.36C91.2664 160.109 93.888 160.947 95.6817 162.642C97.1797 164.052 98.1948 166.565 97.1304 168.437C95.9182 170.566 92.6856 170.852 90.9116 170.813C87.2453 170.763 84.4365 169.857 82.5541 168.122C80.1986 165.944 79.2426 162.09 80.1888 158.533C81.2433 154.521 84.1802 151.594 86.4569 149.85C88.428 148.342 90.4977 147.228 92.2717 146.341C92.8926 146.036 93.1389 145.277 92.8334 144.646C92.518 144.025 91.7592 143.769 91.1383 144.084C89.2657 145.021 87.0581 146.203 84.9293 147.849C82.3373 149.83 78.9864 153.191 77.7446 157.892C76.5521 162.396 77.7741 167.146 80.8392 169.975C83.1947 172.153 86.5751 173.276 90.8722 173.345C90.9609 173.345 91.0496 173.345 91.1383 173.345Z" fill="#703627"/>
<mask id="mask3_245_13816" style="mask-type:luminance" maskUnits="userSpaceOnUse" x="105" y="134" width="69" height="77">
<path d="M173.629 134.692H105.508V210.728H173.629V134.692Z" fill="white"/>
</mask>
<g mask="url(#mask3_245_13816)">
<path d="M119.119 210.669C120.035 210.669 121.001 210.619 122.016 210.521C140.052 208.826 156.629 198.901 165.292 184.62C174.862 168.832 174.586 150.589 164.573 136.998C164.159 136.437 163.37 136.318 162.808 136.732C162.256 137.146 162.138 137.935 162.542 138.496C171.945 151.25 172.171 168.418 163.143 183.31C154.885 196.92 139.037 206.381 121.78 208.008C116.458 208.51 112.939 207.613 110.998 205.268C108.081 201.72 110.052 195.826 113.56 192.396C115.482 190.504 117.739 189.036 120.124 187.488C122.322 186.059 124.598 184.581 126.589 182.738C127.102 182.275 127.141 181.476 126.668 180.954C126.195 180.442 125.397 180.412 124.884 180.885C123.051 182.58 120.962 183.931 118.754 185.369C116.369 186.917 113.905 188.523 111.796 190.583C107.401 194.89 105.173 202.153 109.056 206.874C111.155 209.417 114.467 210.669 119.119 210.669Z" fill="#703627"/>
</g>
<mask id="mask4_245_13816" style="mask-type:luminance" maskUnits="userSpaceOnUse" x="60" y="167" width="51" height="41">
<path d="M110.554 167.491H60.1234V207.86H110.554V167.491Z" fill="white"/>
</mask>
<g mask="url(#mask4_245_13816)">
<path d="M74.4529 205.849C81.1941 205.849 87.9846 202.39 91.6903 196.535C91.8086 196.348 92.0451 196.328 92.2324 196.407C97.0123 198.378 102.876 199.423 108.346 199.295C109.046 199.275 109.588 198.694 109.578 198.004C109.558 197.314 108.997 196.772 108.317 196.772C108.307 196.772 108.297 196.772 108.287 196.772C103.162 196.89 97.6628 195.914 93.1883 194.071C91.8381 193.52 90.3204 193.983 89.5615 195.185C85.2053 202.074 75.9707 205.169 68.5495 202.222C67.4161 201.778 66.4798 201.108 65.8491 200.3C63.7104 197.59 64.9621 194.663 67.5048 191.115C72.5015 184.127 79.3906 176.952 84.8407 171.483C85.3335 170.99 85.3335 170.191 84.8407 169.699C84.3479 169.206 83.5496 169.206 83.0568 169.699C77.5377 175.237 70.56 182.501 65.4548 189.636C63.8582 191.874 60.123 197.107 63.8681 201.867C64.7748 203.02 66.0757 203.966 67.6231 204.577C69.8011 205.435 72.127 205.849 74.4529 205.849Z" fill="#703627"/>
</g>
<path d="M165.419 161.736C166.03 161.736 166.562 161.282 166.661 160.661C167.44 155.546 166.326 150.096 163.606 145.71C163.231 145.119 162.463 144.932 161.871 145.297C161.28 145.671 161.093 146.45 161.457 147.041C163.872 150.924 164.857 155.753 164.168 160.277C164.069 160.967 164.532 161.607 165.222 161.716C165.291 161.726 165.35 161.736 165.419 161.736Z" fill="#C58D72"/>
<path d="M155.052 168.575C155.633 168.575 156.165 168.171 156.283 167.58C157.338 162.632 157.949 157.567 158.107 152.521C158.136 151.831 157.584 151.249 156.895 151.22C156.234 151.2 155.613 151.752 155.594 152.442C155.436 157.34 154.845 162.258 153.82 167.048C153.682 167.738 154.115 168.408 154.795 168.546C154.884 168.566 154.973 168.575 155.052 168.575Z" fill="#C58D72"/>
<path d="M153.455 183.93C153.74 183.93 154.036 183.822 154.283 183.615C158.796 179.673 162.216 174.331 163.892 168.565C164.089 167.905 163.704 167.196 163.034 167.008C162.364 166.811 161.664 167.196 161.467 167.866C159.93 173.168 156.786 178.086 152.627 181.713C152.095 182.166 152.045 182.964 152.499 183.497C152.745 183.782 153.1 183.93 153.455 183.93Z" fill="#C58D72"/>
<path d="M96.0757 160.731C96.0757 161.657 96.1644 162.573 96.3418 163.48C96.5291 164.397 96.7952 165.274 97.15 166.131C97.5048 166.989 97.9384 167.807 98.4509 168.576C98.9634 169.344 99.5449 170.064 100.205 170.714C100.856 171.374 101.565 171.956 102.344 172.468C103.113 172.991 103.921 173.424 104.778 173.779C105.636 174.134 106.513 174.4 107.419 174.578C108.326 174.765 109.243 174.854 110.169 174.854C111.096 174.854 112.012 174.765 112.919 174.578C113.826 174.4 114.713 174.134 115.57 173.779C116.418 173.424 117.236 172.991 118.004 172.468C118.773 171.956 119.483 171.374 120.143 170.714C120.793 170.064 121.385 169.344 121.897 168.576C122.41 167.807 122.843 166.989 123.198 166.131C123.553 165.274 123.819 164.397 123.997 163.48C124.184 162.573 124.272 161.657 124.272 160.731C124.272 159.804 124.184 158.878 123.997 157.971C123.819 157.064 123.553 156.177 123.198 155.32C122.843 154.462 122.41 153.654 121.897 152.876C121.385 152.107 120.793 151.397 120.143 150.737C119.483 150.087 118.773 149.495 118.004 148.983C117.236 148.47 116.418 148.037 115.57 147.682C114.713 147.327 113.826 147.051 112.919 146.874C112.012 146.696 111.096 146.598 110.169 146.598C109.243 146.598 108.326 146.696 107.419 146.874C106.513 147.051 105.636 147.327 104.778 147.682C103.921 148.037 103.113 148.47 102.344 148.983C101.565 149.495 100.856 150.087 100.205 150.737C99.5449 151.397 98.9634 152.107 98.4509 152.876C97.9384 153.654 97.5048 154.462 97.15 155.32C96.7952 156.177 96.5291 157.064 96.3418 157.971C96.1644 158.878 96.0757 159.804 96.0757 160.731Z" fill="#87A0A6"/>
<path d="M100.452 160.73C100.452 162.021 100.698 163.263 101.191 164.456C101.693 165.648 102.393 166.693 103.3 167.609C104.216 168.526 105.261 169.226 106.454 169.718C107.646 170.211 108.888 170.458 110.169 170.458C111.46 170.458 112.702 170.211 113.895 169.718C115.077 169.226 116.132 168.526 117.038 167.609C117.955 166.693 118.655 165.648 119.148 164.456C119.64 163.263 119.887 162.021 119.887 160.73C119.887 159.439 119.64 158.197 119.148 157.005C118.655 155.812 117.955 154.758 117.038 153.841C116.132 152.934 115.077 152.225 113.895 151.732C112.702 151.239 111.46 150.993 110.169 150.993C108.888 150.993 107.646 151.239 106.454 151.732C105.261 152.225 104.216 152.934 103.3 153.841C102.393 154.758 101.693 155.812 101.191 157.005C100.698 158.197 100.452 159.439 100.452 160.73Z" fill="#E2E8EF"/>
<path d="M110.15 176.115C115.767 176.115 121.198 173.011 123.888 167.639C127.703 160.06 124.637 150.796 117.078 146.982C109.509 143.168 100.255 146.233 96.4506 153.812C92.6463 161.391 95.7015 170.655 103.271 174.469C105.478 175.583 107.834 176.115 110.15 176.115ZM121.641 166.506C118.458 172.843 110.731 175.405 104.404 172.222C98.0767 169.029 95.5241 161.282 98.7075 154.945C101.881 148.608 109.618 146.046 115.945 149.239C122.262 152.422 124.825 160.169 121.641 166.506Z" fill="#703627"/>
<path d="M110.15 171.719C114.171 171.719 118.054 169.502 119.976 165.668C122.696 160.257 120.508 153.634 115.107 150.904C112.486 149.584 109.509 149.367 106.73 150.284C103.941 151.21 101.684 153.161 100.363 155.783C97.6531 161.204 99.8312 167.826 105.242 170.547C106.819 171.345 108.494 171.719 110.15 171.719ZM110.18 152.255C111.48 152.255 112.781 152.56 113.974 153.161C118.133 155.261 119.818 160.366 117.729 164.535C115.63 168.704 110.544 170.399 106.375 168.3C102.206 166.19 100.521 161.095 102.62 156.916C103.635 154.896 105.37 153.398 107.519 152.678C108.396 152.393 109.293 152.255 110.18 152.255Z" fill="#703627"/>
<path d="M108.06 160.73C108.06 161.312 108.267 161.815 108.68 162.219C109.094 162.633 109.587 162.839 110.169 162.839C110.75 162.839 111.253 162.633 111.667 162.219C112.081 161.815 112.288 161.312 112.288 160.73C112.288 160.139 112.081 159.646 111.667 159.232C111.253 158.818 110.75 158.611 110.169 158.611C109.587 158.611 109.094 158.818 108.68 159.232C108.267 159.646 108.06 160.139 108.06 160.73Z" fill="#87A0A6"/>
<path d="M120.281 146.608C120.863 146.608 121.444 146.509 122.016 146.322C123.415 145.859 124.549 144.873 125.219 143.552C125.879 142.232 125.987 140.734 125.524 139.334C125.061 137.925 124.085 136.792 122.765 136.121C121.444 135.461 119.946 135.353 118.547 135.816C117.147 136.279 116.014 137.265 115.353 138.585C114.683 139.896 114.575 141.404 115.038 142.803C115.501 144.203 116.487 145.346 117.798 146.006C118.586 146.401 119.424 146.608 120.281 146.608ZM120.281 138.063C120.744 138.063 121.208 138.171 121.631 138.378C122.351 138.743 122.883 139.364 123.129 140.123C123.386 140.891 123.326 141.7 122.962 142.419C122.607 143.138 121.986 143.671 121.227 143.927C120.468 144.173 119.65 144.114 118.931 143.759C118.221 143.395 117.689 142.774 117.433 142.015C117.177 141.246 117.236 140.438 117.6 139.719C117.965 138.999 118.576 138.467 119.345 138.211C119.65 138.112 119.966 138.063 120.281 138.063Z" fill="#703627"/>
<path d="M110.17 164.101C111.402 164.101 112.594 163.421 113.185 162.249C114.023 160.583 113.353 158.543 111.687 157.705C110.879 157.301 109.973 157.232 109.115 157.518C108.258 157.804 107.568 158.405 107.164 159.213C106.326 160.869 106.996 162.909 108.662 163.747C109.145 163.993 109.657 164.101 110.17 164.101ZM110.929 161.115C110.722 161.529 110.209 161.697 109.785 161.49C109.371 161.283 109.204 160.76 109.411 160.346C109.509 160.139 109.687 159.992 109.904 159.913C110.12 159.844 110.357 159.863 110.554 159.962C110.978 160.179 111.145 160.691 110.929 161.115Z" fill="#703627"/>
<path d="M111.204 159.932C111.668 159.932 112.111 159.676 112.338 159.232L113.954 156.01C114.26 155.389 114.013 154.63 113.392 154.314C112.771 154.009 112.013 154.255 111.697 154.876L110.081 158.099C109.765 158.72 110.022 159.479 110.643 159.794C110.82 159.883 111.017 159.932 111.204 159.932Z" fill="#703627"/>
<path d="M116.694 149.465C117.157 149.465 117.601 149.209 117.828 148.775L120.006 144.429C120.321 143.798 120.075 143.04 119.444 142.724C118.833 142.419 118.074 142.665 117.759 143.286L115.571 147.632C115.255 148.263 115.511 149.022 116.132 149.327C116.31 149.426 116.507 149.465 116.694 149.465Z" fill="#703627"/>
<path d="M138.376 154.758C140.189 159.942 140.189 167.768 138.376 172.952C138.051 173.858 136.365 172.37 135.547 172.883C134.7 173.395 133.625 173.326 132.64 173.188C129.693 172.764 126.796 171.917 124.085 170.675C122.498 169.946 120.941 169.069 119.739 167.797C118.537 166.526 117.709 164.811 117.807 163.066C117.906 161.066 119.187 159.282 120.813 158.119C122.43 156.966 124.371 156.345 126.293 155.823C129.949 154.837 134.946 154.571 138.376 154.758Z" fill="#DDA783"/>
<path d="M128.827 155.409C132.444 160.169 132.591 167.285 129.172 172.193C126.639 171.621 124.037 171.03 121.859 169.601C119.681 168.181 117.985 165.708 118.232 163.116C118.439 160.829 120.104 158.878 122.095 157.735C124.076 156.582 126.373 156.099 128.827 155.409Z" fill="#B27966"/>
<path d="M137.075 174.213C137.755 174.213 138.316 173.661 138.336 172.971C138.346 172.271 137.794 171.7 137.094 171.68C133.142 171.611 129.259 170.901 125.534 169.571C124.124 169.068 122.341 168.339 121.01 167.127C119.768 165.983 119.069 164.485 119.157 163.135C119.236 161.883 119.965 160.602 121.178 159.617C122.459 158.562 124.105 157.951 125.386 157.527C129.506 156.197 133.97 155.674 138.277 156.019C138.967 156.079 139.578 155.556 139.627 154.856C139.686 154.167 139.164 153.556 138.474 153.496C133.842 153.132 129.042 153.703 124.617 155.132C123.119 155.615 121.188 156.335 119.581 157.655C117.837 159.084 116.762 161.026 116.644 162.968C116.506 165.087 117.511 167.334 119.315 168.989C120.981 170.507 123.06 171.364 124.686 171.946C128.668 173.365 132.827 174.124 137.055 174.213C137.055 174.213 137.065 174.213 137.075 174.213Z" fill="#703627"/>
<path d="M89.3447 158.267C87.5017 158.207 85.6193 158.158 83.8453 158.641C82.0615 159.134 80.3564 160.257 79.6271 161.953C78.7598 163.973 79.4497 166.407 80.8788 168.073C82.3078 169.729 84.3677 170.724 86.4373 171.424C88.6942 172.183 91.1187 172.656 93.4446 172.183C95.7705 171.719 97.988 170.152 98.7272 167.895C99.5255 165.471 98.4611 162.702 96.5787 160.977C94.6963 159.262 92.1437 158.345 89.3447 158.267Z" fill="#DDA783"/>
<path d="M93.9865 158.996C90.2019 162.238 87.4621 166.683 86.2696 171.522C88.8714 172.045 91.5916 172.005 94.1737 171.394C95.9083 170.99 97.7513 170.182 98.4806 168.556C98.9931 167.393 98.8354 166.052 98.5594 164.82C98.2441 163.46 97.7808 162.1 96.9234 160.997C96.066 159.893 94.7749 159.075 93.9865 158.996Z" fill="#B27966"/>
<path d="M91.178 173.286C95.1203 173.286 98.0178 171.995 99.368 169.63C101.083 166.604 99.7031 162.869 97.4462 160.74C95.2188 158.641 91.2076 157.36 88.8127 156.591C88.1524 156.374 87.4428 156.739 87.2358 157.409C87.019 158.069 87.3836 158.779 88.044 158.996C90.2418 159.695 93.908 160.868 95.7214 162.583C97.2195 163.992 98.2445 166.506 97.1702 168.378C95.958 170.507 92.7746 170.793 90.9514 170.763C87.2851 170.704 84.4763 169.797 82.5939 168.063C80.2384 165.885 79.2824 162.041 80.2285 158.473C80.4059 157.803 80.0018 157.113 79.3317 156.936C78.6615 156.758 77.9716 157.153 77.7843 157.833C76.6017 162.337 77.8139 167.087 80.8888 169.925C83.2345 172.094 86.6149 173.227 90.9119 173.286C91.0006 173.286 91.0893 173.286 91.178 173.286Z" fill="#703627"/>
<path d="M181.711 117.455C182.381 117.721 183.012 116.982 182.627 116.361L177.542 108.132C177.019 107.294 176.96 106.269 177.315 105.352C184.776 86.4988 176.675 71.2523 163.636 62.9243C158.432 59.603 153.81 58.1444 151.464 57.4644C135.419 52.783 117.039 57.4151 108.74 77.6189C108.376 78.5257 107.607 79.2254 106.661 79.4619L97.2979 81.847C96.5883 82.0244 96.5292 83.0001 97.1994 83.276L181.711 117.455Z" fill="#F5B440"/>
<path d="M176.378 107.037C168.198 103.736 125.602 87.0107 108.257 79.5599C109.331 76.2484 110.74 73.0454 112.435 70.0099L179.769 97.2408C179.01 100.621 177.876 103.923 176.378 107.037Z" fill="#B25D3E"/>
<path d="M176.714 108.063C177.216 108.063 177.69 107.767 177.887 107.274C178.143 106.624 177.837 105.894 177.187 105.628C175.58 104.978 172.634 103.795 168.79 102.258C152.548 95.753 122.321 83.6406 108.395 77.6484C107.755 77.3724 107.015 77.6681 106.739 78.3087C106.464 78.9493 106.759 79.6984 107.4 79.9743C121.355 85.9665 151.602 98.0888 167.854 104.603C171.697 106.141 174.644 107.323 176.251 107.974C176.398 108.033 176.556 108.063 176.714 108.063Z" fill="#703627"/>
<path d="M179.77 98.5124C180.263 98.5124 180.736 98.2069 180.933 97.7141C181.199 97.0735 180.883 96.3344 180.243 96.0781L113.196 68.9557C112.555 68.6994 111.816 69.0049 111.55 69.6554C111.293 70.3059 111.609 71.0352 112.249 71.3013L179.297 98.4139C179.454 98.4829 179.612 98.5124 179.77 98.5124Z" fill="#703627"/>
<path d="M181.997 118.775C182.578 118.775 183.14 118.519 183.534 118.056C184.086 117.386 184.155 116.44 183.702 115.7L178.133 106.692C186.895 85.7593 176.793 69.8327 164.316 61.8596C158.629 58.2327 153.504 56.7347 151.819 56.2517C136.779 51.8562 116.162 54.9705 107.232 78.0128L96.9826 80.6245C96.135 80.8413 95.5339 81.5706 95.4747 82.4379C95.4156 83.3052 95.9182 84.1134 96.7264 84.4386L181.238 118.628C181.484 118.726 181.74 118.775 181.997 118.775ZM140.179 57.0993C143.984 57.0993 147.699 57.6808 151.119 58.6762C153.889 59.4844 158.136 60.9134 162.956 63.9884C174.674 71.4786 184.145 86.5181 175.561 106.298C175.393 106.683 175.433 107.116 175.65 107.461L180.735 115.7L99.1114 82.6843L108.484 80.2993C108.888 80.2007 109.213 79.9051 109.351 79.5207C115.57 62.8451 128.254 57.0993 140.179 57.0993Z" fill="#703627"/>
<path d="M174.693 107.294L175.649 111.699L173.442 116.144L168.386 119.367C168.386 119.367 163.084 119.544 162.965 119.544C162.847 119.544 156.569 118.293 156.569 118.293L154.667 111.551L155.199 108.486L160.768 103.322L168.948 102.248L174.171 105.589L174.693 107.294Z" fill="#DDA783"/>
<path d="M164.109 121.574C166.416 121.574 168.495 121.2 170.318 120.441C174.063 118.884 176.734 115.582 177.129 112.024C177.503 108.565 175.67 104.899 172.575 102.908C169.776 101.104 166.031 100.641 162.572 101.676C159.546 102.583 156.668 104.633 154.471 107.441C154.047 107.993 154.136 108.782 154.687 109.215C155.239 109.639 156.028 109.551 156.452 108.999C158.334 106.594 160.758 104.859 163.291 104.1C166.061 103.273 169.017 103.618 171.215 105.027C173.531 106.525 174.891 109.215 174.615 111.748C174.33 114.4 172.27 116.893 169.352 118.105C166.889 119.13 163.814 119.327 160.216 118.687C159.527 118.568 158.876 119.032 158.758 119.712C158.64 120.402 159.093 121.052 159.783 121.18C161.301 121.446 162.739 121.574 164.109 121.574Z" fill="#703627"/>
<path d="M158.688 112.961C159.062 112.961 159.417 112.803 159.673 112.498C161.97 109.649 166.139 108.477 169.578 109.699C170.238 109.935 170.958 109.59 171.194 108.94C171.421 108.28 171.086 107.56 170.426 107.324C166.01 105.747 160.669 107.255 157.712 110.911C157.278 111.453 157.357 112.241 157.899 112.685C158.136 112.872 158.412 112.961 158.688 112.961Z" fill="#703627"/>
</svg>
