<svg width="155" height="125" viewBox="0 0 155 125" fill="none" xmlns="http://www.w3.org/2000/svg">
<path d="M82.797 79.0023C84.818 86.9576 85.6998 95.2026 85.4101 103.409C85.3265 105.881 85.1269 108.371 84.3868 110.727C83.6402 113.083 82.3078 115.316 80.3061 116.764C78.3044 118.206 75.5818 118.76 73.2969 117.826C70.4585 116.674 68.9073 113.675 67.6008 110.907C66.7318 113.115 66.1461 115.316 64.9425 117.202C63.7325 119.088 61.7823 120.633 59.5489 120.768C57.8433 120.871 56.1762 120.15 54.8246 119.107C53.473 118.058 52.3917 116.713 51.3297 115.381C48.8774 116.256 45.9553 116.578 43.207 116.011C41.6687 119.435 37.8713 122.274 33.7713 123.342C29.6713 124.404 25.3075 123.902 21.2204 122.782C15.2797 121.386 9.44188 117.543 5.86327 112.143C1.76331 105.951 0.733498 98.0346 2.13662 90.7422C3.53975 83.4498 7.21491 76.7431 11.8105 70.9182C16.4125 65.0933 21.9348 60.0665 28.1459 55.3616C46.0905 57.389 63.2884 65.531 82.797 79.0023Z" fill="#DDA783"/>
<path d="M84.5219 108.455C79.8234 106.659 74.5327 106.472 69.7183 107.927C68.9846 108.152 68.1929 108.468 67.8325 109.143C67.6072 109.568 67.5943 110.077 67.6265 110.559C67.8196 113.52 69.7505 116.294 72.4538 117.504C75.157 118.708 78.5104 118.29 80.8403 116.462C83.1639 114.627 84.361 111.461 84.5219 108.455Z" fill="#B27966"/>
<path d="M49.2765 112.175C54.6894 109.678 61.1515 109.581 66.6353 111.918C66.5001 114.467 65.3158 116.938 63.4236 118.637C62.4259 119.532 61.2159 120.227 59.8964 120.465C57.7016 120.864 55.436 119.957 53.6982 118.554C51.9669 117.151 50.6731 115.29 49.2765 112.175Z" fill="#B27966"/>
<path d="M46.7534 101.066C44.668 101.22 42.5762 101.375 40.4908 101.529C41.7652 103.75 43.0525 106.009 43.6318 108.506C44.2175 110.997 44.0115 113.797 42.4861 115.857C45.2344 116.365 48.1179 116.101 50.7182 115.091C48.7036 111.062 47.5193 106.62 46.7534 101.066Z" fill="#FFDCC4"/>
<path d="M39.9244 101.806C31.1839 104.175 23.8464 111.19 21.0788 119.828C20.7634 120.806 20.5381 121.978 21.1882 122.769C21.7932 123.51 22.8745 123.58 23.8271 123.587C27.7082 123.6 31.673 123.503 35.3096 122.158C38.9461 120.813 42.2544 118 43.2005 114.235C44.2947 109.903 42.1385 105.481 39.9244 101.806Z" fill="#B27966"/>
<path d="M26.9359 61.6434C23.8465 56.3784 23.6147 49.543 26.3309 44.0786C23.0612 43.3448 20.5446 40.1073 20.6283 36.754C20.7184 33.3942 23.4088 30.2983 26.7106 29.7384C29.3688 29.2878 32.0399 30.3241 34.4857 31.4569C36.0433 29.217 38.4698 27.5951 41.1345 27.0222C40.3943 24.0036 41.1345 20.8691 43.1233 18.9124C45.1186 16.9558 48.2531 16.2671 50.8791 17.2132C53.5052 18.1594 55.4876 20.6953 56.0604 23.4629C63.3335 23.405 70.6645 24.4091 77.4548 27.0158C84.2452 29.629 90.4756 33.8963 94.8909 39.6761C99.3127 45.456 101.829 52.7934 101.141 60.4205C100.104 69.0194 94.4017 76.8975 86.5687 80.5663C78.8515 84.177 69.7248 83.7008 61.615 81.0876C53.5052 78.4744 46.1935 73.8918 38.9783 69.3541C35.522 67.1786 30.0382 66.9341 26.9359 61.6434Z" fill="#DDA783"/>
<path d="M58.6671 50.7981C57.6501 51.667 56.5817 52.6196 56.2341 53.9133C56.1119 54.3638 56.099 54.8787 56.3757 55.2585C56.6654 55.6511 57.2125 55.7798 57.6952 55.6962C58.1779 55.6189 58.6092 55.3679 59.0275 55.1105C59.935 54.5505 60.8233 53.9583 61.6407 53.2761C62.1105 52.877 62.5675 52.4329 62.825 51.873C63.076 51.313 63.1017 50.6114 62.7349 50.1158C62.3358 49.5752 61.5763 49.4078 60.9134 49.5366C60.2504 49.6653 59.6197 49.9742 58.6671 50.7981Z" fill="#703627"/>
<path d="M31.5765 46.2669C28.8089 46.2669 26.4274 45.7327 24.4708 44.6772C21.465 43.0488 19.5084 40.0494 19.4955 37.0372C19.4762 34.1151 21.3298 31.2059 24.091 29.8028C26.6012 28.5348 29.7679 28.4769 32.5806 29.6418C35.0393 30.6652 37.2727 32.6283 38.8689 35.1642C39.1843 35.6663 39.0362 36.3228 38.5342 36.6317C38.045 36.9471 37.3885 36.7926 37.0732 36.297C35.7087 34.128 33.8228 32.461 31.7696 31.6049C29.5233 30.6717 27.0131 30.7038 25.0501 31.7015C22.984 32.7442 21.6066 34.8875 21.6195 37.0308C21.6323 39.2771 23.1449 41.5427 25.4813 42.8042C27.4572 43.8726 30.0125 44.3039 33.0891 44.085C33.6748 44.0464 34.1768 44.4841 34.2219 45.0698C34.2605 45.6555 33.8228 46.164 33.2371 46.209C32.6707 46.2476 32.1172 46.2669 31.5765 46.2669Z" fill="#703627"/>
<path d="M34.9684 39.4316C34.6209 39.4316 34.2797 39.2643 34.0802 38.9489C32.3939 36.3679 29.0084 35.0227 26.0155 35.7501C25.4491 35.8917 24.8698 35.5377 24.7282 34.9713C24.593 34.3984 24.9406 33.8256 25.5134 33.684C29.3495 32.7507 33.7005 34.4757 35.8567 37.7904C36.1785 38.2795 36.0369 38.936 35.5477 39.2579C35.3675 39.3737 35.168 39.4316 34.9684 39.4316Z" fill="#703627"/>
<path d="M41.8682 27.3185C41.4113 27.3185 40.9865 27.016 40.8513 26.5526C39.9051 23.2571 40.4522 20.3608 42.4346 18.166C44.7002 15.6687 48.6007 14.8127 51.6965 16.1321C54.7667 17.4387 56.3243 20.0647 56.0861 23.521C56.0475 24.1067 55.539 24.5444 54.9533 24.5058C54.3676 24.4672 53.93 23.9587 53.9686 23.373C54.1424 20.8178 53.0997 19.0413 50.8663 18.0888C48.5685 17.1104 45.685 17.7412 44.0115 19.5949C42.5247 21.2361 42.145 23.3794 42.8916 25.9604C43.0525 26.5268 42.7307 27.1125 42.1643 27.2799C42.0678 27.3056 41.9648 27.3185 41.8682 27.3185Z" fill="#703627"/>
<path d="M27.2062 62.5187C26.8651 62.5187 26.5304 62.3513 26.3244 62.0488C22.2695 56.0823 21.7932 48.6869 25.1466 43.6473C25.4684 43.1581 26.1313 43.023 26.6141 43.3512C27.1032 43.673 27.2384 44.336 26.9101 44.8251C24.0331 49.1568 24.5029 55.5996 28.0815 60.8581C28.4098 61.3408 28.2875 62.0038 27.7983 62.332C27.6181 62.4543 27.4122 62.5187 27.2062 62.5187Z" fill="#703627"/>
<path d="M59.0662 61.534C59.0662 61.9073 58.9954 62.2742 58.8473 62.6218C58.7057 62.9758 58.4998 63.2847 58.2294 63.5486C57.9655 63.8189 57.6566 64.0249 57.3026 64.1665C56.955 64.3145 56.5882 64.3853 56.2149 64.3853C55.8351 64.3853 55.4682 64.3145 55.1207 64.1665C54.7731 64.0249 54.4642 63.8189 54.1938 63.5486C53.93 63.2847 53.724 62.9758 53.576 62.6218C53.4344 62.2742 53.3636 61.9073 53.3636 61.534C53.3636 61.1543 53.4344 60.7874 53.576 60.4398C53.724 60.0858 53.93 59.7833 54.1938 59.513C54.4642 59.2427 54.7731 59.0367 55.1207 58.8951C55.4682 58.7471 55.8351 58.6763 56.2149 58.6763C56.5882 58.6763 56.955 58.7471 57.3026 58.8951C57.6566 59.0367 57.9655 59.2427 58.2294 59.513C58.4998 59.7833 58.7057 60.0858 58.8473 60.4398C58.9954 60.7874 59.0662 61.1543 59.0662 61.534Z" fill="#FAC4AF"/>
<path d="M82.3014 43.0229C84.5863 42.2827 86.9484 41.7035 89.3492 41.697C91.75 41.697 94.2022 42.3085 96.1138 43.7631C98.3215 45.4494 98.7785 47.0392 99.7568 49.6459C100.819 52.4457 100.548 54.1063 100.896 57.0799C101.096 58.8048 100.291 64.1406 99.583 65.7239C98.4051 68.3564 98.2893 68.4851 95.6504 69.6308C93.1273 70.7314 90.5657 71.8385 87.8495 72.2568C85.127 72.6816 82.1855 72.3534 79.9328 70.7765C78.3817 69.6823 77.2553 68.0796 76.3799 66.3933C74.5263 62.8018 73.7089 58.7534 73.3613 54.7242C73.1875 52.6967 73.1489 50.5599 74.0436 48.732C75.363 46.048 78.2207 44.3359 82.3014 43.0229Z" fill="#B27966"/>
<path d="M80.4348 50.2255C81.0592 50.6761 81.5354 51.3455 81.7478 52.0856C81.838 52.3946 81.8637 52.7808 81.6191 52.9867C81.381 53.1798 81.027 53.0962 80.7309 52.9996C80.1001 52.8001 79.4565 52.5877 78.903 52.2144C78.3881 51.8668 77.944 51.2811 78.0663 50.6761C78.1628 50.2127 78.5876 49.8587 79.051 49.7814C79.5144 49.6978 79.9714 49.8908 80.4348 50.2255Z" fill="#703627"/>
<path d="M89.6581 47.5991C89.3621 48.3136 89.3106 49.131 89.5165 49.8776C89.6002 50.1866 89.7804 50.5277 90.0958 50.5663C90.4048 50.6114 90.6622 50.3539 90.8617 50.1158C91.293 49.6073 91.7306 49.0924 92.0074 48.4874C92.2584 47.921 92.3357 47.1872 91.9044 46.7367C91.5826 46.3891 91.0355 46.3183 90.5978 46.4921C90.1602 46.6659 89.877 47.0778 89.6581 47.5991Z" fill="#703627"/>
<path d="M85.6805 66.8053C84.2774 66.8053 82.8356 66.0072 81.8637 64.6491C81.6063 64.2887 81.69 63.7931 82.0504 63.5356C82.4108 63.2782 82.9064 63.3618 83.1574 63.7223C83.9169 64.7843 85.0819 65.37 86.0667 65.1769C86.9935 64.9902 87.8045 64.0956 88.1199 62.9242L87.8045 61.7978C87.1802 59.5322 86.5558 57.2859 86.0152 55.2842C85.9058 54.8594 86.1568 54.4217 86.5816 54.3059C87.0193 54.1965 87.4441 54.4475 87.5535 54.8723C88.0877 56.8675 88.712 59.1074 89.3428 61.3666L89.7097 62.6989C89.7483 62.8212 89.7483 62.9563 89.7225 63.0851C89.2977 64.9838 87.9847 66.4191 86.3756 66.7409C86.1439 66.786 85.9122 66.8053 85.6805 66.8053Z" fill="#703627"/>
<path d="M91.6727 64.8039C90.5657 64.8039 89.4393 64.3276 88.5254 63.433C88.2164 63.124 88.21 62.6155 88.5189 62.3066C88.8279 61.9912 89.3299 61.9848 89.6453 62.2937C90.5206 63.1562 91.6727 63.4394 92.5738 63.0017C93.5135 62.5576 94.1958 61.3283 94.273 59.9509C94.2988 59.5132 94.6785 59.1785 95.1097 59.2043C95.5474 59.2236 95.8885 59.6033 95.8628 60.041C95.7534 62.0105 94.73 63.7419 93.2625 64.4435C92.7605 64.6816 92.2198 64.8039 91.6727 64.8039Z" fill="#703627"/>
<path d="M73.1038 84.1641C68.7336 84.1641 64.2345 83.3467 59.8836 81.7248C59.3365 81.5188 59.0597 80.9073 59.2592 80.3603C59.4652 79.8132 60.0831 79.53 60.6238 79.7359C67.7552 82.3941 75.3051 82.7675 81.8701 80.7786C88.9823 78.6353 94.9231 73.615 97.7744 67.3588C100.581 61.1928 100.51 53.4756 97.5813 46.7239C94.8909 40.5128 89.8255 34.9904 83.3183 31.1543C77.5514 27.7559 70.6387 25.5933 62.7864 24.718C54.0909 23.7525 41.4692 25.6641 34.3184 32.1391C33.8807 32.5317 33.2113 32.4995 32.8187 32.0619C32.4261 31.6306 32.4583 30.9548 32.8959 30.5622C40.5745 23.6109 53.5695 21.5513 63.0181 22.6069C71.1729 23.5144 78.3623 25.7736 84.3932 29.3264C91.2865 33.3813 96.6609 39.2577 99.5315 45.8743C102.692 53.1731 102.763 61.5339 99.7053 68.2406C96.6094 75.0503 90.173 80.4954 82.488 82.8125C79.5016 83.7136 76.3349 84.1641 73.1038 84.1641Z" fill="#703627"/>
<path d="M81.0528 40.0495C80.8468 40.0495 80.6408 39.9916 80.4606 39.8693L75.5111 36.5352C75.0219 36.207 74.8932 35.544 75.2214 35.0613C75.5497 34.5722 76.2126 34.4434 76.6953 34.7717L81.6449 38.1057C82.1341 38.434 82.2628 39.0905 81.9345 39.5796C81.7286 39.8821 81.3939 40.0495 81.0528 40.0495Z" fill="#C48C71"/>
<path d="M71.1536 37.0886C71.0313 37.0886 70.9026 37.0693 70.7739 37.0178L64.7623 34.7264C64.2152 34.514 63.9449 33.9026 64.1509 33.3555C64.3633 32.802 64.9812 32.5316 65.5218 32.7376L71.5334 35.0354C72.0805 35.2478 72.3572 35.8592 72.1448 36.4063C71.9839 36.8311 71.5849 37.0886 71.1536 37.0886Z" fill="#C48C71"/>
<path d="M77.178 31.5468C77.0751 31.5468 76.9721 31.5275 76.8627 31.4953L71.1987 29.7575C70.6387 29.5837 70.3233 28.9915 70.4971 28.4316C70.6709 27.8652 71.263 27.5562 71.823 27.7236L77.487 29.4678C78.047 29.6352 78.3623 30.2338 78.195 30.7937C78.0534 31.2507 77.6286 31.5468 77.178 31.5468Z" fill="#C48C71"/>
<path d="M63.9192 29.6675C63.8419 29.6675 63.7583 29.6611 63.6746 29.6418L57.6244 28.2193C57.058 28.0842 56.704 27.5178 56.8328 26.945C56.9679 26.3721 57.5279 26.0181 58.1136 26.1533L64.1638 27.5693C64.7302 27.7044 65.0842 28.2773 64.9554 28.8501C64.8396 29.3393 64.4019 29.6675 63.9192 29.6675Z" fill="#C48C71"/>
<path d="M51.0272 34.7074C50.4801 34.7074 50.0102 34.2826 49.9716 33.7227C49.9265 33.137 50.3642 32.6285 50.9499 32.5834L57.6566 32.075C58.2616 32.0299 58.7508 32.4676 58.7958 33.0533C58.8409 33.6326 58.4032 34.1475 57.8175 34.1925L51.1108 34.701C51.0787 34.7074 51.0529 34.7074 51.0272 34.7074Z" fill="#C48C71"/>
<path d="M59.1627 121.753C57.5021 121.753 55.7772 121.167 54.2518 120.053C52.3016 118.631 50.9886 116.591 50.1647 115.187C45.9103 107.856 44.6294 98.9292 46.6569 90.6971C46.7985 90.1243 47.3778 89.7767 47.9377 89.9183C48.5106 90.0599 48.8581 90.6327 48.7165 91.2056C46.8178 98.9099 48.015 107.258 52.0055 114.119C53.1512 116.089 54.2647 117.427 55.5004 118.335C56.9937 119.423 58.7637 119.86 60.2376 119.506C62.5547 118.94 64.344 116.565 65.5669 112.439C67.3562 106.421 68.1028 100.184 67.7939 93.9089C67.7681 93.3231 68.2187 92.8211 68.8044 92.7954C69.3708 92.7761 69.8857 93.2202 69.9179 93.8059C70.2332 100.319 69.4544 106.794 67.6008 113.044C66.1526 117.949 63.842 120.819 60.7396 121.572C60.2247 121.695 59.6969 121.753 59.1627 121.753Z" fill="#703627"/>
<path d="M75.4081 119.229C74.2045 119.229 73.0009 118.998 71.8874 118.521C69.1455 117.337 67.0086 114.093 66.3071 110.051C66.2105 109.472 66.5967 108.925 67.176 108.828C67.7488 108.725 68.3023 109.111 68.3989 109.691C68.9653 112.98 70.6645 115.677 72.7305 116.565C74.7001 117.414 77.0751 117.266 78.9223 116.166C81.4325 114.679 83.0802 111.525 83.8139 106.794C85.1141 98.4658 84.0649 91.0833 82.8485 82.5422L82.6876 81.4223C82.6103 80.843 83.0094 80.3024 83.5951 80.2187C84.1744 80.135 84.7086 80.5405 84.7923 81.1262L84.9532 82.2397C86.1375 90.5877 87.2638 98.4786 85.9122 107.123C85.0755 112.51 83.0866 116.166 80.0036 117.994C78.6262 118.811 77.0171 119.229 75.4081 119.229Z" fill="#703627"/>
<path d="M28.5836 124.771C25.2109 124.771 21.5615 123.999 17.6869 122.461C11.9714 120.188 7.48523 116.726 4.7176 112.439C-1.35831 103.036 -6.89358 83.2374 24.2841 56.2884C24.7218 55.9022 25.3976 55.9537 25.7773 56.3978C26.1635 56.8419 26.112 57.5113 25.6679 57.8975C-4.28686 83.7909 0.797864 102.463 6.50047 111.287C9.6929 116.224 14.7712 119.017 18.4721 120.485C23.5954 122.518 28.236 123.123 32.2845 122.28C37.1053 121.27 40.9993 117.994 42.2094 113.939C43.6447 109.105 41.231 104.085 38.4891 100.995C35.2195 97.3073 30.7913 94.855 26.5047 92.48C25.9897 92.1903 25.8031 91.5467 26.0863 91.0318C26.3695 90.5169 27.0196 90.3367 27.528 90.6199C31.7632 92.9691 36.5647 95.6274 40.0789 99.5793C44.0566 104.072 45.6528 109.8 44.2432 114.544C42.8144 119.339 38.2896 123.188 32.7157 124.359C31.3898 124.636 30.0125 124.771 28.5836 124.771Z" fill="#703627"/>
<path d="M45.9939 117.215C44.7839 117.215 43.5739 117.118 42.4153 116.925C41.836 116.828 41.4499 116.281 41.5464 115.702C41.6429 115.123 42.19 114.73 42.7629 114.827C45.5369 115.29 48.7744 115.116 51.2267 114.37C51.7866 114.202 52.3788 114.518 52.5461 115.078C52.7199 115.644 52.4045 116.236 51.8381 116.404C50.0874 116.938 48.0471 117.215 45.9939 117.215Z" fill="#703627"/>
<path d="M17.1848 72.508C16.9853 72.508 16.7922 72.4565 16.612 72.3407C16.1164 72.0253 15.9748 71.3688 16.2902 70.8732C17.8092 68.4789 19.8366 66.3356 22.1473 64.6814C22.6171 64.3403 23.2865 64.4497 23.6276 64.926C23.9687 65.4023 23.8593 66.0652 23.383 66.4064C21.2912 67.906 19.4569 69.8434 18.0795 72.0189C17.8735 72.3342 17.5324 72.508 17.1848 72.508Z" fill="#C58D72"/>
<path d="M19.0063 82.671C18.8711 82.671 18.736 82.6452 18.6008 82.5873C18.0601 82.362 17.8027 81.7442 18.028 81.2035C19.4182 77.8566 21.1625 74.6449 23.2092 71.6584C23.5375 71.1757 24.2004 71.0469 24.6832 71.3816C25.1659 71.7099 25.2882 72.3728 24.9599 72.8556C22.9968 75.7262 21.3234 78.8092 19.9846 82.0145C19.8173 82.4264 19.4247 82.671 19.0063 82.671Z" fill="#C58D72"/>
<path d="M8.86258 93.4452C8.84971 93.4452 8.8304 93.4452 8.81109 93.4452C8.22538 93.4194 7.77484 92.9174 7.80058 92.3317C8.03873 87.5495 9.30025 82.7608 11.45 78.4871C11.7139 77.9593 12.3446 77.7469 12.8724 78.0108C13.3938 78.2747 13.6062 78.9119 13.3423 79.4397C11.3277 83.456 10.1498 87.9485 9.92458 92.4347C9.8924 93.0075 9.42898 93.4452 8.86258 93.4452Z" fill="#C58D72"/>
<path d="M128.489 95.1059L143.91 93.2522C143.91 93.2522 147.463 95.7624 146.53 102.031L135.993 100.808L129.712 99.4053L128.489 95.1059Z" fill="#80452F"/>
<path d="M127.942 95.8331L150.598 101.716L146.903 113.186L135.993 109.504L125.547 100.673L123.378 95.6465L127.942 95.8331Z" fill="#80452F"/>
<path d="M114.605 95.6981L101.713 93.2073C101.713 93.2073 96.5901 96.7022 96.9699 102.398L107.326 103.299L116.729 100.043L114.605 95.6981Z" fill="#80452F"/>
<path d="M138.253 108.725L126.86 96.7344L120.707 97.2364L119.941 98.4143L128.527 115.664L138.253 108.725Z" fill="#80452F"/>
<path d="M93.5328 102.128L115.732 95.6016L118.944 96.9146L114.245 106.563L110.763 108.642L97.2209 113.623L93.5328 102.128Z" fill="#80452F"/>
<path d="M124.054 96.7794L117.341 115.554L107.217 109.189L117.315 95.8333L124.054 96.7794Z" fill="#80452F"/>
<path d="M99.377 106.46C99.6409 107.213 99.7889 107.979 99.8276 108.751C99.8597 109.524 99.7761 110.251 99.5701 110.92C99.3706 111.59 99.0616 112.162 98.6561 112.632C98.2442 113.102 97.7615 113.437 97.2144 113.63C96.6609 113.823 96.0752 113.868 95.4637 113.759C94.8523 113.649 94.2537 113.392 93.6744 112.999C93.0951 112.6 92.5802 112.092 92.1232 111.467C91.6663 110.843 91.3058 110.154 91.0355 109.395C90.7716 108.642 90.6236 107.876 90.5914 107.103C90.5528 106.331 90.6364 105.61 90.8424 104.934C91.0484 104.265 91.3509 103.692 91.7628 103.222C92.1683 102.753 92.651 102.424 93.2046 102.225C93.7581 102.032 94.3373 101.987 94.9488 102.096C95.5667 102.205 96.1588 102.463 96.7381 102.856C97.3174 103.255 97.8323 103.763 98.2893 104.387C98.7462 105.012 99.1131 105.7 99.377 106.46Z" fill="#6F3A27"/>
<path d="M150.597 101.716C151.145 101.922 151.621 102.263 152.02 102.74C152.419 103.216 152.715 103.795 152.908 104.471C153.095 105.147 153.166 105.874 153.114 106.646C153.069 107.419 152.902 108.178 152.625 108.931C152.342 109.678 151.968 110.36 151.499 110.978C151.029 111.59 150.501 112.092 149.915 112.478C149.33 112.864 148.731 113.102 148.113 113.205C147.502 113.302 146.916 113.244 146.369 113.038C145.822 112.838 145.345 112.497 144.946 112.014C144.547 111.538 144.251 110.965 144.065 110.289C143.872 109.614 143.801 108.886 143.852 108.114C143.897 107.342 144.065 106.582 144.341 105.829C144.625 105.082 144.998 104.4 145.468 103.782C145.938 103.164 146.465 102.669 147.051 102.283C147.637 101.896 148.235 101.652 148.853 101.555C149.465 101.459 150.05 101.51 150.597 101.716Z" fill="#6F3A27"/>
<path d="M114.412 109.202C115.082 109.646 115.661 110.167 116.15 110.766C116.646 111.364 117.013 111.989 117.251 112.652C117.495 113.308 117.592 113.952 117.547 114.57C117.502 115.194 117.315 115.748 116.993 116.237C116.672 116.726 116.227 117.106 115.674 117.389C115.12 117.672 114.49 117.826 113.788 117.859C113.086 117.891 112.372 117.794 111.632 117.569C110.892 117.35 110.184 117.015 109.521 116.571C108.851 116.127 108.272 115.606 107.783 115.007C107.287 114.415 106.927 113.784 106.682 113.128C106.438 112.465 106.341 111.828 106.386 111.203C106.431 110.586 106.618 110.026 106.94 109.543C107.268 109.054 107.706 108.668 108.259 108.384C108.813 108.101 109.443 107.947 110.145 107.914C110.847 107.882 111.567 107.979 112.308 108.204C113.048 108.429 113.749 108.758 114.412 109.202Z" fill="#6F3A27"/>
<path d="M138.562 108.951C138.89 109.433 139.083 109.987 139.141 110.605C139.192 111.223 139.109 111.866 138.877 112.529C138.645 113.192 138.285 113.829 137.802 114.434C137.326 115.039 136.753 115.567 136.09 116.018C135.433 116.475 134.738 116.822 133.998 117.054C133.264 117.292 132.544 117.395 131.842 117.376C131.14 117.357 130.51 117.209 129.95 116.938C129.39 116.668 128.946 116.288 128.611 115.805C128.283 115.323 128.09 114.769 128.032 114.151C127.98 113.527 128.064 112.883 128.296 112.22C128.527 111.557 128.888 110.927 129.37 110.322C129.853 109.717 130.42 109.189 131.082 108.732C131.739 108.275 132.441 107.934 133.174 107.696C133.908 107.464 134.629 107.354 135.33 107.374C136.032 107.4 136.663 107.541 137.223 107.818C137.783 108.088 138.227 108.468 138.562 108.951Z" fill="#6F3A27"/>
<path d="M146.671 101.735C146.652 101.735 146.626 101.735 146.607 101.729C146.021 101.697 145.577 101.195 145.609 100.609C145.815 96.9145 144.245 94.9707 143.556 94.3078L129.815 95.9684C129.834 96.4446 129.525 96.8888 129.042 97.0239C128.482 97.1848 127.896 96.8566 127.736 96.2966L127.465 95.3505C127.382 95.0544 127.433 94.7326 127.6 94.4751C127.774 94.2112 128.051 94.0439 128.36 94.0053L143.344 92.2031C143.968 92.1259 144.586 92.3383 145.036 92.7824C145.931 93.6448 147.984 96.1614 147.727 100.731C147.695 101.298 147.225 101.735 146.671 101.735Z" fill="#703627"/>
<path d="M150.321 102.643C150.231 102.643 150.141 102.637 150.05 102.611L127.787 96.8439L125.013 96.7345C125.155 97.2366 124.904 97.7837 124.408 97.9961C123.867 98.2278 123.243 97.9767 123.011 97.4425L122.4 96.0265C122.258 95.6918 122.297 95.3057 122.503 95.0031C122.709 94.7006 123.024 94.5269 123.417 94.5397L127.987 94.7264C128.064 94.7264 128.135 94.7393 128.212 94.7586L150.585 100.551C151.151 100.699 151.492 101.279 151.344 101.851C151.222 102.328 150.791 102.643 150.321 102.643Z" fill="#703627"/>
<path d="M146.369 114.055C146.259 114.055 146.144 114.035 146.028 113.997L138.87 111.557C138.317 111.371 138.014 110.766 138.208 110.212C138.394 109.659 138.993 109.356 139.553 109.549L146.716 111.982C147.27 112.175 147.566 112.78 147.373 113.334C147.225 113.778 146.813 114.055 146.369 114.055Z" fill="#703627"/>
<path d="M97.002 102.199C96.9763 102.199 96.957 102.199 96.9312 102.199C96.3455 102.16 95.9014 101.652 95.94 101.066C96.2104 96.818 99.2998 93.7993 100.24 92.9754C100.948 92.3576 101.887 92.113 102.82 92.2932L115.371 94.6811C115.944 94.7905 116.324 95.344 116.215 95.9233C116.105 96.4961 115.545 96.8823 114.972 96.7665L102.421 94.3786C102.132 94.3206 101.849 94.3979 101.636 94.5781C100.851 95.2668 98.2764 97.7705 98.0576 101.201C98.019 101.768 97.5555 102.199 97.002 102.199Z" fill="#703627"/>
<path d="M128.315 116.275C127.922 116.275 127.549 116.063 127.362 115.689L121.055 102.997C120.797 102.476 121.01 101.838 121.537 101.574C122.059 101.317 122.696 101.529 122.96 102.051L129.261 114.743C129.525 115.265 129.306 115.902 128.785 116.166C128.63 116.243 128.469 116.275 128.315 116.275Z" fill="#703627"/>
<path d="M138.214 109.549C137.931 109.549 137.654 109.44 137.448 109.227L126.442 97.7899L123.99 97.9894C123.397 98.0409 122.895 97.6033 122.85 97.0176C122.799 96.4318 123.237 95.9169 123.822 95.8719L126.77 95.6337C127.098 95.6016 127.407 95.7239 127.626 95.9556L138.973 107.747C139.385 108.172 139.373 108.848 138.948 109.253C138.742 109.453 138.478 109.549 138.214 109.549Z" fill="#703627"/>
<path d="M96.9506 114.717C96.5129 114.717 96.1074 114.447 95.9529 114.016C95.747 113.469 96.0302 112.857 96.5837 112.658L106.135 109.156C106.682 108.957 107.294 109.24 107.493 109.794C107.699 110.341 107.416 110.952 106.863 111.152L97.311 114.653C97.1951 114.698 97.0664 114.717 96.9506 114.717Z" fill="#703627"/>
<path d="M93.211 103.235C92.754 103.235 92.3292 102.939 92.1941 102.476C92.0267 101.909 92.3485 101.323 92.9085 101.156L115.436 94.5395C115.667 94.4752 115.912 94.4816 116.137 94.5782L117.476 95.1252C118.023 95.3441 118.281 95.9684 118.062 96.5091C117.836 97.0561 117.219 97.3136 116.678 97.0883L115.674 96.6828L93.5071 103.196C93.4105 103.222 93.3076 103.235 93.211 103.235Z" fill="#703627"/>
<path d="M117.431 116.275C117.309 116.275 117.186 116.256 117.071 116.211C116.517 116.018 116.234 115.406 116.427 114.853L122.619 97.6033L117.791 96.9275L108.182 109.665C107.828 110.135 107.165 110.225 106.695 109.877C106.232 109.523 106.135 108.854 106.489 108.384L116.472 95.1446C116.704 94.8356 117.077 94.6812 117.463 94.7327L124.202 95.6852C124.517 95.7303 124.801 95.9105 124.962 96.1873C125.129 96.4576 125.161 96.7923 125.052 97.0948L118.429 115.574C118.274 116.005 117.862 116.275 117.431 116.275Z" fill="#703627"/>
<path d="M96.1009 114.833C95.0904 114.833 94.0542 114.492 93.0823 113.823C91.7306 112.896 90.6558 111.428 90.0443 109.697C88.7442 106.003 90.0057 102.179 92.857 101.175C95.7083 100.171 99.0874 102.36 100.388 106.054C100.993 107.792 101.07 109.607 100.593 111.177C100.085 112.864 99.0102 114.074 97.5684 114.582C97.0921 114.75 96.603 114.833 96.1009 114.833ZM94.3116 103.055C94.0542 103.055 93.8031 103.093 93.565 103.177C91.8465 103.782 91.1514 106.447 92.046 108.989C92.5094 110.302 93.3011 111.396 94.2859 112.072C95.1612 112.671 96.0816 112.851 96.8668 112.574C97.6521 112.297 98.2571 111.583 98.566 110.559C98.9072 109.42 98.8428 108.075 98.3794 106.762C97.6135 104.574 95.8757 103.055 94.3116 103.055Z" fill="#703627"/>
<mask id="mask0_287_4787" style="mask-type:luminance" maskUnits="userSpaceOnUse" x="142" y="100" width="13" height="15">
<path d="M142.121 100.062H155V114.891H142.121V100.062Z" fill="white"/>
</mask>
<g mask="url(#mask0_287_4787)">
<path d="M147.547 114.267C147.019 114.267 146.498 114.171 146.002 113.984C144.567 113.45 143.518 112.22 143.041 110.528C142.597 108.951 142.707 107.129 143.35 105.411C143.994 103.686 145.101 102.244 146.472 101.343C147.939 100.377 149.542 100.139 150.971 100.674C153.803 101.729 154.987 105.578 153.616 109.253C152.973 110.972 151.865 112.413 150.501 113.315C149.542 113.945 148.531 114.267 147.547 114.267ZM149.426 102.521C148.853 102.521 148.235 102.727 147.637 103.119C146.639 103.776 145.828 104.851 145.339 106.151C144.85 107.457 144.76 108.803 145.082 109.948C145.371 110.978 145.963 111.705 146.742 111.995C147.521 112.285 148.441 112.124 149.336 111.538C150.327 110.888 151.145 109.807 151.627 108.507C152.573 105.977 151.93 103.3 150.224 102.662C149.973 102.566 149.703 102.521 149.426 102.521Z" fill="#703627"/>
</g>
<path d="M113.518 118.882C112.024 118.882 110.403 118.399 108.929 117.421C107.403 116.404 106.251 114.994 105.685 113.456C105.08 111.802 105.208 110.193 106.058 108.918C106.901 107.644 108.336 106.897 110.094 106.82C111.722 106.743 113.473 107.27 115.005 108.287C118.261 110.456 119.549 114.273 117.875 116.79C116.955 118.174 115.333 118.882 113.518 118.882ZM110.403 108.937C110.332 108.937 110.261 108.937 110.19 108.944C109.128 108.989 108.285 109.401 107.822 110.096C107.365 110.791 107.313 111.724 107.68 112.722C108.085 113.842 108.948 114.885 110.106 115.651C112.353 117.144 115.101 117.131 116.112 115.612C117.116 114.093 116.073 111.551 113.827 110.057C112.739 109.33 111.535 108.937 110.403 108.937Z" fill="#703627"/>
<path d="M132.009 118.399C131.939 118.399 131.874 118.399 131.81 118.393C130.046 118.341 128.605 117.62 127.736 116.359C126.873 115.104 126.712 113.495 127.291 111.828C127.832 110.283 128.965 108.854 130.477 107.811C131.99 106.769 133.747 106.234 135.356 106.273C137.12 106.318 138.568 107.045 139.43 108.3C141.143 110.791 139.913 114.627 136.695 116.854C135.24 117.852 133.586 118.399 132.009 118.399ZM131.681 109.562C130.535 110.354 129.692 111.403 129.3 112.529C128.946 113.54 129.01 114.473 129.486 115.155C129.956 115.844 130.806 116.243 131.874 116.269C133.058 116.307 134.346 115.889 135.491 115.104C137.712 113.572 138.716 111.01 137.68 109.51C137.21 108.822 136.36 108.423 135.298 108.397C134.095 108.345 132.82 108.777 131.681 109.562Z" fill="#703627"/>
<path d="M122.155 98.0345C125.393 97.7835 137.377 96.2066 141.754 80.8623C143.859 73.467 142.713 65.1769 138.446 58.7792C139.25 64.5977 136.746 70.7573 132.119 74.3552C134.751 68.6397 135.234 61.9652 133.464 55.9215C131.694 49.8842 127.678 44.5291 122.297 41.0342C123.262 44.8767 122.278 48.9959 120.411 52.4909C118.551 55.9858 115.873 58.9594 112.996 61.6949C112.604 59.4936 112.584 57.2216 112.623 54.7372C108.015 59.8734 104.133 66.1617 103.612 73.0422C101.881 96.0392 120.031 98.1954 122.155 98.0345Z" fill="#F75E34"/>
<path d="M111.323 70.9891C112.745 73.6794 114.174 76.3634 115.545 79.1053C115.365 73.6473 117.334 68.1506 120.778 63.7932C126.094 69.1161 129.152 76.6337 129.061 84.1643C130.902 82.7483 132.466 80.9783 133.644 78.9766C134.108 83.0637 133.239 87.2923 131.205 90.8709C129.512 93.851 127.356 96.0329 124.183 97.6162C122.979 98.2213 121.537 98.1698 120.411 97.436C116.459 94.8679 113.061 91.373 111.407 86.9834C109.521 81.9566 109.456 76.2669 111.323 70.9891Z" fill="#FFAD50"/>
<path d="M121.434 76.2217C124.395 80.2444 125.83 85.3677 125.373 90.343L127.974 88.0517C128.399 91.6947 126.59 95.4792 123.597 97.5646C122.702 98.1825 121.48 98.0988 120.701 97.3394C117.94 94.6168 116.285 90.7743 116.279 86.8867L119.272 89.4162C118.66 84.9751 119.278 80.3731 121.434 76.2217Z" fill="#F9FFF9"/>
<path d="M122.155 98.0344C125.393 97.7834 137.377 96.2065 141.754 80.8622C143.846 73.5248 142.726 65.2927 138.529 58.9143C138.51 58.8821 138.459 58.9014 138.465 58.94C139.192 64.604 136.798 70.5705 132.363 74.162C132.305 74.2135 132.215 74.1427 132.247 74.0719C134.764 68.4143 135.208 61.8621 133.464 55.9214C131.771 50.1608 128.038 45.0182 123.024 41.5232C122.773 41.3495 122.419 41.5683 122.477 41.8708C123.114 45.4687 122.142 49.2533 120.411 52.4908C118.647 55.8055 116.15 58.6504 113.44 61.2635C113.254 61.4438 112.932 61.3408 112.893 61.0833C112.623 59.2168 112.591 57.2987 112.617 55.2327C112.623 55.0653 112.411 54.9752 112.301 55.1039C107.834 60.1694 104.121 66.3225 103.612 73.0421C101.881 96.0391 120.031 98.1953 122.155 98.0344Z" fill="#F75E34"/>
<path d="M121.93 99.1029C120.012 99.1029 113.614 98.1825 108.633 93.2007C103.94 88.5086 101.9 81.7054 102.557 72.9648C103.014 66.8632 106.026 60.6199 111.503 54.4024C111.851 54.0098 112.385 53.8746 112.88 54.0677C113.363 54.2544 113.685 54.7242 113.679 55.2456C113.659 56.6036 113.666 58.0325 113.775 59.4356C116.35 56.816 118.178 54.4282 119.478 51.9888C121.274 48.6161 121.969 45.089 121.434 42.0575C121.331 41.4975 121.576 40.9376 122.059 40.6286C122.548 40.3132 123.166 40.3261 123.636 40.6544C128.868 44.3038 132.724 49.6202 134.481 55.6253C135.833 60.2337 135.91 65.267 134.764 69.9655C136.888 66.7988 137.899 62.8598 137.409 59.0752C137.352 58.586 137.654 58.0776 138.117 57.9038C138.581 57.73 139.147 57.9167 139.418 58.335C143.73 64.8808 144.979 73.4154 142.771 81.1519C138.465 96.258 126.976 98.7296 122.239 99.09C122.155 99.0964 122.052 99.1029 121.93 99.1029ZM111.561 57.627C107.371 62.8726 105.054 68.0797 104.674 73.1258C104.063 81.2162 105.903 87.466 110.132 91.7011C114.882 96.4447 121.055 97.0561 122.078 96.9724C126.371 96.6442 136.792 94.3915 140.731 80.5726C142.398 74.722 141.934 68.3886 139.533 62.9756C138.999 67.6034 136.663 72.0444 133.033 74.9859C132.653 75.3012 132.009 75.3077 131.617 74.9987C131.205 74.6769 131.063 74.1105 131.282 73.6278C133.683 68.2341 134.108 61.8879 132.447 56.2239C130.967 51.1842 127.89 46.6723 123.713 43.3576C123.867 46.4342 123.056 49.794 121.351 52.9928C119.774 55.9536 117.489 58.8242 114.174 62.0295C113.801 62.3899 113.26 62.5122 112.765 62.3449C112.275 62.1711 111.921 61.7463 111.844 61.2378C111.67 60.0342 111.593 58.8242 111.561 57.627Z" fill="#5F2D1B"/>
<path d="M111.51 71.3429C112.778 73.7372 114.045 76.1251 115.268 78.5516C115.339 78.6932 115.532 78.6417 115.532 78.4872C115.519 73.3961 117.347 68.3049 120.482 64.1728C120.63 63.9733 120.939 63.9539 121.113 64.1406C126.062 69.2704 128.965 76.3311 129.061 83.4561C129.068 83.7457 129.396 83.9066 129.615 83.7264C131.102 82.4842 132.396 80.9974 133.419 79.3497C133.49 79.2274 133.67 79.2725 133.683 79.4076C134.043 83.3595 133.168 87.4209 131.205 90.8708C129.512 93.8508 127.356 96.0327 124.183 97.6161C122.979 98.2211 121.537 98.1696 120.411 97.4359C116.459 94.8677 113.061 91.3792 111.407 86.9832C109.566 82.0787 109.463 76.537 111.188 71.3686C111.239 71.227 111.439 71.2077 111.51 71.3429Z" fill="#FFAD50"/>
<path d="M122.438 99.0902C121.518 99.0902 120.611 98.8327 119.832 98.3307C115.243 95.3378 111.986 91.5468 110.415 87.3567C108.478 82.1947 108.394 76.3956 110.184 71.0341C110.345 70.5642 110.763 70.236 111.259 70.1974C111.741 70.1459 112.218 70.4098 112.449 70.8474C113.267 72.3922 114.007 73.7889 114.708 75.1405C115.307 71.0341 117 67.0049 119.632 63.5358C119.896 63.1882 120.295 62.9758 120.726 62.95C121.164 62.9307 121.576 63.0916 121.878 63.4006C126.654 68.3566 129.589 75.0182 130.059 81.8858C130.992 80.9525 131.816 79.9163 132.511 78.7899C132.788 78.3458 133.316 78.127 133.818 78.2493C134.326 78.3715 134.693 78.7963 134.745 79.3177C135.118 83.482 134.191 87.7686 132.132 91.3987C130.272 94.6684 127.896 96.9469 124.659 98.5688C123.957 98.9164 123.192 99.0902 122.438 99.0902ZM111.606 73.7953C110.615 78.0819 110.879 82.5616 112.404 86.6101C113.814 90.3753 116.781 93.8059 120.984 96.5478C121.782 97.0627 122.825 97.1078 123.706 96.6637C126.59 95.2283 128.617 93.2781 130.284 90.3432C131.694 87.8652 132.511 85.0396 132.672 82.1754C131.951 83.0315 131.153 83.8231 130.291 84.5376C129.879 84.8851 129.312 84.9624 128.823 84.7371C128.321 84.5054 128.012 84.0227 127.999 83.4756C127.909 76.8526 125.322 70.3197 120.874 65.4345C118.094 69.3478 116.581 73.9562 116.594 78.4874C116.594 79.0538 116.215 79.5365 115.674 79.6652C115.133 79.794 114.573 79.5365 114.322 79.0345C113.447 77.3031 112.578 75.6361 111.606 73.7953Z" fill="#5F2D1B"/>
<path d="M121.731 76.6337C124.434 80.5084 125.76 85.3292 125.399 90.0471C125.393 90.1565 125.515 90.2144 125.599 90.1436L127.839 88.1677C127.897 88.1226 127.987 88.1548 127.993 88.232C128.341 91.8235 126.538 95.5115 123.597 97.5647C122.702 98.1826 121.48 98.0989 120.701 97.3395C118.017 94.6877 116.375 90.9803 116.279 87.2022C116.279 87.0799 116.421 87.0155 116.517 87.0928L119.098 89.2747C119.162 89.3262 119.253 89.2747 119.24 89.1975C118.699 84.9881 119.265 80.6371 121.203 76.6788C121.306 76.4728 121.595 76.4471 121.731 76.6337Z" fill="#F9FFF9"/>
<path d="M122.278 99.0387C121.434 99.0387 120.591 98.7169 119.96 98.0926C117.051 95.2284 115.32 91.27 115.217 87.228C115.21 86.7582 115.474 86.3205 115.899 86.1145C116.324 85.9086 116.839 85.9729 117.199 86.2754L117.997 86.9512C117.882 83.1667 118.647 79.4915 120.25 76.209C120.463 75.7777 120.894 75.4881 121.376 75.4495C121.833 75.4173 122.323 75.6297 122.599 76.0223C125.045 79.5237 126.403 83.6816 126.513 87.9231L127.137 87.3696C127.433 87.1122 127.954 87.0156 128.321 87.1636C128.727 87.3246 129.01 87.6979 129.049 88.1291C129.428 92.0746 127.53 96.1166 124.202 98.4337C123.616 98.8392 122.947 99.0387 122.278 99.0387ZM117.585 89.3842C118.113 92.0875 119.465 94.6234 121.447 96.58C121.853 96.9726 122.509 97.0241 122.992 96.6894C125.065 95.2477 126.48 92.892 126.867 90.4397L126.3 90.9418C125.94 91.2636 125.425 91.328 124.994 91.1156C124.562 90.9032 124.305 90.4462 124.344 89.9635C124.646 85.9794 123.655 81.8408 121.602 78.3909C120.269 81.6799 119.819 85.3357 120.295 89.0624C120.347 89.5 120.089 90.0085 119.703 90.2209C119.285 90.4462 118.776 90.3947 118.416 90.0857L117.585 89.3842ZM128.54 88.9658L128.534 88.9723C128.54 88.9658 128.54 88.9658 128.54 88.9658Z" fill="#5F2D1B"/>
<path d="M112.063 93.8445C112.063 93.8445 101.282 100.442 99.1582 101.735C97.0278 103.029 93.1402 100.513 90.482 96.1229C87.8238 91.7334 87.3926 87.1249 89.523 85.8377C91.6534 84.5439 102.73 77.8051 102.434 77.7407C106.817 82.819 110.473 88.5281 112.063 93.8445Z" fill="#FFFCF7"/>
<path d="M111.111 83.5592C111.426 84.087 111.716 84.6148 111.973 85.1554C112.237 85.7025 112.462 86.2432 112.662 86.7838C112.855 87.3245 113.016 87.8523 113.138 88.3736C113.26 88.8949 113.344 89.3905 113.383 89.8668C113.428 90.3496 113.434 90.7937 113.402 91.212C113.363 91.6304 113.292 92.0101 113.177 92.3513C113.067 92.6924 112.913 92.9885 112.726 93.2459C112.539 93.4969 112.321 93.6965 112.07 93.8509C111.812 94.0054 111.535 94.1084 111.22 94.1599C110.911 94.2049 110.583 94.1985 110.222 94.1406C109.868 94.0891 109.501 93.9732 109.115 93.8123C108.729 93.6514 108.33 93.439 107.931 93.1816C107.525 92.9177 107.126 92.6152 106.721 92.2676C106.315 91.92 105.923 91.5338 105.53 91.109C105.144 90.6843 104.771 90.2337 104.41 89.751C104.05 89.2683 103.715 88.7662 103.393 88.2449C103.078 87.7235 102.795 87.1893 102.531 86.6487C102.273 86.108 102.042 85.5674 101.849 85.0267C101.656 84.486 101.495 83.9518 101.372 83.4305C101.25 82.9156 101.166 82.4135 101.121 81.9372C101.076 81.461 101.07 81.0104 101.108 80.592C101.141 80.1737 101.218 79.7939 101.327 79.4528C101.443 79.1117 101.591 78.8156 101.778 78.5646C101.964 78.3136 102.183 78.1076 102.441 77.9531C102.692 77.7987 102.975 77.6957 103.284 77.6506C103.593 77.5991 103.928 77.6056 104.282 77.6635C104.636 77.7214 105.009 77.8309 105.395 77.9918C105.781 78.1527 106.174 78.3651 106.579 78.629C106.978 78.8864 107.384 79.1889 107.783 79.5429C108.188 79.8905 108.587 80.2767 108.974 80.695C109.366 81.1198 109.74 81.5768 110.1 82.0531C110.454 82.5358 110.795 83.0379 111.111 83.5592Z" fill="#F3ECDF"/>
<path d="M110.769 95.2541C108.176 95.2541 104.919 92.8082 102.486 88.792C99.4285 83.7394 99.1711 78.6869 101.887 77.0392C103.284 76.1896 105.15 76.4342 107.152 77.7279C108.916 78.8735 110.647 80.7465 112.018 83.0057C113.383 85.2648 114.245 87.6656 114.438 89.7639C114.663 92.1324 114.013 93.9089 112.617 94.7585C112.063 95.0932 111.439 95.2541 110.769 95.2541ZM103.722 78.674C103.438 78.674 103.187 78.7319 102.988 78.8542C101.591 79.7038 101.861 83.6558 104.301 87.6913C106.74 91.7205 110.126 93.7801 111.516 92.937C112.16 92.5444 112.462 91.4373 112.327 89.9634C112.16 88.1741 111.407 86.0951 110.197 84.1063C108.993 82.1175 107.5 80.4891 105.994 79.5107C105.144 78.9637 104.346 78.674 103.722 78.674Z" fill="#703627"/>
<path d="M97.8709 103.138C96.8282 103.138 95.6568 102.739 94.4404 101.954C92.6704 100.809 90.9454 98.9355 89.5745 96.6764C86.5172 91.6238 86.2598 86.5777 88.9759 84.9236C91.1063 83.6299 102.177 76.8975 102.177 76.8975L103.284 78.7125C103.284 78.7125 92.2069 85.4514 90.0765 86.7451C88.6798 87.5882 88.9501 91.5466 91.3895 95.5758C92.5931 97.5646 94.0864 99.193 95.5925 100.165C96.8347 100.969 97.961 101.214 98.6047 100.821C100.735 99.5341 111.51 92.9368 111.51 92.9368L112.617 94.7519C112.617 94.7519 101.836 101.349 99.7053 102.643C99.1582 102.971 98.5403 103.138 97.8709 103.138Z" fill="#703627"/>
<path d="M67.7552 110.856C67.4012 110.856 67.0472 110.676 66.8477 110.347C66.5452 109.845 66.7061 109.189 67.2081 108.886L89.6646 95.254C90.1666 94.9515 90.8231 95.106 91.1256 95.608C91.4281 96.1101 91.2672 96.7666 90.7652 97.0691L68.3087 110.701C68.135 110.811 67.9419 110.856 67.7552 110.856Z" fill="#703627"/>
<path d="M17.0947 55.0138C16.5412 55.2777 15.9748 54.6791 16.2644 54.1385L20.1326 46.9684C20.5188 46.241 20.5253 45.3721 20.1777 44.6255C12.9497 29.159 18.9999 15.9387 29.5362 8.28588C33.7455 5.22861 37.5559 3.76756 39.4932 3.07887C52.7456 -1.66472 68.4375 1.28956 76.4314 17.8503C76.7919 18.5905 77.4677 19.1376 78.2786 19.292L86.2726 20.8175C86.8712 20.9333 86.9742 21.7507 86.4271 22.0082L17.0947 55.0138Z" fill="#8AA166"/>
<path d="M21.053 45.9966C27.7597 42.7977 62.7284 26.591 76.9399 19.453C75.865 16.724 74.5263 14.1109 72.9429 11.6458L17.7061 37.9382C18.5107 40.7381 19.6306 43.4478 21.053 45.9966Z" fill="#B25D3E"/>
<path d="M20.757 46.8717C20.3579 46.8717 19.9782 46.6465 19.798 46.2667C19.5405 45.7389 19.7658 45.1017 20.3 44.8507C21.613 44.22 24.046 43.0743 27.2127 41.5811C40.5295 35.2927 65.3223 23.5915 76.7275 17.8567C77.2553 17.5928 77.8925 17.8052 78.1499 18.3265C78.4138 18.8543 78.2014 19.4915 77.6801 19.7554C66.2491 25.4966 41.4434 37.2108 28.1137 43.5055C24.9535 44.9988 22.527 46.1444 21.2075 46.7688C21.0595 46.8396 20.905 46.8717 20.757 46.8717Z" fill="#703627"/>
<path d="M17.7061 39.0004C17.3135 39.0004 16.9273 38.7751 16.7471 38.3953C16.4961 37.8611 16.7214 37.2304 17.2492 36.9793L72.2542 10.7963C72.782 10.5452 73.4192 10.7705 73.6702 11.2983C73.9212 11.8261 73.696 12.4633 73.1682 12.7143L18.1631 38.8974C18.0151 38.9682 17.8606 39.0004 17.7061 39.0004Z" fill="#703627"/>
<path d="M16.8244 56.134C16.3674 56.134 15.9233 55.9537 15.5951 55.6062C15.0866 55.072 14.9836 54.2803 15.3312 53.6367L19.5598 45.7907C11.1347 28.6443 18.8261 14.7547 28.9119 7.43009C33.5074 4.08962 37.7425 2.57708 39.1328 2.07504C51.5614 -2.37248 69.049 -0.802008 77.7252 18.1016L86.4722 19.775C87.193 19.9102 87.7401 20.4959 87.8302 21.2232C87.9268 21.9505 87.547 22.6585 86.8841 22.9739L17.5517 55.9731C17.3136 56.0825 17.069 56.134 16.8244 56.134ZM50.8148 2.13941C46.9723 2.13941 43.2134 2.87315 39.8472 4.07675C37.5559 4.9006 34.0609 6.3166 30.1605 9.14859C20.6862 16.0291 13.4839 29.1463 21.6967 45.3273C21.8576 45.6363 21.8512 46.0096 21.6903 46.3121L17.822 53.4886L84.7858 21.6158L76.7855 20.0904C76.4443 20.026 76.1547 19.7943 76.0131 19.4725C70.3169 6.61911 60.3148 2.13941 50.8148 2.13941Z" fill="#703627"/>
</svg>
