<svg width="177" height="171" viewBox="0 0 177 171" fill="none" xmlns="http://www.w3.org/2000/svg">
<g clip-path="url(#clip0_901_852)">
<circle cx="19.5987" cy="140.568" r="11.9235" transform="rotate(4.34619 19.5987 140.568)" fill="#EAC261"/>
<path d="M29.4906 124.047C29.3243 126.236 26.7546 127.825 24.5658 127.659C22.3771 127.493 21.1471 128.936 21.3135 126.747C21.4798 124.559 26.8422 121.189 29.0309 121.355C31.2196 121.521 29.657 121.858 29.4906 124.047Z" fill="#86AF66"/>
<path d="M25.9802 129.013C27.5272 128.34 28.8615 127.259 29.8399 125.884C30.8182 124.51 31.4035 122.895 31.5329 121.213C31.5562 120.906 31.4567 120.603 31.2564 120.37C31.0561 120.137 30.7714 119.993 30.4648 119.969L29.3089 119.881C27.6564 119.756 26.0006 120.077 24.5138 120.808C23.0269 121.54 21.7634 122.657 20.8546 124.043C20.1657 122.536 19.0855 121.241 17.7263 120.293C16.3672 119.344 14.7788 118.778 13.1264 118.652L11.9705 118.564C11.6639 118.54 11.3606 118.64 11.1274 118.84C10.8941 119.04 10.75 119.325 10.7267 119.632C10.7034 119.938 10.8029 120.242 11.0032 120.475C11.2035 120.708 11.4882 120.852 11.7948 120.875L12.9507 120.963C14.5995 121.091 16.1491 121.801 17.3225 122.966C18.4959 124.131 19.2165 125.676 19.3555 127.324C16.2731 127.391 13.3194 128.572 11.0411 130.65C8.76278 132.727 7.31422 135.559 6.96356 138.622C6.61289 141.685 7.38388 144.772 9.13379 147.31C10.8837 149.848 13.494 151.667 16.4815 152.429C19.469 153.19 22.6313 152.844 25.3831 151.454C28.1349 150.063 30.2897 147.723 31.4486 144.866C32.6076 142.009 32.6922 138.829 31.6868 135.914C30.6814 133 28.6541 130.548 25.9802 129.013ZM29.0364 122.186C28.6423 123.764 27.7086 125.154 26.3971 126.116C25.0856 127.078 23.4789 127.551 21.8554 127.453C22.2495 125.875 23.1832 124.485 24.4947 123.523C25.8062 122.561 27.4129 122.088 29.0364 122.186ZM18.8457 150.476C16.7882 150.319 14.8232 149.556 13.1993 148.283C11.5754 147.01 10.3655 145.284 9.7226 143.323C9.07969 141.362 9.03264 139.255 9.58742 137.268C10.1422 135.28 11.2739 133.502 12.8393 132.157C14.4048 130.813 16.3338 129.963 18.3823 129.715C20.4308 129.467 22.5068 129.832 24.3479 130.764C26.189 131.696 27.7124 133.153 28.7254 134.95C29.7385 136.748 30.1958 138.806 30.0394 140.863C29.8267 143.621 28.5288 146.182 26.4302 147.984C24.3317 149.786 21.6041 150.682 18.8457 150.476ZM27.6094 142.033C27.1847 143.686 26.2625 145.169 24.9676 146.281C23.6727 147.393 22.0676 148.08 20.3692 148.25C20.3054 148.256 20.2412 148.256 20.1773 148.252C19.8875 148.229 19.6167 148.099 19.4186 147.886C19.2205 147.673 19.1095 147.394 19.1077 147.103C19.1058 146.813 19.2132 146.532 19.4086 146.317C19.604 146.102 19.873 145.968 20.1625 145.941C21.3816 145.819 22.5337 145.326 23.4632 144.527C24.3926 143.729 25.0547 142.665 25.3598 141.478C25.4357 141.182 25.6254 140.928 25.8876 140.771C26.1498 140.614 26.4634 140.567 26.7601 140.641C27.0568 140.714 27.3127 140.901 27.472 141.162C27.6313 141.423 27.6812 141.736 27.6108 142.033L27.6094 142.033Z" fill="#703627"/>
</g>
<path d="M150.934 91.5576H161.249V99.9537H150.934V91.5576Z" fill="#16BED6"/>
<path d="M150.934 100.012C150.022 100.012 149.281 99.271 149.281 98.3592V92.9739C149.281 92.0621 150.022 91.3213 150.934 91.3213C151.846 91.3213 152.587 92.0621 152.587 92.9739V98.3592C152.587 99.271 151.846 100.012 150.934 100.012Z" fill="#703627"/>
<path d="M161.249 100.011C160.337 100.011 159.596 99.2703 159.596 98.3585V93.1917C159.596 92.2799 160.337 91.5391 161.249 91.5391C162.16 91.5391 162.901 92.2799 162.901 93.1917V98.3585C162.901 99.2703 162.16 100.011 161.249 100.011Z" fill="#703627"/>
<path d="M147.648 89.99V85.7919C147.648 84.5287 148.673 83.5029 149.937 83.5029H163.091C164.354 83.5029 165.38 84.5287 165.38 85.7919V90.1609C165.38 91.8326 164.032 93.1907 162.36 93.1907H150.839C149.082 93.1907 147.648 91.7566 147.648 89.99Z" fill="#0785B5"/>
<path d="M160.47 94.8437H153.698C149.452 94.8437 146.005 91.3864 146.005 87.1314V85.0894C146.005 83.3038 147.448 81.8506 149.224 81.8506H165.38C166.292 81.8506 167.033 82.5914 167.033 83.5032V88.2806C167.033 91.8993 164.089 94.8437 160.47 94.8437ZM149.224 85.1558L149.3 87.1314C149.3 89.5628 151.276 91.5384 153.698 91.5384H160.47C162.265 91.5384 163.728 90.0757 163.728 88.2806V85.1558H149.224Z" fill="#703627"/>
<path d="M166.995 99.2607V113.849H145.074V99.0897C145.074 98.6813 145.406 98.3584 145.805 98.3584H166.083C166.586 98.3584 166.995 98.7573 166.995 99.2607Z" fill="#0785B5"/>
<path d="M166.995 107.751C166.083 107.751 165.342 107.01 165.342 106.098V103.487C165.342 101.568 163.785 100.01 161.866 100.01H149.234C147.847 100.01 146.726 101.131 146.726 102.518V106.098C146.726 107.01 145.986 107.751 145.074 107.751C144.162 107.751 143.421 107.01 143.421 106.098V102.518C143.421 99.3075 146.033 96.7051 149.234 96.7051H161.866C165.599 96.7051 168.647 99.7444 168.647 103.487V106.098C168.647 107.01 167.907 107.751 166.995 107.751Z" fill="#703627"/>
<path d="M138.568 146.303V106.839C138.568 106.431 138.9 106.099 139.309 106.099H172.969C173.378 106.099 173.71 106.431 173.71 106.839V146.303C173.71 146.711 173.378 147.044 172.969 147.044H139.309C138.9 147.044 138.568 146.711 138.568 146.303Z" fill="#16BED6"/>
<mask id="mask0_901_852" style="mask-type:luminance" maskUnits="userSpaceOnUse" x="136" y="103" width="41" height="48">
<path d="M136.45 103.887H176.768V150.084H136.45V103.887Z" fill="white"/>
</mask>
<g mask="url(#mask0_901_852)">
<path d="M168.363 148.698H143.915C140.059 148.698 136.925 145.554 136.925 141.688V111.457C136.925 107.591 140.059 104.447 143.915 104.447H168.363C172.219 104.447 175.363 107.591 175.363 111.457V141.688C175.363 145.554 172.219 148.698 168.363 148.698ZM143.915 107.753C141.883 107.753 140.221 109.415 140.221 111.457V141.688C140.221 143.73 141.883 145.393 143.915 145.393H168.363C170.395 145.393 172.057 143.73 172.057 141.688V111.457C172.057 109.415 170.395 107.753 168.363 107.753H143.915Z" fill="#703627"/>
</g>
<path d="M166.026 128.533C166.026 129.797 165.789 131.012 165.304 132.181C164.82 133.349 164.136 134.375 163.243 135.267C162.351 136.16 161.325 136.854 160.157 137.338C158.988 137.822 157.773 138.06 156.519 138.06C155.256 138.06 154.04 137.822 152.881 137.338C151.713 136.854 150.687 136.16 149.794 135.267C148.902 134.375 148.218 133.349 147.733 132.181C147.249 131.012 147.011 129.797 147.011 128.533C147.011 127.28 147.249 126.064 147.733 124.896C148.218 123.728 148.902 122.702 149.794 121.809C150.687 120.907 151.713 120.223 152.881 119.738C154.04 119.254 155.256 119.017 156.519 119.017C157.773 119.017 158.988 119.254 160.157 119.738C161.325 120.223 162.351 120.907 163.243 121.809C164.136 122.702 164.82 123.728 165.304 124.896C165.789 126.064 166.026 127.28 166.026 128.533Z" fill="#FEFBD8"/>
<mask id="mask1_901_852" style="mask-type:luminance" maskUnits="userSpaceOnUse" x="48" y="60" width="121" height="107">
<path d="M48.9174 60.1201H168.059V166.705H48.9174V60.1201Z" fill="white"/>
</mask>
<g mask="url(#mask1_901_852)">
<path d="M124.938 68.7343C127.645 70.1495 130.248 71.7546 132.717 73.5497C138.416 77.6718 143.44 82.7626 147.22 88.6988C148.607 90.8643 149.851 93.2198 150.032 95.7842C150.298 99.5643 148.237 103.088 146.251 106.317C150.554 111.864 152.786 118.741 152.53 125.55C156.756 126.158 160.622 127.687 163.88 130.062C165.076 130.945 166.235 131.981 166.795 133.358C167.584 135.248 167.099 137.461 166.093 139.246C164.031 142.884 159.881 145.088 155.711 145.268C151.532 145.448 147.41 143.767 144.171 141.127C141.569 144.584 137.399 147.329 132.983 149.01C128.566 150.701 123.846 151.423 119.173 152.144C119.705 157.672 115.925 162.573 111.252 164.245C106.579 165.926 101.355 165.024 96.6727 163.361C89.6917 160.892 83.3092 156.751 78.2088 151.385C66.1845 149.238 56.5727 139.332 52.6691 128.039C48.775 116.746 49.7152 104.332 52.916 92.099C61.9865 89.9525 70.2211 85.2891 78.3228 80.6826C88.495 74.8984 98.6672 69.1237 110.217 62.2188C113.389 65.2866 118.223 65.2201 124.938 68.7343Z" fill="#DDA783"/>
</g>
<path d="M110.074 142.2C104.622 138.98 99.4555 135.086 95.6659 130.024C91.8667 124.952 89.5398 118.579 90.1856 112.282C90.803 106.175 94.1747 100.561 98.7147 96.4393C103.255 92.3172 108.896 89.5723 114.709 87.6442C119.154 86.1721 123.998 85.1463 128.481 86.495C134.417 88.2711 138.368 93.7229 141.873 98.8422C146.138 105.063 150.535 111.626 151.38 119.13C152.349 127.63 148.369 136.264 142.044 142.01C135.709 147.756 127.275 150.824 118.784 151.774C117.938 146.711 114.519 142.143 110.074 142.2Z" fill="#FFDCC4"/>
<path d="M159.444 128.106C154.6 132.304 151.523 138.507 151.105 144.908C154.572 145.905 158.485 145.535 161.486 143.559C164.497 141.574 166.425 137.899 165.96 134.318C165.485 130.747 162.398 127.575 159.444 128.106Z" fill="#B27966"/>
<path d="M151.618 129.53C151.475 129.53 151.333 129.511 151.181 129.473C150.307 129.226 149.785 128.315 150.032 127.441C150.849 124.449 150.706 121.02 149.604 117.25C148.626 113.906 147.961 111.912 144.732 106.688C144.257 105.919 144.494 104.893 145.264 104.418C146.043 103.934 147.059 104.171 147.543 104.95C150.82 110.25 151.656 112.482 152.777 116.319C154.049 120.697 154.201 124.724 153.213 128.315C153.014 129.046 152.349 129.53 151.618 129.53Z" fill="#703627"/>
<path d="M119.097 153.75C118.214 153.75 117.482 153.047 117.454 152.154C117.416 151.243 118.128 150.473 119.04 150.445C128.775 150.112 138.216 145.24 144.304 137.414C144.865 136.692 145.9 136.568 146.622 137.129C147.334 137.689 147.467 138.724 146.907 139.446C140.23 148.042 129.849 153.38 119.154 153.75C119.135 153.75 119.116 153.75 119.097 153.75Z" fill="#703627"/>
<path d="M155.113 146.988C154.477 146.988 153.84 146.95 153.185 146.874C149.813 146.484 146.375 145.136 142.68 142.742C141.911 142.248 141.692 141.223 142.186 140.463C142.68 139.693 143.697 139.466 144.466 139.969C147.733 142.077 150.706 143.255 153.565 143.588C156.88 143.977 160.109 143.075 162.217 141.204C164.478 139.19 165.39 135.904 164.383 133.406C163.737 131.772 162.265 130.31 160.242 129.274C158.532 128.391 154.781 127.498 152.549 126.966L151.722 126.767C150.839 126.558 150.298 125.665 150.506 124.782C150.725 123.889 151.608 123.338 152.501 123.557L153.308 123.747C155.844 124.354 159.681 125.266 161.752 126.33C164.478 127.726 166.501 129.806 167.451 132.171C168.98 135.989 167.726 140.719 164.411 143.673C161.999 145.82 158.684 146.988 155.113 146.988Z" fill="#703627"/>
<path d="M132.176 73.7687C137.476 65.8855 138.501 55.2954 134.816 46.5479C139.964 45.7216 144.191 40.9346 144.38 35.7203C144.561 30.506 140.686 25.4246 135.614 24.2374C131.53 23.2781 127.284 24.6363 123.381 26.156C121.177 22.5183 117.568 19.7734 113.484 18.6242C114.928 13.9987 114.082 9.06932 111.176 5.83055C108.279 2.59179 103.473 1.22409 99.3036 2.43982C95.1341 3.65554 91.8098 7.3977 90.6606 11.6432C79.3771 10.8454 67.8942 11.6907 57.0951 15.091C46.3056 18.4817 36.2189 24.5033 28.801 33.0514C21.3832 41.5995 16.7577 52.75 17.0902 64.6698C17.869 78.1188 25.9612 90.9124 37.767 97.3614C49.4019 103.725 63.6202 103.867 76.4613 100.6C89.3024 97.3329 101.089 90.9219 112.734 84.5773C118.318 81.538 126.847 81.6805 132.176 73.7687Z" fill="#DDA783"/>
<path d="M42.0979 32.2063C41.528 32.2063 40.9771 31.9119 40.6732 31.3895C40.2078 30.6012 40.4738 29.5849 41.2621 29.129L49.2688 24.4276C50.0571 23.9622 51.0734 24.2281 51.5293 25.0165C51.9947 25.8048 51.7287 26.8211 50.9404 27.277L42.9337 31.9784C42.6678 32.1304 42.3828 32.2063 42.0979 32.2063Z" fill="#C48C71"/>
<path d="M60.6757 22.4125C59.9159 22.4125 59.232 21.8901 59.0706 21.1208C58.8711 20.228 59.4315 19.3447 60.3243 19.1453L70.0881 16.9797C70.9809 16.7803 71.8642 17.3407 72.0636 18.2335C72.2631 19.1263 71.6932 20.0096 70.8099 20.209L61.0366 22.3745C60.9132 22.403 60.7992 22.4125 60.6757 22.4125Z" fill="#C48C71"/>
<path d="M55.3951 36.2129C54.7777 36.2129 54.1889 35.871 53.9039 35.2821C53.505 34.4558 53.8469 33.468 54.6732 33.0786L62.9744 29.061C63.7912 28.6621 64.779 29.004 65.1779 29.8303C65.5768 30.6567 65.2254 31.6444 64.4085 32.0338L56.1074 36.0514C55.8795 36.1654 55.6325 36.2129 55.3951 36.2129Z" fill="#C48C71"/>
<path d="M75.0745 28.0642C74.2482 28.0642 73.5263 27.4468 73.4314 26.6015C73.3269 25.6897 73.9727 24.8729 74.8845 24.7684L84.4869 23.6477C85.3892 23.5432 86.206 24.1985 86.3105 25.1008C86.4244 26.0126 85.7691 26.8295 84.8668 26.9339L75.2645 28.0547C75.198 28.0642 75.1315 28.0642 75.0745 28.0642Z" fill="#C48C71"/>
<path d="M95.0104 20.9699C94.9344 20.9699 94.8585 20.9604 94.7825 20.9509L84.4108 19.5072C83.5085 19.3838 82.8817 18.5479 83.0051 17.6456C83.1286 16.7338 83.9644 16.0975 84.8667 16.2305L95.2384 17.6836C96.1407 17.8071 96.7675 18.6429 96.6441 19.5452C96.5301 20.3715 95.8177 20.9699 95.0104 20.9699Z" fill="#C48C71"/>
<path d="M57.152 123.176C56.4777 123.176 55.8508 122.767 55.6039 122.102C54.0272 117.914 53.2104 113.516 53.1914 109.033C53.1914 108.121 53.9322 107.381 54.844 107.371C55.7558 107.371 56.4967 108.112 56.4967 109.014C56.5157 113.108 57.2565 117.116 58.6907 120.944C59.0136 121.798 58.5862 122.748 57.7314 123.071C57.5414 123.147 57.342 123.176 57.152 123.176Z" fill="#C58D72"/>
<path d="M68.8345 141.118C68.4641 141.118 68.0936 141.004 67.7897 140.748C64.6744 138.193 61.8346 135.296 59.3461 132.124C58.7857 131.402 58.9092 130.367 59.6311 129.797C60.3529 129.236 61.3882 129.36 61.9485 130.082C64.285 133.064 66.9539 135.79 69.8792 138.193C70.5916 138.763 70.6866 139.808 70.1167 140.52C69.7843 140.919 69.3094 141.118 68.8345 141.118Z" fill="#C58D72"/>
<path d="M70.411 130.338C69.9076 130.338 69.4137 130.11 69.0908 129.673C65.9945 125.513 63.7245 120.868 62.3283 115.863C62.0814 114.989 62.5943 114.077 63.4776 113.831C64.3514 113.584 65.2632 114.096 65.5101 114.98C66.7923 119.586 68.8914 123.86 71.7407 127.697C72.2821 128.429 72.1301 129.464 71.3988 130.005C71.1044 130.233 70.7624 130.338 70.411 130.338Z" fill="#C58D72"/>
<path d="M92.6075 100.59C90.0431 103.325 88.229 106.754 87.4027 110.42C87.0322 112.082 86.8708 113.887 87.5641 115.454C88.4474 117.458 90.5369 118.645 92.579 119.424C95.8368 120.678 99.5124 121.248 102.799 120.098C106.094 118.949 108.82 115.758 108.611 112.272C108.393 108.749 105.42 105.994 102.248 104.465C99.0755 102.936 95.5518 102.233 92.6075 100.59Z" fill="#DDA783"/>
<path d="M99.3699 103.192C95.0958 107.371 93.6142 114.181 95.7702 119.766C98.3156 120.108 100.994 120.004 103.34 118.968C105.695 117.933 107.68 115.844 108.108 113.298C108.554 110.715 107.31 108.027 105.335 106.308C103.349 104.589 100.738 103.753 99.3699 103.192Z" fill="#B27966"/>
<path d="M98.9711 121.893C98.0498 121.893 97.1095 121.808 96.1407 121.637C93.1204 121.114 90.366 119.889 87.6971 118.702C86.8613 118.331 86.4909 117.363 86.8613 116.527C87.2317 115.691 88.2005 115.311 89.0363 115.681C91.5153 116.783 94.0892 117.923 96.7106 118.379C99.4555 118.863 101.982 118.483 103.815 117.325C105.791 116.071 106.911 113.744 106.474 111.787C106.161 110.42 105.145 109.061 103.274 107.523C100.006 104.844 96.1217 102.859 92.0376 101.777C91.1543 101.539 90.6225 100.637 90.8599 99.7536C91.0974 98.8703 91.9997 98.3479 92.8735 98.5759C97.4134 99.7821 101.735 101.986 105.363 104.968C106.921 106.25 109.067 108.273 109.694 111.066C110.435 114.39 108.744 118.113 105.582 120.117C103.73 121.285 101.45 121.893 98.9711 121.893Z" fill="#703627"/>
<path d="M107.415 141.498L101.498 146.95L110.986 148.992L114.529 145.734L107.415 141.498Z" fill="#DDA783"/>
<mask id="mask2_901_852" style="mask-type:luminance" maskUnits="userSpaceOnUse" x="95" y="145" width="25" height="22">
<path d="M95.115 145.221H119.43V166.705H95.115V145.221Z" fill="white"/>
</mask>
<g mask="url(#mask2_901_852)">
<path d="M95.3525 163.152C98.4773 156.551 103.483 150.862 109.637 146.94C110.682 146.265 111.86 145.629 113.095 145.743C114.481 145.876 115.611 146.94 116.381 148.098C118.556 151.394 118.641 155.896 116.761 159.372C114.89 162.839 111.204 165.213 107.301 165.698C103.388 166.173 99.3321 164.824 95.3525 163.152Z" fill="#B27966"/>
</g>
<mask id="mask3_901_852" style="mask-type:luminance" maskUnits="userSpaceOnUse" x="46" y="99" width="76" height="68">
<path d="M46.4861 99.0244H121.861V166.706H46.4861V99.0244Z" fill="white"/>
</mask>
<g mask="url(#mask3_901_852)">
<path d="M105.401 166.688C101.954 166.688 98.1639 165.795 93.9279 163.99C87.3649 161.198 81.2483 157.029 76.2334 151.947C66.1182 150.551 56.1834 142.392 51.4915 131.65C47.7208 122.998 46.866 112.474 49.0315 101.219C49.2025 100.326 50.0763 99.7375 50.9691 99.9084C51.8619 100.079 52.4507 100.953 52.2798 101.846C50.2377 112.446 51.0166 122.295 54.5213 130.33C58.7668 140.056 67.6663 147.426 76.6608 148.67C77.4016 148.765 78.057 149.098 78.5794 149.62C83.2998 154.407 89.0555 158.32 95.2196 160.951C100.453 163.183 104.822 163.867 108.583 163.05C112.382 162.233 116.561 159.004 116.818 154.664C116.96 152.327 115.934 149.753 114.016 147.588C112.078 145.413 109.476 143.827 107.177 142.554C106.38 142.107 106.085 141.101 106.522 140.303C106.968 139.505 107.966 139.22 108.773 139.657C111.309 141.063 114.215 142.839 116.485 145.394C118.983 148.205 120.303 151.653 120.113 154.854C119.762 160.894 114.396 165.178 109.286 166.289C108.032 166.555 106.741 166.688 105.401 166.688Z" fill="#703627"/>
</g>
<path d="M135.462 82.5072C134.37 87.1231 133.277 91.7486 132.195 96.3741C131.634 98.7675 131.064 101.284 131.71 103.649C132.622 106.993 135.984 109.386 139.432 109.472C142.889 109.567 146.233 107.553 148.066 104.628C149.908 101.702 150.317 97.9887 149.528 94.6264C148.522 90.3809 145.796 86.7717 143.127 83.3145C142.405 82.3742 141.655 81.4054 140.657 80.7501C139.66 80.0947 138.349 79.7908 137.257 80.2847C136.165 80.7691 135.528 82.2127 135.462 82.5072Z" fill="#DDA783"/>
<path d="M131.112 96.6205C137.399 94.341 144.551 94.55 150.687 97.2094C149.823 100.239 148.844 103.449 146.432 105.473C144.067 107.448 140.809 107.885 137.741 108.075C136.63 108.141 135.452 108.17 134.484 107.629C133.543 107.087 132.964 106.09 132.527 105.093C131.188 102.025 130.855 98.5201 131.112 96.6205Z" fill="#B27966"/>
<path d="M139.537 110.383C137.352 110.383 135.101 109.671 133.249 108.36C131.046 106.793 129.649 104.589 129.298 102.148C128.956 99.7928 129.896 96.7535 130.894 93.5338C131.615 91.1973 132.366 88.7753 132.451 86.9992C132.499 86.0874 133.268 85.3656 134.189 85.4321C135.101 85.4701 135.794 86.2489 135.756 87.1607C135.642 89.3642 134.835 91.9761 134.047 94.512C133.202 97.2379 132.328 100.059 132.565 101.683C132.784 103.212 133.705 104.627 135.158 105.663C136.811 106.84 138.9 107.325 140.733 106.964C144.267 106.27 147.315 102.87 147.971 98.8621C149.338 90.5419 140.429 80.4647 131.349 75.2029C130.561 74.7375 130.286 73.7307 130.742 72.9424C131.197 72.1541 132.214 71.8786 133.002 72.3345C141.322 77.1594 153.052 88.3479 151.228 99.4034C150.345 104.808 146.29 109.253 141.37 110.212C140.771 110.326 140.154 110.383 139.537 110.383Z" fill="#703627"/>
<path d="M83.9644 53.8422C85.4556 55.2954 87.0227 56.872 87.4406 58.914C87.5831 59.6264 87.5546 60.4337 87.0892 60.9941C86.5953 61.5734 85.7405 61.7159 84.9997 61.5449C84.2588 61.3835 83.613 60.9466 82.9861 60.5097C81.6374 59.5504 80.3077 58.5436 79.111 57.3944C78.4177 56.739 77.7528 56.0077 77.4109 55.1149C77.0595 54.2221 77.0975 53.1298 77.7148 52.389C78.3797 51.5817 79.5859 51.4012 80.6022 51.6672C81.6184 51.9331 82.5682 52.4745 83.9644 53.8422Z" fill="#703627"/>
<path d="M128.424 49.5006C126.98 49.5006 125.461 49.3962 123.884 49.1777C122.982 49.0542 122.346 48.2279 122.469 47.3161C122.592 46.4138 123.419 45.787 124.331 45.9009C129.07 46.5468 133.088 46.1194 136.26 44.6472C140.012 42.9186 142.585 39.5374 142.813 36.0517C143.041 32.7274 141.104 29.2702 137.998 27.4466C135.054 25.7085 131.16 25.4141 127.579 26.6488C124.312 27.7695 121.225 30.182 118.888 33.4208C118.356 34.1616 117.331 34.3325 116.59 33.7912C115.849 33.2593 115.678 32.224 116.21 31.4832C118.936 27.6935 122.592 24.8632 126.506 23.5145C130.989 21.9758 135.908 22.3747 139.67 24.5972C143.83 27.0382 146.423 31.7301 146.109 36.2796C145.796 40.9526 142.471 45.4165 137.647 47.6485C134.997 48.8833 131.9 49.5006 128.424 49.5006Z" fill="#703627"/>
<path d="M121.965 38.4927C121.623 38.4927 121.272 38.3883 120.978 38.1698C120.246 37.6189 120.094 36.5837 120.636 35.8523C124.311 30.9134 131.226 28.6624 137.095 30.486C137.969 30.7615 138.454 31.6828 138.178 32.5566C137.912 33.4304 136.982 33.9148 136.117 33.6393C131.539 32.2146 126.144 33.9812 123.286 37.8279C122.963 38.2648 122.469 38.4927 121.965 38.4927Z" fill="#703627"/>
<path d="M112.42 19.0131C112.23 19.0131 112.04 18.9846 111.86 18.9182C111.005 18.6047 110.558 17.6644 110.862 16.8001C112.268 12.868 111.888 9.50579 109.742 6.80839C107.32 3.76908 102.903 2.50586 99.2465 3.79757C95.6848 5.06079 93.8897 7.72019 93.9182 11.7093C93.9182 12.6211 93.1869 13.3714 92.2751 13.3714C91.3063 13.3429 90.6224 12.6401 90.6129 11.7283C90.575 6.343 93.2534 2.42038 98.1448 0.682275C103.084 -1.06533 109.048 0.634786 112.325 4.74736C115.193 8.34705 115.763 12.8965 113.968 17.9114C113.731 18.5857 113.094 19.0131 112.42 19.0131Z" fill="#703627"/>
<path d="M131.777 75.098C131.426 75.098 131.065 74.984 130.77 74.7561C130.048 74.1957 129.915 73.1509 130.476 72.4291C136.535 64.6124 137.894 54.6491 133.838 47.6492C133.382 46.8609 133.658 45.8446 134.446 45.3887C135.234 44.9328 136.241 45.1987 136.697 45.9871C141.417 54.1457 139.964 65.5906 133.088 74.4616C132.755 74.8795 132.271 75.098 131.777 75.098Z" fill="#703627"/>
<path d="M91.1735 70.748C91.1735 71.3369 91.0595 71.9067 90.8316 72.4481C90.6131 72.999 90.2902 73.4739 89.8723 73.8918C89.4544 74.3097 88.9795 74.6326 88.4286 74.8606C87.8872 75.079 87.3269 75.193 86.738 75.193C86.1491 75.193 85.5793 75.079 85.0379 74.8606C84.4965 74.6326 84.0121 74.3097 83.5942 73.8918C83.1858 73.4739 82.8629 72.999 82.6349 72.4481C82.407 71.9067 82.3025 71.3369 82.3025 70.748C82.3025 70.1591 82.407 69.5988 82.6349 69.0479C82.8629 68.5065 83.1858 68.0221 83.5942 67.6137C84.0121 67.1958 84.4965 66.8729 85.0379 66.6449C85.5793 66.417 86.1491 66.3125 86.738 66.3125C87.3269 66.3125 87.8872 66.417 88.4286 66.6449C88.9795 66.8729 89.4544 67.1958 89.8723 67.6137C90.2902 68.0221 90.6131 68.5065 90.8316 69.0479C91.0595 69.5988 91.1735 70.1591 91.1735 70.748Z" fill="#FAC4AF"/>
<path d="M48.0248 39.4715C44.5485 38.1038 40.9394 36.9736 37.2162 36.7361C33.4835 36.4987 29.6179 37.211 26.5121 39.2816C22.9124 41.6845 22.0576 44.116 20.2815 48.0576C18.363 52.3126 18.6289 54.915 17.7931 59.5025C17.3182 62.1619 18.059 70.5295 18.9993 73.056C20.5665 77.254 20.7374 77.463 24.7265 79.505C28.5352 81.4521 32.4008 83.4181 36.5798 84.3394C40.7589 85.2607 45.3654 85.0423 49.0125 82.8008C51.5295 81.2621 53.4385 78.8781 54.9487 76.3422C58.178 70.9379 59.8401 64.7358 60.7709 58.5147C61.2363 55.3804 61.5022 52.0657 60.2865 49.1403C58.5009 44.8378 54.2364 41.9125 48.0248 39.4715Z" fill="#B27966"/>
<path d="M50.2281 50.84C49.2119 51.4764 48.414 52.4737 48.0056 53.6039C47.8347 54.0788 47.7587 54.6677 48.1196 55.0096C48.471 55.342 49.0314 55.2375 49.4968 55.1236C50.4941 54.8671 51.5198 54.6107 52.4126 54.0788C53.239 53.5944 53.9893 52.7301 53.8563 51.7708C53.7518 51.0395 53.125 50.4506 52.4126 50.2797C51.7003 50.1087 50.969 50.3651 50.2281 50.84Z" fill="#703627"/>
<path d="M36.1618 45.8633C36.5512 47.0031 36.5512 48.2758 36.1618 49.4155C36.0004 49.8904 35.6869 50.4033 35.1835 50.4413C34.7086 50.4698 34.3382 50.0424 34.0438 49.6625C33.4264 48.8267 32.7901 47.9908 32.4292 47.0126C32.0872 46.1103 32.0492 44.9705 32.7521 44.3057C33.284 43.8023 34.1483 43.7453 34.8131 44.0587C35.4685 44.3722 35.8769 45.0275 36.1618 45.8633Z" fill="#703627"/>
<path d="M40.8443 76.0947C40.3599 76.0947 39.8755 76.0282 39.4006 75.9048C36.9312 75.2589 35.0316 72.9034 34.5662 69.9116C34.5282 69.7027 34.5472 69.5032 34.6137 69.3038L35.2216 67.5562C36.4468 64.0134 37.672 60.4992 38.7168 57.3649C38.9353 56.7096 39.6381 56.3582 40.2934 56.5861C40.9393 56.7951 41.2907 57.5074 41.0723 58.1533C40.018 61.2971 38.7928 64.8208 37.5676 68.3635L37.0642 69.8166C37.4441 71.6687 38.6123 73.1314 40.037 73.5113C41.5377 73.9102 43.4087 73.1124 44.691 71.5358C45.1184 71.0039 45.8972 70.9279 46.4291 71.3553C46.9609 71.7827 47.0464 72.571 46.6095 73.1029C45.0614 75.0025 42.9149 76.0947 40.8443 76.0947Z" fill="#703627"/>
<path d="M31.7452 72.4004C30.7669 72.4004 29.8076 72.1629 28.9338 71.6785C26.7208 70.4438 25.3057 67.6609 25.3247 64.5931C25.3247 63.8998 25.9135 63.4249 26.5689 63.3584C27.2527 63.3584 27.8036 63.9188 27.8036 64.6026C27.7846 66.7491 28.7249 68.7247 30.1401 69.5035C31.4983 70.2728 33.3124 69.9499 34.756 68.6867C35.2689 68.2403 36.0572 68.2973 36.5036 68.8102C36.95 69.3325 36.893 70.1114 36.3802 70.5578C34.9935 71.7735 33.3408 72.4004 31.7452 72.4004Z" fill="#703627"/>
<path d="M61.7776 104.371C55.5375 104.371 49.4683 103.326 43.8836 101.256C32.1822 96.9059 22.7129 87.8165 18.5623 76.9509C14.4687 66.2373 15.3805 53.2537 21.0032 42.2362C26.0941 32.235 35.0126 23.6299 46.1061 17.9977C55.8034 13.0683 67.1913 10.2569 79.9375 9.63957C94.7256 8.92723 114.681 13.3722 125.936 24.9216C126.572 25.577 126.562 26.6217 125.907 27.2581C125.261 27.8945 124.207 27.885 123.571 27.2296C113.094 16.478 93.6904 12.28 80.0989 12.9448C67.8182 13.5337 56.8767 16.2311 47.5973 20.942C37.1211 26.2608 28.725 34.3625 23.9476 43.7369C18.7428 53.9376 17.8785 65.9144 21.6491 75.7732C25.4577 85.7649 34.2053 94.1325 45.0328 98.1596C55.0436 101.873 66.7924 102.025 78.1234 98.5965C78.9877 98.3306 79.9185 98.8245 80.1749 99.6983C80.4408 100.572 79.947 101.493 79.0732 101.759C73.3365 103.497 67.4858 104.371 61.7776 104.371Z" fill="#703627"/>
<circle cx="119.5" cy="107.241" r="15.1071" fill="#EAC261"/>
<path d="M130.411 85.4196C130.411 88.2008 127.317 90.4554 124.536 90.4554C121.755 90.4554 120.339 92.3972 120.339 89.6161C120.339 86.8349 126.79 82.0625 129.571 82.0625C132.353 82.0625 130.411 82.6385 130.411 85.4196Z" fill="#86AF66"/>
<path d="M126.453 92.0303C128.342 91.0317 129.924 89.5369 131.028 87.7067C132.132 85.8765 132.717 83.78 132.719 81.6426C132.719 81.253 132.564 80.8795 132.289 80.604C132.013 80.3286 131.639 80.1738 131.25 80.1738H129.781C127.681 80.1746 125.62 80.7381 123.812 81.8055C122.004 82.8729 120.515 84.4054 119.5 86.2434C118.485 84.4054 116.996 82.8729 115.188 81.8055C113.38 80.7381 111.318 80.1746 109.219 80.1738H107.75C107.36 80.1738 106.987 80.3286 106.711 80.604C106.436 80.8795 106.281 81.253 106.281 81.6426C106.281 82.0321 106.436 82.4057 106.711 82.6811C106.987 82.9566 107.36 83.1113 107.75 83.1113H109.219C111.314 83.1142 113.34 83.8623 114.934 85.2218C116.529 86.5814 117.587 88.4637 117.921 90.5322C114.033 90.9127 110.415 92.6889 107.736 95.5319C105.057 98.375 103.499 102.092 103.35 105.996C103.201 109.899 104.472 113.724 106.926 116.763C109.381 119.802 112.853 121.849 116.701 122.524C120.548 123.2 124.51 122.459 127.853 120.438C131.196 118.417 133.694 115.254 134.883 111.533C136.073 107.812 135.875 103.786 134.325 100.201C132.775 96.6152 129.978 93.7126 126.453 92.0303ZM129.658 83.1113C129.312 85.1427 128.266 86.989 126.701 88.3302C125.137 89.6714 123.152 90.4231 121.092 90.4551C121.438 88.4237 122.484 86.5774 124.049 85.2362C125.613 83.895 127.598 83.1433 129.658 83.1113ZM119.5 119.83C116.886 119.83 114.33 119.055 112.156 117.602C109.982 116.15 108.288 114.085 107.287 111.67C106.287 109.255 106.025 106.597 106.535 104.032C107.045 101.468 108.304 99.1129 110.153 97.2643C112.002 95.4156 114.357 94.1566 116.921 93.6466C119.485 93.1365 122.143 93.3983 124.559 94.3988C126.974 95.3993 129.038 97.0936 130.491 99.2674C131.943 101.441 132.719 103.997 132.719 106.611C132.715 110.116 131.321 113.476 128.843 115.954C126.365 118.432 123.005 119.826 119.5 119.83ZM129.761 108.322C129.383 110.452 128.361 112.414 126.831 113.943C125.302 115.472 123.34 116.495 121.211 116.872C121.131 116.885 121.05 116.892 120.969 116.893C120.6 116.892 120.246 116.753 119.975 116.503C119.704 116.254 119.537 115.912 119.507 115.545C119.477 115.177 119.586 114.812 119.812 114.522C120.038 114.231 120.365 114.036 120.728 113.975C122.257 113.704 123.665 112.97 124.762 111.872C125.86 110.774 126.594 109.366 126.866 107.838C126.933 107.456 127.148 107.117 127.465 106.894C127.781 106.67 128.173 106.581 128.554 106.645C128.936 106.709 129.277 106.921 129.504 107.235C129.73 107.549 129.823 107.94 129.763 108.322H129.761Z" fill="#703627"/>
<g clip-path="url(#clip1_901_852)">
<circle cx="52.4702" cy="145.31" r="15.1071" transform="rotate(-18.8822 52.4702 145.31)" fill="#EAC261"/>
<path d="M55.7319 121.132C56.6319 123.763 54.4342 126.898 51.8027 127.798C49.1712 128.698 48.4605 130.993 47.5605 128.362C46.6604 125.73 51.2198 119.127 53.8513 118.227C56.4828 117.327 54.8318 118.5 55.7319 121.132Z" fill="#86AF66"/>
<path d="M54.1263 128.668C55.5912 127.111 56.6042 125.185 57.0565 123.096C57.5088 121.007 57.3833 118.834 56.6934 116.811C56.5673 116.443 56.3 116.139 55.9503 115.968C55.6005 115.796 55.197 115.771 54.8284 115.897L53.4387 116.372C51.4522 117.053 49.6843 118.253 48.3189 119.848C46.9536 121.443 46.0406 123.375 45.675 125.442C44.1197 124.032 42.2148 123.064 40.1585 122.639C38.1022 122.214 35.9697 122.348 33.9827 123.027L32.593 123.502C32.2244 123.628 31.921 123.895 31.7496 124.245C31.5781 124.595 31.5526 124.999 31.6786 125.367C31.8047 125.736 32.072 126.039 32.4218 126.211C32.7715 126.382 33.1751 126.408 33.5436 126.282L34.9334 125.806C36.9168 125.131 39.0758 125.183 41.0243 125.953C42.9728 126.724 44.5837 128.162 45.569 130.011C42.0136 131.63 39.1649 134.481 37.5503 138.038C35.9356 141.595 35.6644 145.617 36.7867 149.358C37.9091 153.1 40.349 156.308 43.6549 158.389C46.9607 160.47 50.9086 161.283 54.7676 160.677C58.6267 160.071 62.1355 158.088 64.6446 155.094C67.1536 152.1 68.493 148.298 68.4148 144.393C68.3365 140.487 66.8459 136.742 64.2189 133.851C61.5919 130.96 58.0065 129.119 54.1263 128.668ZM54.2729 119.191C54.6026 121.226 54.2102 123.311 53.1639 125.086C52.1177 126.862 50.4833 128.215 48.544 128.912C48.2144 126.878 48.6067 124.793 49.653 123.017C50.6993 121.242 52.3337 119.889 54.2729 119.191ZM56.5444 157.222C54.0706 158.068 51.4016 158.161 48.8747 157.491C46.3478 156.82 44.0766 155.415 42.3482 153.453C40.6199 151.491 39.5121 149.061 39.1648 146.47C38.8176 143.879 39.2466 141.243 40.3975 138.895C41.5484 136.548 43.3696 134.594 45.6307 133.282C47.8918 131.969 50.4914 131.357 53.1006 131.522C55.7098 131.687 58.2115 132.622 60.2893 134.209C62.3671 135.795 63.9278 137.963 64.7739 140.436C65.9044 143.754 65.6728 147.384 64.13 150.531C62.5872 153.678 59.8591 156.084 56.5444 157.222ZM62.5291 143.013C62.8607 145.15 62.528 147.337 61.576 149.279C60.624 151.22 59.0986 152.823 57.2062 153.869C57.1346 153.908 57.0601 153.94 56.9834 153.967C56.6348 154.086 56.2543 154.069 55.9174 153.92C55.5804 153.772 55.3116 153.502 55.1642 153.164C55.0168 152.827 55.0016 152.446 55.1215 152.098C55.2414 151.75 55.4878 151.46 55.8118 151.284C57.17 150.533 58.2647 149.383 58.9481 147.989C59.6314 146.595 59.8704 145.025 59.6328 143.491C59.5732 143.108 59.6671 142.718 59.894 142.404C60.1209 142.09 60.4625 141.879 60.8445 141.816C61.2265 141.753 61.618 141.843 61.9338 142.067C62.2496 142.291 62.4641 142.631 62.5308 143.012L62.5291 143.013Z" fill="#703627"/>
</g>
<defs>
<clipPath id="clip0_901_852">
<rect width="37.0954" height="37.0954" fill="white" transform="translate(2.81116 116.705) rotate(4.34619)"/>
</clipPath>
<clipPath id="clip1_901_852">
<rect width="47" height="47" fill="white" transform="translate(21 125.915) rotate(-18.8822)"/>
</clipPath>
</defs>
</svg>
