<svg width="279" height="286" viewBox="0 0 279 286" fill="none" xmlns="http://www.w3.org/2000/svg">
<path d="M194.449 264.517C198.082 270.734 207.796 276.331 214.981 276.761C222.139 277.192 228.167 274.985 232.338 269.119C236.509 263.253 233.306 252.946 230.4 246.38C228.517 242.182 222.381 242.882 219.044 239.088C228.49 223.723 237.02 201.872 238.285 184.031C238.312 163.364 233.414 142.698 223.296 124.13C233.199 107.5 241.056 89.6591 246.6 71.5489C249.856 57.233 248.08 41.9215 242.348 28.386C238.204 18.5371 231.773 9.334 222.516 4.03281C217.564 1.20731 212.021 -0.407269 206.531 -1.96803C203.248 -2.93676 199.912 -3.8786 196.494 -4.01315C145.501 -6.1121 127.929 -4.04006 127.148 -4.30916C125.614 -4.82044 96.3637 -2.31785 94.3993 -3.12513C88.3984 -5.65464 81.5365 -3.71715 75.3742 -1.6182C70.369 0.104014 65.3907 1.96077 60.9238 4.81319C51.6669 10.6795 45.3162 20.4746 42.0332 30.9155C35.844 46.0656 35.1444 63.2339 39.0194 79.1374C42.9212 95.0679 51.2632 109.707 61.3274 122.543C46.258 158.198 46.4195 202.652 61.6503 238.012C54.304 241.86 44.1591 251.655 44.8318 259.943C45.5046 268.231 52.4741 274.824 60.3317 277.434C68.2162 280.044 79.1684 271.541 84.3889 265.567C89.2057 271.352 102.822 277.353 110.007 279.668C138.477 288.817 169.423 284.834 194.449 264.517Z" fill="#DDA783"/>
<path d="M72.7646 159.355C75.4018 163.472 77.6084 165.356 80.9182 165.867C84.2281 166.405 89.6908 164.629 91.5475 159.893C92.1664 158.279 91.2515 159.516 90.5788 157.364C88.3453 160.27 85.7351 160.97 82.479 161.266C78.5502 161.615 76.6665 160.835 72.7646 159.355Z" fill="#703627"/>
<path d="M89.205 162.772C92.165 160.512 93.2414 156.233 91.8959 152.601C90.7926 149.56 87.6442 147.515 84.5496 147.515C81.2397 147.515 78.0644 149.748 76.8535 152.923C75.6156 156.099 76.396 160.055 78.7641 162.53C81.1052 165.006 85.1954 165.84 89.205 162.772Z" fill="#703627"/>
<path d="M61.6514 146.681C61.6514 145.739 61.8397 144.824 62.1896 143.963C62.5394 143.075 63.0507 142.294 63.7234 141.649C64.3961 140.976 65.1496 140.465 66.0376 140.088C66.8987 139.738 67.8137 139.55 68.7555 139.55C69.6973 139.55 70.5853 139.738 71.4734 140.088C72.3345 140.465 73.1148 140.976 73.7607 141.649C74.4334 142.294 74.9447 143.075 75.3214 143.963C75.6713 144.824 75.8596 145.739 75.8596 146.681C75.8596 147.623 75.6713 148.537 75.3214 149.399C74.9447 150.287 74.4334 151.04 73.7607 151.713C73.1148 152.386 72.3345 152.897 71.4734 153.247C70.5853 153.623 69.6973 153.812 68.7555 153.812C67.8137 153.812 66.8987 153.623 66.0376 153.247C65.1496 152.897 64.3961 152.386 63.7234 151.713C63.0507 151.04 62.5394 150.287 62.1896 149.399C61.8397 148.537 61.6514 147.623 61.6514 146.681Z" fill="#DD917A"/>
<path d="M94.5886 -3.9859C87.2423 6.26664 88.1572 21.04 94.9384 31.6693C101.72 42.2986 113.425 49.0798 125.642 52.0936C139.635 55.565 155.001 54.4348 167.648 47.519C180.322 40.6032 189.875 27.6059 191.248 13.2093C191.678 8.71541 191.14 3.68332 187.911 0.534903C184.682 -2.64043 179.73 -3.04407 175.21 -3.25935C147.385 -4.44337 119.534 -4.22809 94.5886 -3.9859Z" fill="#FFDCC4"/>
<path d="M207.931 156.879C205.294 160.997 203.087 162.88 199.777 163.392C196.468 163.93 191.005 162.154 189.148 157.418C188.529 155.776 189.444 157.041 190.117 154.888C192.35 157.794 194.961 158.494 198.217 158.79C202.145 159.113 204.029 158.333 207.931 156.879Z" fill="#703627"/>
<path d="M191.491 160.297C188.531 158.037 187.454 153.758 188.8 150.125C189.903 147.084 193.051 145.039 196.146 145.039C199.456 145.039 202.631 147.273 203.842 150.448C205.08 153.623 204.3 157.552 201.932 160.055C199.591 162.531 195.5 163.338 191.491 160.297Z" fill="#703627"/>
<path d="M204.836 144.205C204.836 143.263 205.025 142.348 205.375 141.46C205.751 140.599 206.263 139.818 206.935 139.146C207.581 138.5 208.362 137.989 209.223 137.612C210.111 137.262 210.999 137.074 211.941 137.074C212.882 137.074 213.797 137.262 214.658 137.612C215.546 137.989 216.3 138.5 216.973 139.146C217.645 139.818 218.157 140.599 218.506 141.46C218.856 142.348 219.045 143.263 219.045 144.205C219.045 145.146 218.856 146.061 218.506 146.923C218.157 147.784 217.645 148.564 216.973 149.237C216.3 149.909 215.546 150.421 214.658 150.771C213.797 151.147 212.882 151.309 211.941 151.309C210.999 151.309 210.111 151.147 209.223 150.771C208.362 150.421 207.581 149.909 206.935 149.237C206.263 148.564 205.751 147.784 205.375 146.923C205.025 146.061 204.836 145.146 204.836 144.205Z" fill="#DD917A"/>
<path d="M137.292 73.1366C141.383 73.1366 145.554 73.4057 149.778 73.9439C184.653 78.4647 216.649 102.064 231.261 134.06C245.361 164.925 241.271 208.68 221.277 240.514C220.497 241.752 218.882 242.102 217.644 241.348C216.406 240.568 216.03 238.926 216.81 237.689C235.889 207.281 239.872 165.598 226.471 136.266C212.585 105.886 182.204 83.4968 149.106 79.2182C134.171 77.2807 119.882 78.976 107.746 84.1157C95.5287 89.3092 85.1685 96.4134 75.1312 106.451C52.5541 129.108 42.759 190.301 63.9368 235.294C64.5557 236.612 63.9906 238.2 62.6721 238.819C61.3535 239.438 59.7928 238.873 59.1738 237.554C37.0811 190.678 47.6027 126.579 71.3908 102.71C81.7779 92.2962 92.9992 84.627 105.7 79.2451C115.226 75.2086 125.99 73.1366 137.292 73.1366Z" fill="#703627"/>
<path d="M195.444 261.154C196.278 261.154 197.113 261.557 197.624 262.284C198.458 263.468 198.189 265.136 196.978 265.97C160.327 292.046 121.954 292.665 82.9622 267.8C81.7244 267.02 81.3745 265.378 82.1549 264.141C82.9353 262.903 84.5768 262.526 85.8146 263.333C122.815 286.933 159.197 286.368 193.937 261.665C194.395 261.315 194.933 261.154 195.444 261.154Z" fill="#703627"/>
<path d="M152.821 -7C177.066 -7 200.343 -6.32726 208.524 -4.12068C221.817 -0.514796 233.092 6.99298 239.416 16.5459C249.319 31.4807 252.709 51.9589 248.673 72.733C244.717 93.1843 234.572 111.456 226.176 125.099C225.423 126.337 223.781 126.741 222.544 125.96C221.306 125.18 220.929 123.565 221.682 122.3C229.836 109.061 239.685 91.3276 243.506 71.7374C247.247 52.3087 244.179 33.2567 235.03 19.479C229.379 11.0025 219.234 4.2751 207.151 1.01905C189.956 -3.63631 91.763 -0.864618 85.1164 -0.218789C70.8812 1.18051 57.1573 8.90356 50.1339 19.479C40.9847 33.2567 37.8901 52.3087 41.6574 71.7374C45.1557 89.7399 54.0358 105.159 63.5887 120.713C64.3422 121.951 63.9655 123.592 62.7276 124.346C61.4898 125.126 59.8483 124.749 59.0948 123.484C49.2728 107.527 40.1236 91.6236 36.4639 72.733C32.4544 51.9589 35.8181 31.4807 45.7477 16.5459C53.7129 4.5173 68.5939 -3.9054 84.6051 -5.49307C88.4263 -5.8698 121.417 -7 152.821 -7Z" fill="#703627"/>
<path d="M209.088 233.76C209.222 233.76 209.357 233.787 209.518 233.814C218.076 235.213 224.938 238.173 229.862 242.586C236.213 248.264 239.227 256.687 237.531 264.006C235.89 271.11 229.728 277.111 222.22 278.914C215.439 280.529 207.715 278.834 201.553 274.393C196.198 270.492 191.92 264.437 189.525 257.333C189.04 255.96 189.794 254.453 191.166 253.969C192.538 253.512 194.045 254.238 194.53 255.637C196.575 261.692 200.181 266.832 204.675 270.088C209.572 273.667 215.681 275.012 220.982 273.748C226.606 272.402 231.181 268.016 232.365 262.795C233.629 257.333 231.288 250.955 226.337 246.542C222.166 242.802 216.219 240.272 208.657 239.034C207.231 238.792 206.235 237.447 206.478 235.994C206.693 234.702 207.823 233.76 209.088 233.76Z" fill="#703627"/>
<path d="M200.827 249.179C201.903 249.179 202.926 249.852 203.303 250.928C205.886 258.167 213.394 263.414 220.982 263.361C221.009 263.361 221.009 263.361 221.009 263.361C222.462 263.361 223.646 264.545 223.646 265.998C223.646 267.451 222.489 268.662 221.009 268.662C220.982 268.662 220.955 268.662 220.902 268.662C211.106 268.662 201.634 261.961 198.324 252.731C197.84 251.332 198.54 249.825 199.939 249.341C200.235 249.233 200.531 249.179 200.827 249.179Z" fill="#703627"/>
<path d="M70.3962 234.19C71.6071 234.19 72.7104 235.024 72.9795 236.262C73.3024 237.688 72.4144 239.088 70.9882 239.411C63.5073 241.133 57.7218 244.012 53.793 247.995C49.1376 252.704 47.1732 259.216 48.7609 264.598C50.2947 269.711 55.1115 273.828 60.7895 274.824C66.1714 275.765 72.1991 274.043 76.8814 270.168C81.16 266.643 84.443 261.288 86.1114 255.126C86.4881 253.7 87.9681 252.892 89.3674 253.269C90.7667 253.646 91.6009 255.099 91.1973 256.525C89.2329 263.737 85.3579 270.061 80.2182 274.259C74.3788 279.102 66.7634 281.255 59.8745 280.044C52.286 278.699 45.7739 273.101 43.7019 266.105C41.5491 258.92 44.0517 250.336 50.0256 244.281C54.681 239.545 61.3546 236.181 69.8042 234.244C70.0194 234.217 70.2078 234.19 70.3962 234.19Z" fill="#703627"/>
<path d="M79.5985 249.071C79.8406 249.071 80.0828 249.098 80.325 249.152C81.7243 249.583 82.5316 251.036 82.128 252.462C79.3832 261.907 70.2877 269.2 60.4658 269.738C59.0395 269.846 57.7479 268.715 57.6672 267.262C57.5864 265.782 58.7166 264.544 60.1697 264.464C67.8121 264.033 74.9162 258.355 77.069 250.982C77.3919 249.798 78.4413 249.071 79.5985 249.071Z" fill="#703627"/>
<path d="M136.056 165.894C142.029 166.109 148.084 165.894 153.843 164.253C159.574 162.638 165.037 159.49 168.616 154.673C172.76 149.129 174.052 141.972 174.617 135.056C175.236 127.602 175.209 120.04 174.025 112.667C173.325 108.388 172.195 104.029 169.396 100.692C164.822 95.1758 157.018 93.8841 149.914 92.9154C143.133 92.0274 136.244 91.1124 129.463 91.9466C122.655 92.7808 115.82 95.5794 111.514 100.908C108.527 104.594 106.912 109.223 105.998 113.851C103.979 123.754 104.787 134.033 106.697 143.936C107.666 148.914 109.011 154.054 112.402 157.848C117.38 163.392 125.372 165.517 136.056 165.894Z" fill="#B27966"/>
<path d="M126.691 149.883C127.875 148.376 128.548 146.465 128.575 144.528C128.575 143.721 128.386 142.779 127.66 142.456C126.933 142.16 126.153 142.59 125.507 143.021C124.134 143.936 122.735 144.878 121.659 146.143C120.663 147.353 119.99 149.049 120.717 150.421C121.255 151.471 122.52 152.036 123.677 151.901C124.861 151.794 125.803 150.986 126.691 149.883Z" fill="#703627"/>
<path d="M150.56 149.883C149.376 148.376 148.677 146.465 148.677 144.528C148.677 143.721 148.865 142.779 149.592 142.456C150.291 142.16 151.099 142.59 151.744 143.021C153.117 143.936 154.516 144.878 155.593 146.143C156.561 147.353 157.234 149.049 156.534 150.421C155.996 151.471 154.731 152.036 153.574 151.901C152.39 151.794 151.422 150.986 150.56 149.883Z" fill="#703627"/>
<path d="M130.404 106.182C134.225 106.182 138.019 108.657 140.172 112.694C140.333 112.99 140.414 113.286 140.414 113.636L140.441 117.026C140.468 122.892 140.495 128.705 140.576 133.872C140.603 134.975 139.715 135.89 138.638 135.89C137.616 135.863 136.62 135.029 136.62 133.925C136.539 128.759 136.512 122.919 136.485 117.053L136.459 114.174C134.898 111.564 132.368 109.976 130 110.164C127.525 110.38 125.13 112.559 124.026 115.654C123.676 116.676 122.546 117.215 121.497 116.838C120.474 116.488 119.936 115.331 120.313 114.308C121.927 109.707 125.614 106.531 129.677 106.209C129.92 106.182 130.162 106.182 130.404 106.182Z" fill="#703627"/>
<path d="M146.201 106.881C146.712 106.881 147.223 106.908 147.734 107.016C151.717 107.688 155.35 111.133 156.964 115.788C157.314 116.838 156.749 117.968 155.727 118.318C154.704 118.667 153.574 118.129 153.197 117.08C152.094 113.851 149.618 111.375 147.062 110.917C144.586 110.514 142.057 111.967 140.523 114.631C140.011 115.573 138.8 115.923 137.832 115.384C136.89 114.846 136.54 113.635 137.078 112.667C139.15 109.034 142.595 106.881 146.201 106.881Z" fill="#703627"/>
<path d="M76.747 258.14C78.1194 255.826 79.5187 253.377 79.7339 250.686C79.9492 247.995 78.6037 244.981 76.0204 244.174C74.2444 243.609 72.3069 244.201 70.6116 244.954C66.3061 246.784 62.4042 249.529 59.2289 252.947C57.4797 254.803 55.919 256.956 55.3808 259.432C54.8426 261.907 55.5153 264.787 57.5605 266.294C60.2783 268.285 64.0726 267.235 67.1941 265.944C71.1767 264.329 74.4866 262.015 76.747 258.14Z" fill="#FFDCC4"/>
<path d="M227.332 73.433C227.332 73.433 227.359 73.433 227.386 73.433C228.839 73.4599 229.996 74.6708 229.969 76.1508L229.646 89.7402C229.619 91.2202 228.435 92.3773 226.929 92.3504C225.475 92.2966 224.318 91.0857 224.345 89.6325L224.668 76.0163C224.722 74.5632 225.879 73.433 227.332 73.433Z" fill="#C48C71"/>
<path d="M216.999 48.8107C218.426 48.8107 219.583 49.9409 219.637 51.394L219.96 65.3331C219.986 66.7863 218.829 67.9972 217.376 68.051C217.349 68.051 217.322 68.051 217.295 68.051C215.869 68.051 214.712 66.8939 214.658 65.4408L214.335 51.5285C214.309 50.0485 215.466 48.8376 216.919 48.8107C216.946 48.8107 216.973 48.8107 216.999 48.8107Z" fill="#C48C71"/>
<path d="M233.79 34.2252C235.189 34.2252 236.347 35.3285 236.427 36.7547L237.073 50.0211C237.127 51.5012 236.024 52.739 234.544 52.7928C233.09 52.9005 231.853 51.7433 231.799 50.2902L231.153 36.9969C231.072 35.5438 232.202 34.306 233.656 34.2252C233.683 34.2252 233.736 34.2252 233.79 34.2252Z" fill="#C48C71"/>
<path d="M217.969 13.8009C219.26 13.8009 220.39 14.7696 220.579 16.0882L222.193 27.0942C222.409 28.5473 221.413 29.8928 219.96 30.1081C218.507 30.3234 217.161 29.3008 216.946 27.8746L215.331 16.8417C215.143 15.3886 216.139 14.0431 217.565 13.8278C217.7 13.8278 217.834 13.8009 217.969 13.8009Z" fill="#C48C71"/>
<path d="M77.1226 49.1334C77.1495 49.1334 77.1764 49.1334 77.2034 49.1334C78.6565 49.1603 79.8136 50.3713 79.7867 51.8513L79.4638 65.7635C79.4099 67.2436 78.2797 68.4276 76.7459 68.3738C75.2928 68.32 74.1357 67.109 74.1626 65.6559L74.4855 51.7167C74.5124 50.2636 75.6964 49.1334 77.1226 49.1334Z" fill="#C48C71"/>
<path d="M65.4987 75.6934C66.898 75.6934 68.0551 76.7967 68.1359 78.1959L68.7817 89.202C68.8893 90.682 67.7591 91.9198 66.306 92.0006C64.7722 92.1082 63.6151 90.978 63.5074 89.5249L62.8616 78.5189C62.7809 77.0388 63.8841 75.801 65.3373 75.6934C65.3911 75.6934 65.4449 75.6934 65.4987 75.6934Z" fill="#C48C71"/>
<path d="M56.456 49.4565C57.8822 49.4565 59.0662 50.5868 59.0931 52.0399L59.4429 63.6917C59.4698 65.1448 58.3127 66.3827 56.8596 66.4096C55.4065 66.4634 54.1956 65.3063 54.1417 63.8532L53.8188 52.1744C53.7919 50.7213 54.9221 49.4835 56.3752 49.4565C56.4021 49.4565 56.4291 49.4565 56.456 49.4565Z" fill="#C48C71"/>
<path d="M65.4986 16.0884C65.6331 16.0884 65.7677 16.0884 65.8753 16.1153C67.3284 16.3037 68.3241 17.6491 68.1088 19.1023L65.5255 36.9433C65.3371 38.3695 64.0185 39.3921 62.5385 39.1768C61.1123 38.9615 60.0897 37.616 60.305 36.1629L62.8883 18.3488C63.0767 17.0302 64.2069 16.0884 65.4986 16.0884Z" fill="#C48C71"/>
<path d="M142.163 248.318H142.19C143.643 248.318 144.827 249.529 144.8 250.982L144.558 268.957C144.531 270.411 143.347 271.621 141.921 271.621C141.894 271.621 141.894 271.621 141.867 271.621C140.414 271.595 139.257 270.411 139.257 268.957V268.904L139.499 250.928C139.526 249.475 140.71 248.318 142.163 248.318Z" fill="#C48C71"/>
<path d="M113.506 245.331C113.533 245.331 113.533 245.331 113.56 245.331C115.04 245.385 116.17 246.596 116.143 248.049L115.74 262.122C115.713 263.575 114.529 264.706 113.102 264.706C113.076 264.706 113.049 264.706 113.022 264.706C111.569 264.679 110.438 263.441 110.465 261.988L110.842 247.914C110.896 246.461 112.08 245.331 113.506 245.331Z" fill="#C48C71"/>
<path d="M173.757 241.564C173.864 241.564 173.972 241.564 174.053 241.591C175.506 241.752 176.555 243.071 176.394 244.524C175.829 249.502 175.883 254.534 176.609 259.485C176.824 260.939 175.829 262.284 174.376 262.499C172.923 262.715 171.577 261.692 171.389 260.239C170.608 254.857 170.528 249.341 171.146 243.932C171.281 242.559 172.438 241.564 173.757 241.564Z" fill="#C48C71"/>
<path d="M159.763 215.784C159.843 215.784 159.924 215.784 159.978 215.784C161.431 215.919 162.534 217.183 162.4 218.636C161.942 224.234 162.4 229.804 163.799 235.213C164.149 236.639 163.315 238.065 161.889 238.442C160.489 238.792 159.036 237.958 158.686 236.531C157.152 230.531 156.641 224.368 157.126 218.206C157.26 216.834 158.417 215.784 159.763 215.784Z" fill="#C48C71"/>
<path d="M126.368 218.771C127.741 218.771 128.898 219.874 129.005 221.274L129.786 234.54C129.867 236.02 128.763 237.258 127.31 237.366C125.857 237.446 124.592 236.316 124.512 234.863L123.731 221.597C123.624 220.116 124.754 218.879 126.207 218.771C126.261 218.771 126.315 218.771 126.368 218.771Z" fill="#C48C71"/>
<path d="M139.58 199.746C140.979 199.746 142.136 200.85 142.217 202.249L143.024 214.923C143.105 216.376 142.002 217.641 140.549 217.722C139.068 217.829 137.831 216.726 137.75 215.246L136.943 202.572C136.862 201.119 137.965 199.854 139.418 199.773C139.472 199.746 139.526 199.746 139.58 199.746Z" fill="#C48C71"/>
<mask id="mask0_594_15320" style="mask-type:luminance" maskUnits="userSpaceOnUse" x="157" y="119" width="122" height="125">
<path d="M157.315 119.179H279V243.178H157.315V119.179Z" fill="white"/>
</mask>
<g mask="url(#mask0_594_15320)">
<path d="M159.388 179.967C159.388 176.119 159.764 172.298 160.518 168.531C161.271 164.737 162.375 161.077 163.855 157.525C165.308 153.973 167.111 150.582 169.237 147.38C171.389 144.178 173.811 141.218 176.502 138.5C179.22 135.782 182.18 133.333 185.382 131.207C188.558 129.055 191.921 127.252 195.473 125.799C199.025 124.319 202.685 123.188 206.453 122.462C210.193 121.708 214.014 121.332 217.835 121.332C221.683 121.332 225.478 121.708 229.245 122.462C233.012 123.188 236.672 124.319 240.224 125.799C243.749 127.252 247.113 129.055 250.315 131.207C253.517 133.333 256.451 135.782 259.168 138.5C261.886 141.218 264.308 144.178 266.434 147.38C268.587 150.582 270.363 153.973 271.843 157.525C273.323 161.077 274.426 164.737 275.18 168.531C275.906 172.298 276.283 176.119 276.283 179.967C276.283 183.816 275.906 187.637 275.18 191.404C274.426 195.171 273.323 198.831 271.843 202.41C270.363 205.962 268.587 209.326 266.434 212.528C264.308 215.73 261.886 218.69 259.168 221.435C256.451 224.153 253.517 226.575 250.315 228.728C247.113 230.853 243.749 232.656 240.224 234.136C236.672 235.616 233.012 236.72 229.245 237.473C225.478 238.227 221.683 238.603 217.835 238.603C214.014 238.603 210.193 238.227 206.453 237.473C202.685 236.72 199.025 235.616 195.473 234.136C191.921 232.656 188.558 230.853 185.382 228.728C182.18 226.575 179.22 224.153 176.502 221.435C173.811 218.69 171.389 215.73 169.237 212.528C167.111 209.326 165.308 205.962 163.855 202.41C162.375 198.831 161.271 195.171 160.518 191.404C159.764 187.637 159.388 183.816 159.388 179.967Z" fill="#89A065"/>
</g>
<mask id="mask1_594_15320" style="mask-type:luminance" maskUnits="userSpaceOnUse" x="0" y="119" width="123" height="125">
<path d="M0 119.179H122.869V243.178H0V119.179Z" fill="white"/>
</mask>
<g mask="url(#mask1_594_15320)">
<path d="M2.69043 179.967C2.69043 176.119 3.06716 172.298 3.82063 168.531C4.5741 164.737 5.67739 161.077 7.13051 157.525C8.61053 153.973 10.4135 150.582 12.5393 147.38C14.6652 144.178 17.087 141.218 19.8049 138.5C22.5228 135.782 25.4828 133.333 28.6582 131.207C31.8604 129.055 35.2241 127.252 38.7762 125.799C42.3282 124.319 45.961 123.188 49.7284 122.462C53.4957 121.708 57.2899 121.332 61.138 121.332C64.9861 121.332 68.7803 121.708 72.5477 122.462C76.315 123.188 79.9478 124.319 83.4999 125.799C87.0519 127.252 90.4156 129.055 93.6179 131.207C96.7932 133.333 99.7532 135.782 102.471 138.5C105.189 141.218 107.611 144.178 109.737 147.38C111.863 150.582 113.665 153.973 115.146 157.525C116.599 161.077 117.702 164.737 118.455 168.531C119.209 172.298 119.586 176.119 119.586 179.967C119.586 183.816 119.209 187.637 118.455 191.404C117.702 195.171 116.599 198.831 115.146 202.41C113.665 205.962 111.863 209.326 109.737 212.528C107.611 215.73 105.189 218.69 102.471 221.435C99.7532 224.153 96.7932 226.575 93.6179 228.728C90.4156 230.853 87.0519 232.656 83.4999 234.136C79.9478 235.616 76.315 236.72 72.5477 237.473C68.7803 238.227 64.9861 238.603 61.138 238.603C57.2899 238.603 53.4957 238.227 49.7284 237.473C45.961 236.72 42.3282 235.616 38.7762 234.136C35.2241 232.656 31.8604 230.853 28.6582 228.728C25.4828 226.575 22.5228 224.153 19.8049 221.435C17.087 218.69 14.6652 215.73 12.5393 212.528C10.4135 209.326 8.61053 205.962 7.13051 202.41C5.67739 198.831 4.5741 195.171 3.82063 191.404C3.06716 187.637 2.69043 183.816 2.69043 179.967Z" fill="#89A065"/>
</g>
<mask id="mask2_594_15320" style="mask-type:luminance" maskUnits="userSpaceOnUse" x="184" y="139" width="95" height="105">
<path d="M184.869 139.845H278.998V243.178H184.869V139.845Z" fill="white"/>
</mask>
<g mask="url(#mask2_594_15320)">
<path d="M264.413 143.99C239.226 172.326 214.038 200.661 188.851 228.997C196.144 231.903 203.49 234.836 211.159 236.451C218.855 238.092 226.955 238.389 234.463 236.02C240.894 234.002 246.599 230.154 251.873 225.929C259.65 219.74 266.862 212.528 271.302 203.621C275.904 194.418 277.276 183.762 276.065 173.51C274.854 163.284 271.141 153.435 264.413 143.99Z" fill="#758F4C"/>
</g>
<path d="M171.092 179.967C171.092 176.873 171.388 173.832 171.98 170.818C172.572 167.777 173.46 164.844 174.644 162.019C175.828 159.166 177.254 156.448 178.976 153.892C180.672 151.336 182.609 148.968 184.789 146.788C186.942 144.608 189.31 142.671 191.866 140.949C194.422 139.253 197.113 137.8 199.939 136.616C202.791 135.432 205.697 134.544 208.711 133.952C211.725 133.36 214.766 133.037 217.834 133.037C220.901 133.037 223.942 133.36 226.956 133.952C229.97 134.544 232.903 135.432 235.729 136.616C238.581 137.8 241.272 139.253 243.828 140.949C246.385 142.671 248.726 144.608 250.906 146.788C253.085 148.968 255.023 151.336 256.718 153.892C258.413 156.448 259.866 159.166 261.05 162.019C262.208 164.844 263.096 167.777 263.715 170.818C264.307 173.832 264.603 176.873 264.603 179.967C264.603 183.035 264.307 186.103 263.715 189.117C263.096 192.131 262.208 195.064 261.05 197.916C259.866 200.768 258.413 203.459 256.718 206.016C255.023 208.572 253.085 210.94 250.906 213.12C248.726 215.3 246.385 217.264 243.828 218.959C241.272 220.682 238.581 222.108 235.729 223.292C232.903 224.476 229.97 225.364 226.956 225.956C223.942 226.575 220.901 226.871 217.834 226.871C214.766 226.871 211.725 226.575 208.711 225.956C205.697 225.364 202.791 224.476 199.939 223.292C197.113 222.108 194.422 220.682 191.866 218.959C189.31 217.264 186.942 215.3 184.789 213.12C182.609 210.94 180.672 208.572 178.976 206.016C177.254 203.459 175.828 200.768 174.644 197.916C173.46 195.064 172.572 192.131 171.98 189.117C171.388 186.103 171.092 183.035 171.092 179.967Z" fill="#141614"/>
<path d="M25.1621 225.364C52.7713 198.105 79.358 169.769 103.819 140.357C111.004 150.34 118.404 160.997 119.534 173.24C120.234 180.775 118.484 188.337 116.251 195.575C113.991 202.922 111.138 210.241 106.268 216.161C102.043 221.301 96.4994 225.149 90.8215 228.567C79.2503 235.536 65.7956 241.026 52.5561 238.442C43.0301 236.586 34.8226 230.746 25.1621 225.364Z" fill="#758F4C"/>
<path d="M164.444 153.65C157.421 170.549 158.148 190.516 166.705 207.362C149.402 216.699 128.251 218.61 109.549 212.528C119.694 196.517 122.519 176.012 117.11 157.794C121.174 161.104 126.583 162.342 131.803 162.261C137.024 162.18 142.163 160.889 147.222 159.624C151.824 158.467 156.425 157.283 164.444 153.65Z" fill="#89A065"/>
<path d="M14.3701 179.967C14.3701 176.873 14.693 173.832 15.285 170.818C15.8771 167.777 16.7651 164.844 17.9491 162.019C19.1062 159.166 20.5593 156.448 22.2546 153.892C23.9768 151.336 25.9143 148.968 28.0671 146.788C30.2468 144.608 32.6148 142.671 35.1712 140.949C37.7276 139.253 40.4186 137.8 43.2441 136.616C46.0696 135.432 49.0027 134.544 52.0166 133.952C55.0305 133.36 58.0713 133.037 61.139 133.037C64.2066 133.037 67.2474 133.36 70.2613 133.952C73.2752 134.544 76.2083 135.432 79.0338 136.616C81.8593 137.8 84.5772 139.253 87.1067 140.949C89.6631 142.671 92.0311 144.608 94.2108 146.788C96.3636 148.968 98.3011 151.336 100.023 153.892C101.719 156.448 103.172 159.166 104.329 162.019C105.513 164.844 106.401 167.777 106.993 170.818C107.612 173.832 107.908 176.873 107.908 179.967C107.908 183.035 107.612 186.103 106.993 189.117C106.401 192.131 105.513 195.064 104.329 197.916C103.172 200.768 101.719 203.459 100.023 206.016C98.3011 208.572 96.3636 210.94 94.2108 213.12C92.0311 215.3 89.6631 217.264 87.1067 218.959C84.5772 220.682 81.8593 222.108 79.0338 223.292C76.2083 224.476 73.2752 225.364 70.2613 225.956C67.2474 226.575 64.2066 226.871 61.139 226.871C58.0713 226.871 55.0305 226.575 52.0166 225.956C49.0027 225.364 46.0696 224.476 43.2441 223.292C40.4186 222.108 37.7276 220.682 35.1712 218.959C32.6148 217.264 30.2468 215.3 28.0671 213.12C25.9143 210.94 23.9768 208.572 22.2546 206.016C20.5593 203.459 19.1062 200.768 17.9491 197.916C16.7651 195.064 15.8771 192.131 15.285 189.117C14.693 186.103 14.3701 183.035 14.3701 179.967Z" fill="#141614"/>
<path d="M117.246 198.024C133.042 195.01 147.87 187.072 159.145 175.528C158.795 186.48 162.078 197.513 168.375 206.474C152.014 218.233 129.221 220.359 110.977 211.802C113.398 206.743 115.847 201.684 117.246 198.024Z" fill="#758F4C"/>
<mask id="mask3_594_15320" style="mask-type:luminance" maskUnits="userSpaceOnUse" x="150" y="112" width="129" height="132">
<path d="M150.425 112.29H278.999V243.178H150.425V112.29Z" fill="white"/>
</mask>
<g mask="url(#mask3_594_15320)">
<path d="M217.833 118.667C251.524 118.667 278.918 146.169 278.918 179.967C278.918 213.766 251.524 241.241 217.833 241.241C184.169 241.241 156.749 213.766 156.749 179.967C156.749 146.169 184.169 118.667 217.833 118.667ZM217.833 235.939C248.618 235.939 273.644 210.833 273.644 179.967C273.644 149.102 248.618 123.969 217.833 123.969C187.076 123.969 162.023 149.102 162.023 179.967C162.023 210.833 187.076 235.939 217.833 235.939Z" fill="#703627"/>
</g>
<path d="M217.834 130.4C245.094 130.4 267.24 152.627 267.24 179.968C267.24 207.281 245.094 229.508 217.834 229.508C190.602 229.508 168.455 207.281 168.455 179.968C168.455 152.627 190.602 130.4 217.834 130.4ZM217.834 224.207C242.16 224.207 261.966 204.375 261.966 179.968C261.966 155.561 242.16 135.701 217.834 135.701C193.508 135.701 173.729 155.561 173.729 179.968C173.729 204.375 193.508 224.207 217.834 224.207Z" fill="#703627"/>
<path d="M248.564 181.259C248.779 181.259 249.022 181.313 249.21 181.448C249.856 181.798 250.071 182.605 249.694 183.251C242.348 195.979 234.194 208.384 225.449 220.171C225.018 220.736 224.184 220.87 223.592 220.44C223 219.982 222.892 219.148 223.323 218.583C232.015 206.877 240.114 194.553 247.407 181.932C247.649 181.502 248.107 181.259 248.564 181.259Z" fill="#454745"/>
<path d="M245.901 151.094C246.116 151.094 246.359 151.148 246.547 151.255C247.193 151.632 247.408 152.439 247.058 153.058C235.891 173.025 223.216 192.346 209.331 210.537C208.9 211.102 208.066 211.21 207.474 210.779C206.909 210.322 206.801 209.488 207.232 208.923C221.037 190.839 233.657 171.626 244.744 151.767C244.986 151.336 245.444 151.094 245.901 151.094Z" fill="#454745"/>
<mask id="mask4_594_15320" style="mask-type:luminance" maskUnits="userSpaceOnUse" x="0" y="112" width="123" height="132">
<path d="M0 112.29H122.869V243.178H0V112.29Z" fill="white"/>
</mask>
<g mask="url(#mask4_594_15320)">
<path d="M61.1389 118.667C94.8297 118.667 122.224 146.169 122.224 179.967C122.224 213.766 94.8297 241.241 61.1389 241.241C27.4481 241.241 0.0541992 213.766 0.0541992 179.967C0.0541992 146.169 27.4481 118.667 61.1389 118.667ZM61.1389 235.939C91.9235 235.939 116.949 210.833 116.949 179.967C116.949 149.102 91.9235 123.969 61.1389 123.969C30.3813 123.969 5.32847 149.102 5.32847 179.967C5.32847 210.833 30.3813 235.939 61.1389 235.939Z" fill="#703627"/>
</g>
<path d="M61.1394 130.4C88.3719 130.4 110.545 152.627 110.545 179.968C110.545 207.281 88.3719 229.508 61.1394 229.508C33.9069 229.508 11.7334 207.281 11.7334 179.968C11.7334 152.627 33.9069 130.4 61.1394 130.4ZM61.1394 224.207C85.4656 224.207 105.244 204.375 105.244 179.968C105.244 155.561 85.4656 135.701 61.1394 135.701C36.8131 135.701 17.0346 155.561 17.0346 179.968C17.0346 204.375 36.8131 224.207 61.1394 224.207Z" fill="#703627"/>
<path d="M91.8429 181.259C92.085 181.259 92.3003 181.313 92.5156 181.448C93.1345 181.798 93.3767 182.605 93 183.251C85.6537 195.979 77.5 208.384 68.7275 220.171C68.297 220.736 67.4628 220.87 66.8977 220.44C66.3057 219.982 66.198 219.148 66.6286 218.583C75.3204 206.877 83.4202 194.553 90.7126 181.932C90.9548 181.502 91.4123 181.259 91.8429 181.259Z" fill="#454745"/>
<path d="M89.2062 151.094C89.4215 151.094 89.6368 151.148 89.8521 151.255C90.4979 151.632 90.7132 152.439 90.3633 153.058C79.1959 173.025 66.4946 192.346 52.6361 210.537C52.2056 211.102 51.3714 211.21 50.7794 210.779C50.2143 210.322 50.1066 209.488 50.5372 208.923C64.3149 190.839 76.9355 171.626 88.0491 151.767C88.2913 151.336 88.7488 151.094 89.2062 151.094Z" fill="#454745"/>
<path d="M165.388 204.832C166.222 204.832 167.03 205.209 167.541 205.935C168.402 207.119 168.133 208.761 166.949 209.622C150.48 221.489 127.176 223.534 108.959 214.681C107.64 214.035 107.102 212.448 107.721 211.129C108.367 209.81 109.927 209.245 111.246 209.891C127.795 217.937 148.946 216.08 163.854 205.317C164.312 204.994 164.85 204.832 165.388 204.832Z" fill="#703627"/>
<path d="M166.976 148.43C167.81 148.43 168.671 148.86 169.182 149.614C169.989 150.852 169.64 152.493 168.429 153.3C152.633 163.768 131.805 165.948 114.044 159.032C112.672 158.494 111.999 156.96 112.537 155.588C113.076 154.215 114.61 153.543 115.955 154.081C132.155 160.405 151.153 158.413 165.522 148.887C165.953 148.564 166.464 148.43 166.976 148.43Z" fill="#703627"/>
<path d="M55.811 86.9415C56.0263 96.925 59.7667 106.774 66.1712 114.389C68.2433 116.865 70.7189 119.179 73.7866 120.094C77.85 121.305 82.3708 119.825 85.6537 117.134C88.9636 114.443 91.224 110.73 93.1884 106.935C99.27 95.0951 102.876 81.9633 103.656 68.643C103.71 67.4859 103.737 66.2481 103.091 65.2793C102.392 64.2568 101.046 63.7993 99.8082 63.88C98.5703 63.9339 97.4132 64.4182 96.2561 64.8757C92.2735 66.5441 80.3526 89.1481 76.8005 91.6238C60.6279 102.953 69.4542 95.3373 55.811 86.9415Z" fill="#DDA783"/>
<path d="M59.2549 105.563C70.7991 100.369 83.4466 97.3551 96.0941 96.79C95.0984 101.607 94.0759 106.531 91.5195 110.918C88.963 115.277 84.6037 119.125 79.3025 119.986C74.8086 120.713 70.234 119.206 66.7627 116.676C63.2644 114.147 60.7618 110.702 59.2549 105.563Z" fill="#B27966"/>
<path d="M102.984 66.3824C103.091 66.3824 103.199 66.3824 103.307 66.4093C104.733 66.5708 105.782 67.8894 105.594 69.3425C103.899 83.2278 100.185 96.7364 94.5611 109.518C92.5697 114.012 90.1748 118.533 85.8693 121.143C78.1193 125.879 68.3511 122.058 63.0769 116.058C57.7757 110.03 55.7036 102.172 53.8738 95.2295C53.4971 93.8302 54.3582 92.3771 55.7575 92.0004C57.1568 91.6236 58.6099 92.4578 58.9866 93.884C60.655 100.262 62.5656 107.473 67.0326 112.559C70.9345 116.999 78.0386 119.744 83.1245 116.623C86.3267 114.685 88.2104 110.837 89.7173 107.393C95.1262 95.068 98.7051 82.0438 100.347 68.6967C100.508 67.3512 101.665 66.3824 102.984 66.3824Z" fill="#703627"/>
<path d="M190.925 62.0502C191.759 70.1769 190.387 78.3574 189.714 86.4841C189.041 94.6377 189.095 103.141 192.567 110.541C194.369 114.443 197.303 118.049 201.393 119.341C204.326 120.282 207.555 119.906 210.515 119.045C216.516 117.296 221.925 113.609 225.746 108.658C230.105 103.007 221.521 100.235 219.046 93.5613C217.296 88.7714 224.212 80.1334 220.23 76.9043C211.618 69.9347 201.931 64.2568 190.925 62.0502Z" fill="#DDA783"/>
<path d="M223.7 111.16C213.905 103.114 202.468 96.898 190.413 93.0499C190.117 97.9744 189.821 103.006 191.139 107.904C192.485 112.775 195.714 117.645 200.584 119.852C204.755 121.736 209.572 121.466 213.582 119.933C217.591 118.399 220.901 115.735 223.7 111.16Z" fill="#B27966"/>
<path d="M191.167 61.1885C191.275 61.1885 191.409 61.2154 191.544 61.2154C192.97 61.4307 193.992 62.7761 193.777 64.2293C191.894 77.5495 191.974 91.0312 194.019 104.351C194.584 108.065 195.419 112.263 197.975 114.981C202.092 119.313 209.654 118.533 214.578 115.25C220.202 111.509 223.916 105.024 227.199 99.3193C227.899 98.0546 229.54 97.624 230.805 98.3506C232.07 99.0771 232.5 100.692 231.774 101.956C228.221 108.199 224.185 115.223 217.485 119.663C210.838 124.076 200.397 125.233 194.154 118.64C190.71 114.981 189.525 110.002 188.799 105.132C186.673 91.3272 186.592 77.3073 188.557 63.4758C188.745 62.1572 189.875 61.1885 191.167 61.1885Z" fill="#703627"/>
</svg>
