<svg width="82" height="93" viewBox="0 0 82 93" fill="none" xmlns="http://www.w3.org/2000/svg">
<path d="M1.39662 22.4167C0.905852 23.2565 1.02037 24.3089 1.48932 25.2141C1.95282 26.1248 2.73805 26.91 3.58325 27.6134C7.3567 30.7816 12.4443 32.641 17.5483 33.4045C22.6522 34.1624 27.8053 33.8898 32.8111 33.2899C29.8338 29.0257 24.5281 26.1029 19.0206 24.5161C13.5185 22.9239 7.74931 22.504 1.39662 22.4167Z" fill="#C9C493"/>
<mask id="mask0_594_11575" style="mask-type:luminance" maskUnits="userSpaceOnUse" x="0" y="20" width="31" height="15">
<path d="M0 20.9393H30.2966V34.8989H0V20.9393Z" fill="white"/>
</mask>
<g mask="url(#mask0_594_11575)">
<path d="M23.2189 34.4246C21.3213 34.4246 19.3364 34.3155 17.2697 34.0047C11.615 33.1649 6.53831 31.0546 2.98298 28.0719C1.9142 27.1776 0.0874604 25.2091 0.0220249 23.5077C0.00021307 22.8588 0.223784 22.2863 0.670927 21.85C0.927216 21.5992 1.34164 21.5992 1.59793 21.8555C1.84877 22.1118 1.84331 22.5262 1.58702 22.7771C1.40162 22.957 1.31983 23.1751 1.33073 23.4587C1.37436 24.6092 2.88483 26.2888 3.82274 27.0794C7.19812 29.9095 12.0458 31.9162 17.466 32.7232C21.4358 33.3122 25.1111 33.1486 28.4919 32.8868C28.8464 32.8596 29.1626 33.1268 29.1899 33.4867C29.2226 33.8411 28.95 34.1574 28.5901 34.1846C26.8778 34.3155 25.0893 34.4246 23.2189 34.4246Z" fill="#703627"/>
</g>
<mask id="mask1_594_11575" style="mask-type:luminance" maskUnits="userSpaceOnUse" x="10" y="18" width="54" height="75">
<path d="M10.753 18.1471H63.7993V92.9998H10.753V18.1471Z" fill="white"/>
</mask>
<g mask="url(#mask1_594_11575)">
<path d="M24.2282 24.1726C23.3339 22.6512 20.9292 21.2771 19.157 21.1735C17.3847 21.0644 15.8961 21.6097 14.86 23.0438C13.8294 24.478 14.6146 27.0081 15.3399 28.6222C15.8034 29.6528 17.3193 29.4783 18.1482 30.4053C15.8143 34.1733 13.704 39.5336 13.3877 43.9014C13.3768 48.9672 14.5928 54.033 17.1012 58.5917C14.6419 62.6596 12.7007 67.0383 11.332 71.477C10.5249 74.9887 10.9666 78.7458 12.3789 82.0612C13.4041 84.4714 15.0018 86.7289 17.2866 88.0267C18.5135 88.7247 19.8876 89.1173 21.2454 89.5045C22.0579 89.7335 22.8813 89.968 23.7265 90.0007C24.5717 90.0389 25.4551 89.8535 26.2785 89.4063C26.8674 90.606 27.8108 91.7075 29.0868 92.1437C30.3573 92.5745 31.9714 92.1655 32.6148 90.9931C32.8439 90.5787 32.9693 90.0716 33.3619 89.8098C33.64 89.6244 33.9944 89.6026 34.3271 89.5917C36.0775 89.5208 37.8333 89.4445 39.5837 89.3736C39.7637 89.3681 39.9491 89.3572 40.1181 89.4172C40.4289 89.5208 40.6361 89.8153 40.8161 90.0879C41.2305 90.6987 41.6613 91.3094 42.2393 91.7674C42.8173 92.2309 43.5589 92.5309 44.2896 92.4382C45.0858 92.3346 45.7456 91.7947 46.3018 91.2222C46.9997 90.5078 47.6105 89.7008 48.1667 88.8392C48.1503 89.2809 48.5757 89.6135 48.9846 89.788C50.4733 90.4042 52.1692 89.9298 53.6905 89.4118C54.9283 88.9864 56.1662 88.5338 57.2677 87.8413C59.5579 86.4017 61.1229 84.0024 61.9354 81.4395C63.4677 77.7261 63.6422 73.5164 62.6824 69.6121C61.7227 65.7132 59.6561 62.1252 57.1641 58.9788C60.8939 50.2377 60.8557 39.3427 57.0877 30.6671C58.9035 29.7292 61.4119 27.3244 61.2483 25.2959C61.0847 23.262 59.3561 21.6424 57.4094 21.0044C55.4627 20.3664 52.7472 22.4549 51.4603 23.9163C50.2661 22.4986 46.9016 21.0263 45.1239 20.4591C38.0787 18.218 30.4228 19.1941 24.2282 24.1726Z" fill="#DDA783"/>
</g>
<path d="M39.6718 85.8075C38.4667 85.2895 37.098 85.1477 35.8111 85.4149C35.4785 85.4858 35.135 85.5894 34.895 85.8239C34.6006 86.1129 34.5024 86.5328 34.4206 86.9363C34.2789 87.6125 34.1371 88.2941 33.9898 88.9757C33.9626 89.112 33.9353 89.2756 34.0171 89.3901C34.1098 89.5265 34.2952 89.5483 34.4588 89.5537C36.0783 89.6192 37.6979 89.5483 39.3065 89.3411C39.5137 89.3138 39.7427 89.2756 39.8845 89.1175C40.1517 88.8285 39.9499 88.3704 39.7918 88.0105C39.3937 87.1381 39.2901 86.1402 39.6718 85.8075Z" fill="#FFDCC4"/>
<path d="M54.34 49.949C53.6857 48.9456 53.1404 48.4821 52.3224 48.3567C51.5045 48.2258 50.1467 48.6566 49.6941 49.8181C49.536 50.2216 49.765 49.9163 49.9286 50.4397C50.4848 49.7309 51.1282 49.5564 51.9353 49.4855C52.9059 49.4037 53.3748 49.5945 54.34 49.949Z" fill="#703627"/>
<path d="M50.2667 49.1145C49.536 49.6653 49.2688 50.7177 49.6015 51.612C49.8796 52.359 50.6594 52.8552 51.4228 52.8552C52.2407 52.8552 53.0259 52.31 53.3258 51.5302C53.6312 50.7559 53.4349 49.7852 52.8569 49.1745C52.2734 48.5638 51.2592 48.3675 50.2667 49.1145Z" fill="#703627"/>
<path d="M57.0873 53.0625C57.0873 53.2915 57.0436 53.515 56.9509 53.7277C56.8637 53.9458 56.7383 54.1312 56.5692 54.2948C56.4056 54.4584 56.2148 54.5838 56.0021 54.6765C55.7895 54.7638 55.5604 54.8074 55.3314 54.8074C55.0969 54.8074 54.8734 54.7638 54.6552 54.6765C54.4426 54.5838 54.2517 54.4584 54.0881 54.2948C53.9245 54.1312 53.7937 53.9458 53.7064 53.7277C53.6192 53.515 53.5756 53.2915 53.5756 53.0625C53.5756 52.828 53.6192 52.6044 53.7064 52.3917C53.7937 52.1791 53.9245 51.9882 54.0881 51.8246C54.2517 51.661 54.4426 51.5356 54.6552 51.4484C54.8734 51.3611 55.0969 51.3175 55.3314 51.3175C55.5604 51.3175 55.7895 51.3611 56.0021 51.4484C56.2148 51.5356 56.4056 51.661 56.5692 51.8246C56.7383 51.9882 56.8637 52.1791 56.9509 52.3917C57.0436 52.6044 57.0873 52.828 57.0873 53.0625Z" fill="#DD917A"/>
<path d="M20.8962 50.5597C21.5451 49.5564 22.0959 49.0929 22.9138 48.962C23.7318 48.8311 25.0841 49.2674 25.5422 50.4288C25.7003 50.8269 25.4658 50.5215 25.3077 51.0505C24.7515 50.3416 24.108 50.1616 23.2955 50.0962C22.3249 50.009 21.8614 50.1998 20.8962 50.5597Z" fill="#703627"/>
<path d="M24.9644 49.72C25.7006 50.2762 25.9678 51.3231 25.6351 52.2174C25.357 52.9645 24.5773 53.4607 23.8084 53.4607C22.9905 53.4607 22.2107 52.9154 21.9053 52.1411C21.6054 51.3613 21.7963 50.3907 22.3797 49.7854C22.9577 49.1747 23.9774 48.9729 24.9644 49.72Z" fill="#703627"/>
<path d="M21.659 53.6677C21.659 53.9022 21.6153 54.1257 21.5281 54.3384C21.4354 54.5511 21.31 54.7419 21.1464 54.9055C20.9828 55.0691 20.7919 55.1945 20.5738 55.2818C20.3611 55.369 20.1376 55.4181 19.9031 55.4181C19.6686 55.4181 19.445 55.369 19.2324 55.2818C19.0143 55.1945 18.8234 55.0691 18.6598 54.9055C18.4962 54.7419 18.3708 54.5511 18.2781 54.3384C18.1909 54.1257 18.1472 53.9022 18.1472 53.6677C18.1472 53.4387 18.1909 53.2151 18.2781 53.0024C18.3708 52.7843 18.4962 52.5989 18.6598 52.4353C18.8234 52.2717 19.0143 52.1463 19.2324 52.0536C19.445 51.9664 19.6686 51.9227 19.9031 51.9227C20.1376 51.9227 20.3611 51.9664 20.5738 52.0536C20.7919 52.1463 20.9828 52.2717 21.1464 52.4353C21.31 52.5989 21.4354 52.7843 21.5281 53.0024C21.6153 53.2151 21.659 53.4387 21.659 53.6677Z" fill="#DD917A"/>
<path d="M38.3729 71.09C37.3587 71.09 36.3281 71.0191 35.2865 70.8882C26.6545 69.7813 18.7423 64.0011 15.1215 56.1543C11.6316 48.5911 12.6513 37.8597 17.5917 30.0619C17.788 29.7566 18.1915 29.6639 18.4969 29.8547C18.8023 30.0456 18.8895 30.4491 18.6986 30.7545C13.9764 38.2032 12.9949 48.4275 16.3103 55.6145C19.7456 63.0632 27.2598 68.5489 35.4501 69.6013C39.1418 70.0703 42.6807 69.6559 45.6799 68.3962C48.7063 67.1257 51.2691 65.3862 53.7502 62.9215C59.3341 57.3703 61.7606 42.3638 56.5203 31.3379C56.3622 31.0162 56.504 30.629 56.8312 30.4764C57.1583 30.3182 57.5455 30.46 57.6982 30.7817C63.162 42.2766 60.561 57.9865 54.6718 63.8376C52.1035 66.3895 49.3279 68.2763 46.187 69.5904C43.8259 70.5829 41.1703 71.09 38.3729 71.09Z" fill="#703627"/>
<path d="M23.9822 24.9961C23.7805 24.9961 23.5787 24.8979 23.4478 24.7234C23.2406 24.429 23.3115 24.0254 23.606 23.8182C32.6742 17.4219 42.1678 17.2747 51.8086 23.3711C52.114 23.5619 52.2067 23.9655 52.0104 24.2654C51.8196 24.5707 51.416 24.658 51.1107 24.4671C41.9552 18.6815 32.9578 18.8179 24.3585 24.8761C24.244 24.9579 24.1131 24.9961 23.9822 24.9961Z" fill="#703627"/>
<path d="M24.0151 90.4208C19.7945 90.4208 15.3285 88.2778 13.1091 84.9624C10.6553 81.3035 9.82101 76.2813 10.8134 71.1883C11.795 66.1716 14.3033 61.6947 16.3809 58.352C16.5718 58.0466 16.9753 57.9539 17.2807 58.1393C17.586 58.3302 17.6842 58.7283 17.4933 59.0336C15.4757 62.2836 13.0383 66.6296 12.1003 71.4337C11.1679 76.1995 11.9313 80.8673 14.1943 84.2426C16.5772 87.7925 21.8339 89.8374 26.169 88.8995C26.5234 88.8231 26.8724 89.0413 26.9487 89.3957C27.0251 89.7447 26.8015 90.0937 26.4525 90.17C25.6618 90.3391 24.8439 90.4208 24.0151 90.4208Z" fill="#703627"/>
<path d="M50.1138 90.4208C49.2849 90.4208 48.4725 90.339 47.6818 90.17C47.3273 90.0936 47.1038 89.7446 47.1801 89.3957C47.2564 89.0467 47.6054 88.8231 47.9599 88.8994C52.295 89.8373 57.5571 87.7925 59.9346 84.2426C62.1975 80.8672 62.961 76.1995 62.034 71.4336C61.1669 67.0222 58.9748 63.2378 56.6083 59.4262C56.4174 59.1208 56.5156 58.7228 56.8209 58.5319C57.1263 58.3465 57.5298 58.4392 57.7207 58.7446C60.1527 62.6598 62.4102 66.5587 63.3154 71.1882C64.3133 76.2813 63.4735 81.3035 61.0252 84.9624C58.8004 88.2778 54.3398 90.4208 50.1138 90.4208Z" fill="#703627"/>
<path d="M34.0215 90.2571C33.6725 90.2571 33.378 89.9736 33.3726 89.6191C33.3617 89.2592 33.6452 88.9648 34.0106 88.9538L40.0361 88.8121C40.4014 88.8012 40.6959 89.0847 40.7068 89.4446C40.7177 89.8045 40.4287 90.1044 40.0688 90.1099L34.0378 90.2517C34.0324 90.2571 34.0269 90.2571 34.0215 90.2571Z" fill="#703627"/>
<path d="M20.6126 31.7143C20.5745 31.7143 20.5417 31.7089 20.5036 31.7034C18.3824 31.3599 16.692 30.6346 15.4705 29.5495C13.9 28.1536 13.1584 26.0923 13.5783 24.2983C13.9818 22.5588 15.5032 21.0865 17.3627 20.6448C19.0422 20.2468 20.9562 20.6612 22.4721 21.7572C23.7972 22.7115 24.855 24.1947 25.4549 25.9342C25.5694 26.2723 25.384 26.6431 25.0459 26.7576C24.7023 26.8721 24.3315 26.6922 24.217 26.3541C23.7045 24.8654 22.8156 23.6058 21.7032 22.8097C20.4927 21.9317 18.9822 21.5991 17.668 21.9099C16.2775 22.2426 15.1488 23.3222 14.8489 24.5928C14.538 25.9342 15.1215 27.4992 16.343 28.5789C17.3736 29.495 18.8459 30.1166 20.7162 30.422C21.0707 30.4765 21.3161 30.8146 21.2561 31.169C21.2016 31.4853 20.9234 31.7143 20.6126 31.7143Z" fill="#703627"/>
<path d="M22.6579 27.9354C22.3907 27.9354 22.1399 27.7718 22.0417 27.5046C21.4037 25.7269 19.5443 24.4727 17.6684 24.4564C17.3031 24.4618 17.0086 24.1728 17.0086 23.8129C17.0086 23.453 17.2976 23.1586 17.6575 23.1586C20.1114 23.1531 22.4507 24.789 23.2741 27.0629C23.394 27.401 23.2196 27.7772 22.876 27.8972C22.8051 27.9245 22.7288 27.9354 22.6579 27.9354Z" fill="#703627"/>
<path d="M54.923 31.6105C54.6231 31.6105 54.3505 31.4033 54.285 31.1033C54.2032 30.7544 54.4268 30.4054 54.7758 30.3236C56.6243 29.9091 58.0585 29.2003 59.0291 28.2242C60.1797 27.0682 60.6704 25.4704 60.2724 24.1563C59.8961 22.8966 58.7019 21.8933 57.2951 21.6479C55.9645 21.4134 54.4759 21.8388 53.3198 22.7876C52.262 23.6491 51.4495 24.9633 51.0351 26.4792C50.9369 26.8228 50.5825 27.0245 50.2335 26.9318C49.8845 26.8391 49.6773 26.4792 49.7754 26.1357C50.2607 24.3635 51.2259 22.8148 52.491 21.7842C53.936 20.6009 55.8173 20.072 57.5241 20.3665C59.4053 20.6936 61.014 22.0678 61.5265 23.7855C62.0555 25.5468 61.4393 27.6516 59.9615 29.1348C58.8055 30.2908 57.1587 31.1197 55.0648 31.5941C55.0157 31.605 54.9666 31.6105 54.923 31.6105Z" fill="#703627"/>
<path d="M52.6486 27.9626C52.5887 27.9626 52.5232 27.9571 52.4632 27.9353C52.1197 27.8372 51.918 27.4773 52.0161 27.1337C52.6977 24.8108 54.9498 23.0276 57.3818 22.8913C57.7417 22.875 58.0471 23.1476 58.0689 23.5021C58.0907 23.8619 57.8126 24.1673 57.4527 24.1891C55.5605 24.2927 53.8047 25.6832 53.2757 27.4936C53.1885 27.7772 52.9322 27.9626 52.6486 27.9626Z" fill="#703627"/>
<path d="M38.6781 48.351C37.2004 48.2965 35.7008 48.351 34.2831 48.7491C32.8598 49.1526 31.5075 49.9215 30.6187 51.0993C29.5935 52.4625 29.2827 54.2184 29.1355 55.9143C28.9828 57.741 28.9882 59.5896 29.2827 61.3999C29.4572 62.4469 29.7408 63.5211 30.4278 64.3336C31.5675 65.686 33.4924 66.0077 35.2482 66.2367C36.9277 66.4603 38.6291 66.6839 40.314 66.4766C41.9935 66.2694 43.684 65.5878 44.7527 64.2791C45.4889 63.3794 45.887 62.2451 46.116 61.1055C46.6122 58.6789 46.4159 56.1651 45.9415 53.7331C45.7016 52.5116 45.3689 51.252 44.5292 50.325C43.2968 48.9672 41.3174 48.4383 38.6781 48.351Z" fill="#B27966"/>
<path d="M40.9958 52.2719C40.7014 52.6427 40.5323 53.1171 40.5323 53.5915C40.5269 53.7879 40.5759 54.0169 40.7559 54.0932C40.9304 54.1696 41.1267 54.0605 41.2848 53.9569C41.6284 53.7333 41.9774 53.4988 42.2391 53.188C42.4845 52.899 42.6481 52.4791 42.4736 52.1411C42.3427 51.8848 42.0264 51.7484 41.7374 51.7812C41.4484 51.8084 41.2139 51.9993 40.9958 52.2719Z" fill="#703627"/>
<path d="M35.0901 52.2719C35.3846 52.6427 35.5536 53.1171 35.5591 53.5915C35.5591 53.7879 35.51 54.0169 35.3301 54.0932C35.1556 54.1696 34.9593 54.0605 34.8011 53.9569C34.4576 53.7333 34.114 53.4988 33.8469 53.188C33.6015 52.899 33.4379 52.4791 33.6124 52.1411C33.7487 51.8848 34.0595 51.7484 34.3485 51.7812C34.6375 51.8084 34.872 51.9993 35.0901 52.2719Z" fill="#703627"/>
<path d="M40.0795 62.9923C39.1306 62.9923 38.1927 62.3815 37.6583 61.3945C37.6202 61.3237 37.5984 61.2419 37.5984 61.1655L37.5929 60.4185C37.5875 58.9516 37.5765 57.4957 37.5602 56.1979C37.5547 55.9307 37.7729 55.7071 38.04 55.7017C38.3182 55.7071 38.5363 55.9143 38.5417 56.1815C38.5581 57.4793 38.569 58.9407 38.5744 60.413L38.5799 61.0292C38.9671 61.6672 39.5941 62.0598 40.1776 62.0107C40.7883 61.9617 41.3827 61.4218 41.6554 60.6693C41.7426 60.413 42.0262 60.2821 42.277 60.3748C42.5333 60.4621 42.6696 60.7456 42.5769 60.9965C42.1734 62.1198 41.2627 62.8996 40.2539 62.9814C40.194 62.9868 40.1394 62.9923 40.0795 62.9923Z" fill="#703627"/>
<path d="M36.1644 62.8179C36.039 62.8179 35.9135 62.807 35.7881 62.7852C34.8011 62.6161 33.9069 61.7709 33.5088 60.6313C33.4215 60.3804 33.5579 60.1023 33.8142 60.0151C34.065 59.9224 34.3485 60.0587 34.4358 60.315C34.7139 61.1111 35.3246 61.7164 35.9572 61.8255C36.5624 61.9291 37.195 61.5746 37.5712 60.9148C37.7021 60.6803 38.002 60.5985 38.2365 60.7349C38.4764 60.8657 38.5582 61.1657 38.4219 61.4001C37.9148 62.289 37.0587 62.8179 36.1644 62.8179Z" fill="#703627"/>
<mask id="mask2_594_11575" style="mask-type:luminance" maskUnits="userSpaceOnUse" x="38" y="86" width="12" height="7">
<path d="M38.6726 86.5492H49.8403V93H38.6726V86.5492Z" fill="white"/>
</mask>
<g mask="url(#mask2_594_11575)">
<path d="M39.6542 87.6124C42.7188 86.9799 45.936 86.9363 49.0224 87.4761C48.5207 88.5776 48.0136 89.7009 47.1575 90.6116C46.3068 91.5222 45.0472 92.2093 43.7221 92.1329C42.5988 92.0675 41.5736 91.4622 40.8702 90.6716C40.1613 89.8809 39.7415 88.9157 39.6542 87.6124Z" fill="#B27966"/>
</g>
<mask id="mask3_594_11575" style="mask-type:luminance" maskUnits="userSpaceOnUse" x="24" y="86" width="12" height="7">
<path d="M24.7133 86.5492H35.8809V93H24.7133V86.5492Z" fill="white"/>
</mask>
<g mask="url(#mask3_594_11575)">
<path d="M34.5011 87.7708C31.4365 87.1382 28.2247 87.0946 25.1383 87.6344C25.6346 88.7359 26.1471 89.8593 26.9978 90.7699C27.8485 91.6805 29.1135 92.3676 30.4332 92.2913C31.5619 92.2258 32.5816 91.6206 33.2905 90.8299C33.9939 90.0392 34.4138 89.074 34.5011 87.7708Z" fill="#B27966"/>
</g>
<mask id="mask4_594_11575" style="mask-type:luminance" maskUnits="userSpaceOnUse" x="38" y="79" width="17" height="14">
<path d="M38.6726 79.5692H54.0282V92.9998H38.6726V79.5692Z" fill="white"/>
</mask>
<g mask="url(#mask4_594_11575)">
<path d="M44.0977 92.9508C42.3855 92.9508 40.7932 91.7293 40.0134 90.3279C39.0592 88.5993 38.9774 86.609 38.9065 84.8477C38.8956 84.4932 39.1737 84.1879 39.539 84.177C39.8935 84.1606 40.1988 84.4387 40.2152 84.7986C40.2806 86.4127 40.3515 88.2394 41.1586 89.6953C41.862 90.9713 43.427 92.0019 44.823 91.533C45.7009 91.2385 46.3607 90.4151 46.9114 89.6735C48.88 87.0179 50.4395 84.0952 51.5519 80.987C51.6719 80.6489 52.0481 80.4744 52.3862 80.5944C52.7297 80.7143 52.9042 81.0851 52.7843 81.4232C51.6282 84.6514 50.0087 87.6832 47.9639 90.4424C47.2495 91.413 46.4207 92.3673 45.2483 92.7599C44.8611 92.8908 44.4794 92.9508 44.0977 92.9508Z" fill="#703627"/>
</g>
<mask id="mask5_594_11575" style="mask-type:luminance" maskUnits="userSpaceOnUse" x="20" y="79" width="16" height="14">
<path d="M20.5254 79.5692H35.8809V92.9998H20.5254V79.5692Z" fill="white"/>
</mask>
<g mask="url(#mask5_594_11575)">
<path d="M30.0304 92.9506C29.6541 92.9506 29.267 92.8907 28.8853 92.7598C27.7074 92.3672 26.884 91.4129 26.1642 90.4423C24.1248 87.6831 22.4998 84.6512 21.3438 81.4231C21.2239 81.085 21.4038 80.7142 21.7419 80.5942C22.08 80.4743 22.4562 80.6488 22.5762 80.9869C23.6886 84.095 25.2536 87.0178 27.2167 89.6734C27.7674 90.415 28.4272 91.2384 29.3051 91.5329C30.7011 92.0018 32.2661 90.9712 32.9695 89.6952C33.782 88.2393 33.8529 86.4125 33.9129 84.7985C33.9292 84.4386 34.2292 84.1605 34.5945 84.1768C34.9544 84.1877 35.2325 84.4931 35.2216 84.8475C35.1507 86.6089 35.0744 88.5992 34.1146 90.3278C33.3349 91.7292 31.7481 92.9506 30.0304 92.9506Z" fill="#703627"/>
</g>
<path d="M16.0971 71.0192C16.0971 71.0192 16.0916 71.0192 16.0862 71.0192C15.7208 71.0083 15.4373 70.7084 15.4482 70.3539L15.5245 67.0167C15.5354 66.6568 15.8299 66.3678 16.1952 66.3787C16.5551 66.3896 16.8387 66.6895 16.8332 67.044L16.7514 70.3812C16.746 70.7356 16.4515 71.0192 16.0971 71.0192Z" fill="#C48C71"/>
<path d="M18.6545 77.0556C18.3001 77.0556 18.0111 76.772 18.0002 76.4176L17.9239 73.004C17.9129 72.6441 18.202 72.3497 18.5618 72.3388C18.9163 72.317 19.2217 72.6169 19.2326 72.9713L19.3089 76.3903C19.3198 76.7502 19.0308 77.0447 18.6709 77.0556C18.6655 77.0556 18.66 77.0556 18.6545 77.0556Z" fill="#C48C71"/>
<path d="M53.3521 25.7324C53.0141 26.3049 52.6705 26.9048 52.616 27.5646C52.5615 28.2244 52.8941 28.966 53.5321 29.1623C53.9683 29.2986 54.4482 29.1514 54.8735 28.9714C55.9314 28.5188 56.8966 27.8481 57.6872 27.0084C58.118 26.5558 58.4997 26.0323 58.6361 25.4215C58.7724 24.8108 58.6033 24.1074 58.0962 23.7366C57.4255 23.2513 56.4821 23.5076 55.7133 23.8238C54.7263 24.2219 53.9083 24.789 53.3521 25.7324Z" fill="#FFDCC4"/>
<path d="M14.5001 80.6273C14.1566 80.6273 13.8676 80.3601 13.8512 80.0111L13.6876 76.7557C13.6713 76.3958 13.9494 76.0904 14.3093 76.0741C14.6692 76.0577 14.98 76.3304 14.9963 76.6902L15.1545 79.9457C15.1708 80.3056 14.8927 80.6109 14.5328 80.6273C14.5219 80.6273 14.511 80.6273 14.5001 80.6273Z" fill="#C48C71"/>
<path d="M18.4151 85.6329C18.0989 85.6329 17.8208 85.3985 17.7717 85.0767L17.3736 82.3775C17.3191 82.0231 17.5645 81.6905 17.9244 81.6414C18.2788 81.5868 18.6114 81.8322 18.666 82.1867L19.064 84.8859C19.1186 85.2458 18.8677 85.573 18.5133 85.6275C18.4806 85.6329 18.4478 85.6329 18.4151 85.6329Z" fill="#C48C71"/>
<path d="M53.2545 76.9737C53.2491 76.9737 53.2436 76.9737 53.2382 76.9737C52.8783 76.9682 52.5947 76.6683 52.6002 76.3084L52.682 72.8949C52.6929 72.535 52.9928 72.246 53.3527 72.2569C53.7126 72.2678 53.9961 72.5677 53.9907 72.9222L53.9089 76.3412C53.898 76.6956 53.609 76.9737 53.2545 76.9737Z" fill="#C48C71"/>
<path d="M56.1334 70.4628C55.7898 70.4628 55.5008 70.1956 55.479 69.8466L55.3209 67.1474C55.2991 66.7875 55.5717 66.4821 55.9316 66.4603C56.2915 66.4385 56.6023 66.7112 56.6242 67.0711L56.7823 69.7703C56.8041 70.1302 56.5315 70.441 56.1716 70.4573C56.1552 70.4628 56.1443 70.4628 56.1334 70.4628Z" fill="#C48C71"/>
<path d="M58.3693 76.8976C58.0148 76.8976 57.7258 76.6141 57.7149 76.2651L57.6331 73.4023C57.6277 73.0478 57.9112 72.7479 58.2711 72.737C58.6419 72.7261 58.9309 73.0096 58.9418 73.3695L59.0236 76.2269C59.0345 76.5868 58.7455 76.8867 58.3856 76.8922C58.3802 76.8976 58.3747 76.8976 58.3693 76.8976Z" fill="#C48C71"/>
<path d="M56.1329 85.0767C56.1002 85.0767 56.0675 85.0767 56.0347 85.0712C55.6803 85.0167 55.4349 84.6895 55.484 84.3351L56.122 79.9618C56.1765 79.6074 56.5037 79.362 56.8636 79.4165C57.2235 79.4656 57.4689 79.7982 57.4198 80.1527L56.7763 84.5205C56.7327 84.8422 56.4492 85.0767 56.1329 85.0767Z" fill="#C48C71"/>
<path d="M37.1676 28.1481H37.1621C36.7968 28.1427 36.5077 27.8482 36.5132 27.4883L36.5786 23.066C36.5786 22.7115 36.8731 22.428 37.2384 22.428C37.5983 22.4334 37.8873 22.7279 37.8819 23.0878L37.8219 27.5047C37.8165 27.8646 37.5274 28.1481 37.1676 28.1481Z" fill="#C48C71"/>
<path d="M44.2619 28.8786C44.251 28.8786 44.2455 28.8786 44.2401 28.8731C43.8802 28.8677 43.5966 28.5678 43.6075 28.2079L43.7002 24.7561C43.7111 24.4017 44.0001 24.1018 44.3764 24.129C44.7363 24.1345 45.0198 24.4344 45.0089 24.7943L44.9108 28.246C44.9053 28.595 44.6109 28.8786 44.2619 28.8786Z" fill="#C48C71"/>
<path d="M29.3538 29.8003C29.3265 29.8003 29.2993 29.8003 29.2775 29.7949C28.9176 29.7567 28.6613 29.435 28.6994 29.0751C28.8412 27.8536 28.8249 26.6212 28.6449 25.4052C28.5958 25.0508 28.8412 24.7182 29.2011 24.6691C29.561 24.62 29.8882 24.8654 29.9427 25.2198C30.1336 26.5449 30.1554 27.8918 30.0027 29.2223C29.9645 29.5549 29.681 29.8003 29.3538 29.8003Z" fill="#C48C71"/>
<path d="M32.8105 36.1202C32.7941 36.1202 32.7777 36.1202 32.7559 36.1202C32.396 36.0875 32.1288 35.7767 32.1616 35.4168C32.2761 34.0535 32.1561 32.6848 31.8126 31.3598C31.7253 31.0108 31.938 30.6563 32.287 30.5691C32.636 30.4764 32.9904 30.6891 33.0831 31.0381C33.4594 32.5049 33.5902 34.0154 33.4648 35.5258C33.4321 35.8639 33.1485 36.1202 32.8105 36.1202Z" fill="#C48C71"/>
<path d="M41.0773 35.384C40.7338 35.384 40.4448 35.1223 40.4229 34.7733L40.2321 31.5179C40.2103 31.1634 40.4829 30.8526 40.8428 30.8308C41.2027 30.809 41.5135 31.0816 41.5353 31.4415L41.7317 34.697C41.7535 35.0569 41.4754 35.3622 41.1155 35.384C41.1046 35.384 41.0882 35.384 41.0773 35.384Z" fill="#C48C71"/>
<path d="M37.8065 40.0517C37.463 40.0517 37.174 39.7845 37.1521 39.4409L36.9558 36.3328C36.934 35.9729 37.2067 35.6621 37.5666 35.6402C37.9265 35.6239 38.2373 35.8911 38.2591 36.251L38.4554 39.3592C38.4772 39.7191 38.2046 40.0244 37.8447 40.0462C37.8338 40.0462 37.8174 40.0517 37.8065 40.0517Z" fill="#C48C71"/>
<path d="M29.9538 53.8586C28.427 55.1945 26.4094 55.8871 24.3809 56.0725C22.3578 56.2579 20.3184 55.9852 18.3117 55.6362C16.8231 55.3745 15.2581 55.0255 14.1675 53.9894C13.1314 53.0025 12.6952 51.5574 12.4116 50.156C11.8718 47.5168 11.7136 44.7958 11.9481 42.1075C12.0354 41.1205 12.2044 40.0626 12.8915 39.3428C13.7912 38.3994 15.2526 38.334 16.5559 38.3286C19.2333 38.3177 21.9107 38.3067 24.479 38.4322C26.3439 38.3395 28.2143 38.3776 30.0792 38.5467C30.5372 38.5903 31.0226 38.6503 31.3988 38.9229C32.184 39.5064 33.0074 40.5097 32.9366 42.3201C32.9093 42.9472 32.7021 51.4593 29.9538 53.8586Z" fill="#703627" fill-opacity="0.502"/>
<path d="M69.3561 34.1407C68.4182 33.29 67.0114 33.2955 65.7408 33.35C60.6859 33.5736 55.6256 33.7917 50.5707 34.0098C48.2205 34.1134 45.7612 34.2443 43.7327 35.4385C42.7566 36.011 41.9496 36.8453 40.9735 37.4179C38.9504 38.6121 36.9165 38.6666 35.0189 37.4179C34.0701 36.7963 33.2358 36.011 32.2597 35.4385C30.2312 34.2443 27.7719 34.1134 25.4217 34.0098C20.3668 33.7917 15.3064 33.5736 10.2515 33.35C8.98646 33.2955 7.57414 33.29 6.64168 34.1407C5.58926 35.1004 5.58926 36.7145 5.67106 38.1322C5.73649 39.3973 5.82374 40.7169 6.48355 41.8021C6.87616 42.4455 7.44327 42.9635 7.83043 43.6015C8.49024 44.6758 8.5993 45.9899 8.70835 47.2441C8.86104 48.9182 9.0628 50.5977 9.59173 52.1899C10.1207 53.7877 11.0041 55.3036 12.3182 56.3506C13.5778 57.3594 15.121 58.0083 16.7078 58.3082C21.4846 59.197 28.8079 59.4315 32.0743 56.187C33.7047 54.562 34.5663 52.3099 34.9807 50.0578C35.1606 49.0927 35.2588 48.0893 35.7114 47.2223C36.6057 45.4992 39.0159 44.7739 40.281 47.2223C40.7336 48.0893 40.8317 49.0927 41.0117 50.0578C41.4261 52.3099 42.2877 54.562 43.9181 56.187C47.1844 59.4315 54.5132 59.197 59.2845 58.3082C60.8713 58.0083 62.4145 57.3594 63.6742 56.3506C64.9938 55.3036 65.8717 53.7877 66.4006 52.1899C66.9296 50.5977 67.1313 48.9182 67.284 47.2441C67.3985 45.9899 67.5021 44.6758 68.1619 43.6015C68.5491 42.9635 69.1217 42.4455 69.5088 41.8021C70.1686 40.7169 70.2559 39.3973 70.3268 38.1322C70.4031 36.7145 70.4031 35.1004 69.3561 34.1407ZM29.9531 53.8586C28.4262 55.1945 26.4087 55.8871 24.3802 56.0725C22.3571 56.2579 20.3177 55.9852 18.311 55.6362C16.8224 55.3745 15.2574 55.0255 14.1668 53.9894C13.1307 53.0024 12.6945 51.5574 12.4109 50.156C11.8711 47.5168 11.7129 44.7957 11.9474 42.1074C12.0347 41.1204 12.2037 40.0626 12.8908 39.3428C13.7905 38.3994 15.2519 38.334 16.5552 38.3285C19.2326 38.3176 21.91 38.3067 24.4783 38.4376C26.3432 38.3394 28.2136 38.3776 30.0785 38.5467C30.5365 38.5903 31.0219 38.6503 31.3981 38.9229C32.1833 39.5064 33.0067 40.5097 32.9358 42.3201C32.9086 42.9526 32.7014 51.4593 29.9531 53.8586ZM63.5815 50.156C63.2979 51.5574 62.8617 53.0024 61.8256 53.9894C60.735 55.0255 59.17 55.3745 57.6814 55.6362C55.6747 55.9852 53.6353 56.2579 51.6122 56.0725C49.5837 55.8871 47.5661 55.1945 46.0393 53.8586C43.291 51.4593 43.0838 42.9526 43.062 42.3201C42.9856 40.5097 43.809 39.5064 44.5943 38.9229C44.9705 38.6503 45.4558 38.5903 45.9139 38.5467C47.7788 38.3776 49.6491 38.3394 51.5195 38.4376C54.0824 38.3067 56.7598 38.3176 59.4372 38.3285C60.7459 38.334 62.2019 38.3994 63.1016 39.3428C63.7887 40.0626 63.9577 41.1204 64.045 42.1074C64.2794 44.7957 64.1267 47.5168 63.5815 50.156Z" fill="#FECA53"/>
<path d="M46.0395 53.8586C47.5663 55.1945 49.5839 55.8871 51.6124 56.0725C53.6355 56.2579 55.6749 55.9852 57.6816 55.6362C59.1702 55.3745 60.7352 55.0255 61.8258 53.9894C62.8619 53.0025 63.2981 51.5574 63.5817 50.156C64.1269 47.5168 64.2796 44.7958 64.0452 42.1075C63.9579 41.1205 63.7889 40.0626 63.1018 39.3428C62.2021 38.3994 60.7461 38.334 59.4374 38.3286C56.76 38.3177 54.0826 38.3067 51.5197 38.4322C49.6494 38.3395 47.779 38.3776 45.9141 38.5467C45.456 38.5903 44.9707 38.6503 44.5999 38.9229C43.8092 39.5064 42.9858 40.5097 43.0622 42.3201C43.084 42.9472 43.2912 51.4593 46.0395 53.8586Z" fill="#703627" fill-opacity="0.502"/>
<path d="M53.1887 59.5407C49.3225 59.5407 45.5927 58.7663 43.4551 56.6451C41.9174 55.1129 40.8759 52.9371 40.3688 50.1725C40.336 49.9925 40.3033 49.8126 40.2761 49.6326C40.1452 48.8638 40.0252 48.1385 39.698 47.5169C39.2891 46.7208 38.7274 46.2954 38.084 46.2954C37.3914 46.2954 36.6717 46.7862 36.2954 47.5169C35.9682 48.1385 35.8483 48.8638 35.7228 49.6272C35.6901 49.8126 35.6574 49.9925 35.6247 50.1725C35.1176 52.9371 34.0815 55.1129 32.5383 56.6451C29.2393 59.9224 22.1395 59.9823 16.5884 58.9463C14.8271 58.6137 13.2076 57.8939 11.9098 56.8578C10.612 55.8272 9.59773 54.284 8.97064 52.3973C8.39808 50.6741 8.20177 48.8638 8.05999 47.3042L8.04909 47.2115C7.94548 46.0555 7.84188 44.8613 7.27477 43.9397C7.10573 43.6616 6.88761 43.3999 6.65858 43.1218C6.40775 42.8164 6.14601 42.5002 5.92789 42.1403C5.16993 40.8915 5.08268 39.3811 5.01724 38.1651C4.93 36.5892 4.9409 34.8115 6.20054 33.6664C7.29658 32.663 8.81795 32.6412 10.2793 32.7012L25.4549 33.361C27.647 33.4592 30.3789 33.5791 32.5928 34.8769C33.1763 35.2205 33.7052 35.6294 34.2178 36.0275C34.6159 36.3329 34.9867 36.6164 35.3793 36.8782C37.0206 37.9524 38.7874 37.9469 40.6414 36.8618C41.094 36.5946 41.5084 36.2674 41.9501 35.9184C42.4027 35.5586 42.8771 35.1878 43.4006 34.8769C45.6145 33.5791 48.3464 33.4592 50.544 33.361L65.7141 32.7012C67.1755 32.6412 68.6969 32.663 69.7984 33.6664C71.0525 34.8115 71.0634 36.5892 70.9762 38.1651C70.9108 39.3811 70.829 40.8915 70.071 42.1403C69.8474 42.5002 69.5857 42.8164 69.3349 43.1218C69.1058 43.3999 68.8877 43.6616 68.7187 43.9397C68.157 44.8613 68.048 46.0555 67.9444 47.2115L67.9334 47.3042C67.7917 48.8638 67.5954 50.6741 67.0228 52.3973C66.3957 54.284 65.3815 55.8272 64.0837 56.8578C62.7859 57.8939 61.1663 58.6137 59.405 58.9463C57.4474 59.3116 55.299 59.5407 53.1887 59.5407ZM38.084 44.9976C38.7492 44.9976 39.998 45.2485 40.865 46.9225C41.2794 47.7241 41.4212 48.5857 41.563 49.42C41.5902 49.5945 41.6229 49.769 41.6557 49.938C42.1137 52.4355 43.0298 54.3822 44.3821 55.7236C47.3213 58.6464 54.1811 58.5973 59.1651 57.6648C60.7137 57.3758 62.1315 56.7487 63.2657 55.8436C64.3672 54.9711 65.2342 53.6351 65.7795 51.9883C66.3085 50.396 66.4993 48.6784 66.6302 47.1843L66.6411 47.097C66.7556 45.7883 66.881 44.4414 67.6008 43.2636C67.8189 42.9091 68.0752 42.5983 68.3261 42.2984C68.5605 42.0149 68.7787 41.7477 68.9477 41.4641C69.5366 40.4935 69.6075 39.2175 69.6729 38.0942C69.7438 36.8127 69.7493 35.3841 68.915 34.6206C68.1788 33.9554 66.9628 33.9499 65.7741 33.999L50.5985 34.6588C48.4446 34.757 46.0017 34.8606 44.0659 35.9948C43.6187 36.262 43.2043 36.5892 42.7626 36.9382C42.3046 37.298 41.8356 37.6688 41.3067 37.9797C39.0219 39.3211 36.7207 39.3156 34.6595 37.9633C34.2233 37.6743 33.8143 37.358 33.4162 37.0527C32.9146 36.6655 32.4402 36.3002 31.9276 35.9948C29.9918 34.8606 27.5489 34.757 25.3949 34.6588L10.2194 33.999C9.03607 33.9499 7.81461 33.9554 7.08391 34.6206C6.24416 35.3841 6.24961 36.8127 6.3205 38.0942C6.38594 39.2175 6.45682 40.4935 7.04574 41.4641C7.21479 41.7477 7.43836 42.0149 7.66738 42.2984C7.91822 42.5983 8.17451 42.9091 8.39262 43.2636C9.11241 44.4414 9.23783 45.7883 9.35234 47.097L9.36325 47.1843C9.49412 48.6729 9.68498 50.396 10.2139 51.9883C10.7592 53.6351 11.6262 54.9711 12.7277 55.8436C13.8619 56.7487 15.2797 57.3758 16.8338 57.6648C21.8123 58.5973 28.6722 58.6464 31.6113 55.7236C32.9636 54.3822 33.8797 52.4355 34.3432 49.938C34.3705 49.7635 34.4032 49.589 34.4305 49.4145C34.5723 48.5802 34.714 47.7241 35.1339 46.9225C35.7392 45.7501 36.8952 44.9976 38.084 44.9976ZM23.0229 56.7815C21.3707 56.7815 19.7402 56.547 18.197 56.2743C16.6757 56.0071 14.9416 55.6254 13.7147 54.4585C12.5205 53.3243 12.0625 51.7102 11.768 50.287C11.2173 47.5769 11.0537 44.8068 11.299 42.053C11.3972 40.9188 11.599 39.7519 12.4169 38.8958C13.4802 37.7834 15.1107 37.6852 16.5502 37.6798C19.1786 37.6688 21.8996 37.6579 24.4788 37.7834C26.3601 37.6907 28.2632 37.7288 30.139 37.8979C30.6952 37.9524 31.2841 38.0342 31.7858 38.3995C33.0509 39.3375 33.6562 40.6625 33.5853 42.342V42.4347C33.4817 45.2648 32.9691 52.0919 30.3844 54.3494C28.454 56.0344 26.0875 56.5688 24.4407 56.7215C23.9663 56.7651 23.4973 56.7815 23.0229 56.7815ZM18.7423 38.9721C18.0116 38.9721 17.2809 38.9776 16.5557 38.9776C15.3288 38.983 14.0746 39.0484 13.3657 39.79C12.8259 40.3572 12.6786 41.2678 12.5969 42.1675C12.3678 44.7959 12.5205 47.4405 13.0494 50.0307C13.3003 51.2576 13.6874 52.6318 14.6199 53.5206C15.5851 54.4312 17.0301 54.7475 18.4261 54.9929C20.3182 55.3255 22.3413 55.6091 24.3207 55.4237C25.7712 55.2928 27.8542 54.8293 29.5228 53.3734C31.0497 52.0374 32.0803 47.9313 32.2766 42.3911L32.282 42.293C32.3311 41.0497 31.9167 40.1172 31.006 39.4465C30.777 39.2775 30.4062 39.2284 30.019 39.1957C28.1923 39.0266 26.3438 38.9939 24.5116 39.0866C24.4897 39.0866 24.4679 39.0866 24.4461 39.0866C22.5976 38.9939 20.6618 38.9721 18.7423 38.9721ZM52.9705 56.7815C52.4961 56.7815 52.0272 56.7651 51.5528 56.7215C49.906 56.5688 47.5448 56.0344 45.609 54.3494C43.0243 52.0919 42.5118 45.2648 42.4082 42.4347V42.342C42.3373 40.6625 42.9426 39.3375 44.2076 38.3995C44.7093 38.0342 45.2982 37.9524 45.8544 37.8979C47.7302 37.7288 49.6333 37.6907 51.5201 37.7834C54.0938 37.6579 56.8149 37.6688 59.4432 37.6798C60.8828 37.6852 62.5132 37.7834 63.5765 38.8958C64.3945 39.7519 64.6017 40.9188 64.6998 42.053C64.9398 44.8068 64.7816 47.5769 64.2254 50.287C63.931 51.7102 63.4729 53.3243 62.2787 54.4585C61.0518 55.6254 59.3232 56.0071 57.7964 56.2743C56.2532 56.547 54.6228 56.7815 52.9705 56.7815ZM49.5134 39.0321C48.3301 39.0321 47.1468 39.0866 45.9744 39.1957C45.5872 39.2284 45.2164 39.2775 44.9874 39.4465C44.0768 40.1172 43.6623 41.0497 43.7114 42.293L43.7169 42.3911C43.9132 47.9313 44.9438 52.0374 46.4706 53.3734C48.1392 54.8293 50.2223 55.2928 51.6727 55.4237C53.6522 55.6091 55.6752 55.3255 57.5674 54.9929C58.9688 54.7475 60.4138 54.4312 61.3735 53.5206C62.3115 52.6318 62.6932 51.2576 62.944 50.0307C63.4729 47.4405 63.6256 44.7959 63.3966 42.1675C63.3148 41.2678 63.1676 40.3572 62.6277 39.79C61.9188 39.0484 60.6647 38.983 59.4377 38.9776C56.8149 38.9667 54.1048 38.9557 51.5528 39.0866C51.531 39.0866 51.5037 39.0866 51.4819 39.0866C50.8275 39.0484 50.1732 39.0321 49.5134 39.0321Z" fill="#703627"/>
<mask id="mask6_594_11575" style="mask-type:luminance" maskUnits="userSpaceOnUse" x="0" y="0" width="82" height="47">
<path d="M0 0H81.6635V46.0666H0V0Z" fill="white"/>
</mask>
<g mask="url(#mask6_594_11575)">
<path d="M80.0935 39.7901C81.1677 40.7662 80.7751 42.533 79.3846 42.9638C66.1121 47.0916 49.9822 45.5485 37.2278 38.7541C31.2786 35.5859 26.0219 31.5398 20.1927 28.1972C14.369 24.8599 7.41646 23.5567 0.88382 22.995C1.60361 21.5882 3.02138 21.1029 4.45005 20.912C5.87873 20.7212 7.36193 20.7866 8.82332 20.7266C11.7843 20.6012 22.0576 18.7963 23.7699 17.0295C26.7963 13.9104 27.0253 7.60134 30.0244 4.46044C32.2001 2.17565 35.7827 1.08506 39.3762 0.877847C44.6983 0.572482 54.9281 2.16475 59.4704 6.03089C61.9678 8.15754 63.5874 10.9876 63.9582 13.8559C64.5035 18.0765 62.4313 22.1989 63.9582 26.6213C69.5474 30.6019 74.7659 34.9534 80.0935 39.7901Z" fill="#FFFBD6"/>
</g>
<mask id="mask7_594_11575" style="mask-type:luminance" maskUnits="userSpaceOnUse" x="0" y="19" width="82" height="28">
<path d="M0 19.5432H81.6635V46.0664H0V19.5432Z" fill="white"/>
</mask>
<g mask="url(#mask7_594_11575)">
<path d="M80.5188 40.1826C80.0662 39.7682 79.6136 39.3592 79.161 38.9557C70.1364 41.4859 59.8684 42.2766 50.3149 39.7137C39.3272 36.7745 26.6054 24.2 8.63792 20.7319C8.62702 20.7319 8.61611 20.7319 8.6052 20.7319C7.50371 20.7483 6.40221 20.7537 5.31162 20.8301C3.6212 20.9446 1.75084 21.3045 0.88382 22.9949C7.41646 23.5566 14.369 24.8598 20.1927 28.197C26.0219 31.5397 31.2786 35.5858 37.2278 38.754C50.1731 45.6465 66.5974 47.1406 79.9789 42.7728C81.0968 42.4074 81.3858 40.9679 80.5188 40.1826Z" fill="#FE3F3C"/>
</g>
<path d="M63.7842 26.0597C63.6151 23.8785 63.4297 23.0769 63.3479 20.694C50.528 19.647 38.4988 16.2335 26.4587 12.0402C25.0627 14.2595 24.6156 15.4755 23.176 17.3186C34.6599 21.3211 49.3011 25.7762 63.7842 26.0597Z" fill="#FE3F3C"/>
<mask id="mask8_594_11575" style="mask-type:luminance" maskUnits="userSpaceOnUse" x="0" y="0" width="82" height="47">
<path d="M0 0H81.6635V46.0666H0V0Z" fill="white"/>
</mask>
<g mask="url(#mask8_594_11575)">
<path d="M63.6529 45.854C54.3557 45.854 44.873 43.6183 36.7426 39.2886C33.4272 37.5219 30.2918 35.4661 27.2599 33.4758C24.8115 31.8672 22.2814 30.2095 19.6858 28.7208C14.9853 26.027 8.95979 24.3693 1.26567 23.6605C0.883966 23.6223 0.556786 23.3878 0.404105 23.0388C0.256875 22.6953 0.305951 22.3027 0.534976 22.0082C1.54922 20.7159 3.10332 20.3723 4.183 20.2306C5.17544 20.0942 6.19514 20.0833 7.17668 20.0724C7.65654 20.0615 8.1364 20.0561 8.6108 20.0397C12.237 19.887 20.5528 18.8237 23.1538 16.5062C24.7134 15.1211 25.5095 12.6782 26.2838 10.3171C27.0418 7.99412 27.827 5.58937 29.3648 3.97529C31.4641 1.7723 34.9431 0.430872 39.1528 0.190942C44.7803 -0.136235 55.0536 1.53237 59.7159 5.49667C62.3224 7.71602 64.0401 10.7206 64.4273 13.7361C64.6672 15.5901 64.4218 17.4168 64.1873 19.189C63.9583 20.9558 63.7129 22.7771 63.9692 24.582C64.1001 25.5199 64.6236 26.3815 65.4033 26.9486C70.3219 30.5366 75.2296 34.5936 80.857 39.7249C81.4241 40.2429 81.6641 41.0009 81.5005 41.7534C81.3369 42.5004 80.8134 43.0839 80.0882 43.3238C74.9133 45.0197 69.3186 45.854 63.6529 45.854ZM1.94184 22.4172C9.55962 23.1751 15.5851 24.871 20.3401 27.5975C22.9684 29.1025 25.515 30.7711 27.9797 32.3906C30.9897 34.3646 34.0979 36.404 37.3588 38.1435C50.1405 44.9488 66.3576 46.4647 79.6792 42.0915C80.0772 41.9606 80.1918 41.6171 80.2245 41.4807C80.2845 41.1808 80.1918 40.8864 79.9682 40.6846C74.3844 35.5861 69.5094 31.5563 64.629 27.9956C63.5657 27.2212 62.8568 26.0434 62.6769 24.762C62.3933 22.7825 62.6496 20.874 62.895 19.02C63.124 17.2532 63.3476 15.5846 63.1295 13.8997C62.7805 11.2005 61.2264 8.4958 58.8652 6.48365C54.5247 2.792 44.4967 1.18338 39.2292 1.48875C35.3521 1.70686 32.1839 2.91197 30.3136 4.86958C28.9776 6.27099 28.2414 8.53396 27.5271 10.7206C26.6983 13.2453 25.8476 15.8573 24.0263 17.4768C20.3401 20.754 8.7853 21.3321 8.67079 21.3375C8.18002 21.3539 7.6838 21.3648 7.19304 21.3702C6.20605 21.3811 5.27359 21.3975 4.3575 21.5175C3.27236 21.6592 2.49259 21.9537 1.94184 22.4172Z" fill="#703627"/>
</g>
</svg>
