<svg width="109" height="105" viewBox="0 0 109 105" fill="none" xmlns="http://www.w3.org/2000/svg">
<path d="M91.6146 8.74171C97.7812 13.023 101.292 20.8146 100.385 28.2417C99.7292 33.6427 96.9635 38.5855 93.6354 42.9032C96.8177 45.45 99.9531 48.1011 102.495 51.2782C105.042 54.4605 106.979 58.2157 107.453 62.2521C108.797 71.3146 105.26 80.8823 98.4323 87.0334C93.3385 90.8198 87.0312 93.0907 80.5417 93.8355C77.2031 94.674 73.9062 95.0073 70.6302 94.8667C68.1146 94.7573 65.5365 94.3355 63.375 93.0542C61.2135 91.7678 59.526 89.4813 59.5312 86.9761C57.6458 88.4084 55.9531 90.0073 53.9062 91.049C51.8594 92.0855 49.3802 92.5073 47.2552 91.6323C44.8542 90.6428 43.3646 88.2157 42.5 85.7782C39.6562 86.7313 36.4531 86.5386 33.9948 85.049C32.9896 84.4448 32.0677 83.5803 31.75 82.4553C31.401 81.1948 31.8594 79.8511 32.4687 78.6948C34.0052 75.7834 36.5469 73.4084 39.5625 72.0646C35.8333 67.8459 34.151 62.3407 34.7188 57.0334C32.1406 54.7782 30.1146 51.9553 29.0521 48.8094C26.0104 48.9865 21.3594 49.3667 19.3229 46.95C17.2865 44.5282 16 40.7625 17.401 37.9292C18.8073 35.1011 24.4323 33.6532 27.5208 34.3615C28.0833 31.3667 28.9115 26.7053 30.3229 23.9969C27.9948 22.9865 26.4583 20.2157 26.7292 17.5282C26.9948 14.8459 29.0417 12.424 31.6615 11.7053C34.276 10.9865 37.2865 12.0178 38.8542 14.1948C46.4219 6.58546 56.9583 1.97088 68.1406 1.30421C72.1875 0.288586 76.5104 0.918794 80.4271 2.34588C84.3438 3.76775 87.8177 6.10629 91.6146 8.74171Z" fill="#DDA783"/>
<path d="M74.6719 7.6119C72.9011 9.14836 71.2188 10.8254 70.0052 12.8254C68.7917 14.8254 68.0625 17.1796 68.3177 19.5025C68.6146 22.19 70.1719 24.5702 71.8542 26.69C73.6719 28.9817 75.6979 31.1171 78.0209 32.9036C79.3594 33.9348 80.8646 34.8723 82.5521 35.0754C85.349 35.414 87.9375 33.7109 90.2292 32.0859C92.4219 30.5286 94.6459 28.9504 96.3698 26.8984C98.099 24.8411 99.3125 22.2265 99.125 19.5546C98.9948 17.7109 98.2188 15.9661 97.2448 14.3932C95.1719 11.0494 92.1927 8.33586 88.9896 6.02857C87.3802 4.86711 85.6094 3.76294 83.625 3.59107C80.7084 3.34628 77.8386 4.86711 74.6719 7.6119Z" fill="#B27966"/>
<path d="M81.6511 9.66376C81.7136 10.419 82.0313 11.1429 82.5469 11.7002C82.7604 11.9294 83.0677 12.1429 83.3646 12.0388C83.6511 11.9398 83.7552 11.6013 83.8281 11.3096C83.9792 10.6794 84.1302 10.0388 84.0938 9.38772C84.0625 8.78877 83.7969 8.1221 83.224 7.91897C82.7865 7.76793 82.2761 7.94501 81.974 8.29397C81.6719 8.63772 81.6042 9.11689 81.6511 9.66376Z" fill="#703627"/>
<path d="M74.7917 16.0439C75.5417 16.1532 76.2501 16.5178 76.7709 17.0647C76.9896 17.2939 77.1823 17.6116 77.0573 17.898C76.9376 18.1741 76.5938 18.2574 76.2917 18.3095C75.6511 18.4136 75.0001 18.523 74.349 18.4449C73.7501 18.372 73.0938 18.0647 72.9323 17.4866C72.8073 17.0439 73.0209 16.5491 73.3907 16.273C73.7605 15.9918 74.2448 15.9605 74.7917 16.0439Z" fill="#703627"/>
<path d="M89.4428 24.1378C88.8855 24.1378 88.3074 24.0492 87.7344 23.8565L87.5522 23.794L86.5782 22.768C84.974 21.0857 83.3803 19.4086 81.948 17.9346C81.6459 17.6273 81.6563 17.1378 81.9688 16.8409C82.2761 16.544 82.7709 16.5492 83.0678 16.8565C84.5053 18.3357 86.099 20.0128 87.7084 21.7055L88.4115 22.4451C89.5574 22.768 90.7136 22.5388 91.3334 21.8565C91.9949 21.1378 92.0938 19.8721 91.5834 18.7055C91.4115 18.3148 91.5938 17.8565 91.9897 17.6846C92.3855 17.518 92.8438 17.6951 93.0157 18.0909C93.7761 19.8305 93.5678 21.7211 92.4897 22.8982C91.7501 23.7107 90.6459 24.1378 89.4428 24.1378Z" fill="#703627"/>
<path d="M84.7708 28.1323C83.8854 28.1323 82.9531 27.9083 82.0885 27.45C81.7083 27.2521 81.5625 26.7833 81.7604 26.4083C81.9635 26.0281 82.4375 25.8823 82.8125 26.0802C84.0104 26.7052 85.3802 26.7521 86.2291 26.2C87.0468 25.6635 87.3958 24.5646 87.1146 23.3979C87.0156 22.9813 87.2708 22.5646 87.6875 22.4656C88.1093 22.3667 88.5312 22.6219 88.6302 23.0385C89.0677 24.8406 88.4635 26.5906 87.0885 27.4917C86.4323 27.9188 85.625 28.1323 84.7708 28.1323Z" fill="#703627"/>
<path d="M59.7917 26.0073C59.0573 27.0855 58.2917 28.2469 58.2969 29.549C58.2969 30.0021 58.4167 30.4969 58.7761 30.7782C59.1511 31.0698 59.7032 31.0542 60.1354 30.8511C60.5677 30.6532 60.9115 30.3094 61.2396 29.9605C61.9532 29.2053 62.6459 28.424 63.2396 27.5698C63.5782 27.075 63.8959 26.5438 63.9948 25.9553C64.0938 25.3667 63.9323 24.7 63.4636 24.3303C62.9479 23.9188 62.1823 23.9605 61.5886 24.2521C60.9948 24.5386 60.4792 24.9969 59.7917 26.0073Z" fill="#703627"/>
<path d="M24.5782 49.549C24.0105 49.549 23.4584 49.5073 22.9167 49.4292C19.6042 48.95 16.8021 46.8667 15.7761 44.1219C14.7761 41.4604 15.5 38.1844 17.573 35.9813C19.448 33.9813 22.3386 32.8615 25.323 32.9917C27.9271 33.101 30.6407 34.1479 32.9636 35.9344C33.4167 36.2833 33.5 36.9292 33.1459 37.3823C32.7969 37.8354 32.1459 37.9135 31.6927 37.5646C29.7032 36.0385 27.4115 35.1479 25.2344 35.0542C22.8594 34.9604 20.5573 35.8302 19.0886 37.3875C17.5417 39.0385 16.9948 41.4552 17.724 43.4031C18.4896 45.45 20.6459 47.0125 23.2136 47.3875C25.3959 47.7 27.8907 47.2365 30.6407 46.0125C31.1667 45.7781 31.7813 46.0073 32.0157 46.5281C32.25 47.049 32.0157 47.6583 31.4948 47.8927C29.0313 48.9917 26.7136 49.549 24.5782 49.549Z" fill="#703627"/>
<path d="M30.4479 41.1951C30.2292 41.1951 30.0104 41.1273 29.8281 40.9867C27.4115 39.1951 23.8438 39.1013 21.3386 40.768C20.8594 41.0857 20.2136 40.9555 19.8958 40.4815C19.5781 40.0076 19.7031 39.3669 20.1823 39.0492C23.3958 36.9138 27.974 37.0336 31.0729 39.3357C31.5313 39.6742 31.625 40.3253 31.2813 40.7784C31.0781 41.0492 30.7656 41.1951 30.4479 41.1951Z" fill="#703627"/>
<path d="M30.3385 25.5283C30.1354 25.5283 29.9323 25.471 29.75 25.3512C26.9896 23.4658 25.6042 20.9553 25.7396 18.0803C25.8906 14.8043 28.3021 11.7522 31.4688 10.8251C34.599 9.90326 37.4115 10.9085 39.3802 13.6481C39.7135 14.1168 39.6094 14.7574 39.1406 15.0908C38.6719 15.4241 38.026 15.3147 37.6927 14.8512C36.2344 12.8251 34.3385 12.1376 32.0573 12.8043C29.7135 13.4918 27.9271 15.7522 27.8125 18.1741C27.7135 20.3303 28.7604 22.1689 30.9271 23.6481C31.401 23.9658 31.5208 24.6116 31.1979 25.0803C30.9948 25.372 30.6719 25.5283 30.3385 25.5283Z" fill="#703627"/>
<path d="M78.1146 55.0284C77.6823 55.0284 77.2813 54.7628 77.1302 54.3305C76.9427 53.794 77.2292 53.2055 77.7761 53.018C84.8177 50.6013 90.75 46.2107 94.4844 40.6586C98.5209 34.6482 99.8906 27.2055 98.1563 20.7524C96.4375 14.3826 91.5886 8.63777 85.1719 5.38257C79.2813 2.39298 72.0104 1.37736 64.7136 2.5284C58.2396 3.54923 51.6719 6.20027 45.1927 10.4034C38.0261 15.0544 29.5417 24.544 27.849 34.3826C27.7552 34.9451 27.224 35.3201 26.6511 35.2263C26.0834 35.1326 25.7031 34.5961 25.8021 34.0336C27.5938 23.5857 36.5209 13.5649 44.0521 8.67423C50.7813 4.30965 57.6198 1.55444 64.3854 0.486732C72.1198 -0.732019 79.8334 0.356523 86.1198 3.54402C93.0469 7.05965 98.2969 13.294 100.161 20.2159C102.052 27.2367 100.573 35.3097 96.2084 41.8044C92.2292 47.7315 85.9219 52.4086 78.4531 54.9711C78.3386 55.0128 78.224 55.0284 78.1146 55.0284Z" fill="#703627"/>
<path d="M76.5312 93.752C76.1197 89.7728 75.5104 85.7624 73.9374 82.0853C72.3697 78.403 69.7343 75.0436 66.0208 73.6738C62.151 75.778 59.3802 79.929 59.3229 84.3145C59.2656 88.6999 62.1354 93.0749 66.3229 94.4551C69.3958 95.4707 72.7447 94.8978 76.5312 93.752Z" fill="#B37164"/>
<path d="M41.1458 61.0176C41.0468 61.0176 40.9531 61.002 40.8541 60.9759C33.5885 58.8666 28.9166 53.9082 28.3593 47.7103C28.3072 47.1426 28.7291 46.6426 29.302 46.5905C29.8697 46.5436 30.375 46.9603 30.427 47.528C30.9166 52.9238 34.927 57.1009 41.4375 58.9916C41.9895 59.153 42.302 59.7259 42.1406 60.2728C42.0104 60.7259 41.5937 61.0176 41.1458 61.0176Z" fill="#703627"/>
<mask id="mask0_474_6076" style="mask-type:luminance" maskUnits="userSpaceOnUse" x="56" y="41" width="53" height="55">
<path d="M56.9375 41.1738H109V95.8405H56.9375V41.1738Z" fill="white"/>
</mask>
<g mask="url(#mask0_474_6076)">
<path d="M71.427 95.7102C70.1562 95.7102 68.8802 95.6216 67.6093 95.382C63.9895 94.705 60.9791 92.8352 59.3437 90.2518C56.4218 85.6164 58.2395 79.4341 61.552 75.7206C64.9687 71.8873 69.8281 69.7466 74.1145 67.856C74.6406 67.6268 75.2552 67.8612 75.4895 68.3821C75.7187 68.9029 75.4843 69.5175 74.9583 69.7466C70.8645 71.5487 66.2239 73.5956 63.1041 77.0904C60.3073 80.231 58.7239 85.3768 61.1041 89.1529C62.4323 91.2518 64.9427 92.7831 67.9895 93.3508C70.8854 93.8925 73.9323 93.5852 76.802 93.2258C83.6562 92.3612 91.4531 90.8716 97.2708 86.382C102.089 82.6529 106.927 75.0227 106.865 66.3768C106.807 58.08 102.187 50.2466 93.5052 43.7258C93.0468 43.3821 92.9583 42.731 93.302 42.2779C93.6458 41.8248 94.2968 41.731 94.7604 42.0748C106.406 50.8248 108.901 60.1112 108.943 66.3612C109.01 75.7154 103.766 83.9758 98.5416 88.0123C92.3333 92.8091 84.1979 94.3768 77.0625 95.2727C75.2395 95.5018 73.3437 95.7102 71.427 95.7102Z" fill="#703627"/>
</g>
<path d="M35.1145 75.3564C36.9791 76.1377 38.3229 77.8773 39.0104 79.7679C39.6979 81.6637 39.8072 83.7158 39.7812 85.7314C38.026 86.1377 36.0729 86.5179 34.5104 85.6221C33.7447 85.1846 33.1666 84.471 32.7604 83.6898C32.0364 82.2679 31.8749 80.5752 32.3177 79.0492C32.7656 77.5179 33.8124 76.1689 35.1145 75.3564Z" fill="#B37164"/>
<path d="M45.8021 78.5282C45.6563 78.5282 45.5053 78.4969 45.3646 78.4292C40.2813 76.075 32.9636 68.3719 33.6511 56.7834C33.6875 56.2157 34.1875 55.7782 34.75 55.8146C35.323 55.8459 35.7605 56.3355 35.7292 56.9084C35.0261 68.7105 43.0782 75.0959 46.2448 76.5594C46.7657 76.799 46.9896 77.4136 46.7448 77.9292C46.5678 78.3094 46.1928 78.5282 45.8021 78.5282Z" fill="#703627"/>
<path d="M37.0885 87.1015C36.9479 87.1015 36.8125 87.1015 36.6875 87.0911C34.651 86.9557 32.875 86.112 31.8229 84.7786C29.9687 82.4349 30.5989 79.1484 31.9687 77.0911C33.4479 74.8568 36.6302 72.3515 38.4114 71.2161C38.8958 70.9088 39.5364 71.0443 39.8489 71.5234C40.1562 72.0078 40.0156 72.6432 39.5364 72.9557C37.5677 74.2109 34.8594 76.487 33.7031 78.2265C32.7031 79.737 32.2969 82.0338 33.4583 83.5026C34.1458 84.3776 35.375 84.9349 36.8229 85.0286C38.1719 85.1172 40.9427 84.4922 42.3437 84.0078C42.8854 83.8203 43.4791 84.1015 43.6666 84.6432C43.8541 85.1797 43.5729 85.7682 43.026 85.9557C41.625 86.4453 38.8854 87.1015 37.0885 87.1015Z" fill="#703627"/>
<path d="M63.9532 36.278C63.9532 36.6426 63.8802 36.9967 63.7396 37.3405C63.599 37.679 63.3959 37.9811 63.1355 38.2415C62.8698 38.502 62.573 38.6999 62.2292 38.8405C61.8855 38.9811 61.5313 39.054 61.1615 39.054C60.7865 39.054 60.4323 38.9811 60.0886 38.8405C59.75 38.6999 59.448 38.502 59.1823 38.2415C58.9219 37.9811 58.7188 37.679 58.5782 37.3405C58.4375 36.9967 58.3646 36.6426 58.3646 36.278C58.3646 35.9082 58.4375 35.554 58.5782 35.2155C58.7188 34.8717 58.9219 34.5749 59.1823 34.3145C59.448 34.054 59.75 33.8509 60.0886 33.7103C60.4323 33.5697 60.7865 33.502 61.1615 33.502C61.5313 33.502 61.8855 33.5697 62.2292 33.7103C62.573 33.8509 62.8698 34.054 63.1355 34.3145C63.3959 34.5749 63.599 34.8717 63.7396 35.2155C63.8802 35.554 63.9532 35.9082 63.9532 36.278Z" fill="#FAC4AF"/>
<path d="M96.2865 55.3408C95.948 55.3408 95.6198 55.1794 95.4167 54.8773C94.5313 53.5387 93.2188 52.4815 91.7188 51.8981C91.1875 51.6846 90.9219 51.0856 91.1355 50.5544C91.3438 50.0283 91.9427 49.7627 92.4792 49.971C94.375 50.7158 96.0365 52.0492 97.1563 53.7367C97.4688 54.2158 97.3386 54.8565 96.8594 55.169C96.6823 55.2835 96.4844 55.3408 96.2865 55.3408Z" fill="#C58D72"/>
<path d="M103.443 59.1221C103.057 59.1221 102.687 58.9033 102.505 58.5336C101.828 57.1377 100.932 55.8721 99.8333 54.7679C99.4323 54.3617 99.4375 53.7054 99.8437 53.3044C100.25 52.9033 100.911 52.9086 101.312 53.3148C102.573 54.5804 103.604 56.0336 104.38 57.6377C104.63 58.1533 104.411 58.7731 103.896 59.0179C103.75 59.0856 103.594 59.1221 103.443 59.1221Z" fill="#C58D72"/>
<path d="M102.016 68.1946C102 68.1946 101.984 68.1946 101.969 68.1946C101.396 68.1686 100.953 67.6894 100.979 67.1165C101.063 65.2207 100.646 63.3249 99.7709 61.6321C99.5053 61.1269 99.7084 60.5019 100.219 60.2415C100.729 59.9811 101.354 60.179 101.615 60.6894C102.656 62.6946 103.156 64.9499 103.052 67.2103C103.026 67.7624 102.568 68.1946 102.016 68.1946Z" fill="#C58D72"/>
<path d="M44.0834 16.0129C43.8125 16.0129 43.5417 15.9087 43.3386 15.7004C42.9375 15.2889 42.9479 14.6379 43.3646 14.242C45.4792 12.2004 48.0677 10.5962 50.8438 9.6014C51.3854 9.4087 51.9792 9.68474 52.1719 10.2212C52.3698 10.7577 52.0886 11.3514 51.5469 11.5441C49.0469 12.4399 46.7188 13.8827 44.8073 15.7212C44.6094 15.9191 44.349 16.0129 44.0834 16.0129Z" fill="#C58D72"/>
<path d="M60.5938 7.90337C60.1875 7.90337 59.8021 7.66379 59.6355 7.26795C59.4115 6.74191 59.6615 6.13775 60.1928 5.919C62.3282 5.02837 64.5834 4.46066 66.8907 4.2315C67.4688 4.17941 67.9688 4.59087 68.0261 5.15858C68.0834 5.72629 67.6667 6.2315 67.0938 6.28879C64.9896 6.49712 62.9428 7.01275 60.9948 7.82004C60.8646 7.87733 60.7292 7.90337 60.5938 7.90337Z" fill="#C58D72"/>
<path d="M54.1198 15.6432C53.7344 15.6432 53.3646 15.4297 53.1823 15.0651C52.9323 14.5494 53.1458 13.9349 53.6615 13.6797C56.4271 12.3307 59.349 11.2474 62.3333 10.4661C62.8854 10.3255 63.4583 10.6536 63.6042 11.2057C63.75 11.7578 63.4167 12.3203 62.8594 12.4661C60.0104 13.2109 57.224 14.2422 54.5729 15.5338C54.4271 15.6067 54.2708 15.6432 54.1198 15.6432Z" fill="#C58D72"/>
<path d="M37.974 48.5176C37.974 48.5384 37.974 48.5592 37.974 48.5801C37.7032 48.5488 37.4375 48.5332 37.1823 48.528C36.974 48.5176 36.7761 48.5176 36.5834 48.5176C36.7865 48.5176 36.9844 48.5176 37.1823 48.5176C37.448 48.5176 37.7084 48.5176 37.974 48.5176Z" fill="#703627"/>
<path d="M46.8229 78.9134V78.9655C46.8229 79.4395 46.4948 79.8561 46.0469 79.9186C46.0312 79.9238 46.0104 79.9238 45.9948 79.9238C45.7656 79.9551 45.526 79.9915 45.276 80.0332C44.9219 80.0853 44.5521 80.1374 44.1666 80.1947C43.9323 80.2259 43.6927 80.2624 43.4479 80.304C39.8958 80.8249 35.6458 81.4759 34.1875 81.6999C34.1458 81.7051 34.0989 81.7103 34.0573 81.7103C33.8594 81.7103 33.6719 81.6374 33.5156 81.5072C33.3229 81.3457 33.1979 81.1113 33.1719 80.8509C33.1094 80.2259 32.9948 79.1686 32.875 78.0072C32.7291 76.5697 32.5625 74.9655 32.4427 73.8249C32.3906 73.3145 32.7187 72.8405 33.1875 72.7624C36.3125 72.1999 39.5312 71.8457 42.7864 71.7051C43.026 71.6895 43.2708 71.679 43.5104 71.6686C43.8906 71.6582 44.2708 71.6426 44.651 71.6426C44.8125 71.6322 44.9687 71.6322 45.1302 71.627C45.2187 71.627 45.3021 71.6426 45.3854 71.6686C45.7291 71.7728 45.9948 72.1009 46.0364 72.502C46.1458 73.7051 46.2969 74.6895 46.4427 75.6478C46.6094 76.7363 46.7656 77.7624 46.8229 78.9134Z" fill="#F67D84"/>
<path d="M34.0573 82.7415C33.625 82.7415 33.1979 82.5853 32.8541 82.3092C32.4375 81.9499 32.1875 81.4707 32.1406 80.9499L31.4114 73.9342C31.302 72.8822 32 71.9186 33.0052 71.7415C36.177 71.1738 39.4531 70.8145 42.7395 70.6686C42.8854 70.6634 43.052 70.653 43.2187 70.6478L43.4583 70.6374C43.8698 70.6217 44.2552 70.6113 44.6406 70.6061C44.7187 70.6009 44.8333 70.6009 44.9479 70.6009L45.1041 70.5957C45.3125 70.6113 45.526 70.627 45.7135 70.6895C46.4479 70.9134 46.9895 71.5905 47.0729 72.3978C47.1718 73.5384 47.3177 74.4759 47.4531 75.3874L47.4687 75.4967C47.6302 76.5488 47.7968 77.6426 47.8593 78.8665C47.8593 78.8822 47.8593 78.8978 47.8593 78.9134V78.9655C47.8593 79.9603 47.1458 80.8092 46.1927 80.9395C45.9114 80.9811 45.6823 81.0124 45.4375 81.054L43.6198 81.3197C40.052 81.8457 35.802 82.4967 34.3437 82.7207C34.2083 82.7363 34.1302 82.7415 34.0573 82.7415ZM33.4843 73.7572L34.1979 80.653C35.75 80.4186 39.8489 79.7884 43.2968 79.278L45.1302 79.0072C45.3437 78.9759 45.5677 78.9447 45.7812 78.9134C45.7239 77.8197 45.5729 76.8405 45.4166 75.804L45.3958 75.6947C45.2604 74.7728 45.1145 73.8197 45.0052 72.6634L44.7031 72.6738C44.2916 72.679 43.9166 72.6895 43.5468 72.6999L42.8541 72.7311C39.677 72.8717 36.5312 73.2155 33.4843 73.7572ZM45.7864 78.9603C45.7812 78.9655 45.7812 78.9655 45.7812 78.9655H45.7864C45.7864 78.9655 45.7864 78.9655 45.7864 78.9603Z" fill="#703627"/>
<path d="M46.0573 94.7468C46.0573 97.3509 44.6563 99.2468 42.6823 100.564C40.5313 101.997 37.6979 102.736 35.2761 102.939C35.2708 102.945 35.2656 102.945 35.2656 102.939C34.7865 102.981 34.3281 103.002 33.8906 103.002C31.6719 103.002 29.375 103.054 27.1563 103.111C24.875 103.169 22.5625 103.226 20.2552 103.226C15.6354 103.226 11.0156 102.997 6.59376 102.07C5.98959 101.945 5.53647 101.45 5.47397 100.835C5.15626 97.9812 4.79688 95.0228 4.45313 92.1634C2.78126 78.3249 1.05209 64.0072 2.29167 49.9916C2.35417 49.3197 2.91146 48.7832 3.59376 48.7364C4.19271 48.6999 4.79167 48.6634 5.39063 48.627C5.65105 48.6114 5.91667 48.5957 6.1823 48.5853C16.3229 48.0072 26.5886 47.7207 36.7344 47.7416C36.8542 47.7416 36.9688 47.7364 37.0833 47.7416C37.2604 47.7416 37.4271 47.7364 37.6042 47.7416C37.7969 47.7416 37.9896 47.7416 38.2031 47.7468C38.4583 47.752 38.7188 47.7676 38.9896 47.8041C39.5833 47.8666 40.1927 48.0228 40.7292 48.3718C40.8438 48.4395 40.9427 48.5124 41.0365 48.5957C42.2136 49.5593 42.5313 51.2416 42.6875 52.9343C42.9583 55.8822 43.2813 59.1791 43.599 62.4707C43.9115 65.6426 44.2188 68.8093 44.4896 71.6687C44.224 71.6791 43.9583 71.6895 43.6979 71.7051C40.1563 71.8457 36.6511 72.1999 33.2552 72.7624C32.7396 72.8405 32.3854 73.3145 32.4479 73.8249C32.5781 74.9655 32.7552 76.5697 32.9167 78.0072C33.0469 79.1687 33.1667 80.2259 33.2396 80.8509C33.2656 81.1114 33.4011 81.3457 33.6094 81.5072C33.7813 81.6374 33.9844 81.7103 34.1979 81.7103C34.2448 81.7103 34.2969 81.7051 34.3438 81.6999C35.9271 81.4759 40.5521 80.8249 44.4219 80.3041C44.6875 80.2624 44.9427 80.2259 45.2031 80.1947C46.0156 84.8822 46.0573 93.1009 46.0573 94.7468Z" fill="#FBD490"/>
<mask id="mask1_474_6076" style="mask-type:luminance" maskUnits="userSpaceOnUse" x="0" y="46" width="48" height="59">
<path d="M0 46.5078H47.6042V104.263H0V46.5078Z" fill="white"/>
</mask>
<g mask="url(#mask1_474_6076)">
<path d="M20.2552 104.263C14.5573 104.263 10.2761 103.899 6.37501 103.086C5.33335 102.867 4.5521 102.008 4.43752 100.945C4.12502 98.1017 3.76564 95.1434 3.41668 92.2892C1.7396 78.3986 0.00522321 64.034 1.25522 49.9038C1.3646 48.7215 2.34377 47.784 3.52606 47.7059C4.11981 47.6694 4.71877 47.6329 5.31252 47.5965C5.59897 47.5809 5.86981 47.5652 6.13543 47.5548C16.3073 46.9715 26.6094 46.6954 36.7344 46.7059H36.8386C36.9323 46.7059 37.0261 46.7059 37.1198 46.7059H37.25C37.375 46.7059 37.5 46.7059 37.625 46.7059C37.8125 46.7059 38.0209 46.7059 38.2396 46.7163C38.5104 46.7215 38.8177 46.7371 39.125 46.7788C39.9636 46.8725 40.6771 47.1069 41.2917 47.5027C41.4479 47.6017 41.5886 47.7059 41.724 47.8204C43.1771 49.0131 43.5417 50.9402 43.7188 52.8413C43.9427 55.2579 44.2031 57.909 44.4636 60.6069L44.6354 62.3725C44.9479 65.5444 45.2552 68.7163 45.5209 71.5704C45.5469 71.8517 45.4584 72.1329 45.2709 72.3465C45.0834 72.56 44.8177 72.685 44.5365 72.7006L43.7604 72.7371C40.2552 72.8725 36.7865 73.2267 33.4219 73.7788L33.9479 77.8934L34.2709 80.7371C35.7813 80.4559 40.4115 79.8048 44.2813 79.2788L45.0573 79.1694C45.6198 79.0965 46.1302 79.4663 46.224 80.0184C47.0521 84.7788 47.0938 93.1225 47.0938 94.7475C47.0938 97.4402 45.7709 99.7527 43.2604 101.425C41.224 102.779 38.375 103.706 35.4271 103.966C35.375 103.977 35.3229 103.977 35.2709 103.977C34.7917 104.018 34.3281 104.034 33.8906 104.034C31.6198 104.034 29.2604 104.091 27.1823 104.143C25.0417 104.201 22.6146 104.263 20.2552 104.263ZM35.7709 48.7736C25.9896 48.7736 16.0625 49.0548 6.2396 49.6173C5.96877 49.6277 5.71356 49.6434 5.45835 49.659C4.84377 49.6954 4.25001 49.7319 3.66147 49.7684C3.48439 49.7788 3.33856 49.9194 3.32293 50.0913C2.09897 63.9975 3.81772 78.2579 5.48439 92.0444C5.82814 94.9038 6.18752 97.8673 6.50522 100.721C6.52606 100.893 6.64064 101.029 6.8021 101.06C10.5573 101.846 14.7031 102.195 20.2552 102.195C22.5886 102.195 25 102.133 27.1302 102.081C29.1198 102.029 31.5938 101.966 33.8906 101.966C34.2969 101.966 34.7292 101.951 35.1771 101.914C35.1927 101.914 35.2083 101.909 35.2188 101.909C37.8386 101.68 40.3438 100.878 42.1042 99.7059C44.0365 98.4194 45.0156 96.7475 45.0156 94.7475C45.0156 93.2631 44.9844 86.0548 44.3281 81.3569C40.5052 81.8777 36.0365 82.5079 34.4896 82.7215C34.3542 82.7371 34.2761 82.7423 34.1979 82.7423C33.7604 82.7423 33.3438 82.6017 32.9844 82.3361C32.5313 81.9767 32.2604 81.4923 32.2031 80.9559L31.4115 73.9454C31.2917 72.8829 32.0261 71.9142 33.0886 71.7423C36.4323 71.1902 39.8854 70.8361 43.349 70.685C43.1094 68.1225 42.8386 65.3465 42.5677 62.5756L42.3959 60.8048C42.1354 58.1069 41.875 55.4506 41.6511 53.0288C41.5156 51.5756 41.2656 50.1225 40.375 49.3934C40.2969 49.3256 40.2344 49.284 40.1719 49.2423C39.8281 49.0236 39.4063 48.8881 38.875 48.8309C38.625 48.7944 38.4011 48.784 38.1875 48.7788C37.9636 48.7736 37.7761 48.7683 37.599 48.7736H36.7344C36.4115 48.7736 36.0938 48.7736 35.7709 48.7736Z" fill="#703627"/>
</g>
<path d="M39.7499 77.5023C39.3802 77.9867 38.7447 78.32 38.052 78.3825C37.9635 78.3929 37.8802 78.3929 37.7968 78.3929C37.2343 78.3929 36.677 78.2158 36.2812 77.9033C35.7916 77.5075 35.552 76.9033 35.677 76.3617C35.7708 75.9398 36.0833 75.5387 36.5312 75.2679C36.9114 75.0387 37.3749 74.8929 37.9114 74.8408C38.0052 74.8304 38.0989 74.8252 38.1874 74.8252C39.0937 74.8252 39.6718 75.2992 39.9166 75.7783C40.2031 76.3252 40.1406 76.9867 39.7499 77.5023Z" fill="#C074A3"/>
<path d="M37.797 79.4297C36.9845 79.4297 36.2136 79.1693 35.6303 78.7057C34.8282 78.0703 34.448 77.0547 34.6668 76.1276C34.8178 75.4401 35.3022 74.8047 35.9897 74.388C36.5053 74.0755 37.1147 73.8828 37.8022 73.8099C37.9428 73.7995 38.0678 73.7891 38.1876 73.7891C39.5678 73.7891 40.4636 74.5755 40.8438 75.3047C41.3126 76.2057 41.2084 77.2839 40.5782 78.1224C40.0313 78.8359 39.1251 79.3203 38.1459 79.4089C38.0365 79.4245 37.9168 79.4297 37.797 79.4297ZM38.1876 75.8568C38.1303 75.8568 38.0678 75.862 38.0053 75.8672C37.6407 75.9036 37.3178 76.0026 37.073 76.1484C36.8334 76.2943 36.7136 76.4766 36.6928 76.5859C36.6615 76.7161 36.724 76.9297 36.9324 77.0964C37.172 77.2839 37.5418 77.3984 37.948 77.3568C38.3543 77.3151 38.724 77.1328 38.9168 76.8776C39.0678 76.6797 39.0938 76.4453 38.9949 76.2526C38.948 76.1589 38.7449 75.8568 38.1876 75.8568Z" fill="#703627"/>
<path d="M38.9896 47.7417C38.724 47.7365 38.4636 47.7365 38.2032 47.7365C38.0052 47.7365 37.8021 47.7365 37.6042 47.7417C37.4271 47.7365 37.2605 47.7417 37.0834 47.7417C36.9688 47.7365 36.8542 47.7417 36.7344 47.7417C26.5886 47.7209 16.3229 48.0074 6.18232 48.5855C5.9167 48.5959 5.65107 48.6115 5.39066 48.6272C4.76045 44.6115 4.25003 40.3147 4.95837 35.747C5.02607 35.3251 5.3542 34.9813 5.77607 34.8876C16.1094 32.6272 26.4896 30.9709 36.6302 29.9709C37.1771 29.9188 37.6719 30.3147 37.7292 30.8563L37.8698 32.0386C38.4792 37.3199 39.0521 42.3199 38.9896 47.7417Z" fill="white"/>
<path d="M5.39587 49.6637C4.88546 49.6637 4.44275 49.2939 4.35941 48.7887C3.76046 44.9345 3.18233 40.4137 3.93233 35.5908C4.06254 34.747 4.71879 34.0595 5.55733 33.8772C15.9011 31.6116 26.323 29.9501 36.5313 28.9397C37.6459 28.8355 38.6459 29.6428 38.7657 30.7418L38.9011 31.9189C39.5157 37.2574 40.0938 42.273 40.0261 47.7522C40.0261 48.023 39.9115 48.2887 39.7136 48.4814C39.5157 48.6689 39.224 48.7783 38.974 48.773C38.7084 48.7678 38.4427 48.7678 38.1823 48.7678C38 48.7678 37.8073 48.7678 37.6198 48.773H36.7344C26.6511 48.7574 16.3855 49.0387 6.23962 49.6168C5.96879 49.6272 5.71358 49.6428 5.45837 49.6585C5.43754 49.6585 5.4167 49.6637 5.39587 49.6637ZM36.698 30.971C26.6094 31.997 16.2709 33.648 6.00004 35.898C5.33858 40.0647 5.75525 44.0543 6.27608 47.5439C16.4011 46.971 26.6302 46.6897 36.7344 46.7053H36.8386C36.9323 46.7053 37.0261 46.7053 37.1198 46.7053H37.25C37.375 46.7053 37.5 46.7053 37.625 46.7053C37.724 46.7053 37.8386 46.7053 37.9532 46.7053C37.9375 41.7418 37.4063 37.0855 36.8386 32.1741L36.698 30.971Z" fill="#703627"/>
<path d="M38.9896 47.7415C38.9948 47.7572 38.9948 47.778 38.9896 47.804C38.7188 47.7676 38.4583 47.752 38.2031 47.7467C38.2031 47.7415 38.2031 47.7415 38.2031 47.7363C38.4635 47.7363 38.724 47.7363 38.9896 47.7415Z" fill="#703627"/>
<path d="M11.599 39.9605C11.0834 39.9605 10.6355 39.5803 10.5678 39.0595C10.4948 38.497 10.8959 37.9761 11.4688 37.9032L32.3021 35.2522C32.8698 35.1845 33.3907 35.5803 33.4636 36.148C33.5365 36.7105 33.1355 37.2313 32.5678 37.3042L11.7292 39.9553C11.6876 39.9605 11.6407 39.9605 11.599 39.9605Z" fill="#703627"/>
<path d="M10.5157 45.851C9.98961 45.851 9.5417 45.4603 9.4844 44.9291C9.4167 44.3614 9.82815 43.8509 10.4011 43.7885C17.5677 42.9968 24.8542 42.4916 32.0573 42.2937C32.6719 42.2728 33.1094 42.726 33.125 43.2989C33.1407 43.8666 32.6875 44.3405 32.1146 44.3562C24.9688 44.5541 17.7396 45.0541 10.6302 45.8405C10.5938 45.8457 10.5521 45.851 10.5157 45.851Z" fill="#703627"/>
<path d="M48.2136 75.3564L43.7709 80.445C43.7709 80.445 44.5313 83.8044 44.7761 83.8044C45.0209 83.8044 47.1407 84.0023 48.6823 83.1689C50.2292 82.3408 52.1407 79.5804 52.1407 79.5804L48.2136 75.3564Z" fill="#DDA783"/>
<path d="M43.7709 80.4453C48.6198 81.1224 52.9584 84.6276 54.625 89.2005C53.1042 90.7422 50.9479 91.7109 48.7813 91.6172C46.6094 91.5234 44.474 90.2995 43.474 88.3828C42.8073 87.1068 42.6563 85.6172 42.7917 84.1849C42.9323 82.7526 43.349 81.3672 43.7709 80.4453Z" fill="#B37164"/>
<path d="M48.7865 92.674C47.4688 92.674 46.2292 92.3771 45.1875 91.7834C41.8386 89.8824 41.0625 85.549 42.0313 82.2469C43 78.9396 45.349 76.3199 47.4219 74.0074C47.8021 73.5855 48.4584 73.5438 48.8854 73.924C49.3177 74.3042 49.3542 74.9605 48.9688 75.3824C47.0469 77.5334 44.8646 79.9657 44.0261 82.8251C43.3073 85.2886 43.8282 88.6324 46.2188 89.9917C47.5157 90.7313 49.3125 90.8146 51.1407 90.2209C52.8959 89.6532 56.4427 87.4084 58.2188 85.4709C58.6042 85.049 59.2604 85.0178 59.6823 85.398C60.1094 85.7834 60.1407 86.4344 59.7552 86.8563C57.7396 89.0594 53.8177 91.5282 51.7865 92.1844C50.7709 92.5126 49.7604 92.674 48.7865 92.674Z" fill="#703627"/>
</svg>
