<svg width="90" height="30" viewBox="0 0 90 30" fill="none" xmlns="http://www.w3.org/2000/svg">
<path d="M18.7835 3.1241C18.6549 2.87815 18.1291 2.61866 17.9396 2.41558C17.7523 2.21251 17.1747 2.36369 16.8994 2.35466C16.6151 2.34338 16.3511 2.28246 16.1119 2.43815C15.7599 2.66605 15.4237 3.13764 15.18 3.47835C14.9363 3.82133 15.0537 3.90482 15.1078 4.32225C15.1597 4.74195 15.6471 5.68738 16.0442 5.82051C15.5275 6.33723 15.6629 6.28985 15.5907 6.52C14.7716 6.22892 13.8126 5.77538 13.059 6.19959C11.8405 6.88779 11.8879 7.92123 12.2738 8.69969C12.6619 9.48041 13.1899 9.93847 14.0518 9.86852C13.42 11.545 13.1831 13.7044 13.2553 15.6179C12.6777 15.5524 12.0797 15.487 11.5224 15.6607C10.965 15.8322 10.4573 16.3061 10.4325 16.8927C10.41 17.4343 10.789 17.9059 11.1907 18.2691C11.818 18.84 12.5558 19.2868 13.3929 19.4966C13.3884 20.0224 13.4561 20.5481 13.5734 21.2002C12.9371 21.462 12.2986 21.7282 11.7254 22.1118C11.1546 22.4977 10.6491 23.0121 10.3874 23.6529C10.0738 24.4179 10.1482 25.3317 10.5814 26.0357C10.9583 26.6495 11.5743 27.0827 12.2377 27.3512C12.901 27.6175 13.8893 27.5407 14.6001 27.6197C15.8096 27.7528 16.4887 27.7303 17.7546 27.5949C18.506 28.1658 19.2777 28.7457 20.178 29.0187C21.0693 29.2872 22.0215 29.2376 22.9511 29.1834C24.1222 29.118 25.3068 29.048 26.4192 28.6757C27.3895 28.3508 28.274 27.8025 29.0705 27.1572C29.9821 26.4193 30.7921 25.5416 31.3743 24.5194C31.9564 23.4995 32.3062 22.3284 32.2362 21.1551C32.4438 18.664 32.0377 16.1256 30.9569 13.7721C32.4213 12.6642 33.2968 10.8343 33.3216 8.99077C33.3487 7.14503 32.5499 5.31959 31.169 4.13271C30.3995 3.40841 29.4947 2.82625 28.5177 2.42912C27.8498 2.15835 27.1503 1.97333 26.4418 1.85825C23.6777 1.41374 21.5499 1.76799 18.7835 3.1241Z" fill="#DDA783"/>
<path d="M19.1762 23.4363C18.9619 21.9674 18.6054 20.521 18.1135 19.1198C17.7231 18.0096 17.2267 16.8972 16.3738 16.0917C15.5208 15.2839 14.2369 14.8484 13.1426 15.3426C13.1719 17.4591 13.2058 19.6049 13.7924 21.6357C14.3768 23.6665 15.5953 25.607 17.4568 26.5863C17.3034 25.2663 18.03 23.8876 19.1762 23.4363Z" fill="#FFDCC4"/>
<path d="M14.8907 10.2159C14.1483 10.2159 13.5143 10.0693 12.9998 9.78046C12.2349 9.34949 11.7453 8.57102 11.752 7.79482C11.7588 7.03892 12.2417 6.29656 12.9569 5.94456C13.6023 5.6264 14.4146 5.62415 15.1299 5.93553C15.7549 6.2063 16.3213 6.72076 16.7206 7.38189C16.7974 7.51051 16.7567 7.67974 16.6281 7.75646C16.5018 7.83543 16.3348 7.79482 16.2558 7.6662C15.9151 7.1021 15.439 6.66435 14.9155 6.43646C14.3424 6.18825 13.6993 6.18825 13.1939 6.43871C12.6614 6.70046 12.3003 7.24651 12.2958 7.79933C12.2913 8.37697 12.6704 8.96815 13.2638 9.3021C13.767 9.58415 14.4191 9.70374 15.2066 9.65861C15.3555 9.65184 15.4864 9.76692 15.4932 9.91585C15.5022 10.067 15.3871 10.1979 15.2382 10.2069C15.1208 10.2137 15.0035 10.2159 14.8907 10.2159Z" fill="#703627"/>
<path d="M15.7102 8.46724C15.62 8.46724 15.532 8.42212 15.4801 8.33863C15.0581 7.66622 14.1962 7.30745 13.4268 7.4857C13.2823 7.51955 13.1357 7.42704 13.1018 7.28037C13.068 7.13145 13.1582 6.98478 13.3049 6.95093C14.291 6.72529 15.3989 7.1856 15.9381 8.0453C16.0194 8.17391 15.981 8.34314 15.8547 8.42437C15.8095 8.45145 15.7599 8.46724 15.7102 8.46724Z" fill="#703627"/>
<path d="M16.0504 5.97845C15.9917 5.97845 15.9331 5.95815 15.8834 5.91979L15.8383 5.88369C15.7097 5.7844 15.5878 5.68963 15.4637 5.54748C14.8883 4.88409 14.6875 3.98378 14.9515 3.25496C15.2088 2.54645 15.9105 2.00942 16.7002 1.92142C17.4155 1.84019 18.1805 2.11096 18.7513 2.64573C18.9003 2.78563 18.9973 2.91876 19.0695 3.0925C19.1304 3.2324 19.065 3.39261 18.9273 3.45353C18.7897 3.51219 18.6295 3.44902 18.5708 3.30912C18.5257 3.20532 18.476 3.13537 18.3813 3.04737C17.9255 2.61866 17.3185 2.40204 16.7612 2.46522C16.1722 2.53291 15.6488 2.92553 15.4615 3.44225C15.2629 3.98604 15.4254 4.67199 15.8721 5.18645C15.9601 5.28799 16.0527 5.3602 16.17 5.45271L16.2174 5.48656C16.3347 5.58133 16.3573 5.75281 16.2648 5.8724C16.2106 5.94009 16.1294 5.97845 16.0504 5.97845Z" fill="#703627"/>
<path d="M21.5954 28.9217C21.7014 27.8657 21.7601 26.7916 21.5525 25.7537C21.3472 24.7135 20.8508 23.7003 19.9753 23.1475C18.8696 23.486 17.94 24.4156 17.6918 25.5529C17.4436 26.6878 17.9445 27.9762 18.9441 28.5584C19.6774 28.9871 20.5642 29.0165 21.5954 28.9217Z" fill="#B27966"/>
<mask id="mask0_375_352" style="mask-type:luminance" maskUnits="userSpaceOnUse" x="16" y="13" width="18" height="17">
<path d="M16.9492 13.1335H33.1232V29.4248H16.9492V13.1335Z" fill="white"/>
</mask>
<g mask="url(#mask0_375_352)">
<path d="M23.3577 29.418C22.7439 29.418 22.1618 29.3842 21.6496 29.3436C20.8531 29.2827 20.0092 29.1924 19.2239 28.8675C18.3327 28.4997 17.6602 27.8521 17.3805 27.0939C16.8795 25.7356 17.6738 24.226 18.7208 23.4408C19.7993 22.6262 21.1577 22.3306 22.3581 22.0689C22.5025 22.0373 22.6492 22.1298 22.6808 22.2788C22.7124 22.4254 22.6198 22.5721 22.4709 22.6037C21.3269 22.8541 20.0295 23.1362 19.0457 23.8785C18.1612 24.5442 17.482 25.7965 17.8904 26.9044C18.1183 27.5181 18.6779 28.0507 19.4293 28.362C20.1423 28.6554 20.9388 28.7389 21.6925 28.7975C23.3419 28.9284 25.7382 28.9893 27.4711 28.0236C33.656 24.5758 32.3879 18.3639 30.8964 13.9909C30.849 13.8488 30.9234 13.6931 31.0656 13.6435C31.2078 13.5961 31.3612 13.6705 31.4108 13.8127C32.9655 18.3729 34.2765 24.8556 27.7351 28.5019C26.4264 29.2308 24.8041 29.418 23.3577 29.418Z" fill="#703627"/>
</g>
<path d="M14.3109 27.455C14.4169 26.4012 14.2274 25.6295 14.0198 24.5893C13.8145 23.5491 13.3858 23.0527 12.6908 21.6808C11.5874 22.0215 10.6578 22.9512 10.4096 24.0862C10.1614 25.2234 10.6623 26.5118 11.6596 27.094C12.3929 27.5204 13.2797 27.552 14.3109 27.455Z" fill="#B27966"/>
<path d="M15.6173 27.913C15.1254 27.913 14.6719 27.904 14.365 27.8792C13.5685 27.816 12.7246 27.728 11.9394 27.4031C11.0481 27.0353 10.378 26.3877 10.0982 25.6295C9.59498 24.2689 10.3915 22.7616 11.4362 21.9741C12.0026 21.5477 13.018 21.1235 13.564 20.9407C13.7062 20.8933 13.8596 20.97 13.907 21.1144C13.9544 21.2566 13.8777 21.4123 13.7355 21.4597C13.1195 21.6673 12.2169 22.0711 11.7634 22.4141C10.8789 23.0775 10.1974 24.3321 10.6081 25.4377C10.8338 26.0537 11.3956 26.5862 12.147 26.8954C12.86 27.191 13.6543 27.2744 14.4079 27.3331C15.2022 27.3963 17.1291 27.3512 17.9415 27.3105C18.0881 27.306 18.219 27.4211 18.2258 27.57C18.2325 27.7212 18.1175 27.8498 17.9685 27.8588C17.4338 27.8859 16.4658 27.913 15.6173 27.913Z" fill="#703627"/>
<path d="M11.6218 18.5467C12.0731 18.2669 12.3507 17.7569 12.4522 17.2334C12.5537 16.7077 12.4996 16.1661 12.4116 15.6404C11.9423 15.6043 11.421 15.584 11.0532 15.8818C10.8727 16.0262 10.7509 16.2361 10.6787 16.4572C10.5478 16.8589 10.5749 17.3101 10.7509 17.6915C10.9291 18.0751 11.254 18.3842 11.6218 18.5467Z" fill="#B27966"/>
<path d="M13.2081 19.7199C13.1698 19.7199 13.1337 19.7132 13.0976 19.6974C12.5154 19.4356 11.1841 18.7136 10.7396 18.2194C10.3041 17.7343 10.0086 16.8994 10.3921 16.2089C10.611 15.8186 11.0352 15.5253 11.5565 15.4079C11.8859 15.3335 12.4319 15.3696 13.2307 15.5185C13.3774 15.5456 13.4744 15.6877 13.4473 15.8366C13.4202 15.9856 13.2781 16.0826 13.1314 16.0555C12.195 15.8818 11.8182 15.9111 11.6738 15.9427C11.3037 16.0262 11.0104 16.2202 10.866 16.4775C10.6246 16.9107 10.8231 17.4951 11.1413 17.8516C11.5091 18.26 12.7546 18.9437 13.3187 19.1964C13.4541 19.2574 13.5173 19.4198 13.4564 19.5575C13.4112 19.659 13.3119 19.7199 13.2081 19.7199Z" fill="#703627"/>
<path d="M22.1028 9.56384C22.1028 9.66086 22.0825 9.75563 22.0464 9.84589C22.0103 9.93615 21.9561 10.0151 21.8884 10.0851C21.8185 10.1528 21.7395 10.2069 21.6515 10.2453C21.5612 10.2814 21.4687 10.2994 21.3717 10.2994C21.2747 10.2994 21.1822 10.2814 21.0919 10.2453C21.0017 10.2069 20.9227 10.1528 20.855 10.0851C20.7873 10.0151 20.7331 9.93615 20.697 9.84589C20.6609 9.75563 20.6406 9.66086 20.6406 9.56384C20.6406 9.46681 20.6609 9.37204 20.697 9.28179C20.7331 9.19153 20.7873 9.11255 20.855 9.04486C20.9227 8.97491 21.0017 8.92076 21.0919 8.88466C21.1822 8.8463 21.2747 8.82825 21.3717 8.82825C21.4687 8.82825 21.5612 8.8463 21.6515 8.88466C21.7395 8.92076 21.8185 8.97491 21.8884 9.04486C21.9561 9.11255 22.0103 9.19153 22.0464 9.28179C22.0825 9.37204 22.1028 9.46681 22.1028 9.56384Z" fill="#DD917A"/>
<path d="M22.4904 7.31877C22.2219 7.53313 21.9399 7.7678 21.8383 8.09723C21.8022 8.21231 21.7955 8.34544 21.8632 8.44472C21.9331 8.54851 22.0707 8.58687 22.1948 8.57108C22.319 8.55528 22.4318 8.49436 22.5423 8.43344C22.7793 8.29805 23.0117 8.15364 23.2283 7.98441C23.3524 7.88738 23.472 7.77908 23.5442 7.63692C23.6141 7.49477 23.6277 7.31426 23.5374 7.18338C23.4404 7.03897 23.2463 6.98933 23.0771 7.01641C22.9056 7.04123 22.7409 7.11569 22.4904 7.31877Z" fill="#703627"/>
<path d="M28.6372 4.13048C28.0686 4.36515 27.5112 4.64269 27.0396 5.04207C26.5681 5.4392 26.189 5.9672 26.0558 6.57192C25.9002 7.27141 26.0829 8.00248 26.3198 8.67715C26.5726 9.40597 26.893 10.1145 27.3149 10.7598C27.5609 11.1344 27.852 11.4977 28.2513 11.6917C28.9147 12.0144 29.7 11.8068 30.4062 11.5947C31.0809 11.3916 31.7646 11.1863 32.367 10.8162C32.9695 10.4484 33.1455 10.2499 33.3283 9.56392C33.4524 9.09008 33.4298 8.01151 33.3238 7.53315C33.0936 6.51551 32.8725 6.09582 32.2768 5.24515C31.9767 4.81643 31.6721 4.09438 31.196 3.88453C30.4942 3.57315 29.6548 3.71079 28.6372 4.13048Z" fill="#B27966"/>
<path d="M30.1896 5.24056C30.1422 5.43461 30.158 5.64446 30.2393 5.82723C30.2709 5.90169 30.3295 5.98292 30.413 5.98066C30.492 5.98066 30.5461 5.90394 30.589 5.83625C30.6793 5.69184 30.7718 5.54292 30.8169 5.3782C30.862 5.22476 30.853 5.03523 30.7289 4.93594C30.6341 4.85923 30.492 4.86148 30.3859 4.9224C30.2821 4.98333 30.2257 5.09841 30.1896 5.24056Z" fill="#703627"/>
<path d="M27.9508 6.256C28.1268 6.34625 28.2712 6.49969 28.3524 6.68246C28.3885 6.75692 28.4088 6.85395 28.3524 6.91487C28.3005 6.97354 28.208 6.96451 28.129 6.95323C27.962 6.9239 27.7905 6.89456 27.6371 6.8201C27.4927 6.75241 27.3596 6.61928 27.3686 6.45908C27.3754 6.33723 27.4701 6.23118 27.5852 6.19282C27.698 6.15446 27.8221 6.18831 27.9508 6.256Z" fill="#703627"/>
<path d="M31.2751 9.60225C31.0111 9.60225 30.7313 9.50522 30.4899 9.31794L30.4493 9.28861L30.3026 8.96368C30.0476 8.39958 29.7927 7.83773 29.5602 7.33907C29.5129 7.23753 29.5557 7.11568 29.6595 7.06604C29.7611 7.01865 29.8829 7.06378 29.9303 7.16532C30.1604 7.66399 30.4177 8.22809 30.6727 8.79445L30.7764 9.02235C31.0314 9.20061 31.3383 9.24122 31.5504 9.12389C31.7738 8.99979 31.9069 8.69066 31.8798 8.35445C31.8708 8.24163 31.9543 8.14235 32.0671 8.13332C32.1777 8.12204 32.277 8.20778 32.286 8.32061C32.3266 8.82379 32.1145 9.27958 31.7467 9.48266C31.6046 9.56389 31.4421 9.60225 31.2751 9.60225Z" fill="#703627"/>
<path d="M29.7747 10.207C29.4317 10.207 29.0639 10.0377 28.7864 9.73988C28.7096 9.65865 28.7119 9.52777 28.7931 9.4488C28.8766 9.37208 29.0052 9.37659 29.082 9.45782C29.3256 9.71731 29.6596 9.84593 29.9168 9.77824C30.165 9.7128 30.3455 9.46685 30.3749 9.15095C30.3839 9.03813 30.4832 8.95464 30.596 8.96593C30.7088 8.97495 30.7901 9.07649 30.781 9.18931C30.7359 9.67895 30.4358 10.0671 30.0206 10.1754C29.9416 10.1957 29.8582 10.207 29.7747 10.207Z" fill="#703627"/>
<path d="M17.5492 26.9676C17.5041 26.9676 17.4612 26.9563 17.4184 26.9337C15.5636 25.9048 14.2255 24.2396 13.6502 22.2426C12.804 19.3093 12.4768 14.1895 13.7585 9.8775C13.8013 9.73309 13.9525 9.65186 14.0969 9.69473C14.2391 9.7376 14.3226 9.89104 14.2797 10.0355C13.0274 14.2414 13.3455 19.2326 14.1714 22.0892C14.7062 23.9462 15.954 25.4941 17.6801 26.4531C17.811 26.5253 17.8606 26.6923 17.7884 26.8254C17.7388 26.9157 17.6463 26.9676 17.5492 26.9676Z" fill="#703627"/>
<mask id="mask1_375_352" style="mask-type:luminance" maskUnits="userSpaceOnUse" x="15" y="1" width="19" height="16">
<path d="M15.2158 1.2648H33.7004V16.5994H15.2158V1.2648Z" fill="white"/>
</mask>
<g mask="url(#mask1_375_352)">
<path d="M26.0963 16.2925C25.9587 16.2925 25.8413 16.1887 25.8255 16.0488C25.8097 15.8999 25.9158 15.7645 26.0647 15.7465C28.0007 15.5208 29.763 14.7221 31.0311 13.4946C32.403 12.1678 33.1769 10.3198 33.098 8.55077C33.0235 6.80431 32.1096 5.03979 30.6565 3.83261C29.3207 2.72471 27.5246 2.04779 25.5954 1.93045C23.8579 1.82666 22.0302 2.13804 20.1642 2.8601C17.9822 3.70625 16.5697 5.376 15.7687 6.63056C15.6875 6.75692 15.5182 6.79302 15.3941 6.71179C15.2678 6.63056 15.2317 6.46133 15.3129 6.33272C16.1568 5.01046 17.6505 3.2482 19.9701 2.35015C21.9084 1.59876 23.8128 1.27609 25.627 1.3844C27.6713 1.5085 29.5802 2.2283 31.0017 3.41066C32.5722 4.71487 33.5583 6.62605 33.6418 8.52595C33.7252 10.4507 32.8904 12.4566 31.4079 13.8917C30.0563 15.1982 28.179 16.0511 26.1279 16.2903C26.1166 16.2925 26.1053 16.2925 26.0963 16.2925Z" fill="#703627"/>
</g>
<path d="M28.759 19.3183C28.6281 19.3183 28.5108 19.2213 28.4905 19.0859L28.1881 17.0055C28.1678 16.8566 28.2694 16.7167 28.4183 16.6941C28.5672 16.6738 28.7048 16.7776 28.7252 16.9265L29.0298 19.0047C29.0501 19.1558 28.9485 19.2935 28.7996 19.316C28.7861 19.3183 28.7725 19.3183 28.759 19.3183Z" fill="#C48C71"/>
<path d="M30.4824 18.4609C30.3403 18.4609 30.223 18.3526 30.2117 18.2082L30.074 16.4075C30.0628 16.2564 30.1733 16.1232 30.3245 16.112C30.4712 16.1007 30.6043 16.2135 30.6156 16.3647L30.7532 18.1653C30.7645 18.3165 30.6517 18.4496 30.5028 18.4609C30.496 18.4609 30.4892 18.4609 30.4824 18.4609Z" fill="#C48C71"/>
<path d="M29.8514 22.4525C29.8401 22.4525 29.8311 22.4525 29.8221 22.4525C29.6709 22.4345 29.5649 22.3013 29.5807 22.1502L29.7725 20.3473C29.7882 20.1984 29.9236 20.0878 30.0726 20.1058C30.2215 20.1216 30.3298 20.257 30.314 20.4059L30.1199 22.2088C30.1064 22.3487 29.9868 22.4525 29.8514 22.4525Z" fill="#C48C71"/>
<path d="M25.7779 3.74228C25.7147 3.74228 25.6492 3.71972 25.5973 3.67233L24.6361 2.81264C24.5233 2.71336 24.512 2.53961 24.6135 2.42679C24.7128 2.31397 24.8843 2.30269 24.9971 2.40423L25.9584 3.26167C26.0712 3.3632 26.0825 3.53695 25.9809 3.64977C25.929 3.71069 25.8546 3.74228 25.7779 3.74228Z" fill="#C48C71"/>
<path d="M23.4951 4.4351C23.4454 4.4351 23.3958 4.42156 23.3507 4.39223L21.7824 3.39489C21.6561 3.31366 21.6177 3.14443 21.699 3.01582C21.7779 2.88946 21.9472 2.8511 22.0735 2.93233L23.6417 3.92966C23.7681 4.01089 23.8065 4.18013 23.7252 4.30648C23.6756 4.38997 23.5853 4.4351 23.4951 4.4351Z" fill="#C48C71"/>
<path d="M5.42285 28.2717C5.71619 28.6102 6.16973 28.7366 6.6165 28.8246C7.57547 29.0096 8.58635 29.1021 9.67619 29.1021C10.2967 29.1021 10.942 29.0728 11.6167 29.0118C11.9935 28.9803 12.3591 28.9374 12.6998 28.7839C13.0924 28.6079 13.3767 28.2921 13.4625 27.9423C13.5956 27.3827 13.3316 27.0149 13.0292 26.699C12.4448 26.0943 11.637 25.7062 10.8044 25.634C10.8202 25.7062 10.8405 25.7784 10.8608 25.8484C10.9488 26.1259 11.0684 26.3831 11.2106 26.5862C11.2218 26.6043 11.2263 26.6223 11.2286 26.6426C11.1293 26.602 11.0323 26.5659 10.933 26.532C10.0395 26.2319 9.06696 26.1507 8.13732 26.2974C8.04255 26.3109 7.94778 26.329 7.85301 26.3493C8.00193 26.1507 8.11024 25.9296 8.17568 25.6927C8.19599 25.6227 8.21404 25.5505 8.22532 25.4806C8.1847 25.4828 8.14183 25.4896 8.0967 25.4941C7.59127 25.5483 6.89855 25.6227 6.48111 25.7807C5.94183 25.986 5.52439 26.3335 5.30552 26.7532C5.03926 27.2609 5.0889 27.8836 5.42285 28.2717Z" fill="#F57E82"/>
<mask id="mask2_375_352" style="mask-type:luminance" maskUnits="userSpaceOnUse" x="4" y="24" width="11" height="6">
<path d="M4.81836 24.6863H14.0606V29.4248H4.81836V24.6863Z" fill="white"/>
</mask>
<g mask="url(#mask2_375_352)">
<path d="M9.6765 29.3774C8.56408 29.3774 7.54644 29.2827 6.5649 29.0931C6.073 28.9961 5.56757 28.8539 5.22008 28.4523C5.21782 28.45 5.21782 28.45 5.21782 28.45C4.81167 27.9784 4.74849 27.2293 5.06439 26.6269C5.31485 26.1462 5.78418 25.7536 6.38664 25.5257C6.83341 25.3542 7.54418 25.2775 8.0609 25.2211L8.19854 25.2076C8.28429 25.1985 8.36777 25.2301 8.42419 25.2933C8.48285 25.3565 8.50767 25.4422 8.49413 25.5257C8.4806 25.6092 8.46029 25.6904 8.43772 25.7717C8.41516 25.8461 8.39034 25.9183 8.36326 25.9905C9.13947 25.9025 9.93373 25.9657 10.6874 26.1711C10.6558 26.0921 10.6287 26.0131 10.6016 25.9296C10.5791 25.8529 10.5588 25.7762 10.5407 25.6995C10.5181 25.6137 10.5407 25.5235 10.5971 25.4558C10.6535 25.3903 10.7393 25.3542 10.8273 25.361C11.7231 25.44 12.5963 25.8574 13.2236 26.5073C13.5666 26.8638 13.8915 27.3196 13.7268 28.0055C13.623 28.4388 13.28 28.8223 12.8107 29.0344C12.4316 29.2037 12.0412 29.2511 11.6396 29.2849C10.9604 29.3458 10.2993 29.3774 9.6765 29.3774ZM5.62849 28.0913C5.86993 28.3688 6.27157 28.4771 6.6687 28.5538C8.14665 28.8427 9.74644 28.9036 11.5922 28.7389C11.9464 28.7095 12.2872 28.6689 12.5895 28.5335C12.9054 28.3914 13.1333 28.1454 13.1988 27.8769C13.2958 27.473 13.1311 27.1977 12.8332 26.8886C12.3932 26.4328 11.8111 26.1101 11.1928 25.9725C11.2605 26.1417 11.344 26.3019 11.432 26.4283C11.4749 26.496 11.4974 26.5614 11.4997 26.6291C11.5042 26.7216 11.4613 26.8119 11.3869 26.866C11.3101 26.9202 11.2131 26.9315 11.1274 26.8954C11.0326 26.8593 10.9378 26.8232 10.8453 26.7916C10.0014 26.5073 9.08757 26.4283 8.2008 26.5637C8.19403 26.5659 8.18501 26.5682 8.17598 26.5704C8.08572 26.5817 7.99772 26.5998 7.90972 26.6178C7.79916 26.6404 7.68408 26.593 7.62542 26.496C7.56449 26.399 7.56901 26.2749 7.6367 26.1846C7.7247 26.065 7.79916 25.9341 7.85557 25.7965C7.4088 25.8461 6.89434 25.9183 6.57844 26.0379C6.10234 26.2184 5.73454 26.5185 5.545 26.8818C5.3329 27.288 5.36675 27.7867 5.62849 28.0913Z" fill="#703627"/>
</g>
<path d="M1.8916 18.233C2.33837 20.3743 3.68771 22.1953 5.53571 23.2964C5.57181 23.2422 5.61017 23.1858 5.6553 23.1294C6.10884 22.5676 6.98207 22.0711 7.6793 22.0125C7.9433 21.9922 8.21181 21.9899 8.47356 21.9877C8.94064 21.9831 9.42351 21.9809 9.87479 21.8613C10.5314 21.6876 11.2128 21.1302 11.1858 20.433C11.1813 20.336 11.1632 20.2367 11.1474 20.1329C11.1068 19.8982 11.0684 19.6545 11.1745 19.4266C11.3257 19.104 11.7093 18.9799 12.0184 18.9731C12.9119 18.9596 13.6565 19.65 13.9973 20.3427C14.3177 20.9926 14.4057 21.8139 14.4327 22.5766C14.435 22.6623 14.4373 22.7481 14.4395 22.8316C16.3281 21.419 17.5489 19.1897 17.5489 16.6873C17.5489 16.2315 17.5489 15.9111 17.4315 15.3515C17.4067 15.5411 17.3616 15.7239 17.3006 15.8953C17.0953 16.4685 16.6959 16.9265 16.1589 17.1838C15.8791 17.3169 15.588 17.3823 15.3037 17.3823C14.9382 17.3823 14.5862 17.2718 14.2996 17.0551C14.0266 16.8476 14.0379 16.4685 14.0717 16.2609C14.1078 16.0104 14.18 15.7554 14.25 15.5118C14.4012 14.9747 14.5433 14.467 14.3651 13.9887C14.2116 13.5825 13.8461 13.2892 13.4918 13.0071C13.4444 12.9688 13.3971 12.9304 13.3497 12.8898C12.9841 12.592 12.5689 12.2535 12.5735 11.6533C12.578 10.9673 13.2707 10.5093 13.7039 10.2927C13.7942 10.2475 13.8709 10.2137 13.9296 10.1889C12.6931 9.40364 11.2219 8.9501 9.64012 8.9501C6.22617 8.9501 3.09201 11.0192 2.20524 14.0541C2.3316 13.8894 2.48053 13.7179 2.62494 13.5825C2.66329 13.5464 2.70391 13.5126 2.74227 13.4832C3.04012 13.2441 3.41017 13.1628 3.70576 13.2711C3.87273 13.3298 4.00586 13.4404 4.13448 13.5487C4.23602 13.6344 4.33078 13.7134 4.44135 13.7675C4.73694 13.9097 5.14309 13.8465 5.53345 13.5961C5.70268 13.4878 5.86289 13.3546 6.01632 13.226C6.18104 13.0884 6.35253 12.9462 6.53756 12.8289C7.52812 12.2039 8.92484 12.3934 9.7191 13.2576C10.0169 13.5825 10.2629 14.0925 10.0643 14.5483C10.0305 14.6272 9.98535 14.6972 9.94248 14.7649C9.89059 14.8461 9.83869 14.9251 9.81612 15.0108C9.73038 15.3087 9.97182 15.6065 10.0801 15.7193C10.1501 15.7893 10.2245 15.8592 10.299 15.9247C10.4479 16.0601 10.6036 16.2 10.7164 16.3805C11.0797 16.9581 10.8676 17.7185 10.5134 18.1788C10.1275 18.6843 9.52279 19.025 8.89325 19.0904C8.81879 19.0972 8.74207 19.1017 8.66761 19.1017C8.11028 19.1017 7.54617 18.8941 7.12422 18.5286C7.05202 18.4654 6.98207 18.3977 6.91663 18.3323C6.74289 18.163 6.58268 18.0051 6.37509 17.9284C6.14268 17.8426 5.84935 17.8674 5.54699 18.0028C5.34843 18.0908 5.16791 18.2082 4.97612 18.3345C4.90391 18.3842 4.83171 18.4293 4.7595 18.4744C4.18863 18.8332 3.66514 19.0092 3.16196 19.0092C3.15971 19.0092 3.15971 19.0092 3.15971 19.0092C2.77837 19.0069 2.4557 18.8896 2.20976 18.6685C2.08114 18.5511 1.95027 18.4383 1.8916 18.233Z" fill="#A5DBD3"/>
<path d="M5.53386 23.5717C5.48873 23.5717 5.43909 23.5582 5.39621 23.5334C3.45344 22.3713 2.07929 20.4601 1.62575 18.2895C1.59641 18.1451 1.68441 18.0029 1.82657 17.9668C1.96872 17.933 2.11313 18.0164 2.15375 18.1563C2.18759 18.2737 2.25754 18.3414 2.37939 18.4519C2.58924 18.6437 2.84872 18.734 3.16011 18.734C3.61365 18.734 4.08749 18.5738 4.61549 18.2421C4.6877 18.1992 4.75765 18.1541 4.8276 18.1067C5.01714 17.9803 5.21344 17.8517 5.43683 17.7524C5.80463 17.5877 6.17242 17.5607 6.47027 17.6712C6.72975 17.7682 6.91929 17.9533 7.10206 18.1338C7.17201 18.1992 7.23519 18.2624 7.30288 18.3211C7.72258 18.6866 8.3115 18.8716 8.86883 18.8175C9.42166 18.7611 9.95868 18.4587 10.2994 18.0119C10.6063 17.6125 10.7687 16.974 10.4867 16.5272C10.3919 16.3783 10.252 16.2519 10.1166 16.1301C10.0399 16.0579 9.95868 15.9834 9.88648 15.909C9.74432 15.76 9.42842 15.3697 9.55478 14.9342C9.59089 14.8123 9.65407 14.7108 9.71273 14.6205C9.75109 14.5574 9.78945 14.4987 9.81653 14.44C9.96094 14.1038 9.75786 13.7044 9.51868 13.4427C8.81242 12.671 7.56688 12.504 6.68237 13.0591C6.51088 13.1697 6.34842 13.3051 6.18822 13.4359C6.04832 13.5555 5.87006 13.7044 5.68052 13.8263C5.21119 14.1286 4.7035 14.1986 4.32442 14.0136C4.18452 13.9459 4.0717 13.8511 3.96114 13.7586C3.83252 13.6503 3.73098 13.5713 3.6159 13.5284C3.40831 13.454 3.13303 13.5194 2.9119 13.6977C2.8758 13.7247 2.84421 13.7541 2.81036 13.7834C2.68626 13.8985 2.54862 14.0542 2.42226 14.2212C2.34103 14.325 2.19888 14.3565 2.08154 14.2979C1.96647 14.237 1.9078 14.1016 1.94616 13.9752C2.85775 10.8546 6.0235 8.6749 9.64053 8.6749C11.22 8.6749 12.7544 9.11941 14.0766 9.95654C14.1624 10.0107 14.2098 10.11 14.2007 10.2115C14.194 10.3131 14.1308 10.4011 14.036 10.4417C13.9819 10.4642 13.9074 10.4981 13.8217 10.5387C13.4606 10.7215 12.8491 11.1096 12.8446 11.6556C12.8424 12.125 13.1718 12.3935 13.5193 12.6778L13.6637 12.7929C14.027 13.0839 14.4399 13.4134 14.6182 13.8917C14.8303 14.4581 14.6678 15.0312 14.5121 15.5863C14.4422 15.8322 14.3745 16.0737 14.3406 16.3038C14.3203 16.4212 14.2978 16.71 14.4647 16.8363C14.8822 17.1522 15.5049 17.1929 16.042 16.9356C16.5068 16.7145 16.8633 16.3106 17.0438 15.8006C17.1002 15.6472 17.1408 15.4825 17.1612 15.3155C17.1792 15.1846 17.2875 15.0831 17.4206 15.0786C17.5493 15.0718 17.6688 15.1643 17.6959 15.2952C17.8223 15.8819 17.8223 16.2203 17.8223 16.6874C17.8223 19.2011 16.6489 21.5207 14.6024 23.0528C14.5211 23.1137 14.4128 23.1227 14.3203 23.0776C14.2301 23.0325 14.1714 22.9422 14.1691 22.8384L14.1624 22.5879C14.1398 21.9877 14.0744 21.1168 13.754 20.4647C13.4516 19.8487 12.8063 19.2349 12.0233 19.2484C11.8067 19.253 11.5201 19.3319 11.4186 19.544C11.3486 19.6952 11.3802 19.8848 11.4141 20.0878C11.4321 20.1961 11.4524 20.3067 11.4569 20.4218C11.4908 21.2612 10.7033 21.9268 9.94514 22.1254C9.46453 22.2517 8.97037 22.2562 8.48976 22.2608C8.21673 22.263 7.95499 22.2653 7.70001 22.2856C7.09078 22.3375 6.28524 22.782 5.8678 23.301C5.82945 23.3506 5.79334 23.398 5.76401 23.4454C5.71211 23.5266 5.62411 23.5717 5.53386 23.5717ZM2.42677 19.1311C2.97734 20.6768 4.04688 22.0238 5.46616 22.9332C5.97837 22.3127 6.91478 21.8005 7.65714 21.7395C7.93017 21.717 8.20319 21.717 8.46945 21.7147C8.93201 21.7102 9.39232 21.7057 9.8075 21.5951C10.3693 21.4485 10.9357 20.9769 10.9131 20.4443C10.9109 20.3654 10.8951 20.2729 10.8793 20.1781C10.8364 19.9276 10.7845 19.6185 10.9267 19.3116C11.1343 18.8716 11.6239 18.7092 12.012 18.7001C13.0161 18.6821 13.8623 19.4515 14.2414 20.221C14.5573 20.8618 14.6543 21.629 14.6926 22.2811C16.3421 20.8618 17.2785 18.8513 17.2785 16.6874C17.2785 16.64 17.2785 16.5949 17.2785 16.5498C17.028 16.9311 16.6851 17.2357 16.2744 17.432C15.5546 17.7728 14.7175 17.7118 14.1376 17.2741C13.851 17.0552 13.7314 16.6807 13.8036 16.2203C13.842 15.9563 13.9142 15.6991 13.9841 15.4509C14.1285 14.9455 14.2594 14.4806 14.1105 14.0858C13.9841 13.7496 13.6479 13.4811 13.323 13.2216L13.1763 13.102C12.8063 12.7996 12.2963 12.3844 12.3008 11.6534C12.3054 11.0893 12.6799 10.5703 13.3591 10.1686C12.2264 9.54813 10.9515 9.2232 9.64053 9.2232C6.6914 9.2232 4.06944 10.7598 2.88708 13.0726C3.18944 12.935 3.51662 12.9102 3.79867 13.014C4.01529 13.0907 4.17775 13.2283 4.30862 13.3389C4.40114 13.4156 4.48011 13.4811 4.55908 13.5194C4.76667 13.621 5.08257 13.5623 5.38719 13.366C5.54739 13.2622 5.71211 13.1245 5.84298 13.0162C6.01447 12.8718 6.19273 12.7252 6.39355 12.5965C7.49242 11.9038 9.04032 12.1137 9.91807 13.0726C10.2746 13.4607 10.5657 14.0813 10.3129 14.6589C10.2701 14.7582 10.2159 14.8439 10.1708 14.9116C10.1279 14.9793 10.0896 15.0425 10.076 15.0876C10.0377 15.2185 10.1618 15.408 10.2768 15.5276C10.34 15.5953 10.4122 15.6585 10.4799 15.7217C10.6356 15.8616 10.8116 16.0195 10.9447 16.2339C11.3802 16.9243 11.1388 17.8134 10.7304 18.3459C10.2994 18.91 9.62248 19.2891 8.92073 19.3613C8.20545 19.4312 7.47888 19.1966 6.94637 18.7362C6.87191 18.6686 6.7997 18.6009 6.72975 18.5332C6.56729 18.373 6.43416 18.2421 6.28073 18.1857C6.11827 18.1248 5.89037 18.1496 5.6557 18.2534C5.47519 18.3323 5.29693 18.4497 5.12544 18.5648C5.05098 18.6144 4.97652 18.6618 4.90206 18.7092C4.28606 19.095 3.71744 19.2823 3.16236 19.2823C2.89385 19.2823 2.64565 19.2304 2.42677 19.1311Z" fill="#703627"/>
<path d="M1.73438 16.6874C1.73438 17.0823 1.76597 17.4704 1.82463 17.8494C1.84268 17.9781 1.86525 18.1067 1.89232 18.233C1.97355 18.4045 2.08186 18.5512 2.21048 18.6685C2.45643 18.8896 2.77909 19.007 3.16043 19.0092C3.16043 19.0092 3.16043 19.0092 3.16268 19.0092C3.66586 19.0092 4.18935 18.8332 4.76023 18.4745C4.83243 18.4293 4.90464 18.3842 4.97684 18.3346C5.16864 18.2082 5.34915 18.0909 5.54771 18.0029C5.85007 17.8675 6.14341 17.8427 6.37582 17.9284C6.58341 18.0051 6.74361 18.1631 6.91736 18.3323C6.98279 18.3977 7.05274 18.4654 7.12495 18.5286C7.5469 18.8942 8.111 19.1017 8.66833 19.1017C8.74279 19.1017 8.81951 19.0972 8.89397 19.0905C9.52351 19.025 10.1282 18.6843 10.5141 18.1789C10.8683 17.7186 11.0804 16.9582 10.7172 16.3805C10.6043 16.2 10.4486 16.0601 10.2997 15.9247C10.2253 15.8593 10.1508 15.7893 10.0808 15.7194C9.97254 15.6066 9.7311 15.3087 9.81685 15.0109C9.83941 14.9251 9.89131 14.8462 9.94321 14.7649C9.98608 14.6972 10.0312 14.6273 10.0651 14.5483C10.2636 14.0925 10.0177 13.5826 9.71982 13.2576C8.92556 12.3934 7.52884 12.2039 6.53828 12.8289C6.35325 12.9463 6.18177 13.0884 6.01705 13.226C5.86361 13.3547 5.70341 13.4878 5.53417 13.5961C5.14382 13.8466 4.73766 13.9097 4.44207 13.7676C4.33151 13.7134 4.23674 13.6345 4.1352 13.5487C4.00658 13.4404 3.87345 13.3298 3.70648 13.2712C3.41089 13.1629 3.04084 13.2441 2.74299 13.4833C2.70463 13.5126 2.66402 13.5465 2.62566 13.5826C2.48125 13.7179 2.27817 13.842 2.20597 14.0542C2.15407 14.194 2.10668 14.3339 2.06381 14.4784C1.84945 15.1778 1.73438 15.9202 1.73438 16.6874Z" fill="#C6E281"/>
<path d="M8.66762 19.3748C8.04259 19.3748 7.41531 19.1424 6.94597 18.7362C6.87151 18.6685 6.79931 18.6008 6.72936 18.5332C6.5669 18.3729 6.43377 18.2421 6.28033 18.1857C6.11787 18.1247 5.88997 18.1496 5.65531 18.2534C5.47479 18.3323 5.29654 18.4497 5.12505 18.5647C5.05059 18.6144 4.97613 18.6618 4.90166 18.7092C4.28566 19.095 3.71705 19.2823 3.16197 19.2823C2.7152 19.28 2.32484 19.1401 2.02925 18.8716C1.8713 18.7295 1.74269 18.5535 1.64792 18.3526C1.63889 18.3323 1.62987 18.312 1.62535 18.2917C1.59828 18.1586 1.57571 18.0255 1.5554 17.8901C1.49222 17.4929 1.46289 17.0891 1.46289 16.6874C1.46289 15.9044 1.57797 15.1327 1.80361 14.3971C1.84648 14.2527 1.89387 14.1106 1.94576 13.9707C1.94802 13.9684 1.94802 13.9662 1.94802 13.9639C2.02925 13.7293 2.20525 13.5826 2.34515 13.463C2.37899 13.4359 2.41058 13.4088 2.43992 13.3818C2.48505 13.3411 2.53017 13.3005 2.5753 13.2667C2.9431 12.9711 3.41243 12.8718 3.79828 13.014C4.01489 13.0907 4.17736 13.2283 4.30823 13.3389C4.40074 13.4156 4.47971 13.481 4.55869 13.5194C4.76628 13.6209 5.08218 13.5623 5.38679 13.366C5.547 13.2622 5.71172 13.1245 5.84259 13.0162C6.01408 12.8718 6.19233 12.7251 6.39315 12.5965C7.49203 11.9038 9.03993 12.1137 9.91767 13.0726C10.2742 13.4607 10.5653 14.0813 10.3125 14.6589C10.2697 14.7582 10.2155 14.8439 10.1704 14.9116C10.1275 14.9793 10.0892 15.0425 10.0756 15.0876C10.0373 15.2185 10.1614 15.408 10.2764 15.5276C10.3396 15.5953 10.4118 15.6585 10.4795 15.7217C10.6352 15.8616 10.8112 16.0195 10.9443 16.2339C11.3798 16.9221 11.1384 17.8134 10.73 18.3459C10.299 18.91 9.62208 19.2891 8.92034 19.3613C8.83459 19.3703 8.75111 19.3748 8.66762 19.3748ZM6.08177 17.6035C6.21941 17.6035 6.35028 17.6261 6.46987 17.6712C6.72936 17.7682 6.9189 17.9533 7.10167 18.1338C7.17162 18.1992 7.2348 18.2624 7.30249 18.3211C7.72218 18.6866 8.3111 18.8694 8.86844 18.8175C9.42126 18.7611 9.95829 18.4587 10.299 18.0119C10.6059 17.6125 10.7683 16.974 10.4863 16.5272C10.3915 16.3783 10.2516 16.2519 10.1162 16.1301C10.0395 16.0579 9.95829 15.9834 9.88608 15.9089C9.74393 15.76 9.42803 15.3697 9.55439 14.9342C9.59049 14.8123 9.65367 14.7108 9.71234 14.6205C9.7507 14.5574 9.78906 14.4987 9.81613 14.4378C9.96054 14.1038 9.75747 13.7044 9.51829 13.4427C8.81203 12.671 7.56649 12.504 6.68197 13.0591C6.51049 13.1697 6.34803 13.305 6.18782 13.4359C6.04792 13.5555 5.86967 13.7044 5.68013 13.8263C5.21079 14.1286 4.7031 14.1986 4.32402 14.0136C4.18413 13.9459 4.0713 13.8511 3.96074 13.7586C3.83212 13.6503 3.73059 13.5713 3.61551 13.5284C3.40792 13.454 3.13264 13.5194 2.91151 13.6977C2.87541 13.7247 2.84382 13.7541 2.80997 13.7834C2.77387 13.8173 2.73325 13.8511 2.69264 13.8849C2.59335 13.9684 2.49858 14.0474 2.46474 14.1354C2.46248 14.1422 2.46248 14.1467 2.46023 14.1512C2.40833 14.2843 2.3632 14.4175 2.32484 14.5551C2.11274 15.2433 2.00443 15.9586 2.00443 16.6874C2.00443 17.0597 2.03376 17.4365 2.09243 17.8066C2.10822 17.9217 2.12853 18.0322 2.1511 18.1428C2.21428 18.2692 2.29551 18.3775 2.39253 18.4632C2.58884 18.6437 2.84833 18.734 3.15971 18.734C3.61325 18.734 4.0871 18.5738 4.6151 18.2421C4.68731 18.1992 4.75725 18.1541 4.8272 18.1067C5.01674 17.9803 5.21305 17.8517 5.43643 17.7524C5.65756 17.6532 5.87643 17.6035 6.08177 17.6035Z" fill="#703627"/>
<path d="M12.5733 11.6533C12.5688 12.2535 12.9839 12.592 13.3495 12.8898C13.3969 12.9304 13.4443 12.9688 13.4916 13.0071C13.8459 13.2892 14.2114 13.5825 14.3649 13.9887C14.5431 14.467 14.401 14.9747 14.2498 15.5118C14.1798 15.7554 14.1076 16.0104 14.0715 16.2609C14.0377 16.4685 14.0264 16.8475 14.2994 17.0551C14.586 17.2718 14.938 17.3823 15.3035 17.3823C15.5878 17.3823 15.8789 17.3169 16.1587 17.1838C16.6957 16.9265 17.0951 16.4685 17.3005 15.8953C17.3614 15.7239 17.4065 15.5411 17.4313 15.3515C17.411 15.2297 17.3862 15.1079 17.3569 14.9883C16.9101 13.05 15.7187 11.3825 14.0918 10.2949C14.0377 10.2588 13.9858 10.2227 13.9294 10.1889C13.8707 10.2137 13.794 10.2475 13.7037 10.2927C13.2705 10.5093 12.5778 10.9673 12.5733 11.6533Z" fill="#C6E281"/>
<path d="M15.3041 17.6554C14.8709 17.6554 14.4692 17.5245 14.1375 17.274C13.851 17.0552 13.7314 16.6806 13.8036 16.2203C13.8419 15.9563 13.9141 15.6991 13.9841 15.4509C14.1285 14.9454 14.2594 14.4806 14.1105 14.0857C13.9841 13.7495 13.6479 13.481 13.323 13.2215L13.1763 13.1019C12.8062 12.7996 12.2963 12.3844 12.3008 11.6533C12.3008 11.6511 12.3008 11.6511 12.3008 11.6511C12.3053 11.0306 12.7611 10.4619 13.5825 10.0468C13.6817 9.99937 13.763 9.96327 13.8261 9.93619C13.9074 9.90235 13.9999 9.90912 14.0744 9.9565C14.133 9.9926 14.1872 10.0287 14.2436 10.0671C15.9675 11.2201 17.1679 12.9462 17.6214 14.9251C17.6508 15.0492 17.6778 15.1778 17.6982 15.3065C17.7027 15.3335 17.7049 15.3606 17.7004 15.3877C17.6733 15.593 17.6237 15.7961 17.556 15.9879C17.3258 16.6332 16.87 17.1477 16.2744 17.432C15.9652 17.5787 15.6313 17.6554 15.3041 17.6554ZM12.8446 11.6556C12.8424 12.1249 13.1718 12.3934 13.5193 12.6777L13.6637 12.7928C14.027 13.0839 14.4399 13.4133 14.6181 13.8917C14.8303 14.458 14.6678 15.0312 14.5121 15.5863C14.4421 15.8322 14.3745 16.0736 14.3406 16.3038C14.3203 16.4211 14.2977 16.7099 14.4647 16.8363C14.8821 17.1522 15.5049 17.1928 16.0419 16.9356C16.5068 16.7145 16.8633 16.3106 17.0438 15.8006C17.0957 15.6585 17.134 15.5095 17.1566 15.3561C17.1386 15.2546 17.116 15.153 17.0934 15.0515C16.6692 13.2057 15.55 11.5992 13.9435 10.5229C13.9299 10.5138 13.9187 10.5071 13.9074 10.498C13.8803 10.5116 13.851 10.5251 13.8216 10.5387C13.4606 10.7214 12.8491 11.1095 12.8446 11.6556Z" fill="#703627"/>
<path d="M5.53613 23.2964C5.5948 23.3325 5.65347 23.3664 5.71439 23.4002C6.44547 23.8131 7.25326 24.1132 8.10844 24.278C8.18065 24.2915 8.25511 24.305 8.32957 24.3186C8.75603 24.3885 9.19604 24.4246 9.64055 24.4246C9.96773 24.4246 10.2881 24.4043 10.604 24.366H10.6063C10.683 24.3569 10.7597 24.3479 10.8364 24.3366C12.1 24.1471 13.2643 23.6665 14.2572 22.9647C14.3203 22.9218 14.3813 22.879 14.4399 22.8316C14.4377 22.7481 14.4354 22.6624 14.4332 22.5766C14.4061 21.814 14.3181 20.9926 13.9977 20.3428C13.657 19.6501 12.9123 18.9596 12.0188 18.9731C11.7097 18.9799 11.3261 19.104 11.1749 19.4267C11.0689 19.6546 11.1072 19.8983 11.1478 20.1329C11.1636 20.2367 11.1817 20.336 11.1862 20.433C11.2133 21.1303 10.5318 21.6876 9.87522 21.8613C9.42393 21.9809 8.94106 21.9832 8.47398 21.9877C8.21224 21.99 7.94373 21.9922 7.67973 22.0125C6.98249 22.0712 6.10926 22.5676 5.65572 23.1294C5.61059 23.1859 5.57224 23.2423 5.53613 23.2964Z" fill="#C6E281"/>
<path d="M9.64081 24.6977C9.18502 24.6977 8.72922 24.6616 8.28697 24.5871C8.21025 24.5758 8.12902 24.5623 8.0523 24.5443C7.18809 24.3795 6.35548 24.0749 5.58153 23.6394C5.51835 23.6033 5.45742 23.5695 5.3965 23.5334C5.33332 23.495 5.28819 23.4318 5.27014 23.3596C5.25435 23.2874 5.26789 23.2107 5.30624 23.1498C5.34912 23.0844 5.39424 23.0212 5.44614 22.9557C5.95609 22.3239 6.90604 21.8027 7.65743 21.7395C7.93045 21.717 8.20348 21.717 8.46974 21.7147C8.9323 21.7102 9.39261 21.7057 9.80779 21.5951C10.3696 21.4485 10.936 20.9769 10.9134 20.4443C10.9112 20.3654 10.8954 20.2729 10.8796 20.1781C10.8367 19.9276 10.7848 19.6185 10.927 19.3116C11.1346 18.8716 11.6242 18.7092 12.0123 18.7001C13.0164 18.6821 13.8626 19.4515 14.2416 20.221C14.6049 20.9588 14.6794 21.8636 14.7042 22.5676L14.711 22.8249C14.7132 22.9129 14.6749 22.9941 14.6072 23.0482C14.5417 23.0979 14.4786 23.1453 14.4109 23.1904C13.3707 23.9283 12.1477 24.4179 10.8773 24.6074C10.7961 24.6187 10.7171 24.63 10.6359 24.639C10.6336 24.639 10.6314 24.639 10.6314 24.639C10.3042 24.6774 9.97251 24.6977 9.64081 24.6977ZM5.94255 23.2152C6.63527 23.592 7.38214 23.8583 8.15835 24.0072C8.23281 24.023 8.3005 24.0366 8.37045 24.0478C9.09476 24.1674 9.84389 24.1832 10.5727 24.0952C10.5772 24.093 10.5795 24.093 10.584 24.093C10.6562 24.0862 10.7261 24.0749 10.7984 24.0659C11.9852 23.8876 13.127 23.4296 14.1017 22.7414C14.1243 22.7256 14.1446 22.712 14.1649 22.6962L14.1627 22.5879C14.1401 21.9877 14.0747 21.1168 13.7543 20.4647C13.4519 19.8487 12.8066 19.2349 12.0236 19.2484C11.807 19.253 11.5204 19.3319 11.4189 19.544C11.3489 19.6952 11.3805 19.8848 11.4144 20.0878C11.4324 20.1961 11.4527 20.3067 11.4572 20.4218C11.4911 21.2612 10.7036 21.9268 9.94543 22.1254C9.46481 22.2517 8.97066 22.2562 8.49004 22.2608C8.21702 22.263 7.95527 22.2653 7.7003 22.2856C7.12717 22.333 6.37578 22.7346 5.94255 23.2152Z" fill="#703627"/>
<path d="M8.13782 26.2974C9.06747 26.1508 10.04 26.232 10.9335 26.5321C11.0328 26.566 11.1298 26.6021 11.2291 26.6427C11.2269 26.6224 11.2223 26.6043 11.2111 26.5863C11.0689 26.3832 10.9493 26.126 10.8613 25.8484C10.841 25.7785 10.8207 25.7063 10.8049 25.6341C10.6966 25.1783 10.6853 24.6954 10.8365 24.3366C10.7598 24.3479 10.6831 24.3569 10.6063 24.366H10.6041C10.2882 24.4043 9.96777 24.4246 9.6406 24.4246C9.19608 24.4246 8.75608 24.3885 8.32962 24.3186C8.25516 24.305 8.1807 24.2915 8.10849 24.278C8.10623 24.2937 8.10849 24.3118 8.113 24.3299C8.26193 24.6931 8.29577 25.097 8.22582 25.4806C8.21454 25.5506 8.19649 25.6228 8.17618 25.6927C8.11075 25.9274 8.00244 26.1508 7.85352 26.3493C7.94829 26.329 8.04305 26.311 8.13782 26.2974Z" fill="#F57E82"/>
<path d="M11.2293 26.9157C11.1954 26.9157 11.1593 26.909 11.1277 26.8954C11.033 26.8593 10.9382 26.8232 10.8457 26.7916C10.0018 26.5073 9.08793 26.4283 8.20116 26.5637C8.1944 26.566 8.18537 26.5682 8.17634 26.5705C8.08609 26.5818 7.99809 26.5998 7.91009 26.6179C7.79952 26.6404 7.68445 26.5931 7.62578 26.496C7.56486 26.399 7.56937 26.2749 7.63706 26.1847C7.76342 26.0154 7.85593 25.8259 7.91686 25.6183C7.93491 25.5551 7.94845 25.4942 7.95973 25.4333C8.02065 25.088 7.98906 24.7428 7.8627 24.4314C7.83788 24.366 7.83111 24.3028 7.83788 24.2419C7.84916 24.1652 7.88978 24.0975 7.9507 24.0546C8.01163 24.0095 8.08834 23.9937 8.16506 24.0095C8.23275 24.023 8.30045 24.0365 8.3704 24.0456C9.0947 24.1674 9.84383 24.1832 10.5727 24.0952C10.5772 24.093 10.5794 24.093 10.5839 24.093C10.6561 24.0862 10.7261 24.0749 10.7983 24.0659C10.8953 24.0501 10.9923 24.0907 11.0533 24.1697C11.1119 24.2464 11.1255 24.3524 11.0871 24.4427C10.9698 24.7202 10.963 25.1309 11.0691 25.5709C11.0849 25.6363 11.1029 25.704 11.1232 25.7695C11.1999 26.0154 11.3105 26.2523 11.4323 26.4283C11.4752 26.496 11.4978 26.5615 11.5 26.6292C11.5046 26.7217 11.4617 26.8119 11.3872 26.8661C11.3398 26.8977 11.2834 26.9157 11.2293 26.9157ZM9.05409 25.9522C9.60465 25.9522 10.1552 26.0267 10.6877 26.1711C10.6561 26.0921 10.6291 26.0132 10.602 25.9297C10.5794 25.853 10.5591 25.7762 10.5411 25.6995C10.4508 25.325 10.4282 24.9684 10.4734 24.6571C9.81224 24.7225 9.13758 24.709 8.48547 24.6187C8.5464 24.912 8.54865 25.2212 8.4945 25.5303C8.48096 25.6093 8.46065 25.6905 8.43809 25.7717C8.41552 25.8462 8.3907 25.9184 8.36363 25.9906C8.59152 25.9658 8.82168 25.9522 9.05409 25.9522Z" fill="#703627"/>
<path d="M11.6843 27.2384C11.6414 27.2384 11.5985 27.2293 11.5601 27.2068C10.274 26.5366 8.68548 26.417 7.31358 26.8886C7.17143 26.9382 7.01799 26.8615 6.96835 26.7171C6.92096 26.575 6.99543 26.4193 7.13758 26.3696C8.64712 25.8507 10.3936 25.9815 11.8106 26.7216C11.9437 26.7916 11.9956 26.9563 11.9257 27.0894C11.8783 27.1842 11.7835 27.2384 11.6843 27.2384Z" fill="#703627"/>
<path d="M9.83719 9.18029C9.82591 9.18029 9.81688 9.18029 9.8056 9.17803C9.65668 9.15998 9.54837 9.0246 9.56642 8.87567C9.59124 8.64777 9.61832 8.3567 9.64314 8.06562C9.67022 7.76777 9.69504 7.47218 9.72211 7.24203C9.73791 7.09085 9.87329 6.98254 10.0222 7.00059C10.1711 7.01639 10.2794 7.15177 10.2614 7.30295C10.2366 7.53085 10.2095 7.82193 10.1847 8.113C10.1576 8.41085 10.1328 8.70644 10.1057 8.93659C10.0899 9.07649 9.97257 9.18029 9.83719 9.18029Z" fill="#703627"/>
<path d="M7.16057 25.0903C5.06662 25.0903 2.92303 24.0094 1.57595 22.193C0.0889753 20.1893 -0.382615 17.4455 0.31913 14.8529C0.957694 12.4882 2.52139 10.3378 4.71688 8.80121C6.82437 7.32777 9.11688 6.72756 11.1747 7.1089C11.3214 7.13823 11.4184 7.28039 11.3913 7.42931C11.3643 7.57823 11.2244 7.67526 11.0755 7.64818C9.16201 7.29167 7.01391 7.86254 5.02601 9.25249C2.93431 10.7146 1.44959 12.7567 0.842618 14.9973C0.195027 17.3914 0.644053 20.0224 2.01144 21.8658C3.47811 23.8402 5.95565 24.8782 8.1737 24.4472C8.32263 24.4178 8.46478 24.5149 8.49186 24.6638C8.52119 24.8127 8.42417 24.9571 8.2775 24.9842C7.9097 25.0564 7.5374 25.0903 7.16057 25.0903Z" fill="#703627"/>
<path d="M18.9052 15.8615C18.2847 15.9427 17.6551 16.0262 17.0707 16.2518C16.4863 16.4797 15.9402 16.8701 15.6469 17.4274C15.3558 17.987 15.3649 18.7271 15.7733 19.2077C16.0553 19.5394 16.4818 19.7087 16.8947 19.8463C17.4927 20.0471 18.129 20.2096 18.7472 20.0923C19.3655 19.9749 19.9589 19.5033 20.0334 18.8738C20.0762 18.506 19.9454 18.1427 19.8055 17.802C19.5302 17.1206 19.2166 16.4549 18.9052 15.8615Z" fill="#DDA783"/>
<path d="M16.9509 16.3759C17.8331 17.3124 18.149 18.7497 17.7429 19.9727C17.1788 20.0449 16.5808 19.8914 16.1499 19.5169C15.7211 19.1423 15.4842 18.5376 15.5925 17.9757C15.6647 17.6034 15.8768 17.2672 16.1408 16.9942C16.4026 16.7189 16.714 16.4978 16.9509 16.3759Z" fill="#B27966"/>
<path d="M18.4628 20.3766C17.7904 20.3766 17.0526 20.2706 16.6735 20.1284C16.0575 19.8982 15.5904 19.474 15.3874 18.9641C15.0128 18.0209 15.5634 16.9942 16.3012 16.4662C17.039 15.9382 17.9484 15.778 18.7517 15.6381C18.8983 15.6111 19.0405 15.7126 19.0653 15.8615C19.0901 16.0104 18.9908 16.1503 18.8442 16.1774C18.0996 16.3083 17.2534 16.455 16.6148 16.913C16.0643 17.3056 15.6243 18.0863 15.8905 18.7588C16.0372 19.1265 16.3915 19.4379 16.863 19.6139C17.3143 19.7832 18.4087 19.8982 19.0901 19.7854C19.2345 19.7606 19.3767 19.8621 19.4015 20.0133C19.4263 20.1622 19.3248 20.3021 19.1759 20.327C18.9638 20.3608 18.7178 20.3766 18.4628 20.3766Z" fill="#703627"/>
<path d="M47.5836 10.0495C47.6964 9.92312 47.8115 9.85994 47.9266 9.85994C47.9988 9.85994 48.1207 9.9186 48.2967 10.0314C48.4636 10.1465 48.6419 10.2729 48.8292 10.4105C49.021 10.5617 49.2037 10.7061 49.3797 10.8437C49.5422 10.9836 49.6505 11.0761 49.7047 11.1235C49.7769 11.2025 49.8242 11.2815 49.8491 11.3582C49.8603 11.4304 49.8603 11.5003 49.8491 11.5658C49.8355 11.638 49.8175 11.6967 49.7949 11.7373L49.7408 11.7914C49.5896 12.0216 49.3481 12.2517 49.0187 12.4864C48.6802 12.7391 48.2899 12.9693 47.8454 13.1724C47.3941 13.3845 46.9022 13.5514 46.3742 13.6778C45.8327 13.8154 45.2753 13.8854 44.7044 13.8854C44.3254 13.8854 43.9147 13.8425 43.477 13.759C43.037 13.6688 42.5947 13.5198 42.1502 13.3077C41.6989 13.1047 41.2657 12.8181 40.8505 12.4503C40.4285 12.096 40.0607 11.6425 39.7494 11.0874C39.4357 10.5459 39.183 9.89604 38.9912 9.13789C38.7926 8.3865 38.6934 7.51101 38.6934 6.51142C38.6934 5.50055 38.8423 4.65665 39.1446 3.97521C39.4447 3.29603 39.8306 2.73644 40.2999 2.29644C40.7512 1.86321 41.2408 1.52926 41.7711 1.29459C42.2991 1.06669 42.7933 0.895208 43.2513 0.78013C43.7026 0.678592 44.0817 0.615412 44.3885 0.590592L44.8398 0.57254L45.0655 0.590592C45.2144 0.615412 45.3859 0.640232 45.5799 0.662797C45.7537 0.694386 45.9161 0.714694 46.0673 0.725976L46.293 0.762079C46.7488 0.852336 47.173 1.00352 47.5656 1.21336C47.9447 1.42998 48.2831 1.66013 48.5855 1.89931C48.8743 2.13398 49.1202 2.35511 49.3256 2.55818C49.5241 2.7748 49.6618 2.91921 49.7408 2.99142C49.8671 3.11777 49.9032 3.24413 49.8491 3.37049C49.8242 3.42013 49.7814 3.46977 49.7227 3.52393C49.47 3.71121 49.2353 3.88947 49.0187 4.05644C48.8314 4.19634 48.6487 4.31819 48.4681 4.42649C48.2921 4.55285 48.1658 4.63183 48.0891 4.66116C48.0642 4.6747 48.0349 4.67921 47.9988 4.67921C47.8837 4.67921 47.7957 4.62957 47.7371 4.52578C47.6694 4.42424 47.6378 4.36106 47.6378 4.33624C47.6378 4.31367 47.5566 4.20537 47.3941 4.01131C47.2181 3.83757 46.8909 3.63675 46.4103 3.4066C46.1328 3.28024 45.88 3.19901 45.6521 3.1629C45.422 3.1268 45.2279 3.10875 45.0655 3.10875H44.7676C44.7248 3.12229 44.6909 3.1268 44.6683 3.1268C44.1268 3.1629 43.6484 3.28926 43.2333 3.50588C42.8 3.71798 42.439 4.00003 42.1502 4.35429C41.8478 4.72208 41.6222 5.1305 41.4733 5.58178C41.3221 6.05111 41.2476 6.55204 41.2476 7.08004C41.2476 7.63511 41.3153 8.16988 41.4552 8.6866C41.5816 9.20558 41.7824 9.65912 42.0599 10.0495C42.3352 10.4534 42.694 10.776 43.134 11.0152C43.5785 11.2567 44.1088 11.3762 44.7225 11.3762C45.1377 11.3762 45.51 11.3198 45.8417 11.2048C46.1531 11.0919 46.4306 10.9588 46.672 10.8076C46.9112 10.6587 47.1075 10.5075 47.2587 10.3563C47.4076 10.2119 47.5159 10.1104 47.5836 10.0495Z" fill="#4C7031"/>
<path d="M59.2173 4.21887L59.2353 4.20082H59.3075C59.3843 4.20082 59.479 4.2279 59.5873 4.28205C59.6889 4.33169 59.7408 4.44226 59.7408 4.616C59.7408 4.67015 59.7408 4.79651 59.7408 4.99508C59.7272 5.21169 59.7227 5.46441 59.7227 5.75323C59.7092 6.06011 59.7047 6.39405 59.7047 6.75508C59.6911 7.12288 59.6866 7.49067 59.6866 7.85621C59.6618 8.72267 59.637 9.68842 59.6144 10.7534C59.5964 10.8798 59.6009 10.9926 59.6325 11.0874C59.6437 11.1776 59.6686 11.2544 59.7047 11.313C59.7408 11.392 59.7972 11.4304 59.8762 11.4304C59.9664 11.4304 60.0589 11.4259 60.156 11.4123L60.4628 11.3762C60.5756 11.3649 60.6907 11.3446 60.8058 11.313C60.8171 11.3018 60.8351 11.295 60.86 11.295C60.8825 11.2837 60.9344 11.2769 61.0134 11.2769C61.0721 11.2769 61.1352 11.2995 61.2029 11.3401C61.2503 11.3762 61.2751 11.4462 61.2751 11.5477C61.2751 11.6447 61.2864 11.7779 61.3112 11.9448C61.3338 12.1208 61.3609 12.2946 61.3925 12.4683C61.415 12.6737 61.4466 12.8812 61.4827 13.0911C61.494 13.1701 61.494 13.2423 61.4827 13.3077C61.4579 13.3686 61.4195 13.4228 61.3654 13.4702C61.3158 13.5379 61.2345 13.583 61.1217 13.6056C61.036 13.6191 60.9164 13.6371 60.7607 13.6597C60.5982 13.7026 60.4222 13.7364 60.2372 13.759C60.0319 13.7838 59.8243 13.7996 59.6144 13.8131C59.3843 13.8357 59.1631 13.8492 58.9465 13.8492C58.7953 13.8492 58.6509 13.8425 58.5133 13.8312C58.3734 13.8177 58.2538 13.7996 58.1523 13.777C57.9898 13.7409 57.8634 13.6394 57.7732 13.4702C57.6694 13.3077 57.6017 13.1182 57.5656 12.9015C57.516 12.6917 57.4866 12.4728 57.4753 12.2427C57.4505 12.0148 57.4392 11.8185 57.4392 11.656H57.358C57.0195 12.3374 56.5096 12.8654 55.8236 13.2445C55.1422 13.6371 54.4247 13.8312 53.6665 13.8312C53.1656 13.8312 52.6692 13.7319 52.1773 13.5333C51.6831 13.3415 51.2476 13.0369 50.8686 12.6218C50.4759 12.2201 50.1668 11.6966 49.9389 11.0513C49.7042 10.4082 49.5869 9.63201 49.5869 8.72267C49.5869 8.16985 49.6433 7.68021 49.7584 7.25149C49.8667 6.83631 50.0156 6.464 50.2097 6.13231C50.3947 5.82093 50.6158 5.55016 50.8686 5.32C51.1213 5.0921 51.3853 4.90257 51.6628 4.75139C52.3713 4.37231 53.1092 4.18277 53.8741 4.18277C54.5826 4.18277 55.255 4.34298 55.8868 4.66113C56.5006 4.98605 57.0083 5.4599 57.4122 6.07816L57.4753 6.06011L57.3761 4.76944C57.3761 4.6679 57.3873 4.57539 57.4122 4.48964C57.4415 4.41292 57.4798 4.34298 57.5295 4.28205C57.5656 4.2279 57.6333 4.20082 57.7371 4.20082H58.044C58.1703 4.20082 58.3012 4.20082 58.4411 4.20082C58.5674 4.21436 58.6938 4.21887 58.8202 4.21887H59.2173ZM51.9336 8.82195C51.9336 9.4357 52.0261 9.91406 52.2134 10.257C52.3871 10.6135 52.606 10.8708 52.8723 11.0332C53.1363 11.2092 53.4228 11.3175 53.7297 11.3582C54.0185 11.3943 54.2757 11.4123 54.5059 11.4123C54.727 11.4123 54.9707 11.3898 55.237 11.3401C55.4897 11.286 55.7356 11.1844 55.9771 11.0332C56.2163 10.8843 56.4374 10.6632 56.6359 10.3744C56.8277 10.081 56.9699 9.68842 57.0602 9.20103C57.1324 8.7678 57.1053 8.38421 56.9789 8.04575C56.839 7.70277 56.6382 7.4117 56.3742 7.17026C56.0967 6.93559 55.774 6.75508 55.4085 6.62872C55.0407 6.50236 54.6774 6.43918 54.3164 6.43918C54.0095 6.43918 53.7116 6.48205 53.4228 6.56554C53.134 6.66934 52.8813 6.816 52.6647 7.0078C52.4413 7.19508 52.2675 7.43877 52.1412 7.73888C52.0013 8.04575 51.9336 8.40677 51.9336 8.82195Z" fill="#4C7031"/>
<path d="M68.42 13.9305C68.2576 13.9305 68.0613 13.9147 67.8334 13.8854C67.61 13.8605 67.3663 13.8064 67.1023 13.7229C66.836 13.6462 66.5653 13.5243 66.29 13.3619C66.0057 13.1994 65.7417 12.9873 65.4957 12.7211C65.4777 12.9196 65.4619 13.134 65.4506 13.3619C65.4371 13.592 65.4258 13.7974 65.4145 13.9846C65.401 14.1832 65.3964 14.3547 65.3964 14.4991C65.3829 14.6367 65.3784 14.718 65.3784 14.7428C65.3784 14.7902 65.4168 14.8421 65.4957 14.8962C65.5183 14.9075 65.5499 14.9143 65.586 14.9143C65.6875 14.9007 65.7891 14.8962 65.8929 14.8962C65.9763 14.8782 66.0689 14.8624 66.1727 14.8511C66.2629 14.8511 66.3374 14.8511 66.3983 14.8511C66.5111 14.8511 66.5923 14.9188 66.642 15.0587C66.6713 15.1129 66.6871 15.176 66.6871 15.2482L66.7052 16.4848C66.7052 16.5931 66.66 16.6675 66.5698 16.7104C66.4795 16.7465 66.3848 16.7645 66.29 16.7645H66.0734C65.8748 16.7645 65.5679 16.7645 65.1528 16.7645C64.7376 16.7758 64.3134 16.7826 63.8801 16.7826C63.4401 16.7826 63.0362 16.7826 62.6707 16.7826C62.3029 16.7939 62.0705 16.8006 61.9757 16.8006C61.8606 16.8006 61.7704 16.7758 61.705 16.7284C61.644 16.6743 61.6079 16.6156 61.5966 16.557C61.5718 16.496 61.5605 16.4396 61.5605 16.3855V16.2952C61.5605 16.2817 61.5651 16.2253 61.5786 16.1237C61.5786 16.0199 61.5831 15.9003 61.5966 15.7627C61.5966 15.6363 61.6012 15.5032 61.6147 15.3656C61.6147 15.2257 61.6147 15.1174 61.6147 15.0406C61.6147 14.9684 61.6328 14.9098 61.6689 14.8692C61.6914 14.8443 61.732 14.8195 61.7862 14.797C61.8223 14.7834 61.8697 14.7789 61.9306 14.7789H62.8241C62.9009 14.7789 62.9528 14.727 62.9776 14.6255C62.9889 14.5758 62.9956 14.5262 62.9956 14.472L62.8963 6.64679C62.8963 6.50915 62.8535 6.42566 62.77 6.39407C62.6662 6.37151 62.5647 6.35797 62.4631 6.35797C62.4022 6.37151 62.339 6.37602 62.2736 6.37602C62.2127 6.37602 62.1427 6.37602 62.066 6.37602C61.9938 6.38956 61.9171 6.39407 61.8403 6.39407C61.7614 6.39407 61.7095 6.36474 61.6869 6.30381C61.6508 6.25643 61.626 6.20002 61.6147 6.13233C61.6012 6.06012 61.6012 5.97438 61.6147 5.87058C61.626 5.70812 61.644 5.55017 61.6689 5.39222C61.6801 5.25458 61.6914 5.11694 61.705 4.97704C61.705 4.85068 61.705 4.74012 61.705 4.64309C61.705 4.53027 61.7546 4.4513 61.8584 4.40843C61.9486 4.38586 62.0434 4.37232 62.1472 4.37232H62.3729C62.3729 4.36104 62.4902 4.35427 62.7249 4.35427H65.2069C65.3446 4.35427 65.4326 4.40617 65.4687 4.50771C65.5093 4.62279 65.5318 4.75591 65.5318 4.90484C65.5183 5.05602 65.498 5.2072 65.4687 5.35612C65.4438 5.51858 65.4326 5.65171 65.4326 5.75325C65.4326 5.84351 65.4371 5.91345 65.4506 5.96084C65.4506 6.02853 65.4551 6.08494 65.4687 6.13233C65.8342 5.45315 66.2832 4.94094 66.8135 4.59797C67.3302 4.26176 67.9056 4.09253 68.5374 4.09253C68.9638 4.09253 69.4129 4.17376 69.8822 4.33622C70.3335 4.51222 70.7938 4.76945 71.2631 5.11243C71.737 5.48022 72.1341 5.98566 72.4545 6.62874C72.7546 7.27407 72.9171 8.11571 72.9419 9.15592C72.9712 9.91408 72.9013 10.5594 72.7343 11.0874C72.5718 11.6289 72.3575 12.078 72.0935 12.4322C71.8159 12.7887 71.5068 13.064 71.1638 13.2626C70.8141 13.4679 70.4689 13.6146 70.1259 13.7048C69.7829 13.7996 69.4602 13.8605 69.1601 13.8854C68.8578 13.9147 68.6118 13.9305 68.42 13.9305ZM65.6762 9.01151C65.6762 9.47633 65.7665 9.87346 65.947 10.2029C66.1208 10.5414 66.3464 10.8121 66.6239 11.0152C66.8879 11.2318 67.1858 11.383 67.5175 11.4665C67.8424 11.5703 68.1583 11.6199 68.4652 11.6199C69.1556 11.6199 69.6701 11.4123 70.0086 10.9972C70.3515 10.5955 70.5727 10.072 70.6765 9.42669C70.7487 8.97089 70.7216 8.5512 70.5952 8.17212C70.4553 7.8111 70.2545 7.49971 69.9905 7.23346C69.7242 6.98074 69.4241 6.78669 69.0879 6.64679C68.7314 6.50915 68.3704 6.4392 68.0049 6.4392C67.7025 6.4392 67.4137 6.48884 67.1384 6.58361C66.8609 6.6874 66.6149 6.84084 66.3983 7.04392C66.1817 7.25602 66.0125 7.52002 65.8929 7.83818C65.7484 8.1631 65.6762 8.55572 65.6762 9.01151Z" fill="#4C7031"/>
<path d="M75.1781 7.28758C75.1893 7.17476 75.1803 7.06645 75.151 6.96266C75.1374 6.89045 75.1149 6.82276 75.0788 6.75507C75.0291 6.6964 74.9547 6.66481 74.8531 6.66481H74.0228C73.8829 6.66481 73.7746 6.63322 73.6979 6.56553C73.6076 6.51814 73.5625 6.41886 73.5625 6.26768L73.5444 4.80553C73.5444 4.6566 73.5895 4.55055 73.6798 4.48963C73.7565 4.43547 73.8648 4.4084 74.0047 4.4084H76.8929C77.0193 4.4084 77.1276 4.42419 77.2179 4.45353C77.3081 4.47835 77.3893 4.52122 77.4616 4.57988C77.527 4.64758 77.5608 4.74912 77.5608 4.88676V5.30194C77.5608 5.53209 77.5541 5.80286 77.5428 6.11424C77.5247 6.42789 77.5089 6.77312 77.4977 7.15219C77.4841 7.53127 77.4728 7.91712 77.4616 8.30748C77.4254 9.20553 77.3893 10.2074 77.3532 11.313C77.3397 11.3672 77.3397 11.4191 77.3532 11.4665C77.3758 11.5703 77.4458 11.6199 77.5608 11.6199H78.3912C78.4815 11.6199 78.5559 11.6267 78.6168 11.6379C78.6823 11.6628 78.7387 11.6966 78.7883 11.7372C78.8244 11.7733 78.8425 11.8275 78.8425 11.8997V13.3618C78.8425 13.434 78.8289 13.504 78.8064 13.5694C78.7816 13.6304 78.7364 13.6823 78.671 13.7229C78.6101 13.7725 78.5176 13.7951 78.3912 13.7951H73.9867C73.8603 13.7951 73.7633 13.7725 73.6979 13.7229C73.6369 13.6823 73.5918 13.6304 73.5625 13.5694C73.5376 13.504 73.5264 13.434 73.5264 13.3618V11.8997C73.5264 11.8275 73.5534 11.7733 73.6076 11.7372C73.6437 11.6966 73.6911 11.6628 73.752 11.6379C73.8174 11.6267 73.8964 11.6199 73.9867 11.6199H74.817C74.966 11.6199 75.0472 11.5815 75.0607 11.5026C75.072 11.4304 75.0788 11.3311 75.0788 11.2047L75.1781 7.28758ZM77.5789 2.4408C77.5653 2.63486 77.5022 2.80634 77.3893 2.95527C77.2743 3.11773 77.1366 3.25763 76.9742 3.37045C76.7937 3.48552 76.6041 3.57352 76.4056 3.63219C76.1889 3.69988 75.9746 3.73147 75.7647 3.73147C75.4691 3.73147 75.2232 3.65024 75.0246 3.48778C74.8193 3.33886 74.6681 3.14255 74.5733 2.90111C74.4695 2.67322 74.4199 2.4205 74.4199 2.14296C74.4199 1.86768 74.4831 1.60819 74.6094 1.36675C74.7223 1.13885 74.8983 0.942546 75.1329 0.780085C75.3721 0.631162 75.6835 0.554443 76.0626 0.554443C76.2792 0.554443 76.4868 0.579264 76.6853 0.626649C76.7982 0.651469 76.9132 0.721418 77.0283 0.834239C77.1299 0.960598 77.2224 1.11403 77.3081 1.29455C77.3984 1.47055 77.4661 1.65557 77.5157 1.85414C77.5699 2.05947 77.5902 2.25578 77.5789 2.4408Z" fill="#4C7031"/>
<path d="M42.3579 29.3915C42.3443 29.3915 42.333 29.396 42.3218 29.4095H42.2134C42.1097 29.4095 42.0149 29.3802 41.9246 29.3193C41.8208 29.2651 41.7712 29.1455 41.7712 28.9582C41.7712 28.8815 41.7757 28.6852 41.7892 28.3716C41.7892 28.0534 41.7983 27.6631 41.8163 27.1982C41.8276 26.7424 41.8389 26.2302 41.8524 25.6639C41.8524 25.1111 41.8569 24.5424 41.8705 23.958C41.893 22.5997 41.9246 21.0788 41.9607 19.4001C41.972 19.2624 41.972 19.1293 41.9607 19.0029C41.9472 18.9082 41.9179 18.8202 41.8705 18.7412C41.8163 18.6645 41.7351 18.6239 41.6268 18.6239C41.5117 18.6239 41.3289 18.6239 41.0762 18.6239C40.81 18.6374 40.546 18.6577 40.282 18.687C39.9615 18.7006 39.6231 18.7186 39.2621 18.7412C39.2305 18.7547 39.1989 18.7592 39.1628 18.7592C39.138 18.7592 39.1131 18.7592 39.0906 18.7592C39.0477 18.7728 39.0026 18.7773 38.9552 18.7773C38.8514 18.7773 38.7589 18.748 38.6754 18.687C38.5716 18.6329 38.522 18.5201 38.522 18.3441V17.3242C38.522 17.1752 38.522 17.0489 38.522 16.9451L38.5039 16.7917V16.6743C38.5039 16.6157 38.5152 16.5389 38.54 16.4487C38.5626 16.3765 38.6077 16.302 38.6754 16.223C38.7341 16.1644 38.8221 16.1328 38.9371 16.1328L47.0873 16.1689C47.1166 16.1689 47.1369 16.1644 47.1505 16.1508H47.3129C47.4258 16.1508 47.5476 16.1757 47.674 16.223C47.8003 16.2907 47.8635 16.4171 47.8635 16.6021C47.8635 16.7533 47.868 16.9135 47.8816 17.0805C47.8816 17.2429 47.8861 17.3941 47.8996 17.5318L47.9447 18.0191C47.956 18.1229 47.9493 18.2064 47.9267 18.2719C47.8951 18.3328 47.8567 18.3869 47.8094 18.4343C47.7597 18.502 47.674 18.5336 47.5476 18.5336L45.0295 18.5517C44.9618 18.5517 44.9054 18.5652 44.858 18.5878C44.8083 18.6126 44.7632 18.6464 44.7226 18.687C44.6865 18.7231 44.6684 18.7931 44.6684 18.8946C44.6684 18.9307 44.6729 19.1 44.6865 19.4001C44.6865 19.7069 44.691 20.0928 44.7045 20.5554C44.7045 21.0247 44.709 21.5482 44.7226 22.1258C44.7339 22.7102 44.7497 23.2969 44.7677 23.8858C44.779 25.2893 44.8038 26.8643 44.8399 28.6153C44.8512 28.7552 44.8444 28.8815 44.8219 28.9943C44.797 29.0981 44.7519 29.1839 44.6865 29.2561C44.6256 29.3463 44.5263 29.3915 44.3886 29.3915H42.3579Z" fill="#4C7031"/>
<path d="M52.2678 21.7647C52.4596 21.151 52.7687 20.623 53.1974 20.1762C53.6239 19.7498 54.1812 19.5354 54.8672 19.5354C55.1424 19.5354 55.42 19.576 55.6975 19.6527C55.9615 19.7249 56.1984 19.8197 56.4105 19.9325C56.5482 20.0115 56.6452 20.0995 56.6994 20.1943C56.7468 20.2981 56.7716 20.3996 56.7716 20.5011C56.7716 20.6162 56.7468 20.7313 56.6994 20.8441C56.573 21.1217 56.4579 21.3811 56.3564 21.6203C56.2526 21.8189 56.1601 22.0152 56.0766 22.207C55.9863 22.4056 55.9164 22.55 55.869 22.6402C55.8013 22.7666 55.7065 22.8298 55.5802 22.8298C55.508 22.8298 55.4448 22.8162 55.3906 22.7846C55.341 22.7621 55.3184 22.744 55.3184 22.7305L55.2643 22.6402C55.2214 22.5748 55.1492 22.5116 55.0477 22.4507C54.9394 22.3853 54.7882 22.3221 54.5964 22.2611C54.3978 22.207 54.1383 22.1799 53.8202 22.1799C53.5065 22.1799 53.2425 22.2657 53.0259 22.4326C52.8138 22.6086 52.6401 22.8027 52.5024 23.0193C52.3332 23.272 52.2069 23.5563 52.1234 23.8677C52.1346 24.4589 52.1459 24.9937 52.1595 25.4743C52.1707 25.8782 52.182 26.264 52.1956 26.6296C52.1956 26.9974 52.1956 27.2117 52.1956 27.2704C52.1956 27.3494 52.2001 27.4013 52.2136 27.4238C52.2249 27.4486 52.2633 27.4599 52.331 27.4599C52.3422 27.4599 52.4122 27.4554 52.5385 27.4419C52.6514 27.4419 52.7777 27.4419 52.9176 27.4419C53.044 27.4419 53.1297 27.4825 53.1794 27.5592L53.2155 27.6675L53.1794 29.1477C53.1794 29.1974 53.1545 29.2335 53.1072 29.256C53.0395 29.2876 52.9763 29.3147 52.9176 29.3373C52.8386 29.3508 52.7484 29.3553 52.6469 29.3553L49.172 29.3914C49.0456 29.3914 48.9599 29.335 48.9193 29.2199C48.8832 29.1071 48.8696 29.0372 48.8832 29.0123V28.4257C48.8832 28.288 48.8832 28.1436 48.8832 27.9924C48.8696 27.8548 48.8651 27.7533 48.8651 27.6856C48.8651 27.6021 48.8877 27.5457 48.9373 27.5141C48.9779 27.4915 49.0185 27.478 49.0546 27.478H49.1268C49.1268 27.4915 49.1359 27.496 49.1539 27.496H49.3344C49.3886 27.5096 49.445 27.5141 49.5059 27.5141H49.6594C49.7135 27.5141 49.7519 27.496 49.7767 27.4599C49.788 27.4238 49.7993 27.3832 49.8128 27.3336C49.8128 27.2929 49.8128 27.2523 49.8128 27.2162V26.8372C49.7993 26.6205 49.788 26.3498 49.7767 26.0248C49.7632 25.7135 49.7519 25.366 49.7406 24.9869C49.7225 24.6078 49.7067 24.2468 49.6955 23.9038C49.6819 23.5676 49.6774 23.272 49.6774 23.0193C49.6639 22.7666 49.6594 22.6086 49.6594 22.5409C49.6594 22.4394 49.6458 22.3695 49.6233 22.3334C49.5984 22.2973 49.5736 22.2679 49.5511 22.2431C49.5082 22.2318 49.4698 22.225 49.4337 22.225C49.366 22.2386 49.2983 22.2431 49.2261 22.2431C49.1584 22.2431 49.084 22.2431 49.0005 22.2431C48.9102 22.2566 48.8064 22.2611 48.6936 22.2611C48.5898 22.2611 48.5086 22.2431 48.4499 22.207C48.3822 22.1664 48.3371 22.1212 48.3145 22.0716C48.2784 22.0175 48.2604 21.9543 48.2604 21.8821C48.2356 21.7196 48.2175 21.5549 48.2062 21.3857C48.1814 21.248 48.1611 21.0968 48.1431 20.9344C48.1295 20.7855 48.125 20.641 48.125 20.5011C48.125 20.3635 48.1701 20.262 48.2604 20.1943C48.3371 20.1356 48.4251 20.0927 48.5221 20.0679C48.6124 20.0386 48.7026 20.0228 48.7929 20.0228H48.9012L49.172 20.0047C49.3344 19.9935 49.542 19.9822 49.7947 19.9686C50.0339 19.9686 50.2866 19.9641 50.5529 19.9506C50.8169 19.9506 51.0425 19.9506 51.2298 19.9506C51.4329 19.9506 51.5841 19.9957 51.6811 20.086C51.7826 20.1898 51.8526 20.2936 51.8887 20.4019C51.9541 20.5418 51.988 20.6997 51.988 20.8802C51.9993 21.1104 52.0105 21.318 52.0241 21.503C52.0354 21.6542 52.0466 21.7918 52.0602 21.9182C52.0602 22.0445 52.0534 22.1077 52.0421 22.1077C52.0534 22.1212 52.0647 22.1258 52.0782 22.1258C52.155 22.1258 52.2181 22.0062 52.2678 21.7647Z" fill="#4C7031"/>
<path d="M66.3101 19.8152L66.3281 19.7971H66.4003C66.477 19.7971 66.5718 19.8242 66.6801 19.8783C66.7816 19.928 66.8335 20.0385 66.8335 20.2123C66.8335 20.2664 66.8335 20.3928 66.8335 20.5914C66.82 20.808 66.8155 21.0607 66.8155 21.3495C66.802 21.6564 66.7974 21.9903 66.7974 22.3514C66.7839 22.7192 66.7794 23.087 66.7794 23.4525C66.7546 24.319 66.7298 25.2847 66.7072 26.3497C66.6891 26.4761 66.6936 26.5889 66.7252 26.6837C66.7365 26.7739 66.7613 26.8507 66.7974 26.9093C66.8335 26.9883 66.89 27.0267 66.9689 27.0267C67.0592 27.0267 67.1517 27.0221 67.2487 27.0086L67.5556 26.9725C67.6684 26.9612 67.7835 26.9409 67.8986 26.9093C67.9099 26.898 67.9279 26.8913 67.9527 26.8913C67.9753 26.88 68.0272 26.8732 68.1062 26.8732C68.1648 26.8732 68.228 26.8958 68.2957 26.9364C68.3431 26.9725 68.3679 27.0424 68.3679 27.144C68.3679 27.241 68.3792 27.3741 68.404 27.5411C68.4266 27.7171 68.4537 27.8909 68.4852 28.0646C68.5078 28.2699 68.5394 28.4775 68.5755 28.6874C68.5868 28.7663 68.5868 28.8386 68.5755 28.904C68.5507 28.9649 68.5123 29.0191 68.4582 29.0664C68.4085 29.1341 68.3273 29.1793 68.2145 29.2018C68.1287 29.2154 68.0091 29.2334 67.8534 29.256C67.691 29.2989 67.515 29.3327 67.33 29.3553C67.1246 29.3801 66.917 29.3959 66.7072 29.4094C66.477 29.432 66.2559 29.4455 66.0393 29.4455C65.8881 29.4455 65.7437 29.4388 65.6061 29.4275C65.4662 29.4139 65.3466 29.3959 65.245 29.3733C65.0826 29.3372 64.9562 29.2357 64.866 29.0664C64.7622 28.904 64.6945 28.7144 64.6584 28.4978C64.6087 28.288 64.5794 28.0691 64.5681 27.839C64.5433 27.6111 64.532 27.4148 64.532 27.2523H64.4508C64.1123 27.9337 63.6024 28.4617 62.9164 28.8408C62.235 29.2334 61.5174 29.4275 60.7593 29.4275C60.2584 29.4275 59.7619 29.3282 59.27 29.1296C58.7759 28.9378 58.3404 28.6332 57.9613 28.218C57.5687 27.8164 57.2596 27.2929 57.0317 26.6476C56.797 26.0045 56.6797 25.2283 56.6797 24.319C56.6797 23.7661 56.7361 23.2765 56.8512 22.8478C56.9595 22.4326 57.1084 22.0603 57.3025 21.7286C57.4875 21.4172 57.7086 21.1464 57.9613 20.9163C58.214 20.6884 58.478 20.4988 58.7556 20.3477C59.4641 19.9686 60.2019 19.7791 60.9669 19.7791C61.6754 19.7791 62.3478 19.9393 62.9796 20.2574C63.5933 20.5823 64.101 21.0562 64.5049 21.6744L64.5681 21.6564L64.4688 20.3657C64.4688 20.2642 64.4801 20.1717 64.5049 20.0859C64.5343 20.0092 64.5726 19.9393 64.6223 19.8783C64.6584 19.8242 64.7261 19.7971 64.8299 19.7971H65.1367C65.2631 19.7971 65.394 19.7971 65.5339 19.7971C65.6602 19.8106 65.7866 19.8152 65.9129 19.8152H66.3101ZM59.0264 24.4182C59.0264 25.032 59.1189 25.5103 59.3062 25.8533C59.4799 26.2098 59.6988 26.4671 59.965 26.6295C60.229 26.8055 60.5156 26.9138 60.8225 26.9544C61.1113 26.9905 61.3685 27.0086 61.5987 27.0086C61.8198 27.0086 62.0635 26.986 62.3297 26.9364C62.5825 26.8822 62.8284 26.7807 63.0698 26.6295C63.309 26.4806 63.5302 26.2595 63.7287 25.9707C63.9205 25.6773 64.0627 25.2847 64.1529 24.7973C64.2251 24.3641 64.1981 23.9805 64.0717 23.642C63.9318 23.2991 63.731 23.008 63.467 22.7665C63.1894 22.5319 62.8668 22.3514 62.5012 22.225C62.1334 22.0986 61.7702 22.0355 61.4091 22.0355C61.1023 22.0355 60.8044 22.0783 60.5156 22.1618C60.2268 22.2656 59.9741 22.4123 59.7574 22.6041C59.534 22.7914 59.3603 23.0351 59.2339 23.3352C59.094 23.642 59.0264 24.0031 59.0264 24.4182Z" fill="#4C7031"/>
<path d="M72.9032 29.3914C72.373 29.3914 71.9059 29.2606 71.5042 28.9943C71.1003 28.7416 70.7483 28.4077 70.4482 27.9925C70.1414 27.5773 69.8887 27.0989 69.6901 26.5574C69.4848 26.0294 69.32 25.4788 69.1937 24.9057C69.0538 24.3529 68.9545 23.8046 68.8958 23.263C68.8169 22.735 68.765 22.2567 68.7424 21.828C68.7063 21.4083 68.6882 21.0653 68.6882 20.799L68.6702 20.4199C68.6702 20.3974 68.6702 20.3545 68.6702 20.2936C68.6567 20.2282 68.6702 20.1582 68.7063 20.086C68.7289 20.0206 68.7875 19.9642 68.8778 19.9145C68.95 19.8671 69.0696 19.8423 69.2388 19.8423H69.7623C69.9428 19.8423 70.1008 19.8333 70.2407 19.8152H70.728C70.8296 19.8152 70.9176 19.8423 70.9898 19.8965C71.0552 19.9461 71.1184 20.0138 71.1793 20.1041C71.2335 20.2078 71.2606 20.3568 71.2606 20.5553V21.2954C71.2606 21.6632 71.2718 22.0784 71.2967 22.541C71.3079 23.0103 71.3463 23.4977 71.414 24.0031C71.4727 24.5221 71.5674 24.9937 71.6938 25.4202C71.8201 25.8602 71.9826 26.2234 72.1812 26.5123C72.3842 26.8079 72.6437 26.9613 72.9574 26.9726C73.2755 26.95 73.535 26.7718 73.7336 26.4401C73.9367 26.1287 74.1036 25.7248 74.23 25.2306C74.3563 24.7387 74.4489 24.2017 74.5098 23.6241C74.5752 23.0532 74.6204 22.5026 74.6452 21.9724C74.6565 21.4556 74.6632 20.9953 74.6632 20.5914V19.7972C74.6632 19.5986 74.6948 19.4497 74.7625 19.3459C74.8099 19.2556 74.864 19.1879 74.925 19.1383C75.0017 19.0909 75.0919 19.0661 75.1957 19.0661H75.6831C75.8208 19.0796 75.981 19.0842 76.1615 19.0842H76.685C76.8655 19.0842 76.9918 19.109 77.064 19.1564C77.1408 19.206 77.1994 19.2624 77.2355 19.3278C77.2581 19.4068 77.2716 19.4768 77.2716 19.5354C77.2581 19.5964 77.2536 19.6415 77.2536 19.6708V20.1041C77.24 20.3929 77.222 20.7674 77.1994 21.2232C77.1633 21.6881 77.1047 22.207 77.0279 22.7847C76.949 23.3804 76.8497 23.9828 76.7301 24.5898C76.5857 25.2035 76.4142 25.8038 76.2156 26.3859C75.999 26.9635 75.7395 27.4825 75.4394 27.9383C75.1258 28.3896 74.758 28.7484 74.3383 29.0124C73.9231 29.2786 73.4448 29.4027 72.9032 29.3914Z" fill="#4C7031"/>
<path d="M80.4131 25.7632C80.3995 25.7451 80.4131 25.8151 80.4492 25.9707C80.4717 26.1219 80.553 26.2844 80.6929 26.4581C80.8373 26.6522 81.0471 26.8237 81.3246 26.9726C81.5999 27.1351 81.9767 27.2163 82.4529 27.2163C82.8861 27.2163 83.2336 27.1847 83.4998 27.117C83.7525 27.0696 83.9895 26.9884 84.2129 26.8733C84.4408 26.7605 84.6754 26.6477 84.9169 26.5394C85.156 26.4265 85.3591 26.3679 85.5216 26.3679C85.6705 26.3679 85.7698 26.4265 85.8194 26.5394C85.86 26.6251 85.9119 26.7244 85.9729 26.8372C86.027 26.9523 86.0767 27.0606 86.1263 27.1621C86.1737 27.2772 86.2188 27.3652 86.2617 27.4239L86.3158 27.5412L86.37 27.6495C86.3925 27.7285 86.4061 27.8187 86.4061 27.9203C86.3925 28.0173 86.3564 28.1234 86.2978 28.2362C86.2188 28.3625 86.0812 28.4709 85.8826 28.5611C85.6773 28.6469 85.481 28.7394 85.2959 28.8409C85.1019 28.9447 84.874 29.0395 84.61 29.1297C84.3437 29.2155 84.0323 29.2832 83.6713 29.3373C83.2922 29.396 82.8229 29.4276 82.2633 29.4276C81.5593 29.4276 80.9365 29.2899 80.395 29.0124C79.8399 28.7484 79.3751 28.3964 78.996 27.9564C78.6034 27.5119 78.3011 27.0064 78.0844 26.4401C77.8543 25.8873 77.7234 25.3119 77.6873 24.7162C77.6512 24.1273 77.7076 23.5474 77.8588 22.9742C77.9964 22.4214 78.2424 21.925 78.5989 21.485C78.9351 21.0473 79.3774 20.6862 79.9257 20.4019C80.4537 20.1379 81.0945 20.0048 81.8481 20.0048C82.5815 20.0048 83.2133 20.095 83.7435 20.2756C84.2602 20.4628 84.6957 20.6998 85.0522 20.9886C85.3997 21.2955 85.6773 21.6294 85.8826 21.9904C86.0812 22.3582 86.2256 22.726 86.3158 23.0916C86.4061 23.4706 86.4512 23.8226 86.4512 24.1476C86.4377 24.4793 86.3993 24.7523 86.3339 24.9689V25.0592C86.3203 25.1381 86.2842 25.2126 86.2256 25.2848C86.1579 25.3638 86.0563 25.4337 85.9187 25.4924C85.7675 25.5601 85.5532 25.5917 85.2779 25.5917C85.0252 25.5917 84.6574 25.5984 84.1768 25.6097C83.6939 25.6345 83.211 25.6526 82.7236 25.6639C82.2182 25.6887 81.7579 25.7067 81.3427 25.718C80.9095 25.7496 80.6229 25.7632 80.4853 25.7632H80.4131ZM84.0684 23.7143L84.0865 23.4345C84.0865 23.254 84.0346 23.06 83.9331 22.8479C83.8293 22.6448 83.6578 22.4553 83.4186 22.2793C83.1659 22.1055 82.7958 22.0175 82.3084 22.0175H82.1009C82.0219 22.0175 81.9429 22.0243 81.8662 22.0356C81.3472 22.0852 80.9726 22.2161 80.738 22.4327C80.4853 22.6448 80.3183 22.8637 80.2416 23.0916C80.1513 23.333 80.1197 23.5474 80.1513 23.7324L80.1874 24.0212C80.1987 24.0347 80.3363 24.0393 80.6026 24.0393C80.8553 24.0528 81.1306 24.0573 81.433 24.0573H81.8301C81.9564 24.0573 82.0693 24.0528 82.1731 24.0393C82.3355 24.028 82.5251 24.0009 82.7417 23.958C82.9515 23.9355 83.1591 23.9039 83.3644 23.8678C83.5495 23.8317 83.7164 23.7933 83.8609 23.7504L84.0684 23.7143Z" fill="#4C7031"/>
<path d="M89.792 28.9221V28.9943C89.7785 29.0552 89.7604 29.1116 89.7379 29.1658C89.713 29.2267 89.6747 29.2831 89.6205 29.3373C89.5709 29.3869 89.4964 29.4095 89.3949 29.4095C89.2911 29.4095 89.1467 29.4027 88.9616 29.3914C88.7676 29.3914 88.5781 29.3869 88.393 29.3734C88.1516 29.3734 87.9056 29.3689 87.6529 29.3553C87.592 29.3553 87.5446 29.3373 87.5085 29.3012C87.4544 29.2605 87.4137 29.2019 87.3912 29.1297C87.3551 29.053 87.337 28.9379 87.337 28.7867C87.337 28.71 87.337 28.4753 87.337 28.0827C87.3235 27.7036 87.319 27.232 87.319 26.6657C87.3009 26.1016 87.2919 25.4562 87.2919 24.7342C87.2784 24.0302 87.2671 23.3126 87.2558 22.5771C87.2423 21.8618 87.2377 21.1578 87.2377 20.465C87.2242 19.7678 87.2197 19.1473 87.2197 18.6058C87.2062 18.0642 87.2016 17.631 87.2016 17.3061C87.1881 16.9766 87.1836 16.8051 87.1836 16.7916V16.6562C87.1836 16.5976 87.1949 16.5344 87.2197 16.4667C87.2423 16.408 87.2874 16.3448 87.3551 16.2771C87.4137 16.2298 87.5017 16.2049 87.6168 16.2049C87.7432 16.2049 87.9079 16.2004 88.1132 16.1869C88.2983 16.1869 88.4788 16.1824 88.6548 16.1688C88.8827 16.1688 89.1173 16.1643 89.3588 16.1508C89.4851 16.1508 89.5934 16.1688 89.6837 16.2049C89.7672 16.2298 89.8416 16.2817 89.9093 16.3584C89.968 16.4486 89.9996 16.5818 89.9996 16.7555C89.9996 16.8458 89.9996 17.0872 89.9996 17.4776C89.9861 17.8702 89.9815 18.353 89.9815 18.9307C89.968 19.5083 89.9567 20.1582 89.9454 20.8802C89.9319 21.6091 89.9206 22.3401 89.9093 23.0735C89.8845 23.8203 89.8642 24.5401 89.8462 25.2306C89.8326 25.9346 89.8281 26.5574 89.8281 27.0989C89.8146 27.6472 89.8101 28.0827 89.8101 28.4076L89.792 28.9221Z" fill="#4C7031"/>
</svg>
