<svg width="228" height="329" viewBox="0 0 228 329" fill="none" xmlns="http://www.w3.org/2000/svg">
<path d="M60.3166 65.5438C56.5468 59.1916 46.4813 53.4237 39.0736 52.9902C31.6658 52.5567 25.4267 54.8186 21.1103 60.8315C16.7938 66.8255 20.0736 77.3999 23.1083 84.1291C25.0498 88.4455 31.402 87.7293 34.8514 91.5934C25.0875 107.351 16.2472 129.763 14.9277 148.028C14.89 169.214 19.9982 190.382 30.4595 209.42C20.1867 226.441 12.0627 244.743 6.3325 263.291C2.95849 277.993 4.80572 293.676 10.7244 307.549C15.0031 317.614 21.6946 327.076 31.2512 332.486C36.3781 335.408 42.1271 337.048 47.8008 338.65C51.2125 339.63 54.6619 340.61 58.2055 340.742C110.983 342.91 129.192 340.78 130.002 341.044C131.567 341.572 161.857 338.989 163.893 339.837C170.113 342.439 177.219 340.441 183.59 338.273C188.755 336.501 193.939 334.616 198.557 331.713C208.132 325.701 214.692 315.654 218.103 304.948C224.512 289.416 225.228 271.811 221.213 255.506C217.199 239.201 208.566 224.198 198.123 211.041C213.73 174.492 213.58 128.952 197.803 92.6866C205.418 88.766 215.898 78.7194 215.219 70.2184C214.522 61.7362 207.303 54.9694 199.16 52.2928C190.998 49.635 179.651 58.3434 174.26 64.4694C169.265 58.5319 155.166 52.387 147.739 50.0309C118.259 40.644 86.2343 44.7342 60.3166 65.5438Z" fill="#DDA783"/>
<path d="M186.306 173.305C183.573 169.101 181.292 167.179 177.861 166.632C174.431 166.085 168.757 167.914 166.853 172.758C166.194 174.436 167.155 173.154 167.852 175.359C170.152 172.381 172.866 171.665 176.24 171.363C180.312 171.005 182.253 171.816 186.306 173.305Z" fill="#703627"/>
<path d="M169.266 169.798C166.193 172.116 165.081 176.508 166.476 180.24C167.645 183.369 170.887 185.443 174.11 185.443C177.522 185.443 180.802 183.162 182.065 179.92C183.327 176.659 182.517 172.606 180.085 170.062C177.654 167.517 173.413 166.688 169.266 169.798Z" fill="#703627"/>
<path d="M197.803 186.31C197.803 187.271 197.615 188.214 197.238 189.1C196.861 190.004 196.333 190.796 195.655 191.475C194.957 192.153 194.166 192.681 193.261 193.058C192.356 193.416 191.432 193.605 190.452 193.605C189.472 193.605 188.53 193.416 187.644 193.058C186.739 192.681 185.947 192.153 185.25 191.475C184.571 190.796 184.025 190.004 183.667 189.1C183.29 188.214 183.101 187.271 183.101 186.31C183.101 185.349 183.29 184.406 183.667 183.52C184.025 182.616 184.571 181.824 185.25 181.145C185.947 180.467 186.739 179.939 187.644 179.562C188.53 179.185 189.472 179.015 190.452 179.015C191.432 179.015 192.356 179.185 193.261 179.562C194.166 179.939 194.957 180.467 195.655 181.145C196.333 181.824 196.861 182.616 197.238 183.52C197.615 184.406 197.803 185.349 197.803 186.31Z" fill="#DD917A"/>
<path d="M163.705 340.704C171.301 330.205 170.359 315.069 163.328 304.175C156.316 293.28 144.196 286.343 131.548 283.233C117.072 279.689 101.163 280.839 88.0632 287.927C74.9442 295.014 65.0483 308.321 63.6346 323.08C63.1822 327.698 63.7477 332.844 67.084 336.086C70.4392 339.328 75.5662 339.762 80.2408 339.95C109.024 341.176 137.882 340.968 163.705 340.704Z" fill="#FFDCC4"/>
<path d="M46.3501 175.849C49.0832 171.646 51.364 169.723 54.7945 169.176C58.2251 168.63 63.8987 170.439 65.8025 175.302C66.4622 176.98 65.482 175.698 64.8035 177.885C62.485 174.925 59.7896 174.19 56.4156 173.908C52.3441 173.549 50.3838 174.36 46.3501 175.849Z" fill="#703627"/>
<path d="M63.3895 172.343C66.4619 174.661 67.574 179.053 66.1792 182.785C65.0105 185.895 61.7684 187.987 58.5452 187.987C55.1335 187.987 51.8538 185.707 50.5909 182.446C49.328 179.204 50.1385 175.151 52.57 172.607C55.0016 170.062 59.2427 169.233 63.3895 172.343Z" fill="#703627"/>
<path d="M49.5544 188.855C49.5544 189.816 49.3659 190.759 48.989 191.645C48.6308 192.531 48.0842 193.322 47.4056 194.02C46.7082 194.698 45.9165 195.226 45.0118 195.603C44.107 195.961 43.1834 196.15 42.2032 196.15C41.2231 196.15 40.2995 195.961 39.3947 195.603C38.4899 195.226 37.6983 194.698 37.0009 194.02C36.3223 193.322 35.7945 192.531 35.4175 191.645C35.0405 190.759 34.8521 189.816 34.8521 188.855C34.8521 187.875 35.0405 186.951 35.4175 186.065C35.7945 185.161 36.3223 184.369 37.0009 183.69C37.6983 183.012 38.4899 182.484 39.3947 182.107C40.2995 181.73 41.2231 181.542 42.2032 181.542C43.1834 181.542 44.107 181.73 45.0118 182.107C45.9165 182.484 46.7082 183.012 47.4056 183.69C48.0842 184.369 48.6308 185.161 48.989 186.065C49.3659 186.951 49.5544 187.875 49.5544 188.855Z" fill="#DD917A"/>
<path d="M119.485 261.669C115.244 261.669 110.927 261.386 106.573 260.84C70.458 256.222 37.3399 232.038 22.204 199.241C7.59589 167.612 11.8558 122.751 32.5334 90.1414C33.3439 88.8785 35.0403 88.5015 36.3032 89.2932C37.585 90.1037 37.962 91.7813 37.1703 93.0442C17.4163 124.183 13.3072 166.933 27.1802 196.979C41.5433 228.118 72.9838 251.057 107.271 255.449C122.708 257.428 137.505 255.675 150.077 250.416C162.725 245.101 173.45 237.825 183.836 227.514C207.209 204.311 217.35 141.581 195.428 95.4946C194.787 94.1375 195.372 92.5164 196.729 91.8756C198.105 91.2347 199.726 91.819 200.367 93.1761C223.231 141.204 212.336 206.912 187.7 231.36C176.956 242.028 165.345 249.907 152.188 255.411C142.311 259.558 131.19 261.669 119.485 261.669Z" fill="#703627"/>
<mask id="mask0_594_16106" style="mask-type:luminance" maskUnits="userSpaceOnUse" x="0" y="206" width="228" height="138">
<path d="M0 206.762H228V343.984H0V206.762Z" fill="white"/>
</mask>
<g mask="url(#mask0_594_16106)">
<path d="M103.406 343.795C78.3181 343.795 54.2288 343.098 45.7467 340.836C31.9867 337.16 20.3191 329.451 13.7596 319.687C3.50558 304.382 -0.000367641 283.383 4.18415 262.084C8.27444 241.124 18.7734 222.387 27.4629 208.42C28.2546 207.138 29.9322 206.761 31.2328 207.534C32.5145 208.326 32.9104 210.004 32.1187 211.285C23.6742 224.857 13.4768 243.009 9.53733 263.121C5.65439 283.025 8.83991 302.553 18.3211 316.671C24.1455 325.361 34.6633 332.259 47.1792 335.596C64.9917 340.346 166.627 337.518 173.507 336.84C188.247 335.407 202.459 327.491 209.716 316.671C219.197 302.553 222.383 283.025 218.5 263.121C214.881 244.667 205.701 228.853 195.786 212.925C194.995 211.643 195.391 209.966 196.691 209.193C197.973 208.401 199.65 208.797 200.442 210.06C210.621 226.44 220.083 242.726 223.853 262.084C228.037 283.383 224.531 304.382 214.277 319.687C206.003 331.996 190.603 340.647 174.053 342.25C170.076 342.645 135.921 343.795 103.406 343.795Z" fill="#703627"/>
</g>
<path d="M45.1627 97.0596C45.0119 97.0596 44.8799 97.0408 44.7291 97.0219C35.8512 95.5705 28.7639 92.5547 23.6557 88.012C17.0774 82.1876 13.9672 73.5735 15.7202 66.0715C17.4355 58.7769 23.7877 52.6509 31.5724 50.8037C38.6031 49.1261 46.5952 50.8602 52.9474 55.4217C58.5079 59.4178 62.9375 65.6191 65.4256 72.8949C65.9156 74.3275 65.1428 75.8543 63.7103 76.3443C62.2778 76.8344 60.7321 76.0616 60.242 74.6479C58.1121 68.4277 54.3799 63.1687 49.743 59.8324C44.6537 56.1757 38.3393 54.7808 32.8353 56.0814C27.0297 57.4574 22.2986 61.9624 21.0545 67.2967C19.7539 72.8949 22.2043 79.4356 27.2936 83.9594C31.6101 87.8047 37.7738 90.387 45.5962 91.6499C47.0853 91.8949 48.1031 93.2898 47.8581 94.7789C47.6319 96.1172 46.4821 97.0596 45.1627 97.0596Z" fill="#703627"/>
<path d="M53.7204 81.2639C52.6083 81.2639 51.5527 80.5665 51.1569 79.4732C48.4803 72.0655 40.8275 66.7312 32.9297 66.7312C32.892 66.7312 32.8543 66.7312 32.8355 66.7312C31.3275 66.7312 30.1023 65.5248 30.0835 64.0357C30.0835 62.5278 31.3087 61.3026 32.8166 61.3026C32.8543 61.3026 32.892 61.3026 32.9297 61.3026C43.0706 61.3026 52.891 68.1449 56.3027 77.626C56.8117 79.0397 56.0765 80.6042 54.644 81.1131C54.3424 81.2074 54.0408 81.2639 53.7204 81.2639Z" fill="#703627"/>
<path d="M188.737 96.6258C187.493 96.6258 186.362 95.7775 186.079 94.5147C185.74 93.0444 186.664 91.593 188.134 91.2537C195.862 89.5196 201.856 86.5603 205.928 82.47C210.753 77.6446 212.789 70.972 211.13 65.468C209.566 60.2091 204.552 56.0057 198.69 54.969C193.11 54.0077 186.89 55.7795 182.046 59.7379C177.616 63.3569 174.223 68.842 172.47 75.1754C172.074 76.6268 170.548 77.475 169.115 77.0791C167.664 76.6833 166.797 75.1942 167.193 73.7428C169.228 66.3351 173.281 59.8698 178.577 55.5533C184.628 50.596 192.507 48.3906 199.632 49.6158C207.492 50.9918 214.221 56.7408 216.37 63.9035C218.594 71.2924 216.012 80.0762 209.829 86.2964C205.004 91.1218 198.105 94.5712 189.34 96.5504C189.133 96.6069 188.945 96.6258 188.737 96.6258Z" fill="#703627"/>
<path d="M179.218 81.3771C178.973 81.3771 178.709 81.3582 178.464 81.2828C177.013 80.8493 176.164 79.3602 176.598 77.9088C179.425 68.2015 188.869 60.756 199.028 60.1717C200.499 60.0963 201.837 61.2461 201.912 62.7352C202.007 64.2431 200.838 65.5249 199.33 65.6003C191.413 66.0527 184.062 71.8582 181.838 79.4356C181.499 80.6231 180.405 81.3771 179.218 81.3771Z" fill="#703627"/>
<path d="M120.766 166.613C114.584 166.387 108.326 166.613 102.37 168.291C96.4133 169.968 90.7585 173.191 87.0453 178.111C82.7665 183.803 81.447 191.136 80.8439 198.223C80.203 205.876 80.2218 213.604 81.4659 221.163C82.1822 225.554 83.3697 230.022 86.2347 233.433C91.0036 239.069 99.0711 240.427 106.422 241.388C113.453 242.33 120.559 243.254 127.609 242.406C134.64 241.539 141.708 238.674 146.175 233.207C149.266 229.437 150.925 224.706 151.905 219.937C153.96 209.797 153.149 199.279 151.17 189.119C150.171 184.011 148.758 178.733 145.252 174.869C140.087 169.195 131.812 166.99 120.766 166.613Z" fill="#B27966"/>
<path d="M130.474 183.011C129.23 184.576 128.533 186.536 128.514 188.515C128.514 189.345 128.721 190.306 129.475 190.627C130.21 190.947 131.021 190.495 131.68 190.061C133.113 189.119 134.564 188.138 135.676 186.838C136.694 185.631 137.392 183.878 136.657 182.465C136.091 181.39 134.79 180.825 133.584 180.957C132.378 181.07 131.379 181.88 130.474 183.011Z" fill="#703627"/>
<path d="M105.744 183.011C106.988 184.576 107.686 186.536 107.704 188.515C107.723 189.345 107.516 190.306 106.762 190.627C106.027 190.947 105.198 190.495 104.538 190.061C103.105 189.119 101.654 188.138 100.561 186.838C99.5239 185.631 98.8265 183.878 99.5616 182.465C100.127 181.39 101.428 180.825 102.653 180.957C103.859 181.07 104.858 181.88 105.744 183.011Z" fill="#703627"/>
<path d="M126.629 227.817C122.652 227.817 118.75 225.272 116.507 221.144C116.337 220.842 116.262 220.522 116.262 220.183L116.243 217.374C116.205 211.135 116.167 204.934 116.092 199.43C116.073 198.299 116.978 197.375 118.109 197.356C119.334 197.356 120.164 198.242 120.182 199.354C120.277 204.877 120.314 211.097 120.333 217.336L120.352 219.617C121.973 222.294 124.631 223.934 127.025 223.726C129.607 223.519 132.095 221.257 133.226 218.109C133.603 217.054 134.772 216.507 135.846 216.884C136.902 217.261 137.467 218.43 137.09 219.485C135.394 224.179 131.586 227.44 127.364 227.798C127.119 227.817 126.874 227.817 126.629 227.817Z" fill="#703627"/>
<path d="M110.249 227.1C109.74 227.1 109.213 227.062 108.685 226.968C104.538 226.271 100.806 222.727 99.1471 217.958C98.7701 216.903 99.3356 215.734 100.41 215.376C101.484 214.999 102.653 215.564 103.011 216.62C104.18 219.956 106.724 222.501 109.363 222.953C111.908 223.368 114.566 221.898 116.13 219.146C116.696 218.165 117.94 217.826 118.939 218.373C119.919 218.938 120.258 220.182 119.712 221.162C117.582 224.895 113.981 227.1 110.249 227.1Z" fill="#703627"/>
<path d="M26.2947 261.368C26.257 261.368 26.2381 261.368 26.2193 261.368C24.7114 261.33 23.5239 260.086 23.5427 258.597L23.882 244.649C23.9197 243.16 25.1449 241.991 26.6151 241.991C26.634 241.991 26.6717 241.991 26.6905 241.991C28.1985 242.029 29.386 243.273 29.3483 244.781L29.0278 258.729C28.9901 260.199 27.7649 261.368 26.2947 261.368Z" fill="#C48C71"/>
<path d="M36.9823 286.607C35.5121 286.607 34.2869 285.438 34.2492 283.949L33.9099 269.68C33.891 268.172 35.0785 266.928 36.5865 266.89C38.0756 266.853 39.3573 268.059 39.395 269.548L39.7154 283.836C39.7531 285.325 38.5656 286.569 37.0389 286.607C37.02 286.607 37.0012 286.607 36.9823 286.607Z" fill="#C48C71"/>
<path d="M19.6031 301.555C18.1518 301.555 16.9454 300.424 16.87 298.972L16.1914 285.363C16.116 283.855 17.2847 282.592 18.7926 282.517C20.2629 282.423 21.5823 283.591 21.6577 285.099L22.3363 298.709C22.4117 300.198 21.243 301.479 19.7351 301.555C19.6785 301.555 19.6408 301.555 19.6031 301.555Z" fill="#C48C71"/>
<path d="M35.9831 322.477C34.6448 322.477 33.4762 321.516 33.2688 320.159L31.6101 308.868C31.3839 307.379 32.4206 306.003 33.9097 305.777C35.3988 305.569 36.7936 306.587 37.0198 308.076L38.6974 319.367C38.9047 320.856 37.8869 322.232 36.3789 322.439C36.247 322.477 36.1151 322.477 35.9831 322.477Z" fill="#C48C71"/>
<path d="M181.763 286.286C181.744 286.286 181.725 286.286 181.706 286.286C180.198 286.248 178.992 285.004 179.03 283.496L179.369 269.228C179.407 267.72 180.594 266.513 182.159 266.57C183.667 266.607 184.873 267.852 184.835 269.341L184.496 283.628C184.458 285.099 183.252 286.286 181.763 286.286Z" fill="#C48C71"/>
<path d="M193.807 259.049C192.356 259.049 191.15 257.937 191.074 256.486L190.415 245.195C190.32 243.706 191.47 242.424 192.978 242.33C194.58 242.236 195.787 243.386 195.862 244.875L196.541 256.166C196.616 257.673 195.466 258.955 193.958 259.049C193.902 259.049 193.845 259.049 193.807 259.049Z" fill="#C48C71"/>
<path d="M203.156 285.947C201.686 285.947 200.48 284.779 200.423 283.308L200.103 271.358C200.065 269.85 201.253 268.606 202.761 268.568C204.193 268.531 205.531 269.699 205.569 271.207L205.908 283.158C205.946 284.647 204.759 285.91 203.251 285.947C203.213 285.947 203.194 285.947 203.156 285.947Z" fill="#C48C71"/>
<path d="M193.808 320.159C193.676 320.159 193.544 320.14 193.412 320.121C191.923 319.914 190.886 318.538 191.093 317.049L193.77 298.784C193.996 297.295 195.372 296.258 196.88 296.484C198.369 296.692 199.406 298.086 199.18 299.557L196.503 317.822C196.315 319.179 195.146 320.159 193.808 320.159Z" fill="#C48C71"/>
<path d="M114.453 82.1493C114.434 82.1493 114.434 82.1493 114.415 82.1493C112.907 82.1304 111.701 80.9052 111.719 79.3973L111.964 60.9251C112.002 59.436 113.209 58.2296 114.716 58.2296C114.716 58.2296 114.735 58.2296 114.754 58.2296C116.262 58.2673 117.468 59.4925 117.45 61.0004L117.186 79.4727C117.167 80.9618 115.942 82.1493 114.453 82.1493Z" fill="#C48C71"/>
<path d="M144.12 85.2029C144.101 85.2029 144.083 85.2029 144.045 85.2029C142.537 85.1652 141.349 83.9023 141.387 82.4132L141.802 67.9935C141.839 66.4856 143.102 65.317 144.61 65.3546C146.118 65.3923 147.306 66.6364 147.268 68.1443L146.853 82.564C146.816 84.0342 145.609 85.2029 144.12 85.2029Z" fill="#C48C71"/>
<path d="M81.7494 89.0671C81.6363 89.0671 81.5232 89.0482 81.429 89.0482C79.921 88.8786 78.8466 87.5214 79.0163 86.0324C79.6006 80.9431 79.5252 75.7784 78.7901 70.6891C78.5827 69.2 79.6194 67.824 81.1085 67.6167C82.6353 67.3905 83.9924 68.4272 84.1998 69.9163C85.0103 75.458 85.0857 81.0939 84.4448 86.6544C84.294 88.0304 83.1065 89.0671 81.7494 89.0671Z" fill="#C48C71"/>
<path d="M96.2249 115.494C96.1495 115.494 96.0741 115.494 95.9987 115.475C94.4908 115.362 93.3598 114.042 93.4918 112.553C93.963 106.842 93.4918 101.131 92.0592 95.5701C91.6823 94.1187 92.5493 92.6484 94.0196 92.2714C95.4898 91.8945 96.9789 92.7804 97.3559 94.2318C98.9392 100.377 99.467 106.691 98.9392 113.006C98.8261 114.419 97.6198 115.494 96.2249 115.494Z" fill="#C48C71"/>
<path d="M130.813 112.422C129.362 112.422 128.174 111.309 128.08 109.858L127.27 96.2489C127.175 94.7598 128.325 93.4592 129.833 93.3838C131.322 93.2896 132.623 94.4394 132.717 95.9285L133.546 109.538C133.622 111.027 132.491 112.327 130.964 112.403C130.926 112.422 130.87 112.422 130.813 112.422Z" fill="#C48C71"/>
<path d="M117.11 131.911C115.678 131.911 114.471 130.799 114.377 129.366L113.566 116.361C113.472 114.871 114.622 113.571 116.13 113.477C117.694 113.401 118.92 114.532 119.014 116.021L119.843 129.027C119.937 130.516 118.788 131.817 117.28 131.911C117.223 131.911 117.167 131.911 117.11 131.911Z" fill="#C48C71"/>
<path d="M29.3481 227.778V120.47C29.3481 119.018 30.5356 117.831 31.987 117.831H190.038C191.508 117.831 192.677 119.018 192.677 120.47V227.778C192.677 229.23 191.508 230.398 190.038 230.398H31.987C30.5356 230.398 29.3481 229.23 29.3481 227.778Z" fill="#F2B2BC"/>
<path d="M191.281 151.703C192.299 146.255 193.317 140.714 192.714 135.191C192.111 129.687 189.66 124.107 185.023 121.016C180.405 117.944 174.506 117.755 168.945 117.68C155.92 117.51 142.895 117.359 128.985 117.341C99.6177 121.732 68.8181 111.686 40.2992 119.942C37.5661 120.733 34.7952 121.751 32.7595 123.712C29.2724 127.104 28.7635 132.476 29.1028 137.302C29.4421 142.127 30.4034 147.085 29.0839 151.74C82.0502 150.232 135.073 150.157 191.281 151.703Z" fill="#008291"/>
<path d="M177.409 233.112H44.6351C34.7015 233.112 26.6152 225.102 26.6152 215.225V133.004C26.6152 123.146 34.7015 115.116 44.6351 115.116H177.409C187.342 115.116 195.41 123.146 195.41 133.004V215.225C195.41 225.102 187.342 233.112 177.409 233.112ZM44.6351 120.564C37.7174 120.564 32.0815 126.143 32.0815 133.004V215.225C32.0815 222.105 37.7174 227.684 44.6351 227.684H177.409C184.327 227.684 189.944 222.105 189.944 215.225V133.004C189.944 126.143 184.327 120.564 177.409 120.564H44.6351Z" fill="#703627"/>
<path d="M192.677 154.437H29.3484C27.8404 154.437 26.6152 153.211 26.6152 151.722C26.6152 150.214 27.8404 149.008 29.3484 149.008H192.677C194.185 149.008 195.41 150.214 195.41 151.722C195.41 153.211 194.185 154.437 192.677 154.437Z" fill="#703627"/>
<path d="M130.945 166.425C124.027 172.023 119.617 180.637 119.24 189.496C118.863 198.355 122.557 207.327 129.117 213.321C135.695 219.334 145.063 222.218 153.885 220.899C159.294 220.069 164.44 217.751 168.606 214.226C172.979 210.532 176.259 205.518 177.71 199.995C180.726 188.629 175.523 175.849 165.91 169.026C156.278 162.221 141.086 158.225 130.945 166.425Z" fill="#008291"/>
<path d="M143.801 181.278C139.088 183.691 136.412 189.458 137.618 194.585C138.806 199.694 143.782 203.708 149.059 203.821C154.356 203.935 159.502 200.146 160.916 195.075C162.329 190.005 159.898 184.124 155.317 181.523C152.358 179.826 148.551 178.827 143.801 181.278Z" fill="#EBDDD6"/>
<path d="M43.4473 140.035V132.402C43.4473 131.949 43.8242 131.61 44.2578 131.61H71.0802C71.5137 131.61 71.8907 131.949 71.8907 132.402V140.035C71.8907 140.488 71.5137 140.846 71.0802 140.846H44.2578C43.8242 140.846 43.4473 140.488 43.4473 140.035Z" fill="#EBDDD6"/>
<path d="M149.003 224.348C131.115 224.348 116.545 209.891 116.545 192.116C116.545 174.341 131.115 159.884 149.003 159.884C166.91 159.884 181.462 174.341 181.462 192.116C181.462 209.891 166.91 224.348 149.003 224.348ZM149.003 165.312C134.131 165.312 122.03 177.338 122.03 192.116C122.03 206.894 134.131 218.919 149.003 218.919C163.894 218.919 175.995 206.894 175.995 192.116C175.995 177.338 163.894 165.312 149.003 165.312Z" fill="#703627"/>
<path d="M149.003 216.149C135.657 216.149 124.8 205.367 124.8 192.116C124.8 178.865 135.657 168.083 149.003 168.083C162.348 168.083 173.205 178.865 173.205 192.116C173.205 205.367 162.348 216.149 149.003 216.149ZM149.003 173.512C138.673 173.512 130.267 181.862 130.267 192.116C130.267 202.37 138.673 210.72 149.003 210.72C159.332 210.72 167.739 202.37 167.739 192.116C167.739 181.862 159.332 173.512 149.003 173.512Z" fill="#703627"/>
<path d="M149.003 206.516C141.011 206.516 134.508 200.051 134.508 192.116C134.508 184.18 141.011 177.715 149.003 177.715C156.995 177.715 163.498 184.18 163.498 192.116C163.498 200.051 156.995 206.516 149.003 206.516ZM149.003 183.162C144.027 183.162 139.974 187.177 139.974 192.116C139.974 197.054 144.027 201.069 149.003 201.069C153.979 201.069 158.032 197.054 158.032 192.116C158.032 187.177 153.979 183.162 149.003 183.162Z" fill="#703627"/>
<path d="M203.854 247.533C203.609 237.316 199.764 227.213 193.129 219.391C190.98 216.865 188.417 214.49 185.231 213.547C181.009 212.303 176.353 213.83 172.941 216.582C169.53 219.334 167.173 223.161 165.157 227.025C158.842 239.163 155.11 252.641 154.318 266.269C154.243 267.456 154.224 268.738 154.903 269.737C155.619 270.792 156.995 271.226 158.277 271.169C159.577 271.113 160.784 270.623 161.971 270.133C166.099 268.436 178.445 245.271 182.102 242.745C198.84 231.115 189.717 238.918 203.854 247.533Z" fill="#DDA783"/>
<path d="M200.272 228.439C188.322 233.773 175.24 236.864 162.14 237.449C163.158 232.491 164.232 227.459 166.871 222.972C169.51 218.486 174.053 214.547 179.519 213.661C184.175 212.907 188.925 214.453 192.525 217.054C196.125 219.636 198.726 223.18 200.272 228.439Z" fill="#B27966"/>
<path d="M155.016 268.606C154.903 268.606 154.79 268.587 154.677 268.587C153.188 268.398 152.113 267.041 152.302 265.552C154.074 251.34 157.919 237.486 163.724 224.385C165.779 219.786 168.286 215.149 172.715 212.473C180.726 207.628 190.867 211.53 196.315 217.675C201.8 223.858 203.949 231.925 205.852 239.031C206.229 240.483 205.362 241.972 203.892 242.349C202.441 242.726 200.933 241.859 200.556 240.407C198.822 233.885 196.842 226.496 192.224 221.275C188.172 216.733 180.821 213.924 175.562 217.11C172.583 218.9 170.68 222.199 168.738 226.572C163.14 239.201 159.427 252.527 157.73 266.212C157.561 267.588 156.392 268.606 155.016 268.606Z" fill="#703627"/>
<path d="M63.9748 273.035C63.1077 264.704 64.5214 256.335 65.2188 247.985C65.9162 239.653 65.8597 230.926 62.2783 223.33C60.4123 219.353 57.3587 215.639 53.1365 214.32C50.0829 213.359 46.7466 213.754 43.6742 214.64C37.4728 216.431 31.8746 220.201 27.9351 225.271C23.4113 231.058 32.3081 233.904 34.8527 240.746C36.6811 245.666 29.5184 254.506 33.6275 257.805C42.5621 264.949 52.571 270.773 63.9748 273.035Z" fill="#DDA783"/>
<path d="M30.0454 222.708C40.1863 230.945 52.0047 237.316 64.5018 241.255C64.8033 236.223 65.1049 231.077 63.7289 226.063C62.353 221.03 59.0166 216.073 53.9651 213.811C49.6486 211.87 44.6724 212.152 40.5256 213.717C36.3599 215.281 32.9293 218.033 30.0454 222.708Z" fill="#B27966"/>
<path d="M63.7291 273.922C63.5972 273.922 63.4652 273.903 63.3333 273.884C61.8442 273.677 60.8075 272.301 61.0148 270.812C62.9563 257.165 62.8809 243.33 60.7698 229.702C60.1855 225.875 59.3373 221.578 56.6607 218.788C52.4007 214.358 44.5972 215.169 39.489 218.505C33.6458 222.35 29.8194 228.985 26.4265 234.829C25.6726 236.129 23.995 236.581 22.6944 235.846C21.3749 235.092 20.9226 233.434 21.6765 232.133C25.371 225.762 29.5555 218.524 36.4732 213.981C43.3531 209.457 54.1537 208.289 60.619 215.056C64.2003 218.788 65.4067 223.896 66.1795 228.872C68.366 243.028 68.4414 257.391 66.4246 271.584C66.2361 272.923 65.0674 273.922 63.7291 273.922Z" fill="#703627"/>
<mask id="mask1_594_16106" style="mask-type:luminance" maskUnits="userSpaceOnUse" x="13" y="0" width="208" height="101">
<path d="M13.0435 0.174683H220.536V100.603H13.0435V0.174683Z" fill="white"/>
</mask>
<g mask="url(#mask1_594_16106)">
<path d="M18.1896 99.9438C16.6063 99.9438 15.9465 97.9458 17.2094 97.0221L34.136 84.6948C35.8513 83.4507 36.8315 81.4527 36.8315 79.3416C37.1142 35.6868 65.8027 11.8049 98.7888 5.71658C111.964 3.28502 122.445 4.09554 127.722 4.62332C163.819 8.24237 197.087 32.3317 197.389 79.3416C197.389 81.4527 198.369 83.4507 200.084 84.6948L217.011 97.0221C218.274 97.9458 217.614 99.9438 216.031 99.9438H18.1896Z" fill="#F5B440"/>
</g>
<path d="M37.3593 83.4688C56.5101 83.4688 155.827 84.4678 196.786 83.6007C197.314 76.1176 197.088 68.6156 196.126 61.1702H38.4903C37.2651 68.5402 36.8693 76.0233 37.3593 83.4688Z" fill="#B25D3E"/>
<path d="M122.18 85.5993C97.978 85.5993 73.9076 85.5239 56.6228 85.4862C47.5941 85.4485 40.6387 85.4297 36.8689 85.4297C35.3609 85.4297 34.1357 84.2045 34.1357 82.7154C34.1357 81.2075 35.3609 80.0011 36.8689 80.0011C40.6387 80.0011 47.5941 80.02 56.6417 80.0388C94.5851 80.1708 165.194 80.3781 198.067 79.6807C199.707 79.643 200.819 80.8493 200.857 82.3384C200.895 83.8463 199.688 85.0904 198.18 85.1092C180.255 85.5051 151.133 85.5993 122.18 85.5993Z" fill="#703627"/>
<mask id="mask2_594_16106" style="mask-type:luminance" maskUnits="userSpaceOnUse" x="13" y="0" width="208" height="106">
<path d="M13.0435 0.174683H220.536V105.429H13.0435V0.174683Z" fill="white"/>
</mask>
<g mask="url(#mask2_594_16106)">
<path d="M216.031 102.658H18.1901C16.2863 102.658 14.6276 101.451 14.0244 99.6605C13.4401 97.8698 14.0809 95.9284 15.6077 94.8163L34.1177 81.3579C33.4579 32.5008 66.7268 8.86387 98.2992 3.03947C112.681 0.400576 124.217 1.55038 128.006 1.92736C161.84 5.32022 200.82 28.1655 200.104 81.3579L218.614 94.8163C220.14 95.9284 220.781 97.8887 220.197 99.6605C219.594 101.451 217.935 102.658 216.031 102.658ZM21.5641 97.229H212.657L195.731 84.9016C195.014 84.3738 194.6 83.5256 194.619 82.6397C195.957 32.1426 159.276 10.5226 127.459 7.33708C121.22 6.71506 111.513 6.13074 99.2982 8.39264C69.6296 13.8589 38.3776 36.2329 39.6028 82.6397C39.6216 83.5256 39.2069 84.3738 38.4907 84.9016L21.5641 97.229Z" fill="#703627"/>
</g>
</svg>
