<svg width="90" height="29" viewBox="0 0 90 29" fill="none" xmlns="http://www.w3.org/2000/svg">
<path d="M18.7835 2.56965C18.6549 2.32371 18.1291 2.06422 17.9396 1.86114C17.7523 1.65806 17.1747 1.80924 16.8994 1.80022C16.6151 1.78893 16.3511 1.72801 16.1119 1.8837C15.7599 2.1116 15.4237 2.58319 15.18 2.92391C14.9363 3.26689 15.0537 3.35037 15.1078 3.76781C15.1597 4.1875 15.6471 5.13294 16.0442 5.26607C15.5275 5.78279 15.6629 5.7354 15.5907 5.96556C14.7716 5.67448 13.8126 5.22094 13.059 5.64515C11.8405 6.33335 11.8879 7.36679 12.2738 8.14525C12.6619 8.92597 13.1899 9.38402 14.0518 9.31407C13.42 10.9906 13.1831 13.15 13.2553 15.0634C12.6777 14.998 12.0797 14.9325 11.5224 15.1063C10.965 15.2778 10.4573 15.7516 10.4325 16.3383C10.41 16.8798 10.789 17.3514 11.1907 17.7147C11.818 18.2856 12.5558 18.7323 13.3929 18.9422C13.3884 19.4679 13.4561 19.9937 13.5734 20.6458C12.9371 20.9075 12.2986 21.1738 11.7254 21.5574C11.1546 21.9432 10.6491 22.4577 10.3874 23.0985C10.0738 23.8634 10.1482 24.7773 10.5814 25.4813C10.9583 26.095 11.5743 26.5282 12.2377 26.7968C12.901 27.063 13.8893 26.9863 14.6001 27.0653C15.8096 27.1984 16.4887 27.1758 17.7546 27.0405C18.506 27.6113 19.2777 28.1912 20.178 28.4643C21.0693 28.7328 22.0215 28.6831 22.9511 28.629C24.1222 28.5635 25.3068 28.4936 26.4192 28.1213C27.3895 27.7964 28.274 27.248 29.0705 26.6027C29.9821 25.8649 30.7921 24.9871 31.3743 23.965C31.9564 22.9451 32.3062 21.774 32.2362 20.6007C32.4438 18.1096 32.0377 15.5711 30.9569 13.2177C32.4213 12.1098 33.2968 10.2798 33.3216 8.43633C33.3487 6.59058 32.5499 4.76514 31.169 3.57827C30.3995 2.85396 29.4947 2.27181 28.5177 1.87468C27.8498 1.60391 27.1503 1.41888 26.4418 1.30381C23.6777 0.859293 21.5499 1.21355 18.7835 2.56965Z" fill="#DDA783"/>
<path d="M19.1762 22.8819C18.9619 21.413 18.6054 19.9666 18.1135 18.5654C17.7231 17.4552 17.2267 16.3428 16.3738 15.5373C15.5208 14.7295 14.2369 14.294 13.1426 14.7881C13.1719 16.9046 13.2058 19.0505 13.7924 21.0813C14.3768 23.112 15.5953 25.0525 17.4568 26.0318C17.3034 24.7118 18.03 23.3332 19.1762 22.8819Z" fill="#FFDCC4"/>
<path d="M14.8907 9.6615C14.1483 9.6615 13.5143 9.51484 12.9998 9.22602C12.2349 8.79504 11.7453 8.01658 11.752 7.24037C11.7588 6.48448 12.2417 5.74211 12.9569 5.39011C13.6023 5.07196 14.4146 5.0697 15.1299 5.38109C15.7549 5.65186 16.3213 6.16632 16.7206 6.82745C16.7974 6.95607 16.7567 7.1253 16.6281 7.20201C16.5018 7.28099 16.3348 7.24037 16.2558 7.11176C15.9151 6.54765 15.439 6.10991 14.9155 5.88201C14.3424 5.63381 13.6993 5.63381 13.1939 5.88427C12.6614 6.14601 12.3003 6.69207 12.2958 7.24489C12.2913 7.82253 12.6704 8.41371 13.2638 8.74766C13.767 9.02971 14.4191 9.1493 15.2066 9.10417C15.3555 9.0974 15.4864 9.21248 15.4932 9.3614C15.5022 9.51258 15.3871 9.64345 15.2382 9.65248C15.1208 9.65925 15.0035 9.6615 14.8907 9.6615Z" fill="#703627"/>
<path d="M15.7102 7.9128C15.62 7.9128 15.532 7.86767 15.4801 7.78419C15.0581 7.11177 14.1962 6.753 13.4268 6.93126C13.2823 6.96511 13.1357 6.87259 13.1018 6.72593C13.068 6.577 13.1582 6.43034 13.3049 6.39649C14.291 6.17085 15.3989 6.63116 15.9381 7.49085C16.0194 7.61947 15.981 7.7887 15.8547 7.86993C15.8095 7.89701 15.7599 7.9128 15.7102 7.9128Z" fill="#703627"/>
<path d="M16.0504 5.42401C15.9917 5.42401 15.9331 5.4037 15.8834 5.36534L15.8383 5.32924C15.7097 5.22996 15.5878 5.13519 15.4637 4.99304C14.8883 4.32965 14.6875 3.42934 14.9515 2.70052C15.2088 1.99201 15.9105 1.45498 16.7002 1.36698C17.4155 1.28575 18.1805 1.55652 18.7513 2.09129C18.9003 2.23119 18.9973 2.36431 19.0695 2.53806C19.1304 2.67796 19.065 2.83816 18.9273 2.89908C18.7897 2.95775 18.6295 2.89457 18.5708 2.75467C18.5257 2.65088 18.476 2.58093 18.3813 2.49293C17.9255 2.06421 17.3185 1.8476 16.7612 1.91078C16.1722 1.97847 15.6488 2.37108 15.4615 2.8878C15.2629 3.4316 15.4254 4.11755 15.8721 4.63201C15.9601 4.73355 16.0527 4.80575 16.17 4.89827L16.2174 4.93211C16.3347 5.02688 16.3573 5.19837 16.2648 5.31796C16.2106 5.38565 16.1294 5.42401 16.0504 5.42401Z" fill="#703627"/>
<path d="M21.5954 28.3672C21.7014 27.3112 21.7601 26.2372 21.5525 25.1992C21.3472 24.159 20.8508 23.1459 19.9753 22.5931C18.8696 22.9315 17.94 23.8612 17.6918 24.9984C17.4436 26.1334 17.9445 27.4218 18.9441 28.004C19.6774 28.4327 20.5642 28.462 21.5954 28.3672Z" fill="#B27966"/>
<mask id="mask0_154_7013" style="mask-type:luminance" maskUnits="userSpaceOnUse" x="16" y="12" width="18" height="17">
<path d="M16.9492 12.579H33.1232V28.8703H16.9492V12.579Z" fill="white"/>
</mask>
<g mask="url(#mask0_154_7013)">
<path d="M23.3577 28.8636C22.7439 28.8636 22.1618 28.8298 21.6496 28.7891C20.8531 28.7282 20.0092 28.638 19.2239 28.313C18.3327 27.9452 17.6602 27.2976 17.3805 26.5395C16.8795 25.1811 17.6738 23.6716 18.7208 22.8864C19.7993 22.0718 21.1577 21.7762 22.3581 21.5145C22.5025 21.4829 22.6492 21.5754 22.6808 21.7243C22.7124 21.871 22.6198 22.0176 22.4709 22.0492C21.3269 22.2997 20.0295 22.5817 19.0457 23.3241C18.1612 23.9897 17.482 25.2421 17.8904 26.35C18.1183 26.9637 18.6779 27.4962 19.4293 27.8076C20.1423 28.1009 20.9388 28.1844 21.6925 28.2431C23.3419 28.374 25.7382 28.4349 27.4711 27.4691C33.656 24.0213 32.3879 17.8094 30.8964 13.4365C30.849 13.2943 30.9234 13.1387 31.0656 13.089C31.2078 13.0416 31.3612 13.1161 31.4108 13.2582C32.9655 17.8185 34.2765 24.3011 27.7351 27.9475C26.4264 28.6763 24.8041 28.8636 23.3577 28.8636Z" fill="#703627"/>
</g>
<path d="M14.3109 26.9005C14.4169 25.8468 14.2274 25.0751 14.0198 24.0349C13.8145 22.9947 13.3858 22.4983 12.6908 21.1264C11.5874 21.4671 10.6578 22.3967 10.4096 23.5317C10.1614 24.6689 10.6623 25.9574 11.6596 26.5395C12.3929 26.966 13.2797 26.9976 14.3109 26.9005Z" fill="#B27966"/>
<path d="M15.6173 27.3586C15.1254 27.3586 14.6719 27.3495 14.365 27.3247C13.5685 27.2615 12.7246 27.1735 11.9394 26.8486C11.0481 26.4808 10.378 25.8332 10.0982 25.0751C9.59498 23.7145 10.3915 22.2072 11.4362 21.4197C12.0026 20.9932 13.018 20.569 13.564 20.3862C13.7062 20.3389 13.8596 20.4156 13.907 20.56C13.9544 20.7021 13.8777 20.8578 13.7355 20.9052C13.1195 21.1128 12.2169 21.5167 11.7634 21.8597C10.8789 22.5231 10.1974 23.7776 10.6081 24.8833C10.8338 25.4993 11.3956 26.0318 12.147 26.3409C12.86 26.6365 13.6543 26.72 14.4079 26.7787C15.2022 26.8418 17.1291 26.7967 17.9415 26.7561C18.0881 26.7516 18.219 26.8667 18.2258 27.0156C18.2325 27.1668 18.1175 27.2954 17.9685 27.3044C17.4338 27.3315 16.4658 27.3586 15.6173 27.3586Z" fill="#703627"/>
<path d="M11.6218 17.9922C12.0731 17.7124 12.3507 17.2025 12.4522 16.679C12.5537 16.1532 12.4996 15.6117 12.4116 15.086C11.9423 15.0499 11.421 15.0295 11.0532 15.3274C10.8727 15.4718 10.7509 15.6816 10.6787 15.9028C10.5478 16.3044 10.5749 16.7557 10.7509 17.137C10.9291 17.5206 11.254 17.8298 11.6218 17.9922Z" fill="#B27966"/>
<path d="M13.2081 19.1655C13.1698 19.1655 13.1337 19.1587 13.0976 19.1429C12.5154 18.8812 11.1841 18.1591 10.7396 17.665C10.3041 17.1798 10.0086 16.345 10.3921 15.6545C10.611 15.2641 11.0352 14.9708 11.5565 14.8535C11.8859 14.779 12.4319 14.8151 13.2307 14.964C13.3774 14.9911 13.4744 15.1333 13.4473 15.2822C13.4202 15.4311 13.2781 15.5281 13.1314 15.5011C12.195 15.3273 11.8182 15.3567 11.6738 15.3882C11.3037 15.4717 11.0104 15.6658 10.866 15.923C10.6246 16.3562 10.8231 16.9407 11.1413 17.2972C11.5091 17.7056 12.7546 18.3893 13.3187 18.642C13.4541 18.7029 13.5173 18.8654 13.4564 19.003C13.4112 19.1046 13.3119 19.1655 13.2081 19.1655Z" fill="#703627"/>
<path d="M22.1028 9.00939C22.1028 9.10642 22.0825 9.20119 22.0464 9.29145C22.0103 9.3817 21.9561 9.46068 21.8884 9.53063C21.8185 9.59832 21.7395 9.65247 21.6515 9.69083C21.5612 9.72693 21.4687 9.74499 21.3717 9.74499C21.2747 9.74499 21.1822 9.72693 21.0919 9.69083C21.0017 9.65247 20.9227 9.59832 20.855 9.53063C20.7873 9.46068 20.7331 9.3817 20.697 9.29145C20.6609 9.20119 20.6406 9.10642 20.6406 9.00939C20.6406 8.91237 20.6609 8.8176 20.697 8.72734C20.7331 8.63709 20.7873 8.55811 20.855 8.49042C20.9227 8.42047 21.0017 8.36632 21.0919 8.33021C21.1822 8.29186 21.2747 8.2738 21.3717 8.2738C21.4687 8.2738 21.5612 8.29186 21.6515 8.33021C21.7395 8.36632 21.8185 8.42047 21.8884 8.49042C21.9561 8.55811 22.0103 8.63709 22.0464 8.72734C22.0825 8.8176 22.1028 8.91237 22.1028 9.00939Z" fill="#DD917A"/>
<path d="M22.4904 6.76433C22.2219 6.97868 21.9399 7.21335 21.8383 7.54279C21.8022 7.65787 21.7955 7.79099 21.8632 7.89028C21.9331 7.99407 22.0707 8.03243 22.1948 8.01663C22.319 8.00084 22.4318 7.93992 22.5423 7.87899C22.7793 7.74361 23.0117 7.5992 23.2283 7.42997C23.3524 7.33294 23.472 7.22463 23.5442 7.08248C23.6141 6.94033 23.6277 6.75981 23.5374 6.62894C23.4404 6.48453 23.2463 6.43489 23.0771 6.46197C22.9056 6.48679 22.7409 6.56125 22.4904 6.76433Z" fill="#703627"/>
<path d="M28.6372 3.57604C28.0686 3.8107 27.5112 4.08824 27.0396 4.48763C26.5681 4.88476 26.189 5.41276 26.0558 6.01748C25.9002 6.71696 26.0829 7.44804 26.3198 8.12271C26.5726 8.85153 26.893 9.56004 27.3149 10.2054C27.5609 10.5799 27.852 10.9432 28.2513 11.1373C28.9147 11.4599 29.7 11.2524 30.4062 11.0403C31.0809 10.8372 31.7646 10.6318 32.367 10.2618C32.9695 9.89399 33.1455 9.69543 33.3283 9.00948C33.4524 8.53563 33.4298 7.45707 33.3238 6.97871C33.0936 5.96107 32.8725 5.54137 32.2768 4.6907C31.9767 4.26199 31.6721 3.53993 31.196 3.33009C30.4942 3.0187 29.6548 3.15634 28.6372 3.57604Z" fill="#B27966"/>
<path d="M30.1896 4.68612C30.1422 4.88017 30.158 5.09001 30.2393 5.27278C30.2709 5.34725 30.3295 5.42848 30.413 5.42622C30.492 5.42622 30.5461 5.3495 30.589 5.28181C30.6793 5.1374 30.7718 4.98848 30.8169 4.82376C30.862 4.67032 30.853 4.48078 30.7289 4.3815C30.6341 4.30478 30.492 4.30704 30.3859 4.36796C30.2821 4.42888 30.2257 4.54396 30.1896 4.68612Z" fill="#703627"/>
<path d="M27.9508 5.70156C28.1268 5.79181 28.2712 5.94525 28.3524 6.12802C28.3885 6.20248 28.4088 6.2995 28.3524 6.36043C28.3005 6.41909 28.208 6.41007 28.129 6.39879C27.962 6.36945 27.7905 6.34012 27.6371 6.26566C27.4927 6.19797 27.3596 6.06484 27.3686 5.90463C27.3754 5.78279 27.4701 5.67673 27.5852 5.63838C27.698 5.60002 27.8221 5.63386 27.9508 5.70156Z" fill="#703627"/>
<path d="M31.2751 9.0478C31.0111 9.0478 30.7313 8.95078 30.4899 8.7635L30.4493 8.73416L30.3026 8.40924C30.0476 7.84514 29.7927 7.28329 29.5602 6.78462C29.5129 6.68308 29.5557 6.56124 29.6595 6.5116C29.7611 6.46421 29.8829 6.50934 29.9303 6.61088C30.1604 7.10955 30.4177 7.67365 30.6727 8.24001L30.7764 8.46791C31.0314 8.64616 31.3383 8.68678 31.5504 8.56945C31.7738 8.44534 31.9069 8.13621 31.8798 7.80001C31.8708 7.68719 31.9543 7.58791 32.0671 7.57888C32.1777 7.5676 32.277 7.65334 32.286 7.76616C32.3266 8.26934 32.1145 8.72514 31.7467 8.92821C31.6046 9.00945 31.4421 9.0478 31.2751 9.0478Z" fill="#703627"/>
<path d="M29.7747 9.65251C29.4317 9.65251 29.0639 9.48328 28.7864 9.18543C28.7096 9.1042 28.7119 8.97333 28.7931 8.89436C28.8766 8.81764 29.0052 8.82215 29.082 8.90338C29.3256 9.16287 29.6596 9.29148 29.9168 9.22379C30.165 9.15836 30.3455 8.91241 30.3749 8.59651C30.3839 8.48369 30.4832 8.4002 30.596 8.41148C30.7088 8.42051 30.7901 8.52205 30.781 8.63487C30.7359 9.12451 30.4358 9.51261 30.0206 9.62092C29.9416 9.64123 29.8582 9.65251 29.7747 9.65251Z" fill="#703627"/>
<path d="M17.5492 26.4131C17.5041 26.4131 17.4612 26.4018 17.4184 26.3793C15.5636 25.3504 14.2255 23.6851 13.6502 21.6882C12.804 18.7549 12.4768 13.6351 13.7585 9.32306C13.8013 9.17865 13.9525 9.09742 14.0969 9.14029C14.2391 9.18316 14.3226 9.3366 14.2797 9.48101C13.0274 13.687 13.3455 18.6781 14.1714 21.5348C14.7062 23.3918 15.954 24.9397 17.6801 25.8987C17.811 25.9709 17.8606 26.1378 17.7884 26.271C17.7388 26.3612 17.6463 26.4131 17.5492 26.4131Z" fill="#703627"/>
<mask id="mask1_154_7013" style="mask-type:luminance" maskUnits="userSpaceOnUse" x="15" y="0" width="19" height="17">
<path d="M15.2158 0.710358H33.7004V16.0449H15.2158V0.710358Z" fill="white"/>
</mask>
<g mask="url(#mask1_154_7013)">
<path d="M26.0963 15.7381C25.9587 15.7381 25.8413 15.6343 25.8255 15.4944C25.8097 15.3455 25.9158 15.2101 26.0647 15.192C28.0007 14.9664 29.763 14.1676 31.0311 12.9401C32.403 11.6134 33.1769 9.76535 33.098 7.99633C33.0235 6.24986 32.1096 4.48535 30.6565 3.27817C29.3207 2.17027 27.5246 1.49334 25.5954 1.37601C23.8579 1.27222 22.0302 1.5836 20.1642 2.30565C17.9822 3.15181 16.5697 4.82155 15.7687 6.07612C15.6875 6.20248 15.5182 6.23858 15.3941 6.15735C15.2678 6.07612 15.2317 5.90689 15.3129 5.77827C16.1568 4.45601 17.6505 2.69376 19.9701 1.7957C21.9084 1.04432 23.8128 0.72165 25.627 0.829958C27.6713 0.954061 29.5802 1.67386 31.0017 2.85622C32.5722 4.16042 33.5583 6.07161 33.6418 7.97151C33.7252 9.89623 32.8904 11.9022 31.4079 13.3373C30.0563 14.6437 28.179 15.4966 26.1279 15.7358C26.1166 15.7381 26.1053 15.7381 26.0963 15.7381Z" fill="#703627"/>
</g>
<path d="M28.759 18.7639C28.6281 18.7639 28.5108 18.6668 28.4905 18.5315L28.1881 16.451C28.1678 16.3021 28.2694 16.1622 28.4183 16.1397C28.5672 16.1193 28.7048 16.2231 28.7252 16.3721L29.0298 18.4502C29.0501 18.6014 28.9485 18.739 28.7996 18.7616C28.7861 18.7639 28.7725 18.7639 28.759 18.7639Z" fill="#C48C71"/>
<path d="M30.4824 17.9064C30.3403 17.9064 30.223 17.7981 30.2117 17.6537L30.074 15.8531C30.0628 15.7019 30.1733 15.5688 30.3245 15.5575C30.4712 15.5462 30.6043 15.659 30.6156 15.8102L30.7532 17.6108C30.7645 17.762 30.6517 17.8952 30.5028 17.9064C30.496 17.9064 30.4892 17.9064 30.4824 17.9064Z" fill="#C48C71"/>
<path d="M29.8514 21.8981C29.8401 21.8981 29.8311 21.8981 29.8221 21.8981C29.6709 21.88 29.5649 21.7469 29.5807 21.5957L29.7725 19.7928C29.7882 19.6439 29.9236 19.5334 30.0726 19.5514C30.2215 19.5672 30.3298 19.7026 30.314 19.8515L30.1199 21.6544C30.1064 21.7943 29.9868 21.8981 29.8514 21.8981Z" fill="#C48C71"/>
<path d="M25.7779 3.18784C25.7147 3.18784 25.6492 3.16527 25.5973 3.11789L24.6361 2.2582C24.5233 2.15891 24.512 1.98517 24.6135 1.87235C24.7128 1.75953 24.8843 1.74825 24.9971 1.84978L25.9584 2.70722C26.0712 2.80876 26.0825 2.9825 25.9809 3.09532C25.929 3.15625 25.8546 3.18784 25.7779 3.18784Z" fill="#C48C71"/>
<path d="M23.4951 3.88066C23.4454 3.88066 23.3958 3.86712 23.3507 3.83778L21.7824 2.84045C21.6561 2.75922 21.6177 2.58999 21.699 2.46137C21.7779 2.33501 21.9472 2.29665 22.0735 2.37789L23.6417 3.37522C23.7681 3.45645 23.8065 3.62568 23.7252 3.75204C23.6756 3.83553 23.5853 3.88066 23.4951 3.88066Z" fill="#C48C71"/>
<path d="M5.42285 27.7173C5.71619 28.0558 6.16973 28.1821 6.6165 28.2701C7.57547 28.4551 8.58635 28.5477 9.67619 28.5477C10.2967 28.5477 10.942 28.5183 11.6167 28.4574C11.9935 28.4258 12.3591 28.3829 12.6998 28.2295C13.0924 28.0535 13.3767 27.7376 13.4625 27.3879C13.5956 26.8283 13.3316 26.4605 13.0292 26.1446C12.4448 25.5399 11.637 25.1518 10.8044 25.0796C10.8202 25.1518 10.8405 25.224 10.8608 25.2939C10.9488 25.5715 11.0684 25.8287 11.2106 26.0318C11.2218 26.0498 11.2263 26.0679 11.2286 26.0882C11.1293 26.0476 11.0323 26.0115 10.933 25.9776C10.0395 25.6775 9.06696 25.5963 8.13732 25.7429C8.04255 25.7565 7.94778 25.7745 7.85301 25.7948C8.00193 25.5963 8.11024 25.3751 8.17568 25.1382C8.19599 25.0683 8.21404 24.9961 8.22532 24.9261C8.1847 24.9284 8.14183 24.9351 8.0967 24.9397C7.59127 24.9938 6.89855 25.0683 6.48111 25.2262C5.94183 25.4316 5.52439 25.779 5.30552 26.1987C5.03926 26.7064 5.0889 27.3292 5.42285 27.7173Z" fill="#F57E82"/>
<mask id="mask2_154_7013" style="mask-type:luminance" maskUnits="userSpaceOnUse" x="4" y="24" width="11" height="5">
<path d="M4.81836 24.1319H14.0606V28.8704H4.81836V24.1319Z" fill="white"/>
</mask>
<g mask="url(#mask2_154_7013)">
<path d="M9.6765 28.823C8.56408 28.823 7.54644 28.7282 6.5649 28.5387C6.073 28.4416 5.56757 28.2995 5.22008 27.8979C5.21782 27.8956 5.21782 27.8956 5.21782 27.8956C4.81167 27.424 4.74849 26.6749 5.06439 26.0724C5.31485 25.5918 5.78418 25.1992 6.38664 24.9713C6.83341 24.7998 7.54418 24.7231 8.0609 24.6667L8.19854 24.6531C8.28429 24.6441 8.36777 24.6757 8.42419 24.7389C8.48285 24.8021 8.50767 24.8878 8.49413 24.9713C8.4806 25.0548 8.46029 25.136 8.43772 25.2172C8.41516 25.2917 8.39034 25.3639 8.36326 25.4361C9.13947 25.3481 9.93373 25.4113 10.6874 25.6166C10.6558 25.5376 10.6287 25.4587 10.6016 25.3752C10.5791 25.2985 10.5588 25.2217 10.5407 25.145C10.5181 25.0593 10.5407 24.969 10.5971 24.9013C10.6535 24.8359 10.7393 24.7998 10.8273 24.8066C11.7231 24.8855 12.5963 25.303 13.2236 25.9528C13.5666 26.3093 13.8915 26.7651 13.7268 27.4511C13.623 27.8843 13.28 28.2679 12.8107 28.48C12.4316 28.6492 12.0412 28.6966 11.6396 28.7305C10.9604 28.7914 10.2993 28.823 9.6765 28.823ZM5.62849 27.5368C5.86993 27.8144 6.27157 27.9227 6.6687 27.9994C8.14665 28.2882 9.74644 28.3491 11.5922 28.1844C11.9464 28.1551 12.2872 28.1145 12.5895 27.9791C12.9054 27.8369 13.1333 27.591 13.1988 27.3225C13.2958 26.9186 13.1311 26.6433 12.8332 26.3342C12.3932 25.8784 11.8111 25.5557 11.1928 25.4181C11.2605 25.5873 11.344 25.7475 11.432 25.8738C11.4749 25.9415 11.4974 26.007 11.4997 26.0747C11.5042 26.1672 11.4613 26.2574 11.3869 26.3116C11.3101 26.3657 11.2131 26.377 11.1274 26.3409C11.0326 26.3048 10.9378 26.2687 10.8453 26.2371C10.0014 25.9528 9.08757 25.8738 8.2008 26.0092C8.19403 26.0115 8.18501 26.0137 8.17598 26.016C8.08572 26.0273 7.99772 26.0453 7.90972 26.0634C7.79916 26.086 7.68408 26.0386 7.62542 25.9415C7.56449 25.8445 7.56901 25.7204 7.6367 25.6302C7.7247 25.5106 7.79916 25.3797 7.85557 25.2421C7.4088 25.2917 6.89434 25.3639 6.57844 25.4835C6.10234 25.664 5.73454 25.9641 5.545 26.3274C5.3329 26.7335 5.36675 27.2322 5.62849 27.5368Z" fill="#703627"/>
</g>
<path d="M1.8916 17.6785C2.33837 19.8199 3.68771 21.6408 5.53571 22.7419C5.57181 22.6878 5.61017 22.6314 5.6553 22.575C6.10884 22.0131 6.98207 21.5167 7.6793 21.458C7.9433 21.4377 8.21181 21.4355 8.47356 21.4332C8.94064 21.4287 9.42351 21.4264 9.87479 21.3069C10.5314 21.1331 11.2128 20.5758 11.1858 19.8785C11.1813 19.7815 11.1632 19.6822 11.1474 19.5784C11.1068 19.3438 11.0684 19.1001 11.1745 18.8722C11.3257 18.5495 11.7093 18.4254 12.0184 18.4186C12.9119 18.4051 13.6565 19.0956 13.9973 19.7883C14.3177 20.4381 14.4057 21.2595 14.4327 22.0221C14.435 22.1079 14.4373 22.1936 14.4395 22.2771C16.3281 20.8646 17.5489 18.6353 17.5489 16.1329C17.5489 15.6771 17.5489 15.3567 17.4315 14.7971C17.4067 14.9866 17.3616 15.1694 17.3006 15.3409C17.0953 15.914 16.6959 16.3721 16.1589 16.6293C15.8791 16.7624 15.588 16.8279 15.3037 16.8279C14.9382 16.8279 14.5862 16.7173 14.2996 16.5007C14.0266 16.2931 14.0379 15.914 14.0717 15.7064C14.1078 15.456 14.18 15.201 14.25 14.9573C14.4012 14.4203 14.5433 13.9126 14.3651 13.4342C14.2116 13.0281 13.8461 12.7347 13.4918 12.4527C13.4444 12.4143 13.3971 12.376 13.3497 12.3354C12.9841 12.0375 12.5689 11.699 12.5735 11.0988C12.578 10.4129 13.2707 9.95484 13.7039 9.73823C13.7942 9.6931 13.8709 9.65925 13.9296 9.63443C12.6931 8.8492 11.2219 8.39566 9.64012 8.39566C6.22617 8.39566 3.09201 10.4648 2.20524 13.4997C2.3316 13.3349 2.48053 13.1635 2.62494 13.0281C2.66329 12.992 2.70391 12.9581 2.74227 12.9288C3.04012 12.6896 3.41017 12.6084 3.70576 12.7167C3.87273 12.7754 4.00586 12.8859 4.13448 12.9942C4.23602 13.08 4.33078 13.1589 4.44135 13.2131C4.73694 13.3553 5.14309 13.2921 5.53345 13.0416C5.70268 12.9333 5.86289 12.8002 6.01632 12.6716C6.18104 12.5339 6.35253 12.3918 6.53756 12.2744C7.52812 11.6494 8.92484 11.8389 9.7191 12.7032C10.0169 13.0281 10.2629 13.538 10.0643 13.9938C10.0305 14.0728 9.98535 14.1427 9.94248 14.2104C9.89059 14.2917 9.83869 14.3706 9.81612 14.4564C9.73038 14.7542 9.97182 15.0521 10.0801 15.1649C10.1501 15.2348 10.2245 15.3048 10.299 15.3702C10.4479 15.5056 10.6036 15.6455 10.7164 15.826C11.0797 16.4037 10.8676 17.1641 10.5134 17.6244C10.1275 18.1298 9.52279 18.4705 8.89325 18.536C8.81879 18.5428 8.74207 18.5473 8.66761 18.5473C8.11028 18.5473 7.54617 18.3397 7.12422 17.9741C7.05202 17.911 6.98207 17.8433 6.91663 17.7778C6.74289 17.6086 6.58268 17.4506 6.37509 17.3739C6.14268 17.2882 5.84935 17.313 5.54699 17.4484C5.34843 17.5364 5.16791 17.6537 4.97612 17.7801C4.90391 17.8297 4.83171 17.8749 4.7595 17.92C4.18863 18.2788 3.66514 18.4548 3.16196 18.4548C3.15971 18.4548 3.15971 18.4548 3.15971 18.4548C2.77837 18.4525 2.4557 18.3352 2.20976 18.114C2.08114 17.9967 1.95027 17.8839 1.8916 17.6785Z" fill="#A5DBD3"/>
<path d="M5.53386 23.0173C5.48873 23.0173 5.43909 23.0038 5.39621 22.9789C3.45344 21.8169 2.07929 19.9057 1.62575 17.735C1.59641 17.5906 1.68441 17.4485 1.82657 17.4124C1.96872 17.3785 2.11313 17.462 2.15375 17.6019C2.18759 17.7192 2.25754 17.7869 2.37939 17.8975C2.58924 18.0893 2.84872 18.1795 3.16011 18.1795C3.61365 18.1795 4.08749 18.0193 4.61549 17.6876C4.6877 17.6448 4.75765 17.5996 4.8276 17.5523C5.01714 17.4259 5.21344 17.2973 5.43683 17.198C5.80463 17.0333 6.17242 17.0062 6.47027 17.1168C6.72975 17.2138 6.91929 17.3988 7.10206 17.5793C7.17201 17.6448 7.23519 17.708 7.30288 17.7666C7.72258 18.1322 8.3115 18.3172 8.86883 18.263C9.42166 18.2066 9.95868 17.9043 10.2994 17.4575C10.6063 17.0581 10.7687 16.4195 10.4867 15.9728C10.3919 15.8238 10.252 15.6975 10.1166 15.5756C10.0399 15.5034 9.95868 15.429 9.88648 15.3545C9.74432 15.2056 9.42842 14.8152 9.55478 14.3797C9.59089 14.2579 9.65407 14.1564 9.71273 14.0661C9.75109 14.0029 9.78945 13.9443 9.81653 13.8856C9.96094 13.5494 9.75786 13.15 9.51868 12.8883C8.81242 12.1166 7.56688 11.9496 6.68237 12.5047C6.51088 12.6152 6.34842 12.7506 6.18822 12.8815C6.04832 13.0011 5.87006 13.15 5.68052 13.2718C5.21119 13.5742 4.7035 13.6442 4.32442 13.4591C4.18452 13.3914 4.0717 13.2967 3.96114 13.2042C3.83252 13.0958 3.73098 13.0169 3.6159 12.974C3.40831 12.8995 3.13303 12.965 2.9119 13.1432C2.8758 13.1703 2.84421 13.1996 2.81036 13.229C2.68626 13.344 2.54862 13.4997 2.42226 13.6667C2.34103 13.7705 2.19888 13.8021 2.08154 13.7434C1.96647 13.6825 1.9078 13.5471 1.94616 13.4208C2.85775 10.3001 6.0235 8.12045 9.64053 8.12045C11.22 8.12045 12.7544 8.56497 14.0766 9.4021C14.1624 9.45625 14.2098 9.55553 14.2007 9.65707C14.194 9.75861 14.1308 9.84661 14.036 9.88722C13.9819 9.90979 13.9074 9.94364 13.8217 9.98425C13.4606 10.167 12.8491 10.5551 12.8446 11.1012C12.8424 11.5705 13.1718 11.839 13.5193 12.1233L13.6637 12.2384C14.027 12.5295 14.4399 12.8589 14.6182 13.3373C14.8303 13.9036 14.6678 14.4768 14.5121 15.0318C14.4422 15.2778 14.3745 15.5192 14.3406 15.7494C14.3203 15.8667 14.2978 16.1555 14.4647 16.2819C14.8822 16.5978 15.5049 16.6384 16.042 16.3812C16.5068 16.1601 16.8633 15.7562 17.0438 15.2462C17.1002 15.0928 17.1408 14.9281 17.1612 14.7611C17.1792 14.6302 17.2875 14.5287 17.4206 14.5242C17.5493 14.5174 17.6688 14.6099 17.6959 14.7408C17.8223 15.3274 17.8223 15.6659 17.8223 16.133C17.8223 18.6466 16.6489 20.9662 14.6024 22.4983C14.5211 22.5592 14.4128 22.5683 14.3203 22.5231C14.2301 22.478 14.1714 22.3878 14.1691 22.284L14.1624 22.0335C14.1398 21.4333 14.0744 20.5623 13.754 19.9102C13.4516 19.2942 12.8063 18.6805 12.0233 18.694C11.8067 18.6985 11.5201 18.7775 11.4186 18.9896C11.3486 19.1408 11.3802 19.3303 11.4141 19.5334C11.4321 19.6417 11.4524 19.7523 11.4569 19.8673C11.4908 20.7067 10.7033 21.3724 9.94514 21.5709C9.46453 21.6973 8.97037 21.7018 8.48976 21.7063C8.21673 21.7086 7.95499 21.7108 7.70001 21.7311C7.09078 21.783 6.28524 22.2275 5.8678 22.7465C5.82945 22.7962 5.79334 22.8435 5.76401 22.8909C5.71211 22.9722 5.62411 23.0173 5.53386 23.0173ZM2.42677 18.5767C2.97734 20.1223 4.04688 21.4694 5.46616 22.3787C5.97837 21.7582 6.91478 21.246 7.65714 21.1851C7.93017 21.1625 8.20319 21.1625 8.46945 21.1603C8.93201 21.1558 9.39232 21.1512 9.8075 21.0407C10.3693 20.894 10.9357 20.4224 10.9131 19.8899C10.9109 19.8109 10.8951 19.7184 10.8793 19.6236C10.8364 19.3732 10.7845 19.0641 10.9267 18.7572C11.1343 18.3172 11.6239 18.1547 12.012 18.1457C13.0161 18.1276 13.8623 18.8971 14.2414 19.6665C14.5573 20.3073 14.6543 21.0745 14.6926 21.7266C16.3421 20.3073 17.2785 18.2969 17.2785 16.133C17.2785 16.0856 17.2785 16.0405 17.2785 15.9953C17.028 16.3767 16.6851 16.6813 16.2744 16.8776C15.5546 17.2183 14.7175 17.1574 14.1376 16.7196C13.851 16.5008 13.7314 16.1262 13.8036 15.6659C13.842 15.4019 13.9142 15.1447 13.9841 14.8965C14.1285 14.391 14.2594 13.9262 14.1105 13.5313C13.9841 13.1951 13.6479 12.9266 13.323 12.6671L13.1763 12.5475C12.8063 12.2452 12.2963 11.83 12.3008 11.0989C12.3054 10.5348 12.6799 10.0158 13.3591 9.6142C12.2264 8.99368 10.9515 8.66876 9.64053 8.66876C6.6914 8.66876 4.06944 10.2054 2.88708 12.5182C3.18944 12.3806 3.51662 12.3557 3.79867 12.4595C4.01529 12.5363 4.17775 12.6739 4.30862 12.7845C4.40114 12.8612 4.48011 12.9266 4.55908 12.965C4.76667 13.0665 5.08257 13.0078 5.38719 12.8115C5.54739 12.7077 5.71211 12.5701 5.84298 12.4618C6.01447 12.3174 6.19273 12.1707 6.39355 12.0421C7.49242 11.3494 9.04032 11.5592 9.91807 12.5182C10.2746 12.9063 10.5657 13.5268 10.3129 14.1045C10.2701 14.2037 10.2159 14.2895 10.1708 14.3572C10.1279 14.4249 10.0896 14.4881 10.076 14.5332C10.0377 14.6641 10.1618 14.8536 10.2768 14.9732C10.34 15.0409 10.4122 15.1041 10.4799 15.1672C10.6356 15.3071 10.8116 15.4651 10.9447 15.6794C11.3802 16.3699 11.1388 17.2589 10.7304 17.7914C10.2994 18.3555 9.62248 18.7346 8.92073 18.8068C8.20545 18.8768 7.47888 18.6421 6.94637 18.1818C6.87191 18.1141 6.7997 18.0464 6.72975 17.9787C6.56729 17.8185 6.43416 17.6876 6.28073 17.6312C6.11827 17.5703 5.89037 17.5951 5.6557 17.6989C5.47519 17.7779 5.29693 17.8952 5.12544 18.0103C5.05098 18.06 4.97652 18.1073 4.90206 18.1547C4.28606 18.5406 3.71744 18.7279 3.16236 18.7279C2.89385 18.7279 2.64565 18.676 2.42677 18.5767Z" fill="#703627"/>
<path d="M1.73438 16.1329C1.73438 16.5278 1.76597 16.9159 1.82463 17.295C1.84268 17.4236 1.86525 17.5522 1.89232 17.6786C1.97355 17.8501 2.08186 17.9967 2.21048 18.1141C2.45643 18.3352 2.77909 18.4525 3.16043 18.4548C3.16043 18.4548 3.16043 18.4548 3.16268 18.4548C3.66586 18.4548 4.18935 18.2788 4.76023 17.92C4.83243 17.8749 4.90464 17.8298 4.97684 17.7801C5.16864 17.6538 5.34915 17.5364 5.54771 17.4484C5.85007 17.313 6.14341 17.2882 6.37582 17.374C6.58341 17.4507 6.74361 17.6086 6.91736 17.7779C6.98279 17.8433 7.05274 17.911 7.12495 17.9742C7.5469 18.3397 8.111 18.5473 8.66833 18.5473C8.74279 18.5473 8.81951 18.5428 8.89397 18.536C9.52351 18.4706 10.1282 18.1299 10.5141 17.6244C10.8683 17.1641 11.0804 16.4037 10.7172 15.8261C10.6043 15.6456 10.4486 15.5057 10.2997 15.3703C10.2253 15.3048 10.1508 15.2349 10.0808 15.1649C9.97254 15.0521 9.7311 14.7543 9.81685 14.4564C9.83941 14.3707 9.89131 14.2917 9.94321 14.2105C9.98608 14.1428 10.0312 14.0728 10.0651 13.9939C10.2636 13.5381 10.0177 13.0281 9.71982 12.7032C8.92556 11.839 7.52884 11.6494 6.53828 12.2745C6.35325 12.3918 6.18177 12.534 6.01705 12.6716C5.86361 12.8002 5.70341 12.9333 5.53417 13.0417C5.14382 13.2921 4.73766 13.3553 4.44207 13.2131C4.33151 13.159 4.23674 13.08 4.1352 12.9943C4.00658 12.886 3.87345 12.7754 3.70648 12.7167C3.41089 12.6084 3.04084 12.6897 2.74299 12.9288C2.70463 12.9582 2.66402 12.992 2.62566 13.0281C2.48125 13.1635 2.27817 13.2876 2.20597 13.4997C2.15407 13.6396 2.10668 13.7795 2.06381 13.9239C1.84945 14.6234 1.73438 15.3658 1.73438 16.1329Z" fill="#C6E281"/>
<path d="M8.66762 18.8204C8.04259 18.8204 7.41531 18.5879 6.94597 18.1818C6.87151 18.1141 6.79931 18.0464 6.72936 17.9787C6.5669 17.8185 6.43377 17.6876 6.28033 17.6312C6.11787 17.5703 5.88997 17.5951 5.65531 17.6989C5.47479 17.7779 5.29654 17.8952 5.12505 18.0103C5.05059 18.0599 4.97613 18.1073 4.90166 18.1547C4.28566 18.5406 3.71705 18.7278 3.16197 18.7278C2.7152 18.7256 2.32484 18.5857 2.02925 18.3172C1.8713 18.175 1.74269 17.999 1.64792 17.7982C1.63889 17.7779 1.62987 17.7576 1.62535 17.7373C1.59828 17.6041 1.57571 17.471 1.5554 17.3356C1.49222 16.9385 1.46289 16.5346 1.46289 16.133C1.46289 15.35 1.57797 14.5783 1.80361 13.8427C1.84648 13.6983 1.89387 13.5561 1.94576 13.4162C1.94802 13.414 1.94802 13.4117 1.94802 13.4095C2.02925 13.1748 2.20525 13.0281 2.34515 12.9086C2.37899 12.8815 2.41058 12.8544 2.43992 12.8273C2.48505 12.7867 2.53017 12.7461 2.5753 12.7122C2.9431 12.4167 3.41243 12.3174 3.79828 12.4595C4.01489 12.5362 4.17736 12.6739 4.30823 12.7844C4.40074 12.8612 4.47971 12.9266 4.55869 12.965C4.76628 13.0665 5.08218 13.0078 5.38679 12.8115C5.547 12.7077 5.71172 12.5701 5.84259 12.4618C6.01408 12.3174 6.19233 12.1707 6.39315 12.0421C7.49203 11.3494 9.03993 11.5592 9.91767 12.5182C10.2742 12.9063 10.5653 13.5268 10.3125 14.1044C10.2697 14.2037 10.2155 14.2895 10.1704 14.3572C10.1275 14.4249 10.0892 14.488 10.0756 14.5332C10.0373 14.664 10.1614 14.8536 10.2764 14.9732C10.3396 15.0409 10.4118 15.104 10.4795 15.1672C10.6352 15.3071 10.8112 15.4651 10.9443 15.6794C11.3798 16.3676 11.1384 17.2589 10.73 17.7914C10.299 18.3555 9.62208 18.7346 8.92034 18.8068C8.83459 18.8158 8.75111 18.8204 8.66762 18.8204ZM6.08177 17.0491C6.21941 17.0491 6.35028 17.0716 6.46987 17.1168C6.72936 17.2138 6.9189 17.3988 7.10167 17.5793C7.17162 17.6448 7.2348 17.7079 7.30249 17.7666C7.72218 18.1321 8.3111 18.3149 8.86844 18.263C9.42126 18.2066 9.95829 17.9043 10.299 17.4575C10.6059 17.0581 10.7683 16.4195 10.4863 15.9728C10.3915 15.8238 10.2516 15.6975 10.1162 15.5756C10.0395 15.5034 9.95829 15.429 9.88608 15.3545C9.74393 15.2056 9.42803 14.8152 9.55439 14.3797C9.59049 14.2579 9.65367 14.1563 9.71234 14.0661C9.7507 14.0029 9.78906 13.9442 9.81613 13.8833C9.96054 13.5494 9.75747 13.15 9.51829 12.8882C8.81203 12.1165 7.56649 11.9496 6.68197 12.5047C6.51049 12.6152 6.34803 12.7506 6.18782 12.8815C6.04792 13.0011 5.86967 13.15 5.68013 13.2718C5.21079 13.5742 4.7031 13.6441 4.32402 13.4591C4.18413 13.3914 4.0713 13.2967 3.96074 13.2041C3.83212 13.0958 3.73059 13.0169 3.61551 12.974C3.40792 12.8995 3.13264 12.965 2.91151 13.1432C2.87541 13.1703 2.84382 13.1996 2.80997 13.229C2.77387 13.2628 2.73325 13.2967 2.69264 13.3305C2.59335 13.414 2.49858 13.493 2.46474 13.581C2.46248 13.5877 2.46248 13.5922 2.46023 13.5968C2.40833 13.7299 2.3632 13.863 2.32484 14.0007C2.11274 14.6889 2.00443 15.4041 2.00443 16.133C2.00443 16.5053 2.03376 16.8821 2.09243 17.2521C2.10822 17.3672 2.12853 17.4778 2.1511 17.5884C2.21428 17.7147 2.29551 17.823 2.39253 17.9088C2.58884 18.0893 2.84833 18.1795 3.15971 18.1795C3.61325 18.1795 4.0871 18.0193 4.6151 17.6876C4.68731 17.6448 4.75725 17.5996 4.8272 17.5522C5.01674 17.4259 5.21305 17.2973 5.43643 17.198C5.65756 17.0987 5.87643 17.0491 6.08177 17.0491Z" fill="#703627"/>
<path d="M12.5733 11.0988C12.5688 11.699 12.9839 12.0375 13.3495 12.3354C13.3969 12.376 13.4443 12.4143 13.4916 12.4527C13.8459 12.7347 14.2114 13.0281 14.3649 13.4342C14.5431 13.9126 14.401 14.4203 14.2498 14.9573C14.1798 15.201 14.1076 15.456 14.0715 15.7064C14.0377 15.914 14.0264 16.2931 14.2994 16.5007C14.586 16.7173 14.938 16.8279 15.3035 16.8279C15.5878 16.8279 15.8789 16.7624 16.1587 16.6293C16.6957 16.3721 17.0951 15.914 17.3005 15.3409C17.3614 15.1694 17.4065 14.9866 17.4313 14.7971C17.411 14.6753 17.3862 14.5534 17.3569 14.4338C16.9101 12.4956 15.7187 10.8281 14.0918 9.74048C14.0377 9.70438 13.9858 9.66828 13.9294 9.63443C13.8707 9.65925 13.794 9.6931 13.7037 9.73822C13.2705 9.95484 12.5778 10.4129 12.5733 11.0988Z" fill="#C6E281"/>
<path d="M15.3041 17.1009C14.8709 17.1009 14.4692 16.9701 14.1375 16.7196C13.851 16.5007 13.7314 16.1262 13.8036 15.6659C13.8419 15.4019 13.9141 15.1446 13.9841 14.8964C14.1285 14.391 14.2594 13.9262 14.1105 13.5313C13.9841 13.1951 13.6479 12.9266 13.323 12.6671L13.1763 12.5475C12.8062 12.2451 12.2963 11.83 12.3008 11.0989C12.3008 11.0966 12.3008 11.0966 12.3008 11.0966C12.3053 10.4761 12.7611 9.90749 13.5825 9.49231C13.6817 9.44493 13.763 9.40883 13.8261 9.38175C13.9074 9.3479 13.9999 9.35467 14.0744 9.40206C14.133 9.43816 14.1872 9.47426 14.2436 9.51262C15.9675 10.6656 17.1679 12.3918 17.6214 14.3707C17.6508 14.4948 17.6778 14.6234 17.6982 14.752C17.7027 14.7791 17.7049 14.8062 17.7004 14.8332C17.6733 15.0386 17.6237 15.2417 17.556 15.4334C17.3258 16.0788 16.87 16.5932 16.2744 16.8776C15.9652 17.0242 15.6313 17.1009 15.3041 17.1009ZM12.8446 11.1011C12.8424 11.5705 13.1718 11.839 13.5193 12.1233L13.6637 12.2384C14.027 12.5294 14.4399 12.8589 14.6181 13.3372C14.8303 13.9036 14.6678 14.4767 14.5121 15.0318C14.4421 15.2778 14.3745 15.5192 14.3406 15.7493C14.3203 15.8667 14.2977 16.1555 14.4647 16.2819C14.8821 16.5978 15.5049 16.6384 16.0419 16.3811C16.5068 16.16 16.8633 15.7561 17.0438 15.2462C17.0957 15.104 17.134 14.9551 17.1566 14.8017C17.1386 14.7001 17.116 14.5986 17.0934 14.497C16.6692 12.6513 15.55 11.0447 13.9435 9.96842C13.9299 9.95939 13.9187 9.95262 13.9074 9.9436C13.8803 9.95714 13.851 9.97067 13.8216 9.98421C13.4606 10.167 12.8491 10.5551 12.8446 11.1011Z" fill="#703627"/>
<path d="M5.53613 22.742C5.5948 22.7781 5.65347 22.8119 5.71439 22.8458C6.44547 23.2587 7.25326 23.5588 8.10844 23.7235C8.18065 23.737 8.25511 23.7506 8.32957 23.7641C8.75603 23.8341 9.19604 23.8702 9.64055 23.8702C9.96773 23.8702 10.2881 23.8499 10.604 23.8115H10.6063C10.683 23.8025 10.7597 23.7935 10.8364 23.7822C12.1 23.5926 13.2643 23.112 14.2572 22.4103C14.3203 22.3674 14.3813 22.3245 14.4399 22.2771C14.4377 22.1937 14.4354 22.1079 14.4332 22.0222C14.4061 21.2595 14.3181 20.4382 13.9977 19.7883C13.657 19.0956 12.9123 18.4051 12.0188 18.4187C11.7097 18.4255 11.3261 18.5496 11.1749 18.8722C11.0689 19.1001 11.1072 19.3438 11.1478 19.5785C11.1636 19.6823 11.1817 19.7816 11.1862 19.8786C11.2133 20.5758 10.5318 21.1331 9.87522 21.3069C9.42393 21.4265 8.94106 21.4287 8.47398 21.4333C8.21224 21.4355 7.94373 21.4378 7.67973 21.4581C6.98249 21.5167 6.10926 22.0131 5.65572 22.575C5.61059 22.6314 5.57224 22.6878 5.53613 22.742Z" fill="#C6E281"/>
<path d="M9.64081 24.1432C9.18502 24.1432 8.72922 24.1071 8.28697 24.0327C8.21025 24.0214 8.12902 24.0079 8.0523 23.9898C7.18809 23.8251 6.35548 23.5205 5.58153 23.085C5.51835 23.0489 5.45742 23.015 5.3965 22.9789C5.33332 22.9406 5.28819 22.8774 5.27014 22.8052C5.25435 22.733 5.26789 22.6563 5.30624 22.5953C5.34912 22.5299 5.39424 22.4667 5.44614 22.4013C5.95609 21.7695 6.90604 21.2483 7.65743 21.1851C7.93045 21.1625 8.20348 21.1625 8.46974 21.1603C8.9323 21.1558 9.39261 21.1512 9.80779 21.0407C10.3696 20.894 10.936 20.4224 10.9134 19.8899C10.9112 19.8109 10.8954 19.7184 10.8796 19.6236C10.8367 19.3732 10.7848 19.0641 10.927 18.7572C11.1346 18.3172 11.6242 18.1547 12.0123 18.1457C13.0164 18.1276 13.8626 18.8971 14.2416 19.6665C14.6049 20.4044 14.6794 21.3092 14.7042 22.0132L14.711 22.2704C14.7132 22.3584 14.6749 22.4397 14.6072 22.4938C14.5417 22.5434 14.4786 22.5908 14.4109 22.636C13.3707 23.3738 12.1477 23.8634 10.8773 24.053C10.7961 24.0643 10.7171 24.0756 10.6359 24.0846C10.6336 24.0846 10.6314 24.0846 10.6314 24.0846C10.3042 24.1229 9.97251 24.1432 9.64081 24.1432ZM5.94255 22.6608C6.63527 23.0376 7.38214 23.3039 8.15835 23.4528C8.23281 23.4686 8.3005 23.4821 8.37045 23.4934C9.09476 23.613 9.84389 23.6288 10.5727 23.5408C10.5772 23.5385 10.5795 23.5385 10.584 23.5385C10.6562 23.5318 10.7261 23.5205 10.7984 23.5114C11.9852 23.3332 13.127 22.8751 14.1017 22.1869C14.1243 22.1711 14.1446 22.1576 14.1649 22.1418L14.1627 22.0335C14.1401 21.4333 14.0747 20.5623 13.7543 19.9102C13.4519 19.2942 12.8066 18.6805 12.0236 18.694C11.807 18.6985 11.5204 18.7775 11.4189 18.9896C11.3489 19.1408 11.3805 19.3303 11.4144 19.5334C11.4324 19.6417 11.4527 19.7523 11.4572 19.8673C11.4911 20.7067 10.7036 21.3724 9.94543 21.5709C9.46481 21.6973 8.97066 21.7018 8.49004 21.7063C8.21702 21.7086 7.95527 21.7108 7.7003 21.7311C7.12717 21.7785 6.37578 22.1802 5.94255 22.6608Z" fill="#703627"/>
<path d="M8.13782 25.743C9.06747 25.5963 10.04 25.6776 10.9335 25.9777C11.0328 26.0115 11.1298 26.0476 11.2291 26.0882C11.2269 26.0679 11.2223 26.0499 11.2111 26.0318C11.0689 25.8287 10.9493 25.5715 10.8613 25.294C10.841 25.224 10.8207 25.1518 10.8049 25.0796C10.6966 24.6238 10.6853 24.1409 10.8365 23.7822C10.7598 23.7935 10.6831 23.8025 10.6063 23.8115H10.6041C10.2882 23.8499 9.96777 23.8702 9.6406 23.8702C9.19608 23.8702 8.75608 23.8341 8.32962 23.7641C8.25516 23.7506 8.1807 23.737 8.10849 23.7235C8.10623 23.7393 8.10849 23.7574 8.113 23.7754C8.26193 24.1387 8.29577 24.5426 8.22582 24.9262C8.21454 24.9961 8.19649 25.0683 8.17618 25.1383C8.11075 25.3729 8.00244 25.5963 7.85352 25.7949C7.94829 25.7746 8.04305 25.7565 8.13782 25.743Z" fill="#F57E82"/>
<path d="M11.2293 26.3613C11.1954 26.3613 11.1593 26.3545 11.1277 26.341C11.033 26.3049 10.9382 26.2688 10.8457 26.2372C10.0018 25.9529 9.08793 25.8739 8.20116 26.0093C8.1944 26.0115 8.18537 26.0138 8.17634 26.0161C8.08609 26.0273 7.99809 26.0454 7.91009 26.0634C7.79952 26.086 7.68445 26.0386 7.62578 25.9416C7.56486 25.8446 7.56937 25.7205 7.63706 25.6302C7.76342 25.461 7.85593 25.2714 7.91686 25.0638C7.93491 25.0007 7.94845 24.9397 7.95973 24.8788C8.02065 24.5336 7.98906 24.1884 7.8627 23.877C7.83788 23.8115 7.83111 23.7484 7.83788 23.6874C7.84916 23.6107 7.88978 23.543 7.9507 23.5002C8.01163 23.455 8.08834 23.4392 8.16506 23.455C8.23275 23.4686 8.30045 23.4821 8.3704 23.4911C9.0947 23.613 9.84383 23.6288 10.5727 23.5408C10.5772 23.5385 10.5794 23.5385 10.5839 23.5385C10.6561 23.5317 10.7261 23.5205 10.7983 23.5114C10.8953 23.4956 10.9923 23.5363 11.0533 23.6152C11.1119 23.6919 11.1255 23.798 11.0871 23.8883C10.9698 24.1658 10.963 24.5765 11.0691 25.0165C11.0849 25.0819 11.1029 25.1496 11.1232 25.215C11.1999 25.461 11.3105 25.6979 11.4323 25.8739C11.4752 25.9416 11.4978 26.007 11.5 26.0747C11.5046 26.1672 11.4617 26.2575 11.3872 26.3116C11.3398 26.3432 11.2834 26.3613 11.2293 26.3613ZM9.05409 25.3978C9.60465 25.3978 10.1552 25.4723 10.6877 25.6167C10.6561 25.5377 10.6291 25.4587 10.602 25.3752C10.5794 25.2985 10.5591 25.2218 10.5411 25.1451C10.4508 24.7705 10.4282 24.414 10.4734 24.1026C9.81224 24.1681 9.13758 24.1545 8.48547 24.0643C8.5464 24.3576 8.54865 24.6667 8.4945 24.9758C8.48096 25.0548 8.46065 25.1361 8.43809 25.2173C8.41552 25.2917 8.3907 25.364 8.36363 25.4362C8.59152 25.4113 8.82168 25.3978 9.05409 25.3978Z" fill="#703627"/>
<path d="M11.6843 26.6839C11.6414 26.6839 11.5985 26.6749 11.5601 26.6523C10.274 25.9822 8.68548 25.8626 7.31358 26.3342C7.17143 26.3838 7.01799 26.3071 6.96835 26.1627C6.92096 26.0205 6.99543 25.8648 7.13758 25.8152C8.64712 25.2962 10.3936 25.4271 11.8106 26.1672C11.9437 26.2371 11.9956 26.4019 11.9257 26.535C11.8783 26.6298 11.7835 26.6839 11.6843 26.6839Z" fill="#703627"/>
<path d="M9.83719 8.62584C9.82591 8.62584 9.81688 8.62584 9.8056 8.62359C9.65668 8.60554 9.54837 8.47015 9.56642 8.32123C9.59124 8.09333 9.61832 7.80225 9.64314 7.51118C9.67022 7.21333 9.69504 6.91774 9.72211 6.68759C9.73791 6.53641 9.87329 6.4281 10.0222 6.44615C10.1711 6.46194 10.2794 6.59733 10.2614 6.74851C10.2366 6.97641 10.2095 7.26748 10.1847 7.55856C10.1576 7.85641 10.1328 8.152 10.1057 8.38215C10.0899 8.52205 9.97257 8.62584 9.83719 8.62584Z" fill="#703627"/>
<path d="M7.16057 24.5358C5.06662 24.5358 2.92303 23.455 1.57595 21.6386C0.0889753 19.6349 -0.382615 16.8911 0.31913 14.2985C0.957694 11.9337 2.52139 9.78338 4.71688 8.24677C6.82437 6.77333 9.11688 6.17312 11.1747 6.55446C11.3214 6.58379 11.4184 6.72594 11.3913 6.87487C11.3643 7.02379 11.2244 7.12081 11.0755 7.09374C9.16201 6.73722 7.01391 7.3081 5.02601 8.69805C2.93431 10.1602 1.44959 12.2023 0.842618 14.4429C0.195027 16.8369 0.644053 19.4679 2.01144 21.3114C3.47811 23.2858 5.95565 24.3237 8.1737 23.8927C8.32263 23.8634 8.46478 23.9604 8.49186 24.1094C8.52119 24.2583 8.42417 24.4027 8.2775 24.4298C7.9097 24.502 7.5374 24.5358 7.16057 24.5358Z" fill="#703627"/>
<path d="M18.9052 15.307C18.2847 15.3883 17.6551 15.4718 17.0707 15.6974C16.4863 15.9253 15.9402 16.3157 15.6469 16.873C15.3558 17.4326 15.3649 18.1727 15.7733 18.6533C16.0553 18.985 16.4818 19.1542 16.8947 19.2919C17.4927 19.4927 18.129 19.6551 18.7472 19.5378C19.3655 19.4205 19.9589 18.9489 20.0334 18.3193C20.0762 17.9516 19.9454 17.5883 19.8055 17.2476C19.5302 16.5661 19.2166 15.9005 18.9052 15.307Z" fill="#DDA783"/>
<path d="M16.9509 15.8215C17.8331 16.7579 18.149 18.1952 17.7429 19.4182C17.1788 19.4904 16.5808 19.337 16.1499 18.9624C15.7211 18.5879 15.4842 17.9831 15.5925 17.4213C15.6647 17.049 15.8768 16.7128 16.1408 16.4398C16.4026 16.1645 16.714 15.9433 16.9509 15.8215Z" fill="#B27966"/>
<path d="M18.4628 19.8222C17.7904 19.8222 17.0526 19.7161 16.6735 19.574C16.0575 19.3438 15.5904 18.9196 15.3874 18.4096C15.0128 17.4665 15.5634 16.4398 16.3012 15.9118C17.039 15.3838 17.9484 15.2236 18.7517 15.0837C18.8983 15.0566 19.0405 15.1582 19.0653 15.3071C19.0901 15.456 18.9908 15.5959 18.8442 15.623C18.0996 15.7538 17.2534 15.9005 16.6148 16.3586C16.0643 16.7512 15.6243 17.5319 15.8905 18.2043C16.0372 18.5721 16.3915 18.8835 16.863 19.0595C17.3143 19.2287 18.4087 19.3438 19.0901 19.231C19.2345 19.2062 19.3767 19.3077 19.4015 19.4589C19.4263 19.6078 19.3248 19.7477 19.1759 19.7725C18.9638 19.8064 18.7178 19.8222 18.4628 19.8222Z" fill="#703627"/>
<path d="M47.5836 9.49503C47.6964 9.36867 47.8115 9.30549 47.9266 9.30549C47.9988 9.30549 48.1207 9.36416 48.2967 9.47698C48.4636 9.59206 48.6419 9.71842 48.8292 9.85606C49.021 10.0072 49.2037 10.1516 49.3797 10.2893C49.5422 10.4292 49.6505 10.5217 49.7047 10.5691C49.7769 10.6481 49.8242 10.727 49.8491 10.8038C49.8603 10.876 49.8603 10.9459 49.8491 11.0113C49.8355 11.0835 49.8175 11.1422 49.7949 11.1828L49.7408 11.237C49.5896 11.4671 49.3481 11.6973 49.0187 11.932C48.6802 12.1847 48.2899 12.4148 47.8454 12.6179C47.3941 12.83 46.9022 12.997 46.3742 13.1233C45.8327 13.261 45.2753 13.3309 44.7044 13.3309C44.3254 13.3309 43.9147 13.2881 43.477 13.2046C43.037 13.1143 42.5947 12.9654 42.1502 12.7533C41.6989 12.5502 41.2657 12.2637 40.8505 11.8959C40.4285 11.5416 40.0607 11.0881 39.7494 10.533C39.4357 9.99144 39.183 9.3416 38.9912 8.58344C38.7926 7.83206 38.6934 6.95657 38.6934 5.95698C38.6934 4.9461 38.8423 4.10221 39.1446 3.42077C39.4447 2.74159 39.8306 2.182 40.2999 1.742C40.7512 1.30877 41.2408 0.974816 41.7711 0.740149C42.2991 0.512252 42.7933 0.340764 43.2513 0.225687C43.7026 0.124148 44.0817 0.0609689 44.3885 0.0361482L44.8398 0.0180969L45.0655 0.0361482C45.2144 0.0609689 45.3859 0.085789 45.5799 0.108353C45.7537 0.139943 45.9161 0.160251 46.0673 0.171533L46.293 0.207636C46.7488 0.297892 47.173 0.449072 47.5656 0.658918C47.9447 0.875534 48.2831 1.10569 48.5855 1.34487C48.8743 1.57953 49.1202 1.80066 49.3256 2.00374C49.5241 2.22036 49.6618 2.36477 49.7408 2.43697C49.8671 2.56333 49.9032 2.68969 49.8491 2.81605C49.8242 2.86569 49.7814 2.91533 49.7227 2.96949C49.47 3.15677 49.2353 3.33502 49.0187 3.502C48.8314 3.6419 48.6487 3.76374 48.4681 3.87205C48.2921 3.99841 48.1658 4.07738 48.0891 4.10672C48.0642 4.12026 48.0349 4.12477 47.9988 4.12477C47.8837 4.12477 47.7957 4.07513 47.7371 3.97133C47.6694 3.86979 47.6378 3.80661 47.6378 3.78179C47.6378 3.75923 47.5566 3.65092 47.3941 3.45687C47.2181 3.28313 46.8909 3.08231 46.4103 2.85215C46.1328 2.72579 45.88 2.64456 45.6521 2.60846C45.422 2.57236 45.2279 2.55431 45.0655 2.55431H44.7676C44.7248 2.56784 44.6909 2.57236 44.6683 2.57236C44.1268 2.60846 43.6484 2.73482 43.2333 2.95143C42.8 3.16354 42.439 3.44559 42.1502 3.79985C41.8478 4.16764 41.6222 4.57605 41.4733 5.02733C41.3221 5.49667 41.2476 5.99759 41.2476 6.52559C41.2476 7.08067 41.3153 7.61544 41.4552 8.13216C41.5816 8.65113 41.7824 9.10467 42.0599 9.49503C42.3352 9.89893 42.694 10.2216 43.134 10.4608C43.5785 10.7022 44.1088 10.8218 44.7225 10.8218C45.1377 10.8218 45.51 10.7654 45.8417 10.6503C46.1531 10.5375 46.4306 10.4044 46.672 10.2532C46.9112 10.1043 47.1075 9.95308 47.2587 9.8019C47.4076 9.65749 47.5159 9.55596 47.5836 9.49503Z" fill="#4C7031"/>
<path d="M59.2173 3.66443L59.2353 3.64638H59.3075C59.3843 3.64638 59.479 3.67345 59.5873 3.72761C59.6889 3.77725 59.7408 3.88781 59.7408 4.06156C59.7408 4.11571 59.7408 4.24207 59.7408 4.44064C59.7272 4.65725 59.7227 4.90997 59.7227 5.19879C59.7092 5.50566 59.7047 5.83961 59.7047 6.20064C59.6911 6.56843 59.6866 6.93623 59.6866 7.30177C59.6618 8.16823 59.637 9.13397 59.6144 10.199C59.5964 10.3254 59.6009 10.4382 59.6325 10.533C59.6437 10.6232 59.6686 10.6999 59.7047 10.7586C59.7408 10.8376 59.7972 10.8759 59.8762 10.8759C59.9664 10.8759 60.0589 10.8714 60.156 10.8579L60.4628 10.8218C60.5756 10.8105 60.6907 10.7902 60.8058 10.7586C60.8171 10.7473 60.8351 10.7405 60.86 10.7405C60.8825 10.7293 60.9344 10.7225 61.0134 10.7225C61.0721 10.7225 61.1352 10.7451 61.2029 10.7857C61.2503 10.8218 61.2751 10.8917 61.2751 10.9933C61.2751 11.0903 61.2864 11.2234 61.3112 11.3904C61.3338 11.5664 61.3609 11.7401 61.3925 11.9139C61.415 12.1192 61.4466 12.3268 61.4827 12.5366C61.494 12.6156 61.494 12.6878 61.4827 12.7533C61.4579 12.8142 61.4195 12.8683 61.3654 12.9157C61.3158 12.9834 61.2345 13.0285 61.1217 13.0511C61.036 13.0646 60.9164 13.0827 60.7607 13.1053C60.5982 13.1481 60.4222 13.182 60.2372 13.2045C60.0319 13.2294 59.8243 13.2452 59.6144 13.2587C59.3843 13.2813 59.1631 13.2948 58.9465 13.2948C58.7953 13.2948 58.6509 13.288 58.5133 13.2767C58.3734 13.2632 58.2538 13.2452 58.1523 13.2226C57.9898 13.1865 57.8634 13.085 57.7732 12.9157C57.6694 12.7533 57.6017 12.5637 57.5656 12.3471C57.516 12.1373 57.4866 11.9184 57.4753 11.6882C57.4505 11.4603 57.4392 11.264 57.4392 11.1016H57.358C57.0195 11.783 56.5096 12.311 55.8236 12.6901C55.1422 13.0827 54.4247 13.2767 53.6665 13.2767C53.1656 13.2767 52.6692 13.1775 52.1773 12.9789C51.6831 12.7871 51.2476 12.4825 50.8686 12.0673C50.4759 11.6657 50.1668 11.1422 49.9389 10.4968C49.7042 9.85377 49.5869 9.07756 49.5869 8.16823C49.5869 7.61541 49.6433 7.12577 49.7584 6.69705C49.8667 6.28187 50.0156 5.90956 50.2097 5.57787C50.3947 5.26648 50.6158 4.99571 50.8686 4.76556C51.1213 4.53766 51.3853 4.34812 51.6628 4.19694C52.3713 3.81787 53.1092 3.62833 53.8741 3.62833C54.5826 3.62833 55.255 3.78853 55.8868 4.10669C56.5006 4.43161 57.0083 4.90546 57.4122 5.52371L57.4753 5.50566L57.3761 4.21499C57.3761 4.11346 57.3873 4.02094 57.4122 3.9352C57.4415 3.85848 57.4798 3.78853 57.5295 3.72761C57.5656 3.67345 57.6333 3.64638 57.7371 3.64638H58.044C58.1703 3.64638 58.3012 3.64638 58.4411 3.64638C58.5674 3.65992 58.6938 3.66443 58.8202 3.66443H59.2173ZM51.9336 8.26751C51.9336 8.88126 52.0261 9.35962 52.2134 9.70259C52.3871 10.0591 52.606 10.3163 52.8723 10.4788C53.1363 10.6548 53.4228 10.7631 53.7297 10.8037C54.0185 10.8398 54.2757 10.8579 54.5059 10.8579C54.727 10.8579 54.9707 10.8353 55.237 10.7857C55.4897 10.7315 55.7356 10.63 55.9771 10.4788C56.2163 10.3299 56.4374 10.1087 56.6359 9.81992C56.8277 9.52659 56.9699 9.13397 57.0602 8.64659C57.1324 8.21336 57.1053 7.82977 56.9789 7.49131C56.839 7.14833 56.6382 6.85725 56.3742 6.61582C56.0967 6.38115 55.774 6.20064 55.4085 6.07428C55.0407 5.94792 54.6774 5.88474 54.3164 5.88474C54.0095 5.88474 53.7116 5.92761 53.4228 6.0111C53.134 6.11489 52.8813 6.26156 52.6647 6.45336C52.4413 6.64064 52.2675 6.88433 52.1412 7.18443C52.0013 7.49131 51.9336 7.85233 51.9336 8.26751Z" fill="#4C7031"/>
<path d="M68.42 13.376C68.2576 13.376 68.0613 13.3603 67.8334 13.3309C67.61 13.3061 67.3663 13.2519 67.1023 13.1685C66.836 13.0917 66.5653 12.9699 66.29 12.8074C66.0057 12.645 65.7417 12.4329 65.4957 12.1666C65.4777 12.3652 65.4619 12.5795 65.4506 12.8074C65.4371 13.0376 65.4258 13.2429 65.4145 13.4302C65.401 13.6288 65.3964 13.8003 65.3964 13.9447C65.3829 14.0823 65.3784 14.1635 65.3784 14.1884C65.3784 14.2357 65.4168 14.2876 65.4957 14.3418C65.5183 14.3531 65.5499 14.3598 65.586 14.3598C65.6875 14.3463 65.7891 14.3418 65.8929 14.3418C65.9763 14.3237 66.0689 14.3079 66.1727 14.2967C66.2629 14.2967 66.3374 14.2967 66.3983 14.2967C66.5111 14.2967 66.5923 14.3644 66.642 14.5043C66.6713 14.5584 66.6871 14.6216 66.6871 14.6938L66.7052 15.9303C66.7052 16.0386 66.66 16.1131 66.5698 16.1559C66.4795 16.1921 66.3848 16.2101 66.29 16.2101H66.0734C65.8748 16.2101 65.5679 16.2101 65.1528 16.2101C64.7376 16.2214 64.3134 16.2282 63.8801 16.2282C63.4401 16.2282 63.0362 16.2282 62.6707 16.2282C62.3029 16.2394 62.0705 16.2462 61.9757 16.2462C61.8606 16.2462 61.7704 16.2214 61.705 16.174C61.644 16.1198 61.6079 16.0612 61.5966 16.0025C61.5718 15.9416 61.5605 15.8852 61.5605 15.831V15.7408C61.5605 15.7272 61.5651 15.6708 61.5786 15.5693C61.5786 15.4655 61.5831 15.3459 61.5966 15.2083C61.5966 15.0819 61.6012 14.9488 61.6147 14.8111C61.6147 14.6712 61.6147 14.5629 61.6147 14.4862C61.6147 14.414 61.6328 14.3553 61.6689 14.3147C61.6914 14.2899 61.732 14.2651 61.7862 14.2425C61.8223 14.229 61.8697 14.2245 61.9306 14.2245H62.8241C62.9009 14.2245 62.9528 14.1726 62.9776 14.071C62.9889 14.0214 62.9956 13.9717 62.9956 13.9176L62.8963 6.09235C62.8963 5.9547 62.8535 5.87122 62.77 5.83963C62.6662 5.81706 62.5647 5.80352 62.4631 5.80352C62.4022 5.81706 62.339 5.82158 62.2736 5.82158C62.2127 5.82158 62.1427 5.82158 62.066 5.82158C61.9938 5.83511 61.9171 5.83963 61.8403 5.83963C61.7614 5.83963 61.7095 5.81029 61.6869 5.74937C61.6508 5.70199 61.626 5.64558 61.6147 5.57788C61.6012 5.50568 61.6012 5.41993 61.6147 5.31614C61.626 5.15368 61.644 4.99573 61.6689 4.83778C61.6801 4.70014 61.6914 4.5625 61.705 4.4226C61.705 4.29624 61.705 4.18568 61.705 4.08865C61.705 3.97583 61.7546 3.89686 61.8584 3.85398C61.9486 3.83142 62.0434 3.81788 62.1472 3.81788H62.3729C62.3729 3.8066 62.4902 3.79983 62.7249 3.79983H65.2069C65.3446 3.79983 65.4326 3.85173 65.4687 3.95327C65.5093 4.06834 65.5318 4.20147 65.5318 4.35039C65.5183 4.50157 65.498 4.65275 65.4687 4.80168C65.4438 4.96414 65.4326 5.09727 65.4326 5.19881C65.4326 5.28906 65.4371 5.35901 65.4506 5.4064C65.4506 5.47409 65.4551 5.5305 65.4687 5.57788C65.8342 4.8987 66.2832 4.3865 66.8135 4.04352C67.3302 3.70732 67.9056 3.53809 68.5374 3.53809C68.9638 3.53809 69.4129 3.61932 69.8822 3.78178C70.3335 3.95778 70.7938 4.21501 71.2631 4.55798C71.737 4.92578 72.1341 5.43122 72.4545 6.07429C72.7546 6.71963 72.9171 7.56127 72.9419 8.60148C72.9712 9.35963 72.9013 10.005 72.7343 10.533C72.5718 11.0745 72.3575 11.5235 72.0935 11.8778C71.8159 12.2343 71.5068 12.5096 71.1638 12.7081C70.8141 12.9135 70.4689 13.0602 70.1259 13.1504C69.7829 13.2452 69.4602 13.3061 69.1601 13.3309C68.8578 13.3603 68.6118 13.376 68.42 13.376ZM65.6762 8.45707C65.6762 8.92189 65.7665 9.31902 65.947 9.64845C66.1208 9.98692 66.3464 10.2577 66.6239 10.4608C66.8879 10.6774 67.1858 10.8286 67.5175 10.912C67.8424 11.0158 68.1583 11.0655 68.4652 11.0655C69.1556 11.0655 69.6701 10.8579 70.0086 10.4427C70.3515 10.0411 70.5727 9.51758 70.6765 8.87225C70.7487 8.41645 70.7216 7.99676 70.5952 7.61768C70.4553 7.25665 70.2545 6.94527 69.9905 6.67901C69.7242 6.42629 69.4241 6.23224 69.0879 6.09235C68.7314 5.9547 68.3704 5.88476 68.0049 5.88476C67.7025 5.88476 67.4137 5.9344 67.1384 6.02917C66.8609 6.13296 66.6149 6.2864 66.3983 6.48947C66.1817 6.70158 66.0125 6.96558 65.8929 7.28373C65.7484 7.60866 65.6762 8.00127 65.6762 8.45707Z" fill="#4C7031"/>
<path d="M75.1781 6.73314C75.1893 6.62032 75.1803 6.51201 75.151 6.40821C75.1374 6.33601 75.1149 6.26832 75.0788 6.20062C75.0291 6.14196 74.9547 6.11037 74.8531 6.11037H74.0228C73.8829 6.11037 73.7746 6.07878 73.6979 6.01108C73.6076 5.9637 73.5625 5.86442 73.5625 5.71324L73.5444 4.25108C73.5444 4.10216 73.5895 3.99611 73.6798 3.93518C73.7565 3.88103 73.8648 3.85395 74.0047 3.85395H76.8929C77.0193 3.85395 77.1276 3.86975 77.2179 3.89908C77.3081 3.9239 77.3893 3.96677 77.4616 4.02544C77.527 4.09313 77.5608 4.19467 77.5608 4.33231V4.74749C77.5608 4.97765 77.5541 5.24842 77.5428 5.5598C77.5247 5.87344 77.5089 6.21867 77.4977 6.59775C77.4841 6.97683 77.4728 7.36268 77.4616 7.75304C77.4254 8.65109 77.3893 9.65293 77.3532 10.7586C77.3397 10.8127 77.3397 10.8646 77.3532 10.912C77.3758 11.0158 77.4458 11.0654 77.5608 11.0654H78.3912C78.4815 11.0654 78.5559 11.0722 78.6168 11.0835C78.6823 11.1083 78.7387 11.1422 78.7883 11.1828C78.8244 11.2189 78.8425 11.273 78.8425 11.3452V12.8074C78.8425 12.8796 78.8289 12.9496 78.8064 13.015C78.7816 13.0759 78.7364 13.1278 78.671 13.1684C78.6101 13.2181 78.5176 13.2406 78.3912 13.2406H73.9867C73.8603 13.2406 73.7633 13.2181 73.6979 13.1684C73.6369 13.1278 73.5918 13.0759 73.5625 13.015C73.5376 12.9496 73.5264 12.8796 73.5264 12.8074V11.3452C73.5264 11.273 73.5534 11.2189 73.6076 11.1828C73.6437 11.1422 73.6911 11.1083 73.752 11.0835C73.8174 11.0722 73.8964 11.0654 73.9867 11.0654H74.817C74.966 11.0654 75.0472 11.0271 75.0607 10.9481C75.072 10.8759 75.0788 10.7766 75.0788 10.6503L75.1781 6.73314ZM77.5789 1.88636C77.5653 2.08041 77.5022 2.2519 77.3893 2.40082C77.2743 2.56329 77.1366 2.70318 76.9742 2.816C76.7937 2.93108 76.6041 3.01908 76.4056 3.07775C76.1889 3.14544 75.9746 3.17703 75.7647 3.17703C75.4691 3.17703 75.2232 3.0958 75.0246 2.93334C74.8193 2.78441 74.6681 2.58811 74.5733 2.34667C74.4695 2.11877 74.4199 1.86605 74.4199 1.58851C74.4199 1.31323 74.4831 1.05375 74.6094 0.812309C74.7223 0.584411 74.8983 0.388103 75.1329 0.225641C75.3721 0.0767183 75.6835 0 76.0626 0C76.2792 0 76.4868 0.0248207 76.6853 0.0722052C76.7982 0.0970259 76.9132 0.166975 77.0283 0.279795C77.1299 0.406154 77.2224 0.55959 77.3081 0.740103C77.3984 0.916103 77.4661 1.10113 77.5157 1.29969C77.5699 1.50503 77.5902 1.70134 77.5789 1.88636Z" fill="#4C7031"/>
<path d="M42.3579 28.837C42.3443 28.837 42.333 28.8415 42.3218 28.8551H42.2134C42.1097 28.8551 42.0149 28.8257 41.9246 28.7648C41.8208 28.7107 41.7712 28.5911 41.7712 28.4038C41.7712 28.3271 41.7757 28.1308 41.7892 27.8171C41.7892 27.499 41.7983 27.1086 41.8163 26.6438C41.8276 26.188 41.8389 25.6758 41.8524 25.1094C41.8524 24.5566 41.8569 23.988 41.8705 23.4036C41.893 22.0452 41.9246 20.5244 41.9607 18.8456C41.972 18.708 41.972 18.5749 41.9607 18.4485C41.9472 18.3537 41.9179 18.2657 41.8705 18.1868C41.8163 18.11 41.7351 18.0694 41.6268 18.0694C41.5117 18.0694 41.3289 18.0694 41.0762 18.0694C40.81 18.083 40.546 18.1033 40.282 18.1326C39.9615 18.1461 39.6231 18.1642 39.2621 18.1868C39.2305 18.2003 39.1989 18.2048 39.1628 18.2048C39.138 18.2048 39.1131 18.2048 39.0906 18.2048C39.0477 18.2183 39.0026 18.2229 38.9552 18.2229C38.8514 18.2229 38.7589 18.1935 38.6754 18.1326C38.5716 18.0784 38.522 17.9656 38.522 17.7896V16.7697C38.522 16.6208 38.522 16.4944 38.522 16.3906L38.5039 16.2372V16.1199C38.5039 16.0612 38.5152 15.9845 38.54 15.8942C38.5626 15.822 38.6077 15.7476 38.6754 15.6686C38.7341 15.6099 38.8221 15.5783 38.9371 15.5783L47.0873 15.6144C47.1166 15.6144 47.1369 15.6099 47.1505 15.5964H47.3129C47.4258 15.5964 47.5476 15.6212 47.674 15.6686C47.8003 15.7363 47.8635 15.8626 47.8635 16.0477C47.8635 16.1989 47.868 16.3591 47.8816 16.526C47.8816 16.6885 47.8861 16.8397 47.8996 16.9773L47.9447 17.4647C47.956 17.5685 47.9493 17.652 47.9267 17.7174C47.8951 17.7783 47.8567 17.8325 47.8094 17.8799C47.7597 17.9476 47.674 17.9792 47.5476 17.9792L45.0295 17.9972C44.9618 17.9972 44.9054 18.0108 44.858 18.0333C44.8083 18.0581 44.7632 18.092 44.7226 18.1326C44.6865 18.1687 44.6684 18.2386 44.6684 18.3402C44.6684 18.3763 44.6729 18.5455 44.6865 18.8456C44.6865 19.1525 44.691 19.5383 44.7045 20.0009C44.7045 20.4702 44.709 20.9937 44.7226 21.5714C44.7339 22.1558 44.7497 22.7425 44.7677 23.3314C44.779 24.7349 44.8038 26.3098 44.8399 28.0608C44.8512 28.2007 44.8444 28.3271 44.8219 28.4399C44.797 28.5437 44.7519 28.6294 44.6865 28.7016C44.6256 28.7919 44.5263 28.837 44.3886 28.837H42.3579Z" fill="#4C7031"/>
<path d="M52.2678 21.2103C52.4596 20.5965 52.7687 20.0685 53.1974 19.6218C53.6239 19.1953 54.1812 18.981 54.8672 18.981C55.1424 18.981 55.42 19.0216 55.6975 19.0983C55.9615 19.1705 56.1984 19.2653 56.4105 19.3781C56.5482 19.4571 56.6452 19.5451 56.6994 19.6398C56.7468 19.7436 56.7716 19.8452 56.7716 19.9467C56.7716 20.0618 56.7468 20.1769 56.6994 20.2897C56.573 20.5672 56.4579 20.8267 56.3564 21.0659C56.2526 21.2644 56.1601 21.4608 56.0766 21.6526C55.9863 21.8511 55.9164 21.9955 55.869 22.0858C55.8013 22.2121 55.7065 22.2753 55.5802 22.2753C55.508 22.2753 55.4448 22.2618 55.3906 22.2302C55.341 22.2076 55.3184 22.1896 55.3184 22.176L55.2643 22.0858C55.2214 22.0203 55.1492 21.9572 55.0477 21.8962C54.9394 21.8308 54.7882 21.7676 54.5964 21.7067C54.3978 21.6526 54.1383 21.6255 53.8202 21.6255C53.5065 21.6255 53.2425 21.7112 53.0259 21.8782C52.8138 22.0542 52.6401 22.2482 52.5024 22.4649C52.3332 22.7176 52.2069 23.0019 52.1234 23.3133C52.1346 23.9045 52.1459 24.4392 52.1595 24.9198C52.1707 25.3237 52.182 25.7096 52.1956 26.0751C52.1956 26.4429 52.1956 26.6573 52.1956 26.7159C52.1956 26.7949 52.2001 26.8468 52.2136 26.8694C52.2249 26.8942 52.2633 26.9055 52.331 26.9055C52.3422 26.9055 52.4122 26.901 52.5385 26.8874C52.6514 26.8874 52.7777 26.8874 52.9176 26.8874C53.044 26.8874 53.1297 26.928 53.1794 27.0048L53.2155 27.1131L53.1794 28.5933C53.1794 28.6429 53.1545 28.679 53.1072 28.7016C53.0395 28.7332 52.9763 28.7603 52.9176 28.7828C52.8386 28.7964 52.7484 28.8009 52.6469 28.8009L49.172 28.837C49.0456 28.837 48.9599 28.7806 48.9193 28.6655C48.8832 28.5527 48.8696 28.4827 48.8832 28.4579V27.8712C48.8832 27.7336 48.8832 27.5892 48.8832 27.438C48.8696 27.3004 48.8651 27.1988 48.8651 27.1311C48.8651 27.0476 48.8877 26.9912 48.9373 26.9596C48.9779 26.9371 49.0185 26.9235 49.0546 26.9235H49.1268C49.1268 26.9371 49.1359 26.9416 49.1539 26.9416H49.3344C49.3886 26.9551 49.445 26.9596 49.5059 26.9596H49.6594C49.7135 26.9596 49.7519 26.9416 49.7767 26.9055C49.788 26.8694 49.7993 26.8288 49.8128 26.7791C49.8128 26.7385 49.8128 26.6979 49.8128 26.6618V26.2827C49.7993 26.0661 49.788 25.7953 49.7767 25.4704C49.7632 25.159 49.7519 24.8115 49.7406 24.4325C49.7225 24.0534 49.7067 23.6923 49.6955 23.3494C49.6819 23.0132 49.6774 22.7176 49.6774 22.4649C49.6639 22.2121 49.6594 22.0542 49.6594 21.9865C49.6594 21.885 49.6458 21.815 49.6233 21.7789C49.5984 21.7428 49.5736 21.7135 49.5511 21.6887C49.5082 21.6774 49.4698 21.6706 49.4337 21.6706C49.366 21.6841 49.2983 21.6887 49.2261 21.6887C49.1584 21.6887 49.084 21.6887 49.0005 21.6887C48.9102 21.7022 48.8064 21.7067 48.6936 21.7067C48.5898 21.7067 48.5086 21.6887 48.4499 21.6526C48.3822 21.6119 48.3371 21.5668 48.3145 21.5172C48.2784 21.463 48.2604 21.3998 48.2604 21.3276C48.2356 21.1652 48.2175 21.0004 48.2062 20.8312C48.1814 20.6936 48.1611 20.5424 48.1431 20.3799C48.1295 20.231 48.125 20.0866 48.125 19.9467C48.125 19.8091 48.1701 19.7075 48.2604 19.6398C48.3371 19.5812 48.4251 19.5383 48.5221 19.5135C48.6124 19.4841 48.7026 19.4683 48.7929 19.4683H48.9012L49.172 19.4503C49.3344 19.439 49.542 19.4277 49.7947 19.4142C50.0339 19.4142 50.2866 19.4097 50.5529 19.3961C50.8169 19.3961 51.0425 19.3961 51.2298 19.3961C51.4329 19.3961 51.5841 19.4413 51.6811 19.5315C51.7826 19.6353 51.8526 19.7391 51.8887 19.8474C51.9541 19.9873 51.988 20.1453 51.988 20.3258C51.9993 20.5559 52.0105 20.7635 52.0241 20.9485C52.0354 21.0997 52.0466 21.2374 52.0602 21.3637C52.0602 21.4901 52.0534 21.5533 52.0421 21.5533C52.0534 21.5668 52.0647 21.5713 52.0782 21.5713C52.155 21.5713 52.2181 21.4517 52.2678 21.2103Z" fill="#4C7031"/>
<path d="M66.3101 19.2607L66.3281 19.2427H66.4003C66.477 19.2427 66.5718 19.2697 66.6801 19.3239C66.7816 19.3735 66.8335 19.4841 66.8335 19.6578C66.8335 19.712 66.8335 19.8384 66.8335 20.0369C66.82 20.2535 66.8155 20.5063 66.8155 20.7951C66.802 21.1019 66.7974 21.4359 66.7974 21.7969C66.7839 22.1647 66.7794 22.5325 66.7794 22.898C66.7546 23.7645 66.7298 24.7303 66.7072 25.7953C66.6891 25.9216 66.6936 26.0345 66.7252 26.1292C66.7365 26.2195 66.7613 26.2962 66.7974 26.3549C66.8335 26.4338 66.89 26.4722 66.9689 26.4722C67.0592 26.4722 67.1517 26.4677 67.2487 26.4542L67.5556 26.4181C67.6684 26.4068 67.7835 26.3865 67.8986 26.3549C67.9099 26.3436 67.9279 26.3368 67.9527 26.3368C67.9753 26.3255 68.0272 26.3188 68.1062 26.3188C68.1648 26.3188 68.228 26.3413 68.2957 26.382C68.3431 26.4181 68.3679 26.488 68.3679 26.5895C68.3679 26.6866 68.3792 26.8197 68.404 26.9867C68.4266 27.1627 68.4537 27.3364 68.4852 27.5102C68.5078 27.7155 68.5394 27.9231 68.5755 28.1329C68.5868 28.2119 68.5868 28.2841 68.5755 28.3495C68.5507 28.4105 68.5123 28.4646 68.4582 28.512C68.4085 28.5797 68.3273 28.6248 68.2145 28.6474C68.1287 28.6609 68.0091 28.679 67.8534 28.7015C67.691 28.7444 67.515 28.7783 67.33 28.8008C67.1246 28.8256 66.917 28.8414 66.7072 28.855C66.477 28.8775 66.2559 28.8911 66.0393 28.8911C65.8881 28.8911 65.7437 28.8843 65.6061 28.873C65.4662 28.8595 65.3466 28.8414 65.245 28.8189C65.0826 28.7828 64.9562 28.6812 64.866 28.512C64.7622 28.3495 64.6945 28.16 64.6584 27.9434C64.6087 27.7335 64.5794 27.5147 64.5681 27.2845C64.5433 27.0566 64.532 26.8603 64.532 26.6978H64.4508C64.1123 27.3793 63.6024 27.9073 62.9164 28.2864C62.235 28.679 61.5174 28.873 60.7593 28.873C60.2584 28.873 59.7619 28.7737 59.27 28.5752C58.7759 28.3834 58.3404 28.0788 57.9613 27.6636C57.5687 27.262 57.2596 26.7385 57.0317 26.0931C56.797 25.4501 56.6797 24.6738 56.6797 23.7645C56.6797 23.2117 56.7361 22.722 56.8512 22.2933C56.9595 21.8782 57.1084 21.5058 57.3025 21.1742C57.4875 20.8628 57.7086 20.592 57.9613 20.3618C58.214 20.1339 58.478 19.9444 58.7556 19.7932C59.4641 19.4141 60.2019 19.2246 60.9669 19.2246C61.6754 19.2246 62.3478 19.3848 62.9796 19.703C63.5933 20.0279 64.101 20.5017 64.5049 21.12L64.5681 21.1019L64.4688 19.8113C64.4688 19.7097 64.4801 19.6172 64.5049 19.5315C64.5343 19.4548 64.5726 19.3848 64.6223 19.3239C64.6584 19.2697 64.7261 19.2427 64.8299 19.2427H65.1367C65.2631 19.2427 65.394 19.2427 65.5339 19.2427C65.6602 19.2562 65.7866 19.2607 65.9129 19.2607H66.3101ZM59.0264 23.8638C59.0264 24.4775 59.1189 24.9559 59.3062 25.2989C59.4799 25.6554 59.6988 25.9126 59.965 26.0751C60.229 26.2511 60.5156 26.3594 60.8225 26.4C61.1113 26.4361 61.3685 26.4542 61.5987 26.4542C61.8198 26.4542 62.0635 26.4316 62.3297 26.382C62.5825 26.3278 62.8284 26.2263 63.0698 26.0751C63.309 25.9262 63.5302 25.705 63.7287 25.4162C63.9205 25.1229 64.0627 24.7303 64.1529 24.2429C64.2251 23.8096 64.1981 23.4261 64.0717 23.0876C63.9318 22.7446 63.731 22.4535 63.467 22.2121C63.1894 21.9774 62.8668 21.7969 62.5012 21.6706C62.1334 21.5442 61.7702 21.481 61.4091 21.481C61.1023 21.481 60.8044 21.5239 60.5156 21.6074C60.2268 21.7112 59.9741 21.8578 59.7574 22.0496C59.534 22.2369 59.3603 22.4806 59.2339 22.7807C59.094 23.0876 59.0264 23.4486 59.0264 23.8638Z" fill="#4C7031"/>
<path d="M72.9032 28.837C72.373 28.837 71.9059 28.7061 71.5042 28.4399C71.1003 28.1872 70.7483 27.8532 70.4482 27.438C70.1414 27.0228 69.8887 26.5445 69.6901 26.0029C69.4848 25.4749 69.32 24.9244 69.1937 24.3513C69.0538 23.7984 68.9545 23.2501 68.8958 22.7086C68.8169 22.1806 68.765 21.7022 68.7424 21.2735C68.7063 20.8538 68.6882 20.5108 68.6882 20.2446L68.6702 19.8655C68.6702 19.8429 68.6702 19.8001 68.6702 19.7391C68.6567 19.6737 68.6702 19.6038 68.7063 19.5316C68.7289 19.4661 68.7875 19.4097 68.8778 19.3601C68.95 19.3127 69.0696 19.2879 69.2388 19.2879H69.7623C69.9428 19.2879 70.1008 19.2788 70.2407 19.2608H70.728C70.8296 19.2608 70.9176 19.2879 70.9898 19.342C71.0552 19.3917 71.1184 19.4594 71.1793 19.5496C71.2335 19.6534 71.2606 19.8023 71.2606 20.0009V20.741C71.2606 21.1088 71.2718 21.524 71.2967 21.9865C71.3079 22.4559 71.3463 22.9433 71.414 23.4487C71.4727 23.9677 71.5674 24.4393 71.6938 24.8657C71.8201 25.3057 71.9826 25.669 72.1812 25.9578C72.3842 26.2534 72.6437 26.4068 72.9574 26.4181C73.2755 26.3956 73.535 26.2173 73.7336 25.8856C73.9367 25.5742 74.1036 25.1703 74.23 24.6762C74.3563 24.1843 74.4489 23.6473 74.5098 23.0696C74.5752 22.4987 74.6204 21.9482 74.6452 21.4179C74.6565 20.9012 74.6632 20.4409 74.6632 20.037V19.2427C74.6632 19.0442 74.6948 18.8952 74.7625 18.7915C74.8099 18.7012 74.864 18.6335 74.925 18.5839C75.0017 18.5365 75.0919 18.5117 75.1957 18.5117H75.6831C75.8208 18.5252 75.981 18.5297 76.1615 18.5297H76.685C76.8655 18.5297 76.9918 18.5545 77.064 18.6019C77.1408 18.6516 77.1994 18.708 77.2355 18.7734C77.2581 18.8524 77.2716 18.9223 77.2716 18.981C77.2581 19.0419 77.2536 19.087 77.2536 19.1164V19.5496C77.24 19.8384 77.222 20.213 77.1994 20.6688C77.1633 21.1336 77.1047 21.6526 77.0279 22.2302C76.949 22.8259 76.8497 23.4284 76.7301 24.0354C76.5857 24.6491 76.4142 25.2493 76.2156 25.8315C75.999 26.4091 75.7395 26.9281 75.4394 27.3839C75.1258 27.8352 74.758 28.1939 74.3383 28.4579C73.9231 28.7242 73.4448 28.8483 72.9032 28.837Z" fill="#4C7031"/>
<path d="M80.4131 25.2087C80.3995 25.1907 80.4131 25.2606 80.4492 25.4163C80.4717 25.5675 80.553 25.7299 80.6929 25.9037C80.8373 26.0977 81.0471 26.2692 81.3246 26.4182C81.5999 26.5806 81.9767 26.6618 82.4529 26.6618C82.8861 26.6618 83.2336 26.6303 83.4998 26.5626C83.7525 26.5152 83.9895 26.4339 84.2129 26.3189C84.4408 26.206 84.6754 26.0932 84.9169 25.9849C85.156 25.8721 85.3591 25.8134 85.5216 25.8134C85.6705 25.8134 85.7698 25.8721 85.8194 25.9849C85.86 26.0707 85.9119 26.1699 85.9729 26.2828C86.027 26.3978 86.0767 26.5062 86.1263 26.6077C86.1737 26.7228 86.2188 26.8108 86.2617 26.8694L86.3158 26.9868L86.37 27.0951C86.3925 27.174 86.4061 27.2643 86.4061 27.3658C86.3925 27.4629 86.3564 27.5689 86.2978 27.6817C86.2188 27.8081 86.0812 27.9164 85.8826 28.0067C85.6773 28.0924 85.481 28.1849 85.2959 28.2865C85.1019 28.3903 84.874 28.485 84.61 28.5753C84.3437 28.661 84.0323 28.7287 83.6713 28.7829C83.2922 28.8415 82.8229 28.8731 82.2633 28.8731C81.5593 28.8731 80.9365 28.7355 80.395 28.4579C79.8399 28.1939 79.3751 27.8419 78.996 27.4019C78.6034 26.9574 78.3011 26.452 78.0844 25.8856C77.8543 25.3328 77.7234 24.7574 77.6873 24.1617C77.6512 23.5728 77.7076 22.9929 77.8588 22.4198C77.9964 21.867 78.2424 21.3706 78.5989 20.9306C78.9351 20.4928 79.3774 20.1318 79.9257 19.8475C80.4537 19.5835 81.0945 19.4503 81.8481 19.4503C82.5815 19.4503 83.2133 19.5406 83.7435 19.7211C84.2602 19.9084 84.6957 20.1453 85.0522 20.4341C85.3997 20.741 85.6773 21.075 85.8826 21.436C86.0812 21.8038 86.2256 22.1716 86.3158 22.5371C86.4061 22.9162 86.4512 23.2682 86.4512 23.5931C86.4377 23.9248 86.3993 24.1978 86.3339 24.4145V24.5047C86.3203 24.5837 86.2842 24.6581 86.2256 24.7304C86.1579 24.8093 86.0563 24.8793 85.9187 24.9379C85.7675 25.0056 85.5532 25.0372 85.2779 25.0372C85.0252 25.0372 84.6574 25.044 84.1768 25.0553C83.6939 25.0801 83.211 25.0981 82.7236 25.1094C82.2182 25.1343 81.7579 25.1523 81.3427 25.1636C80.9095 25.1952 80.6229 25.2087 80.4853 25.2087H80.4131ZM84.0684 23.1599L84.0865 22.8801C84.0865 22.6996 84.0346 22.5055 83.9331 22.2934C83.8293 22.0904 83.6578 21.9008 83.4186 21.7248C83.1659 21.5511 82.7958 21.4631 82.3084 21.4631H82.1009C82.0219 21.4631 81.9429 21.4698 81.8662 21.4811C81.3472 21.5308 80.9726 21.6616 80.738 21.8782C80.4853 22.0904 80.3183 22.3092 80.2416 22.5371C80.1513 22.7786 80.1197 22.9929 80.1513 23.1779L80.1874 23.4668C80.1987 23.4803 80.3363 23.4848 80.6026 23.4848C80.8553 23.4984 81.1306 23.5029 81.433 23.5029H81.8301C81.9564 23.5029 82.0693 23.4984 82.1731 23.4848C82.3355 23.4735 82.5251 23.4465 82.7417 23.4036C82.9515 23.381 83.1591 23.3494 83.3644 23.3133C83.5495 23.2772 83.7164 23.2389 83.8609 23.196L84.0684 23.1599Z" fill="#4C7031"/>
<path d="M89.792 28.3676V28.4398C89.7785 28.5008 89.7604 28.5572 89.7379 28.6113C89.713 28.6723 89.6747 28.7287 89.6205 28.7828C89.5709 28.8325 89.4964 28.855 89.3949 28.855C89.2911 28.855 89.1467 28.8483 88.9616 28.837C88.7676 28.837 88.5781 28.8325 88.393 28.8189C88.1516 28.8189 87.9056 28.8144 87.6529 28.8009C87.592 28.8009 87.5446 28.7828 87.5085 28.7467C87.4544 28.7061 87.4137 28.6474 87.3912 28.5752C87.3551 28.4985 87.337 28.3834 87.337 28.2323C87.337 28.1555 87.337 27.9209 87.337 27.5283C87.3235 27.1492 87.319 26.6776 87.319 26.1112C87.3009 25.5471 87.2919 24.9018 87.2919 24.1797C87.2784 23.4757 87.2671 22.7582 87.2558 22.0226C87.2423 21.3073 87.2377 20.6033 87.2377 19.9106C87.2242 19.2134 87.2197 18.5929 87.2197 18.0513C87.2062 17.5098 87.2016 17.0766 87.2016 16.7516C87.1881 16.4222 87.1836 16.2507 87.1836 16.2372V16.1018C87.1836 16.0431 87.1949 15.9799 87.2197 15.9122C87.2423 15.8536 87.2874 15.7904 87.3551 15.7227C87.4137 15.6753 87.5017 15.6505 87.6168 15.6505C87.7432 15.6505 87.9079 15.646 88.1132 15.6324C88.2983 15.6324 88.4788 15.6279 88.6548 15.6144C88.8827 15.6144 89.1173 15.6099 89.3588 15.5963C89.4851 15.5963 89.5934 15.6144 89.6837 15.6505C89.7672 15.6753 89.8416 15.7272 89.9093 15.8039C89.968 15.8942 89.9996 16.0273 89.9996 16.2011C89.9996 16.2913 89.9996 16.5328 89.9996 16.9231C89.9861 17.3157 89.9815 17.7986 89.9815 18.3762C89.968 18.9539 89.9567 19.6037 89.9454 20.3258C89.9319 21.0546 89.9206 21.7857 89.9093 22.519C89.8845 23.2659 89.8642 23.9857 89.8462 24.6762C89.8326 25.3802 89.8281 26.0029 89.8281 26.5445C89.8146 27.0928 89.8101 27.5283 89.8101 27.8532L89.792 28.3676Z" fill="#4C7031"/>
</svg>
