<svg width="87" height="88" viewBox="0 0 87 88" fill="none" xmlns="http://www.w3.org/2000/svg">
<path d="M65.2103 31.8805C71.7889 33.354 77.5418 37.6585 81.2087 43.1918C84.8757 48.725 86.5366 55.4037 86.479 61.9955C86.4493 65.3303 85.9835 68.6995 84.6678 71.777C83.3502 74.8527 81.1271 77.6256 78.143 79.2441C74.4482 81.2468 69.7087 81.2795 65.8153 79.0719C62.7106 80.1956 59.2775 80.4349 56.0411 79.757C54.3746 82.5898 51.7951 84.9043 48.761 86.2853C47.3896 86.9106 45.9013 87.351 44.387 87.3419C42.8727 87.3311 41.325 86.8309 40.2524 85.7869C38.8235 84.3986 38.4319 82.318 37.8696 80.801C35.2196 81.4516 32.3265 81.1145 29.9048 79.873C29.7656 81.0891 29.619 82.327 29.1179 83.4489C28.615 84.5708 27.6946 85.5785 26.4828 85.892C25.3378 86.1874 23.4858 84.6668 22.7156 83.7896C21.09 81.9392 19.5627 79.8259 19.1043 76.6234C18.3583 71.3964 18.479 66.2981 19.0784 61.0548C19.3827 58.396 20.4386 53.7526 21.7729 51.4164C23.0719 49.1437 24.0239 49.0567 26.0188 47.3313C36.1772 38.5411 49.2398 28.3083 65.2103 31.8805Z" fill="#DDA783"/>
<path d="M40.0586 71.8516C34.2612 71.8516 31.5314 72.0365 28.9538 72.5059C29.4512 76.2793 29.5699 77.9902 29.8167 79.857C29.8501 80.1126 29.8947 80.3772 30.0468 80.5856C30.2751 80.8992 30.6908 81.0133 31.0768 81.0876C32.8286 81.4284 34.6584 81.3903 36.3935 80.9753C36.9781 80.8357 37.5849 80.6345 37.9802 80.1905C38.6185 79.4746 38.5035 78.4089 38.5443 77.4592C38.5926 76.341 39.9844 72.8176 40.0586 71.8516Z" fill="#FFDCC4"/>
<path d="M38.3176 78.3925C42.9254 77.18 48.0268 77.8832 52.1113 80.2937C53.0095 80.823 53.9504 81.5914 53.9541 82.6172C53.9597 83.9077 52.5419 84.6906 51.3245 85.1927C49.376 85.9974 47.3829 86.813 45.2729 86.9616C43.1629 87.1102 40.8767 86.474 39.5813 84.8393C38.0967 82.9652 38.2563 80.3481 38.3176 78.3925Z" fill="#B27966"/>
<path d="M74.1732 74.2166C76.0698 75.2642 77.4059 77.2252 77.6602 79.3403C74.1342 80.6652 70.0961 80.638 66.5888 79.2678C69.4615 77.6222 72.2191 75.7826 74.1732 74.2166Z" fill="#B27966"/>
<path d="M20.1838 79.3838C22.9692 77.4137 26.6733 76.734 30.0007 77.5859C30.1881 78.8165 30.3792 80.0598 30.2827 81.3013C30.1862 82.5428 29.778 83.8006 28.9113 84.7122C28.0428 85.6257 26.664 86.1259 25.4467 85.7598C24.4575 85.4644 23.719 84.676 23.062 83.8967C21.8242 82.4359 20.6904 80.8899 20.1838 79.3838Z" fill="#B27966"/>
<path d="M57.5779 71.2008C62.7666 70.3942 70.9931 71.1301 75.2354 72.2991C73.1402 75.623 71.8765 76.56 68.2782 78.2401C64.6817 79.9202 60.4673 80.3008 56.6148 79.295C56.5109 76.4513 56.9229 73.5913 57.5779 71.2008Z" fill="#FFDCC4"/>
<path d="M26.3131 86.5664C27.0665 86.5664 27.7754 86.3217 28.3934 85.827C30.5479 84.1052 30.8856 79.924 30.5182 76.8664C30.3716 75.6557 30.1415 74.4596 29.9188 73.3051C29.5606 71.4383 29.221 69.6748 29.2006 67.8225C29.195 67.3912 28.8295 67.0631 28.3915 67.0504C27.9498 67.0541 27.5954 67.4075 27.601 67.8388C27.6232 69.8289 27.9907 71.7428 28.3488 73.5932C28.566 74.7224 28.7905 75.8914 28.9297 77.0495C29.2637 79.8315 28.9223 83.3875 27.3801 84.6181C26.3706 85.4246 25.1217 84.7558 24.4666 84.2846C21.4826 82.1369 19.8736 77.8451 19.5507 71.1628C19.2779 65.5135 19.4914 61.0242 21.4046 53.4955C21.5104 53.0768 21.2506 52.6527 20.8219 52.5494C20.3914 52.4443 19.959 52.6998 19.8532 53.1185C17.8917 60.8357 17.6727 65.4392 17.9529 71.2371C18.3018 78.4178 20.1205 83.0975 23.5183 85.5424C24.4648 86.2239 25.4205 86.5664 26.3131 86.5664Z" fill="#703627"/>
<mask id="mask0_206_2100" style="mask-type:luminance" maskUnits="userSpaceOnUse" x="37" y="65" width="22" height="23">
<path d="M58.6074 65.9992H37.2292V87.9221H58.6074V65.9992Z" fill="white"/>
</mask>
<g mask="url(#mask0_206_2100)">
<path d="M45.2266 87.904C45.6404 87.904 46.0746 87.8823 46.533 87.8352C50.2185 87.4527 53.6294 85.1039 55.8934 81.3884C58.3764 77.3105 59.1873 71.2988 57.8679 66.7678C57.7473 66.3527 57.3056 66.1117 56.8788 66.2313C56.4538 66.3491 56.2089 66.7804 56.3295 67.1955C57.5394 71.3441 56.7934 76.852 54.5183 80.5892C52.5159 83.8787 49.5449 85.9521 46.366 86.2819C43.3968 86.5882 41.2831 85.7418 40.0769 83.7627C37.9576 80.2829 39.0933 73.9648 42.7788 68.7397C43.0294 68.3844 42.9366 67.8987 42.5728 67.654C42.2091 67.4094 41.7118 67.5 41.4613 67.8552C37.4399 73.557 36.28 80.5837 38.7036 84.5601C39.663 86.1369 41.5578 87.904 45.2266 87.904Z" fill="#703627"/>
</g>
<path d="M72.31 81.1618C74.8895 81.1618 77.2148 80.5746 79.2654 79.4001C82.7783 77.3902 85.317 73.5805 86.2281 68.9498C89.073 54.5049 84.3408 36.9645 67.2309 32.5857C66.804 32.477 66.3661 32.7271 66.2547 33.1439C66.1415 33.5608 66.3976 33.9885 66.8245 34.0972C82.9416 38.2223 87.3676 54.9018 84.6582 68.6544C83.8324 72.8447 81.5721 76.2701 78.4563 78.0535C75.1326 79.9565 70.9164 80.0997 65.9263 78.4812C65.5087 78.3453 65.0559 78.5664 64.9168 78.976C64.7776 79.3856 65.004 79.8279 65.4234 79.9638C67.8841 80.7612 70.1834 81.1618 72.31 81.1618Z" fill="#703627"/>
<path d="M61.0397 80.6017C65.5307 80.6017 69.6077 79.1355 72.8367 76.2991C77.0864 72.5673 79.1908 67.0123 78.4671 61.4391C78.4114 61.0114 78.0105 60.7069 77.5726 60.7631C77.1346 60.8175 76.8247 61.209 76.8804 61.6367C77.5373 66.7006 75.6259 71.7481 71.7678 75.1373C67.7483 78.6679 62.2497 79.855 56.289 78.4776C55.8585 78.3779 55.4298 78.6389 55.3278 79.0575C55.2257 79.478 55.4911 79.8985 55.9216 79.9982C57.6697 80.4005 59.3826 80.6017 61.0397 80.6017Z" fill="#703627"/>
<path d="M33.8049 81.8778C35.6885 81.8778 37.5702 81.557 38.6039 81.0785C39.0029 80.8936 39.1736 80.4278 38.9843 80.0382C38.795 79.6485 38.3181 79.4818 37.9191 79.6666C36.3621 80.3861 32.0605 80.6634 30.2307 79.6866C29.8429 79.4799 29.3585 79.6195 29.147 79.9983C28.9336 80.3753 29.0765 80.8501 29.4643 81.0567C30.5536 81.6385 32.1811 81.8778 33.8049 81.8778Z" fill="#703627"/>
<path d="M17.0529 49.3268C12.4878 38.8221 12.5342 25.7293 17.1438 15.3062C14.9206 14.1752 11.8531 11.2899 12.0554 8.84855C12.2577 6.40724 14.3676 4.46253 16.7504 3.69588C19.1313 2.92924 22.4513 5.43398 24.0268 7.19383C25.4873 5.48654 29.607 3.71944 31.7764 3.04161C40.3945 0.346558 49.7586 1.51737 57.3356 7.50194C58.4323 5.67322 61.3755 4.0203 63.5412 3.89344C65.7087 3.76657 67.5329 4.42085 68.7948 6.14626C70.0548 7.86985 69.0936 10.9111 68.2084 12.8467C67.6424 14.0846 65.7848 13.878 64.7771 14.9908C67.6312 19.5218 70.2107 25.9613 70.5986 31.21C70.6097 37.2997 69.1195 43.3876 66.0075 48.9825C62.4407 54.3526 57.1927 58.6806 51.0873 61.0041C44.98 63.3276 38.0377 63.5977 31.8321 61.5406C25.6246 59.4835 19.6639 55.3386 17.0529 49.3268Z" fill="#DDA783"/>
<path d="M40.0392 63.8803C41.2788 63.8803 42.5389 63.8006 43.8138 63.6393C54.3692 62.3126 64.0488 55.3638 68.4748 45.9357C72.743 36.8447 71.5015 23.9476 65.4536 14.5756C65.2198 14.2113 64.7243 14.1008 64.3513 14.331C63.9783 14.5611 63.8651 15.0432 64.1008 15.4075C69.8758 24.359 71.0784 36.6453 67.0217 45.285C62.8203 54.2329 53.6307 60.83 43.6096 62.0915C39.0965 62.6588 34.7707 62.1585 31.0982 60.6434C27.3978 59.1191 24.2616 57.0276 21.2275 54.0643C14.3965 47.3929 11.4291 29.3612 17.8407 16.1126C18.0282 15.7229 17.8575 15.2571 17.4585 15.074C17.0613 14.8892 16.5826 15.0559 16.3951 15.4456C9.71259 29.2543 12.8989 48.1378 20.0973 55.1681C23.2391 58.2365 26.6333 60.4984 30.4765 62.0824C33.3641 63.2732 36.6172 63.8803 40.0392 63.8803Z" fill="#703627"/>
<path d="M57.6365 8.48968C57.887 8.48968 58.1338 8.3755 58.2897 8.15982C58.5458 7.80822 58.4604 7.32068 58.1004 7.07238C47.0049 -0.612218 35.3972 -0.791646 23.5984 6.53591C23.2254 6.76608 23.1159 7.25 23.3535 7.61248C23.5891 7.97677 24.0828 8.08551 24.4558 7.85353C35.6533 0.899328 46.6616 1.06426 57.1763 8.3465C57.3154 8.44256 57.4769 8.48968 57.6365 8.48968Z" fill="#703627"/>
<path d="M61.7626 16.5604C61.8053 16.5604 61.848 16.5568 61.8925 16.5495C64.4869 16.1363 66.5597 15.2645 68.0517 13.9614C69.9724 12.2868 70.8799 9.81101 70.3677 7.65425C69.8704 5.5591 68.0091 3.79382 65.7376 3.2646C63.6796 2.7825 61.3432 3.28091 59.4875 4.5949C57.8637 5.74397 56.5684 7.52738 55.8409 9.61527C55.698 10.0249 55.9226 10.4671 56.3401 10.6067C56.7595 10.7444 57.2123 10.5269 57.3552 10.1191C57.9769 8.33209 59.0681 6.82054 60.4246 5.85996C61.9092 4.80877 63.7538 4.40641 65.3646 4.7834C67.0608 5.1785 68.447 6.47437 68.8107 8.00766C69.193 9.61708 68.4767 11.4965 66.9865 12.796C65.7246 13.898 63.9227 14.6429 61.6346 15.009C61.1985 15.0779 60.9034 15.4802 60.9739 15.9061C61.0389 16.2885 61.3785 16.5604 61.7626 16.5604Z" fill="#703627"/>
<path d="M59.26 12.0221C59.5885 12.0221 59.8947 11.8227 60.0116 11.5037C60.7947 9.37235 63.0661 7.82999 65.3635 7.84449C65.7867 7.86805 66.1652 7.49832 66.1689 7.06697C66.1708 6.63562 65.8145 6.28401 65.3728 6.2822C62.3888 6.2822 59.5105 8.24141 58.5066 10.9763C58.3581 11.3823 58.5734 11.83 58.9891 11.975C59.0781 12.0058 59.1691 12.0221 59.26 12.0221Z" fill="#703627"/>
<path d="M19.7956 16.4372C20.1594 16.4372 20.4897 16.1908 20.5732 15.8283C20.6715 15.4078 20.4025 14.9909 19.9719 14.8949C17.7098 14.3928 15.9579 13.5428 14.7666 12.3666C13.3618 10.9801 12.7642 9.06075 13.2467 7.47852C13.7069 5.9706 15.1693 4.75991 16.8877 4.46449C18.517 4.18538 20.3357 4.69829 21.7516 5.83467C23.0469 6.87499 24.0397 8.44997 24.5482 10.2696C24.6651 10.6865 25.1049 10.9312 25.5299 10.817C25.9567 10.7028 26.2072 10.2751 26.0922 9.85821C25.4965 7.72863 24.3162 5.87273 22.7667 4.62942C20.9963 3.20668 18.697 2.56872 16.6112 2.92757C14.3119 3.32086 12.343 4.97015 11.7139 7.03267C11.0681 9.15318 11.8196 11.6797 13.6308 13.4649C15.0394 14.855 17.0547 15.85 19.6175 16.4173C19.6769 16.4318 19.7362 16.4372 19.7956 16.4372Z" fill="#703627"/>
<path d="M22.5753 12.0564C22.6496 12.0564 22.7256 12.0455 22.7999 12.0256C23.223 11.9042 23.4679 11.471 23.3436 11.0578C22.5141 8.26667 19.7546 6.12441 16.7854 5.96129C16.34 5.93954 15.967 6.26578 15.9429 6.69713C15.9169 7.12667 16.2547 7.4964 16.6963 7.51996C19.0104 7.64683 21.1612 9.31787 21.8089 11.4928C21.9091 11.8335 22.2302 12.0564 22.5753 12.0564Z" fill="#703627"/>
<path d="M39.6621 36.5531C41.4696 36.4933 43.3012 36.5568 45.0419 37.0371C46.7807 37.5173 48.4342 38.4453 49.518 39.859C50.7724 41.4956 51.1566 43.607 51.3329 45.6442C51.5222 47.8408 51.5129 50.061 51.1529 52.2359C50.945 53.4955 50.5943 54.7841 49.7555 55.7628C48.3637 57.3849 46.0069 57.7728 43.8579 58.0519C41.8036 58.3201 39.7215 58.5884 37.6653 58.3401C35.6073 58.0936 33.5419 57.2689 32.2336 55.6976C31.3317 54.6138 30.8473 53.2526 30.5634 51.8843C29.9584 48.9717 30.1978 45.945 30.7768 43.0271C31.0681 41.5572 31.4783 40.0402 32.5045 38.9292C34.0151 37.2962 36.4331 36.6637 39.6621 36.5531Z" fill="#B27966"/>
<path d="M36.8249 41.2689C37.1867 41.7165 37.3909 42.2838 37.3964 42.8529C37.3983 43.0885 37.3371 43.3658 37.1162 43.4601C36.9028 43.5507 36.6634 43.4202 36.4704 43.2933C36.0529 43.0215 35.6279 42.746 35.305 42.3708C35.0062 42.021 34.8021 41.5172 35.0174 41.113C35.1807 40.8049 35.563 40.6418 35.9156 40.678C36.27 40.7143 36.5614 40.9444 36.8249 41.2689Z" fill="#703627"/>
<path d="M44.053 41.2689C43.6893 41.7165 43.4852 42.2838 43.4815 42.8529C43.4778 43.0885 43.539 43.3658 43.7598 43.4601C43.9732 43.5507 44.2126 43.4202 44.4075 43.2933C44.825 43.0215 45.2481 42.746 45.571 42.3708C45.8717 42.021 46.0758 41.5172 45.8587 41.113C45.6954 40.8049 45.315 40.6418 44.9605 40.678C44.6079 40.7143 44.3166 40.9444 44.053 41.2689Z" fill="#703627"/>
<path d="M37.9506 54.1496C39.1105 54.1496 40.2536 53.4156 40.9087 52.2285C40.9569 52.1451 40.9811 52.0508 40.9811 51.9548L40.9866 51.0558C40.9959 49.2942 41.007 47.5434 41.0312 45.9883C41.0367 45.6639 40.7714 45.3975 40.441 45.3921C40.1089 45.3921 39.8361 45.6458 39.8324 45.9702C39.8064 47.5289 39.7971 49.2833 39.7878 51.0504L39.7822 51.7953C39.3109 52.5601 38.5445 53.0332 37.83 52.9734C37.0803 52.9135 36.3547 52.2647 36.0244 51.3603C35.913 51.0558 35.5697 50.8963 35.2561 51.0051C34.9443 51.1138 34.7829 51.4491 34.8942 51.7536C35.3878 53.1057 36.5031 54.0427 37.7335 54.1405C37.8059 54.146 37.8783 54.1496 37.9506 54.1496Z" fill="#703627"/>
<path d="M42.7354 53.9411C42.8894 53.9411 43.0434 53.9284 43.1975 53.903C44.4056 53.7018 45.5004 52.6851 45.9867 51.3149C46.0943 51.0104 45.9291 50.6769 45.6155 50.57C45.3037 50.4649 44.9623 50.6262 44.8528 50.9325C44.5132 51.8894 43.7653 52.6198 42.9952 52.7485C42.2492 52.8736 41.4753 52.444 41.017 51.6575C40.8537 51.3765 40.4881 51.2768 40.2004 51.4363C39.9128 51.5958 39.8107 51.9529 39.974 52.2356C40.5957 53.3067 41.6461 53.9411 42.7354 53.9411Z" fill="#703627"/>
<path d="M41.5087 12.2777C41.5124 12.2777 41.5161 12.2777 41.5198 12.2777C41.9615 12.2704 42.3141 11.917 42.3085 11.4856L42.2343 6.17347C42.2269 5.74212 41.8687 5.41226 41.4233 5.4032C40.9817 5.40864 40.6291 5.76205 40.6346 6.19341L40.7089 11.5074C40.7144 11.9351 41.0726 12.2777 41.5087 12.2777Z" fill="#C48C71"/>
<path d="M32.8346 13.153C32.842 13.153 32.8494 13.153 32.8569 13.153C33.2985 13.1403 33.6474 12.7814 33.6344 12.3501L33.5175 8.20511C33.5045 7.77376 33.1464 7.41671 32.6954 7.44571C32.2537 7.4584 31.9067 7.81725 31.9179 8.24861L32.0366 12.3936C32.0478 12.8177 32.4041 13.153 32.8346 13.153Z" fill="#C48C71"/>
<path d="M51.0712 14.2622C51.1009 14.2622 51.1324 14.2604 51.1621 14.2567C51.6019 14.2078 51.9174 13.8218 51.8673 13.3922C51.6947 11.926 51.7188 10.4416 51.9341 8.98083C51.9972 8.55491 51.6929 8.158 51.2568 8.09638C50.8169 8.03657 50.4142 8.33199 50.3512 8.7579C50.1155 10.351 50.0913 11.9695 50.2769 13.5698C50.3252 13.9686 50.6703 14.2622 51.0712 14.2622Z" fill="#C48C71"/>
<path d="M46.8386 21.86C46.8609 21.86 46.8832 21.86 46.9054 21.8582C47.3452 21.8219 47.6737 21.4449 47.6366 21.0154C47.4974 19.3734 47.6384 17.7331 48.0578 16.1364C48.1673 15.7177 47.9094 15.2936 47.4826 15.1849C47.0557 15.078 46.6178 15.3299 46.5083 15.7485C46.0444 17.5138 45.8885 19.3299 46.0425 21.1441C46.0778 21.5519 46.4266 21.86 46.8386 21.86Z" fill="#C48C71"/>
<path d="M36.7288 20.9754C37.1482 20.9754 37.5008 20.6565 37.5268 20.2414L37.7662 16.3303C37.7921 15.8989 37.4563 15.5292 37.0146 15.5038C36.5692 15.4766 36.1944 15.8065 36.1684 16.236L35.929 20.149C35.903 20.5785 36.2389 20.9483 36.6806 20.9736C36.6973 20.9754 36.7121 20.9754 36.7288 20.9754Z" fill="#C48C71"/>
<path d="M40.7334 26.5812C41.1528 26.5812 41.5035 26.2623 41.5314 25.8472L41.7689 22.1119C41.7967 21.6805 41.4627 21.3108 41.021 21.2836C40.5794 21.26 40.2008 21.5844 40.1729 22.014L39.9354 25.7512C39.9076 26.1807 40.2416 26.5522 40.6833 26.5794C40.7 26.5794 40.7167 26.5812 40.7334 26.5812Z" fill="#C48C71"/>
<path d="M17.9033 46.2749C17.9033 46.4126 17.9181 46.5486 17.9459 46.6845C17.9738 46.8186 18.0146 46.9509 18.0684 47.0778C18.1222 47.2046 18.1872 47.3261 18.267 47.4403C18.3449 47.5544 18.434 47.6614 18.5342 47.7592C18.6326 47.8553 18.7421 47.9423 18.859 48.0202C18.9759 48.0963 19.1002 48.1616 19.2301 48.2142C19.3619 48.2667 19.4955 48.3066 19.6328 48.3338C19.772 48.3591 19.9112 48.3736 20.0522 48.3736C20.1933 48.3736 20.3343 48.3591 20.4716 48.3338C20.6108 48.3066 20.7444 48.2667 20.8762 48.2142C21.0061 48.1616 21.1286 48.0963 21.2473 48.0202C21.3642 47.9423 21.4719 47.8553 21.5721 47.7592C21.6723 47.6614 21.7614 47.5544 21.8393 47.4403C21.9172 47.3261 21.984 47.2046 22.0379 47.0778C22.0917 46.9509 22.1325 46.8186 22.1603 46.6845C22.1882 46.5486 22.2012 46.4126 22.2012 46.2749C22.2012 46.1371 22.1882 46.0012 22.1603 45.8653C22.1325 45.7293 22.0917 45.5989 22.0379 45.472C21.984 45.3433 21.9172 45.2237 21.8393 45.1095C21.7614 44.9935 21.6723 44.8884 21.5721 44.7905C21.4719 44.6927 21.3642 44.6057 21.2473 44.5295C21.1286 44.4534 21.0061 44.3882 20.8762 44.3356C20.7444 44.283 20.6108 44.2432 20.4716 44.216C20.3343 44.1888 20.1933 44.1761 20.0522 44.1761C19.9112 44.1761 19.772 44.1888 19.6328 44.216C19.4955 44.2432 19.3619 44.283 19.2301 44.3356C19.1002 44.3882 18.9759 44.4534 18.859 44.5295C18.7421 44.6057 18.6326 44.6927 18.5342 44.7905C18.434 44.8884 18.3449 44.9935 18.267 45.1095C18.1872 45.2237 18.1222 45.3433 18.0684 45.472C18.0146 45.5989 17.9738 45.7293 17.9459 45.8653C17.9181 46.0012 17.9033 46.1371 17.9033 46.2749Z" fill="#DD917A"/>
<path d="M58.8583 46.4161C58.8583 46.5538 58.8713 46.6898 58.8992 46.8257C58.927 46.9598 58.9678 47.0921 59.0217 47.219C59.0755 47.3459 59.1423 47.4673 59.2202 47.5815C59.2982 47.6956 59.3872 47.8026 59.4874 47.9004C59.5877 47.9965 59.6953 48.0835 59.8141 48.1614C59.931 48.2376 60.0553 48.3028 60.1852 48.3554C60.3151 48.4079 60.4506 48.4478 60.5879 48.475C60.7271 48.5004 60.8663 48.5149 61.0073 48.5149C61.1483 48.5149 61.2875 48.5004 61.4267 48.475C61.564 48.4478 61.6995 48.4079 61.8294 48.3554C61.9593 48.3028 62.0836 48.2376 62.2005 48.1614C62.3175 48.0835 62.4269 47.9965 62.5272 47.9004C62.6255 47.8026 62.7146 47.6956 62.7944 47.5815C62.8723 47.4673 62.9391 47.3459 62.9929 47.219C63.0468 47.0921 63.0876 46.9598 63.1154 46.8257C63.1414 46.6898 63.1562 46.5538 63.1562 46.4161C63.1562 46.2783 63.1414 46.1406 63.1154 46.0065C63.0876 45.8706 63.0468 45.7401 62.9929 45.6132C62.9391 45.4845 62.8723 45.3649 62.7944 45.2489C62.7146 45.1347 62.6255 45.0296 62.5272 44.9317C62.4269 44.8339 62.3175 44.7469 62.2005 44.6707C62.0836 44.5946 61.9593 44.5294 61.8294 44.4768C61.6995 44.4243 61.564 44.3844 61.4267 44.3572C61.2875 44.33 61.1483 44.3173 61.0073 44.3173C60.8663 44.3173 60.7271 44.33 60.5879 44.3572C60.4506 44.3844 60.3151 44.4243 60.1852 44.4768C60.0553 44.5294 59.931 44.5946 59.8141 44.6707C59.6953 44.7469 59.5877 44.8339 59.4874 44.9317C59.3872 45.0296 59.2982 45.1347 59.2202 45.2489C59.1423 45.3649 59.0755 45.4845 59.0217 45.6132C58.9678 45.7401 58.927 45.8706 58.8992 46.0065C58.8713 46.1406 58.8583 46.2783 58.8583 46.4161Z" fill="#DD917A"/>
<path d="M56.2955 40.7831C57.1751 41.2634 58.1049 41.7927 58.554 42.6735C58.7098 42.9816 58.7971 43.3531 58.6467 43.6631C58.4909 43.9893 58.1067 44.1615 57.7393 44.1742C57.3718 44.1868 57.0155 44.0672 56.6704 43.9422C55.9169 43.6721 55.1709 43.3749 54.4657 42.9997C54.0593 42.7822 53.6585 42.5303 53.3857 42.1642C53.1129 41.7981 52.9923 41.2942 53.1871 40.8846C53.4024 40.4352 53.9406 40.2032 54.449 40.2014C54.9575 40.1977 55.4697 40.33 56.2955 40.7831Z" fill="#703627"/>
<path d="M25.1324 40.7831C24.2547 41.2634 23.3249 41.7927 22.8758 42.6735C22.72 42.9816 22.6327 43.3531 22.7812 43.6631C22.9389 43.9893 23.3231 44.1615 23.6905 44.1742C24.058 44.1868 24.4143 44.0672 24.7594 43.9422C25.5129 43.6721 26.2589 43.3749 26.9622 42.9997C27.3686 42.7822 27.7713 42.5303 28.0441 42.1642C28.3169 41.7981 28.4375 41.2942 28.2408 40.8846C28.0274 40.4352 27.4874 40.2032 26.9808 40.2014C26.4723 40.1977 25.9582 40.33 25.1324 40.7831Z" fill="#703627"/>
<path d="M78.4779 46.1589C78.6226 46.1589 78.7692 46.1208 78.901 46.0393C79.2758 45.8109 79.389 45.3288 79.1534 44.9627C77.5778 42.5069 75.3918 40.4299 72.8327 38.9582C72.4523 38.7389 71.9624 38.8621 71.7378 39.2337C71.5133 39.6052 71.6413 40.0855 72.0217 40.303C74.36 41.6496 76.3586 43.5472 77.7987 45.7928C77.9508 46.0284 78.2106 46.1589 78.4779 46.1589Z" fill="#C58D72"/>
<path d="M82.793 59.9149C83.1809 59.9149 83.5205 59.6394 83.5817 59.2552C84.0865 56.1324 83.6912 52.9426 82.4367 50.03C82.266 49.6313 81.7965 49.4446 81.3901 49.6114C80.9818 49.7799 80.7907 50.2366 80.9614 50.6354C82.0841 53.2416 82.4553 56.2176 82.0025 59.0123C81.9338 59.4382 82.2326 59.8369 82.6687 59.904C82.7095 59.9113 82.7522 59.9149 82.793 59.9149Z" fill="#C58D72"/>
<path d="M78.2944 55.219C78.3316 55.219 78.3705 55.2172 78.4076 55.2117C78.8456 55.1501 79.1481 54.7532 79.0869 54.3273C78.7064 51.75 77.6709 49.2797 76.0917 47.1846C75.83 46.8366 75.329 46.7623 74.9727 47.0178C74.6182 47.2734 74.5421 47.7627 74.8038 48.1089C76.2271 49.9992 77.1606 52.2267 77.5039 54.5502C77.5596 54.938 77.9029 55.219 78.2944 55.219Z" fill="#C58D72"/>
<path d="M80.453 70.833C80.7017 70.833 80.9485 70.7206 81.1044 70.5067C82.3515 68.8013 83.2923 66.92 83.9029 64.9118C84.0272 64.4968 83.786 64.0618 83.3628 63.9404C82.9397 63.819 82.4944 64.0528 82.37 64.466C81.8096 66.3092 80.9467 68.0346 79.8017 69.5987C79.5456 69.9503 79.6291 70.4379 79.9891 70.688C80.1283 70.7859 80.2916 70.833 80.453 70.833Z" fill="#C58D72"/>
<path d="M50.2667 44.9554C52.1354 46.5575 54.6017 47.3894 57.0791 47.6124C59.5565 47.8353 62.0506 47.5072 64.5002 47.0868C66.3189 46.7732 68.234 46.3564 69.5683 45.1094C70.8357 43.9241 71.3683 42.186 71.7191 40.5059C72.3797 37.3324 72.5709 34.0646 72.2832 30.8367C72.1775 29.6478 71.9678 28.3791 71.1271 27.5128C70.0304 26.3837 68.2451 26.3003 66.651 26.2949C63.3738 26.2822 60.0984 26.2713 56.9641 26.4235C54.6815 26.3094 52.3896 26.3547 50.1145 26.5577C49.5504 26.6084 48.9565 26.6809 48.5019 27.0108C47.5369 27.7122 46.5311 28.9192 46.622 31.0887C46.6535 31.8481 46.9041 42.07 50.2667 44.9554Z" fill="#703627" fill-opacity="0.502"/>
<mask id="mask1_206_2100" style="mask-type:luminance" maskUnits="userSpaceOnUse" x="46" y="26" width="27" height="22">
<g opacity="0.38">
<path d="M46.2535 26.0973H72.8574V47.9042H46.2535V26.0973Z" fill="white"/>
</g>
</mask>
<g mask="url(#mask1_206_2100)">
<mask id="mask2_206_2100" style="mask-type:luminance" maskUnits="userSpaceOnUse" x="62" y="26" width="11" height="11">
<path d="M72.5508 26.208H62.4036V36.7689H72.5508V26.208Z" fill="white"/>
</mask>
<g mask="url(#mask2_206_2100)">
<path d="M66.6479 26.2948C68.242 26.3003 70.0272 26.3836 71.124 27.5146C71.9646 28.3791 72.1743 29.6478 72.2801 30.8367C72.4527 32.7579 72.4323 34.6899 72.2653 36.611L62.5412 26.2948C63.9033 26.2876 65.2747 26.2894 66.6479 26.2948Z" fill="white"/>
</g>
<mask id="mask3_206_2100" style="mask-type:luminance" maskUnits="userSpaceOnUse" x="46" y="26" width="25" height="22">
<path d="M70.4824 26.208H46.5582V47.6995H70.4824V26.208Z" fill="white"/>
</mask>
<g mask="url(#mask3_206_2100)">
<path d="M46.6255 30.7826C46.6403 28.8108 47.583 27.6762 48.4998 27.011C48.9544 26.6812 49.5483 26.6087 50.1124 26.5579C51.1516 26.4655 52.1946 26.4093 53.2375 26.3839L70.3438 44.1872C70.1192 44.5189 69.865 44.8306 69.5662 45.1097C68.2319 46.3566 66.3168 46.7735 64.4982 47.087C63.4274 47.2701 62.3473 47.4332 61.2654 47.5438L46.6255 30.7826Z" fill="white"/>
</g>
<mask id="mask4_206_2100" style="mask-type:luminance" maskUnits="userSpaceOnUse" x="56" y="26" width="16" height="17">
<path d="M71.9053 26.2079H56.703V42.3365H71.9053V26.2079Z" fill="white"/>
</mask>
<g mask="url(#mask4_206_2100)">
<path d="M59.2902 26.3385L71.874 39.5799C71.8184 39.888 71.7794 40.1998 71.7163 40.5061C71.6105 41.0081 71.4862 41.5138 71.334 42.0086L57.0355 26.4201C57.7796 26.3856 58.5312 26.3584 59.2902 26.3385Z" fill="white"/>
</g>
</g>
<path d="M2.08629 21.2671C3.22943 20.2449 4.95527 20.2503 6.50296 20.3174C12.6863 20.582 18.8715 20.8448 25.0567 21.1094C27.9312 21.2327 30.9376 21.3921 33.415 22.8221C34.6101 23.5127 35.5955 24.5131 36.7906 25.2036C39.268 26.6336 41.7547 26.6989 44.0707 25.2036C45.2305 24.4551 46.2512 23.5127 47.4481 22.8221C49.9237 21.3921 52.93 21.2327 55.8045 21.1094C61.9897 20.8448 68.1749 20.582 74.3601 20.3174C75.9078 20.2503 77.6337 20.2449 78.7749 21.2671C80.0591 22.418 80.0573 24.3591 79.9608 26.0573C79.8754 27.5761 79.7696 29.1656 78.9642 30.4687C78.4892 31.2389 77.7933 31.8624 77.3145 32.6291C76.5091 33.9231 76.381 35.4981 76.2419 37.006C76.0581 39.016 75.8113 41.035 75.1655 42.9507C74.5179 44.8664 73.4397 46.6879 71.8289 47.9493C70.2886 49.1546 68.4013 49.9393 66.4602 50.2946C60.6258 51.3675 51.6644 51.6448 47.6727 47.7463C45.6796 45.7998 44.6237 43.0939 44.1152 40.3862C43.8999 39.228 43.7793 38.0228 43.2244 36.977C42.1314 34.9109 39.1845 34.0427 37.6368 36.977C37.0856 38.0246 36.9632 39.228 36.746 40.3862C36.2394 43.0939 35.1835 45.7998 33.1904 47.7463C29.1987 51.6448 20.2373 51.3675 14.4029 50.2946C12.4618 49.9393 10.5745 49.1546 9.03234 47.9493C7.42155 46.6879 6.34337 44.8664 5.69757 42.9507C5.04991 41.035 4.80495 39.016 4.61938 37.006C4.4802 35.4981 4.35401 33.9231 3.54676 32.6291C3.06798 31.8624 2.37393 31.2389 1.89886 30.4687C1.09347 29.1656 0.985832 27.5761 0.900467 26.0573C0.80397 24.3591 0.80397 22.418 2.08629 21.2671ZM50.267 44.9552C52.1357 46.5574 54.602 47.3893 57.0794 47.6122C59.5569 47.8351 62.051 47.5071 64.5006 47.0866C66.3192 46.7731 68.2343 46.3562 69.5686 45.1093C70.8361 43.924 71.3687 42.1859 71.7194 40.5058C72.3801 37.3323 72.5712 34.0645 72.2836 30.8366C72.1778 29.6477 71.9681 28.379 71.1274 27.5126C70.0307 26.3835 68.2455 26.3001 66.6514 26.2947C63.3741 26.282 60.0987 26.2711 56.9644 26.4234C54.6818 26.3092 52.39 26.3545 50.1148 26.5575C49.5507 26.6082 48.9568 26.6807 48.5022 27.0106C47.5372 27.712 46.5314 28.9191 46.6223 31.0885C46.6539 31.8479 46.9044 42.0699 50.267 44.9552ZM9.14369 40.5058C9.49257 42.1859 10.0252 43.924 11.2926 45.1093C12.6288 46.3562 14.5421 46.7731 16.3607 47.0866C18.8121 47.5071 21.3044 47.8351 23.7818 47.6122C26.2592 47.3893 28.7255 46.5574 30.5961 44.9552C33.9587 42.0699 34.2074 31.8479 34.2389 31.0885C34.3299 28.9191 33.324 27.712 32.3609 27.0106C31.9063 26.6807 31.3124 26.6082 30.7483 26.5575C28.4713 26.3545 26.1813 26.3092 23.8987 26.4234C20.7625 26.2711 17.4871 26.282 14.2117 26.2947C12.6158 26.3001 10.8306 26.3835 9.73382 27.5126C8.89317 28.379 8.68346 29.6477 8.57768 30.8366C8.29005 34.0645 8.48119 37.3323 9.14369 40.5058Z" fill="#FECA53"/>
<path d="M30.5966 44.9554C28.726 46.5575 26.2597 47.3894 23.7823 47.6124C21.3048 47.8353 18.8126 47.5072 16.3611 47.0868C14.5425 46.7732 12.6292 46.3564 11.2931 45.1094C10.0256 43.9241 9.49302 42.186 9.14414 40.5059C8.48164 37.3324 8.2905 34.0646 8.57814 30.8367C8.68391 29.6478 8.89361 28.3791 9.73427 27.5128C10.831 26.3837 12.6162 26.3003 14.2122 26.2949C17.4876 26.2822 20.763 26.2713 23.8992 26.4235C26.1817 26.3094 28.4717 26.3547 30.7487 26.5577C31.3129 26.6084 31.9067 26.6809 32.3595 27.0108C33.3245 27.7122 34.3303 28.9192 34.2394 31.0887C34.2078 31.8481 33.9592 42.07 30.5966 44.9554Z" fill="#703627" fill-opacity="0.502"/>
<mask id="mask5_206_2100" style="mask-type:luminance" maskUnits="userSpaceOnUse" x="8" y="26" width="27" height="22">
<path d="M8.24806 26.0974H34.377V47.9043H8.24806V26.0974Z" fill="white"/>
</mask>
<g mask="url(#mask5_206_2100)">
<g opacity="0.35">
<mask id="mask6_206_2100" style="mask-type:luminance" maskUnits="userSpaceOnUse" x="24" y="26" width="11" height="11">
<path d="M34.3613 26.2081H24.8785V36.305H34.3613V26.2081Z" fill="white"/>
</mask>
<g mask="url(#mask6_206_2100)">
<path d="M30.7497 26.5577C31.3138 26.6084 31.9077 26.6809 32.3605 27.0108C33.3255 27.7122 34.3313 28.9192 34.2404 31.0887C34.2274 31.4095 34.1735 33.4303 33.8618 35.868L25.214 26.3801C27.0605 26.3384 28.9107 26.3946 30.7497 26.5577Z" fill="white"/>
</g>
<mask id="mask7_206_2100" style="mask-type:luminance" maskUnits="userSpaceOnUse" x="8" y="26" width="25" height="22">
<path d="M32.0029 26.2079H8.47765V47.8118H32.0029V26.2079Z" fill="white"/>
</mask>
<g mask="url(#mask7_206_2100)">
<path d="M22.5252 47.6758L8.56258 31.1412C8.57186 31.0397 8.57001 30.9382 8.57929 30.8367C8.68506 29.6478 8.89476 28.3791 9.73541 27.5128C10.8322 26.3837 12.6174 26.3003 14.2133 26.2949C14.6049 26.293 14.9983 26.293 15.3899 26.2912L31.6035 43.7429C31.3029 44.2214 30.9707 44.6346 30.5977 44.9554C28.7271 46.5575 26.2608 47.3894 23.7834 47.6124C23.3659 47.6504 22.9446 47.6667 22.5252 47.6758Z" fill="white"/>
</g>
<mask id="mask8_206_2100" style="mask-type:luminance" maskUnits="userSpaceOnUse" x="19" y="26" width="15" height="16">
<path d="M33.4287 26.208H19.1766V41.4087H33.4287V26.208Z" fill="white"/>
</mask>
<g mask="url(#mask8_206_2100)">
<path d="M33.3428 38.9458C33.1609 39.7922 32.9382 40.6241 32.6728 41.4034L19.2781 26.3006C20.1132 26.3097 20.9427 26.3242 21.7648 26.3459L33.3428 38.9458Z" fill="white"/>
</g>
</g>
</g>
<mask id="mask9_206_2100" style="mask-type:luminance" maskUnits="userSpaceOnUse" x="0" y="19" width="81" height="34">
<path d="M80.9365 19.1378H6.86646e-05V52.0801H80.9365V19.1378Z" fill="white"/>
</mask>
<g mask="url(#mask9_206_2100)">
<path d="M21.8521 51.7774C26.5842 51.7774 31.1457 50.8494 33.7548 48.2994C35.6403 46.458 36.9115 43.8427 37.5331 40.526C37.574 40.3103 37.6111 40.0946 37.6482 39.8771C37.8059 38.9528 37.9544 38.0828 38.3478 37.3343C38.8526 36.3756 39.5373 35.8699 40.326 35.8681H40.3279C41.1704 35.8681 42.05 36.4589 42.5158 37.3361C42.9092 38.0792 43.0577 38.9492 43.2136 39.8699C43.2525 40.0892 43.2897 40.3085 43.3305 40.526C43.9503 43.8427 45.2215 46.458 47.1069 48.2994C51.1395 52.2377 59.8243 52.3084 66.6071 51.0633C68.7635 50.6682 70.7417 49.8019 72.3302 48.5585C73.9169 47.317 75.1602 45.4611 75.9248 43.1956C76.6244 41.1277 76.8657 38.9528 77.0382 37.077L77.0494 36.9664C77.1756 35.5781 77.3073 34.1427 77.9977 33.0371C78.2074 32.7018 78.4727 32.3865 78.7529 32.053C79.061 31.6869 79.3802 31.3081 79.6493 30.8731C80.5753 29.3724 80.6774 27.5582 80.7609 26.101C80.8666 24.2053 80.8536 22.0684 79.3152 20.6928C77.9698 19.4858 76.1122 19.4604 74.3251 19.5365L55.7714 20.3303C53.088 20.4445 49.7495 20.5859 47.042 22.15C46.3257 22.5632 45.6761 23.0544 45.0489 23.531C44.5683 23.8953 44.1118 24.2415 43.6311 24.5514C41.6269 25.8455 39.4631 25.8382 37.1972 24.5315C36.6461 24.2125 36.1376 23.8192 35.5994 23.4005C35.0427 22.9692 34.4656 22.5215 33.8216 22.15C31.1141 20.5859 27.7756 20.4445 25.0922 20.3303L6.53663 19.5365C4.74954 19.4604 2.89194 19.4858 1.54652 20.6928C0.00997162 22.0684 -0.00487518 24.2053 0.10276 26.101C0.18441 27.5582 0.286476 29.3724 1.21435 30.8731C1.48343 31.3081 1.80262 31.6869 2.11067 32.053C2.39089 32.3865 2.65627 32.7018 2.86411 33.0353C3.55444 34.1427 3.6862 35.5781 3.81425 36.9664L3.82352 37.077C3.99611 38.9528 4.23921 41.1277 4.93697 43.1956C5.7034 45.4611 6.94675 47.317 8.53341 48.5585C10.1219 49.8019 12.1002 50.6682 14.2547 51.0633C16.6467 51.5019 19.2745 51.7774 21.8521 51.7774ZM40.3279 34.3076C40.326 34.3076 40.326 34.3076 40.3242 34.3076C39.5095 34.3076 37.9859 34.6103 36.9263 36.6202C36.4178 37.5844 36.2415 38.6193 36.0708 39.6198C36.0337 39.8282 35.9984 40.0384 35.9595 40.245C35.399 43.2446 34.2763 45.5826 32.6247 47.1956C29.0283 50.7081 20.6403 50.6464 14.5497 49.5282C12.6513 49.1802 10.918 48.4226 9.53365 47.3406C8.18824 46.2876 7.1249 44.6854 6.45683 42.7063C5.81103 40.796 5.58092 38.7262 5.41576 36.9374L5.40648 36.8268C5.26173 35.2609 5.11327 33.6406 4.22993 32.2233C3.96271 31.7956 3.64909 31.4223 3.34474 31.0616C3.06081 30.7227 2.79173 30.4037 2.58203 30.0648C1.86201 28.8976 1.77479 27.3661 1.6987 26.014C1.61148 24.4771 1.60591 22.759 2.62843 21.8437C3.5229 21.0408 5.01492 21.0354 6.46796 21.097L25.0217 21.889C27.6569 22.0032 30.6446 22.1301 33.007 23.4948C33.5581 23.812 34.0666 24.2071 34.6048 24.6239C35.1615 25.0553 35.7386 25.5029 36.3844 25.8763C39.181 27.4893 41.9906 27.4821 44.5126 25.8545C45.0452 25.512 45.5462 25.1314 46.0306 24.7635C46.6448 24.2977 47.2257 23.8573 47.8548 23.4948C50.219 22.1301 53.2049 22.0032 55.8401 21.889L74.3957 21.097C75.8468 21.0354 77.3407 21.0408 78.2352 21.8437C79.2577 22.759 79.2503 24.4771 79.1631 26.014C79.087 27.3661 78.9998 28.8976 78.2797 30.0648C78.07 30.4037 77.8009 30.7227 77.517 31.0616C77.2127 31.4223 76.8991 31.7956 76.6318 32.2233C75.7485 33.6406 75.6 35.2609 75.4571 36.8268L75.446 36.9374C75.2808 38.7262 75.0526 40.796 74.4068 42.7063C73.7387 44.6854 72.6735 46.2876 71.33 47.3406C69.9456 48.4226 68.2105 49.1802 66.312 49.5282C60.2215 50.6464 51.8335 50.7062 48.2371 47.1956C46.5855 45.5826 45.4646 43.2446 44.9023 40.245C44.8633 40.0366 44.8281 39.8246 44.791 39.6125C44.6202 38.6139 44.4439 37.5808 43.9355 36.6184C43.1913 35.2138 41.7754 34.3076 40.3279 34.3076ZM58.7387 48.4661C60.7615 48.4661 62.7546 48.1798 64.64 47.8553C66.505 47.5345 68.6224 47.0742 70.1219 45.6732C71.5842 44.3085 72.1465 42.3746 72.5028 40.6619C73.1801 37.4068 73.375 34.0792 73.0818 30.7698C72.9593 29.4087 72.7106 28.0077 71.7085 26.9764C70.4114 25.6389 68.4183 25.5211 66.6535 25.5138C63.4393 25.5011 60.1157 25.4884 56.9646 25.6425C54.6617 25.5283 52.3346 25.5754 50.0409 25.7802C49.3579 25.8419 48.6379 25.9379 48.0255 26.3838C46.4797 27.5075 45.7392 29.1006 45.8246 31.1196L45.8283 31.232C45.9508 34.6302 46.578 42.8295 49.7384 45.5427C52.1026 47.569 54.9957 48.2106 57.0073 48.39C57.5845 48.4426 58.1635 48.4661 58.7387 48.4661ZM63.9794 27.0689C64.872 27.0689 65.7646 27.0725 66.6479 27.0761C68.1474 27.0815 69.6839 27.1613 70.5487 28.0512C71.2112 28.7345 71.3931 29.8273 71.4877 30.9057C71.7698 34.0647 71.5823 37.2437 70.9347 40.3502C70.6285 41.8255 70.159 43.4766 69.0159 44.5459C67.8393 45.6442 66.0726 46.023 64.3616 46.3166C62.0512 46.7153 59.5775 47.0543 57.1539 46.8349C55.378 46.6755 52.8356 46.119 50.7943 44.3683C48.9256 42.7661 47.6674 37.8345 47.4261 31.1758L47.4224 31.0561C47.3593 29.5627 47.8678 28.4445 48.9794 27.6361C49.2596 27.4331 49.7105 27.3788 50.1875 27.3371C52.4181 27.1359 54.6858 27.0924 56.9238 27.203C56.9498 27.2048 56.9776 27.2048 57.0036 27.203C59.2658 27.0924 61.6281 27.0689 63.9794 27.0689ZM22.123 48.4661C22.7002 48.4661 23.2773 48.4426 23.8563 48.39C25.8661 48.2106 28.7592 47.569 31.1234 45.5427C34.2856 42.8295 34.911 34.6302 35.0353 31.232L35.039 31.1196C35.1244 29.1006 34.3839 27.5075 32.8381 26.3838C32.2257 25.9379 31.5057 25.8419 30.8209 25.7802C28.5272 25.5754 26.1982 25.5301 23.8971 25.6425C20.7461 25.4903 17.4243 25.5011 14.2083 25.5138C12.4435 25.5211 10.4522 25.6389 9.15323 26.9764C8.15298 28.0077 7.90245 29.4087 7.78183 30.7698C7.48677 34.0792 7.68162 37.4068 8.36082 40.6619C8.71712 42.3746 9.27942 44.3085 10.7417 45.6732C12.2412 47.0742 14.3567 47.5345 16.2236 47.8553C18.1072 48.1798 20.1003 48.4661 22.123 48.4661ZM26.3486 27.1432C27.7942 27.1432 29.2417 27.2084 30.6743 27.3371C31.1531 27.3788 31.604 27.4331 31.8824 27.638C32.994 28.4445 33.5043 29.5627 33.4412 31.0561L33.4356 31.1758C33.1963 37.8345 31.9362 42.7661 30.0675 44.3683C28.028 46.119 25.4838 46.6755 23.7097 46.8349C21.2842 47.0524 18.8105 46.7153 16.5001 46.3166C14.791 46.023 13.0225 45.6442 11.8459 44.5441C10.7028 43.4766 10.2351 41.8255 9.92707 40.3502C9.27942 37.2437 9.09384 34.0647 9.37406 30.9039C9.47056 29.8273 9.65057 28.7345 10.3149 28.0512C11.1778 27.1613 12.7144 27.0815 14.2138 27.0761C17.4224 27.0634 20.7368 27.0507 23.8582 27.203C23.8841 27.2048 23.912 27.2048 23.9398 27.203C24.7396 27.1631 25.5432 27.1432 26.3486 27.1432Z" fill="#703627"/>
</g>
<path d="M47.8029 9.56433C48.265 9.68757 48.6955 9.92862 49.0092 10.282C49.7589 11.1302 49.5028 12.031 49.295 12.8937C49.1354 13.5516 49.0036 14.2585 49.3618 14.8819C49.5325 15.181 49.8313 15.4111 50.1783 15.4565C50.8297 15.5435 51.2379 15.0179 51.5664 14.5412C51.9097 14.0464 52.2512 13.5498 52.5945 13.0532C52.8431 12.6944 53.1271 12.3101 53.5539 12.1978C53.9918 12.0836 54.4428 12.292 54.8473 12.4914C55.4133 12.7741 55.9793 13.0568 56.5453 13.3378C56.8386 13.4846 57.1355 13.6314 57.4602 13.6857C57.7831 13.7383 58.1431 13.6857 58.3844 13.4682C58.6479 13.2326 58.7258 12.8484 58.6683 12.504C58.6126 12.1597 58.4419 11.8443 58.2749 11.5362C57.9576 10.9544 57.6402 10.3727 57.3229 9.79088C57.1225 9.41934 56.9146 9.02786 56.9295 8.60738C56.948 8.11259 57.2747 7.67761 57.6532 7.34776C58.0299 7.01609 58.4698 6.75691 58.8261 6.40531C59.0859 6.15157 59.2956 5.85071 59.444 5.53173C59.804 4.76327 59.2343 3.8625 58.3695 3.88425C58.2322 3.88787 58.0968 3.90237 57.965 3.92594C57.3489 4.04012 56.781 4.32285 56.1816 4.50047C55.5822 4.67808 54.8974 4.73971 54.3574 4.42797C53.9826 4.21048 53.7283 3.84438 53.4889 3.48915C53.064 2.86387 52.6409 2.23677 52.2159 1.61149C51.9542 1.22364 51.6165 0.794099 51.1414 0.781412C50.8445 0.77235 50.5643 0.942716 50.3806 1.17108C50.1987 1.40125 50.1022 1.68399 50.0317 1.96491C49.8554 2.67175 49.8276 3.41302 49.9537 4.12892C50.0428 4.63277 50.1894 5.20549 49.8721 5.61147C49.6921 5.84165 49.3989 5.95764 49.1205 6.0537C47.9625 6.45424 46.4408 6.19325 45.4647 6.70798C45.3441 6.77141 45.2383 6.85659 45.1622 6.96715C44.9674 7.25351 44.8671 7.63593 45.1474 8.1869C45.4647 8.80855 46.3146 9.16922 47.8029 9.56433Z" fill="#FFCF00"/>
<path d="M50.3275 16.2487C51.3519 16.2487 51.9365 15.4023 52.2297 14.98L53.2578 13.4902C53.3784 13.318 53.6011 12.9954 53.7607 12.9537C53.9258 12.9084 54.2895 13.0915 54.4844 13.1875L56.1824 14.0339C56.4942 14.188 56.8802 14.3801 57.3274 14.4544C57.9379 14.5559 58.5206 14.4073 58.9252 14.0448C59.365 13.6515 59.5654 13.0298 59.4578 12.381C59.3799 11.9043 59.159 11.4965 58.9809 11.1703L58.0307 9.42314C57.886 9.15853 57.7227 8.85586 57.7301 8.63475C57.7375 8.43357 57.9045 8.17621 58.1866 7.92972C58.3351 7.79923 58.4928 7.68324 58.6505 7.56543C58.8974 7.38238 59.1535 7.19389 59.3947 6.95646C59.7139 6.64291 59.983 6.26231 60.1723 5.85633C60.4618 5.2383 60.4061 4.52965 60.0201 3.96055C59.6471 3.40777 59.0198 3.08879 58.3499 3.10329C58.1699 3.10872 57.9918 3.12685 57.8173 3.15947C57.3682 3.24103 56.9674 3.39146 56.5795 3.53464C56.3717 3.61257 56.162 3.69051 55.9504 3.75394C55.6572 3.84094 55.1116 3.95693 54.7665 3.75575C54.5401 3.62707 54.3452 3.33709 54.1559 3.05798L52.8847 1.18214C52.6509 0.835967 52.1016 0.025822 51.1626 0.000448067C50.643 -0.0122389 50.1067 0.245123 49.7504 0.692787C49.4609 1.05527 49.3347 1.46487 49.2549 1.78023C49.0545 2.58494 49.0229 3.44221 49.1658 4.26141L49.1937 4.41184C49.2345 4.63296 49.3106 5.04437 49.2364 5.13862C49.2029 5.18212 49.073 5.24193 48.8541 5.31805C48.4254 5.46666 47.8928 5.50472 47.3305 5.54641C46.5604 5.60441 45.7661 5.6624 45.0869 6.01945C44.8419 6.14813 44.6434 6.32212 44.4986 6.53417C44.2147 6.94921 43.9735 7.63249 44.4318 8.53507C44.8958 9.44671 45.9443 9.87987 47.594 10.3185C47.9225 10.4055 48.212 10.5758 48.405 10.7933C48.8392 11.2845 48.7446 11.7811 48.5404 12.6184L48.5182 12.7145C48.3289 13.4938 48.1693 14.4 48.6648 15.2645C48.9673 15.7919 49.4943 16.1544 50.0714 16.2305C50.1587 16.2432 50.2459 16.2487 50.3275 16.2487ZM53.8145 11.386C53.6642 11.386 53.5083 11.4023 53.3487 11.444C52.6101 11.6379 52.1851 12.2505 51.9327 12.6166L50.9047 14.1046C50.604 14.5396 50.4277 14.7009 50.2867 14.6827C50.2069 14.6737 50.116 14.5994 50.0603 14.4997C49.8654 14.1608 49.9174 13.7204 50.0733 13.0733L50.0974 12.9791C50.3108 12.0983 50.604 10.8912 49.6149 9.77294C49.2085 9.3144 48.6555 8.98273 48.0153 8.81236C47.1227 8.57494 46.0723 8.24871 45.8645 7.8391C45.7216 7.55818 45.781 7.47118 45.8292 7.40231C46.2245 7.1957 46.8202 7.15039 47.4511 7.10508C48.0932 7.05796 48.7576 7.00902 49.3885 6.78972C49.6595 6.69547 50.1661 6.52148 50.5075 6.08651C51.0086 5.44491 50.8694 4.68733 50.7673 4.13636L50.7432 3.9968C50.6356 3.38783 50.6579 2.74987 50.8082 2.14996C50.8471 1.99953 50.9084 1.78204 51.0142 1.65155C51.0605 1.59174 51.1125 1.56455 51.1292 1.56093C51.1478 1.56818 51.2665 1.62436 51.5505 2.04303L52.8217 3.91887C53.0833 4.30672 53.4099 4.78701 53.9518 5.10056C54.6069 5.47935 55.4587 5.53191 56.4144 5.24736C56.6612 5.17487 56.9043 5.08425 57.1474 4.99544C57.4851 4.86857 57.8043 4.75076 58.1124 4.69458C58.2033 4.67827 58.2961 4.66739 58.3907 4.66558C58.5485 4.64927 58.645 4.76164 58.6858 4.82145C58.7155 4.86494 58.8046 5.02081 58.7192 5.20749C58.606 5.44673 58.4483 5.67147 58.2608 5.85452C58.0975 6.01582 57.8953 6.16444 57.6837 6.32212C57.4907 6.4653 57.2996 6.60848 57.1196 6.76616C56.496 7.31169 56.1546 7.93878 56.1323 8.58038C56.1082 9.22015 56.4032 9.76206 56.6185 10.1572L57.5686 11.9043C57.7041 12.1526 57.8433 12.4082 57.8804 12.6275C57.9027 12.7707 57.8656 12.8758 57.8452 12.8921C57.8303 12.9066 57.7394 12.9392 57.5946 12.9157C57.3886 12.8812 57.1567 12.7652 56.9099 12.642L55.21 11.7974C54.8852 11.6343 54.3842 11.386 53.8145 11.386Z" fill="#703627"/>
</svg>
