<svg width="345" height="345" viewBox="0 0 345 345" fill="none" xmlns="http://www.w3.org/2000/svg">
<mask id="mask0_561_6048" style="mask-type:luminance" maskUnits="userSpaceOnUse" x="85" y="61" width="213" height="212">
<path d="M85.9475 61H297.247V272.299H85.9475V61Z" fill="white"/>
</mask>
<g mask="url(#mask0_561_6048)">
<path d="M297.247 166.65C297.247 170.114 297.084 173.559 296.737 177.003C296.391 180.447 295.881 183.871 295.209 187.254C294.536 190.657 293.701 194 292.702 197.322C291.683 200.623 290.522 203.884 289.197 207.084C287.872 210.283 286.405 213.401 284.774 216.458C283.144 219.495 281.371 222.47 279.435 225.344C277.519 228.218 275.461 230.989 273.26 233.679C271.079 236.349 268.756 238.897 266.31 241.363C263.865 243.808 261.297 246.111 258.627 248.312C255.937 250.513 253.165 252.572 250.292 254.487C247.418 256.423 244.442 258.196 241.406 259.827C238.349 261.457 235.231 262.925 232.031 264.249C228.831 265.574 225.571 266.736 222.269 267.755C218.947 268.753 215.605 269.589 212.201 270.261C208.818 270.934 205.394 271.443 201.95 271.79C198.506 272.136 195.062 272.299 191.597 272.299C188.133 272.299 184.688 272.136 181.244 271.79C177.8 271.443 174.376 270.934 170.993 270.261C167.59 269.589 164.247 268.753 160.925 267.755C157.624 266.736 154.363 265.574 151.163 264.249C147.964 262.925 144.846 261.457 141.789 259.827C138.732 258.196 135.777 256.423 132.903 254.487C130.029 252.572 127.237 250.513 124.568 248.312C121.898 246.111 119.33 243.808 116.884 241.363C114.439 238.897 112.115 236.349 109.935 233.679C107.734 230.989 105.675 228.218 103.76 225.344C101.823 222.47 100.05 219.495 98.42 216.458C96.7896 213.401 95.3223 210.283 93.9976 207.084C92.6729 203.884 91.4909 200.623 90.4922 197.322C89.4936 194 88.658 190.657 87.9855 187.254C87.2926 183.871 86.8035 180.447 86.457 177.003C86.1106 173.559 85.9475 170.114 85.9475 166.65C85.9475 163.185 86.1106 159.741 86.457 156.297C86.8035 152.852 87.2926 149.429 87.9855 146.046C88.658 142.642 89.4936 139.3 90.4922 135.978C91.4909 132.676 92.6729 129.416 93.9976 126.216C95.3223 123.016 96.7896 119.898 98.42 116.841C100.05 113.784 101.823 110.829 103.76 107.955C105.675 105.082 107.734 102.29 109.935 99.62C112.115 96.9503 114.439 94.3824 116.884 91.9368C119.33 89.4912 121.898 87.1679 124.568 84.9872C127.237 82.7862 130.029 80.7278 132.903 78.8121C135.777 76.876 138.732 75.1029 141.789 73.4725C144.846 71.8421 147.964 70.3544 151.163 69.0501C154.363 67.7254 157.624 66.5434 160.925 65.5447C164.247 64.5461 167.59 63.7105 170.993 63.038C174.376 62.3451 177.8 61.8356 181.244 61.5095C184.688 61.163 188.133 61 191.597 61C195.062 61 198.506 61.163 201.95 61.5095C205.394 61.8356 208.818 62.3451 212.201 63.038C215.605 63.7105 218.947 64.5461 222.269 65.5447C225.571 66.5434 228.831 67.7254 232.031 69.0501C235.231 70.3544 238.349 71.8421 241.406 73.4725C244.442 75.1029 247.418 76.876 250.292 78.8121C253.165 80.7278 255.937 82.7862 258.627 84.9872C261.297 87.1679 263.865 89.4912 266.31 91.9368C268.756 94.3824 271.079 96.9503 273.26 99.62C275.461 102.29 277.519 105.082 279.435 107.955C281.371 110.829 283.144 113.784 284.774 116.841C286.405 119.898 287.872 123.016 289.197 126.216C290.522 129.416 291.683 132.676 292.702 135.978C293.701 139.3 294.536 142.642 295.209 146.046C295.881 149.429 296.391 152.852 296.737 156.297C297.084 159.741 297.247 163.185 297.247 166.65Z" fill="#45A834"/>
</g>
<path d="M249.737 146.505C255.421 140.799 255.421 131.562 249.737 125.876C244.054 120.169 234.853 120.169 229.19 125.876L178.916 176.372L153.81 151.185C148.126 145.479 138.926 145.479 133.263 151.185C127.579 156.871 127.579 166.108 133.263 171.815L168.632 207.326C171.372 210.056 175.052 211.596 178.916 211.596C182.76 211.596 186.46 210.056 189.18 207.326L249.737 146.505Z" fill="#F2F2F2"/>
<mask id="mask1_561_6048" style="mask-type:luminance" maskUnits="userSpaceOnUse" x="48" y="221" width="108" height="64">
<path d="M48 221.717H155.647V284.935H48V221.717Z" fill="white"/>
</mask>
<g mask="url(#mask1_561_6048)">
<path d="M146.598 259.786C147.332 260.072 148.025 260.479 148.616 260.989C149.635 261.885 150.348 263.067 151.021 264.25C152.04 266.043 152.977 267.898 153.813 269.793C154.404 271.077 154.954 272.442 154.913 273.869C154.852 275.479 154.017 277.028 152.692 277.924C151.449 278.76 149.879 278.984 148.392 278.842C146.904 278.699 145.477 278.23 144.051 277.761C143.745 279.636 142.767 281.491 141.381 282.938C140.647 283.712 139.73 284.405 138.691 284.466C137.713 284.548 136.775 284.079 135.878 283.672C131.66 281.756 127.074 280.92 122.53 280.064C114.276 282.897 105.247 283.712 96.6062 282.163C92.8359 281.491 89.1471 280.37 85.3565 279.718C80.2003 278.801 74.9015 278.78 69.7454 279.616C66.8311 280.085 63.9167 280.818 60.9616 280.594C58.0269 280.35 54.9496 278.903 53.7675 276.151C52.7485 273.808 53.2784 271.118 53.849 268.611C50.8532 267.388 49.7934 263.353 50.9143 260.296C52.0352 257.239 54.7661 255.058 57.6193 253.57C60.4725 252.083 63.5907 251.084 66.3623 249.454C72.1299 236.879 84.4394 227.688 98.2977 226.424C115.05 234.311 126.198 252.185 146.598 259.786Z" fill="#DDA783"/>
</g>
<path d="M68 280.412C66.4613 273.329 63.0145 266.759 58.1931 261.596C55.1362 263.537 53.064 267.164 53.0025 270.919C52.9204 274.673 54.8695 278.428 57.988 280.284C61.086 282.118 65.2098 281.905 68 280.412Z" fill="#B27966"/>
<path d="M141.534 269.596C138.808 270.568 136.204 271.964 134.109 273.968C132.014 275.972 130.448 278.604 130 281.478C132.238 282.814 134.78 283.846 137.344 283.543C140.273 283.178 142.836 280.911 143.69 278.077C144.524 275.223 143.629 271.944 141.534 269.596Z" fill="#B27966"/>
<path d="M153.121 266.596C150.588 267.521 148.173 268.908 146.209 270.797C145.542 271.44 144.913 272.144 144.481 272.988C144.069 273.832 143.873 274.817 144.089 275.722C144.305 276.646 144.933 277.43 145.719 277.913C146.504 278.395 147.427 278.596 148.33 278.596C151.02 278.596 153.632 276.747 154.574 274.134C155.536 271.521 154.79 268.325 153.121 266.596Z" fill="#B27966"/>
<mask id="mask2_561_6048" style="mask-type:luminance" maskUnits="userSpaceOnUse" x="48" y="253" width="14" height="16">
<path d="M48 253.02H61.7361V268.672H48V253.02Z" fill="white"/>
</mask>
<g mask="url(#mask2_561_6048)">
<path d="M55.9074 254.569C57.6804 256.24 58.7606 258.645 58.8625 261.111C57.4359 263.251 56.0093 265.411 54.5827 267.551C54.4197 267.816 54.2159 268.081 53.9305 268.163C53.6248 268.244 53.2988 268.081 53.0338 267.898C50.7716 266.369 49.8138 263.231 50.4456 260.54C51.057 257.83 53.0338 255.588 55.9074 254.569Z" fill="#B27966"/>
</g>
<mask id="mask3_561_6048" style="mask-type:luminance" maskUnits="userSpaceOnUse" x="87" y="191" width="87" height="73">
<path d="M87.8224 191.024H173.214V263.455H87.8224V191.024Z" fill="white"/>
</mask>
<g mask="url(#mask3_561_6048)">
<path d="M98.155 237.592C95.1999 232.253 95.098 225.405 97.89 219.964C94.67 219.169 92.2244 215.867 92.3875 212.505C92.5301 209.142 95.261 206.085 98.5218 205.596C101.171 205.188 103.78 206.289 106.185 207.471C107.754 205.249 110.2 203.68 112.849 203.15C112.156 200.114 112.951 196.975 114.968 195.059C116.966 193.123 120.084 192.491 122.672 193.49C125.24 194.509 127.156 197.077 127.665 199.869C134.859 199.95 142.094 201.092 148.758 203.843C155.402 206.594 161.496 210.976 165.755 216.866C170.015 222.756 172.358 230.154 171.543 237.796C170.361 246.376 164.573 254.182 156.747 257.707C149.044 261.172 140.036 260.52 132.067 257.748C124.099 254.976 116.966 250.248 109.914 245.561C106.531 243.299 101.11 242.952 98.155 237.592Z" fill="#DDA783"/>
</g>
<path d="M129.609 227.024C128.568 227.995 127.464 229.058 127.089 230.514C126.964 231.022 126.943 231.623 127.214 232.039C127.505 232.502 128.047 232.663 128.547 232.571C129.026 232.502 129.463 232.224 129.901 231.947C130.818 231.323 131.734 230.676 132.568 229.913C133.047 229.474 133.526 228.965 133.797 228.341C134.067 227.717 134.088 226.908 133.734 226.33C133.338 225.706 132.568 225.498 131.901 225.637C131.234 225.776 130.588 226.122 129.609 227.024Z" fill="#703627"/>
<path d="M103.595 222.596C100.583 222.596 98.0139 221.99 95.95 220.821C92.8961 219.088 90.9586 215.976 91.0007 212.865C91.0428 209.858 93.0014 206.914 95.8447 205.536C98.4351 204.283 101.679 204.283 104.522 205.536C107.028 206.621 109.26 208.689 110.84 211.341C111.156 211.842 110.987 212.51 110.482 212.823C109.955 213.137 109.303 212.969 108.987 212.468C107.639 210.192 105.743 208.459 103.658 207.54C101.384 206.538 98.8142 206.517 96.7924 207.498C94.6653 208.543 93.2121 210.714 93.1699 212.907C93.1489 215.204 94.6442 217.563 97.003 218.921C99.0038 220.048 101.615 220.55 104.753 220.382C105.364 220.341 105.87 220.821 105.891 221.406C105.933 222.011 105.469 222.533 104.88 222.554C104.437 222.575 104.016 222.596 103.595 222.596Z" fill="#703627"/>
<path d="M106.868 215.596C106.494 215.596 106.121 215.417 105.902 215.1C104.168 212.54 100.59 211.17 97.3861 211.825C96.7716 211.944 96.179 211.607 96.0254 211.051C95.8937 210.476 96.2887 209.92 96.8813 209.801C100.986 208.968 105.595 210.734 107.833 214.008C108.162 214.485 107.987 215.12 107.46 215.437C107.285 215.536 107.065 215.596 106.868 215.596Z" fill="#703627"/>
<mask id="mask4_561_6048" style="mask-type:luminance" maskUnits="userSpaceOnUse" x="108" y="191" width="22" height="16">
<path d="M108.692 191.024H129.561V206.065H108.692V191.024Z" fill="white"/>
</mask>
<g mask="url(#mask4_561_6048)">
<path d="M113.583 203.456C113.114 203.456 112.686 203.15 112.564 202.661C111.687 199.359 112.299 196.466 114.296 194.305C116.579 191.839 120.451 191.044 123.487 192.43C126.504 193.796 127.991 196.466 127.686 199.93C127.645 200.521 127.135 200.949 126.544 200.888C125.974 200.847 125.546 200.317 125.607 199.747C125.811 197.179 124.812 195.385 122.631 194.387C120.369 193.347 117.516 193.938 115.824 195.752C114.316 197.383 113.909 199.523 114.602 202.111C114.744 202.681 114.418 203.272 113.848 203.415C113.766 203.456 113.664 203.456 113.583 203.456Z" fill="#703627"/>
</g>
<path d="M97.9701 238.596C97.6309 238.596 97.3116 238.428 97.1121 238.092C93.2812 231.857 92.9619 224.216 96.294 219.072C96.6332 218.569 97.2717 218.443 97.7306 218.799C98.2095 219.135 98.3093 219.828 97.99 220.311C95.1368 224.74 95.456 231.395 98.828 236.896C99.1473 237.399 99.0076 238.092 98.5287 238.428C98.3492 238.533 98.1696 238.596 97.9701 238.596Z" fill="#703627"/>
<path d="M130 238.105C130 238.799 129.697 239.386 129.112 239.866C128.527 240.365 127.812 240.596 126.989 240.596C126.166 240.596 125.451 240.365 124.866 239.866C124.282 239.386 124 238.799 124 238.105C124 237.411 124.282 236.824 124.866 236.343C125.451 235.845 126.166 235.596 126.989 235.596C127.812 235.596 128.527 235.845 129.112 236.343C129.697 236.824 130 237.411 130 238.105Z" fill="#FAC4AF"/>
<mask id="mask5_561_6048" style="mask-type:luminance" maskUnits="userSpaceOnUse" x="139" y="216" width="35" height="38">
<path d="M139.995 216.499H173.214V253.02H139.995V216.499Z" fill="white"/>
</mask>
<g mask="url(#mask5_561_6048)">
<path d="M153.242 219.984C155.504 219.291 157.868 218.741 160.232 218.781C162.597 218.822 165.022 219.495 166.876 220.982C169.037 222.715 169.465 224.325 170.382 226.954C171.38 229.787 171.075 231.437 171.36 234.433C171.523 236.166 170.626 241.505 169.893 243.074C168.69 245.683 168.568 245.805 165.939 246.906C163.412 247.966 160.864 249.025 158.174 249.392C155.484 249.779 152.57 249.392 150.369 247.762C148.86 246.641 147.78 245.01 146.945 243.299C145.192 239.651 144.458 235.595 144.173 231.539C144.051 229.501 144.051 227.361 144.968 225.548C146.333 222.878 149.187 221.227 153.242 219.984Z" fill="#B27966"/>
</g>
<path d="M151.576 227.02C152.236 227.435 152.72 228.049 152.94 228.698C153.028 228.987 153.05 229.311 152.786 229.492C152.522 229.672 152.148 229.582 151.84 229.492C151.158 229.311 150.475 229.113 149.903 228.77C149.353 228.446 148.891 227.922 149.023 227.381C149.133 226.984 149.595 226.678 150.101 226.606C150.607 226.551 151.091 226.732 151.576 227.02Z" fill="#703627"/>
<path d="M160.314 224.73C159.989 225.415 159.902 226.198 160.119 226.922C160.184 227.215 160.379 227.548 160.705 227.587C161.03 227.646 161.312 227.392 161.528 227.176C161.984 226.687 162.461 226.198 162.764 225.63C163.046 225.082 163.133 224.377 162.699 223.947C162.352 223.595 161.789 223.516 161.312 223.673C160.856 223.849 160.553 224.221 160.314 224.73Z" fill="#703627"/>
<path d="M155.937 243.596C154.529 243.596 153.079 242.796 152.14 241.45C151.895 241.099 151.977 240.63 152.344 240.396C152.691 240.162 153.181 240.24 153.426 240.591C154.161 241.625 155.304 242.211 156.284 242.035C157.203 241.879 158.02 241.04 158.367 239.909L158.142 239.05C157.53 236.787 156.938 234.543 156.427 232.553C156.325 232.124 156.57 231.714 156.999 231.617C157.428 231.519 157.856 231.773 157.958 232.183C158.469 234.173 159.061 236.416 159.653 238.66L160 239.909L159.939 240.104C159.49 241.918 158.163 243.264 156.57 243.537C156.366 243.576 156.141 243.596 155.937 243.596Z" fill="#703627"/>
<path d="M162.137 241.596C161.096 241.596 160.036 241.155 159.204 240.309C158.92 240.015 158.939 239.556 159.223 239.28C159.506 239.004 159.961 239.004 160.244 239.299C161.039 240.089 162.099 240.365 162.931 239.997C163.802 239.593 164.445 238.508 164.54 237.258C164.578 236.854 164.918 236.578 165.316 236.597C165.732 236.615 166.035 236.964 165.997 237.369C165.864 239.152 164.899 240.695 163.537 241.302C163.083 241.504 162.61 241.596 162.137 241.596Z" fill="#703627"/>
<mask id="mask6_561_6048" style="mask-type:luminance" maskUnits="userSpaceOnUse" x="103" y="195" width="71" height="69">
<path d="M103.474 195.63H173.214V263.455H103.474V195.63Z" fill="white"/>
</mask>
<g mask="url(#mask6_561_6048)">
<path d="M144.03 261.05C139.506 261.05 134.839 260.153 130.355 258.36C129.805 258.136 129.54 257.524 129.764 256.974C129.968 256.424 130.58 256.159 131.109 256.383C138.12 259.175 145.579 259.705 152.101 257.83C159.173 255.812 165.144 250.901 168.079 244.685C170.973 238.55 171.054 230.806 168.282 223.979C165.735 217.702 160.823 212.077 154.465 208.103C148.82 204.577 142.033 202.274 134.289 201.255C125.709 200.114 113.195 201.785 106.001 208.143C105.573 208.531 104.901 208.49 104.514 208.042C104.147 207.593 104.188 206.921 104.616 206.533C112.36 199.706 125.22 197.913 134.554 199.136C142.604 200.216 149.676 202.621 155.565 206.289C162.311 210.487 167.508 216.479 170.219 223.164C173.214 230.541 173.113 238.938 169.974 245.602C166.774 252.368 160.314 257.708 152.671 259.888C149.92 260.663 147.006 261.05 144.03 261.05Z" fill="#703627"/>
</g>
<path d="M157.945 215.596C157.739 215.596 157.512 215.53 157.327 215.398L152.448 211.684C151.974 211.31 151.851 210.607 152.201 210.079C152.53 209.574 153.189 209.442 153.662 209.793L158.542 213.508C159.036 213.882 159.139 214.585 158.809 215.112C158.604 215.42 158.274 215.596 157.945 215.596Z" fill="#C48C71"/>
<path d="M145.974 208.596C145.874 208.596 145.775 208.576 145.675 208.535L139.72 206.662C139.182 206.48 138.883 205.896 139.043 205.352C139.222 204.788 139.8 204.465 140.337 204.647L146.273 206.541C146.81 206.702 147.129 207.286 146.95 207.85C146.81 208.294 146.412 208.596 145.974 208.596Z" fill="#C48C71"/>
<path d="M148.965 217.596C148.786 217.596 148.626 217.556 148.446 217.457L143.497 214.519C143.018 214.241 142.858 213.606 143.137 213.109C143.437 212.613 144.056 212.454 144.554 212.732L149.484 215.67C149.983 215.968 150.143 216.603 149.863 217.1C149.664 217.417 149.324 217.596 148.965 217.596Z" fill="#C48C71"/>
<path d="M136.961 211.596C136.901 211.596 136.82 211.572 136.76 211.572L130.825 210.116C130.264 209.97 129.903 209.315 130.023 208.611C130.123 207.932 130.685 207.495 131.246 207.616L137.161 209.072C137.723 209.218 138.084 209.873 137.983 210.577C137.883 211.183 137.442 211.596 136.961 211.596Z" fill="#C48C71"/>
<path d="M124.072 205.596C123.506 205.596 123.024 205.241 123.003 204.789C122.961 204.338 123.422 203.935 124.009 203.902L130.846 203.596C131.454 203.596 131.957 203.935 131.999 204.402C132.02 204.854 131.58 205.257 130.972 205.289L124.135 205.596C124.114 205.596 124.093 205.596 124.072 205.596Z" fill="#C48C71"/>
<mask id="mask7_561_6048" style="mask-type:luminance" maskUnits="userSpaceOnUse" x="51" y="221" width="95" height="64">
<path d="M51.3016 221.717H145.212V284.935H51.3016V221.717Z" fill="white"/>
</mask>
<g mask="url(#mask7_561_6048)">
<path d="M137.427 284.915C135.145 284.915 132.883 284.018 130.661 283.142C129.336 282.632 127.971 282.082 126.667 281.776C122.937 280.88 119.167 281.695 115.152 282.571C113.277 282.979 111.341 283.386 109.405 283.631C103.067 284.365 96.7081 283.06 90.5737 281.797C84.3782 280.513 77.9585 279.188 71.7426 280.105C70.6421 280.248 69.5416 280.492 68.4615 280.717C66.6273 281.083 64.7523 281.491 62.8162 281.573C58.9848 281.736 55.7444 280.472 53.8694 278.128C51.1997 274.725 51.9741 269.956 53.4414 266.899C54.5827 264.494 56.2539 262.436 57.8639 260.459C58.4957 259.685 59.1275 258.91 59.7185 258.115C61.8991 255.221 63.7129 251.961 65.486 248.802C67.8297 244.603 70.2549 240.242 73.5972 236.614C78.4884 231.295 85.5806 227.423 95.2407 224.794C95.791 224.631 96.382 224.977 96.5247 225.548C96.6673 226.119 96.3413 226.689 95.791 226.852C86.5181 229.38 79.752 233.048 75.1257 238.082C71.9668 241.526 69.6028 245.765 67.2998 249.861C65.5064 253.081 63.6518 256.403 61.3896 259.42C60.7782 260.214 60.1261 261.009 59.4943 261.804C57.8843 263.781 56.3558 265.656 55.3164 267.816C54.114 270.323 53.4618 274.175 55.5202 276.783C57.5582 279.372 61.247 279.494 62.7347 279.433C64.4874 279.372 66.2197 279.005 68.0335 278.618C69.134 278.393 70.2957 278.149 71.4369 277.986C78.0197 277.028 84.6228 278.393 91.0017 279.698C96.973 280.941 103.148 282.204 109.16 281.511C110.994 281.287 112.89 280.88 114.724 280.492C118.78 279.596 122.978 278.699 127.135 279.698C128.603 280.044 130.029 280.615 131.415 281.165C134.37 282.327 137.142 283.427 139.669 282.347C141.442 281.593 142.237 280.044 142.604 278.862C143.337 276.539 142.971 273.686 141.707 271.627C139.302 267.735 134.656 265.554 130.926 263.822C130.396 263.557 130.172 262.925 130.417 262.395C130.661 261.865 131.293 261.641 131.802 261.886C135.797 263.74 140.749 266.063 143.48 270.506C145.09 273.115 145.538 276.559 144.601 279.494C143.908 281.776 142.441 283.488 140.484 284.304C139.465 284.752 138.446 284.915 137.427 284.915Z" fill="#703627"/>
</g>
<mask id="mask8_561_6048" style="mask-type:luminance" maskUnits="userSpaceOnUse" x="48" y="242" width="25" height="32">
<path d="M48 242.585H72.1706V273.889H48V242.585Z" fill="white"/>
</mask>
<g mask="url(#mask8_561_6048)">
<path d="M53.5637 269.67C53.3803 269.67 53.1765 269.609 52.9931 269.507C48 266.226 48.428 261.457 50.4864 258.095C52.3613 255.058 55.4387 253.244 57.9047 252.001C58.8218 251.532 59.8204 251.084 60.7579 250.676C62.6328 249.841 64.5689 248.985 66.1178 247.864C66.6069 247.517 67.2591 247.64 67.5852 248.129C67.9316 248.597 67.8093 249.27 67.3406 249.596C65.6083 250.86 63.5703 251.756 61.6138 252.612C60.6356 253.061 59.7185 253.448 58.8218 253.896C56.6207 255.017 53.8695 256.648 52.2798 259.215C51.322 260.785 49.5897 264.718 54.1344 267.714C54.6235 268.04 54.7662 268.692 54.4605 269.181C54.2567 269.507 53.9102 269.67 53.5637 269.67Z" fill="#703627"/>
</g>
<path d="M149.336 280.596C147.564 280.596 145.933 279.781 144.463 279.028C144.181 278.882 143.899 278.756 143.618 278.61C143.094 278.359 142.852 277.711 143.094 277.167C143.336 276.603 143.96 276.373 144.483 276.624C144.765 276.77 145.067 276.917 145.349 277.063C147 277.899 148.571 278.694 150.121 278.317C151.974 277.899 153.343 276.498 153.786 274.554C154.189 272.714 154.229 267.676 145.792 260.547C145.329 260.171 145.269 259.481 145.631 259C145.973 258.54 146.638 258.457 147.081 258.833C156.102 266.464 156.424 272.275 155.8 275.056C155.196 277.795 153.182 279.864 150.564 280.471C150.142 280.554 149.739 280.596 149.336 280.596Z" fill="#703627"/>
<path d="M80.0731 239.596C79.7399 239.596 79.4275 239.461 79.2193 239.211C78.8653 238.768 78.9486 238.133 79.4067 237.787C82.4887 235.574 85.9039 233.842 89.5689 232.648C90.1312 232.475 90.7559 232.745 90.9433 233.264C91.1307 233.803 90.8392 234.361 90.277 234.554C86.8409 235.67 83.6132 237.306 80.7186 239.384C80.5312 239.519 80.3021 239.596 80.0731 239.596Z" fill="#C58D72"/>
<path d="M79.0894 253.596C78.8757 253.596 78.662 253.532 78.4697 253.381C77.9783 253.037 77.8501 252.329 78.192 251.834C80.8843 247.903 84.3671 244.423 88.2987 241.781C88.7902 241.437 89.474 241.588 89.8158 242.103C90.1577 242.619 90.0081 243.328 89.4953 243.671C85.8201 246.142 82.5295 249.429 80.0082 253.123C79.7945 253.424 79.4526 253.596 79.0894 253.596Z" fill="#C58D72"/>
<path d="M70.0121 255.596C69.9328 255.596 69.8337 255.576 69.7346 255.555C69.1995 255.393 68.8824 254.806 69.0409 254.238C69.9328 250.976 71.3202 247.896 73.1237 245.08C73.4408 244.573 74.0751 244.452 74.5507 244.776C75.0066 245.1 75.1453 245.748 74.8282 246.255C73.1237 248.889 71.8355 251.766 71.003 254.826C70.8643 255.292 70.4679 255.596 70.0121 255.596Z" fill="#C58D72"/>
</svg>
