<svg width="52" height="64" viewBox="0 0 52 64" fill="none" xmlns="http://www.w3.org/2000/svg">
<g filter="url(#filter0_d_991_744)">
<path d="M13 17.9333C13 15.5067 13 14.2933 13.4723 13.366C13.8878 12.5507 14.5507 11.8878 15.366 11.4723C16.2933 11 17.5067 11 19.9333 11H32.0667C34.4933 11 35.7067 11 36.634 11.4723C37.4493 11.8878 38.1122 12.5507 38.5277 13.366C39 14.2933 39 15.5067 39 17.9333V46.7608C39 47.8138 39 48.3403 38.7812 48.6285C38.6866 48.7538 38.5659 48.8571 38.4275 48.9312C38.2891 49.0053 38.1362 49.0484 37.9795 49.0575C37.6177 49.0792 37.18 48.7867 36.3047 48.2038L26 41.3333L15.6953 48.2017C14.82 48.7867 14.3823 49.0792 14.0183 49.0575C13.862 49.048 13.7095 49.0048 13.5715 48.9307C13.4335 48.8567 13.3132 48.7536 13.2188 48.6285C13 48.3403 13 47.8138 13 46.7608V17.9333Z" fill="#FFF0CB"/>
<path d="M13 17.9333C13 15.5067 13 14.2933 13.4723 13.366C13.8878 12.5507 14.5507 11.8878 15.366 11.4723C16.2933 11 17.5067 11 19.9333 11H32.0667C34.4933 11 35.7067 11 36.634 11.4723C37.4493 11.8878 38.1122 12.5507 38.5277 13.366C39 14.2933 39 15.5067 39 17.9333V46.7608C39 47.8138 39 48.3403 38.7812 48.6285C38.6866 48.7538 38.5659 48.8571 38.4275 48.9312C38.2891 49.0053 38.1362 49.0484 37.9795 49.0575C37.6177 49.0792 37.18 48.7867 36.3047 48.2038L26 41.3333L15.6953 48.2017C14.82 48.7867 14.3823 49.0792 14.0183 49.0575C13.862 49.048 13.7095 49.0048 13.5715 48.9307C13.4335 48.8567 13.3132 48.7536 13.2188 48.6285C13 48.3403 13 47.8138 13 46.7608V17.9333Z" stroke="#EB5436" stroke-linecap="round" stroke-linejoin="round"/>
</g>
<path d="M28.7147 21.9389C29.4527 21.5489 30.0704 20.9653 30.5015 20.2506C30.9326 19.5359 31.1608 18.7172 31.1615 17.8826C31.1615 17.7305 31.1011 17.5846 30.9936 17.4771C30.886 17.3695 30.7401 17.3091 30.588 17.3091H30.0145C29.1946 17.3094 28.3897 17.5294 27.6837 17.9462C26.9776 18.3631 26.3961 18.9615 25.9998 19.6792C25.6034 18.9615 25.0219 18.3631 24.3159 17.9462C23.6098 17.5294 22.805 17.3094 21.9851 17.3091H21.4115C21.2594 17.3091 21.1135 17.3695 21.006 17.4771C20.8984 17.5846 20.838 17.7305 20.838 17.8826C20.838 18.0347 20.8984 18.1806 21.006 18.2882C21.1135 18.3957 21.2594 18.4561 21.4115 18.4561H21.9851C22.8032 18.4573 23.5943 18.7494 24.2169 19.2803C24.8395 19.8111 25.2529 20.5462 25.3832 21.3539C23.8651 21.5025 22.4523 22.1961 21.4062 23.3062C20.3601 24.4164 19.7517 25.868 19.6936 27.3922C19.6354 28.9165 20.1315 30.4102 21.0899 31.5968C22.0484 32.7835 23.4043 33.5827 24.9067 33.8465C26.409 34.1103 27.9561 33.8208 29.2615 33.0317C30.5669 32.2426 31.5422 31.0073 32.0068 29.5544C32.4714 28.1015 32.394 26.5295 31.7887 25.1294C31.1834 23.7292 30.0914 22.5958 28.7147 21.9389ZM29.9664 18.4561C29.8312 19.2494 29.4227 19.9703 28.8118 20.4941C28.2008 21.0178 27.4259 21.3113 26.6213 21.3238C26.7566 20.5305 27.1651 19.8096 27.776 19.2859C28.387 18.7621 29.1618 18.4686 29.9664 18.4561ZM25.9998 32.7944C24.9789 32.7944 23.9809 32.4916 23.132 31.9245C22.2832 31.3573 21.6216 30.5511 21.2309 29.6079C20.8402 28.6647 20.738 27.6269 20.9372 26.6256C21.1364 25.6243 21.628 24.7046 22.3499 23.9827C23.0717 23.2608 23.9915 22.7692 24.9928 22.57C25.994 22.3709 27.0319 22.4731 27.9751 22.8638C28.9183 23.2544 29.7244 23.916 30.2916 24.7649C30.8588 25.6137 31.1615 26.6117 31.1615 27.6326C31.16 29.0011 30.6157 30.3132 29.648 31.2809C28.6803 32.2485 27.3683 32.7929 25.9998 32.7944ZM30.0066 28.3008C29.8591 29.1322 29.4597 29.8983 28.8626 30.4955C28.2655 31.0926 27.4994 31.4919 26.6679 31.6394C26.6366 31.6445 26.605 31.6472 26.5733 31.6473C26.4295 31.6471 26.291 31.5929 26.1853 31.4954C26.0796 31.3979 26.0144 31.2642 26.0026 31.1209C25.9908 30.9776 26.0332 30.8351 26.1215 30.7216C26.2098 30.6081 26.3376 30.5319 26.4794 30.5081C27.0762 30.4021 27.6261 30.1154 28.0547 29.6868C28.4833 29.2582 28.77 28.7083 28.876 28.1115C28.9023 27.9626 28.9864 27.8302 29.1099 27.7429C29.2334 27.6557 29.3863 27.6208 29.5354 27.6457C29.6845 27.6707 29.8178 27.7535 29.9061 27.8762C29.9945 27.9988 30.0302 28.1514 30.0066 28.3008Z" fill="#EB5436"/>
<defs>
<filter id="filter0_d_991_744" x="0.4" y="0.4" width="51.2" height="63.2586" filterUnits="userSpaceOnUse" color-interpolation-filters="sRGB">
<feFlood flood-opacity="0" result="BackgroundImageFix"/>
<feColorMatrix in="SourceAlpha" type="matrix" values="0 0 0 0 0 0 0 0 0 0 0 0 0 0 0 0 0 0 127 0" result="hardAlpha"/>
<feOffset dy="2"/>
<feGaussianBlur stdDeviation="6.05"/>
<feComposite in2="hardAlpha" operator="out"/>
<feColorMatrix type="matrix" values="0 0 0 0 0.337255 0 0 0 0 0.133333 0 0 0 0 0.0627451 0 0 0 0.24 0"/>
<feBlend mode="normal" in2="BackgroundImageFix" result="effect1_dropShadow_991_744"/>
<feBlend mode="normal" in="SourceGraphic" in2="effect1_dropShadow_991_744" result="shape"/>
</filter>
</defs>
</svg>
