<svg width="76" height="88" viewBox="0 0 76 88" fill="none" xmlns="http://www.w3.org/2000/svg">
<g filter="url(#filter0_d_882_870)">
<path d="M25 29.9333C25 27.5067 25 26.2933 25.4723 25.366C25.8878 24.5507 26.5507 23.8878 27.366 23.4723C28.2933 23 29.5067 23 31.9333 23H44.0667C46.4933 23 47.7067 23 48.634 23.4723C49.4493 23.8878 50.1122 24.5507 50.5277 25.366C51 26.2933 51 27.5067 51 29.9333V58.7608C51 59.8138 51 60.3403 50.7812 60.6285C50.6866 60.7538 50.5659 60.8571 50.4275 60.9312C50.2891 61.0053 50.1362 61.0484 49.9795 61.0575C49.6177 61.0792 49.18 60.7867 48.3047 60.2038L38 53.3333L27.6953 60.2017C26.82 60.7867 26.3823 61.0792 26.0183 61.0575C25.862 61.048 25.7095 61.0048 25.5715 60.9307C25.4335 60.8567 25.3132 60.7536 25.2188 60.6285C25 60.3403 25 59.8138 25 58.7608V29.9333Z" fill="#FFF0CB"/>
<path d="M25 29.9333C25 27.5067 25 26.2933 25.4723 25.366C25.8878 24.5507 26.5507 23.8878 27.366 23.4723C28.2933 23 29.5067 23 31.9333 23H44.0667C46.4933 23 47.7067 23 48.634 23.4723C49.4493 23.8878 50.1122 24.5507 50.5277 25.366C51 26.2933 51 27.5067 51 29.9333V58.7608C51 59.8138 51 60.3403 50.7812 60.6285C50.6866 60.7538 50.5659 60.8571 50.4275 60.9312C50.2891 61.0053 50.1362 61.0484 49.9795 61.0575C49.6177 61.0792 49.18 60.7867 48.3047 60.2038L38 53.3333L27.6953 60.2017C26.82 60.7867 26.3823 61.0792 26.0183 61.0575C25.862 61.048 25.7095 61.0048 25.5715 60.9307C25.4335 60.8567 25.3132 60.7536 25.2188 60.6285C25 60.3403 25 59.8138 25 58.7608V29.9333Z" stroke="#FFF0CB" stroke-width="1.5" stroke-linecap="round" stroke-linejoin="round"/>
</g>
<path d="M40.7149 33.9384C41.4528 33.5485 42.0706 32.9648 42.5017 32.2501C42.9328 31.5354 43.161 30.7168 43.1617 29.8821C43.1617 29.73 43.1013 29.5841 42.9937 29.4766C42.8862 29.369 42.7403 29.3086 42.5882 29.3086H42.0147C41.1947 29.3089 40.3899 29.5289 39.6838 29.9457C38.9778 30.3626 38.3963 30.961 38 31.6787C37.6036 30.961 37.0221 30.3626 36.3161 29.9457C35.61 29.5289 34.8052 29.3089 33.9852 29.3086H33.4117C33.2596 29.3086 33.1137 29.369 33.0062 29.4766C32.8986 29.5841 32.8382 29.73 32.8382 29.8821C32.8382 30.0342 32.8986 30.1801 33.0062 30.2877C33.1137 30.3952 33.2596 30.4557 33.4117 30.4557H33.9852C34.8034 30.4568 35.5945 30.7489 36.2171 31.2798C36.8396 31.8107 37.2531 32.5457 37.3834 33.3534C35.8653 33.502 34.4524 34.1956 33.4064 35.3057C32.3603 36.4159 31.7519 37.8675 31.6937 39.3917C31.6356 40.916 32.1317 42.4097 33.0901 43.5963C34.0486 44.783 35.4045 45.5822 36.9069 45.846C38.4092 46.1098 39.9563 45.8204 41.2617 45.0312C42.5671 44.2421 43.5424 43.0068 44.007 41.5539C44.4716 40.101 44.3941 38.529 43.7889 37.1289C43.1836 35.7287 42.0916 34.5953 40.7149 33.9384ZM41.9666 30.4557C41.8314 31.2489 41.4229 31.9698 40.8119 32.4936C40.201 33.0173 39.4261 33.3108 38.6215 33.3233C38.7568 32.5301 39.1653 31.8091 39.7762 31.2854C40.3871 30.7617 41.162 30.4681 41.9666 30.4557ZM38 44.7939C36.9791 44.7939 35.9811 44.4912 35.1322 43.924C34.2834 43.3568 33.6218 42.5506 33.2311 41.6074C32.8404 40.6643 32.7382 39.6264 32.9374 38.6251C33.1365 37.6238 33.6282 36.7041 34.35 35.9822C35.0719 35.2603 35.9917 34.7687 36.9929 34.5695C37.9942 34.3704 39.0321 34.4726 39.9753 34.8633C40.9185 35.254 41.7246 35.9156 42.2918 36.7644C42.859 37.6132 43.1617 38.6112 43.1617 39.6321C43.1602 41.0006 42.6159 42.3127 41.6482 43.2804C40.6805 44.2481 39.3685 44.7924 38 44.7939ZM42.0068 40.3003C41.8592 41.1318 41.4599 41.8978 40.8628 42.495C40.2657 43.0921 39.4996 43.4914 38.6681 43.6389C38.6368 43.644 38.6052 43.6467 38.5735 43.6468C38.4297 43.6466 38.2912 43.5924 38.1855 43.4949C38.0798 43.3974 38.0146 43.2637 38.0028 43.1204C37.9909 42.9771 38.0334 42.8346 38.1217 42.7211C38.21 42.6076 38.3377 42.5314 38.4796 42.5077C39.0764 42.4016 39.6262 42.1149 40.0548 41.6863C40.4835 41.2577 40.7702 40.7078 40.8762 40.111C40.9025 39.9621 40.9866 39.8297 41.1101 39.7425C41.2336 39.6552 41.3865 39.6203 41.5356 39.6452C41.6847 39.6702 41.818 39.753 41.9063 39.8757C41.9947 39.9983 42.0303 40.1509 42.0068 40.3003Z" fill="#EB5436"/>
<defs>
<filter id="filter0_d_882_870" x="0.35" y="0.35" width="75.3" height="87.3586" filterUnits="userSpaceOnUse" color-interpolation-filters="sRGB">
<feFlood flood-opacity="0" result="BackgroundImageFix"/>
<feColorMatrix in="SourceAlpha" type="matrix" values="0 0 0 0 0 0 0 0 0 0 0 0 0 0 0 0 0 0 127 0" result="hardAlpha"/>
<feOffset dy="2"/>
<feGaussianBlur stdDeviation="11.95"/>
<feComposite in2="hardAlpha" operator="out"/>
<feColorMatrix type="matrix" values="0 0 0 0 0.337255 0 0 0 0 0.133333 0 0 0 0 0.0627451 0 0 0 1 0"/>
<feBlend mode="normal" in2="BackgroundImageFix" result="effect1_dropShadow_882_870"/>
<feBlend mode="normal" in="SourceGraphic" in2="effect1_dropShadow_882_870" result="shape"/>
</filter>
</defs>
</svg>
