<svg width="328" height="318" viewBox="0 0 328 318" fill="none" xmlns="http://www.w3.org/2000/svg">
<path d="M203.081 266.67C200.553 265.958 198.028 264.94 195.634 263.653C194.295 262.97 193.81 261.329 194.52 259.998C195.222 258.692 196.862 258.207 198.168 258.909C201.144 260.5 204.311 261.615 207.475 262.144C208.989 262.404 209.937 263.785 209.684 265.273C209.439 266.735 208.044 267.734 206.582 267.489C205.392 267.266 204.242 266.997 203.081 266.67ZM327.226 297.749C325.833 297.357 324.985 295.921 325.333 294.487C325.707 293.061 327.184 292.168 328.61 292.542C330.25 292.949 331.944 293.259 333.583 293.47C335.222 293.681 336.898 293.764 338.558 293.702C340.041 293.675 341.268 294.856 341.321 296.347C341.349 297.83 340.168 299.057 338.677 299.11C336.744 299.15 334.822 299.054 332.937 298.829C331.058 298.578 329.15 298.236 327.304 297.771C327.278 297.764 327.252 297.757 327.226 297.749ZM310.982 290.277C310.699 290.197 310.422 290.091 310.167 289.908C307.071 287.755 304.179 285.269 301.581 282.533C300.579 281.443 300.61 279.753 301.681 278.718C302.778 277.691 304.468 277.721 305.495 278.818C307.835 281.287 310.46 283.531 313.258 285.461C314.461 286.329 314.769 288.003 313.92 289.239C313.261 290.195 312.066 290.582 310.982 290.277ZM223.663 264.478C223.019 264.296 222.413 263.875 222.061 263.247C221.313 261.95 221.752 260.292 223.023 259.536C225.716 257.984 228.12 255.876 230.348 253.107C231.286 251.951 232.982 251.761 234.138 252.699C235.294 253.638 235.484 255.334 234.546 256.49C231.893 259.78 229.008 262.308 225.746 264.201C225.078 264.598 224.334 264.667 223.663 264.478ZM182.982 251.93C182.363 251.756 181.827 251.382 181.454 250.831C181.124 250.321 180.795 249.81 180.498 249.281C178.901 246.548 177.565 243.582 176.527 240.449C176.094 239.019 176.854 237.507 178.266 237.041C179.678 236.576 181.216 237.343 181.674 238.781C182.568 241.539 183.726 244.148 185.145 246.525C185.404 246.988 185.671 247.425 185.971 247.844C186.76 249.096 186.431 250.758 185.197 251.58C184.514 252.028 183.704 252.134 182.982 251.93ZM355.231 294.808C354.509 294.605 353.855 294.058 353.507 293.32C352.916 291.956 353.51 290.342 354.874 289.751C357.873 288.396 360.915 286.692 363.919 284.726C365.16 283.878 366.815 284.233 367.636 285.467C368.484 286.708 368.122 288.388 366.888 289.21C363.638 291.357 360.332 293.21 357.082 294.661C356.476 294.936 355.825 294.975 355.231 294.808ZM293.028 268.317C292.254 268.099 291.575 267.545 291.274 266.737C289.781 263.142 288.766 259.431 288.259 255.696C288.036 254.213 289.084 252.866 290.559 252.669C292.042 252.446 293.39 253.494 293.587 254.97C294.029 258.241 294.921 261.499 296.225 264.679C296.808 266.068 296.144 267.635 294.788 268.2C294.188 268.449 293.57 268.469 293.028 268.317ZM175.824 224.463C174.689 224.144 173.867 223.105 173.852 221.875C173.857 218.396 174.105 214.651 174.584 210.777C174.752 209.293 176.11 208.227 177.587 208.421C179.071 208.588 180.111 209.939 179.943 211.423C179.496 215.084 179.255 218.608 179.256 221.866C179.251 223.369 178.051 224.562 176.549 224.557C176.295 224.568 176.056 224.529 175.824 224.463ZM240.382 241.706C240.279 241.677 240.183 241.622 240.08 241.593C238.704 241.038 238.036 239.458 238.616 238.09C239.488 235.885 240.301 233.692 241.099 231.55L242.36 228.062C242.87 226.647 244.355 225.924 245.822 226.448C247.212 226.951 247.946 228.495 247.436 229.91L246.15 233.39C245.355 235.617 244.502 237.855 243.59 240.104C243.09 241.383 241.672 242.069 240.382 241.706ZM378.488 278.083C378.075 277.966 377.666 277.74 377.318 277.391C376.276 276.346 376.255 274.641 377.308 273.574C379.755 271.116 382.108 268.494 384.329 265.751C385.267 264.595 386.964 264.404 388.12 265.343C389.275 266.281 389.466 267.977 388.527 269.133C386.211 272.017 383.704 274.791 381.136 277.381C380.425 278.127 379.391 278.337 378.488 278.083ZM291.802 240.155C291.776 240.147 291.75 240.14 291.75 240.14C290.313 239.707 289.512 238.201 289.945 236.764C290.905 233.554 292.255 230.147 294.019 226.356C294.651 225.003 296.236 224.419 297.589 225.051C298.942 225.683 299.519 227.293 298.887 228.646C297.247 232.194 295.996 235.35 295.101 238.328C294.676 239.739 293.195 240.547 291.802 240.155ZM180.325 196.133C180.273 196.119 180.196 196.097 180.119 196.075C178.729 195.572 178.027 194.01 178.53 192.62C179.777 189.185 181.406 185.773 183.352 182.423C184.106 181.132 185.757 180.706 187.049 181.46C188.34 182.214 188.766 183.865 188.012 185.156C186.23 188.218 184.733 191.36 183.581 194.461C183.092 195.799 181.666 196.511 180.325 196.133ZM250.34 214.662C250.289 214.648 250.211 214.626 250.134 214.604C248.744 214.101 248.042 212.539 248.545 211.149L252.241 200.997C252.751 199.582 254.391 198.902 255.703 199.383C257.093 199.886 257.82 201.455 257.317 202.845L253.596 212.99C253.107 214.328 251.682 215.04 250.34 214.662ZM395.688 255.084C395.507 255.033 395.327 254.982 395.161 254.88C393.848 254.204 393.337 252.556 394.039 251.251C395.549 248.362 396.984 245.147 398.322 241.681C398.858 240.273 400.439 239.605 401.796 240.126C403.204 240.662 403.88 242.217 403.344 243.625C401.947 247.297 400.402 250.704 398.79 253.759C398.19 254.898 396.874 255.419 395.688 255.084ZM303.962 214.093C303.807 214.05 303.634 213.973 303.46 213.896C302.147 213.22 301.63 211.599 302.313 210.26C304.192 206.557 305.532 203.677 306.649 200.9C307.203 199.525 308.864 198.768 310.195 199.282C311.57 199.837 312.301 201.296 311.739 202.697L311.655 202.896C310.503 205.801 309.038 208.924 307.104 212.723C306.497 213.889 305.174 214.435 303.962 214.093ZM195.883 172.143C195.47 172.027 195.086 171.807 194.732 171.485C193.69 170.439 193.669 168.735 194.696 167.66C199.35 162.901 202.985 160.277 203.158 160.159C204.373 159.304 206.049 159.581 206.904 160.797C207.759 162.012 207.481 163.688 206.259 164.569C206.226 164.588 202.837 167.03 198.564 171.423C197.853 172.169 196.812 172.405 195.883 172.143ZM260.214 187.623C260.162 187.608 260.085 187.586 260.015 187.539C258.625 187.036 257.89 185.492 258.426 184.084L262.122 173.932C262.625 172.542 264.22 171.822 265.577 172.343C266.966 172.846 267.701 174.39 267.191 175.805L263.477 185.925C262.988 187.263 261.555 188.001 260.214 187.623ZM405.392 228.053C403.999 227.66 403.144 226.25 403.492 224.816C404.308 221.426 405.042 217.93 405.64 214.423C405.885 212.961 407.281 211.962 408.743 212.207C410.257 212.466 411.204 213.847 410.952 215.335C410.318 218.971 409.58 222.578 408.735 226.071C408.38 227.53 406.929 228.43 405.495 228.082C405.444 228.067 405.418 228.06 405.392 228.053ZM313.091 186.928C311.801 186.564 310.954 185.323 311.144 183.957C311.628 180.557 311.862 177.059 311.868 173.58C311.873 172.078 313.106 170.866 314.582 170.864C316.084 170.869 317.27 172.095 317.272 173.571C317.279 177.304 317.005 181.042 316.474 184.706C316.28 186.183 314.904 187.216 313.427 187.022C313.323 186.993 313.194 186.957 313.091 186.928ZM270.095 160.557C270.017 160.536 269.94 160.514 269.863 160.492C268.48 159.963 267.779 158.401 268.315 156.993L270.829 157.952L268.413 156.742C269.546 153.609 270.84 150.103 272.448 146.769C273.106 145.423 274.709 144.872 276.055 145.53C277.383 146.155 277.952 147.791 277.301 149.111C275.811 152.227 274.56 155.578 273.471 158.557L273.343 158.911C272.855 160.249 271.436 160.935 270.095 160.557ZM409.599 199.583C408.412 199.249 407.554 198.144 407.637 196.859C407.83 193.21 407.883 189.661 407.775 186.289C407.722 184.798 408.884 183.539 410.375 183.485C411.859 183.458 413.118 184.62 413.172 186.111C413.262 189.645 413.217 193.363 413.013 197.149C412.93 198.629 411.661 199.775 410.181 199.692C409.96 199.685 409.779 199.634 409.599 199.583ZM311.793 158.328C310.891 158.073 310.118 157.355 309.894 156.373C309.288 153.779 308.531 151.227 307.635 148.775C307.378 148.007 307.088 147.257 306.773 146.499C306.215 145.117 306.854 143.543 308.243 142.96C309.6 142.395 311.174 143.034 311.757 144.423C312.11 145.247 312.422 146.114 312.716 146.949C313.672 149.585 314.488 152.321 315.146 155.124C315.494 156.558 314.586 158.001 313.145 158.374C312.674 158.465 312.232 158.451 311.793 158.328ZM285.921 137.395C285.224 137.198 284.582 136.711 284.226 135.998C283.569 134.672 284.138 133.05 285.464 132.393C289.543 130.368 293.763 129.719 297.68 130.544C299.102 130.834 300.053 132.299 299.757 133.747C299.453 135.221 298.021 136.154 296.554 135.824C293.898 135.271 290.807 135.764 287.864 137.218C287.217 137.537 286.54 137.569 285.921 137.395Z" fill="#FACFAB"/>
<path d="M221.917 49.7877C224.449 50.4872 226.979 51.4923 229.38 52.7673C230.722 53.4441 231.215 55.0817 230.512 56.4169C229.817 57.7262 228.179 58.2191 226.87 57.5237C223.885 55.9482 220.713 54.8493 217.546 54.3357C216.031 54.0838 215.077 52.7079 215.321 51.2184C215.559 49.7548 216.949 48.7486 218.413 48.9862C219.604 49.2041 220.755 49.4665 221.917 49.7877ZM97.617 19.3349C99.012 19.7203 99.8675 21.1524 99.5266 22.5875C99.1598 24.0154 97.6877 24.9155 96.2598 24.5487C94.618 24.1507 92.9219 23.8489 91.2818 23.646C89.6418 23.4431 87.966 23.3693 86.3063 23.439C84.8229 23.474 83.5904 22.2993 83.5295 20.8088C83.4945 19.3254 84.6692 18.0929 86.1597 18.0321C88.0921 17.9821 90.0146 18.0684 91.9014 18.2839C93.7811 18.5252 95.6911 18.8583 97.5395 19.3135C97.5653 19.3206 97.5912 19.3278 97.617 19.3349ZM113.899 26.7254C114.183 26.804 114.46 26.9083 114.715 27.0902C117.823 29.2278 120.727 31.6986 123.339 34.4223C124.346 35.5069 124.324 37.1969 123.258 38.237C122.166 39.27 120.476 39.2479 119.443 38.1562C117.091 35.699 114.454 33.4689 111.647 31.5531C110.439 30.6911 110.123 29.0188 110.966 27.7781C111.621 26.8189 112.814 26.4256 113.899 26.7254ZM201.346 52.0839C201.992 52.2623 202.6 52.6804 202.955 53.3069C203.71 54.5999 203.279 56.2603 202.012 57.0224C199.327 58.5884 196.934 60.7077 194.72 63.4881C193.787 64.6486 192.092 64.8474 190.931 63.9151C189.771 62.9827 189.572 61.2873 190.504 60.1268C193.141 56.8236 196.013 54.2804 199.265 52.3708C199.932 51.971 200.675 51.8983 201.346 52.0839ZM242.091 64.4264C242.711 64.5977 243.248 64.9686 243.624 65.5175C243.957 66.0264 244.289 66.5352 244.588 67.0627C246.198 69.7878 247.549 72.747 248.604 75.8745C249.043 77.3028 248.291 78.8188 246.881 79.2912C245.472 79.7637 243.93 79.004 243.464 77.5686C242.557 74.8154 241.386 72.2117 239.955 69.8422C239.693 69.3806 239.424 68.9448 239.122 68.5278C238.327 67.2793 238.648 65.6161 239.878 64.7881C240.558 64.3367 241.367 64.2266 242.091 64.4264ZM69.6273 22.4173C70.3507 22.6172 71.007 23.16 71.3595 23.8969C71.9567 25.2575 71.3707 26.8752 70.0101 27.4724C67.0179 28.8422 63.9846 30.5622 60.9903 32.5432C59.7534 33.397 58.0974 33.0507 57.2693 31.8209C56.4155 30.584 56.769 28.9021 57.9988 28.0741C61.2381 25.9106 64.5352 24.041 67.7769 22.5733C68.3819 22.2956 69.0332 22.2531 69.6273 22.4173ZM131.963 48.5947C132.738 48.8088 133.42 49.3588 133.725 50.166C135.237 53.7534 136.27 57.4591 136.796 61.1913C137.026 62.6729 135.985 64.0258 134.511 64.2301C133.029 64.4602 131.676 63.4191 131.472 61.9445C131.013 58.6757 130.104 55.4217 128.785 52.2487C128.195 50.8622 128.851 49.2918 130.204 48.7204C130.802 48.4686 131.421 48.4448 131.963 48.5947ZM249.387 91.8566C250.524 92.1707 251.35 93.2053 251.372 94.4348C251.384 97.9137 251.155 101.66 250.696 105.537C250.536 107.022 249.183 108.094 247.705 107.908C246.22 107.748 245.174 106.402 245.334 104.917C245.762 101.254 245.985 97.7288 245.968 94.4708C245.966 92.9688 247.159 91.7692 248.661 91.7672C248.915 91.7539 249.155 91.7923 249.387 91.8566ZM184.743 74.94C184.846 74.9686 184.943 75.0229 185.046 75.0515C186.424 75.5991 187.1 77.1762 186.527 78.5471C185.666 80.7562 184.864 82.9537 184.077 85.0995L182.833 88.5931C182.33 90.0112 180.849 90.742 179.38 90.2246C177.987 89.7287 177.245 88.1889 177.748 86.7709L179.017 83.2844C179.8 81.0539 180.642 78.8119 181.543 76.5583C182.036 75.2765 183.451 74.5831 184.743 74.94ZM46.4552 39.2598C46.8685 39.374 47.2792 39.5987 47.6282 39.9454C48.6755 40.9855 48.7051 42.6898 47.6578 43.7629C45.2238 46.2323 42.8832 48.8666 40.6762 51.6212C39.7438 52.7817 38.0483 52.9805 36.8879 52.0482C35.7274 51.1158 35.5286 49.4204 36.461 48.2599C38.7624 45.3646 41.2563 42.578 43.8107 39.975C44.5184 39.2251 45.5511 39.01 46.4552 39.2598ZM133.331 76.7502C133.357 76.7574 133.383 76.7645 133.383 76.7645C134.822 77.1901 135.631 78.6924 135.205 80.132C134.261 83.3468 132.929 86.7602 131.184 90.56C130.559 91.9166 128.977 92.5084 127.621 91.8833C126.264 91.2582 125.679 89.6508 126.304 88.2942C127.926 84.7384 129.162 81.5763 130.041 78.5939C130.46 77.1802 131.936 76.3648 133.331 76.7502ZM245.029 120.209C245.081 120.224 245.158 120.245 245.236 120.266C246.628 120.762 247.337 122.321 246.841 123.713C245.612 127.155 244 130.574 242.071 133.934C241.324 135.229 239.674 135.663 238.379 134.916C237.084 134.169 236.65 132.52 237.397 131.225C239.163 128.154 240.645 125.004 241.782 121.898C242.263 120.557 243.686 119.838 245.029 120.209ZM174.921 102.033C174.973 102.048 175.05 102.069 175.128 102.09C176.52 102.586 177.229 104.145 176.734 105.537L173.089 115.708C172.586 117.126 170.95 117.814 169.635 117.339C168.243 116.844 167.508 115.278 168.004 113.886L171.674 103.722C172.156 102.381 173.578 101.662 174.921 102.033ZM29.3716 62.3447C29.5524 62.3947 29.7332 62.4446 29.8998 62.5463C31.2162 63.2159 31.7349 64.8607 31.0395 66.17C29.5443 69.0657 28.1255 72.2883 26.8046 75.7605C26.2757 77.1715 24.6986 77.8479 23.3393 77.3333C21.9283 76.8044 21.2448 75.2531 21.7737 73.8421C23.1516 70.1633 24.6792 66.7482 26.276 63.686C26.8698 62.5432 28.1832 62.0163 29.3716 62.3447ZM121.303 102.873C121.458 102.915 121.632 102.991 121.806 103.067C123.122 103.737 123.648 105.356 122.971 106.698C121.111 110.41 119.785 113.297 118.683 116.079C118.135 117.457 116.478 118.222 115.144 117.715C113.766 117.167 113.028 115.712 113.583 114.308L113.666 114.109C114.804 111.198 116.253 108.067 118.167 104.258C118.768 103.09 120.089 102.537 121.303 102.873ZM229.592 144.278C230.005 144.392 230.39 144.609 230.746 144.93C231.794 145.97 231.823 147.675 230.802 148.755C226.172 153.537 222.55 156.179 222.378 156.298C221.167 157.159 219.489 156.89 218.628 155.679C217.767 154.468 218.036 152.791 219.254 151.904C219.287 151.885 222.664 149.426 226.915 145.011C227.622 144.262 228.662 144.021 229.592 144.278ZM165.184 129.122C165.236 129.137 165.313 129.158 165.383 129.205C166.776 129.701 167.518 131.241 166.989 132.652L163.345 142.823C162.849 144.215 161.257 144.943 159.898 144.428C158.506 143.932 157.763 142.393 158.267 140.975L161.93 130.837C162.411 129.496 163.841 128.751 165.184 129.122ZM19.8036 89.4248C21.1986 89.8103 22.0613 91.2165 21.7204 92.6516C20.9216 96.0455 20.2048 99.5456 19.6242 103.055C19.3866 104.519 17.9964 105.525 16.5327 105.288C15.0174 105.036 14.063 103.66 14.3077 102.17C14.9239 98.5313 15.6435 94.9208 16.4708 91.4235C16.8189 89.9626 18.2652 89.0553 19.7003 89.3963C19.752 89.4105 19.7778 89.4177 19.8036 89.4248ZM112.311 130.084C113.602 130.441 114.456 131.678 114.273 133.045C113.806 136.447 113.589 139.947 113.601 143.426C113.603 144.928 112.377 146.146 110.901 146.155C109.399 146.157 108.206 144.938 108.197 143.462C108.172 139.729 108.427 135.99 108.939 132.322C109.125 130.844 110.497 129.805 111.975 129.991C112.078 130.02 112.207 130.055 112.311 130.084ZM155.44 156.237C155.517 156.259 155.595 156.28 155.672 156.301C157.057 156.823 157.767 158.382 157.238 159.793L154.719 158.846L157.14 160.044C156.023 163.183 154.747 166.695 153.156 170.037C152.505 171.387 150.905 171.945 149.555 171.294C148.224 170.676 147.647 169.043 148.291 167.72C149.766 164.596 150.999 161.239 152.074 158.255L152.2 157.9C152.681 156.559 154.096 155.866 155.44 156.237ZM15.7408 117.915C16.9291 118.243 17.7928 119.344 17.7157 120.629C17.5413 124.279 17.506 127.829 17.6311 131.2C17.692 132.69 16.5359 133.956 15.0454 134.017C13.5621 134.052 12.2966 132.896 12.2358 131.405C12.1276 127.872 12.1541 124.153 12.3384 120.367C12.4138 118.886 13.6776 117.734 15.1582 117.809C15.3792 117.815 15.56 117.865 15.7408 117.915ZM113.753 158.677C114.657 158.927 115.432 159.641 115.662 160.622C116.281 163.213 117.05 165.761 117.959 168.209C118.22 168.976 118.513 169.724 118.833 170.48C119.397 171.859 118.767 173.437 117.38 174.027C116.027 174.598 114.449 173.968 113.859 172.581C113.502 171.76 113.185 170.893 112.887 170.06C111.918 167.429 111.088 164.697 110.416 161.898C110.061 160.465 110.961 159.018 112.401 158.637C112.872 158.545 113.313 158.555 113.753 158.677ZM139.731 179.479C140.428 179.672 141.073 180.156 141.432 180.867C142.096 182.191 141.535 183.815 140.212 184.478C136.143 186.524 131.927 187.194 128.006 186.389C126.583 186.107 125.624 184.646 125.913 183.197C126.209 181.721 127.637 180.781 129.105 181.104C131.764 181.644 134.852 181.134 137.788 179.666C138.433 179.343 139.111 179.308 139.731 179.479Z" fill="#FACFAB"/>
</svg>
