<svg width="20" height="20" viewBox="0 0 20 20" fill="none" xmlns="http://www.w3.org/2000/svg">
<path d="M9.38802 4.28997C8.98897 3.88271 8.51293 3.55888 7.98757 3.33732C7.46221 3.11576 6.89803 3.00089 6.32787 2.9994C5.7577 2.99792 5.19293 3.10983 4.66642 3.32865C4.13991 3.54746 3.66218 3.8688 3.26102 4.27397C1.57302 5.97897 1.58102 8.74997 3.27702 10.463L9.55402 16.803C9.81402 17.066 10.236 17.066 10.496 16.803L16.741 10.499C17.5507 9.6718 18.0027 8.55947 17.9995 7.40199C17.9964 6.2445 17.5382 5.13467 16.724 4.31197C16.3244 3.90417 15.8477 3.57993 15.3216 3.35812C14.7955 3.13631 14.2306 3.02137 13.6597 3.01997C13.0887 3.01857 12.5232 3.13076 11.996 3.34999C11.4689 3.56923 10.9906 3.89113 10.589 4.29697L9.99302 4.89997L9.38802 4.28997Z" fill="#562210"/>
</svg>
