<svg width="95" height="94" viewBox="0 0 95 94" fill="none" xmlns="http://www.w3.org/2000/svg">
<path d="M50.6458 18.469L73.7521 15.7729L56.3664 78.0357L33.1765 80.5233L50.6458 18.469Z" fill="#E2E7EF"/>
<path d="M21.1719 1.26483L4.12591 63.8368L32.7648 80.2652L50.4822 18.416L21.1719 1.26483Z" fill="#FEFEFF"/>
<mask id="mask0_154_7512" style="mask-type:luminance" maskUnits="userSpaceOnUse" x="53" y="14" width="42" height="78">
<path d="M73.4238 14.6133L94.7269 20.6154L74.7597 91.4851L53.4566 85.4831L73.4238 14.6133Z" fill="white"/>
</mask>
<g mask="url(#mask0_154_7512)">
<path d="M73.9404 16.0891L56.5912 78.2982L73.8361 91.1536L91.2315 28.9576L73.9404 16.0891Z" fill="#FEFEFF"/>
</g>
<path d="M23.8416 61.281C23.1956 61.099 22.5503 60.839 21.9387 60.5101C21.5966 60.3355 21.4727 59.9164 21.654 59.5761C21.8333 59.2425 22.2524 59.1187 22.5861 59.2981C23.3467 59.7044 24.1557 59.9893 24.9642 60.1246C25.3511 60.1909 25.5932 60.5437 25.5287 60.924C25.4661 61.2976 25.1096 61.5529 24.736 61.4903C24.4319 61.4331 24.1382 61.3646 23.8416 61.281ZM55.5619 69.222C55.2059 69.1218 54.9892 68.7548 55.0781 68.3885C55.1737 68.0241 55.551 67.7961 55.9154 67.8916C56.3343 67.9954 56.7673 68.0747 57.1861 68.1287C57.6049 68.1826 58.033 68.2037 58.4571 68.188C58.8362 68.1809 59.1496 68.4827 59.1632 68.8636C59.1702 69.2426 58.8685 69.556 58.4876 69.5697C57.9938 69.5799 57.5027 69.5554 57.0209 69.4979C56.5409 69.4338 56.0533 69.3463 55.5816 69.2276C55.5751 69.2257 55.5685 69.2239 55.5619 69.222ZM51.4113 67.3127C51.3388 67.2923 51.2682 67.2653 51.2031 67.2185C50.4119 66.6683 49.673 66.0333 49.0092 65.334C48.7533 65.0555 48.7611 64.6238 49.0348 64.3594C49.3151 64.0969 49.7468 64.1047 50.0094 64.385C50.6071 65.0158 51.278 65.589 51.9928 66.0821C52.3003 66.3039 52.379 66.7316 52.1619 67.0475C51.9935 67.2918 51.6882 67.3907 51.4113 67.3127ZM29.1005 60.7208C28.9357 60.6744 28.7811 60.5668 28.6911 60.4063C28.4999 60.0749 28.6122 59.6512 28.9369 59.4582C29.6249 59.0615 30.2391 58.5231 30.8084 57.8155C31.0481 57.5202 31.4816 57.4716 31.7769 57.7113C32.0722 57.951 32.1208 58.3845 31.8811 58.6798C31.2032 59.5204 30.4662 60.1665 29.6327 60.6502C29.4618 60.7515 29.2719 60.7691 29.1005 60.7208ZM18.706 57.5147C18.5478 57.4702 18.411 57.3747 18.3155 57.234C18.2313 57.1035 18.1471 56.9731 18.0714 56.8379C17.6634 56.1396 17.322 55.3818 17.0566 54.5813C16.9461 54.2158 17.1404 53.8294 17.5011 53.7105C17.8619 53.5916 18.2549 53.7877 18.3719 54.1551C18.6003 54.8597 18.8962 55.5265 19.2587 56.1337C19.325 56.252 19.3931 56.3637 19.4697 56.4707C19.6712 56.7907 19.5872 57.2152 19.2719 57.4252C19.0974 57.5396 18.8905 57.5667 18.706 57.5147ZM62.7174 68.4705C62.5328 68.4185 62.3658 68.279 62.2767 68.0902C62.1259 67.7418 62.2777 67.3293 62.6261 67.1784C63.3924 66.8323 64.1696 66.3967 64.9372 65.8944C65.2544 65.6778 65.6771 65.7685 65.887 66.0838C66.1036 66.4009 66.0111 66.8302 65.6958 67.0401C64.8654 67.5888 64.0206 68.0622 63.1904 68.433C63.0354 68.5032 62.869 68.5132 62.7174 68.4705ZM46.8239 61.7017C46.6262 61.646 46.4526 61.5046 46.3756 61.298C45.9941 60.3794 45.7348 59.4313 45.6052 58.477C45.5483 58.0981 45.8161 57.7538 46.1931 57.7035C46.572 57.6466 46.9163 57.9144 46.9666 58.2914C47.0797 59.1272 47.3076 59.9598 47.6407 60.7722C47.7897 61.1272 47.62 61.5276 47.2734 61.6719C47.1203 61.7354 46.9623 61.7407 46.8239 61.7017ZM16.877 50.4968C16.5869 50.415 16.3772 50.1496 16.3732 49.8355C16.3746 48.9465 16.4379 47.9897 16.5603 46.9997C16.6031 46.6204 16.9501 46.3483 17.3275 46.3977C17.7068 46.4405 17.9723 46.7857 17.9295 47.1649C17.8154 48.1003 17.7538 49.0007 17.754 49.8332C17.7526 50.217 17.4461 50.5219 17.0624 50.5205C16.9975 50.5236 16.9363 50.5135 16.877 50.4968ZM33.3722 54.9023C33.3459 54.8949 33.3214 54.8809 33.295 54.8735C32.9436 54.7318 32.7728 54.3279 32.9211 53.9784C33.1438 53.4151 33.3515 52.8546 33.5555 52.3074L33.8777 51.4163C34.0081 51.0547 34.3874 50.8698 34.7623 51.0039C35.1174 51.1324 35.3051 51.5268 35.1747 51.8885L34.8459 52.7777C34.643 53.3465 34.425 53.9183 34.1919 54.493C34.0642 54.8198 33.7018 54.9952 33.3722 54.9023ZM68.6597 64.197C68.5542 64.1673 68.4496 64.1093 68.3609 64.0203C68.0946 63.7532 68.0893 63.3177 68.3582 63.0449C68.9833 62.4171 69.5848 61.747 70.1522 61.046C70.3919 60.7507 70.8254 60.7021 71.1207 60.9418C71.416 61.1815 71.4646 61.615 71.2249 61.9103C70.6331 62.6471 69.9923 63.3559 69.3363 64.0177C69.1545 64.2083 68.8904 64.262 68.6597 64.197ZM46.5106 54.506C46.504 54.5042 46.4974 54.5023 46.4974 54.5023C46.1301 54.3917 45.9256 54.0068 46.0361 53.6396C46.2815 52.8194 46.6263 51.9489 47.0771 50.9803C47.2385 50.6345 47.6434 50.4853 47.9892 50.6468C48.335 50.8083 48.4823 51.2197 48.3209 51.5655C47.9018 52.472 47.5822 53.2783 47.3536 54.0392C47.2448 54.3999 46.8665 54.6063 46.5106 54.506ZM18.0271 43.2581C18.0139 43.2544 17.9942 43.2488 17.9744 43.2432C17.6193 43.1147 17.44 42.7156 17.5686 42.3605C17.887 41.4827 18.3033 40.611 18.8006 39.7551C18.9932 39.4252 19.4151 39.3164 19.7451 39.5089C20.075 39.7015 20.1838 40.1235 19.9912 40.4534C19.536 41.2358 19.1533 42.0386 18.859 42.8308C18.7342 43.1727 18.3699 43.3546 18.0271 43.2581ZM35.9167 47.9924C35.9035 47.9887 35.8837 47.9832 35.864 47.9776C35.5089 47.8491 35.3296 47.45 35.4581 47.0949L36.4024 44.5009C36.5328 44.1392 36.9516 43.9655 37.287 44.0885C37.6421 44.217 37.8279 44.6179 37.6994 44.973L36.7485 47.5652C36.6237 47.9071 36.2594 48.089 35.9167 47.9924ZM73.0544 58.3207C73.0083 58.3077 72.9622 58.2947 72.9197 58.2685C72.5842 58.0957 72.4538 57.6748 72.6332 57.3411C73.019 56.6032 73.3856 55.7816 73.7276 54.8961C73.8645 54.5363 74.2684 54.3655 74.615 54.4987C74.9749 54.6357 75.1475 55.033 75.0106 55.3928C74.6537 56.331 74.259 57.2016 73.8471 57.9819C73.6939 58.2732 73.3576 58.4061 73.0544 58.3207ZM49.6175 47.8471C49.578 47.836 49.5337 47.8164 49.4894 47.7968C49.1539 47.624 49.0216 47.2097 49.1963 46.8676C49.6763 45.9214 50.0188 45.1855 50.304 44.4762C50.4457 44.1248 50.8702 43.9313 51.2102 44.0627C51.5616 44.2044 51.7483 44.5771 51.6047 44.9351L51.5833 44.986C51.2888 45.7283 50.9145 46.5264 50.4205 47.4971C50.2654 47.7949 49.9273 47.9344 49.6175 47.8471ZM22.0023 37.1284C21.8969 37.0986 21.7988 37.0426 21.7082 36.9601C21.442 36.693 21.4366 36.2575 21.699 35.9828C22.8882 34.7669 23.817 34.0966 23.8611 34.0663C24.1716 33.8479 24.5999 33.9188 24.8183 34.2293C25.0367 34.5399 24.9659 34.9681 24.6535 35.1931C24.645 35.1979 23.7791 35.8219 22.6874 36.9443C22.5056 37.135 22.2396 37.1952 22.0023 37.1284ZM38.4395 41.0836C38.4263 41.0799 38.4065 41.0743 38.3886 41.0621C38.0335 40.9336 37.8458 40.5392 37.9828 40.1794L38.9271 37.5854C39.0556 37.2303 39.4631 37.0464 39.8098 37.1796C40.1649 37.3081 40.3526 37.7025 40.2222 38.0642L39.2732 40.6497C39.1484 40.9916 38.7822 41.1801 38.4395 41.0836ZM75.534 51.4138C75.1781 51.3135 74.9594 50.9531 75.0484 50.5869C75.2569 49.7208 75.4445 48.8274 75.5974 47.9313C75.66 47.5577 76.0165 47.3024 76.3901 47.365C76.777 47.4313 77.0191 47.7841 76.9546 48.1643C76.7925 49.0934 76.604 50.0149 76.3881 50.9074C76.2973 51.2803 75.9266 51.5102 75.5604 51.4213C75.5472 51.4175 75.5406 51.4157 75.534 51.4138ZM51.9502 40.906C51.6206 40.8132 51.4041 40.496 51.4526 40.1469C51.5764 39.2782 51.6362 38.3844 51.6376 37.4955C51.639 37.1117 51.9539 36.802 52.3311 36.8015C52.7149 36.803 53.018 37.116 53.0185 37.4932C53.0201 38.447 52.9502 39.402 52.8145 40.3385C52.7651 40.7158 52.4133 40.9796 52.0359 40.9302C52.0095 40.9227 51.9766 40.9135 51.9502 40.906ZM40.9642 34.1681C40.9444 34.1626 40.9246 34.157 40.9049 34.1514C40.5516 34.0163 40.3724 33.6172 40.5093 33.2574L41.1517 33.5024L40.5345 33.1933C40.8241 32.3927 41.1547 31.4969 41.5655 30.6451C41.7335 30.3011 42.1431 30.1604 42.4871 30.3285C42.8263 30.4881 42.9717 30.9061 42.8056 31.2435C42.4247 32.0397 42.1052 32.8959 41.8267 33.657L41.7942 33.7474C41.6694 34.0893 41.3069 34.2647 40.9642 34.1681ZM76.6088 44.1397C76.3056 44.0542 76.0863 43.7719 76.1077 43.4436C76.1569 42.5112 76.1705 41.6044 76.1429 40.7428C76.1293 40.3619 76.4263 40.0401 76.8072 40.0265C77.1862 40.0194 77.5081 40.3164 77.5217 40.6973C77.5448 41.6003 77.5332 42.5504 77.4813 43.5175C77.4601 43.8957 77.1357 44.1885 76.7575 44.1673C76.701 44.1657 76.6549 44.1527 76.6088 44.1397ZM51.6186 33.5985C51.3879 33.5335 51.1906 33.3498 51.1333 33.0989C50.9785 32.4363 50.7851 31.7842 50.5561 31.1576C50.4905 30.9613 50.4164 30.7697 50.3358 30.5762C50.1934 30.223 50.3565 29.8208 50.7115 29.6718C51.0581 29.5276 51.4603 29.6907 51.6093 30.0457C51.6994 30.2561 51.7793 30.4778 51.8544 30.691C52.0986 31.3646 52.3072 32.0636 52.4753 32.7798C52.5642 33.1463 52.3322 33.5149 51.9639 33.6104C51.8435 33.6334 51.7307 33.63 51.6186 33.5985ZM45.0079 28.2498C44.8299 28.1997 44.6658 28.0752 44.5748 27.893C44.4071 27.5541 44.5523 27.1396 44.8913 26.9719C45.9335 26.4545 47.0118 26.2887 48.0124 26.4995C48.3758 26.5734 48.6189 26.9479 48.5432 27.3178C48.4655 27.6944 48.0995 27.9327 47.7249 27.8485C47.0461 27.7071 46.2565 27.8332 45.5044 28.2047C45.3391 28.2862 45.1661 28.2944 45.0079 28.2498Z" fill="#71777F"/>
<path d="M33.1279 81.7548C33.0554 81.7344 32.98 81.6989 32.9131 81.6587L3.03801 64.1634C2.67698 63.955 2.50702 63.5229 2.6203 63.1208L19.8873 1.83486C20.0489 1.26142 20.4564 0.799949 21.0096 0.578748C21.5628 0.357545 22.1744 0.408915 22.6873 0.709919L51.1444 17.6065C51.5837 17.8655 51.725 18.4246 51.466 18.8639C51.2071 19.3032 50.6479 19.4445 50.2086 19.1855L21.7496 2.29552L21.6538 2.33256L4.57991 62.933L33.8441 80.0712C34.2768 80.3283 34.4247 80.8893 34.1723 81.3305C33.9554 81.6962 33.5234 81.8662 33.1279 81.7548Z" fill="#703627"/>
<path d="M33.1154 81.7511C32.8913 81.6879 32.6876 81.5523 32.5317 81.3732C32.27 81.0647 32.1858 80.6567 32.2935 80.2745L49.7982 18.1448C49.8985 17.7889 50.2088 17.5206 50.5756 17.4816L73.6419 14.9023C74.0255 14.8539 74.4014 15.0096 74.6536 15.3012C74.8992 15.5909 74.9854 15.9923 74.8814 16.3614L57.3618 78.5438C57.2596 78.9063 56.9511 79.168 56.576 79.2117L33.5745 81.7879C33.4147 81.7998 33.2604 81.7919 33.1154 81.7511ZM51.3957 19.2423L34.3199 79.8494L55.7624 77.4529L72.84 16.8392L51.3957 19.2423Z" fill="#703627"/>
<path d="M24.6086 21.7412C25.747 17.7007 29.9392 15.346 33.9731 16.4825C37.7565 17.5485 40.0915 21.23 39.4141 25.0233C39.368 25.2878 39.2426 25.7078 39.1077 26.1108C38.9728 26.5139 38.835 26.902 38.7492 27.1055C36.9991 31.3222 30.292 35.8356 28.5456 36.9585C28.3203 37.1014 28.0237 37.0178 27.8977 36.7831C26.9133 34.8481 23.1378 26.9615 24.6513 21.5896L24.6086 21.7412Z" fill="#EE395C"/>
<path d="M35.6687 24.9637C35.5313 25.4515 35.3072 25.8934 34.9963 26.2896C34.6855 26.6859 34.3104 27.0071 33.8711 27.2532C33.4318 27.4994 32.962 27.6516 32.4618 27.7099C31.9616 27.7682 31.4676 27.7286 30.9865 27.5931C30.4987 27.4556 30.0633 27.2334 29.6671 26.9225C29.2709 26.6117 28.9497 26.2366 28.7035 25.7973C28.4573 25.358 28.3051 24.8882 28.2468 24.388C28.1886 23.8878 28.2216 23.392 28.359 22.9042C28.4964 22.4165 28.7253 21.9829 29.0361 21.5867C29.3469 21.1905 29.722 20.8693 30.1613 20.6231C30.6025 20.3703 31.0723 20.2181 31.5725 20.1598C32.0727 20.1016 32.5601 20.1393 33.0478 20.2767C33.529 20.4123 33.971 20.6364 34.3672 20.9472C34.7634 21.2581 35.0846 21.6332 35.3289 22.0791C35.5751 22.5184 35.7273 22.9881 35.7856 23.4883C35.8439 23.9886 35.8062 24.4759 35.6687 24.9637Z" fill="#FEFFFE"/>
<mask id="mask1_154_7512" style="mask-type:luminance" maskUnits="userSpaceOnUse" x="51" y="14" width="44" height="80">
<path d="M71.7363 14.1381L94.7268 20.6155L74.2842 93.1726L51.2937 86.6952L71.7363 14.1381Z" fill="white"/>
</mask>
<g mask="url(#mask1_154_7512)">
<path d="M73.1168 91.9116C72.9454 91.8634 72.7833 91.7821 72.6371 91.6698L55.9225 79.0278C55.5179 78.7217 55.4386 78.1445 55.7447 77.7398C56.0508 77.3352 56.6215 77.254 57.0327 77.562L73.2955 89.8632L90.3731 29.2496L73.366 16.6106C72.9613 16.3045 72.8736 15.732 73.175 15.3188C73.4811 14.9142 74.0536 14.8265 74.4649 15.1344L91.5371 27.8202C92.1011 28.2424 92.355 28.9827 92.1619 29.6682L74.9097 90.9014C74.7778 91.3694 74.4264 91.7328 73.9699 91.8888C73.6946 91.982 73.3936 91.9896 73.1168 91.9116Z" fill="#703627"/>
</g>
<path d="M30.7354 28.4828C28.2307 27.7771 26.7697 25.1599 27.4754 22.6552C28.181 20.1505 30.7916 18.6877 33.2963 19.3934C35.7944 20.0972 37.2573 22.7077 36.5516 25.2124C35.8459 27.7171 33.2335 29.1866 30.7354 28.4828ZM32.7986 21.1598C31.2694 20.729 29.6793 21.6256 29.2484 23.1548C28.8176 24.684 29.7058 26.2789 31.2349 26.7097C32.7575 27.1387 34.3543 26.2439 34.7851 24.7147C35.216 23.1855 34.3212 21.5888 32.7986 21.1598Z" fill="#703627"/>
<path d="M27.9333 37.8958C27.5708 37.7937 27.2576 37.5418 27.0833 37.201C25.9226 34.9317 22.2811 27.1754 23.7054 21.5649C23.7128 21.5385 23.7118 21.5169 23.7192 21.4905L23.7619 21.3389C23.7693 21.3126 23.7834 21.2881 23.7889 21.2683C25.1537 16.879 29.7817 14.341 34.2242 15.5927C38.4625 16.7868 41.0851 20.9122 40.3219 25.1865C40.2564 25.5451 40.1003 26.0489 39.9802 26.3993C39.8379 26.8287 39.6861 27.2413 39.5966 27.458C37.7625 31.8716 31.0556 36.4348 29.0464 37.7328C28.718 37.939 28.3175 37.9969 27.9465 37.8995C27.9465 37.8995 27.9399 37.8977 27.9333 37.8958ZM25.5127 21.9176C24.2413 26.632 27.3797 33.649 28.4894 35.8968C30.4825 34.5801 36.3642 30.446 37.9027 26.7531C37.9782 26.5609 38.1151 26.2011 38.236 25.8225C38.3728 25.4128 38.4749 25.0503 38.5137 24.862C39.1063 21.5215 37.0533 18.3036 33.7247 17.3658C30.2115 16.3759 26.5421 18.4156 25.5127 21.9176Z" fill="#703627"/>
<path d="M73.8895 37.8595C73.6852 37.802 73.4947 37.67 73.366 37.4701C73.0945 37.045 73.2194 36.4755 73.6445 36.204L79.0301 32.7198C79.4552 32.4483 80.0266 32.5666 80.2962 32.9983C80.5744 33.4252 80.4495 33.9948 80.0243 34.2663L74.6388 37.7505C74.4051 37.8981 74.1334 37.9282 73.8895 37.8595Z" fill="#89A065"/>
<path d="M78.1324 38.2796C77.9281 38.222 77.7376 38.0901 77.6137 37.8986C76.5409 36.2517 75.379 34.6437 74.1533 33.1103C73.8311 32.7136 73.893 32.1405 74.2897 31.8183C74.6845 31.5027 75.2642 31.5664 75.5798 31.9612C76.8508 33.5359 78.0477 35.1964 79.1554 36.8959C79.427 37.321 79.3087 37.8924 78.8817 38.1705C78.648 38.3181 78.3763 38.3483 78.1324 38.2796Z" fill="#89A065"/>
</svg>
