<svg width="20" height="20" viewBox="0 0 20 20" fill="none" xmlns="http://www.w3.org/2000/svg">
<path fill-rule="evenodd" clip-rule="evenodd" d="M13.3337 3.33337H3.33366C2.89163 3.33337 2.46771 3.50897 2.15515 3.82153C1.84259 4.13409 1.66699 4.55801 1.66699 5.00004V15C1.66699 15.4421 1.84259 15.866 2.15515 16.1786C2.46771 16.4911 2.89163 16.6667 3.33366 16.6667H13.3337C13.3337 16.4457 13.4215 16.2337 13.5777 16.0775C13.734 15.9212 13.946 15.8334 14.167 15.8334C14.388 15.8334 14.6 15.9212 14.7562 16.0775C14.9125 16.2337 15.0003 16.4457 15.0003 16.6667H16.667C17.109 16.6667 17.5329 16.4911 17.8455 16.1786C18.1581 15.866 18.3337 15.4421 18.3337 15V5.00004C18.3337 4.55801 18.1581 4.13409 17.8455 3.82153C17.5329 3.50897 17.109 3.33337 16.667 3.33337H15.0003C15.0003 3.55439 14.9125 3.76635 14.7562 3.92263C14.6 4.07891 14.388 4.16671 14.167 4.16671C13.946 4.16671 13.734 4.07891 13.5777 3.92263C13.4215 3.76635 13.3337 3.55439 13.3337 3.33337ZM14.167 7.50087C14.388 7.50087 14.6 7.41308 14.7562 7.2568C14.9125 7.10052 15.0003 6.88855 15.0003 6.66754V6.66671C15.0003 6.44569 14.9125 6.23373 14.7562 6.07745C14.6 5.92117 14.388 5.83337 14.167 5.83337C13.946 5.83337 13.734 5.92117 13.5777 6.07745C13.4215 6.23373 13.3337 6.44569 13.3337 6.66671V6.66754C13.3337 6.88855 13.4215 7.10052 13.5777 7.2568C13.734 7.41308 13.946 7.50087 14.167 7.50087ZM15.0003 10.0009C15.0003 10.2219 14.9125 10.4338 14.7562 10.5901C14.6 10.7464 14.388 10.8342 14.167 10.8342C13.946 10.8342 13.734 10.7464 13.5777 10.5901C13.4215 10.4338 13.3337 10.2219 13.3337 10.0009V10C13.3337 9.77903 13.4215 9.56707 13.5777 9.41079C13.734 9.2545 13.946 9.16671 14.167 9.16671C14.388 9.16671 14.6 9.2545 14.7562 9.41079C14.9125 9.56707 15.0003 9.77903 15.0003 10V10.0009ZM14.167 14.1675C14.388 14.1675 14.6 14.0797 14.7562 13.9235C14.9125 13.7672 15.0003 13.5552 15.0003 13.3342C15.0003 13.1132 14.9125 12.9004 14.7562 12.7441C14.6 12.5878 14.388 12.5 14.167 12.5C13.946 12.5 13.734 12.5878 13.5777 12.7441C13.4215 12.9004 13.3337 13.1124 13.3337 13.3334C13.3337 13.5544 13.4215 13.7672 13.5777 13.9235C13.734 14.0797 13.946 14.1675 14.167 14.1675ZM11.527 7.96254C11.6497 7.77866 11.6942 7.55358 11.651 7.33682C11.6077 7.12006 11.48 6.92937 11.2962 6.80671C11.1123 6.68404 10.8872 6.63945 10.6704 6.68274C10.4537 6.72603 10.263 6.85366 10.1403 7.03754L7.37116 11.1917L6.42283 10.2442C6.26566 10.0924 6.05515 10.0084 5.83666 10.0103C5.61816 10.0122 5.40915 10.0999 5.25464 10.2544C5.10014 10.4089 5.0125 10.6179 5.0106 10.8364C5.0087 11.0549 5.09269 11.2654 5.24449 11.4225L6.91116 13.0892C6.99832 13.1765 7.10379 13.2434 7.21994 13.285C7.33609 13.3266 7.46004 13.3419 7.58282 13.3298C7.70561 13.3177 7.82417 13.2785 7.92995 13.2149C8.03573 13.1514 8.12608 13.0652 8.19449 12.9625L11.5278 7.96254H11.527Z" fill="#562210"/>
</svg>
