<svg width="52" height="64" viewBox="0 0 52 64" fill="none" xmlns="http://www.w3.org/2000/svg">
<g filter="url(#filter0_d_991_1642)">
<path d="M13 17.9333C13 15.5067 13 14.2933 13.4723 13.366C13.8878 12.5507 14.5507 11.8878 15.366 11.4723C16.2933 11 17.5067 11 19.9333 11H32.0667C34.4933 11 35.7067 11 36.634 11.4723C37.4493 11.8878 38.1122 12.5507 38.5277 13.366C39 14.2933 39 15.5067 39 17.9333V46.7608C39 47.8138 39 48.3403 38.7812 48.6285C38.6866 48.7538 38.5659 48.8571 38.4275 48.9312C38.2891 49.0053 38.1362 49.0484 37.9795 49.0575C37.6177 49.0792 37.18 48.7867 36.3047 48.2038L26 41.3333L15.6953 48.2017C14.82 48.7867 14.3823 49.0792 14.0183 49.0575C13.862 49.048 13.7095 49.0048 13.5715 48.9307C13.4335 48.8567 13.3132 48.7536 13.2188 48.6285C13 48.3403 13 47.8138 13 46.7608V17.9333Z" fill="#EB5436"/>
<path d="M13 17.9333C13 15.5067 13 14.2933 13.4723 13.366C13.8878 12.5507 14.5507 11.8878 15.366 11.4723C16.2933 11 17.5067 11 19.9333 11H32.0667C34.4933 11 35.7067 11 36.634 11.4723C37.4493 11.8878 38.1122 12.5507 38.5277 13.366C39 14.2933 39 15.5067 39 17.9333V46.7608C39 47.8138 39 48.3403 38.7812 48.6285C38.6866 48.7538 38.5659 48.8571 38.4275 48.9312C38.2891 49.0053 38.1362 49.0484 37.9795 49.0575C37.6177 49.0792 37.18 48.7867 36.3047 48.2038L26 41.3333L15.6953 48.2017C14.82 48.7867 14.3823 49.0792 14.0183 49.0575C13.862 49.048 13.7095 49.0048 13.5715 48.9307C13.4335 48.8567 13.3132 48.7536 13.2188 48.6285C13 48.3403 13 47.8138 13 46.7608V17.9333Z" stroke="#EB5436" stroke-linecap="round" stroke-linejoin="round"/>
</g>
<circle cx="26.1765" cy="28.1428" r="5.89916" fill="#EAC261"/>
<path d="M30.4372 19.622C30.4372 20.708 29.2291 21.5883 28.1431 21.5883C27.057 21.5883 26.5044 22.3466 26.5044 21.2606C26.5044 20.1746 29.0234 18.311 30.1094 18.311C31.1954 18.311 30.4372 18.536 30.4372 19.622Z" fill="#86AF66"/>
<path d="M28.8915 22.2035C29.6294 21.8136 30.2471 21.2299 30.6782 20.5152C31.1093 19.8005 31.3375 18.9819 31.3383 18.1473C31.3383 17.9952 31.2779 17.8493 31.1703 17.7417C31.0628 17.6342 30.9169 17.5737 30.7648 17.5737H30.1912C29.3713 17.574 28.5665 17.7941 27.8604 18.2109C27.1544 18.6277 26.5729 19.2261 26.1765 19.9438C25.7802 19.2261 25.1987 18.6277 24.4926 18.2109C23.7866 17.7941 22.9817 17.574 22.1618 17.5737H21.5883C21.4362 17.5737 21.2903 17.6342 21.1827 17.7417C21.0752 17.8493 21.0148 17.9952 21.0148 18.1473C21.0148 18.2994 21.0752 18.4452 21.1827 18.5528C21.2903 18.6604 21.4362 18.7208 21.5883 18.7208H22.1618C22.98 18.7219 23.7711 19.014 24.3937 19.5449C25.0162 20.0758 25.4296 20.8108 25.56 21.6185C24.0419 21.7671 22.629 22.4607 21.5829 23.5709C20.5369 24.6811 19.9285 26.1326 19.8703 27.6569C19.8122 29.1811 20.3082 30.6748 21.2667 31.8615C22.2251 33.0481 23.5811 33.8473 25.0834 34.1111C26.5858 34.3749 28.1329 34.0855 29.4383 33.2964C30.7437 32.5073 31.7189 31.2719 32.1836 29.8191C32.6482 28.3662 32.5707 26.7942 31.9654 25.394C31.3602 23.9939 30.2681 22.8605 28.8915 22.2035ZM30.1432 18.7208C30.0079 19.514 29.5994 20.235 28.9885 20.7587C28.3776 21.2824 27.6027 21.576 26.7981 21.5884C26.9334 20.7952 27.3419 20.0743 27.9528 19.5505C28.5637 19.0268 29.3386 18.7333 30.1432 18.7208ZM26.1765 33.059C25.1556 33.059 24.1577 32.7563 23.3088 32.1891C22.46 31.6219 21.7984 30.8158 21.4077 29.8726C21.017 28.9294 20.9148 27.8915 21.1139 26.8902C21.3131 25.889 21.8047 24.9692 22.5266 24.2473C23.2485 23.5255 24.1682 23.0338 25.1695 22.8347C26.1708 22.6355 27.2087 22.7377 28.1519 23.1284C29.095 23.5191 29.9012 24.1807 30.4684 25.0295C31.0356 25.8784 31.3383 26.8764 31.3383 27.8973C31.3368 29.2658 30.7925 30.5778 29.8248 31.5455C28.8571 32.5132 27.545 33.0575 26.1765 33.059ZM30.1833 28.5654C30.0358 29.3969 29.6365 30.163 29.0394 30.7601C28.4423 31.3572 27.6762 31.7565 26.8447 31.9041C26.8134 31.9092 26.7818 31.9118 26.7501 31.912C26.6063 31.9117 26.4678 31.8575 26.3621 31.76C26.2564 31.6625 26.1911 31.5289 26.1793 31.3856C26.1675 31.2422 26.21 31.0997 26.2983 30.9862C26.3866 30.8727 26.5143 30.7966 26.6561 30.7728C27.2529 30.6668 27.8028 30.3801 28.2314 29.9514C28.66 29.5228 28.9467 28.973 29.0528 28.3762C29.0791 28.2273 29.1632 28.0948 29.2866 28.0076C29.4101 27.9204 29.5631 27.8854 29.7122 27.9104C29.8613 27.9353 29.9945 28.0181 30.0829 28.1408C30.1713 28.2635 30.2076 28.4161 30.1841 28.5654H30.1833Z" fill="#FFF0CB"/>
<defs>
<filter id="filter0_d_991_1642" x="0.4" y="0.4" width="51.2" height="63.2586" filterUnits="userSpaceOnUse" color-interpolation-filters="sRGB">
<feFlood flood-opacity="0" result="BackgroundImageFix"/>
<feColorMatrix in="SourceAlpha" type="matrix" values="0 0 0 0 0 0 0 0 0 0 0 0 0 0 0 0 0 0 127 0" result="hardAlpha"/>
<feOffset dy="2"/>
<feGaussianBlur stdDeviation="6.05"/>
<feComposite in2="hardAlpha" operator="out"/>
<feColorMatrix type="matrix" values="0 0 0 0 0.337255 0 0 0 0 0.133333 0 0 0 0 0.0627451 0 0 0 0.24 0"/>
<feBlend mode="normal" in2="BackgroundImageFix" result="effect1_dropShadow_991_1642"/>
<feBlend mode="normal" in="SourceGraphic" in2="effect1_dropShadow_991_1642" result="shape"/>
</filter>
</defs>
</svg>
