<svg width="76" height="88" viewBox="0 0 76 88" fill="none" xmlns="http://www.w3.org/2000/svg">
<g filter="url(#filter0_d_882_869)">
<path d="M25 29.9333C25 27.5067 25 26.2933 25.4723 25.366C25.8878 24.5507 26.5507 23.8878 27.366 23.4723C28.2933 23 29.5067 23 31.9333 23H44.0667C46.4933 23 47.7067 23 48.634 23.4723C49.4493 23.8878 50.1122 24.5507 50.5277 25.366C51 26.2933 51 27.5067 51 29.9333V58.7608C51 59.8138 51 60.3403 50.7812 60.6285C50.6866 60.7538 50.5659 60.8571 50.4275 60.9312C50.2891 61.0053 50.1362 61.0484 49.9795 61.0575C49.6177 61.0792 49.18 60.7867 48.3047 60.2038L38 53.3333L27.6953 60.2017C26.82 60.7867 26.3823 61.0792 26.0183 61.0575C25.862 61.048 25.7095 61.0048 25.5715 60.9307C25.4335 60.8567 25.3132 60.7536 25.2188 60.6285C25 60.3403 25 59.8138 25 58.7608V29.9333Z" fill="#EB5436"/>
<path d="M25 29.9333C25 27.5067 25 26.2933 25.4723 25.366C25.8878 24.5507 26.5507 23.8878 27.366 23.4723C28.2933 23 29.5067 23 31.9333 23H44.0667C46.4933 23 47.7067 23 48.634 23.4723C49.4493 23.8878 50.1122 24.5507 50.5277 25.366C51 26.2933 51 27.5067 51 29.9333V58.7608C51 59.8138 51 60.3403 50.7812 60.6285C50.6866 60.7538 50.5659 60.8571 50.4275 60.9312C50.2891 61.0053 50.1362 61.0484 49.9795 61.0575C49.6177 61.0792 49.18 60.7867 48.3047 60.2038L38 53.3333L27.6953 60.2017C26.82 60.7867 26.3823 61.0792 26.0183 61.0575C25.862 61.048 25.7095 61.0048 25.5715 60.9307C25.4335 60.8567 25.3132 60.7536 25.2188 60.6285C25 60.3403 25 59.8138 25 58.7608V29.9333Z" stroke="#EB5436" stroke-width="1.5" stroke-linecap="round" stroke-linejoin="round"/>
</g>
<circle cx="38" cy="39.8787" r="5.89916" fill="#EAC261"/>
<path d="M42.2604 31.3568C42.2604 32.4428 41.0523 33.3232 39.9663 33.3232C38.8803 33.3232 38.3276 34.0815 38.3276 32.9955C38.3276 31.9095 40.8467 30.0459 41.9327 30.0459C43.0187 30.0459 42.2604 30.2708 42.2604 31.3568Z" fill="#86AF66"/>
<path d="M40.715 33.9384C41.4529 33.5485 42.0706 32.9648 42.5017 32.2501C42.9328 31.5354 43.161 30.7168 43.1618 29.8821C43.1618 29.73 43.1014 29.5841 42.9938 29.4766C42.8862 29.369 42.7404 29.3086 42.5883 29.3086H42.0147C41.1948 29.3089 40.39 29.5289 39.6839 29.9457C38.9779 30.3626 38.3964 30.961 38 31.6787C37.6036 30.961 37.0222 30.3626 36.3161 29.9457C35.6101 29.5289 34.8052 29.3089 33.9853 29.3086H33.4118C33.2597 29.3086 33.1138 29.369 33.0062 29.4766C32.8987 29.5841 32.8383 29.73 32.8383 29.8821C32.8383 30.0342 32.8987 30.1801 33.0062 30.2877C33.1138 30.3952 33.2597 30.4557 33.4118 30.4557H33.9853C34.8035 30.4568 35.5946 30.7489 36.2171 31.2798C36.8397 31.8107 37.2531 32.5457 37.3835 33.3534C35.8654 33.502 34.4525 34.1956 33.4064 35.3057C32.3604 36.4159 31.7519 37.8675 31.6938 39.3917C31.6357 40.916 32.1317 42.4097 33.0902 43.5963C34.0486 44.783 35.4045 45.5822 36.9069 45.846C38.4093 46.1098 39.9564 45.8204 41.2618 45.0312C42.5671 44.2421 43.5424 43.0068 44.0071 41.5539C44.4717 40.101 44.3942 38.529 43.7889 37.1289C43.1837 35.7287 42.0916 34.5953 40.715 33.9384ZM41.9667 30.4557C41.8314 31.2489 41.4229 31.9698 40.812 32.4936C40.2011 33.0173 39.4262 33.3108 38.6216 33.3233C38.7569 32.5301 39.1653 31.8091 39.7763 31.2854C40.3872 30.7617 41.1621 30.4681 41.9667 30.4557ZM38 44.7939C36.9791 44.7939 35.9811 44.4912 35.1323 43.924C34.2834 43.3568 33.6218 42.5506 33.2312 41.6074C32.8405 40.6643 32.7383 39.6264 32.9374 38.6251C33.1366 37.6238 33.6282 36.7041 34.3501 35.9822C35.072 35.2603 35.9917 34.7687 36.993 34.5695C37.9943 34.3704 39.0321 34.4726 39.9753 34.8633C40.9185 35.254 41.7247 35.9156 42.2919 36.7644C42.859 37.6132 43.1618 38.6112 43.1618 39.6321C43.1603 41.0006 42.6159 42.3127 41.6483 43.2804C40.6806 44.2481 39.3685 44.7924 38 44.7939ZM42.0068 40.3003C41.8593 41.1318 41.46 41.8978 40.8629 42.495C40.2657 43.0921 39.4996 43.4914 38.6682 43.6389C38.6369 43.644 38.6052 43.6467 38.5735 43.6468C38.4297 43.6466 38.2913 43.5924 38.1856 43.4949C38.0799 43.3974 38.0146 43.2637 38.0028 43.1204C37.991 42.9771 38.0335 42.8346 38.1218 42.7211C38.2101 42.6076 38.3378 42.5314 38.4796 42.5077C39.0764 42.4016 39.6263 42.1149 40.0549 41.6863C40.4835 41.2577 40.7702 40.7078 40.8763 40.111C40.9026 39.9621 40.9866 39.8297 41.1101 39.7425C41.2336 39.6552 41.3866 39.6203 41.5357 39.6452C41.6848 39.6702 41.818 39.753 41.9064 39.8757C41.9948 39.9983 42.0311 40.1509 42.0076 40.3003H42.0068Z" fill="#FFF0CB"/>
<defs>
<filter id="filter0_d_882_869" x="0.35" y="0.35" width="75.3" height="87.3586" filterUnits="userSpaceOnUse" color-interpolation-filters="sRGB">
<feFlood flood-opacity="0" result="BackgroundImageFix"/>
<feColorMatrix in="SourceAlpha" type="matrix" values="0 0 0 0 0 0 0 0 0 0 0 0 0 0 0 0 0 0 127 0" result="hardAlpha"/>
<feOffset dy="2"/>
<feGaussianBlur stdDeviation="11.95"/>
<feComposite in2="hardAlpha" operator="out"/>
<feColorMatrix type="matrix" values="0 0 0 0 0.337255 0 0 0 0 0.133333 0 0 0 0 0.0627451 0 0 0 1 0"/>
<feBlend mode="normal" in2="BackgroundImageFix" result="effect1_dropShadow_882_869"/>
<feBlend mode="normal" in="SourceGraphic" in2="effect1_dropShadow_882_869" result="shape"/>
</filter>
</defs>
</svg>
