<svg width="73" height="95" viewBox="0 0 73 95" fill="none" xmlns="http://www.w3.org/2000/svg">
<mask id="mask0_1119_18" style="mask-type:luminance" maskUnits="userSpaceOnUse" x="0" y="34" width="70" height="59">
<path d="M5.88892 34.2183L69.316 41.0749L63.7901 92.192L0.362992 85.3353L5.88892 34.2183Z" fill="white"/>
</mask>
<g mask="url(#mask0_1119_18)">
<path d="M32.2733 88.6738C34.4087 88.9148 36.5612 88.1576 38.2962 86.8705C38.9004 86.4207 39.7009 86.3961 40.3442 86.799C42.0285 87.8497 44.1621 88.5753 46.2398 88.4161C48.3175 88.2569 50.3083 87.2196 51.671 85.6397C52.1804 85.0383 52.9948 84.793 53.7319 85.0747C55.8747 85.9023 58.1486 86.0774 60.2317 85.4945C63.8493 84.4513 65.0168 79.9111 62.3209 77.2865C52.7807 67.993 47.5794 53.3203 42.3497 40.6849C41.9341 39.6704 32.7393 39.8884 32.1176 40.7808C24.3185 52.0077 16.6493 64.0871 5.35339 71.1281C2.15886 73.116 2.32914 77.8008 5.64026 79.593C7.5407 80.6065 9.80945 80.9225 12.0795 80.5719C12.8599 80.4543 13.593 80.8669 13.9722 81.5644C14.9557 83.3979 16.6789 84.8366 18.6845 85.4373C20.6802 86.0368 22.9096 85.7829 24.7895 85.1175C25.494 84.8603 26.2708 85.0554 26.7649 85.6239C28.1948 87.2532 30.1257 88.4518 32.2733 88.6738Z" fill="#4DB748"/>
</g>
<mask id="mask1_1119_18" style="mask-type:luminance" maskUnits="userSpaceOnUse" x="0" y="34" width="70" height="61">
<path d="M5.88892 34.2183L69.316 41.0749L63.5138 94.7478L0.0866958 87.8912L5.88892 34.2183Z" fill="white"/>
</mask>
<g mask="url(#mask1_1119_18)">
<path d="M32.1897 89.6344C32.1697 89.6322 32.1597 89.6311 32.1398 89.629C29.8934 89.3861 27.7307 88.1827 26.0405 86.2526C25.8168 85.986 25.4428 85.8951 25.106 86.0203C22.8052 86.8422 20.4191 86.958 18.4034 86.3562C16.1724 85.6909 14.2426 84.1086 13.1252 82.0182C12.9312 81.6639 12.5791 81.4642 12.2199 81.5163C9.68268 81.9086 7.23853 81.5333 5.18592 80.4327C3.31435 79.4324 2.16324 77.5606 2.08822 75.4516C2.02318 73.3437 3.0488 71.4243 4.83536 70.3145C14.9171 64.0411 22.1418 53.55 29.1369 43.4078C29.8678 42.3455 30.5988 41.2831 31.3287 40.2308C32.381 38.7184 39.7156 39.077 40.6641 39.1795C42.2515 39.3511 42.9744 39.6716 43.248 40.3174C43.8468 41.7861 44.4533 43.2758 45.0678 44.7866C49.8055 56.4598 54.703 68.5239 62.991 76.6013C64.4991 78.0673 65.0908 80.1615 64.5768 82.2068C64.0628 84.2522 62.5393 85.8247 60.4962 86.4119C58.2458 87.0474 55.7879 86.8928 53.3831 85.9662C53.0434 85.8385 52.6667 85.9594 52.4015 86.2641C50.8532 88.0663 48.6397 89.2007 46.3081 89.3728C44.2094 89.5399 41.9042 88.9069 39.8321 87.6122C39.5299 87.4179 39.1541 87.4379 38.8696 87.6395C36.806 89.1638 34.436 89.8772 32.1897 89.6344ZM25.7113 84.0656C26.3902 84.139 27.0221 84.4598 27.4895 84.9952C28.8659 86.558 30.5888 87.5321 32.3459 87.7221C32.3559 87.7232 32.3659 87.7242 32.3759 87.7253L32.3958 87.7275C34.163 87.9185 36.0542 87.3351 37.7229 86.1014C38.6457 85.4134 39.8721 85.3742 40.8564 85.9857C42.5596 87.0485 44.4908 87.5906 46.1616 87.4581C47.9544 87.3186 49.7393 86.4106 50.9406 85.0153C51.7274 84.0903 52.9862 83.7517 54.082 84.1731C56.0882 84.9556 58.1246 85.0849 59.9684 84.5671C61.3334 84.1793 62.3672 83.1194 62.709 81.7322C63.0587 80.366 62.6553 78.9589 61.651 77.9715C53.0695 69.62 47.8692 56.806 43.2834 45.5027C42.7102 44.0772 42.136 42.6617 41.5586 41.2761C40.2175 40.7877 34.0543 40.8992 32.8327 41.4539C32.1282 42.4585 31.4226 43.4731 30.7259 44.4987C23.6226 54.801 16.2786 65.461 5.86154 71.9405C4.65944 72.6893 3.97461 73.9788 4.01428 75.3871C4.06178 76.8164 4.83512 78.0717 6.09578 78.7433C7.7763 79.6421 9.7933 79.951 11.9304 79.6164C13.0809 79.4378 14.2382 80.0376 14.8192 81.1105C15.6846 82.7292 17.2342 83.9977 18.9557 84.5171C20.5596 85.0036 22.5621 84.8867 24.463 84.2135C24.8729 84.0659 25.3019 84.0214 25.7113 84.0656Z" fill="#703627"/>
</g>
<path d="M34.834 64.9836C36.5801 65.1824 38.3338 64.564 39.7612 63.5062C40.2547 63.1454 40.9034 63.1247 41.4333 63.4547C42.8054 64.31 44.5494 64.9026 46.2501 64.7733C47.9509 64.644 49.5785 63.7898 50.6869 62.5056C51.1036 62.0153 51.7727 61.8049 52.3734 62.0415C54.1187 62.715 55.9811 62.8658 57.6796 62.3828C60.6402 61.5312 61.5962 57.8267 59.3941 55.6796C51.59 48.0788 44.3026 36.3522 40.0357 26.0227C39.6906 25.1976 38.5824 25.0778 38.0789 25.8112C31.6931 34.989 22.0679 44.8873 12.8297 50.6459C10.2196 52.2727 10.3618 56.0959 13.0621 57.5595C14.6182 58.3944 16.4698 58.645 18.3286 58.3611C18.966 58.2583 19.5647 58.6059 19.8769 59.1749C20.6754 60.6652 22.0828 61.8476 23.7267 62.3384C25.3605 62.8282 27.1808 62.6209 28.714 62.0797C29.2922 61.8695 29.9314 62.0295 30.3365 62.4874C31.4949 63.8246 33.0858 64.8047 34.834 64.9836Z" fill="#4DB748"/>
<path d="M34.7504 65.944C34.7304 65.9419 34.7204 65.9408 34.7104 65.9397C32.8235 65.7357 31.0229 64.733 29.6109 63.1259C29.4673 62.9589 29.2509 62.9052 29.0404 62.9835C27.1184 63.6645 25.1381 63.7636 23.4455 63.2574C21.5763 62.7018 19.9622 61.3758 19.0199 59.6276C18.9028 59.4028 18.684 59.2782 18.4689 59.3054C16.3529 59.6322 14.3259 59.3222 12.6066 58.4091C11.0226 57.551 10.0421 55.9703 9.99349 54.1773C9.93277 52.4032 10.8062 50.7704 12.3216 49.8333C20.899 44.4881 30.4613 35.0779 37.2898 25.2611C37.7216 24.6311 38.4647 24.2973 39.2235 24.3793C39.9822 24.4613 40.6269 24.9452 40.924 25.654C45.4869 36.7023 52.8272 47.9397 60.0641 54.9944C61.3442 56.2337 61.8385 58.0143 61.41 59.7356C60.9694 61.4758 59.6737 62.8104 57.954 63.3012C56.0682 63.8347 54.0218 63.7043 52.0245 62.9329C51.8202 62.8603 51.5798 62.9353 51.4174 63.1299C50.1233 64.6363 48.2741 65.5778 46.3184 65.73C44.5666 65.8638 42.6432 65.3428 40.9212 64.2678C40.7223 64.1453 40.5094 64.1526 40.3346 64.2751C38.6106 65.5533 36.6273 66.1469 34.7504 65.944ZM34.9366 64.035C34.9366 64.035 34.9465 64.036 34.9565 64.0371C36.3543 64.1882 37.8489 63.7236 39.1778 62.736C39.99 62.1369 41.0755 62.0927 41.9355 62.6402C43.2987 63.4845 44.848 63.9146 46.1718 63.8153C47.5976 63.7068 49.0094 62.9807 49.9565 61.8811C50.6505 61.0673 51.763 60.7734 52.7123 61.1488C54.3221 61.7672 55.947 61.8722 57.4163 61.4553C58.4789 61.156 59.2749 60.333 59.5412 59.271C59.8075 58.2089 59.5004 57.1253 58.7141 56.3635C51.3037 49.1385 43.8085 37.6521 39.1474 26.3912C39.1296 26.3691 39.1072 26.2959 39.0173 26.2862C38.9275 26.2765 38.88 26.3421 38.8678 26.361C31.9068 36.3756 22.12 45.9938 13.3378 51.4582C12.4168 52.0354 11.8853 53.0283 11.9185 54.1228C11.9517 55.2172 12.5534 56.1913 13.5275 56.7107C14.8637 57.4309 16.4735 57.6756 18.1783 57.4155C19.1959 57.2528 20.2199 57.7776 20.7239 58.721C21.4142 59.9975 22.6381 61.0086 23.9978 61.4182C25.2798 61.7992 26.8753 61.709 28.3874 61.1756C29.3445 60.8245 30.3955 61.0998 31.0609 61.8585C32.1481 63.1073 33.5189 63.8817 34.9166 64.0328C34.9166 64.0328 34.9266 64.0339 34.9366 64.035Z" fill="#703627"/>
<path d="M37.3218 41.9697C38.6796 42.1164 40.0555 41.6288 41.1642 40.8094C41.5482 40.5277 42.0649 40.5128 42.4716 40.7689C43.5504 41.441 44.9046 41.9005 46.2384 41.8023C47.5633 41.693 48.8366 41.0327 49.7031 40.0255C50.0269 39.6463 50.5498 39.4807 51.015 39.6623C52.3817 40.1938 53.8337 40.3104 55.1677 39.9294C57.4713 39.2693 58.2189 36.3705 56.5006 34.7C50.4048 28.7686 44.7186 19.6089 41.3789 11.5412C41.1152 10.8966 40.2566 10.8037 39.8514 11.3761C34.8746 18.5447 27.3523 26.2765 20.1397 30.7693C18.104 32.034 18.205 35.0245 20.3242 36.1627C21.5361 36.8189 22.9794 37.0153 24.4281 36.7881C24.9314 36.7112 25.3968 36.9838 25.6421 37.4244C26.2732 38.5936 27.3661 39.5096 28.647 39.9006C29.919 40.2805 31.3502 40.1221 32.5377 39.695C32.9996 39.5328 33.4913 39.6567 33.8062 40.0139C34.7142 41.0514 35.954 41.8218 37.3218 41.9697Z" fill="#4DB748"/>
<path d="M37.2294 42.9196C37.2194 42.9185 37.2095 42.9174 37.1995 42.9164C35.6819 42.7523 34.2135 41.9471 33.0818 40.643C33.0273 40.5866 32.9485 40.568 32.8643 40.5993C31.3301 41.1506 29.7257 41.2297 28.366 40.8201C26.8598 40.3643 25.5513 39.2936 24.7953 37.8786C24.7529 37.8034 24.6706 37.7238 24.5775 37.744C22.8827 38.0052 21.254 37.7483 19.8689 37.0128C18.5616 36.3058 17.7626 35.0074 17.7095 33.5371C17.6663 32.0678 18.3865 30.7316 19.6317 29.9572C26.303 25.7999 33.7512 18.4742 39.0625 10.8265C39.4457 10.272 40.1035 9.97953 40.7724 10.0518C41.4414 10.1242 42.0115 10.5494 42.2673 11.173C45.8316 19.7801 51.5321 28.5272 57.1708 34.0153C58.2218 35.038 58.6398 36.4972 58.2736 37.9222C57.9175 39.3483 56.8495 40.4449 55.4312 40.8572C53.921 41.2797 52.275 41.1826 50.6652 40.5642C50.5885 40.5256 50.4812 40.5847 50.4337 40.6502C49.3827 41.8699 47.8856 42.6373 46.3069 42.7595C44.891 42.8691 43.3506 42.4501 41.9596 41.5825C41.884 41.534 41.8031 41.5353 41.7378 41.5788C40.3535 42.6109 38.757 43.0847 37.2294 42.9196ZM37.4256 41.0116L37.4356 41.0127C38.4739 41.1249 39.5918 40.7812 40.591 40.0407C41.2936 39.5208 42.2372 39.4814 42.9839 39.956C44.006 40.5917 45.1725 40.9198 46.1603 40.8448C47.2092 40.7663 48.2577 40.2231 48.9728 39.4015C49.5629 38.7077 50.5303 38.4487 51.364 38.7711C52.5764 39.2355 53.7998 39.3172 54.9034 39.0123C55.6546 38.7905 56.2118 38.2144 56.4058 37.4476C56.5977 36.7007 56.378 35.9295 55.8208 35.3844C50.0453 29.7604 44.2123 20.8373 40.5555 12.0586C35.1071 19.853 27.4919 27.3223 20.6479 31.5821C19.9871 31.9955 19.6077 32.7019 19.6355 33.4726C19.6612 34.2632 20.0924 34.9461 20.7788 35.3233C21.7918 35.8571 23.0044 36.0387 24.288 35.8441C25.1714 35.7073 26.0511 36.166 26.4893 36.9709C27.0022 37.9253 27.9105 38.68 28.9283 38.982C29.8773 39.2664 31.077 39.194 32.2213 38.7925C33.0521 38.4884 33.9555 38.7275 34.5308 39.3856C35.3487 40.3225 36.3673 40.8972 37.4056 41.0094C37.4156 41.0105 37.4156 41.0105 37.4256 41.0116Z" fill="#703627"/>
<path d="M42.4839 5.80326L42.8611 7.73283C42.9715 8.30028 43.4307 8.72365 43.9998 8.78517L46.0165 9.00318C47.2645 9.13809 47.6242 10.7628 46.5538 11.4147L44.6741 12.5447C44.2092 12.8278 43.968 13.3774 44.0716 13.9139L44.4782 16.0385C44.7281 17.2776 43.2246 18.1049 42.2994 17.2271L40.9348 15.9282C40.5033 15.528 39.8544 15.4579 39.3574 15.7577L37.7368 16.7339C36.6553 17.3947 35.3633 16.2652 35.8622 15.1071L36.7235 13.1195C36.9394 12.6176 36.8212 12.0291 36.4275 11.6533L34.8228 10.1465C33.9164 9.2809 34.625 7.77172 35.863 7.90555L37.8797 8.12357C38.4488 8.18509 38.9879 7.86965 39.217 7.33889L39.9979 5.53452C40.509 4.35751 42.2362 4.54422 42.4839 5.80326Z" fill="#F9B234"/>
<path d="M36.8154 17.8763C36.3761 17.8288 35.942 17.6405 35.5718 17.3277C34.8146 16.6702 34.582 15.6451 34.9752 14.7179L35.8354 12.7403C35.8904 12.6049 35.8667 12.4508 35.7566 12.348L34.1619 10.8423C33.4479 10.1591 33.2552 9.13834 33.6651 8.24331C34.085 7.34935 34.9883 6.84098 35.9668 6.94675L37.9835 7.16477C38.1332 7.18096 38.2727 7.10513 38.3389 6.96077L39.1197 5.1564C39.5239 4.22035 40.4395 3.69309 41.4478 3.8021C42.4562 3.91111 43.2379 4.62184 43.4327 5.62265L43.81 7.55222C43.8337 7.70629 43.9538 7.81018 44.1135 7.82745L46.1203 8.04438C47.1087 8.15123 47.8826 8.84092 48.0917 9.80287C48.3108 10.7659 47.9044 11.7219 47.051 12.2357L45.1713 13.3657C45.0518 13.4437 44.9857 13.5881 45.0116 13.7222L45.4282 15.8479C45.6241 16.8388 45.1778 17.7905 44.2876 18.27C43.4074 18.7505 42.3713 18.6183 41.6384 17.923L40.2639 16.6229C40.1538 16.5201 39.9841 16.5018 39.8545 16.5787L38.2339 17.5549C37.7911 17.8202 37.2947 17.9281 36.8154 17.8763ZM35.7595 8.86364C35.5599 8.84206 35.467 8.95323 35.4152 9.05873C35.3766 9.13536 35.3383 9.30293 35.494 9.45107L37.0887 10.9567C37.776 11.6067 37.9787 12.6286 37.602 13.4969L36.7507 15.4856C36.6692 15.6788 36.7472 15.7983 36.8394 15.879C36.9228 15.9486 37.0561 16.0236 37.2399 15.9122L38.8505 14.9349C39.725 14.4133 40.8532 14.5352 41.596 15.2317L42.9606 16.5306C43.1163 16.6788 43.2625 16.634 43.3688 16.5849C43.4663 16.5247 43.578 16.4257 43.5396 16.2195L43.123 14.0938C42.9406 13.165 43.3659 12.2211 44.1772 11.723L46.0569 10.5929C46.2307 10.4804 46.2369 10.3296 46.2077 10.2254C46.1975 10.1334 46.1227 9.98394 45.9131 9.96127L43.9063 9.74434C42.9079 9.63641 42.1084 8.90355 41.9214 7.92379L41.5353 5.98316C41.497 5.777 41.3515 5.72088 41.2417 5.70901C41.1219 5.69606 40.9678 5.7198 40.8863 5.913L40.1044 7.72736C39.7023 8.64344 38.7746 9.18959 37.7763 9.08166L35.7595 8.86364Z" fill="#703627"/>
</svg>
