<svg width="345" height="345" viewBox="0 0 345 345" fill="none" xmlns="http://www.w3.org/2000/svg">
<mask id="mask0_561_6138" style="mask-type:luminance" maskUnits="userSpaceOnUse" x="57" y="68" width="207" height="207">
<path d="M57 68H264V275H57V68Z" fill="white"/>
</mask>
<g mask="url(#mask0_561_6138)">
<path d="M258.575 168.807C258.575 113.13 213.445 68 157.787 68C102.11 68 57 113.13 57 168.807C57 224.465 102.11 269.595 157.787 269.595C213.445 269.595 258.575 224.465 258.575 168.807Z" fill="#F4B324"/>
</g>
<path d="M157.5 201.339C151.152 201.339 145.869 196.455 145.396 190.133L139.029 105.033C138.595 99.263 143.149 94.3394 148.944 94.3394H166.036C171.832 94.3394 176.405 99.263 175.972 105.033L169.584 190.133C169.111 196.455 163.848 201.339 157.5 201.339Z" fill="white"/>
<path d="M173 227.839C173 219.287 166.052 212.339 157.5 212.339C148.928 212.339 142 219.287 142 227.839C142 236.411 148.928 243.339 157.5 243.339C166.052 243.339 173 236.411 173 227.839Z" fill="white"/>
<path d="M267.88 214.636C272.285 217.536 278.548 224.617 281.709 229.252C284.594 235.84 285.72 243.217 284.534 250.278C283.349 257.36 279.773 264.086 274.379 269.036C266.141 273.336 257.092 276.078 247.827 277.064C244.014 277.478 240.043 277.577 236.447 276.256C232.851 274.914 229.69 271.877 229.078 268.543C226.944 269.727 225.008 271.206 222.815 272.251C220.622 273.297 218.034 273.869 215.742 273.08C213.075 272.192 211.218 269.411 211.396 266.669C208.926 267.143 206.377 267.616 203.928 267.025C201.478 266.453 199.166 264.539 199.008 262.054C198.929 260.752 199.423 259.49 200.095 258.346C201.458 255.999 203.533 254.046 205.666 253.533C206.536 252.172 205.607 250.436 204.817 249.036C200.194 240.89 199.937 230.455 204.105 221.224C224.929 217.871 243.5 213.098 267.88 214.636Z" fill="#DDA783"/>
<path d="M250 275.956C249.519 271.476 248.816 266.956 246.991 262.809C245.166 258.68 242.097 254.885 237.784 253.339C233.291 255.726 230.081 260.383 230.001 265.332C229.941 270.263 233.27 275.193 238.145 276.739C241.715 277.893 245.587 277.247 250 275.956Z" fill="#B37164"/>
<path d="M212.199 261.339C217.927 262.127 223.043 266.209 225 271.524C223.206 273.323 220.679 274.434 218.11 274.333C215.542 274.212 213.034 272.797 211.852 270.574C211.057 269.079 210.894 267.361 211.057 265.684C211.22 264.027 211.709 262.41 212.199 261.339Z" fill="#B37164"/>
<mask id="mask1_561_6138" style="mask-type:luminance" maskUnits="userSpaceOnUse" x="224" y="212" width="65" height="67">
<path d="M224.762 212.478H288.385V278.624H224.762V212.478Z" fill="white"/>
</mask>
<g mask="url(#mask1_561_6138)">
<path d="M243.749 278.585C242.309 278.585 240.85 278.467 239.391 278.21C235.271 277.441 231.821 275.312 229.967 272.374C226.616 267.13 228.705 260.111 232.471 255.892C236.375 251.555 241.935 249.11 246.824 246.98C247.416 246.704 248.126 246.98 248.382 247.572C248.658 248.163 248.382 248.853 247.79 249.11C243.118 251.16 237.814 253.487 234.246 257.45C231.071 261.018 229.257 266.854 231.978 271.132C233.477 273.518 236.355 275.253 239.825 275.904C243.137 276.515 246.607 276.16 249.88 275.766C257.707 274.78 266.619 273.084 273.243 267.998C283.259 260.289 285.862 245.62 282.53 236.452C280.972 232.154 276.851 223.716 266.737 215.652C266.244 215.258 266.166 214.508 266.56 214.016C266.974 213.503 267.723 213.424 268.236 213.838C278.784 222.257 283.121 231.129 284.777 235.664C288.385 245.6 285.566 261.491 274.702 269.831C267.624 275.292 258.338 277.067 250.176 278.072C248.106 278.348 245.937 278.585 243.749 278.585Z" fill="#703627"/>
</g>
<path d="M218.155 275.339C216.656 275.339 215.235 274.998 214.051 274.314C210.224 272.102 209.336 267.096 210.441 263.276C211.546 259.436 214.229 256.42 216.596 253.746C217.031 253.243 217.78 253.203 218.273 253.645C218.767 254.088 218.806 254.832 218.372 255.334C216.182 257.807 213.677 260.622 212.73 263.939C211.901 266.794 212.493 270.655 215.235 272.223C216.715 273.088 218.767 273.188 220.858 272.504C222.851 271.841 226.915 269.247 228.927 266.996C229.381 266.513 230.131 266.473 230.604 266.915C231.097 267.357 231.137 268.121 230.683 268.604C228.394 271.157 223.916 274.012 221.588 274.776C220.444 275.158 219.28 275.339 218.155 275.339Z" fill="#703627"/>
<path d="M202.553 255.339C204.729 256.207 206.301 258.135 207.087 260.237C207.893 262.338 208.034 264.613 207.994 266.85C205.958 267.312 203.681 267.717 201.847 266.734C200.96 266.252 200.275 265.461 199.812 264.594C198.965 263.013 198.764 261.143 199.288 259.446C199.812 257.749 201.041 256.246 202.553 255.339Z" fill="#B37164"/>
<path d="M214.795 259.339C214.613 259.339 214.451 259.3 214.269 259.221C213.339 258.806 191.612 248.673 203.597 222.048C203.88 221.455 204.588 221.179 205.214 221.435C205.821 221.692 206.104 222.383 205.841 222.976C194.785 247.528 214.471 256.712 215.3 257.088C215.906 257.364 216.169 258.075 215.886 258.648C215.684 259.083 215.239 259.339 214.795 259.339Z" fill="#703627"/>
<path d="M204.369 268.339C204.211 268.339 204.052 268.339 203.913 268.339C201.571 268.183 199.546 267.228 198.316 265.747C196.192 263.116 196.926 259.433 198.494 257.114C200.201 254.6 203.853 251.793 205.898 250.527C206.453 250.176 207.188 250.332 207.545 250.877C207.902 251.404 207.743 252.125 207.188 252.476C204.925 253.879 201.809 256.432 200.479 258.381C199.328 260.076 198.872 262.649 200.201 264.305C200.995 265.28 202.404 265.903 204.072 266.02C205.6 266.118 208.795 265.416 210.423 264.87C211.038 264.656 211.713 264.987 211.931 265.591C212.15 266.196 211.832 266.839 211.197 267.053C209.589 267.599 206.433 268.339 204.369 268.339Z" fill="#703627"/>
<path d="M219.718 235.118C225.7 240.011 235.312 247.656 236.92 244.665C243.57 242.784 249.729 239.238 254.574 234.385C259.419 229.513 263.754 221.57 265.48 214.934C269.03 215.35 272.09 215.311 273.855 212.221C275.621 209.111 275.287 205.031 273.247 202.119C271.207 199.187 267.578 197.523 264.028 197.603C263.754 194.176 262.577 191.264 260.87 188.67C263.597 186.847 265.146 183.658 264.813 180.548C264.479 177.439 262.165 174.567 259.144 173.754C256.123 172.942 252.593 174.349 251.102 177.102C245.178 171.734 236.861 167 227.838 164.762C218.796 162.504 209.008 162.841 200.436 166.446C191.923 170.05 174.936 184.51 185.195 205.506C189.295 213.132 193.59 218.916 207.89 224.085C211.205 227.73 214.814 231.097 219.718 235.118Z" fill="#DDA783"/>
<path d="M266.86 216.339C264.134 216.339 261.191 215.484 258.092 213.774C257.523 213.456 257.307 212.74 257.641 212.164C257.955 211.607 258.661 211.388 259.23 211.706C262.231 213.357 265.017 214.112 267.508 213.953C270.45 213.754 273.04 212.183 274.099 209.917C275.099 207.749 274.707 204.945 273.099 202.917C271.588 201.008 269.058 199.815 266.35 199.696C263.879 199.616 261.211 200.412 258.818 201.983C258.268 202.341 257.543 202.181 257.189 201.625C256.836 201.088 256.993 200.352 257.523 199.994C260.328 198.165 263.486 197.23 266.449 197.35C269.823 197.469 273.02 199 274.943 201.466C277.1 204.17 277.61 207.968 276.237 210.911C274.825 213.953 271.451 216.061 267.665 216.319C267.39 216.319 267.115 216.339 266.86 216.339Z" fill="#703627"/>
<path d="M270.847 206.339C270.599 206.339 270.35 206.267 270.14 206.103C267.524 204.156 263.571 203.956 260.763 205.63C260.228 205.939 259.522 205.794 259.178 205.284C258.834 204.775 259.006 204.101 259.541 203.792C263.15 201.645 268.211 201.9 271.553 204.411C272.069 204.775 272.145 205.448 271.744 205.921C271.515 206.194 271.191 206.339 270.847 206.339Z" fill="#703627"/>
<path d="M227.649 202.723C227.935 204.19 228.205 205.757 227.776 207.164C227.633 207.646 227.363 208.128 226.965 208.289C226.536 208.45 226.074 208.208 225.756 207.827C225.454 207.425 225.279 206.922 225.104 206.4C224.739 205.295 224.405 204.17 224.166 203.004C224.039 202.341 223.943 201.638 224.039 200.955C224.15 200.271 224.516 199.628 225.041 199.407C225.613 199.186 226.265 199.528 226.679 200.091C227.092 200.653 227.394 201.336 227.649 202.723Z" fill="#703627"/>
<path d="M214.56 173.371C216.087 175.573 217.496 177.936 218.319 180.521C219.121 183.107 219.297 185.955 218.397 188.52C217.359 191.469 215.01 193.751 212.602 195.69C209.979 197.791 207.179 199.669 204.164 201.063C202.402 201.871 200.503 202.517 198.585 202.295C195.413 201.932 193.005 199.306 190.91 196.842C188.914 194.499 186.878 192.115 185.507 189.328C184.156 186.541 183.51 183.268 184.43 180.299C185.057 178.239 186.369 176.482 187.876 174.967C191.048 171.735 195.041 169.473 199.192 167.716C201.267 166.847 203.518 166.08 205.75 166.423C209.019 166.928 211.799 169.412 214.56 173.371Z" fill="#B27966"/>
<path d="M206.838 173.89C206.564 174.766 206.016 175.557 205.311 176.07C205.018 176.284 204.607 176.455 204.313 176.241C204.02 176.027 204 175.6 204 175.237C204 174.446 204 173.634 204.215 172.864C204.411 172.159 204.881 171.432 205.566 171.347C206.075 171.283 206.603 171.646 206.838 172.159C207.073 172.65 207.034 173.249 206.838 173.89Z" fill="#703627"/>
<path d="M212.125 183.351C211.229 183.294 210.312 183.449 209.558 183.788C209.252 183.929 208.947 184.141 209.008 184.395C209.069 184.635 209.436 184.762 209.762 184.86C210.475 185.058 211.188 185.269 211.962 185.326C212.675 185.382 213.51 185.269 213.857 184.832C214.122 184.508 213.999 184.084 213.653 183.788C213.307 183.506 212.777 183.393 212.125 183.351Z" fill="#703627"/>
<path d="M194.98 188.339C193.04 188.339 191.319 187.485 190.508 186.047C189.637 184.493 189.894 182.394 191.22 180.685C191.517 180.316 192.071 180.219 192.467 180.51C192.862 180.801 192.942 181.345 192.645 181.734C191.774 182.861 191.537 184.26 192.071 185.212C192.585 186.125 193.812 186.649 195.178 186.61L196.048 186.047C198.344 184.609 200.6 183.172 202.618 181.928C203.034 181.656 203.588 181.773 203.865 182.181C204.122 182.589 204.003 183.113 203.588 183.385C201.569 184.629 199.313 186.066 197.038 187.504L195.771 188.3L195.554 188.32C195.356 188.339 195.158 188.339 194.98 188.339Z" fill="#703627"/>
<path d="M199.743 194.339C198.279 194.339 196.929 193.776 196.066 192.713C194.846 191.238 194.659 188.94 195.578 186.858C195.784 186.381 196.291 186.207 196.704 186.446C197.135 186.684 197.285 187.27 197.079 187.747C196.497 189.07 196.572 190.501 197.304 191.39C198.054 192.323 199.518 192.648 200.943 192.236C201.394 192.106 201.863 192.431 201.975 192.93C202.088 193.45 201.806 193.971 201.356 194.122C200.812 194.274 200.268 194.339 199.743 194.339Z" fill="#703627"/>
<path d="M260.906 189.339C260.529 189.339 260.173 189.172 259.935 188.874C259.559 188.39 259.678 187.702 260.193 187.33C262.649 185.692 263.777 183.701 263.599 181.394C263.401 178.807 261.282 176.425 258.569 175.774C255.935 175.104 253.776 175.904 252.172 178.119C251.815 178.621 251.063 178.751 250.528 178.416C249.974 178.081 249.835 177.393 250.211 176.872C252.37 173.895 255.559 172.741 259.183 173.634C262.847 174.527 265.698 177.728 265.976 181.226C266.213 184.297 264.708 187.032 261.599 189.135C261.381 189.265 261.143 189.339 260.906 189.339Z" fill="#703627"/>
<path d="M207.875 224.339C207.757 224.339 207.638 224.32 207.52 224.3C198.944 221.647 191.607 216.574 186.906 210.038C181.733 202.877 179.805 193.863 181.733 185.922C183.641 178.098 189.443 170.957 197.213 166.801C204.275 163.035 213.028 161.572 221.86 162.723C229.591 163.718 237.459 166.586 245.248 171.288C253.942 176.537 263.955 186.175 265.981 197.511C266.099 198.136 265.666 198.741 265.017 198.838C264.368 198.955 263.758 198.526 263.64 197.902C261.751 187.327 252.27 178.254 244.009 173.278C236.514 168.752 228.961 165.962 221.545 165.006C213.205 163.933 204.963 165.298 198.354 168.83C191.155 172.674 185.804 179.268 184.034 186.468C182.264 193.765 184.054 202.077 188.834 208.711C193.259 214.818 200.144 219.579 208.229 222.076C208.858 222.271 209.192 222.915 208.996 223.539C208.838 224.027 208.386 224.339 207.875 224.339Z" fill="#703627"/>
<path d="M226 212.349C226 213.176 225.704 213.872 225.111 214.474C224.537 215.057 223.815 215.339 223 215.339C222.167 215.339 221.463 215.057 220.87 214.474C220.296 213.872 220 213.176 220 212.349C220 211.521 220.296 210.806 220.87 210.223C221.463 209.621 222.167 209.339 223 209.339C223.815 209.339 224.537 209.621 225.111 210.223C225.704 210.806 226 211.521 226 212.349Z" fill="#FAC4AF"/>
<path d="M249.239 228.339C248.557 228.339 248 227.809 248 227.162C248 226.514 248.557 226.004 249.239 226.004C256.979 226.004 263.833 220.803 264.514 214.404C264.596 213.756 265.195 213.285 265.876 213.344C266.578 213.423 267.074 213.992 266.991 214.64C266.165 222.196 258.218 228.339 249.239 228.339Z" fill="#703627"/>
<path d="M258.816 194.339C258.68 194.339 258.524 194.317 258.387 194.252C256.007 193.181 253.51 192.394 250.974 191.913C250.35 191.804 249.902 191.126 250.019 190.427C250.136 189.705 250.74 189.246 251.365 189.355C254.076 189.858 256.729 190.689 259.265 191.847C259.87 192.132 260.162 192.875 259.909 193.552C259.713 194.055 259.284 194.339 258.816 194.339Z" fill="#C58D72"/>
<path d="M250.898 183.339C250.788 183.339 250.66 183.302 250.533 183.264L245.72 181.513C245.154 181.306 244.863 180.666 245.063 180.082C245.264 179.499 245.884 179.198 246.467 179.405L251.28 181.156C251.846 181.363 252.137 182.003 251.937 182.586C251.773 183.038 251.353 183.339 250.898 183.339Z" fill="#C58D72"/>
<path d="M242.812 188.339C242.753 188.339 242.694 188.339 242.635 188.32L238.016 187.671C237.367 187.573 236.915 186.984 237.013 186.335C237.112 185.706 237.701 185.255 238.35 185.353L242.988 186.021C243.637 186.119 244.069 186.709 243.991 187.337C243.893 187.927 243.401 188.339 242.812 188.339Z" fill="#C58D72"/>
<path d="M238.818 176.339C238.66 176.339 238.522 176.294 238.384 176.249C236.71 175.503 234.936 175.097 233.143 175.029C232.493 175.006 231.981 174.374 232.001 173.628C232.04 172.882 232.592 172.317 233.242 172.34C235.291 172.43 237.32 172.905 239.232 173.741C239.842 174.012 240.158 174.78 239.921 175.481C239.744 176 239.291 176.339 238.818 176.339Z" fill="#C58D72"/>
<path d="M229.28 181.339C228.702 181.339 228.166 180.956 228.038 180.382C227.866 179.7 228.295 179.019 229.002 178.849C231.25 178.317 233.563 178.211 235.877 178.487C236.583 178.572 237.076 179.211 236.99 179.913C236.905 180.594 236.262 181.084 235.555 180.999C233.542 180.743 231.55 180.85 229.58 181.318C229.494 181.339 229.387 181.339 229.28 181.339Z" fill="#C58D72"/>
<path d="M268.913 236.339C268.483 236.339 268.089 236.071 267.91 235.63C266.817 232.736 264.883 230.187 262.465 228.423C261.981 228.059 261.856 227.35 262.179 226.832C262.519 226.315 263.199 226.181 263.683 226.545C266.441 228.557 268.662 231.49 269.916 234.768C270.149 235.362 269.88 236.014 269.325 236.263C269.182 236.32 269.056 236.339 268.913 236.339Z" fill="#C58D72"/>
<path d="M272.827 232.339C272.302 232.339 271.817 231.952 271.701 231.401C270.982 228.382 269.468 225.608 267.352 223.405C266.886 222.936 266.886 222.181 267.332 221.691C267.798 221.222 268.536 221.222 268.983 221.691C271.429 224.2 273.157 227.362 273.972 230.83C274.108 231.483 273.739 232.135 273.098 232.299C273.021 232.319 272.924 232.339 272.827 232.339Z" fill="#C58D72"/>
<path d="M277.652 251.339C277.592 251.339 277.552 251.339 277.493 251.339C276.835 251.263 276.377 250.689 276.457 250.078C276.875 246.637 276.417 243.101 275.082 239.89C274.843 239.298 275.142 238.648 275.76 238.418C276.377 238.189 277.074 238.476 277.313 239.068C278.787 242.623 279.305 246.523 278.827 250.345C278.768 250.919 278.25 251.339 277.652 251.339Z" fill="#C58D72"/>
</svg>
